<?xml version='1.0' encoding='utf-8'?>
<mlt title="Anonymous Submission" version="6.6.0" root="/opt/vlog/vlogs/fuengirola-open-2019" producer="main bin" LC_NUMERIC="de_DE.UTF-8">
 <profile width="1920" frame_rate_den="1" height="1080" display_aspect_num="16" display_aspect_den="9" frame_rate_num="25" colorspace="709" sample_aspect_den="1" description="HD 1080p 25 fps" progressive="1" sample_aspect_num="1"/>
 <producer id="1" title="Anonymous Submission" out="2095" in="0">
  <property name="length">2096</property>
  <property name="eof">pause</property>
  <property name="resource">videos/VID_20191026_090740.mp4</property>
  <property name="audio_index">0</property>
  <property name="video_index">1</property>
  <property name="mute_on_pause">1</property>
  <property name="mlt_service">avformat-novalidate</property>
  <property name="meta.media.nb_streams">2</property>
  <property name="meta.media.0.stream.type">audio</property>
  <property name="meta.media.0.codec.sample_fmt">fltp</property>
  <property name="meta.media.0.codec.sample_rate">48000</property>
  <property name="meta.media.0.codec.channels">2</property>
  <property name="meta.media.0.codec.name">aac</property>
  <property name="meta.media.0.codec.long_name">AAC (Advanced Audio Coding)</property>
  <property name="meta.media.0.codec.bit_rate">192021</property>
  <property name="meta.attr.0.stream.creation_time.markup">2019-10-26T07:07:40.000000Z</property>
  <property name="meta.attr.0.stream.language.markup">eng</property>
  <property name="meta.attr.0.stream.handler_name.markup">SoundHandle</property>
  <property name="meta.media.1.stream.type">video</property>
  <property name="meta.media.1.stream.frame_rate">30,1335</property>
  <property name="meta.media.1.stream.sample_aspect_ratio">1</property>
  <property name="meta.media.1.codec.width">1920</property>
  <property name="meta.media.1.codec.height">1080</property>
  <property name="meta.media.1.codec.rotate">0</property>
  <property name="meta.media.1.codec.frame_rate">90000</property>
  <property name="meta.media.1.codec.pix_fmt">yuvj420p</property>
  <property name="meta.media.1.codec.sample_aspect_ratio">0</property>
  <property name="meta.media.1.codec.colorspace">601</property>
  <property name="meta.media.1.codec.color_trc">15</property>
  <property name="meta.media.1.codec.name">h264</property>
  <property name="meta.media.1.codec.long_name">H.264 / AVC / MPEG-4 AVC / MPEG-4 part 10</property>
  <property name="meta.media.1.codec.bit_rate">22040176</property>
  <property name="meta.attr.1.stream.creation_time.markup">2019-10-26T07:07:40.000000Z</property>
  <property name="meta.attr.1.stream.language.markup">eng</property>
  <property name="meta.attr.1.stream.handler_name.markup">VideoHandle</property>
  <property name="meta.attr.major_brand.markup">mp42</property>
  <property name="meta.attr.minor_version.markup">0</property>
  <property name="meta.attr.compatible_brands.markup">isommp42</property>
  <property name="meta.attr.creation_time.markup">2019-10-26T07:07:40.000000Z</property>
  <property name="meta.attr.location.markup">+47.2436+009.6049/</property>
  <property name="meta.attr.location-eng.markup">+47.2436+009.6049/</property>
  <property name="meta.attr.com.android.version.markup">10</property>
  <property name="seekable">1</property>
  <property name="meta.media.sample_aspect_num">1</property>
  <property name="meta.media.sample_aspect_den">1</property>
  <property name="aspect_ratio">1</property>
  <property name="kdenlive:folderid">1</property>
  <property name="meta.media.frame_rate_num">227250000</property>
  <property name="meta.media.frame_rate_den">7541449</property>
  <property name="meta.media.colorspace">601</property>
  <property name="meta.media.color_trc">15</property>
  <property name="meta.media.width">1920</property>
  <property name="meta.media.height">1080</property>
  <property name="meta.media.variable_frame_rate">1</property>
  <property name="meta.media.top_field_first">0</property>
  <property name="meta.media.progressive">1</property>
  <property name="kdenlive:file_size">232901766</property>
  <property name="kdenlive:file_hash">476dfd97f3312ee5ea254e030e3f5d88</property>
  <property name="global_feed">1</property>
 </producer>
 <producer id="2" title="Anonymous Submission" out="2460" in="0">
  <property name="length">2461</property>
  <property name="eof">pause</property>
  <property name="resource">videos/VID_20191026_091811.mp4</property>
  <property name="audio_index">0</property>
  <property name="video_index">1</property>
  <property name="mute_on_pause">1</property>
  <property name="mlt_service">avformat-novalidate</property>
  <property name="meta.media.nb_streams">2</property>
  <property name="meta.media.0.stream.type">audio</property>
  <property name="meta.media.0.codec.sample_fmt">fltp</property>
  <property name="meta.media.0.codec.sample_rate">48000</property>
  <property name="meta.media.0.codec.channels">2</property>
  <property name="meta.media.0.codec.name">aac</property>
  <property name="meta.media.0.codec.long_name">AAC (Advanced Audio Coding)</property>
  <property name="meta.media.0.codec.bit_rate">191961</property>
  <property name="meta.attr.0.stream.creation_time.markup">2019-10-26T07:18:11.000000Z</property>
  <property name="meta.attr.0.stream.language.markup">eng</property>
  <property name="meta.attr.0.stream.handler_name.markup">SoundHandle</property>
  <property name="meta.media.1.stream.type">video</property>
  <property name="meta.media.1.stream.frame_rate">30,012</property>
  <property name="meta.media.1.stream.sample_aspect_ratio">1</property>
  <property name="meta.media.1.codec.width">1920</property>
  <property name="meta.media.1.codec.height">1080</property>
  <property name="meta.media.1.codec.rotate">0</property>
  <property name="meta.media.1.codec.frame_rate">90000</property>
  <property name="meta.media.1.codec.pix_fmt">yuvj420p</property>
  <property name="meta.media.1.codec.sample_aspect_ratio">0</property>
  <property name="meta.media.1.codec.colorspace">601</property>
  <property name="meta.media.1.codec.color_trc">15</property>
  <property name="meta.media.1.codec.name">h264</property>
  <property name="meta.media.1.codec.long_name">H.264 / AVC / MPEG-4 AVC / MPEG-4 part 10</property>
  <property name="meta.media.1.codec.bit_rate">22050517</property>
  <property name="meta.attr.1.stream.creation_time.markup">2019-10-26T07:18:11.000000Z</property>
  <property name="meta.attr.1.stream.language.markup">eng</property>
  <property name="meta.attr.1.stream.handler_name.markup">VideoHandle</property>
  <property name="meta.attr.major_brand.markup">mp42</property>
  <property name="meta.attr.minor_version.markup">0</property>
  <property name="meta.attr.compatible_brands.markup">isommp42</property>
  <property name="meta.attr.creation_time.markup">2019-10-26T07:18:11.000000Z</property>
  <property name="meta.attr.location.markup">+47.2413+009.6048/</property>
  <property name="meta.attr.location-eng.markup">+47.2413+009.6048/</property>
  <property name="meta.attr.com.android.version.markup">10</property>
  <property name="seekable">1</property>
  <property name="meta.media.sample_aspect_num">1</property>
  <property name="meta.media.sample_aspect_den">1</property>
  <property name="aspect_ratio">1</property>
  <property name="kdenlive:folderid">1</property>
  <property name="meta.media.frame_rate_num">26586000</property>
  <property name="meta.media.frame_rate_den">885847</property>
  <property name="meta.media.colorspace">601</property>
  <property name="meta.media.color_trc">15</property>
  <property name="meta.media.width">1920</property>
  <property name="meta.media.height">1080</property>
  <property name="meta.media.top_field_first">0</property>
  <property name="meta.media.progressive">1</property>
  <property name="kdenlive:file_size">273698297</property>
  <property name="kdenlive:file_hash">8fe38b31bec90057bb60c4c3b5afe2f4</property>
  <property name="global_feed">1</property>
 </producer>
 <producer id="3" title="Anonymous Submission" out="889" in="0">
  <property name="length">890</property>
  <property name="eof">pause</property>
  <property name="resource">videos/VID_20191026_094938.mp4</property>
  <property name="audio_index">0</property>
  <property name="video_index">1</property>
  <property name="mute_on_pause">1</property>
  <property name="mlt_service">avformat-novalidate</property>
  <property name="meta.media.nb_streams">2</property>
  <property name="meta.media.0.stream.type">audio</property>
  <property name="meta.media.0.codec.sample_fmt">fltp</property>
  <property name="meta.media.0.codec.sample_rate">48000</property>
  <property name="meta.media.0.codec.channels">2</property>
  <property name="meta.media.0.codec.name">aac</property>
  <property name="meta.media.0.codec.long_name">AAC (Advanced Audio Coding)</property>
  <property name="meta.media.0.codec.bit_rate">191912</property>
  <property name="meta.attr.0.stream.creation_time.markup">2019-10-26T07:49:37.000000Z</property>
  <property name="meta.attr.0.stream.language.markup">eng</property>
  <property name="meta.attr.0.stream.handler_name.markup">SoundHandle</property>
  <property name="meta.media.1.stream.type">video</property>
  <property name="meta.media.1.stream.frame_rate">30,0169</property>
  <property name="meta.media.1.stream.sample_aspect_ratio">1</property>
  <property name="meta.media.1.codec.width">1920</property>
  <property name="meta.media.1.codec.height">1080</property>
  <property name="meta.media.1.codec.rotate">0</property>
  <property name="meta.media.1.codec.frame_rate">90000</property>
  <property name="meta.media.1.codec.pix_fmt">yuvj420p</property>
  <property name="meta.media.1.codec.sample_aspect_ratio">0</property>
  <property name="meta.media.1.codec.colorspace">601</property>
  <property name="meta.media.1.codec.color_trc">15</property>
  <property name="meta.media.1.codec.name">h264</property>
  <property name="meta.media.1.codec.long_name">H.264 / AVC / MPEG-4 AVC / MPEG-4 part 10</property>
  <property name="meta.media.1.codec.bit_rate">22161676</property>
  <property name="meta.attr.1.stream.creation_time.markup">2019-10-26T07:49:37.000000Z</property>
  <property name="meta.attr.1.stream.language.markup">eng</property>
  <property name="meta.attr.1.stream.handler_name.markup">VideoHandle</property>
  <property name="meta.attr.major_brand.markup">mp42</property>
  <property name="meta.attr.minor_version.markup">0</property>
  <property name="meta.attr.compatible_brands.markup">isommp42</property>
  <property name="meta.attr.creation_time.markup">2019-10-26T07:49:37.000000Z</property>
  <property name="meta.attr.location.markup">+47.2441+009.6066/</property>
  <property name="meta.attr.location-eng.markup">+47.2441+009.6066/</property>
  <property name="meta.attr.com.android.version.markup">10</property>
  <property name="seekable">1</property>
  <property name="meta.media.sample_aspect_num">1</property>
  <property name="meta.media.sample_aspect_den">1</property>
  <property name="aspect_ratio">1</property>
  <property name="kdenlive:folderid">1</property>
  <property name="meta.media.frame_rate_num">6007500</property>
  <property name="meta.media.frame_rate_den">200137</property>
  <property name="meta.media.colorspace">601</property>
  <property name="meta.media.color_trc">15</property>
  <property name="meta.media.width">1920</property>
  <property name="meta.media.height">1080</property>
  <property name="meta.media.variable_frame_rate">1</property>
  <property name="meta.media.top_field_first">0</property>
  <property name="meta.media.progressive">1</property>
  <property name="kdenlive:file_size">99436892</property>
  <property name="kdenlive:file_hash">62cad818970ddc0ef0ca8de9439c65cb</property>
  <property name="global_feed">1</property>
 </producer>
 <producer id="4" title="Anonymous Submission" out="1637" in="0">
  <property name="length">1638</property>
  <property name="eof">pause</property>
  <property name="resource">videos/VID_20191026_095334.mp4</property>
  <property name="audio_index">0</property>
  <property name="video_index">1</property>
  <property name="mute_on_pause">1</property>
  <property name="mlt_service">avformat-novalidate</property>
  <property name="meta.media.nb_streams">2</property>
  <property name="meta.media.0.stream.type">audio</property>
  <property name="meta.media.0.codec.sample_fmt">fltp</property>
  <property name="meta.media.0.codec.sample_rate">48000</property>
  <property name="meta.media.0.codec.channels">2</property>
  <property name="meta.media.0.codec.name">aac</property>
  <property name="meta.media.0.codec.long_name">AAC (Advanced Audio Coding)</property>
  <property name="meta.media.0.codec.bit_rate">191998</property>
  <property name="meta.attr.0.stream.creation_time.markup">2019-10-26T07:53:34.000000Z</property>
  <property name="meta.attr.0.stream.language.markup">eng</property>
  <property name="meta.attr.0.stream.handler_name.markup">SoundHandle</property>
  <property name="meta.media.1.stream.type">video</property>
  <property name="meta.media.1.stream.frame_rate">30,012</property>
  <property name="meta.media.1.stream.sample_aspect_ratio">1</property>
  <property name="meta.media.1.codec.width">1920</property>
  <property name="meta.media.1.codec.height">1080</property>
  <property name="meta.media.1.codec.rotate">0</property>
  <property name="meta.media.1.codec.frame_rate">90000</property>
  <property name="meta.media.1.codec.pix_fmt">yuvj420p</property>
  <property name="meta.media.1.codec.sample_aspect_ratio">0</property>
  <property name="meta.media.1.codec.colorspace">601</property>
  <property name="meta.media.1.codec.color_trc">15</property>
  <property name="meta.media.1.codec.name">h264</property>
  <property name="meta.media.1.codec.long_name">H.264 / AVC / MPEG-4 AVC / MPEG-4 part 10</property>
  <property name="meta.media.1.codec.bit_rate">22063690</property>
  <property name="meta.attr.1.stream.creation_time.markup">2019-10-26T07:53:34.000000Z</property>
  <property name="meta.attr.1.stream.language.markup">eng</property>
  <property name="meta.attr.1.stream.handler_name.markup">VideoHandle</property>
  <property name="meta.attr.major_brand.markup">mp42</property>
  <property name="meta.attr.minor_version.markup">0</property>
  <property name="meta.attr.compatible_brands.markup">isommp42</property>
  <property name="meta.attr.creation_time.markup">2019-10-26T07:53:34.000000Z</property>
  <property name="meta.attr.location.markup">+47.2441+009.6066/</property>
  <property name="meta.attr.location-eng.markup">+47.2441+009.6066/</property>
  <property name="meta.attr.com.android.version.markup">10</property>
  <property name="seekable">1</property>
  <property name="meta.media.sample_aspect_num">1</property>
  <property name="meta.media.sample_aspect_den">1</property>
  <property name="aspect_ratio">1</property>
  <property name="kdenlive:folderid">1</property>
  <property name="meta.media.frame_rate_num">19660000</property>
  <property name="meta.media.frame_rate_den">655071</property>
  <property name="meta.media.colorspace">601</property>
  <property name="meta.media.color_trc">15</property>
  <property name="meta.media.width">1920</property>
  <property name="meta.media.height">1080</property>
  <property name="meta.media.top_field_first">0</property>
  <property name="meta.media.progressive">1</property>
  <property name="kdenlive:file_size">182267376</property>
  <property name="kdenlive:file_hash">ed495a40440a99f34448e32f68032315</property>
  <property name="global_feed">1</property>
 </producer>
 <producer id="5" title="Anonymous Submission" out="1255" in="0">
  <property name="length">1256</property>
  <property name="eof">pause</property>
  <property name="resource">videos/VID_20191026_095630.mp4</property>
  <property name="audio_index">0</property>
  <property name="video_index">1</property>
  <property name="mute_on_pause">1</property>
  <property name="mlt_service">avformat-novalidate</property>
  <property name="meta.media.nb_streams">2</property>
  <property name="meta.media.0.stream.type">audio</property>
  <property name="meta.media.0.codec.sample_fmt">fltp</property>
  <property name="meta.media.0.codec.sample_rate">48000</property>
  <property name="meta.media.0.codec.channels">2</property>
  <property name="meta.media.0.codec.name">aac</property>
  <property name="meta.media.0.codec.long_name">AAC (Advanced Audio Coding)</property>
  <property name="meta.media.0.codec.bit_rate">192016</property>
  <property name="meta.attr.0.stream.creation_time.markup">2019-10-26T07:56:30.000000Z</property>
  <property name="meta.attr.0.stream.language.markup">eng</property>
  <property name="meta.attr.0.stream.handler_name.markup">SoundHandle</property>
  <property name="meta.media.1.stream.type">video</property>
  <property name="meta.media.1.stream.frame_rate">30,0113</property>
  <property name="meta.media.1.stream.sample_aspect_ratio">1</property>
  <property name="meta.media.1.codec.width">1920</property>
  <property name="meta.media.1.codec.height">1080</property>
  <property name="meta.media.1.codec.rotate">0</property>
  <property name="meta.media.1.codec.frame_rate">90000</property>
  <property name="meta.media.1.codec.pix_fmt">yuvj420p</property>
  <property name="meta.media.1.codec.sample_aspect_ratio">0</property>
  <property name="meta.media.1.codec.colorspace">601</property>
  <property name="meta.media.1.codec.color_trc">15</property>
  <property name="meta.media.1.codec.name">h264</property>
  <property name="meta.media.1.codec.long_name">H.264 / AVC / MPEG-4 AVC / MPEG-4 part 10</property>
  <property name="meta.media.1.codec.bit_rate">22104544</property>
  <property name="meta.attr.1.stream.creation_time.markup">2019-10-26T07:56:30.000000Z</property>
  <property name="meta.attr.1.stream.language.markup">eng</property>
  <property name="meta.attr.1.stream.handler_name.markup">VideoHandle</property>
  <property name="meta.attr.major_brand.markup">mp42</property>
  <property name="meta.attr.minor_version.markup">0</property>
  <property name="meta.attr.compatible_brands.markup">isommp42</property>
  <property name="meta.attr.creation_time.markup">2019-10-26T07:56:30.000000Z</property>
  <property name="meta.attr.location.markup">+47.2215+009.5720/</property>
  <property name="meta.attr.location-eng.markup">+47.2215+009.5720/</property>
  <property name="meta.attr.com.android.version.markup">10</property>
  <property name="seekable">1</property>
  <property name="meta.media.sample_aspect_num">1</property>
  <property name="meta.media.sample_aspect_den">1</property>
  <property name="aspect_ratio">1</property>
  <property name="kdenlive:folderid">1</property>
  <property name="meta.media.frame_rate_num">16953750</property>
  <property name="meta.media.frame_rate_den">564913</property>
  <property name="meta.media.colorspace">601</property>
  <property name="meta.media.color_trc">15</property>
  <property name="meta.media.width">1920</property>
  <property name="meta.media.height">1080</property>
  <property name="meta.media.top_field_first">0</property>
  <property name="meta.media.progressive">1</property>
  <property name="kdenlive:file_size">139975762</property>
  <property name="kdenlive:file_hash">16bdb2e5b4856047c46b666f9db8be42</property>
  <property name="global_feed">1</property>
 </producer>
 <producer id="6" title="Anonymous Submission" out="1330" in="0">
  <property name="length">1331</property>
  <property name="eof">pause</property>
  <property name="resource">videos/VID_20191026_121643.mp4</property>
  <property name="audio_index">0</property>
  <property name="video_index">1</property>
  <property name="mute_on_pause">1</property>
  <property name="mlt_service">avformat-novalidate</property>
  <property name="meta.media.nb_streams">2</property>
  <property name="meta.media.0.stream.type">audio</property>
  <property name="meta.media.0.codec.sample_fmt">fltp</property>
  <property name="meta.media.0.codec.sample_rate">48000</property>
  <property name="meta.media.0.codec.channels">2</property>
  <property name="meta.media.0.codec.name">aac</property>
  <property name="meta.media.0.codec.long_name">AAC (Advanced Audio Coding)</property>
  <property name="meta.media.0.codec.bit_rate">192004</property>
  <property name="meta.attr.0.stream.creation_time.markup">2019-10-26T10:16:43.000000Z</property>
  <property name="meta.attr.0.stream.language.markup">eng</property>
  <property name="meta.attr.0.stream.handler_name.markup">SoundHandle</property>
  <property name="meta.media.1.stream.type">video</property>
  <property name="meta.media.1.stream.frame_rate">30,0947</property>
  <property name="meta.media.1.stream.sample_aspect_ratio">1</property>
  <property name="meta.media.1.codec.width">1920</property>
  <property name="meta.media.1.codec.height">1080</property>
  <property name="meta.media.1.codec.rotate">0</property>
  <property name="meta.media.1.codec.frame_rate">90000</property>
  <property name="meta.media.1.codec.pix_fmt">yuvj420p</property>
  <property name="meta.media.1.codec.sample_aspect_ratio">0</property>
  <property name="meta.media.1.codec.colorspace">601</property>
  <property name="meta.media.1.codec.color_trc">15</property>
  <property name="meta.media.1.codec.name">h264</property>
  <property name="meta.media.1.codec.long_name">H.264 / AVC / MPEG-4 AVC / MPEG-4 part 10</property>
  <property name="meta.media.1.codec.bit_rate">22046265</property>
  <property name="meta.attr.1.stream.creation_time.markup">2019-10-26T10:16:43.000000Z</property>
  <property name="meta.attr.1.stream.language.markup">eng</property>
  <property name="meta.attr.1.stream.handler_name.markup">VideoHandle</property>
  <property name="meta.attr.major_brand.markup">mp42</property>
  <property name="meta.attr.minor_version.markup">0</property>
  <property name="meta.attr.compatible_brands.markup">isommp42</property>
  <property name="meta.attr.creation_time.markup">2019-10-26T10:16:43.000000Z</property>
  <property name="meta.attr.location.markup">+47.4521+008.5618/</property>
  <property name="meta.attr.location-eng.markup">+47.4521+008.5618/</property>
  <property name="meta.attr.com.android.version.markup">10</property>
  <property name="seekable">1</property>
  <property name="meta.media.sample_aspect_num">1</property>
  <property name="meta.media.sample_aspect_den">1</property>
  <property name="aspect_ratio">1</property>
  <property name="kdenlive:folderid">1</property>
  <property name="meta.media.frame_rate_num">48060000</property>
  <property name="meta.media.frame_rate_den">1596959</property>
  <property name="meta.media.colorspace">601</property>
  <property name="meta.media.color_trc">15</property>
  <property name="meta.media.width">1920</property>
  <property name="meta.media.height">1080</property>
  <property name="meta.media.variable_frame_rate">1</property>
  <property name="meta.media.top_field_first">0</property>
  <property name="meta.media.progressive">1</property>
  <property name="kdenlive:file_size">147998470</property>
  <property name="kdenlive:file_hash">400b225740a59b5eea0389b4c329cdc6</property>
  <property name="global_feed">1</property>
 </producer>
 <producer id="7" title="Anonymous Submission" out="1103" in="0">
  <property name="length">1104</property>
  <property name="eof">pause</property>
  <property name="resource">videos/VID_20191026_122154.mp4</property>
  <property name="audio_index">0</property>
  <property name="video_index">1</property>
  <property name="mute_on_pause">1</property>
  <property name="mlt_service">avformat-novalidate</property>
  <property name="meta.media.nb_streams">2</property>
  <property name="meta.media.0.stream.type">audio</property>
  <property name="meta.media.0.codec.sample_fmt">fltp</property>
  <property name="meta.media.0.codec.sample_rate">48000</property>
  <property name="meta.media.0.codec.channels">2</property>
  <property name="meta.media.0.codec.name">aac</property>
  <property name="meta.media.0.codec.long_name">AAC (Advanced Audio Coding)</property>
  <property name="meta.media.0.codec.bit_rate">191996</property>
  <property name="meta.attr.0.stream.creation_time.markup">2019-10-26T10:21:54.000000Z</property>
  <property name="meta.attr.0.stream.language.markup">eng</property>
  <property name="meta.attr.0.stream.handler_name.markup">SoundHandle</property>
  <property name="meta.media.1.stream.type">video</property>
  <property name="meta.media.1.stream.frame_rate">30,0851</property>
  <property name="meta.media.1.stream.sample_aspect_ratio">1</property>
  <property name="meta.media.1.codec.width">1920</property>
  <property name="meta.media.1.codec.height">1080</property>
  <property name="meta.media.1.codec.rotate">0</property>
  <property name="meta.media.1.codec.frame_rate">90000</property>
  <property name="meta.media.1.codec.pix_fmt">yuvj420p</property>
  <property name="meta.media.1.codec.sample_aspect_ratio">0</property>
  <property name="meta.media.1.codec.colorspace">601</property>
  <property name="meta.media.1.codec.color_trc">15</property>
  <property name="meta.media.1.codec.name">h264</property>
  <property name="meta.media.1.codec.long_name">H.264 / AVC / MPEG-4 AVC / MPEG-4 part 10</property>
  <property name="meta.media.1.codec.bit_rate">22019689</property>
  <property name="meta.attr.1.stream.creation_time.markup">2019-10-26T10:21:54.000000Z</property>
  <property name="meta.attr.1.stream.language.markup">eng</property>
  <property name="meta.attr.1.stream.handler_name.markup">VideoHandle</property>
  <property name="meta.attr.major_brand.markup">mp42</property>
  <property name="meta.attr.minor_version.markup">0</property>
  <property name="meta.attr.compatible_brands.markup">isommp42</property>
  <property name="meta.attr.creation_time.markup">2019-10-26T10:21:54.000000Z</property>
  <property name="meta.attr.location.markup">+47.4521+008.5609/</property>
  <property name="meta.attr.location-eng.markup">+47.4521+008.5609/</property>
  <property name="meta.attr.com.android.version.markup">10</property>
  <property name="seekable">1</property>
  <property name="meta.media.sample_aspect_num">1</property>
  <property name="meta.media.sample_aspect_den">1</property>
  <property name="aspect_ratio">1</property>
  <property name="kdenlive:folderid">1</property>
  <property name="meta.media.frame_rate_num">119520000</property>
  <property name="meta.media.frame_rate_den">3972737</property>
  <property name="meta.media.colorspace">601</property>
  <property name="meta.media.color_trc">15</property>
  <property name="meta.media.width">1920</property>
  <property name="meta.media.height">1080</property>
  <property name="meta.media.top_field_first">0</property>
  <property name="meta.media.progressive">1</property>
  <property name="kdenlive:file_size">122579281</property>
  <property name="kdenlive:file_hash">df463821ffb426a7438cd78762ce1ac5</property>
  <property name="global_feed">1</property>
 </producer>
 <producer id="8" title="Anonymous Submission" out="3526" in="0">
  <property name="length">3527</property>
  <property name="eof">pause</property>
  <property name="resource">videos/VID_20191026_151716.mp4</property>
  <property name="audio_index">0</property>
  <property name="video_index">1</property>
  <property name="mute_on_pause">1</property>
  <property name="mlt_service">avformat-novalidate</property>
  <property name="meta.media.nb_streams">2</property>
  <property name="meta.media.0.stream.type">audio</property>
  <property name="meta.media.0.codec.sample_fmt">fltp</property>
  <property name="meta.media.0.codec.sample_rate">48000</property>
  <property name="meta.media.0.codec.channels">2</property>
  <property name="meta.media.0.codec.name">aac</property>
  <property name="meta.media.0.codec.long_name">AAC (Advanced Audio Coding)</property>
  <property name="meta.media.0.codec.bit_rate">192008</property>
  <property name="meta.attr.0.stream.creation_time.markup">2019-10-26T13:17:16.000000Z</property>
  <property name="meta.attr.0.stream.language.markup">eng</property>
  <property name="meta.attr.0.stream.handler_name.markup">SoundHandle</property>
  <property name="meta.media.1.stream.type">video</property>
  <property name="meta.media.1.stream.frame_rate">30,0109</property>
  <property name="meta.media.1.stream.sample_aspect_ratio">1</property>
  <property name="meta.media.1.codec.width">1920</property>
  <property name="meta.media.1.codec.height">1080</property>
  <property name="meta.media.1.codec.rotate">0</property>
  <property name="meta.media.1.codec.frame_rate">90000</property>
  <property name="meta.media.1.codec.pix_fmt">yuvj420p</property>
  <property name="meta.media.1.codec.sample_aspect_ratio">0</property>
  <property name="meta.media.1.codec.colorspace">601</property>
  <property name="meta.media.1.codec.color_trc">15</property>
  <property name="meta.media.1.codec.name">h264</property>
  <property name="meta.media.1.codec.long_name">H.264 / AVC / MPEG-4 AVC / MPEG-4 part 10</property>
  <property name="meta.media.1.codec.bit_rate">22009280</property>
  <property name="meta.attr.1.stream.creation_time.markup">2019-10-26T13:17:16.000000Z</property>
  <property name="meta.attr.1.stream.language.markup">eng</property>
  <property name="meta.attr.1.stream.handler_name.markup">VideoHandle</property>
  <property name="meta.attr.major_brand.markup">mp42</property>
  <property name="meta.attr.minor_version.markup">0</property>
  <property name="meta.attr.compatible_brands.markup">isommp42</property>
  <property name="meta.attr.creation_time.markup">2019-10-26T13:17:16.000000Z</property>
  <property name="meta.attr.location.markup">+47.4510+008.5599/</property>
  <property name="meta.attr.location-eng.markup">+47.4510+008.5599/</property>
  <property name="meta.attr.com.android.version.markup">10</property>
  <property name="seekable">1</property>
  <property name="meta.media.sample_aspect_num">1</property>
  <property name="meta.media.sample_aspect_den">1</property>
  <property name="aspect_ratio">1</property>
  <property name="kdenlive:folderid">1</property>
  <property name="meta.media.frame_rate_num">2117000</property>
  <property name="meta.media.frame_rate_den">70541</property>
  <property name="meta.media.colorspace">601</property>
  <property name="meta.media.color_trc">15</property>
  <property name="meta.media.width">1920</property>
  <property name="meta.media.height">1080</property>
  <property name="meta.media.top_field_first">0</property>
  <property name="meta.media.progressive">1</property>
  <property name="kdenlive:file_size">391576423</property>
  <property name="kdenlive:file_hash">fbc0374d0a19a7198b3fcce58ae22576</property>
  <property name="global_feed">1</property>
 </producer>
 <producer id="9" title="Anonymous Submission" out="4447" in="0">
  <property name="length">4448</property>
  <property name="eof">pause</property>
  <property name="resource">videos/VID_20191026_165543.mp4</property>
  <property name="audio_index">0</property>
  <property name="video_index">1</property>
  <property name="mute_on_pause">1</property>
  <property name="mlt_service">avformat-novalidate</property>
  <property name="meta.media.nb_streams">2</property>
  <property name="meta.media.0.stream.type">audio</property>
  <property name="meta.media.0.codec.sample_fmt">fltp</property>
  <property name="meta.media.0.codec.sample_rate">48000</property>
  <property name="meta.media.0.codec.channels">2</property>
  <property name="meta.media.0.codec.name">aac</property>
  <property name="meta.media.0.codec.long_name">AAC (Advanced Audio Coding)</property>
  <property name="meta.media.0.codec.bit_rate">191606</property>
  <property name="meta.attr.0.stream.creation_time.markup">2019-10-26T14:55:43.000000Z</property>
  <property name="meta.attr.0.stream.language.markup">eng</property>
  <property name="meta.attr.0.stream.handler_name.markup">SoundHandle</property>
  <property name="meta.media.1.stream.type">video</property>
  <property name="meta.media.1.stream.frame_rate">30,608</property>
  <property name="meta.media.1.stream.sample_aspect_ratio">1</property>
  <property name="meta.media.1.codec.width">1920</property>
  <property name="meta.media.1.codec.height">1080</property>
  <property name="meta.media.1.codec.rotate">0</property>
  <property name="meta.media.1.codec.frame_rate">90000</property>
  <property name="meta.media.1.codec.pix_fmt">yuvj420p</property>
  <property name="meta.media.1.codec.sample_aspect_ratio">0</property>
  <property name="meta.media.1.codec.colorspace">601</property>
  <property name="meta.media.1.codec.color_trc">15</property>
  <property name="meta.media.1.codec.name">h264</property>
  <property name="meta.media.1.codec.long_name">H.264 / AVC / MPEG-4 AVC / MPEG-4 part 10</property>
  <property name="meta.media.1.codec.bit_rate">22214667</property>
  <property name="meta.attr.1.stream.creation_time.markup">2019-10-26T14:55:43.000000Z</property>
  <property name="meta.attr.1.stream.language.markup">eng</property>
  <property name="meta.attr.1.stream.handler_name.markup">VideoHandle</property>
  <property name="meta.attr.major_brand.markup">mp42</property>
  <property name="meta.attr.minor_version.markup">0</property>
  <property name="meta.attr.compatible_brands.markup">isommp42</property>
  <property name="meta.attr.creation_time.markup">2019-10-26T14:55:43.000000Z</property>
  <property name="meta.attr.location.markup">+47.4553+008.5554/</property>
  <property name="meta.attr.location-eng.markup">+47.4553+008.5554/</property>
  <property name="meta.attr.com.android.version.markup">10</property>
  <property name="seekable">1</property>
  <property name="meta.media.sample_aspect_num">1</property>
  <property name="meta.media.sample_aspect_den">1</property>
  <property name="aspect_ratio">1</property>
  <property name="kdenlive:folderid">1</property>
  <property name="meta.media.frame_rate_num">6050000</property>
  <property name="meta.media.frame_rate_den">197661</property>
  <property name="meta.media.colorspace">601</property>
  <property name="meta.media.color_trc">15</property>
  <property name="meta.media.width">1920</property>
  <property name="meta.media.height">1080</property>
  <property name="meta.media.top_field_first">0</property>
  <property name="meta.media.progressive">1</property>
  <property name="kdenlive:file_size">498310421</property>
  <property name="kdenlive:file_hash">d50d5bdf4035f31dc24faa89345ba7f6</property>
  <property name="global_feed">1</property>
 </producer>
 <producer id="10" title="Anonymous Submission" out="433" in="0">
  <property name="length">434</property>
  <property name="eof">pause</property>
  <property name="resource">videos/VID_20191026_170224.mp4</property>
  <property name="audio_index">0</property>
  <property name="video_index">1</property>
  <property name="mute_on_pause">1</property>
  <property name="mlt_service">avformat-novalidate</property>
  <property name="meta.media.nb_streams">2</property>
  <property name="meta.media.0.stream.type">audio</property>
  <property name="meta.media.0.codec.sample_fmt">fltp</property>
  <property name="meta.media.0.codec.sample_rate">48000</property>
  <property name="meta.media.0.codec.channels">2</property>
  <property name="meta.media.0.codec.name">aac</property>
  <property name="meta.media.0.codec.long_name">AAC (Advanced Audio Coding)</property>
  <property name="meta.media.0.codec.bit_rate">188113</property>
  <property name="meta.attr.0.stream.creation_time.markup">2019-10-26T15:02:24.000000Z</property>
  <property name="meta.attr.0.stream.language.markup">eng</property>
  <property name="meta.attr.0.stream.handler_name.markup">SoundHandle</property>
  <property name="meta.media.1.stream.type">video</property>
  <property name="meta.media.1.stream.frame_rate">36,0489</property>
  <property name="meta.media.1.stream.sample_aspect_ratio">1</property>
  <property name="meta.media.1.codec.width">1920</property>
  <property name="meta.media.1.codec.height">1080</property>
  <property name="meta.media.1.codec.rotate">0</property>
  <property name="meta.media.1.codec.frame_rate">90000</property>
  <property name="meta.media.1.codec.pix_fmt">yuvj420p</property>
  <property name="meta.media.1.codec.sample_aspect_ratio">0</property>
  <property name="meta.media.1.codec.colorspace">601</property>
  <property name="meta.media.1.codec.color_trc">15</property>
  <property name="meta.media.1.codec.name">h264</property>
  <property name="meta.media.1.codec.long_name">H.264 / AVC / MPEG-4 AVC / MPEG-4 part 10</property>
  <property name="meta.media.1.codec.bit_rate">24199924</property>
  <property name="meta.attr.1.stream.creation_time.markup">2019-10-26T15:02:24.000000Z</property>
  <property name="meta.attr.1.stream.language.markup">eng</property>
  <property name="meta.attr.1.stream.handler_name.markup">VideoHandle</property>
  <property name="meta.attr.major_brand.markup">mp42</property>
  <property name="meta.attr.minor_version.markup">0</property>
  <property name="meta.attr.compatible_brands.markup">isommp42</property>
  <property name="meta.attr.creation_time.markup">2019-10-26T15:02:24.000000Z</property>
  <property name="meta.attr.location.markup">+47.4561+008.5699/</property>
  <property name="meta.attr.location-eng.markup">+47.4561+008.5699/</property>
  <property name="meta.attr.com.android.version.markup">10</property>
  <property name="seekable">1</property>
  <property name="meta.media.sample_aspect_num">1</property>
  <property name="meta.media.sample_aspect_den">1</property>
  <property name="aspect_ratio">1</property>
  <property name="kdenlive:folderid">1</property>
  <property name="meta.media.frame_rate_num">56160000</property>
  <property name="meta.media.frame_rate_den">1557883</property>
  <property name="meta.media.colorspace">601</property>
  <property name="meta.media.color_trc">15</property>
  <property name="meta.media.width">1920</property>
  <property name="meta.media.height">1080</property>
  <property name="meta.media.top_field_first">0</property>
  <property name="meta.media.progressive">1</property>
  <property name="kdenlive:file_size">52780682</property>
  <property name="kdenlive:file_hash">c1053b4ec076fa72fdcb24982859d297</property>
  <property name="global_feed">1</property>
 </producer>
 <producer id="11" title="Anonymous Submission" out="461" in="0">
  <property name="length">462</property>
  <property name="eof">pause</property>
  <property name="resource">videos/VID_20191026_171047.mp4</property>
  <property name="audio_index">0</property>
  <property name="video_index">1</property>
  <property name="mute_on_pause">1</property>
  <property name="mlt_service">avformat-novalidate</property>
  <property name="meta.media.nb_streams">2</property>
  <property name="meta.media.0.stream.type">audio</property>
  <property name="meta.media.0.codec.sample_fmt">fltp</property>
  <property name="meta.media.0.codec.sample_rate">48000</property>
  <property name="meta.media.0.codec.channels">2</property>
  <property name="meta.media.0.codec.name">aac</property>
  <property name="meta.media.0.codec.long_name">AAC (Advanced Audio Coding)</property>
  <property name="meta.media.0.codec.bit_rate">189110</property>
  <property name="meta.attr.0.stream.creation_time.markup">2019-10-26T15:10:47.000000Z</property>
  <property name="meta.attr.0.stream.language.markup">eng</property>
  <property name="meta.attr.0.stream.handler_name.markup">SoundHandle</property>
  <property name="meta.media.1.stream.type">video</property>
  <property name="meta.media.1.stream.frame_rate">35,9616</property>
  <property name="meta.media.1.stream.sample_aspect_ratio">1</property>
  <property name="meta.media.1.codec.width">1920</property>
  <property name="meta.media.1.codec.height">1080</property>
  <property name="meta.media.1.codec.rotate">0</property>
  <property name="meta.media.1.codec.frame_rate">90000</property>
  <property name="meta.media.1.codec.pix_fmt">yuvj420p</property>
  <property name="meta.media.1.codec.sample_aspect_ratio">0</property>
  <property name="meta.media.1.codec.colorspace">601</property>
  <property name="meta.media.1.codec.color_trc">15</property>
  <property name="meta.media.1.codec.name">h264</property>
  <property name="meta.media.1.codec.long_name">H.264 / AVC / MPEG-4 AVC / MPEG-4 part 10</property>
  <property name="meta.media.1.codec.bit_rate">24133872</property>
  <property name="meta.attr.1.stream.creation_time.markup">2019-10-26T15:10:47.000000Z</property>
  <property name="meta.attr.1.stream.language.markup">eng</property>
  <property name="meta.attr.1.stream.handler_name.markup">VideoHandle</property>
  <property name="meta.attr.major_brand.markup">mp42</property>
  <property name="meta.attr.minor_version.markup">0</property>
  <property name="meta.attr.compatible_brands.markup">isommp42</property>
  <property name="meta.attr.creation_time.markup">2019-10-26T15:10:47.000000Z</property>
  <property name="meta.attr.location.markup">+46.8867+007.1681/</property>
  <property name="meta.attr.location-eng.markup">+46.8867+007.1681/</property>
  <property name="meta.attr.com.android.version.markup">10</property>
  <property name="seekable">1</property>
  <property name="meta.media.sample_aspect_num">1</property>
  <property name="meta.media.sample_aspect_den">1</property>
  <property name="aspect_ratio">1</property>
  <property name="kdenlive:folderid">1</property>
  <property name="meta.media.frame_rate_num">14962500</property>
  <property name="meta.media.frame_rate_den">416069</property>
  <property name="meta.media.colorspace">601</property>
  <property name="meta.media.color_trc">15</property>
  <property name="meta.media.width">1920</property>
  <property name="meta.media.height">1080</property>
  <property name="meta.media.top_field_first">0</property>
  <property name="meta.media.progressive">1</property>
  <property name="kdenlive:file_size">56233218</property>
  <property name="kdenlive:file_hash">88d58d50087c7dc33ab673dd8f2b717d</property>
  <property name="global_feed">1</property>
 </producer>
 <producer id="12" title="Anonymous Submission" out="2063" in="0">
  <property name="length">2064</property>
  <property name="eof">pause</property>
  <property name="resource">videos/VID_20191026_190141.mp4</property>
  <property name="audio_index">0</property>
  <property name="video_index">1</property>
  <property name="mute_on_pause">1</property>
  <property name="mlt_service">avformat-novalidate</property>
  <property name="meta.media.nb_streams">2</property>
  <property name="meta.media.0.stream.type">audio</property>
  <property name="meta.media.0.codec.sample_fmt">fltp</property>
  <property name="meta.media.0.codec.sample_rate">48000</property>
  <property name="meta.media.0.codec.channels">2</property>
  <property name="meta.media.0.codec.name">aac</property>
  <property name="meta.media.0.codec.long_name">AAC (Advanced Audio Coding)</property>
  <property name="meta.media.0.codec.bit_rate">191954</property>
  <property name="meta.attr.0.stream.creation_time.markup">2019-10-26T17:01:41.000000Z</property>
  <property name="meta.attr.0.stream.language.markup">eng</property>
  <property name="meta.attr.0.stream.handler_name.markup">SoundHandle</property>
  <property name="meta.media.1.stream.type">video</property>
  <property name="meta.media.1.stream.frame_rate">33,5668</property>
  <property name="meta.media.1.stream.sample_aspect_ratio">1</property>
  <property name="meta.media.1.codec.width">1920</property>
  <property name="meta.media.1.codec.height">1080</property>
  <property name="meta.media.1.codec.rotate">0</property>
  <property name="meta.media.1.codec.frame_rate">90000</property>
  <property name="meta.media.1.codec.pix_fmt">yuvj420p</property>
  <property name="meta.media.1.codec.sample_aspect_ratio">0</property>
  <property name="meta.media.1.codec.colorspace">601</property>
  <property name="meta.media.1.codec.color_trc">15</property>
  <property name="meta.media.1.codec.name">h264</property>
  <property name="meta.media.1.codec.long_name">H.264 / AVC / MPEG-4 AVC / MPEG-4 part 10</property>
  <property name="meta.media.1.codec.bit_rate">23296356</property>
  <property name="meta.attr.1.stream.creation_time.markup">2019-10-26T17:01:41.000000Z</property>
  <property name="meta.attr.1.stream.language.markup">eng</property>
  <property name="meta.attr.1.stream.handler_name.markup">VideoHandle</property>
  <property name="meta.attr.major_brand.markup">mp42</property>
  <property name="meta.attr.minor_version.markup">0</property>
  <property name="meta.attr.compatible_brands.markup">isommp42</property>
  <property name="meta.attr.creation_time.markup">2019-10-26T17:01:41.000000Z</property>
  <property name="meta.attr.com.android.version.markup">10</property>
  <property name="seekable">1</property>
  <property name="meta.media.sample_aspect_num">1</property>
  <property name="meta.media.sample_aspect_den">1</property>
  <property name="aspect_ratio">1</property>
  <property name="kdenlive:folderid">1</property>
  <property name="meta.media.frame_rate_num">24939000</property>
  <property name="meta.media.frame_rate_den">742967</property>
  <property name="meta.media.colorspace">601</property>
  <property name="meta.media.color_trc">15</property>
  <property name="meta.media.width">1920</property>
  <property name="meta.media.height">1080</property>
  <property name="meta.media.variable_frame_rate">1</property>
  <property name="meta.media.top_field_first">0</property>
  <property name="meta.media.progressive">1</property>
  <property name="kdenlive:file_size">242410121</property>
  <property name="kdenlive:file_hash">31b984922942fd354f1c4496879d61b7</property>
  <property name="global_feed">1</property>
 </producer>
 <producer id="13" title="Anonymous Submission" out="4174" in="0">
  <property name="length">4175</property>
  <property name="eof">pause</property>
  <property name="resource">videos/VID_20191026_190842.mp4</property>
  <property name="audio_index">0</property>
  <property name="video_index">1</property>
  <property name="mute_on_pause">1</property>
  <property name="mlt_service">avformat-novalidate</property>
  <property name="meta.media.nb_streams">2</property>
  <property name="meta.media.0.stream.type">audio</property>
  <property name="meta.media.0.codec.sample_fmt">fltp</property>
  <property name="meta.media.0.codec.sample_rate">48000</property>
  <property name="meta.media.0.codec.channels">2</property>
  <property name="meta.media.0.codec.name">aac</property>
  <property name="meta.media.0.codec.long_name">AAC (Advanced Audio Coding)</property>
  <property name="meta.media.0.codec.bit_rate">191982</property>
  <property name="meta.attr.0.stream.creation_time.markup">2019-10-26T17:08:42.000000Z</property>
  <property name="meta.attr.0.stream.language.markup">eng</property>
  <property name="meta.attr.0.stream.handler_name.markup">SoundHandle</property>
  <property name="meta.media.1.stream.type">video</property>
  <property name="meta.media.1.stream.frame_rate">30,0119</property>
  <property name="meta.media.1.stream.sample_aspect_ratio">1</property>
  <property name="meta.media.1.codec.width">1920</property>
  <property name="meta.media.1.codec.height">1080</property>
  <property name="meta.media.1.codec.rotate">0</property>
  <property name="meta.media.1.codec.frame_rate">90000</property>
  <property name="meta.media.1.codec.pix_fmt">yuvj420p</property>
  <property name="meta.media.1.codec.sample_aspect_ratio">0</property>
  <property name="meta.media.1.codec.colorspace">601</property>
  <property name="meta.media.1.codec.color_trc">15</property>
  <property name="meta.media.1.codec.name">h264</property>
  <property name="meta.media.1.codec.long_name">H.264 / AVC / MPEG-4 AVC / MPEG-4 part 10</property>
  <property name="meta.media.1.codec.bit_rate">22020801</property>
  <property name="meta.attr.1.stream.creation_time.markup">2019-10-26T17:08:42.000000Z</property>
  <property name="meta.attr.1.stream.language.markup">eng</property>
  <property name="meta.attr.1.stream.handler_name.markup">VideoHandle</property>
  <property name="meta.attr.major_brand.markup">mp42</property>
  <property name="meta.attr.minor_version.markup">0</property>
  <property name="meta.attr.compatible_brands.markup">isommp42</property>
  <property name="meta.attr.creation_time.markup">2019-10-26T17:08:42.000000Z</property>
  <property name="meta.attr.location.markup">+36.7320-004.5788/</property>
  <property name="meta.attr.location-eng.markup">+36.7320-004.5788/</property>
  <property name="meta.attr.com.android.version.markup">10</property>
  <property name="seekable">1</property>
  <property name="meta.media.sample_aspect_num">1</property>
  <property name="meta.media.sample_aspect_den">1</property>
  <property name="aspect_ratio">1</property>
  <property name="kdenlive:folderid">1</property>
  <property name="meta.media.frame_rate_num">56385000</property>
  <property name="meta.media.frame_rate_den">1878757</property>
  <property name="meta.media.colorspace">601</property>
  <property name="meta.media.color_trc">15</property>
  <property name="meta.media.width">1920</property>
  <property name="meta.media.height">1080</property>
  <property name="meta.media.top_field_first">0</property>
  <property name="meta.media.progressive">1</property>
  <property name="kdenlive:file_size">463754079</property>
  <property name="kdenlive:file_hash">ef997bcca9ed5f2657f0034e8e335bb1</property>
  <property name="global_feed">1</property>
 </producer>
 <producer id="14" title="Anonymous Submission" out="537" in="0">
  <property name="length">538</property>
  <property name="eof">pause</property>
  <property name="resource">videos/VID_20191027_112518.mp4</property>
  <property name="audio_index">0</property>
  <property name="video_index">1</property>
  <property name="mute_on_pause">1</property>
  <property name="mlt_service">avformat-novalidate</property>
  <property name="meta.media.nb_streams">2</property>
  <property name="meta.media.0.stream.type">audio</property>
  <property name="meta.media.0.codec.sample_fmt">fltp</property>
  <property name="meta.media.0.codec.sample_rate">48000</property>
  <property name="meta.media.0.codec.channels">2</property>
  <property name="meta.media.0.codec.name">aac</property>
  <property name="meta.media.0.codec.long_name">AAC (Advanced Audio Coding)</property>
  <property name="meta.media.0.codec.bit_rate">191627</property>
  <property name="meta.attr.0.stream.creation_time.markup">2019-10-27T10:25:18.000000Z</property>
  <property name="meta.attr.0.stream.language.markup">eng</property>
  <property name="meta.attr.0.stream.handler_name.markup">SoundHandle</property>
  <property name="meta.media.1.stream.type">video</property>
  <property name="meta.media.1.stream.frame_rate">34,9716</property>
  <property name="meta.media.1.stream.sample_aspect_ratio">1</property>
  <property name="meta.media.1.codec.width">1920</property>
  <property name="meta.media.1.codec.height">1080</property>
  <property name="meta.media.1.codec.rotate">0</property>
  <property name="meta.media.1.codec.frame_rate">90000</property>
  <property name="meta.media.1.codec.pix_fmt">yuvj420p</property>
  <property name="meta.media.1.codec.sample_aspect_ratio">0</property>
  <property name="meta.media.1.codec.colorspace">601</property>
  <property name="meta.media.1.codec.color_trc">15</property>
  <property name="meta.media.1.codec.name">h264</property>
  <property name="meta.media.1.codec.long_name">H.264 / AVC / MPEG-4 AVC / MPEG-4 part 10</property>
  <property name="meta.media.1.codec.bit_rate">23778802</property>
  <property name="meta.attr.1.stream.creation_time.markup">2019-10-27T10:25:18.000000Z</property>
  <property name="meta.attr.1.stream.language.markup">eng</property>
  <property name="meta.attr.1.stream.handler_name.markup">VideoHandle</property>
  <property name="meta.attr.major_brand.markup">mp42</property>
  <property name="meta.attr.minor_version.markup">0</property>
  <property name="meta.attr.compatible_brands.markup">isommp42</property>
  <property name="meta.attr.creation_time.markup">2019-10-27T10:25:18.000000Z</property>
  <property name="meta.attr.location.markup">+36.5820-004.6131/</property>
  <property name="meta.attr.location-eng.markup">+36.5820-004.6131/</property>
  <property name="meta.attr.com.android.version.markup">10</property>
  <property name="seekable">1</property>
  <property name="meta.media.sample_aspect_num">1</property>
  <property name="meta.media.sample_aspect_den">1</property>
  <property name="aspect_ratio">1</property>
  <property name="kdenlive:folderid">1</property>
  <property name="meta.media.frame_rate_num">8448750</property>
  <property name="meta.media.frame_rate_den">241589</property>
  <property name="meta.media.colorspace">601</property>
  <property name="meta.media.color_trc">15</property>
  <property name="meta.media.width">1920</property>
  <property name="meta.media.height">1080</property>
  <property name="meta.media.top_field_first">0</property>
  <property name="meta.media.progressive">1</property>
  <property name="kdenlive:file_size">64358305</property>
  <property name="kdenlive:file_hash">75401e77bf8a5a9a22dfe6d2927423b0</property>
  <property name="global_feed">1</property>
 </producer>
 <producer id="15" title="Anonymous Submission" out="477" in="0">
  <property name="length">478</property>
  <property name="eof">pause</property>
  <property name="resource">videos/VID_20191027_114233.mp4</property>
  <property name="audio_index">0</property>
  <property name="video_index">1</property>
  <property name="mute_on_pause">1</property>
  <property name="mlt_service">avformat-novalidate</property>
  <property name="meta.media.nb_streams">2</property>
  <property name="meta.media.0.stream.type">audio</property>
  <property name="meta.media.0.codec.sample_fmt">fltp</property>
  <property name="meta.media.0.codec.sample_rate">48000</property>
  <property name="meta.media.0.codec.channels">2</property>
  <property name="meta.media.0.codec.name">aac</property>
  <property name="meta.media.0.codec.long_name">AAC (Advanced Audio Coding)</property>
  <property name="meta.media.0.codec.bit_rate">191581</property>
  <property name="meta.attr.0.stream.creation_time.markup">2019-10-27T10:42:33.000000Z</property>
  <property name="meta.attr.0.stream.language.markup">eng</property>
  <property name="meta.attr.0.stream.handler_name.markup">SoundHandle</property>
  <property name="meta.media.1.stream.type">video</property>
  <property name="meta.media.1.stream.frame_rate">35,7631</property>
  <property name="meta.media.1.stream.sample_aspect_ratio">1</property>
  <property name="meta.media.1.codec.width">1920</property>
  <property name="meta.media.1.codec.height">1080</property>
  <property name="meta.media.1.codec.rotate">0</property>
  <property name="meta.media.1.codec.frame_rate">90000</property>
  <property name="meta.media.1.codec.pix_fmt">yuvj420p</property>
  <property name="meta.media.1.codec.sample_aspect_ratio">0</property>
  <property name="meta.media.1.codec.colorspace">601</property>
  <property name="meta.media.1.codec.color_trc">15</property>
  <property name="meta.media.1.codec.name">h264</property>
  <property name="meta.media.1.codec.long_name">H.264 / AVC / MPEG-4 AVC / MPEG-4 part 10</property>
  <property name="meta.media.1.codec.bit_rate">24077719</property>
  <property name="meta.attr.1.stream.creation_time.markup">2019-10-27T10:42:33.000000Z</property>
  <property name="meta.attr.1.stream.language.markup">eng</property>
  <property name="meta.attr.1.stream.handler_name.markup">VideoHandle</property>
  <property name="meta.attr.major_brand.markup">mp42</property>
  <property name="meta.attr.minor_version.markup">0</property>
  <property name="meta.attr.compatible_brands.markup">isommp42</property>
  <property name="meta.attr.creation_time.markup">2019-10-27T10:42:33.000000Z</property>
  <property name="meta.attr.location.markup">+36.5820-004.6131/</property>
  <property name="meta.attr.location-eng.markup">+36.5820-004.6131/</property>
  <property name="meta.attr.com.android.version.markup">10</property>
  <property name="seekable">1</property>
  <property name="meta.media.sample_aspect_num">1</property>
  <property name="meta.media.sample_aspect_den">1</property>
  <property name="aspect_ratio">1</property>
  <property name="kdenlive:folderid">1</property>
  <property name="meta.media.frame_rate_num">61560000</property>
  <property name="meta.media.frame_rate_den">1721329</property>
  <property name="meta.media.colorspace">601</property>
  <property name="meta.media.color_trc">15</property>
  <property name="meta.media.width">1920</property>
  <property name="meta.media.height">1080</property>
  <property name="meta.media.top_field_first">0</property>
  <property name="meta.media.progressive">1</property>
  <property name="kdenlive:file_size">58033164</property>
  <property name="kdenlive:file_hash">4903437f813e633c4a85114e5967668b</property>
  <property name="global_feed">1</property>
 </producer>
 <producer id="16" title="Anonymous Submission" out="615" in="0">
  <property name="length">616</property>
  <property name="eof">pause</property>
  <property name="resource">videos/VID_20191027_114519.mp4</property>
  <property name="audio_index">0</property>
  <property name="video_index">1</property>
  <property name="mute_on_pause">1</property>
  <property name="mlt_service">avformat-novalidate</property>
  <property name="meta.media.nb_streams">2</property>
  <property name="meta.media.0.stream.type">audio</property>
  <property name="meta.media.0.codec.sample_fmt">fltp</property>
  <property name="meta.media.0.codec.sample_rate">48000</property>
  <property name="meta.media.0.codec.channels">2</property>
  <property name="meta.media.0.codec.name">aac</property>
  <property name="meta.media.0.codec.long_name">AAC (Advanced Audio Coding)</property>
  <property name="meta.media.0.codec.bit_rate">191904</property>
  <property name="meta.attr.0.stream.creation_time.markup">2019-10-27T10:45:19.000000Z</property>
  <property name="meta.attr.0.stream.language.markup">eng</property>
  <property name="meta.attr.0.stream.handler_name.markup">SoundHandle</property>
  <property name="meta.media.1.stream.type">video</property>
  <property name="meta.media.1.stream.frame_rate">34,2782</property>
  <property name="meta.media.1.stream.sample_aspect_ratio">1</property>
  <property name="meta.media.1.codec.width">1920</property>
  <property name="meta.media.1.codec.height">1080</property>
  <property name="meta.media.1.codec.rotate">0</property>
  <property name="meta.media.1.codec.frame_rate">90000</property>
  <property name="meta.media.1.codec.pix_fmt">yuvj420p</property>
  <property name="meta.media.1.codec.sample_aspect_ratio">0</property>
  <property name="meta.media.1.codec.colorspace">601</property>
  <property name="meta.media.1.codec.color_trc">15</property>
  <property name="meta.media.1.codec.name">h264</property>
  <property name="meta.media.1.codec.long_name">H.264 / AVC / MPEG-4 AVC / MPEG-4 part 10</property>
  <property name="meta.media.1.codec.bit_rate">23487999</property>
  <property name="meta.attr.1.stream.creation_time.markup">2019-10-27T10:45:19.000000Z</property>
  <property name="meta.attr.1.stream.language.markup">eng</property>
  <property name="meta.attr.1.stream.handler_name.markup">VideoHandle</property>
  <property name="meta.attr.major_brand.markup">mp42</property>
  <property name="meta.attr.minor_version.markup">0</property>
  <property name="meta.attr.compatible_brands.markup">isommp42</property>
  <property name="meta.attr.creation_time.markup">2019-10-27T10:45:19.000000Z</property>
  <property name="meta.attr.location.markup">+36.5817-004.6124/</property>
  <property name="meta.attr.location-eng.markup">+36.5817-004.6124/</property>
  <property name="meta.attr.com.android.version.markup">10</property>
  <property name="seekable">1</property>
  <property name="meta.media.sample_aspect_num">1</property>
  <property name="meta.media.sample_aspect_den">1</property>
  <property name="aspect_ratio">1</property>
  <property name="kdenlive:folderid">1</property>
  <property name="meta.media.frame_rate_num">4747500</property>
  <property name="meta.media.frame_rate_den">138499</property>
  <property name="meta.media.colorspace">601</property>
  <property name="meta.media.color_trc">15</property>
  <property name="meta.media.width">1920</property>
  <property name="meta.media.height">1080</property>
  <property name="meta.media.top_field_first">0</property>
  <property name="meta.media.progressive">1</property>
  <property name="kdenlive:file_size">72895039</property>
  <property name="kdenlive:file_hash">3cbf834743cd501abd60b1bf3195446f</property>
  <property name="global_feed">1</property>
 </producer>
 <producer id="17" title="Anonymous Submission" out="1112" in="0">
  <property name="length">1113</property>
  <property name="eof">pause</property>
  <property name="resource">videos/VID_20191027_121401.mp4</property>
  <property name="audio_index">0</property>
  <property name="video_index">1</property>
  <property name="mute_on_pause">1</property>
  <property name="mlt_service">avformat-novalidate</property>
  <property name="meta.media.nb_streams">2</property>
  <property name="meta.media.0.stream.type">audio</property>
  <property name="meta.media.0.codec.sample_fmt">fltp</property>
  <property name="meta.media.0.codec.sample_rate">48000</property>
  <property name="meta.media.0.codec.channels">2</property>
  <property name="meta.media.0.codec.name">aac</property>
  <property name="meta.media.0.codec.long_name">AAC (Advanced Audio Coding)</property>
  <property name="meta.media.0.codec.bit_rate">191904</property>
  <property name="meta.attr.0.stream.creation_time.markup">2019-10-27T11:14:01.000000Z</property>
  <property name="meta.attr.0.stream.language.markup">eng</property>
  <property name="meta.attr.0.stream.handler_name.markup">SoundHandle</property>
  <property name="meta.media.1.stream.type">video</property>
  <property name="meta.media.1.stream.frame_rate">32,3933</property>
  <property name="meta.media.1.stream.sample_aspect_ratio">1</property>
  <property name="meta.media.1.codec.width">1920</property>
  <property name="meta.media.1.codec.height">1080</property>
  <property name="meta.media.1.codec.rotate">0</property>
  <property name="meta.media.1.codec.frame_rate">90000</property>
  <property name="meta.media.1.codec.pix_fmt">yuvj420p</property>
  <property name="meta.media.1.codec.sample_aspect_ratio">0</property>
  <property name="meta.media.1.codec.colorspace">601</property>
  <property name="meta.media.1.codec.color_trc">15</property>
  <property name="meta.media.1.codec.name">h264</property>
  <property name="meta.media.1.codec.long_name">H.264 / AVC / MPEG-4 AVC / MPEG-4 part 10</property>
  <property name="meta.media.1.codec.bit_rate">22972577</property>
  <property name="meta.attr.1.stream.creation_time.markup">2019-10-27T11:14:01.000000Z</property>
  <property name="meta.attr.1.stream.language.markup">eng</property>
  <property name="meta.attr.1.stream.handler_name.markup">VideoHandle</property>
  <property name="meta.attr.major_brand.markup">mp42</property>
  <property name="meta.attr.minor_version.markup">0</property>
  <property name="meta.attr.compatible_brands.markup">isommp42</property>
  <property name="meta.attr.creation_time.markup">2019-10-27T11:14:01.000000Z</property>
  <property name="meta.attr.location.markup">+36.5792-004.6146/</property>
  <property name="meta.attr.location-eng.markup">+36.5792-004.6146/</property>
  <property name="meta.attr.com.android.version.markup">10</property>
  <property name="seekable">1</property>
  <property name="meta.media.sample_aspect_num">1</property>
  <property name="meta.media.sample_aspect_den">1</property>
  <property name="aspect_ratio">1</property>
  <property name="kdenlive:folderid">1</property>
  <property name="meta.media.frame_rate_num">129780000</property>
  <property name="meta.media.frame_rate_den">4006381</property>
  <property name="meta.media.colorspace">601</property>
  <property name="meta.media.color_trc">15</property>
  <property name="meta.media.width">1920</property>
  <property name="meta.media.height">1080</property>
  <property name="meta.media.top_field_first">0</property>
  <property name="meta.media.progressive">1</property>
  <property name="kdenlive:file_size">128917837</property>
  <property name="kdenlive:file_hash">fd1779205605f876d33a99b9d05513f5</property>
  <property name="global_feed">1</property>
 </producer>
 <producer id="18" title="Anonymous Submission" out="444" in="0">
  <property name="length">445</property>
  <property name="eof">pause</property>
  <property name="resource">videos/VID_20191027_123147.mp4</property>
  <property name="audio_index">0</property>
  <property name="video_index">1</property>
  <property name="mute_on_pause">1</property>
  <property name="mlt_service">avformat-novalidate</property>
  <property name="meta.media.nb_streams">2</property>
  <property name="meta.media.0.stream.type">audio</property>
  <property name="meta.media.0.codec.sample_fmt">fltp</property>
  <property name="meta.media.0.codec.sample_rate">48000</property>
  <property name="meta.media.0.codec.channels">2</property>
  <property name="meta.media.0.codec.name">aac</property>
  <property name="meta.media.0.codec.long_name">AAC (Advanced Audio Coding)</property>
  <property name="meta.media.0.codec.bit_rate">191677</property>
  <property name="meta.attr.0.stream.creation_time.markup">2019-10-27T11:31:47.000000Z</property>
  <property name="meta.attr.0.stream.language.markup">eng</property>
  <property name="meta.attr.0.stream.handler_name.markup">SoundHandle</property>
  <property name="meta.media.1.stream.type">video</property>
  <property name="meta.media.1.stream.frame_rate">36,048</property>
  <property name="meta.media.1.stream.sample_aspect_ratio">1</property>
  <property name="meta.media.1.codec.width">1920</property>
  <property name="meta.media.1.codec.height">1080</property>
  <property name="meta.media.1.codec.rotate">0</property>
  <property name="meta.media.1.codec.frame_rate">90000</property>
  <property name="meta.media.1.codec.pix_fmt">yuvj420p</property>
  <property name="meta.media.1.codec.sample_aspect_ratio">0</property>
  <property name="meta.media.1.codec.colorspace">601</property>
  <property name="meta.media.1.codec.color_trc">15</property>
  <property name="meta.media.1.codec.name">h264</property>
  <property name="meta.media.1.codec.long_name">H.264 / AVC / MPEG-4 AVC / MPEG-4 part 10</property>
  <property name="meta.media.1.codec.bit_rate">24053272</property>
  <property name="meta.attr.1.stream.creation_time.markup">2019-10-27T11:31:47.000000Z</property>
  <property name="meta.attr.1.stream.language.markup">eng</property>
  <property name="meta.attr.1.stream.handler_name.markup">VideoHandle</property>
  <property name="meta.attr.major_brand.markup">mp42</property>
  <property name="meta.attr.minor_version.markup">0</property>
  <property name="meta.attr.compatible_brands.markup">isommp42</property>
  <property name="meta.attr.creation_time.markup">2019-10-27T11:31:47.000000Z</property>
  <property name="meta.attr.location.markup">+36.5398-004.6301/</property>
  <property name="meta.attr.location-eng.markup">+36.5398-004.6301/</property>
  <property name="meta.attr.com.android.version.markup">10</property>
  <property name="seekable">1</property>
  <property name="meta.media.sample_aspect_num">1</property>
  <property name="meta.media.sample_aspect_den">1</property>
  <property name="aspect_ratio">1</property>
  <property name="kdenlive:folderid">1</property>
  <property name="meta.media.frame_rate_num">28890000</property>
  <property name="meta.media.frame_rate_den">801431</property>
  <property name="meta.media.colorspace">601</property>
  <property name="meta.media.color_trc">15</property>
  <property name="meta.media.width">1920</property>
  <property name="meta.media.height">1080</property>
  <property name="meta.media.variable_frame_rate">1</property>
  <property name="meta.media.top_field_first">0</property>
  <property name="meta.media.progressive">1</property>
  <property name="kdenlive:file_size">53985108</property>
  <property name="kdenlive:file_hash">701dd254ae41fc62aa08e24040cd1186</property>
  <property name="global_feed">1</property>
 </producer>
 <producer id="19" title="Anonymous Submission" out="553" in="0">
  <property name="length">554</property>
  <property name="eof">pause</property>
  <property name="resource">videos/VID_20191027_133034.mp4</property>
  <property name="audio_index">0</property>
  <property name="video_index">1</property>
  <property name="mute_on_pause">1</property>
  <property name="mlt_service">avformat-novalidate</property>
  <property name="meta.media.nb_streams">2</property>
  <property name="meta.media.0.stream.type">audio</property>
  <property name="meta.media.0.codec.sample_fmt">fltp</property>
  <property name="meta.media.0.codec.sample_rate">48000</property>
  <property name="meta.media.0.codec.channels">2</property>
  <property name="meta.media.0.codec.name">aac</property>
  <property name="meta.media.0.codec.long_name">AAC (Advanced Audio Coding)</property>
  <property name="meta.media.0.codec.bit_rate">191645</property>
  <property name="meta.attr.0.stream.creation_time.markup">2019-10-27T12:30:34.000000Z</property>
  <property name="meta.attr.0.stream.language.markup">eng</property>
  <property name="meta.attr.0.stream.handler_name.markup">SoundHandle</property>
  <property name="meta.media.1.stream.type">video</property>
  <property name="meta.media.1.stream.frame_rate">30,5088</property>
  <property name="meta.media.1.stream.sample_aspect_ratio">1</property>
  <property name="meta.media.1.codec.width">1920</property>
  <property name="meta.media.1.codec.height">1080</property>
  <property name="meta.media.1.codec.rotate">0</property>
  <property name="meta.media.1.codec.frame_rate">90000</property>
  <property name="meta.media.1.codec.pix_fmt">yuvj420p</property>
  <property name="meta.media.1.codec.sample_aspect_ratio">0</property>
  <property name="meta.media.1.codec.colorspace">601</property>
  <property name="meta.media.1.codec.color_trc">15</property>
  <property name="meta.media.1.codec.name">h264</property>
  <property name="meta.media.1.codec.long_name">H.264 / AVC / MPEG-4 AVC / MPEG-4 part 10</property>
  <property name="meta.media.1.codec.bit_rate">22286039</property>
  <property name="meta.attr.1.stream.creation_time.markup">2019-10-27T12:30:34.000000Z</property>
  <property name="meta.attr.1.stream.language.markup">eng</property>
  <property name="meta.attr.1.stream.handler_name.markup">VideoHandle</property>
  <property name="meta.attr.major_brand.markup">mp42</property>
  <property name="meta.attr.minor_version.markup">0</property>
  <property name="meta.attr.compatible_brands.markup">isommp42</property>
  <property name="meta.attr.creation_time.markup">2019-10-27T12:30:34.000000Z</property>
  <property name="meta.attr.location.markup">+36.5809-004.6191/</property>
  <property name="meta.attr.location-eng.markup">+36.5809-004.6191/</property>
  <property name="meta.attr.com.android.version.markup">10</property>
  <property name="seekable">1</property>
  <property name="meta.media.sample_aspect_num">1</property>
  <property name="meta.media.sample_aspect_den">1</property>
  <property name="aspect_ratio">1</property>
  <property name="kdenlive:folderid">1</property>
  <property name="meta.media.frame_rate_num">3042000</property>
  <property name="meta.media.frame_rate_den">99709</property>
  <property name="meta.media.colorspace">601</property>
  <property name="meta.media.color_trc">15</property>
  <property name="meta.media.width">1920</property>
  <property name="meta.media.height">1080</property>
  <property name="meta.media.top_field_first">0</property>
  <property name="meta.media.progressive">1</property>
  <property name="kdenlive:file_size">62268708</property>
  <property name="kdenlive:file_hash">6bb86287cda7f75c4e192bfb9b4dcbf9</property>
  <property name="global_feed">1</property>
 </producer>
 <producer id="20" title="Anonymous Submission" out="160" in="0">
  <property name="length">161</property>
  <property name="eof">pause</property>
  <property name="resource">videos/VID_20191027_133208.mp4</property>
  <property name="audio_index">0</property>
  <property name="video_index">1</property>
  <property name="mute_on_pause">1</property>
  <property name="mlt_service">avformat-novalidate</property>
  <property name="meta.media.nb_streams">2</property>
  <property name="meta.media.0.stream.type">audio</property>
  <property name="meta.media.0.codec.sample_fmt">fltp</property>
  <property name="meta.media.0.codec.sample_rate">48000</property>
  <property name="meta.media.0.codec.channels">2</property>
  <property name="meta.media.0.codec.name">aac</property>
  <property name="meta.media.0.codec.long_name">AAC (Advanced Audio Coding)</property>
  <property name="meta.media.0.codec.bit_rate">190461</property>
  <property name="meta.attr.0.stream.creation_time.markup">2019-10-27T12:32:08.000000Z</property>
  <property name="meta.attr.0.stream.language.markup">eng</property>
  <property name="meta.attr.0.stream.handler_name.markup">SoundHandle</property>
  <property name="meta.media.1.stream.type">video</property>
  <property name="meta.media.1.stream.frame_rate">47,2443</property>
  <property name="meta.media.1.stream.sample_aspect_ratio">1</property>
  <property name="meta.media.1.codec.width">1920</property>
  <property name="meta.media.1.codec.height">1080</property>
  <property name="meta.media.1.codec.rotate">0</property>
  <property name="meta.media.1.codec.frame_rate">90000</property>
  <property name="meta.media.1.codec.pix_fmt">yuvj420p</property>
  <property name="meta.media.1.codec.sample_aspect_ratio">0</property>
  <property name="meta.media.1.codec.colorspace">601</property>
  <property name="meta.media.1.codec.color_trc">15</property>
  <property name="meta.media.1.codec.name">h264</property>
  <property name="meta.media.1.codec.long_name">H.264 / AVC / MPEG-4 AVC / MPEG-4 part 10</property>
  <property name="meta.media.1.codec.bit_rate">28120769</property>
  <property name="meta.attr.1.stream.creation_time.markup">2019-10-27T12:32:08.000000Z</property>
  <property name="meta.attr.1.stream.language.markup">eng</property>
  <property name="meta.attr.1.stream.handler_name.markup">VideoHandle</property>
  <property name="meta.attr.major_brand.markup">mp42</property>
  <property name="meta.attr.minor_version.markup">0</property>
  <property name="meta.attr.compatible_brands.markup">isommp42</property>
  <property name="meta.attr.creation_time.markup">2019-10-27T12:32:08.000000Z</property>
  <property name="meta.attr.location.markup">+36.5809-004.6191/</property>
  <property name="meta.attr.location-eng.markup">+36.5809-004.6191/</property>
  <property name="meta.attr.com.android.version.markup">10</property>
  <property name="seekable">1</property>
  <property name="meta.media.sample_aspect_num">1</property>
  <property name="meta.media.sample_aspect_den">1</property>
  <property name="aspect_ratio">1</property>
  <property name="kdenlive:folderid">1</property>
  <property name="meta.media.frame_rate_num">2272500</property>
  <property name="meta.media.frame_rate_den">48101</property>
  <property name="meta.media.colorspace">601</property>
  <property name="meta.media.color_trc">15</property>
  <property name="meta.media.width">1920</property>
  <property name="meta.media.height">1080</property>
  <property name="meta.media.top_field_first">0</property>
  <property name="meta.media.progressive">1</property>
  <property name="kdenlive:file_size">22704457</property>
  <property name="kdenlive:file_hash">61598983d0752ed4b77484035c0dbab3</property>
  <property name="global_feed">1</property>
 </producer>
 <producer id="21" title="Anonymous Submission" out="295" in="0">
  <property name="length">296</property>
  <property name="eof">pause</property>
  <property name="resource">videos/VID_20191027_185353.mp4</property>
  <property name="audio_index">0</property>
  <property name="video_index">1</property>
  <property name="mute_on_pause">1</property>
  <property name="mlt_service">avformat-novalidate</property>
  <property name="meta.media.nb_streams">2</property>
  <property name="meta.media.0.stream.type">audio</property>
  <property name="meta.media.0.codec.sample_fmt">fltp</property>
  <property name="meta.media.0.codec.sample_rate">48000</property>
  <property name="meta.media.0.codec.channels">2</property>
  <property name="meta.media.0.codec.name">aac</property>
  <property name="meta.media.0.codec.long_name">AAC (Advanced Audio Coding)</property>
  <property name="meta.media.0.codec.bit_rate">191964</property>
  <property name="meta.attr.0.stream.creation_time.markup">2019-10-27T17:53:53.000000Z</property>
  <property name="meta.attr.0.stream.language.markup">eng</property>
  <property name="meta.attr.0.stream.handler_name.markup">SoundHandle</property>
  <property name="meta.media.1.stream.type">video</property>
  <property name="meta.media.1.stream.frame_rate">29,9271</property>
  <property name="meta.media.1.stream.sample_aspect_ratio">1</property>
  <property name="meta.media.1.codec.width">1920</property>
  <property name="meta.media.1.codec.height">1080</property>
  <property name="meta.media.1.codec.rotate">0</property>
  <property name="meta.media.1.codec.frame_rate">90000</property>
  <property name="meta.media.1.codec.pix_fmt">yuvj420p</property>
  <property name="meta.media.1.codec.sample_aspect_ratio">0</property>
  <property name="meta.media.1.codec.colorspace">601</property>
  <property name="meta.media.1.codec.color_trc">15</property>
  <property name="meta.media.1.codec.name">h264</property>
  <property name="meta.media.1.codec.long_name">H.264 / AVC / MPEG-4 AVC / MPEG-4 part 10</property>
  <property name="meta.media.1.codec.bit_rate">22155061</property>
  <property name="meta.attr.1.stream.creation_time.markup">2019-10-27T17:53:53.000000Z</property>
  <property name="meta.attr.1.stream.language.markup">eng</property>
  <property name="meta.attr.1.stream.handler_name.markup">VideoHandle</property>
  <property name="meta.attr.major_brand.markup">mp42</property>
  <property name="meta.attr.minor_version.markup">0</property>
  <property name="meta.attr.compatible_brands.markup">isommp42</property>
  <property name="meta.attr.creation_time.markup">2019-10-27T17:53:53.000000Z</property>
  <property name="meta.attr.location.markup">+36.7212-004.4219/</property>
  <property name="meta.attr.location-eng.markup">+36.7212-004.4219/</property>
  <property name="meta.attr.com.android.version.markup">10</property>
  <property name="seekable">1</property>
  <property name="meta.media.sample_aspect_num">1</property>
  <property name="meta.media.sample_aspect_den">1</property>
  <property name="aspect_ratio">1</property>
  <property name="kdenlive:folderid">1</property>
  <property name="meta.media.frame_rate_num">529500</property>
  <property name="meta.media.frame_rate_den">17693</property>
  <property name="meta.media.colorspace">601</property>
  <property name="meta.media.color_trc">15</property>
  <property name="meta.media.width">1920</property>
  <property name="meta.media.height">1080</property>
  <property name="meta.media.top_field_first">0</property>
  <property name="meta.media.progressive">1</property>
  <property name="kdenlive:file_size">32958154</property>
  <property name="kdenlive:file_hash">2181f942556b76200d59de108a516196</property>
  <property name="global_feed">1</property>
 </producer>
 <producer id="22" title="Anonymous Submission" out="325" in="0">
  <property name="length">326</property>
  <property name="eof">pause</property>
  <property name="resource">videos/VID_20191027_185501.mp4</property>
  <property name="audio_index">0</property>
  <property name="video_index">1</property>
  <property name="mute_on_pause">1</property>
  <property name="mlt_service">avformat-novalidate</property>
  <property name="meta.media.nb_streams">2</property>
  <property name="meta.media.0.stream.type">audio</property>
  <property name="meta.media.0.codec.sample_fmt">fltp</property>
  <property name="meta.media.0.codec.sample_rate">48000</property>
  <property name="meta.media.0.codec.channels">2</property>
  <property name="meta.media.0.codec.name">aac</property>
  <property name="meta.media.0.codec.long_name">AAC (Advanced Audio Coding)</property>
  <property name="meta.media.0.codec.bit_rate">191999</property>
  <property name="meta.attr.0.stream.creation_time.markup">2019-10-27T17:55:01.000000Z</property>
  <property name="meta.attr.0.stream.language.markup">eng</property>
  <property name="meta.attr.0.stream.handler_name.markup">SoundHandle</property>
  <property name="meta.media.1.stream.type">video</property>
  <property name="meta.media.1.stream.frame_rate">29,9352</property>
  <property name="meta.media.1.stream.sample_aspect_ratio">1</property>
  <property name="meta.media.1.codec.width">1920</property>
  <property name="meta.media.1.codec.height">1080</property>
  <property name="meta.media.1.codec.rotate">0</property>
  <property name="meta.media.1.codec.frame_rate">90000</property>
  <property name="meta.media.1.codec.pix_fmt">yuvj420p</property>
  <property name="meta.media.1.codec.sample_aspect_ratio">0</property>
  <property name="meta.media.1.codec.colorspace">601</property>
  <property name="meta.media.1.codec.color_trc">15</property>
  <property name="meta.media.1.codec.name">h264</property>
  <property name="meta.media.1.codec.long_name">H.264 / AVC / MPEG-4 AVC / MPEG-4 part 10</property>
  <property name="meta.media.1.codec.bit_rate">22110910</property>
  <property name="meta.attr.1.stream.creation_time.markup">2019-10-27T17:55:01.000000Z</property>
  <property name="meta.attr.1.stream.language.markup">eng</property>
  <property name="meta.attr.1.stream.handler_name.markup">VideoHandle</property>
  <property name="meta.attr.major_brand.markup">mp42</property>
  <property name="meta.attr.minor_version.markup">0</property>
  <property name="meta.attr.compatible_brands.markup">isommp42</property>
  <property name="meta.attr.creation_time.markup">2019-10-27T17:55:01.000000Z</property>
  <property name="meta.attr.location.markup">+36.7212-004.4219/</property>
  <property name="meta.attr.location-eng.markup">+36.7212-004.4219/</property>
  <property name="meta.attr.com.android.version.markup">10</property>
  <property name="seekable">1</property>
  <property name="meta.media.sample_aspect_num">1</property>
  <property name="meta.media.sample_aspect_den">1</property>
  <property name="aspect_ratio">1</property>
  <property name="kdenlive:folderid">1</property>
  <property name="meta.media.frame_rate_num">17550000</property>
  <property name="meta.media.frame_rate_den">586267</property>
  <property name="meta.media.colorspace">601</property>
  <property name="meta.media.color_trc">15</property>
  <property name="meta.media.width">1920</property>
  <property name="meta.media.height">1080</property>
  <property name="meta.media.top_field_first">0</property>
  <property name="meta.media.progressive">1</property>
  <property name="kdenlive:file_size">36330043</property>
  <property name="kdenlive:file_hash">44f8dded9378694b0c60b66eec5d49e0</property>
  <property name="global_feed">1</property>
 </producer>
 <producer id="23" title="Anonymous Submission" out="261" in="0">
  <property name="length">262</property>
  <property name="eof">pause</property>
  <property name="resource">videos/VID_20191027_185605.mp4</property>
  <property name="audio_index">0</property>
  <property name="video_index">1</property>
  <property name="mute_on_pause">1</property>
  <property name="mlt_service">avformat-novalidate</property>
  <property name="meta.media.nb_streams">2</property>
  <property name="meta.media.0.stream.type">audio</property>
  <property name="meta.media.0.codec.sample_fmt">fltp</property>
  <property name="meta.media.0.codec.sample_rate">48000</property>
  <property name="meta.media.0.codec.channels">2</property>
  <property name="meta.media.0.codec.name">aac</property>
  <property name="meta.media.0.codec.long_name">AAC (Advanced Audio Coding)</property>
  <property name="meta.media.0.codec.bit_rate">191860</property>
  <property name="meta.attr.0.stream.creation_time.markup">2019-10-27T17:56:05.000000Z</property>
  <property name="meta.attr.0.stream.language.markup">eng</property>
  <property name="meta.attr.0.stream.handler_name.markup">SoundHandle</property>
  <property name="meta.media.1.stream.type">video</property>
  <property name="meta.media.1.stream.frame_rate">30,012</property>
  <property name="meta.media.1.stream.sample_aspect_ratio">1</property>
  <property name="meta.media.1.codec.width">1920</property>
  <property name="meta.media.1.codec.height">1080</property>
  <property name="meta.media.1.codec.rotate">0</property>
  <property name="meta.media.1.codec.frame_rate">90000</property>
  <property name="meta.media.1.codec.pix_fmt">yuvj420p</property>
  <property name="meta.media.1.codec.sample_aspect_ratio">0</property>
  <property name="meta.media.1.codec.colorspace">601</property>
  <property name="meta.media.1.codec.color_trc">15</property>
  <property name="meta.media.1.codec.name">h264</property>
  <property name="meta.media.1.codec.long_name">H.264 / AVC / MPEG-4 AVC / MPEG-4 part 10</property>
  <property name="meta.media.1.codec.bit_rate">22165377</property>
  <property name="meta.attr.1.stream.creation_time.markup">2019-10-27T17:56:05.000000Z</property>
  <property name="meta.attr.1.stream.language.markup">eng</property>
  <property name="meta.attr.1.stream.handler_name.markup">VideoHandle</property>
  <property name="meta.attr.major_brand.markup">mp42</property>
  <property name="meta.attr.minor_version.markup">0</property>
  <property name="meta.attr.compatible_brands.markup">isommp42</property>
  <property name="meta.attr.creation_time.markup">2019-10-27T17:56:05.000000Z</property>
  <property name="meta.attr.location.markup">+36.7212-004.4218/</property>
  <property name="meta.attr.location-eng.markup">+36.7212-004.4218/</property>
  <property name="meta.attr.com.android.version.markup">10</property>
  <property name="seekable">1</property>
  <property name="meta.media.sample_aspect_num">1</property>
  <property name="meta.media.sample_aspect_den">1</property>
  <property name="aspect_ratio">1</property>
  <property name="kdenlive:folderid">1</property>
  <property name="meta.media.frame_rate_num">28260000</property>
  <property name="meta.media.frame_rate_den">941623</property>
  <property name="meta.media.colorspace">601</property>
  <property name="meta.media.color_trc">15</property>
  <property name="meta.media.width">1920</property>
  <property name="meta.media.height">1080</property>
  <property name="meta.media.top_field_first">0</property>
  <property name="meta.media.progressive">1</property>
  <property name="kdenlive:file_size">29247813</property>
  <property name="kdenlive:file_hash">06a8299bd1186a2b88338ba7689577c2</property>
  <property name="global_feed">1</property>
 </producer>
 <producer id="24" title="Anonymous Submission" out="395" in="0">
  <property name="length">396</property>
  <property name="eof">pause</property>
  <property name="resource">videos/VID_20191027_185924.mp4</property>
  <property name="audio_index">0</property>
  <property name="video_index">1</property>
  <property name="mute_on_pause">1</property>
  <property name="mlt_service">avformat-novalidate</property>
  <property name="meta.media.nb_streams">2</property>
  <property name="meta.media.0.stream.type">audio</property>
  <property name="meta.media.0.codec.sample_fmt">fltp</property>
  <property name="meta.media.0.codec.sample_rate">48000</property>
  <property name="meta.media.0.codec.channels">2</property>
  <property name="meta.media.0.codec.name">aac</property>
  <property name="meta.media.0.codec.long_name">AAC (Advanced Audio Coding)</property>
  <property name="meta.media.0.codec.bit_rate">191959</property>
  <property name="meta.attr.0.stream.creation_time.markup">2019-10-27T17:59:24.000000Z</property>
  <property name="meta.attr.0.stream.language.markup">eng</property>
  <property name="meta.attr.0.stream.handler_name.markup">SoundHandle</property>
  <property name="meta.media.1.stream.type">video</property>
  <property name="meta.media.1.stream.frame_rate">30,0119</property>
  <property name="meta.media.1.stream.sample_aspect_ratio">1</property>
  <property name="meta.media.1.codec.width">1920</property>
  <property name="meta.media.1.codec.height">1080</property>
  <property name="meta.media.1.codec.rotate">0</property>
  <property name="meta.media.1.codec.frame_rate">90000</property>
  <property name="meta.media.1.codec.pix_fmt">yuvj420p</property>
  <property name="meta.media.1.codec.sample_aspect_ratio">0</property>
  <property name="meta.media.1.codec.colorspace">601</property>
  <property name="meta.media.1.codec.color_trc">15</property>
  <property name="meta.media.1.codec.name">h264</property>
  <property name="meta.media.1.codec.long_name">H.264 / AVC / MPEG-4 AVC / MPEG-4 part 10</property>
  <property name="meta.media.1.codec.bit_rate">22131990</property>
  <property name="meta.attr.1.stream.creation_time.markup">2019-10-27T17:59:24.000000Z</property>
  <property name="meta.attr.1.stream.language.markup">eng</property>
  <property name="meta.attr.1.stream.handler_name.markup">VideoHandle</property>
  <property name="meta.attr.major_brand.markup">mp42</property>
  <property name="meta.attr.minor_version.markup">0</property>
  <property name="meta.attr.compatible_brands.markup">isommp42</property>
  <property name="meta.attr.creation_time.markup">2019-10-27T17:59:24.000000Z</property>
  <property name="meta.attr.location.markup">+36.7210-004.4208/</property>
  <property name="meta.attr.location-eng.markup">+36.7210-004.4208/</property>
  <property name="meta.attr.com.android.version.markup">10</property>
  <property name="seekable">1</property>
  <property name="meta.media.sample_aspect_num">1</property>
  <property name="meta.media.sample_aspect_den">1</property>
  <property name="aspect_ratio">1</property>
  <property name="kdenlive:folderid">1</property>
  <property name="meta.media.frame_rate_num">3555000</property>
  <property name="meta.media.frame_rate_den">118453</property>
  <property name="meta.media.colorspace">601</property>
  <property name="meta.media.color_trc">15</property>
  <property name="meta.media.width">1920</property>
  <property name="meta.media.height">1080</property>
  <property name="meta.media.top_field_first">0</property>
  <property name="meta.media.progressive">1</property>
  <property name="kdenlive:file_size">44082786</property>
  <property name="kdenlive:file_hash">8e8a30a9479ab28ca66291a3c9b5d0cd</property>
  <property name="global_feed">1</property>
 </producer>
 <producer id="25" title="Anonymous Submission" out="46" in="0">
  <property name="length">47</property>
  <property name="eof">pause</property>
  <property name="resource">videos/VID_20191027_190041.mp4</property>
  <property name="audio_index">0</property>
  <property name="video_index">1</property>
  <property name="mute_on_pause">1</property>
  <property name="mlt_service">avformat-novalidate</property>
  <property name="meta.media.nb_streams">2</property>
  <property name="meta.media.0.stream.type">audio</property>
  <property name="meta.media.0.codec.sample_fmt">fltp</property>
  <property name="meta.media.0.codec.sample_rate">48000</property>
  <property name="meta.media.0.codec.channels">2</property>
  <property name="meta.media.0.codec.name">aac</property>
  <property name="meta.media.0.codec.long_name">AAC (Advanced Audio Coding)</property>
  <property name="meta.media.0.codec.bit_rate">191007</property>
  <property name="meta.attr.0.stream.creation_time.markup">2019-10-27T18:00:41.000000Z</property>
  <property name="meta.attr.0.stream.language.markup">eng</property>
  <property name="meta.attr.0.stream.handler_name.markup">SoundHandle</property>
  <property name="meta.media.1.stream.type">video</property>
  <property name="meta.media.1.stream.frame_rate">30,012</property>
  <property name="meta.media.1.stream.sample_aspect_ratio">1</property>
  <property name="meta.media.1.codec.width">1920</property>
  <property name="meta.media.1.codec.height">1080</property>
  <property name="meta.media.1.codec.rotate">0</property>
  <property name="meta.media.1.codec.frame_rate">90000</property>
  <property name="meta.media.1.codec.pix_fmt">yuvj420p</property>
  <property name="meta.media.1.codec.sample_aspect_ratio">0</property>
  <property name="meta.media.1.codec.colorspace">601</property>
  <property name="meta.media.1.codec.color_trc">15</property>
  <property name="meta.media.1.codec.name">h264</property>
  <property name="meta.media.1.codec.long_name">H.264 / AVC / MPEG-4 AVC / MPEG-4 part 10</property>
  <property name="meta.media.1.codec.bit_rate">22805940</property>
  <property name="meta.attr.1.stream.creation_time.markup">2019-10-27T18:00:41.000000Z</property>
  <property name="meta.attr.1.stream.language.markup">eng</property>
  <property name="meta.attr.1.stream.handler_name.markup">VideoHandle</property>
  <property name="meta.attr.major_brand.markup">mp42</property>
  <property name="meta.attr.minor_version.markup">0</property>
  <property name="meta.attr.compatible_brands.markup">isommp42</property>
  <property name="meta.attr.creation_time.markup">2019-10-27T18:00:41.000000Z</property>
  <property name="meta.attr.location.markup">+36.7202-004.4202/</property>
  <property name="meta.attr.location-eng.markup">+36.7202-004.4202/</property>
  <property name="meta.attr.com.android.version.markup">10</property>
  <property name="seekable">1</property>
  <property name="meta.media.sample_aspect_num">1</property>
  <property name="meta.media.sample_aspect_den">1</property>
  <property name="aspect_ratio">1</property>
  <property name="kdenlive:folderid">1</property>
  <property name="meta.media.frame_rate_num">5040000</property>
  <property name="meta.media.frame_rate_den">167933</property>
  <property name="meta.media.colorspace">601</property>
  <property name="meta.media.color_trc">15</property>
  <property name="meta.media.width">1920</property>
  <property name="meta.media.height">1080</property>
  <property name="meta.media.top_field_first">0</property>
  <property name="meta.media.progressive">1</property>
  <property name="kdenlive:file_size">5367540</property>
  <property name="kdenlive:file_hash">5d58d4111707471900427eebc1811af4</property>
  <property name="global_feed">1</property>
 </producer>
 <producer id="26" title="Anonymous Submission" out="994" in="0">
  <property name="length">995</property>
  <property name="eof">pause</property>
  <property name="resource">videos/VID_20191027_190124.mp4</property>
  <property name="audio_index">0</property>
  <property name="video_index">1</property>
  <property name="mute_on_pause">1</property>
  <property name="mlt_service">avformat-novalidate</property>
  <property name="meta.media.nb_streams">2</property>
  <property name="meta.media.0.stream.type">audio</property>
  <property name="meta.media.0.codec.sample_fmt">fltp</property>
  <property name="meta.media.0.codec.sample_rate">48000</property>
  <property name="meta.media.0.codec.channels">2</property>
  <property name="meta.media.0.codec.name">aac</property>
  <property name="meta.media.0.codec.long_name">AAC (Advanced Audio Coding)</property>
  <property name="meta.media.0.codec.bit_rate">191951</property>
  <property name="meta.attr.0.stream.creation_time.markup">2019-10-27T18:01:24.000000Z</property>
  <property name="meta.attr.0.stream.language.markup">eng</property>
  <property name="meta.attr.0.stream.handler_name.markup">SoundHandle</property>
  <property name="meta.media.1.stream.type">video</property>
  <property name="meta.media.1.stream.frame_rate">30,012</property>
  <property name="meta.media.1.stream.sample_aspect_ratio">1</property>
  <property name="meta.media.1.codec.width">1920</property>
  <property name="meta.media.1.codec.height">1080</property>
  <property name="meta.media.1.codec.rotate">0</property>
  <property name="meta.media.1.codec.frame_rate">90000</property>
  <property name="meta.media.1.codec.pix_fmt">yuvj420p</property>
  <property name="meta.media.1.codec.sample_aspect_ratio">0</property>
  <property name="meta.media.1.codec.colorspace">601</property>
  <property name="meta.media.1.codec.color_trc">15</property>
  <property name="meta.media.1.codec.name">h264</property>
  <property name="meta.media.1.codec.long_name">H.264 / AVC / MPEG-4 AVC / MPEG-4 part 10</property>
  <property name="meta.media.1.codec.bit_rate">22005134</property>
  <property name="meta.attr.1.stream.creation_time.markup">2019-10-27T18:01:24.000000Z</property>
  <property name="meta.attr.1.stream.language.markup">eng</property>
  <property name="meta.attr.1.stream.handler_name.markup">VideoHandle</property>
  <property name="meta.attr.major_brand.markup">mp42</property>
  <property name="meta.attr.minor_version.markup">0</property>
  <property name="meta.attr.compatible_brands.markup">isommp42</property>
  <property name="meta.attr.creation_time.markup">2019-10-27T18:01:24.000000Z</property>
  <property name="meta.attr.location.markup">+36.7202-004.4202/</property>
  <property name="meta.attr.location-eng.markup">+36.7202-004.4202/</property>
  <property name="meta.attr.com.android.version.markup">10</property>
  <property name="seekable">1</property>
  <property name="meta.media.sample_aspect_num">1</property>
  <property name="meta.media.sample_aspect_den">1</property>
  <property name="aspect_ratio">1</property>
  <property name="kdenlive:folderid">1</property>
  <property name="meta.media.frame_rate_num">26887500</property>
  <property name="meta.media.frame_rate_den">895891</property>
  <property name="meta.media.colorspace">601</property>
  <property name="meta.media.color_trc">15</property>
  <property name="meta.media.width">1920</property>
  <property name="meta.media.height">1080</property>
  <property name="meta.media.top_field_first">0</property>
  <property name="meta.media.progressive">1</property>
  <property name="kdenlive:file_size">110496736</property>
  <property name="kdenlive:file_hash">befc2b2446200bd68e164493aaffe445</property>
  <property name="global_feed">1</property>
 </producer>
 <producer id="27" title="Anonymous Submission" out="445" in="0">
  <property name="length">446</property>
  <property name="eof">pause</property>
  <property name="resource">videos/VID_20191027_190838.mp4</property>
  <property name="audio_index">0</property>
  <property name="video_index">1</property>
  <property name="mute_on_pause">1</property>
  <property name="mlt_service">avformat-novalidate</property>
  <property name="meta.media.nb_streams">2</property>
  <property name="meta.media.0.stream.type">audio</property>
  <property name="meta.media.0.codec.sample_fmt">fltp</property>
  <property name="meta.media.0.codec.sample_rate">48000</property>
  <property name="meta.media.0.codec.channels">2</property>
  <property name="meta.media.0.codec.name">aac</property>
  <property name="meta.media.0.codec.long_name">AAC (Advanced Audio Coding)</property>
  <property name="meta.media.0.codec.bit_rate">191825</property>
  <property name="meta.attr.0.stream.creation_time.markup">2019-10-27T18:08:37.000000Z</property>
  <property name="meta.attr.0.stream.language.markup">eng</property>
  <property name="meta.attr.0.stream.handler_name.markup">SoundHandle</property>
  <property name="meta.media.1.stream.type">video</property>
  <property name="meta.media.1.stream.frame_rate">30,0119</property>
  <property name="meta.media.1.stream.sample_aspect_ratio">1</property>
  <property name="meta.media.1.codec.width">1920</property>
  <property name="meta.media.1.codec.height">1080</property>
  <property name="meta.media.1.codec.rotate">0</property>
  <property name="meta.media.1.codec.frame_rate">90000</property>
  <property name="meta.media.1.codec.pix_fmt">yuvj420p</property>
  <property name="meta.media.1.codec.sample_aspect_ratio">0</property>
  <property name="meta.media.1.codec.colorspace">601</property>
  <property name="meta.media.1.codec.color_trc">15</property>
  <property name="meta.media.1.codec.name">h264</property>
  <property name="meta.media.1.codec.long_name">H.264 / AVC / MPEG-4 AVC / MPEG-4 part 10</property>
  <property name="meta.media.1.codec.bit_rate">22092277</property>
  <property name="meta.attr.1.stream.creation_time.markup">2019-10-27T18:08:37.000000Z</property>
  <property name="meta.attr.1.stream.language.markup">eng</property>
  <property name="meta.attr.1.stream.handler_name.markup">VideoHandle</property>
  <property name="meta.attr.major_brand.markup">mp42</property>
  <property name="meta.attr.minor_version.markup">0</property>
  <property name="meta.attr.compatible_brands.markup">isommp42</property>
  <property name="meta.attr.creation_time.markup">2019-10-27T18:08:37.000000Z</property>
  <property name="meta.attr.location.markup">+36.7201-004.4201/</property>
  <property name="meta.attr.location-eng.markup">+36.7201-004.4201/</property>
  <property name="meta.attr.com.android.version.markup">10</property>
  <property name="seekable">1</property>
  <property name="meta.media.sample_aspect_num">1</property>
  <property name="meta.media.sample_aspect_den">1</property>
  <property name="aspect_ratio">1</property>
  <property name="kdenlive:folderid">1</property>
  <property name="meta.media.frame_rate_num">9648000</property>
  <property name="meta.media.frame_rate_den">321473</property>
  <property name="meta.media.colorspace">601</property>
  <property name="meta.media.color_trc">15</property>
  <property name="meta.media.width">1920</property>
  <property name="meta.media.height">1080</property>
  <property name="meta.media.top_field_first">0</property>
  <property name="meta.media.progressive">1</property>
  <property name="kdenlive:file_size">49758528</property>
  <property name="kdenlive:file_hash">af5ab8fd5df95f63ad6115a4d52d6e18</property>
  <property name="global_feed">1</property>
 </producer>
 <producer id="28" title="Anonymous Submission" out="949" in="0">
  <property name="length">950</property>
  <property name="eof">pause</property>
  <property name="resource">videos/VID_20191027_191258.mp4</property>
  <property name="audio_index">0</property>
  <property name="video_index">1</property>
  <property name="mute_on_pause">1</property>
  <property name="mlt_service">avformat-novalidate</property>
  <property name="meta.media.nb_streams">2</property>
  <property name="meta.media.0.stream.type">audio</property>
  <property name="meta.media.0.codec.sample_fmt">fltp</property>
  <property name="meta.media.0.codec.sample_rate">48000</property>
  <property name="meta.media.0.codec.channels">2</property>
  <property name="meta.media.0.codec.name">aac</property>
  <property name="meta.media.0.codec.long_name">AAC (Advanced Audio Coding)</property>
  <property name="meta.media.0.codec.bit_rate">191996</property>
  <property name="meta.attr.0.stream.creation_time.markup">2019-10-27T18:12:58.000000Z</property>
  <property name="meta.attr.0.stream.language.markup">eng</property>
  <property name="meta.attr.0.stream.handler_name.markup">SoundHandle</property>
  <property name="meta.media.1.stream.type">video</property>
  <property name="meta.media.1.stream.frame_rate">29,8808</property>
  <property name="meta.media.1.stream.sample_aspect_ratio">1</property>
  <property name="meta.media.1.codec.width">1920</property>
  <property name="meta.media.1.codec.height">1080</property>
  <property name="meta.media.1.codec.rotate">0</property>
  <property name="meta.media.1.codec.frame_rate">90000</property>
  <property name="meta.media.1.codec.pix_fmt">yuvj420p</property>
  <property name="meta.media.1.codec.sample_aspect_ratio">0</property>
  <property name="meta.media.1.codec.colorspace">601</property>
  <property name="meta.media.1.codec.color_trc">15</property>
  <property name="meta.media.1.codec.name">h264</property>
  <property name="meta.media.1.codec.long_name">H.264 / AVC / MPEG-4 AVC / MPEG-4 part 10</property>
  <property name="meta.media.1.codec.bit_rate">22033888</property>
  <property name="meta.attr.1.stream.creation_time.markup">2019-10-27T18:12:58.000000Z</property>
  <property name="meta.attr.1.stream.language.markup">eng</property>
  <property name="meta.attr.1.stream.handler_name.markup">VideoHandle</property>
  <property name="meta.attr.major_brand.markup">mp42</property>
  <property name="meta.attr.minor_version.markup">0</property>
  <property name="meta.attr.compatible_brands.markup">isommp42</property>
  <property name="meta.attr.creation_time.markup">2019-10-27T18:12:58.000000Z</property>
  <property name="meta.attr.location.markup">+36.7210-004.4334/</property>
  <property name="meta.attr.location-eng.markup">+36.7210-004.4334/</property>
  <property name="meta.attr.com.android.version.markup">10</property>
  <property name="seekable">1</property>
  <property name="meta.media.sample_aspect_num">1</property>
  <property name="meta.media.sample_aspect_den">1</property>
  <property name="aspect_ratio">1</property>
  <property name="kdenlive:folderid">1</property>
  <property name="meta.media.frame_rate_num">34080000</property>
  <property name="meta.media.frame_rate_den">1140533</property>
  <property name="meta.media.colorspace">601</property>
  <property name="meta.media.color_trc">15</property>
  <property name="meta.media.width">1920</property>
  <property name="meta.media.height">1080</property>
  <property name="meta.media.top_field_first">0</property>
  <property name="meta.media.progressive">1</property>
  <property name="kdenlive:file_size">105638932</property>
  <property name="kdenlive:file_hash">b423f3e36a8c48919a9b4a3ee1b03cba</property>
  <property name="global_feed">1</property>
 </producer>
 <producer id="29" title="Anonymous Submission" out="1492" in="0">
  <property name="length">1493</property>
  <property name="eof">pause</property>
  <property name="resource">videos/VID_20191027_191429.mp4</property>
  <property name="audio_index">0</property>
  <property name="video_index">1</property>
  <property name="mute_on_pause">1</property>
  <property name="mlt_service">avformat-novalidate</property>
  <property name="meta.media.nb_streams">2</property>
  <property name="meta.media.0.stream.type">audio</property>
  <property name="meta.media.0.codec.sample_fmt">fltp</property>
  <property name="meta.media.0.codec.sample_rate">48000</property>
  <property name="meta.media.0.codec.channels">2</property>
  <property name="meta.media.0.codec.name">aac</property>
  <property name="meta.media.0.codec.long_name">AAC (Advanced Audio Coding)</property>
  <property name="meta.media.0.codec.bit_rate">192019</property>
  <property name="meta.attr.0.stream.creation_time.markup">2019-10-27T18:14:29.000000Z</property>
  <property name="meta.attr.0.stream.language.markup">eng</property>
  <property name="meta.attr.0.stream.handler_name.markup">SoundHandle</property>
  <property name="meta.media.1.stream.type">video</property>
  <property name="meta.media.1.stream.frame_rate">28,9795</property>
  <property name="meta.media.1.stream.sample_aspect_ratio">1</property>
  <property name="meta.media.1.codec.width">1920</property>
  <property name="meta.media.1.codec.height">1080</property>
  <property name="meta.media.1.codec.rotate">0</property>
  <property name="meta.media.1.codec.frame_rate">90000</property>
  <property name="meta.media.1.codec.pix_fmt">yuvj420p</property>
  <property name="meta.media.1.codec.sample_aspect_ratio">0</property>
  <property name="meta.media.1.codec.colorspace">601</property>
  <property name="meta.media.1.codec.color_trc">15</property>
  <property name="meta.media.1.codec.name">h264</property>
  <property name="meta.media.1.codec.long_name">H.264 / AVC / MPEG-4 AVC / MPEG-4 part 10</property>
  <property name="meta.media.1.codec.bit_rate">22045222</property>
  <property name="meta.attr.1.stream.creation_time.markup">2019-10-27T18:14:29.000000Z</property>
  <property name="meta.attr.1.stream.language.markup">eng</property>
  <property name="meta.attr.1.stream.handler_name.markup">VideoHandle</property>
  <property name="meta.attr.major_brand.markup">mp42</property>
  <property name="meta.attr.minor_version.markup">0</property>
  <property name="meta.attr.compatible_brands.markup">isommp42</property>
  <property name="meta.attr.creation_time.markup">2019-10-27T18:14:29.000000Z</property>
  <property name="meta.attr.location.markup">+36.7181-004.4153/</property>
  <property name="meta.attr.location-eng.markup">+36.7181-004.4153/</property>
  <property name="meta.attr.com.android.version.markup">10</property>
  <property name="seekable">1</property>
  <property name="meta.media.sample_aspect_num">1</property>
  <property name="meta.media.sample_aspect_den">1</property>
  <property name="aspect_ratio">1</property>
  <property name="kdenlive:folderid">1</property>
  <property name="meta.media.frame_rate_num">12982500</property>
  <property name="meta.media.frame_rate_den">447989</property>
  <property name="meta.media.colorspace">601</property>
  <property name="meta.media.color_trc">15</property>
  <property name="meta.media.width">1920</property>
  <property name="meta.media.height">1080</property>
  <property name="meta.media.top_field_first">0</property>
  <property name="meta.media.progressive">1</property>
  <property name="kdenlive:file_size">166057802</property>
  <property name="kdenlive:file_hash">75a3a619a2997eede4b1ce872f3a9bde</property>
  <property name="global_feed">1</property>
 </producer>
 <producer id="30" title="Anonymous Submission" out="278" in="0">
  <property name="length">279</property>
  <property name="eof">pause</property>
  <property name="resource">videos/VID_20191027_191448.mp4</property>
  <property name="audio_index">0</property>
  <property name="video_index">1</property>
  <property name="mute_on_pause">1</property>
  <property name="mlt_service">avformat-novalidate</property>
  <property name="meta.media.nb_streams">2</property>
  <property name="meta.media.0.stream.type">audio</property>
  <property name="meta.media.0.codec.sample_fmt">fltp</property>
  <property name="meta.media.0.codec.sample_rate">48000</property>
  <property name="meta.media.0.codec.channels">2</property>
  <property name="meta.media.0.codec.name">aac</property>
  <property name="meta.media.0.codec.long_name">AAC (Advanced Audio Coding)</property>
  <property name="meta.media.0.codec.bit_rate">192047</property>
  <property name="meta.attr.0.stream.creation_time.markup">2019-10-27T18:14:48.000000Z</property>
  <property name="meta.attr.0.stream.language.markup">eng</property>
  <property name="meta.attr.0.stream.handler_name.markup">SoundHandle</property>
  <property name="meta.media.1.stream.type">video</property>
  <property name="meta.media.1.stream.frame_rate">30,0119</property>
  <property name="meta.media.1.stream.sample_aspect_ratio">1</property>
  <property name="meta.media.1.codec.width">1920</property>
  <property name="meta.media.1.codec.height">1080</property>
  <property name="meta.media.1.codec.rotate">0</property>
  <property name="meta.media.1.codec.frame_rate">90000</property>
  <property name="meta.media.1.codec.pix_fmt">yuvj420p</property>
  <property name="meta.media.1.codec.sample_aspect_ratio">0</property>
  <property name="meta.media.1.codec.colorspace">601</property>
  <property name="meta.media.1.codec.color_trc">15</property>
  <property name="meta.media.1.codec.name">h264</property>
  <property name="meta.media.1.codec.long_name">H.264 / AVC / MPEG-4 AVC / MPEG-4 part 10</property>
  <property name="meta.media.1.codec.bit_rate">22212478</property>
  <property name="meta.attr.1.stream.creation_time.markup">2019-10-27T18:14:48.000000Z</property>
  <property name="meta.attr.1.stream.language.markup">eng</property>
  <property name="meta.attr.1.stream.handler_name.markup">VideoHandle</property>
  <property name="meta.attr.major_brand.markup">mp42</property>
  <property name="meta.attr.minor_version.markup">0</property>
  <property name="meta.attr.compatible_brands.markup">isommp42</property>
  <property name="meta.attr.creation_time.markup">2019-10-27T18:14:48.000000Z</property>
  <property name="meta.attr.location.markup">+36.7181-004.4153/</property>
  <property name="meta.attr.location-eng.markup">+36.7181-004.4153/</property>
  <property name="meta.attr.com.android.version.markup">10</property>
  <property name="seekable">1</property>
  <property name="meta.media.sample_aspect_num">1</property>
  <property name="meta.media.sample_aspect_den">1</property>
  <property name="aspect_ratio">1</property>
  <property name="kdenlive:folderid">1</property>
  <property name="meta.media.frame_rate_num">15075000</property>
  <property name="meta.media.frame_rate_den">502301</property>
  <property name="meta.media.colorspace">601</property>
  <property name="meta.media.color_trc">15</property>
  <property name="meta.media.width">1920</property>
  <property name="meta.media.height">1080</property>
  <property name="meta.media.top_field_first">0</property>
  <property name="meta.media.progressive">1</property>
  <property name="kdenlive:file_size">31268954</property>
  <property name="kdenlive:file_hash">97518eebb3c520f418ddc297f5dfffd0</property>
  <property name="global_feed">1</property>
 </producer>
 <producer id="31" title="Anonymous Submission" out="38" in="0">
  <property name="length">39</property>
  <property name="eof">pause</property>
  <property name="resource">videos/VID_20191027_191838.mp4</property>
  <property name="audio_index">0</property>
  <property name="video_index">1</property>
  <property name="mute_on_pause">1</property>
  <property name="mlt_service">avformat-novalidate</property>
  <property name="meta.media.nb_streams">2</property>
  <property name="meta.media.0.stream.type">audio</property>
  <property name="meta.media.0.codec.sample_fmt">fltp</property>
  <property name="meta.media.0.codec.sample_rate">48000</property>
  <property name="meta.media.0.codec.channels">2</property>
  <property name="meta.media.0.codec.name">aac</property>
  <property name="meta.media.0.codec.long_name">AAC (Advanced Audio Coding)</property>
  <property name="meta.media.0.codec.bit_rate">191120</property>
  <property name="meta.attr.0.stream.creation_time.markup">2019-10-27T18:18:38.000000Z</property>
  <property name="meta.attr.0.stream.language.markup">eng</property>
  <property name="meta.attr.0.stream.handler_name.markup">SoundHandle</property>
  <property name="meta.media.1.stream.type">video</property>
  <property name="meta.media.1.stream.frame_rate">30,0119</property>
  <property name="meta.media.1.stream.sample_aspect_ratio">1</property>
  <property name="meta.media.1.codec.width">1920</property>
  <property name="meta.media.1.codec.height">1080</property>
  <property name="meta.media.1.codec.rotate">0</property>
  <property name="meta.media.1.codec.frame_rate">90000</property>
  <property name="meta.media.1.codec.pix_fmt">yuvj420p</property>
  <property name="meta.media.1.codec.sample_aspect_ratio">0</property>
  <property name="meta.media.1.codec.colorspace">601</property>
  <property name="meta.media.1.codec.color_trc">15</property>
  <property name="meta.media.1.codec.name">h264</property>
  <property name="meta.media.1.codec.long_name">H.264 / AVC / MPEG-4 AVC / MPEG-4 part 10</property>
  <property name="meta.media.1.codec.bit_rate">22446279</property>
  <property name="meta.attr.1.stream.creation_time.markup">2019-10-27T18:18:38.000000Z</property>
  <property name="meta.attr.1.stream.language.markup">eng</property>
  <property name="meta.attr.1.stream.handler_name.markup">VideoHandle</property>
  <property name="meta.attr.major_brand.markup">mp42</property>
  <property name="meta.attr.minor_version.markup">0</property>
  <property name="meta.attr.compatible_brands.markup">isommp42</property>
  <property name="meta.attr.creation_time.markup">2019-10-27T18:18:38.000000Z</property>
  <property name="meta.attr.location.markup">+36.7180-004.4128/</property>
  <property name="meta.attr.location-eng.markup">+36.7180-004.4128/</property>
  <property name="meta.attr.com.android.version.markup">10</property>
  <property name="seekable">1</property>
  <property name="meta.media.sample_aspect_num">1</property>
  <property name="meta.media.sample_aspect_den">1</property>
  <property name="aspect_ratio">1</property>
  <property name="kdenlive:folderid">1</property>
  <property name="meta.media.frame_rate_num">264375</property>
  <property name="meta.media.frame_rate_den">8809</property>
  <property name="meta.media.colorspace">601</property>
  <property name="meta.media.color_trc">15</property>
  <property name="meta.media.width">1920</property>
  <property name="meta.media.height">1080</property>
  <property name="meta.media.top_field_first">0</property>
  <property name="meta.media.progressive">1</property>
  <property name="kdenlive:file_size">4434852</property>
  <property name="kdenlive:file_hash">485ccacce76a17a2e0a0fb29aab66dee</property>
  <property name="global_feed">1</property>
 </producer>
 <producer id="32" title="Anonymous Submission" out="1311" in="0">
  <property name="length">1312</property>
  <property name="eof">pause</property>
  <property name="resource">videos/VID_20191027_191932.mp4</property>
  <property name="audio_index">0</property>
  <property name="video_index">1</property>
  <property name="mute_on_pause">1</property>
  <property name="mlt_service">avformat-novalidate</property>
  <property name="meta.media.nb_streams">2</property>
  <property name="meta.media.0.stream.type">audio</property>
  <property name="meta.media.0.codec.sample_fmt">fltp</property>
  <property name="meta.media.0.codec.sample_rate">48000</property>
  <property name="meta.media.0.codec.channels">2</property>
  <property name="meta.media.0.codec.name">aac</property>
  <property name="meta.media.0.codec.long_name">AAC (Advanced Audio Coding)</property>
  <property name="meta.media.0.codec.bit_rate">191971</property>
  <property name="meta.attr.0.stream.creation_time.markup">2019-10-27T18:19:32.000000Z</property>
  <property name="meta.attr.0.stream.language.markup">eng</property>
  <property name="meta.attr.0.stream.handler_name.markup">SoundHandle</property>
  <property name="meta.media.1.stream.type">video</property>
  <property name="meta.media.1.stream.frame_rate">30,0102</property>
  <property name="meta.media.1.stream.sample_aspect_ratio">1</property>
  <property name="meta.media.1.codec.width">1920</property>
  <property name="meta.media.1.codec.height">1080</property>
  <property name="meta.media.1.codec.rotate">0</property>
  <property name="meta.media.1.codec.frame_rate">90000</property>
  <property name="meta.media.1.codec.pix_fmt">yuvj420p</property>
  <property name="meta.media.1.codec.sample_aspect_ratio">0</property>
  <property name="meta.media.1.codec.colorspace">601</property>
  <property name="meta.media.1.codec.color_trc">15</property>
  <property name="meta.media.1.codec.name">h264</property>
  <property name="meta.media.1.codec.long_name">H.264 / AVC / MPEG-4 AVC / MPEG-4 part 10</property>
  <property name="meta.media.1.codec.bit_rate">22050848</property>
  <property name="meta.attr.1.stream.creation_time.markup">2019-10-27T18:19:32.000000Z</property>
  <property name="meta.attr.1.stream.language.markup">eng</property>
  <property name="meta.attr.1.stream.handler_name.markup">VideoHandle</property>
  <property name="meta.attr.major_brand.markup">mp42</property>
  <property name="meta.attr.minor_version.markup">0</property>
  <property name="meta.attr.compatible_brands.markup">isommp42</property>
  <property name="meta.attr.creation_time.markup">2019-10-27T18:19:32.000000Z</property>
  <property name="meta.attr.location.markup">+36.7180-004.4128/</property>
  <property name="meta.attr.location-eng.markup">+36.7180-004.4128/</property>
  <property name="meta.attr.com.android.version.markup">10</property>
  <property name="seekable">1</property>
  <property name="meta.media.sample_aspect_num">1</property>
  <property name="meta.media.sample_aspect_den">1</property>
  <property name="aspect_ratio">1</property>
  <property name="kdenlive:folderid">1</property>
  <property name="meta.media.frame_rate_num">141750000</property>
  <property name="meta.media.frame_rate_den">4723387</property>
  <property name="meta.media.colorspace">601</property>
  <property name="meta.media.color_trc">15</property>
  <property name="meta.media.width">1920</property>
  <property name="meta.media.height">1080</property>
  <property name="meta.media.top_field_first">0</property>
  <property name="meta.media.progressive">1</property>
  <property name="kdenlive:file_size">145940511</property>
  <property name="kdenlive:file_hash">44ae77436f88e7a3cf30647d5130e6f6</property>
  <property name="global_feed">1</property>
 </producer>
 <producer id="33" title="Anonymous Submission" out="285" in="0">
  <property name="length">286</property>
  <property name="eof">pause</property>
  <property name="resource">videos/VID_20191027_192138.mp4</property>
  <property name="audio_index">0</property>
  <property name="video_index">1</property>
  <property name="mute_on_pause">1</property>
  <property name="mlt_service">avformat-novalidate</property>
  <property name="meta.media.nb_streams">2</property>
  <property name="meta.media.0.stream.type">audio</property>
  <property name="meta.media.0.codec.sample_fmt">fltp</property>
  <property name="meta.media.0.codec.sample_rate">48000</property>
  <property name="meta.media.0.codec.channels">2</property>
  <property name="meta.media.0.codec.name">aac</property>
  <property name="meta.media.0.codec.long_name">AAC (Advanced Audio Coding)</property>
  <property name="meta.media.0.codec.bit_rate">191983</property>
  <property name="meta.attr.0.stream.creation_time.markup">2019-10-27T18:21:38.000000Z</property>
  <property name="meta.attr.0.stream.language.markup">eng</property>
  <property name="meta.attr.0.stream.handler_name.markup">SoundHandle</property>
  <property name="meta.media.1.stream.type">video</property>
  <property name="meta.media.1.stream.frame_rate">30,0121</property>
  <property name="meta.media.1.stream.sample_aspect_ratio">1</property>
  <property name="meta.media.1.codec.width">1920</property>
  <property name="meta.media.1.codec.height">1080</property>
  <property name="meta.media.1.codec.rotate">0</property>
  <property name="meta.media.1.codec.frame_rate">90000</property>
  <property name="meta.media.1.codec.pix_fmt">yuvj420p</property>
  <property name="meta.media.1.codec.sample_aspect_ratio">0</property>
  <property name="meta.media.1.codec.colorspace">601</property>
  <property name="meta.media.1.codec.color_trc">15</property>
  <property name="meta.media.1.codec.name">h264</property>
  <property name="meta.media.1.codec.long_name">H.264 / AVC / MPEG-4 AVC / MPEG-4 part 10</property>
  <property name="meta.media.1.codec.bit_rate">22194758</property>
  <property name="meta.attr.1.stream.creation_time.markup">2019-10-27T18:21:38.000000Z</property>
  <property name="meta.attr.1.stream.language.markup">eng</property>
  <property name="meta.attr.1.stream.handler_name.markup">VideoHandle</property>
  <property name="meta.attr.major_brand.markup">mp42</property>
  <property name="meta.attr.minor_version.markup">0</property>
  <property name="meta.attr.compatible_brands.markup">isommp42</property>
  <property name="meta.attr.creation_time.markup">2019-10-27T18:21:38.000000Z</property>
  <property name="meta.attr.location.markup">+36.7173-004.4127/</property>
  <property name="meta.attr.location-eng.markup">+36.7173-004.4127/</property>
  <property name="meta.attr.com.android.version.markup">10</property>
  <property name="seekable">1</property>
  <property name="meta.media.sample_aspect_num">1</property>
  <property name="meta.media.sample_aspect_den">1</property>
  <property name="aspect_ratio">1</property>
  <property name="kdenlive:folderid">1</property>
  <property name="meta.media.frame_rate_num">6174000</property>
  <property name="meta.media.frame_rate_den">205717</property>
  <property name="meta.media.colorspace">601</property>
  <property name="meta.media.color_trc">15</property>
  <property name="meta.media.width">1920</property>
  <property name="meta.media.height">1080</property>
  <property name="meta.media.top_field_first">0</property>
  <property name="meta.media.progressive">1</property>
  <property name="kdenlive:file_size">31990118</property>
  <property name="kdenlive:file_hash">1cc0fb5d431c5e87f1eed2cbec9ef962</property>
  <property name="global_feed">1</property>
 </producer>
 <producer id="34" title="Anonymous Submission" out="621" in="0">
  <property name="length">622</property>
  <property name="eof">pause</property>
  <property name="resource">videos/VID_20191027_192653.mp4</property>
  <property name="audio_index">0</property>
  <property name="video_index">1</property>
  <property name="mute_on_pause">1</property>
  <property name="mlt_service">avformat-novalidate</property>
  <property name="meta.media.nb_streams">2</property>
  <property name="meta.media.0.stream.type">audio</property>
  <property name="meta.media.0.codec.sample_fmt">fltp</property>
  <property name="meta.media.0.codec.sample_rate">48000</property>
  <property name="meta.media.0.codec.channels">2</property>
  <property name="meta.media.0.codec.name">aac</property>
  <property name="meta.media.0.codec.long_name">AAC (Advanced Audio Coding)</property>
  <property name="meta.media.0.codec.bit_rate">191990</property>
  <property name="meta.attr.0.stream.creation_time.markup">2019-10-27T18:26:53.000000Z</property>
  <property name="meta.attr.0.stream.language.markup">eng</property>
  <property name="meta.attr.0.stream.handler_name.markup">SoundHandle</property>
  <property name="meta.media.1.stream.type">video</property>
  <property name="meta.media.1.stream.frame_rate">29,9986</property>
  <property name="meta.media.1.stream.sample_aspect_ratio">1</property>
  <property name="meta.media.1.codec.width">1920</property>
  <property name="meta.media.1.codec.height">1080</property>
  <property name="meta.media.1.codec.rotate">0</property>
  <property name="meta.media.1.codec.frame_rate">90000</property>
  <property name="meta.media.1.codec.pix_fmt">yuvj420p</property>
  <property name="meta.media.1.codec.sample_aspect_ratio">0</property>
  <property name="meta.media.1.codec.colorspace">601</property>
  <property name="meta.media.1.codec.color_trc">15</property>
  <property name="meta.media.1.codec.name">h264</property>
  <property name="meta.media.1.codec.long_name">H.264 / AVC / MPEG-4 AVC / MPEG-4 part 10</property>
  <property name="meta.media.1.codec.bit_rate">22076414</property>
  <property name="meta.attr.1.stream.creation_time.markup">2019-10-27T18:26:53.000000Z</property>
  <property name="meta.attr.1.stream.language.markup">eng</property>
  <property name="meta.attr.1.stream.handler_name.markup">VideoHandle</property>
  <property name="meta.attr.major_brand.markup">mp42</property>
  <property name="meta.attr.minor_version.markup">0</property>
  <property name="meta.attr.compatible_brands.markup">isommp42</property>
  <property name="meta.attr.creation_time.markup">2019-10-27T18:26:53.000000Z</property>
  <property name="meta.attr.location.markup">+36.7165-004.4134/</property>
  <property name="meta.attr.location-eng.markup">+36.7165-004.4134/</property>
  <property name="meta.attr.com.android.version.markup">10</property>
  <property name="seekable">1</property>
  <property name="meta.media.sample_aspect_num">1</property>
  <property name="meta.media.sample_aspect_den">1</property>
  <property name="aspect_ratio">1</property>
  <property name="kdenlive:folderid">1</property>
  <property name="meta.media.frame_rate_num">67140000</property>
  <property name="meta.media.frame_rate_den">2238101</property>
  <property name="meta.media.colorspace">601</property>
  <property name="meta.media.color_trc">15</property>
  <property name="meta.media.width">1920</property>
  <property name="meta.media.height">1080</property>
  <property name="meta.media.top_field_first">0</property>
  <property name="meta.media.progressive">1</property>
  <property name="kdenlive:file_size">69233851</property>
  <property name="kdenlive:file_hash">96910ad424e08f0c81cf9ffc296fb066</property>
  <property name="global_feed">1</property>
 </producer>
 <producer id="35" title="Anonymous Submission" out="328" in="0">
  <property name="length">329</property>
  <property name="eof">pause</property>
  <property name="resource">videos/VID_20191027_192857.mp4</property>
  <property name="audio_index">0</property>
  <property name="video_index">1</property>
  <property name="mute_on_pause">1</property>
  <property name="mlt_service">avformat-novalidate</property>
  <property name="meta.media.nb_streams">2</property>
  <property name="meta.media.0.stream.type">audio</property>
  <property name="meta.media.0.codec.sample_fmt">fltp</property>
  <property name="meta.media.0.codec.sample_rate">48000</property>
  <property name="meta.media.0.codec.channels">2</property>
  <property name="meta.media.0.codec.name">aac</property>
  <property name="meta.media.0.codec.long_name">AAC (Advanced Audio Coding)</property>
  <property name="meta.media.0.codec.bit_rate">192080</property>
  <property name="meta.attr.0.stream.creation_time.markup">2019-10-27T18:28:57.000000Z</property>
  <property name="meta.attr.0.stream.language.markup">eng</property>
  <property name="meta.attr.0.stream.handler_name.markup">SoundHandle</property>
  <property name="meta.media.1.stream.type">video</property>
  <property name="meta.media.1.stream.frame_rate">30,0118</property>
  <property name="meta.media.1.stream.sample_aspect_ratio">1</property>
  <property name="meta.media.1.codec.width">1920</property>
  <property name="meta.media.1.codec.height">1080</property>
  <property name="meta.media.1.codec.rotate">0</property>
  <property name="meta.media.1.codec.frame_rate">90000</property>
  <property name="meta.media.1.codec.pix_fmt">yuvj420p</property>
  <property name="meta.media.1.codec.sample_aspect_ratio">0</property>
  <property name="meta.media.1.codec.colorspace">601</property>
  <property name="meta.media.1.codec.color_trc">15</property>
  <property name="meta.media.1.codec.name">h264</property>
  <property name="meta.media.1.codec.long_name">H.264 / AVC / MPEG-4 AVC / MPEG-4 part 10</property>
  <property name="meta.media.1.codec.bit_rate">22119401</property>
  <property name="meta.attr.1.stream.creation_time.markup">2019-10-27T18:28:57.000000Z</property>
  <property name="meta.attr.1.stream.language.markup">eng</property>
  <property name="meta.attr.1.stream.handler_name.markup">VideoHandle</property>
  <property name="meta.attr.major_brand.markup">mp42</property>
  <property name="meta.attr.minor_version.markup">0</property>
  <property name="meta.attr.compatible_brands.markup">isommp42</property>
  <property name="meta.attr.creation_time.markup">2019-10-27T18:28:57.000000Z</property>
  <property name="meta.attr.location.markup">+36.7201-004.4125/</property>
  <property name="meta.attr.location-eng.markup">+36.7201-004.4125/</property>
  <property name="meta.attr.com.android.version.markup">10</property>
  <property name="seekable">1</property>
  <property name="meta.media.sample_aspect_num">1</property>
  <property name="meta.media.sample_aspect_den">1</property>
  <property name="aspect_ratio">1</property>
  <property name="kdenlive:folderid">1</property>
  <property name="meta.media.frame_rate_num">17730000</property>
  <property name="meta.media.frame_rate_den">590767</property>
  <property name="meta.media.colorspace">601</property>
  <property name="meta.media.color_trc">15</property>
  <property name="meta.media.width">1920</property>
  <property name="meta.media.height">1080</property>
  <property name="meta.media.top_field_first">0</property>
  <property name="meta.media.progressive">1</property>
  <property name="kdenlive:file_size">36622912</property>
  <property name="kdenlive:file_hash">6796c8b0be1191b44b731a386834b3ef</property>
  <property name="global_feed">1</property>
 </producer>
 <producer id="36" title="Anonymous Submission" out="191" in="0">
  <property name="length">192</property>
  <property name="eof">pause</property>
  <property name="resource">videos/VID_20191027_193213.mp4</property>
  <property name="audio_index">0</property>
  <property name="video_index">1</property>
  <property name="mute_on_pause">1</property>
  <property name="mlt_service">avformat-novalidate</property>
  <property name="meta.media.nb_streams">2</property>
  <property name="meta.media.0.stream.type">audio</property>
  <property name="meta.media.0.codec.sample_fmt">fltp</property>
  <property name="meta.media.0.codec.sample_rate">48000</property>
  <property name="meta.media.0.codec.channels">2</property>
  <property name="meta.media.0.codec.name">aac</property>
  <property name="meta.media.0.codec.long_name">AAC (Advanced Audio Coding)</property>
  <property name="meta.media.0.codec.bit_rate">191926</property>
  <property name="meta.attr.0.stream.creation_time.markup">2019-10-27T18:32:13.000000Z</property>
  <property name="meta.attr.0.stream.language.markup">eng</property>
  <property name="meta.attr.0.stream.handler_name.markup">SoundHandle</property>
  <property name="meta.media.1.stream.type">video</property>
  <property name="meta.media.1.stream.frame_rate">30,0118</property>
  <property name="meta.media.1.stream.sample_aspect_ratio">1</property>
  <property name="meta.media.1.codec.width">1920</property>
  <property name="meta.media.1.codec.height">1080</property>
  <property name="meta.media.1.codec.rotate">0</property>
  <property name="meta.media.1.codec.frame_rate">90000</property>
  <property name="meta.media.1.codec.pix_fmt">yuvj420p</property>
  <property name="meta.media.1.codec.sample_aspect_ratio">0</property>
  <property name="meta.media.1.codec.colorspace">601</property>
  <property name="meta.media.1.codec.color_trc">15</property>
  <property name="meta.media.1.codec.name">h264</property>
  <property name="meta.media.1.codec.long_name">H.264 / AVC / MPEG-4 AVC / MPEG-4 part 10</property>
  <property name="meta.media.1.codec.bit_rate">22192240</property>
  <property name="meta.attr.1.stream.creation_time.markup">2019-10-27T18:32:13.000000Z</property>
  <property name="meta.attr.1.stream.language.markup">eng</property>
  <property name="meta.attr.1.stream.handler_name.markup">VideoHandle</property>
  <property name="meta.attr.major_brand.markup">mp42</property>
  <property name="meta.attr.minor_version.markup">0</property>
  <property name="meta.attr.compatible_brands.markup">isommp42</property>
  <property name="meta.attr.creation_time.markup">2019-10-27T18:32:13.000000Z</property>
  <property name="meta.attr.location.markup">+36.7201-004.4125/</property>
  <property name="meta.attr.location-eng.markup">+36.7201-004.4125/</property>
  <property name="meta.attr.com.android.version.markup">10</property>
  <property name="seekable">1</property>
  <property name="meta.media.sample_aspect_num">1</property>
  <property name="meta.media.sample_aspect_den">1</property>
  <property name="aspect_ratio">1</property>
  <property name="kdenlive:folderid">1</property>
  <property name="meta.media.frame_rate_num">2598750</property>
  <property name="meta.media.frame_rate_den">86591</property>
  <property name="meta.media.colorspace">601</property>
  <property name="meta.media.color_trc">15</property>
  <property name="meta.media.width">1920</property>
  <property name="meta.media.height">1080</property>
  <property name="meta.media.top_field_first">0</property>
  <property name="meta.media.progressive">1</property>
  <property name="kdenlive:file_size">21543342</property>
  <property name="kdenlive:file_hash">fde4ac5a548f2b6c550b7c6f23bca028</property>
  <property name="global_feed">1</property>
 </producer>
 <producer id="37" title="Anonymous Submission" out="966" in="0">
  <property name="length">967</property>
  <property name="eof">pause</property>
  <property name="resource">videos/VID_20191027_193744.mp4</property>
  <property name="audio_index">0</property>
  <property name="video_index">1</property>
  <property name="mute_on_pause">1</property>
  <property name="mlt_service">avformat-novalidate</property>
  <property name="meta.media.nb_streams">2</property>
  <property name="meta.media.0.stream.type">audio</property>
  <property name="meta.media.0.codec.sample_fmt">fltp</property>
  <property name="meta.media.0.codec.sample_rate">48000</property>
  <property name="meta.media.0.codec.channels">2</property>
  <property name="meta.media.0.codec.name">aac</property>
  <property name="meta.media.0.codec.long_name">AAC (Advanced Audio Coding)</property>
  <property name="meta.media.0.codec.bit_rate">191964</property>
  <property name="meta.attr.0.stream.creation_time.markup">2019-10-27T18:37:44.000000Z</property>
  <property name="meta.attr.0.stream.language.markup">eng</property>
  <property name="meta.attr.0.stream.handler_name.markup">SoundHandle</property>
  <property name="meta.media.1.stream.type">video</property>
  <property name="meta.media.1.stream.frame_rate">30,012</property>
  <property name="meta.media.1.stream.sample_aspect_ratio">1</property>
  <property name="meta.media.1.codec.width">1920</property>
  <property name="meta.media.1.codec.height">1080</property>
  <property name="meta.media.1.codec.rotate">0</property>
  <property name="meta.media.1.codec.frame_rate">90000</property>
  <property name="meta.media.1.codec.pix_fmt">yuvj420p</property>
  <property name="meta.media.1.codec.sample_aspect_ratio">0</property>
  <property name="meta.media.1.codec.colorspace">601</property>
  <property name="meta.media.1.codec.color_trc">15</property>
  <property name="meta.media.1.codec.name">h264</property>
  <property name="meta.media.1.codec.long_name">H.264 / AVC / MPEG-4 AVC / MPEG-4 part 10</property>
  <property name="meta.media.1.codec.bit_rate">22076703</property>
  <property name="meta.attr.1.stream.creation_time.markup">2019-10-27T18:37:44.000000Z</property>
  <property name="meta.attr.1.stream.language.markup">eng</property>
  <property name="meta.attr.1.stream.handler_name.markup">VideoHandle</property>
  <property name="meta.attr.major_brand.markup">mp42</property>
  <property name="meta.attr.minor_version.markup">0</property>
  <property name="meta.attr.compatible_brands.markup">isommp42</property>
  <property name="meta.attr.creation_time.markup">2019-10-27T18:37:44.000000Z</property>
  <property name="meta.attr.location.markup">+36.7209-004.4170/</property>
  <property name="meta.attr.location-eng.markup">+36.7209-004.4170/</property>
  <property name="meta.attr.com.android.version.markup">10</property>
  <property name="seekable">1</property>
  <property name="meta.media.sample_aspect_num">1</property>
  <property name="meta.media.sample_aspect_den">1</property>
  <property name="aspect_ratio">1</property>
  <property name="kdenlive:folderid">1</property>
  <property name="meta.media.frame_rate_num">2322000</property>
  <property name="meta.media.frame_rate_den">77369</property>
  <property name="meta.media.colorspace">601</property>
  <property name="meta.media.color_trc">15</property>
  <property name="meta.media.width">1920</property>
  <property name="meta.media.height">1080</property>
  <property name="meta.media.top_field_first">0</property>
  <property name="meta.media.progressive">1</property>
  <property name="kdenlive:file_size">107699280</property>
  <property name="kdenlive:file_hash">51f609dfdbd86fdeab810f3fca83e1b8</property>
  <property name="global_feed">1</property>
 </producer>
 <producer id="38" title="Anonymous Submission" out="727" in="0">
  <property name="length">728</property>
  <property name="eof">pause</property>
  <property name="resource">videos/VID_20191027_193904.mp4</property>
  <property name="audio_index">0</property>
  <property name="video_index">1</property>
  <property name="mute_on_pause">1</property>
  <property name="mlt_service">avformat-novalidate</property>
  <property name="meta.media.nb_streams">2</property>
  <property name="meta.media.0.stream.type">audio</property>
  <property name="meta.media.0.codec.sample_fmt">fltp</property>
  <property name="meta.media.0.codec.sample_rate">48000</property>
  <property name="meta.media.0.codec.channels">2</property>
  <property name="meta.media.0.codec.name">aac</property>
  <property name="meta.media.0.codec.long_name">AAC (Advanced Audio Coding)</property>
  <property name="meta.media.0.codec.bit_rate">192028</property>
  <property name="meta.attr.0.stream.creation_time.markup">2019-10-27T18:39:04.000000Z</property>
  <property name="meta.attr.0.stream.language.markup">eng</property>
  <property name="meta.attr.0.stream.handler_name.markup">SoundHandle</property>
  <property name="meta.media.1.stream.type">video</property>
  <property name="meta.media.1.stream.frame_rate">30,012</property>
  <property name="meta.media.1.stream.sample_aspect_ratio">1</property>
  <property name="meta.media.1.codec.width">1920</property>
  <property name="meta.media.1.codec.height">1080</property>
  <property name="meta.media.1.codec.rotate">0</property>
  <property name="meta.media.1.codec.frame_rate">90000</property>
  <property name="meta.media.1.codec.pix_fmt">yuvj420p</property>
  <property name="meta.media.1.codec.sample_aspect_ratio">0</property>
  <property name="meta.media.1.codec.colorspace">601</property>
  <property name="meta.media.1.codec.color_trc">15</property>
  <property name="meta.media.1.codec.name">h264</property>
  <property name="meta.media.1.codec.long_name">H.264 / AVC / MPEG-4 AVC / MPEG-4 part 10</property>
  <property name="meta.media.1.codec.bit_rate">22100130</property>
  <property name="meta.attr.1.stream.creation_time.markup">2019-10-27T18:39:04.000000Z</property>
  <property name="meta.attr.1.stream.language.markup">eng</property>
  <property name="meta.attr.1.stream.handler_name.markup">VideoHandle</property>
  <property name="meta.attr.major_brand.markup">mp42</property>
  <property name="meta.attr.minor_version.markup">0</property>
  <property name="meta.attr.compatible_brands.markup">isommp42</property>
  <property name="meta.attr.creation_time.markup">2019-10-27T18:39:04.000000Z</property>
  <property name="meta.attr.location.markup">+36.7210-004.4170/</property>
  <property name="meta.attr.location-eng.markup">+36.7210-004.4170/</property>
  <property name="meta.attr.com.android.version.markup">10</property>
  <property name="seekable">1</property>
  <property name="meta.media.sample_aspect_num">1</property>
  <property name="meta.media.sample_aspect_den">1</property>
  <property name="aspect_ratio">1</property>
  <property name="kdenlive:folderid">1</property>
  <property name="meta.media.frame_rate_num">828000</property>
  <property name="meta.media.frame_rate_den">27589</property>
  <property name="meta.media.colorspace">601</property>
  <property name="meta.media.color_trc">15</property>
  <property name="meta.media.width">1920</property>
  <property name="meta.media.height">1080</property>
  <property name="meta.media.top_field_first">0</property>
  <property name="meta.media.progressive">1</property>
  <property name="kdenlive:file_size">81162673</property>
  <property name="kdenlive:file_hash">c2a35c2bcf1a0e57c9b350fbd2499c3e</property>
  <property name="global_feed">1</property>
 </producer>
 <producer id="39" title="Anonymous Submission" out="459" in="0">
  <property name="length">460</property>
  <property name="eof">pause</property>
  <property name="resource">videos/VID_20191027_194617.mp4</property>
  <property name="audio_index">0</property>
  <property name="video_index">1</property>
  <property name="mute_on_pause">1</property>
  <property name="mlt_service">avformat-novalidate</property>
  <property name="meta.media.nb_streams">2</property>
  <property name="meta.media.0.stream.type">audio</property>
  <property name="meta.media.0.codec.sample_fmt">fltp</property>
  <property name="meta.media.0.codec.sample_rate">48000</property>
  <property name="meta.media.0.codec.channels">2</property>
  <property name="meta.media.0.codec.name">aac</property>
  <property name="meta.media.0.codec.long_name">AAC (Advanced Audio Coding)</property>
  <property name="meta.media.0.codec.bit_rate">191936</property>
  <property name="meta.attr.0.stream.creation_time.markup">2019-10-27T18:46:17.000000Z</property>
  <property name="meta.attr.0.stream.language.markup">eng</property>
  <property name="meta.attr.0.stream.handler_name.markup">SoundHandle</property>
  <property name="meta.media.1.stream.type">video</property>
  <property name="meta.media.1.stream.frame_rate">29,9412</property>
  <property name="meta.media.1.stream.sample_aspect_ratio">1</property>
  <property name="meta.media.1.codec.width">1920</property>
  <property name="meta.media.1.codec.height">1080</property>
  <property name="meta.media.1.codec.rotate">0</property>
  <property name="meta.media.1.codec.frame_rate">90000</property>
  <property name="meta.media.1.codec.pix_fmt">yuvj420p</property>
  <property name="meta.media.1.codec.sample_aspect_ratio">0</property>
  <property name="meta.media.1.codec.colorspace">601</property>
  <property name="meta.media.1.codec.color_trc">15</property>
  <property name="meta.media.1.codec.name">h264</property>
  <property name="meta.media.1.codec.long_name">H.264 / AVC / MPEG-4 AVC / MPEG-4 part 10</property>
  <property name="meta.media.1.codec.bit_rate">22190439</property>
  <property name="meta.attr.1.stream.creation_time.markup">2019-10-27T18:46:17.000000Z</property>
  <property name="meta.attr.1.stream.language.markup">eng</property>
  <property name="meta.attr.1.stream.handler_name.markup">VideoHandle</property>
  <property name="meta.attr.major_brand.markup">mp42</property>
  <property name="meta.attr.minor_version.markup">0</property>
  <property name="meta.attr.compatible_brands.markup">isommp42</property>
  <property name="meta.attr.creation_time.markup">2019-10-27T18:46:17.000000Z</property>
  <property name="meta.attr.location.markup">+36.7220-004.4171/</property>
  <property name="meta.attr.location-eng.markup">+36.7220-004.4171/</property>
  <property name="meta.attr.com.android.version.markup">10</property>
  <property name="seekable">1</property>
  <property name="meta.media.sample_aspect_num">1</property>
  <property name="meta.media.sample_aspect_den">1</property>
  <property name="aspect_ratio">1</property>
  <property name="kdenlive:folderid">1</property>
  <property name="meta.media.frame_rate_num">16500000</property>
  <property name="meta.media.frame_rate_den">551081</property>
  <property name="meta.media.colorspace">601</property>
  <property name="meta.media.color_trc">15</property>
  <property name="meta.media.width">1920</property>
  <property name="meta.media.height">1080</property>
  <property name="meta.media.top_field_first">0</property>
  <property name="meta.media.progressive">1</property>
  <property name="kdenlive:file_size">51404838</property>
  <property name="kdenlive:file_hash">d492a97bea19bb531e4866747f6a59f7</property>
  <property name="global_feed">1</property>
 </producer>
 <producer id="40" title="Anonymous Submission" out="193" in="0">
  <property name="length">194</property>
  <property name="eof">pause</property>
  <property name="resource">videos/VID_20191029_102054.mp4</property>
  <property name="audio_index">0</property>
  <property name="video_index">1</property>
  <property name="mute_on_pause">1</property>
  <property name="mlt_service">avformat-novalidate</property>
  <property name="meta.media.nb_streams">2</property>
  <property name="meta.media.0.stream.type">audio</property>
  <property name="meta.media.0.codec.sample_fmt">fltp</property>
  <property name="meta.media.0.codec.sample_rate">48000</property>
  <property name="meta.media.0.codec.channels">2</property>
  <property name="meta.media.0.codec.name">aac</property>
  <property name="meta.media.0.codec.long_name">AAC (Advanced Audio Coding)</property>
  <property name="meta.media.0.codec.bit_rate">189579</property>
  <property name="meta.attr.0.stream.creation_time.markup">2019-10-29T09:20:54.000000Z</property>
  <property name="meta.attr.0.stream.language.markup">eng</property>
  <property name="meta.attr.0.stream.handler_name.markup">SoundHandle</property>
  <property name="meta.media.1.stream.type">video</property>
  <property name="meta.media.1.stream.frame_rate">43,6651</property>
  <property name="meta.media.1.stream.sample_aspect_ratio">1</property>
  <property name="meta.media.1.codec.width">1920</property>
  <property name="meta.media.1.codec.height">1080</property>
  <property name="meta.media.1.codec.rotate">0</property>
  <property name="meta.media.1.codec.frame_rate">90000</property>
  <property name="meta.media.1.codec.pix_fmt">yuvj420p</property>
  <property name="meta.media.1.codec.sample_aspect_ratio">0</property>
  <property name="meta.media.1.codec.colorspace">601</property>
  <property name="meta.media.1.codec.color_trc">15</property>
  <property name="meta.media.1.codec.name">h264</property>
  <property name="meta.media.1.codec.long_name">H.264 / AVC / MPEG-4 AVC / MPEG-4 part 10</property>
  <property name="meta.media.1.codec.bit_rate">26662002</property>
  <property name="meta.attr.1.stream.creation_time.markup">2019-10-29T09:20:54.000000Z</property>
  <property name="meta.attr.1.stream.language.markup">eng</property>
  <property name="meta.attr.1.stream.handler_name.markup">VideoHandle</property>
  <property name="meta.attr.major_brand.markup">mp42</property>
  <property name="meta.attr.minor_version.markup">0</property>
  <property name="meta.attr.compatible_brands.markup">isommp42</property>
  <property name="meta.attr.creation_time.markup">2019-10-29T09:20:54.000000Z</property>
  <property name="meta.attr.location.markup">+36.7178-004.4103/</property>
  <property name="meta.attr.location-eng.markup">+36.7178-004.4103/</property>
  <property name="meta.attr.com.android.version.markup">10</property>
  <property name="seekable">1</property>
  <property name="meta.media.sample_aspect_num">1</property>
  <property name="meta.media.sample_aspect_den">1</property>
  <property name="aspect_ratio">1</property>
  <property name="kdenlive:folderid">1</property>
  <property name="meta.media.frame_rate_num">3813750</property>
  <property name="meta.media.frame_rate_den">87341</property>
  <property name="meta.media.colorspace">601</property>
  <property name="meta.media.color_trc">15</property>
  <property name="meta.media.width">1920</property>
  <property name="meta.media.height">1080</property>
  <property name="meta.media.top_field_first">0</property>
  <property name="meta.media.progressive">1</property>
  <property name="kdenlive:file_size">26066072</property>
  <property name="kdenlive:file_hash">5fcd5d54f6d5b5eaa555fefbc4648e84</property>
  <property name="global_feed">1</property>
 </producer>
 <producer id="41" title="Anonymous Submission" out="140" in="0">
  <property name="length">141</property>
  <property name="eof">pause</property>
  <property name="resource">videos/VID_20191029_102105.mp4</property>
  <property name="audio_index">0</property>
  <property name="video_index">1</property>
  <property name="mute_on_pause">1</property>
  <property name="mlt_service">avformat-novalidate</property>
  <property name="meta.media.nb_streams">2</property>
  <property name="meta.media.0.stream.type">audio</property>
  <property name="meta.media.0.codec.sample_fmt">fltp</property>
  <property name="meta.media.0.codec.sample_rate">48000</property>
  <property name="meta.media.0.codec.channels">2</property>
  <property name="meta.media.0.codec.name">aac</property>
  <property name="meta.media.0.codec.long_name">AAC (Advanced Audio Coding)</property>
  <property name="meta.media.0.codec.bit_rate">192086</property>
  <property name="meta.attr.0.stream.creation_time.markup">2019-10-29T09:21:05.000000Z</property>
  <property name="meta.attr.0.stream.language.markup">eng</property>
  <property name="meta.attr.0.stream.handler_name.markup">SoundHandle</property>
  <property name="meta.media.1.stream.type">video</property>
  <property name="meta.media.1.stream.frame_rate">30,01</property>
  <property name="meta.media.1.stream.sample_aspect_ratio">1</property>
  <property name="meta.media.1.codec.width">1920</property>
  <property name="meta.media.1.codec.height">1080</property>
  <property name="meta.media.1.codec.rotate">0</property>
  <property name="meta.media.1.codec.frame_rate">90000</property>
  <property name="meta.media.1.codec.pix_fmt">yuvj420p</property>
  <property name="meta.media.1.codec.sample_aspect_ratio">0</property>
  <property name="meta.media.1.codec.colorspace">601</property>
  <property name="meta.media.1.codec.color_trc">15</property>
  <property name="meta.media.1.codec.name">h264</property>
  <property name="meta.media.1.codec.long_name">H.264 / AVC / MPEG-4 AVC / MPEG-4 part 10</property>
  <property name="meta.media.1.codec.bit_rate">22409870</property>
  <property name="meta.attr.1.stream.creation_time.markup">2019-10-29T09:21:05.000000Z</property>
  <property name="meta.attr.1.stream.language.markup">eng</property>
  <property name="meta.attr.1.stream.handler_name.markup">VideoHandle</property>
  <property name="meta.attr.major_brand.markup">mp42</property>
  <property name="meta.attr.minor_version.markup">0</property>
  <property name="meta.attr.compatible_brands.markup">isommp42</property>
  <property name="meta.attr.creation_time.markup">2019-10-29T09:21:05.000000Z</property>
  <property name="meta.attr.location.markup">+36.7178-004.4103/</property>
  <property name="meta.attr.location-eng.markup">+36.7178-004.4103/</property>
  <property name="meta.attr.com.android.version.markup">10</property>
  <property name="seekable">1</property>
  <property name="meta.media.sample_aspect_num">1</property>
  <property name="meta.media.sample_aspect_den">1</property>
  <property name="aspect_ratio">1</property>
  <property name="kdenlive:folderid">1</property>
  <property name="meta.media.frame_rate_num">90000</property>
  <property name="meta.media.frame_rate_den">2999</property>
  <property name="meta.media.colorspace">601</property>
  <property name="meta.media.color_trc">15</property>
  <property name="meta.media.width">1920</property>
  <property name="meta.media.height">1080</property>
  <property name="meta.media.top_field_first">0</property>
  <property name="meta.media.progressive">1</property>
  <property name="kdenlive:file_size">15914066</property>
  <property name="kdenlive:file_hash">3139ec0f6eddef7db294ec74c1ef2cc7</property>
  <property name="global_feed">1</property>
 </producer>
 <producer id="42" title="Anonymous Submission" out="417" in="0">
  <property name="length">418</property>
  <property name="eof">pause</property>
  <property name="resource">videos/VID_20191029_102456.mp4</property>
  <property name="audio_index">0</property>
  <property name="video_index">1</property>
  <property name="mute_on_pause">1</property>
  <property name="mlt_service">avformat-novalidate</property>
  <property name="meta.media.nb_streams">2</property>
  <property name="meta.media.0.stream.type">audio</property>
  <property name="meta.media.0.codec.sample_fmt">fltp</property>
  <property name="meta.media.0.codec.sample_rate">48000</property>
  <property name="meta.media.0.codec.channels">2</property>
  <property name="meta.media.0.codec.name">aac</property>
  <property name="meta.media.0.codec.long_name">AAC (Advanced Audio Coding)</property>
  <property name="meta.media.0.codec.bit_rate">191534</property>
  <property name="meta.attr.0.stream.creation_time.markup">2019-10-29T09:24:56.000000Z</property>
  <property name="meta.attr.0.stream.language.markup">eng</property>
  <property name="meta.attr.0.stream.handler_name.markup">SoundHandle</property>
  <property name="meta.media.1.stream.type">video</property>
  <property name="meta.media.1.stream.frame_rate">36,4458</property>
  <property name="meta.media.1.stream.sample_aspect_ratio">1</property>
  <property name="meta.media.1.codec.width">1920</property>
  <property name="meta.media.1.codec.height">1080</property>
  <property name="meta.media.1.codec.rotate">0</property>
  <property name="meta.media.1.codec.frame_rate">90000</property>
  <property name="meta.media.1.codec.pix_fmt">yuvj420p</property>
  <property name="meta.media.1.codec.sample_aspect_ratio">0</property>
  <property name="meta.media.1.codec.colorspace">601</property>
  <property name="meta.media.1.codec.color_trc">15</property>
  <property name="meta.media.1.codec.name">h264</property>
  <property name="meta.media.1.codec.long_name">H.264 / AVC / MPEG-4 AVC / MPEG-4 part 10</property>
  <property name="meta.media.1.codec.bit_rate">24236691</property>
  <property name="meta.attr.1.stream.creation_time.markup">2019-10-29T09:24:56.000000Z</property>
  <property name="meta.attr.1.stream.language.markup">eng</property>
  <property name="meta.attr.1.stream.handler_name.markup">VideoHandle</property>
  <property name="meta.attr.major_brand.markup">mp42</property>
  <property name="meta.attr.minor_version.markup">0</property>
  <property name="meta.attr.compatible_brands.markup">isommp42</property>
  <property name="meta.attr.creation_time.markup">2019-10-29T09:24:56.000000Z</property>
  <property name="meta.attr.location.markup">+36.7180-004.4095/</property>
  <property name="meta.attr.location-eng.markup">+36.7180-004.4095/</property>
  <property name="meta.attr.com.android.version.markup">10</property>
  <property name="seekable">1</property>
  <property name="meta.media.sample_aspect_num">1</property>
  <property name="meta.media.sample_aspect_den">1</property>
  <property name="aspect_ratio">1</property>
  <property name="kdenlive:folderid">1</property>
  <property name="meta.media.frame_rate_num">27405000</property>
  <property name="meta.media.frame_rate_den">751939</property>
  <property name="meta.media.colorspace">601</property>
  <property name="meta.media.color_trc">15</property>
  <property name="meta.media.width">1920</property>
  <property name="meta.media.height">1080</property>
  <property name="meta.media.top_field_first">0</property>
  <property name="meta.media.progressive">1</property>
  <property name="kdenlive:file_size">51035282</property>
  <property name="kdenlive:file_hash">b61928aab38c1a3d8ddd2abfbd96ee59</property>
  <property name="global_feed">1</property>
 </producer>
 <producer id="43" title="Anonymous Submission" out="423" in="0">
  <property name="length">424</property>
  <property name="eof">pause</property>
  <property name="resource">videos/VID_20191029_102627.mp4</property>
  <property name="audio_index">0</property>
  <property name="video_index">1</property>
  <property name="mute_on_pause">1</property>
  <property name="mlt_service">avformat-novalidate</property>
  <property name="meta.media.nb_streams">2</property>
  <property name="meta.media.0.stream.type">audio</property>
  <property name="meta.media.0.codec.sample_fmt">fltp</property>
  <property name="meta.media.0.codec.sample_rate">48000</property>
  <property name="meta.media.0.codec.channels">2</property>
  <property name="meta.media.0.codec.name">aac</property>
  <property name="meta.media.0.codec.long_name">AAC (Advanced Audio Coding)</property>
  <property name="meta.media.0.codec.bit_rate">191869</property>
  <property name="meta.attr.0.stream.creation_time.markup">2019-10-29T09:26:27.000000Z</property>
  <property name="meta.attr.0.stream.language.markup">eng</property>
  <property name="meta.attr.0.stream.handler_name.markup">SoundHandle</property>
  <property name="meta.media.1.stream.type">video</property>
  <property name="meta.media.1.stream.frame_rate">42,2603</property>
  <property name="meta.media.1.stream.sample_aspect_ratio">1</property>
  <property name="meta.media.1.codec.width">1920</property>
  <property name="meta.media.1.codec.height">1080</property>
  <property name="meta.media.1.codec.rotate">0</property>
  <property name="meta.media.1.codec.frame_rate">90000</property>
  <property name="meta.media.1.codec.pix_fmt">yuvj420p</property>
  <property name="meta.media.1.codec.sample_aspect_ratio">0</property>
  <property name="meta.media.1.codec.colorspace">601</property>
  <property name="meta.media.1.codec.color_trc">15</property>
  <property name="meta.media.1.codec.name">h264</property>
  <property name="meta.media.1.codec.long_name">H.264 / AVC / MPEG-4 AVC / MPEG-4 part 10</property>
  <property name="meta.media.1.codec.bit_rate">26064175</property>
  <property name="meta.attr.1.stream.creation_time.markup">2019-10-29T09:26:27.000000Z</property>
  <property name="meta.attr.1.stream.language.markup">eng</property>
  <property name="meta.attr.1.stream.handler_name.markup">VideoHandle</property>
  <property name="meta.attr.major_brand.markup">mp42</property>
  <property name="meta.attr.minor_version.markup">0</property>
  <property name="meta.attr.compatible_brands.markup">isommp42</property>
  <property name="meta.attr.creation_time.markup">2019-10-29T09:26:27.000000Z</property>
  <property name="meta.attr.location.markup">+36.7172-004.4096/</property>
  <property name="meta.attr.location-eng.markup">+36.7172-004.4096/</property>
  <property name="meta.attr.com.android.version.markup">10</property>
  <property name="seekable">1</property>
  <property name="meta.media.sample_aspect_num">1</property>
  <property name="meta.media.sample_aspect_den">1</property>
  <property name="aspect_ratio">1</property>
  <property name="kdenlive:folderid">1</property>
  <property name="meta.media.frame_rate_num">21480000</property>
  <property name="meta.media.frame_rate_den">508279</property>
  <property name="meta.media.colorspace">601</property>
  <property name="meta.media.color_trc">15</property>
  <property name="meta.media.width">1920</property>
  <property name="meta.media.height">1080</property>
  <property name="meta.media.variable_frame_rate">1</property>
  <property name="meta.media.top_field_first">0</property>
  <property name="meta.media.progressive">1</property>
  <property name="kdenlive:file_size">55618348</property>
  <property name="kdenlive:file_hash">ae6425090bd123723e118a7505491695</property>
  <property name="global_feed">1</property>
 </producer>
 <producer id="44" title="Anonymous Submission" out="132" in="0">
  <property name="length">133</property>
  <property name="eof">pause</property>
  <property name="resource">videos/VID_20191029_110246.mp4</property>
  <property name="audio_index">0</property>
  <property name="video_index">1</property>
  <property name="mute_on_pause">1</property>
  <property name="mlt_service">avformat-novalidate</property>
  <property name="meta.media.nb_streams">2</property>
  <property name="meta.media.0.stream.type">audio</property>
  <property name="meta.media.0.codec.sample_fmt">fltp</property>
  <property name="meta.media.0.codec.sample_rate">48000</property>
  <property name="meta.media.0.codec.channels">2</property>
  <property name="meta.media.0.codec.name">aac</property>
  <property name="meta.media.0.codec.long_name">AAC (Advanced Audio Coding)</property>
  <property name="meta.media.0.codec.bit_rate">191643</property>
  <property name="meta.attr.0.stream.creation_time.markup">2019-10-29T10:02:46.000000Z</property>
  <property name="meta.attr.0.stream.language.markup">eng</property>
  <property name="meta.attr.0.stream.handler_name.markup">SoundHandle</property>
  <property name="meta.media.1.stream.type">video</property>
  <property name="meta.media.1.stream.frame_rate">32,2779</property>
  <property name="meta.media.1.stream.sample_aspect_ratio">1</property>
  <property name="meta.media.1.codec.width">1920</property>
  <property name="meta.media.1.codec.height">1080</property>
  <property name="meta.media.1.codec.rotate">0</property>
  <property name="meta.media.1.codec.frame_rate">90000</property>
  <property name="meta.media.1.codec.pix_fmt">yuvj420p</property>
  <property name="meta.media.1.codec.sample_aspect_ratio">0</property>
  <property name="meta.media.1.codec.colorspace">601</property>
  <property name="meta.media.1.codec.color_trc">15</property>
  <property name="meta.media.1.codec.name">h264</property>
  <property name="meta.media.1.codec.long_name">H.264 / AVC / MPEG-4 AVC / MPEG-4 part 10</property>
  <property name="meta.media.1.codec.bit_rate">23285043</property>
  <property name="meta.attr.1.stream.creation_time.markup">2019-10-29T10:02:46.000000Z</property>
  <property name="meta.attr.1.stream.language.markup">eng</property>
  <property name="meta.attr.1.stream.handler_name.markup">VideoHandle</property>
  <property name="meta.attr.major_brand.markup">mp42</property>
  <property name="meta.attr.minor_version.markup">0</property>
  <property name="meta.attr.compatible_brands.markup">isommp42</property>
  <property name="meta.attr.creation_time.markup">2019-10-29T10:02:46.000000Z</property>
  <property name="meta.attr.location.markup">+36.7189-004.4082/</property>
  <property name="meta.attr.location-eng.markup">+36.7189-004.4082/</property>
  <property name="meta.attr.com.android.version.markup">10</property>
  <property name="seekable">1</property>
  <property name="meta.media.sample_aspect_num">1</property>
  <property name="meta.media.sample_aspect_den">1</property>
  <property name="aspect_ratio">1</property>
  <property name="kdenlive:folderid">1</property>
  <property name="meta.media.frame_rate_num">15390000</property>
  <property name="meta.media.frame_rate_den">476797</property>
  <property name="meta.media.colorspace">601</property>
  <property name="meta.media.color_trc">15</property>
  <property name="meta.media.width">1920</property>
  <property name="meta.media.height">1080</property>
  <property name="meta.media.top_field_first">0</property>
  <property name="meta.media.progressive">1</property>
  <property name="kdenlive:file_size">15550283</property>
  <property name="kdenlive:file_hash">5765d0ce14feb1165ead1a599f3a57ce</property>
  <property name="global_feed">1</property>
 </producer>
 <producer id="45" title="Anonymous Submission" out="270" in="0">
  <property name="length">271</property>
  <property name="eof">pause</property>
  <property name="resource">videos/VID_20191029_121327.mp4</property>
  <property name="audio_index">0</property>
  <property name="video_index">1</property>
  <property name="mute_on_pause">1</property>
  <property name="mlt_service">avformat-novalidate</property>
  <property name="meta.media.nb_streams">2</property>
  <property name="meta.media.0.stream.type">audio</property>
  <property name="meta.media.0.codec.sample_fmt">fltp</property>
  <property name="meta.media.0.codec.sample_rate">48000</property>
  <property name="meta.media.0.codec.channels">2</property>
  <property name="meta.media.0.codec.name">aac</property>
  <property name="meta.media.0.codec.long_name">AAC (Advanced Audio Coding)</property>
  <property name="meta.media.0.codec.bit_rate">191459</property>
  <property name="meta.attr.0.stream.creation_time.markup">2019-10-29T11:13:27.000000Z</property>
  <property name="meta.attr.0.stream.language.markup">eng</property>
  <property name="meta.attr.0.stream.handler_name.markup">SoundHandle</property>
  <property name="meta.media.1.stream.type">video</property>
  <property name="meta.media.1.stream.frame_rate">41,2791</property>
  <property name="meta.media.1.stream.sample_aspect_ratio">1</property>
  <property name="meta.media.1.codec.width">1920</property>
  <property name="meta.media.1.codec.height">1080</property>
  <property name="meta.media.1.codec.rotate">0</property>
  <property name="meta.media.1.codec.frame_rate">90000</property>
  <property name="meta.media.1.codec.pix_fmt">yuvj420p</property>
  <property name="meta.media.1.codec.sample_aspect_ratio">0</property>
  <property name="meta.media.1.codec.colorspace">601</property>
  <property name="meta.media.1.codec.color_trc">15</property>
  <property name="meta.media.1.codec.name">h264</property>
  <property name="meta.media.1.codec.long_name">H.264 / AVC / MPEG-4 AVC / MPEG-4 part 10</property>
  <property name="meta.media.1.codec.bit_rate">26540226</property>
  <property name="meta.attr.1.stream.creation_time.markup">2019-10-29T11:13:27.000000Z</property>
  <property name="meta.attr.1.stream.language.markup">eng</property>
  <property name="meta.attr.1.stream.handler_name.markup">VideoHandle</property>
  <property name="meta.attr.major_brand.markup">mp42</property>
  <property name="meta.attr.minor_version.markup">0</property>
  <property name="meta.attr.compatible_brands.markup">isommp42</property>
  <property name="meta.attr.creation_time.markup">2019-10-29T11:13:27.000000Z</property>
  <property name="meta.attr.location.markup">+36.7184-004.4131/</property>
  <property name="meta.attr.location-eng.markup">+36.7184-004.4131/</property>
  <property name="meta.attr.com.android.version.markup">10</property>
  <property name="seekable">1</property>
  <property name="meta.media.sample_aspect_num">1</property>
  <property name="meta.media.sample_aspect_den">1</property>
  <property name="aspect_ratio">1</property>
  <property name="kdenlive:folderid">1</property>
  <property name="meta.media.frame_rate_num">8046000</property>
  <property name="meta.media.frame_rate_den">194917</property>
  <property name="meta.media.colorspace">601</property>
  <property name="meta.media.color_trc">15</property>
  <property name="meta.media.width">1920</property>
  <property name="meta.media.height">1080</property>
  <property name="meta.media.top_field_first">0</property>
  <property name="meta.media.progressive">1</property>
  <property name="kdenlive:file_size">36193348</property>
  <property name="kdenlive:file_hash">b34ea1b55a7a2192e08d65aad7a42883</property>
  <property name="global_feed">1</property>
 </producer>
 <producer id="46" title="Anonymous Submission" out="226" in="0">
  <property name="length">227</property>
  <property name="eof">pause</property>
  <property name="resource">videos/VID_20191029_121345.mp4</property>
  <property name="audio_index">0</property>
  <property name="video_index">1</property>
  <property name="mute_on_pause">1</property>
  <property name="mlt_service">avformat-novalidate</property>
  <property name="meta.media.nb_streams">2</property>
  <property name="meta.media.0.stream.type">audio</property>
  <property name="meta.media.0.codec.sample_fmt">fltp</property>
  <property name="meta.media.0.codec.sample_rate">48000</property>
  <property name="meta.media.0.codec.channels">2</property>
  <property name="meta.media.0.codec.name">aac</property>
  <property name="meta.media.0.codec.long_name">AAC (Advanced Audio Coding)</property>
  <property name="meta.media.0.codec.bit_rate">191938</property>
  <property name="meta.attr.0.stream.creation_time.markup">2019-10-29T11:13:45.000000Z</property>
  <property name="meta.attr.0.stream.language.markup">eng</property>
  <property name="meta.attr.0.stream.handler_name.markup">SoundHandle</property>
  <property name="meta.media.1.stream.type">video</property>
  <property name="meta.media.1.stream.frame_rate">30,012</property>
  <property name="meta.media.1.stream.sample_aspect_ratio">1</property>
  <property name="meta.media.1.codec.width">1920</property>
  <property name="meta.media.1.codec.height">1080</property>
  <property name="meta.media.1.codec.rotate">0</property>
  <property name="meta.media.1.codec.frame_rate">90000</property>
  <property name="meta.media.1.codec.pix_fmt">yuvj420p</property>
  <property name="meta.media.1.codec.sample_aspect_ratio">0</property>
  <property name="meta.media.1.codec.colorspace">601</property>
  <property name="meta.media.1.codec.color_trc">15</property>
  <property name="meta.media.1.codec.name">h264</property>
  <property name="meta.media.1.codec.long_name">H.264 / AVC / MPEG-4 AVC / MPEG-4 part 10</property>
  <property name="meta.media.1.codec.bit_rate">22460337</property>
  <property name="meta.attr.1.stream.creation_time.markup">2019-10-29T11:13:45.000000Z</property>
  <property name="meta.attr.1.stream.language.markup">eng</property>
  <property name="meta.attr.1.stream.handler_name.markup">VideoHandle</property>
  <property name="meta.attr.major_brand.markup">mp42</property>
  <property name="meta.attr.minor_version.markup">0</property>
  <property name="meta.attr.compatible_brands.markup">isommp42</property>
  <property name="meta.attr.creation_time.markup">2019-10-29T11:13:45.000000Z</property>
  <property name="meta.attr.location.markup">+36.7178-004.4130/</property>
  <property name="meta.attr.location-eng.markup">+36.7178-004.4130/</property>
  <property name="meta.attr.com.android.version.markup">10</property>
  <property name="seekable">1</property>
  <property name="meta.media.sample_aspect_num">1</property>
  <property name="meta.media.sample_aspect_den">1</property>
  <property name="aspect_ratio">1</property>
  <property name="kdenlive:folderid">1</property>
  <property name="meta.media.frame_rate_num">12240000</property>
  <property name="meta.media.frame_rate_den">407837</property>
  <property name="meta.media.colorspace">601</property>
  <property name="meta.media.color_trc">15</property>
  <property name="meta.media.width">1920</property>
  <property name="meta.media.height">1080</property>
  <property name="meta.media.top_field_first">0</property>
  <property name="meta.media.progressive">1</property>
  <property name="kdenlive:file_size">25670079</property>
  <property name="kdenlive:file_hash">44d26f9373bab8d16dda22a74bc3493a</property>
  <property name="global_feed">1</property>
 </producer>
 <producer id="47" title="Anonymous Submission" out="217" in="0">
  <property name="length">218</property>
  <property name="eof">pause</property>
  <property name="resource">videos/VID_20191029_121412.mp4</property>
  <property name="audio_index">0</property>
  <property name="video_index">1</property>
  <property name="mute_on_pause">1</property>
  <property name="mlt_service">avformat-novalidate</property>
  <property name="meta.media.nb_streams">2</property>
  <property name="meta.media.0.stream.type">audio</property>
  <property name="meta.media.0.codec.sample_fmt">fltp</property>
  <property name="meta.media.0.codec.sample_rate">48000</property>
  <property name="meta.media.0.codec.channels">2</property>
  <property name="meta.media.0.codec.name">aac</property>
  <property name="meta.media.0.codec.long_name">AAC (Advanced Audio Coding)</property>
  <property name="meta.media.0.codec.bit_rate">191293</property>
  <property name="meta.attr.0.stream.creation_time.markup">2019-10-29T11:14:12.000000Z</property>
  <property name="meta.attr.0.stream.language.markup">eng</property>
  <property name="meta.attr.0.stream.handler_name.markup">SoundHandle</property>
  <property name="meta.media.1.stream.type">video</property>
  <property name="meta.media.1.stream.frame_rate">41,6951</property>
  <property name="meta.media.1.stream.sample_aspect_ratio">1</property>
  <property name="meta.media.1.codec.width">1920</property>
  <property name="meta.media.1.codec.height">1080</property>
  <property name="meta.media.1.codec.rotate">0</property>
  <property name="meta.media.1.codec.frame_rate">90000</property>
  <property name="meta.media.1.codec.pix_fmt">yuvj420p</property>
  <property name="meta.media.1.codec.sample_aspect_ratio">0</property>
  <property name="meta.media.1.codec.colorspace">601</property>
  <property name="meta.media.1.codec.color_trc">15</property>
  <property name="meta.media.1.codec.name">h264</property>
  <property name="meta.media.1.codec.long_name">H.264 / AVC / MPEG-4 AVC / MPEG-4 part 10</property>
  <property name="meta.media.1.codec.bit_rate">26524675</property>
  <property name="meta.attr.1.stream.creation_time.markup">2019-10-29T11:14:12.000000Z</property>
  <property name="meta.attr.1.stream.language.markup">eng</property>
  <property name="meta.attr.1.stream.handler_name.markup">VideoHandle</property>
  <property name="meta.attr.major_brand.markup">mp42</property>
  <property name="meta.attr.minor_version.markup">0</property>
  <property name="meta.attr.compatible_brands.markup">isommp42</property>
  <property name="meta.attr.creation_time.markup">2019-10-29T11:14:12.000000Z</property>
  <property name="meta.attr.location.markup">+36.7178-004.4130/</property>
  <property name="meta.attr.location-eng.markup">+36.7178-004.4130/</property>
  <property name="meta.attr.com.android.version.markup">10</property>
  <property name="seekable">1</property>
  <property name="meta.media.sample_aspect_num">1</property>
  <property name="meta.media.sample_aspect_den">1</property>
  <property name="aspect_ratio">1</property>
  <property name="kdenlive:folderid">1</property>
  <property name="meta.media.frame_rate_num">4095000</property>
  <property name="meta.media.frame_rate_den">98213</property>
  <property name="meta.media.colorspace">601</property>
  <property name="meta.media.color_trc">15</property>
  <property name="meta.media.width">1920</property>
  <property name="meta.media.height">1080</property>
  <property name="meta.media.top_field_first">0</property>
  <property name="meta.media.progressive">1</property>
  <property name="kdenlive:file_size">29162428</property>
  <property name="kdenlive:file_hash">4a4545d0875a7d93c1c8570b83191cd7</property>
  <property name="global_feed">1</property>
 </producer>
 <producer id="48" title="Anonymous Submission" out="783" in="0">
  <property name="length">784</property>
  <property name="eof">pause</property>
  <property name="resource">videos/VID_20191029_121649.mp4</property>
  <property name="audio_index">0</property>
  <property name="video_index">1</property>
  <property name="mute_on_pause">1</property>
  <property name="mlt_service">avformat-novalidate</property>
  <property name="meta.media.nb_streams">2</property>
  <property name="meta.media.0.stream.type">audio</property>
  <property name="meta.media.0.codec.sample_fmt">fltp</property>
  <property name="meta.media.0.codec.sample_rate">48000</property>
  <property name="meta.media.0.codec.channels">2</property>
  <property name="meta.media.0.codec.name">aac</property>
  <property name="meta.media.0.codec.long_name">AAC (Advanced Audio Coding)</property>
  <property name="meta.media.0.codec.bit_rate">191805</property>
  <property name="meta.attr.0.stream.creation_time.markup">2019-10-29T11:16:49.000000Z</property>
  <property name="meta.attr.0.stream.language.markup">eng</property>
  <property name="meta.attr.0.stream.handler_name.markup">SoundHandle</property>
  <property name="meta.media.1.stream.type">video</property>
  <property name="meta.media.1.stream.frame_rate">33,4876</property>
  <property name="meta.media.1.stream.sample_aspect_ratio">1</property>
  <property name="meta.media.1.codec.width">1920</property>
  <property name="meta.media.1.codec.height">1080</property>
  <property name="meta.media.1.codec.rotate">0</property>
  <property name="meta.media.1.codec.frame_rate">90000</property>
  <property name="meta.media.1.codec.pix_fmt">yuvj420p</property>
  <property name="meta.media.1.codec.sample_aspect_ratio">0</property>
  <property name="meta.media.1.codec.colorspace">601</property>
  <property name="meta.media.1.codec.color_trc">15</property>
  <property name="meta.media.1.codec.name">h264</property>
  <property name="meta.media.1.codec.long_name">H.264 / AVC / MPEG-4 AVC / MPEG-4 part 10</property>
  <property name="meta.media.1.codec.bit_rate">23231227</property>
  <property name="meta.attr.1.stream.creation_time.markup">2019-10-29T11:16:49.000000Z</property>
  <property name="meta.attr.1.stream.language.markup">eng</property>
  <property name="meta.attr.1.stream.handler_name.markup">VideoHandle</property>
  <property name="meta.attr.major_brand.markup">mp42</property>
  <property name="meta.attr.minor_version.markup">0</property>
  <property name="meta.attr.compatible_brands.markup">isommp42</property>
  <property name="meta.attr.creation_time.markup">2019-10-29T11:16:49.000000Z</property>
  <property name="meta.attr.location.markup">+36.7187-004.4140/</property>
  <property name="meta.attr.location-eng.markup">+36.7187-004.4140/</property>
  <property name="meta.attr.com.android.version.markup">10</property>
  <property name="seekable">1</property>
  <property name="meta.media.sample_aspect_num">1</property>
  <property name="meta.media.sample_aspect_den">1</property>
  <property name="aspect_ratio">1</property>
  <property name="kdenlive:folderid">1</property>
  <property name="meta.media.frame_rate_num">10500000</property>
  <property name="meta.media.frame_rate_den">313549</property>
  <property name="meta.media.colorspace">601</property>
  <property name="meta.media.color_trc">15</property>
  <property name="meta.media.width">1920</property>
  <property name="meta.media.height">1080</property>
  <property name="meta.media.top_field_first">0</property>
  <property name="meta.media.progressive">1</property>
  <property name="kdenlive:file_size">91819513</property>
  <property name="kdenlive:file_hash">52361e8e11c63a093996c269fa463b61</property>
  <property name="global_feed">1</property>
 </producer>
 <producer id="49" title="Anonymous Submission" out="313" in="0">
  <property name="length">314</property>
  <property name="eof">pause</property>
  <property name="resource">videos/VID_20191029_122653.mp4</property>
  <property name="audio_index">0</property>
  <property name="video_index">1</property>
  <property name="mute_on_pause">1</property>
  <property name="mlt_service">avformat-novalidate</property>
  <property name="meta.media.nb_streams">2</property>
  <property name="meta.media.0.stream.type">audio</property>
  <property name="meta.media.0.codec.sample_fmt">fltp</property>
  <property name="meta.media.0.codec.sample_rate">48000</property>
  <property name="meta.media.0.codec.channels">2</property>
  <property name="meta.media.0.codec.name">aac</property>
  <property name="meta.media.0.codec.long_name">AAC (Advanced Audio Coding)</property>
  <property name="meta.media.0.codec.bit_rate">191555</property>
  <property name="meta.attr.0.stream.creation_time.markup">2019-10-29T11:26:53.000000Z</property>
  <property name="meta.attr.0.stream.language.markup">eng</property>
  <property name="meta.attr.0.stream.handler_name.markup">SoundHandle</property>
  <property name="meta.media.1.stream.type">video</property>
  <property name="meta.media.1.stream.frame_rate">38,6383</property>
  <property name="meta.media.1.stream.sample_aspect_ratio">1</property>
  <property name="meta.media.1.codec.width">1920</property>
  <property name="meta.media.1.codec.height">1080</property>
  <property name="meta.media.1.codec.rotate">0</property>
  <property name="meta.media.1.codec.frame_rate">90000</property>
  <property name="meta.media.1.codec.pix_fmt">yuvj420p</property>
  <property name="meta.media.1.codec.sample_aspect_ratio">0</property>
  <property name="meta.media.1.codec.colorspace">601</property>
  <property name="meta.media.1.codec.color_trc">15</property>
  <property name="meta.media.1.codec.name">h264</property>
  <property name="meta.media.1.codec.long_name">H.264 / AVC / MPEG-4 AVC / MPEG-4 part 10</property>
  <property name="meta.media.1.codec.bit_rate">25056400</property>
  <property name="meta.attr.1.stream.creation_time.markup">2019-10-29T11:26:53.000000Z</property>
  <property name="meta.attr.1.stream.language.markup">eng</property>
  <property name="meta.attr.1.stream.handler_name.markup">VideoHandle</property>
  <property name="meta.attr.major_brand.markup">mp42</property>
  <property name="meta.attr.minor_version.markup">0</property>
  <property name="meta.attr.compatible_brands.markup">isommp42</property>
  <property name="meta.attr.creation_time.markup">2019-10-29T11:26:53.000000Z</property>
  <property name="meta.attr.location.markup">+36.7180-004.4202/</property>
  <property name="meta.attr.location-eng.markup">+36.7180-004.4202/</property>
  <property name="meta.attr.com.android.version.markup">10</property>
  <property name="seekable">1</property>
  <property name="meta.media.sample_aspect_num">1</property>
  <property name="meta.media.sample_aspect_den">1</property>
  <property name="aspect_ratio">1</property>
  <property name="kdenlive:folderid">1</property>
  <property name="meta.media.frame_rate_num">2430000</property>
  <property name="meta.media.frame_rate_den">62891</property>
  <property name="meta.media.colorspace">601</property>
  <property name="meta.media.color_trc">15</property>
  <property name="meta.media.width">1920</property>
  <property name="meta.media.height">1080</property>
  <property name="meta.media.top_field_first">0</property>
  <property name="meta.media.progressive">1</property>
  <property name="kdenlive:file_size">39705754</property>
  <property name="kdenlive:file_hash">8fa8f893a32b703f315e65e173be8f13</property>
  <property name="global_feed">1</property>
 </producer>
 <producer id="50" title="Anonymous Submission" out="179" in="0">
  <property name="length">180</property>
  <property name="eof">pause</property>
  <property name="resource">videos/VID_20191029_122719.mp4</property>
  <property name="audio_index">0</property>
  <property name="video_index">1</property>
  <property name="mute_on_pause">1</property>
  <property name="mlt_service">avformat-novalidate</property>
  <property name="meta.media.nb_streams">2</property>
  <property name="meta.media.0.stream.type">audio</property>
  <property name="meta.media.0.codec.sample_fmt">fltp</property>
  <property name="meta.media.0.codec.sample_rate">48000</property>
  <property name="meta.media.0.codec.channels">2</property>
  <property name="meta.media.0.codec.name">aac</property>
  <property name="meta.media.0.codec.long_name">AAC (Advanced Audio Coding)</property>
  <property name="meta.media.0.codec.bit_rate">191542</property>
  <property name="meta.attr.0.stream.creation_time.markup">2019-10-29T11:27:19.000000Z</property>
  <property name="meta.attr.0.stream.language.markup">eng</property>
  <property name="meta.attr.0.stream.handler_name.markup">SoundHandle</property>
  <property name="meta.media.1.stream.type">video</property>
  <property name="meta.media.1.stream.frame_rate">30,0117</property>
  <property name="meta.media.1.stream.sample_aspect_ratio">1</property>
  <property name="meta.media.1.codec.width">1920</property>
  <property name="meta.media.1.codec.height">1080</property>
  <property name="meta.media.1.codec.rotate">0</property>
  <property name="meta.media.1.codec.frame_rate">90000</property>
  <property name="meta.media.1.codec.pix_fmt">yuvj420p</property>
  <property name="meta.media.1.codec.sample_aspect_ratio">0</property>
  <property name="meta.media.1.codec.colorspace">601</property>
  <property name="meta.media.1.codec.color_trc">15</property>
  <property name="meta.media.1.codec.name">h264</property>
  <property name="meta.media.1.codec.long_name">H.264 / AVC / MPEG-4 AVC / MPEG-4 part 10</property>
  <property name="meta.media.1.codec.bit_rate">22351181</property>
  <property name="meta.attr.1.stream.creation_time.markup">2019-10-29T11:27:19.000000Z</property>
  <property name="meta.attr.1.stream.language.markup">eng</property>
  <property name="meta.attr.1.stream.handler_name.markup">VideoHandle</property>
  <property name="meta.attr.major_brand.markup">mp42</property>
  <property name="meta.attr.minor_version.markup">0</property>
  <property name="meta.attr.compatible_brands.markup">isommp42</property>
  <property name="meta.attr.creation_time.markup">2019-10-29T11:27:19.000000Z</property>
  <property name="meta.attr.location.markup">+36.7180-004.4202/</property>
  <property name="meta.attr.location-eng.markup">+36.7180-004.4202/</property>
  <property name="meta.attr.com.android.version.markup">10</property>
  <property name="seekable">1</property>
  <property name="meta.media.sample_aspect_num">1</property>
  <property name="meta.media.sample_aspect_den">1</property>
  <property name="aspect_ratio">1</property>
  <property name="kdenlive:folderid">1</property>
  <property name="meta.media.frame_rate_num">540000</property>
  <property name="meta.media.frame_rate_den">17993</property>
  <property name="meta.media.colorspace">601</property>
  <property name="meta.media.color_trc">15</property>
  <property name="meta.media.width">1920</property>
  <property name="meta.media.height">1080</property>
  <property name="meta.media.top_field_first">0</property>
  <property name="meta.media.progressive">1</property>
  <property name="kdenlive:file_size">20287600</property>
  <property name="kdenlive:file_hash">4840518362a1add37a1fc53344bfc0b4</property>
  <property name="global_feed">1</property>
 </producer>
 <producer id="51" title="Anonymous Submission" out="4886" in="0">
  <property name="length">4887</property>
  <property name="eof">pause</property>
  <property name="resource">/opt/vlog/musica/ikson/Ikson - To You (Official).wav</property>
  <property name="audio_index">0</property>
  <property name="video_index">-1</property>
  <property name="mute_on_pause">1</property>
  <property name="mlt_service">avformat-novalidate</property>
  <property name="meta.media.nb_streams">1</property>
  <property name="meta.media.0.stream.type">audio</property>
  <property name="meta.media.0.codec.sample_fmt">s16</property>
  <property name="meta.media.0.codec.sample_rate">44100</property>
  <property name="meta.media.0.codec.channels">2</property>
  <property name="meta.media.0.codec.name">pcm_s16le</property>
  <property name="meta.media.0.codec.long_name">PCM signed 16-bit little-endian</property>
  <property name="meta.media.0.codec.bit_rate">1411200</property>
  <property name="meta.attr.encoder.markup">FL Studio 20</property>
  <property name="seekable">1</property>
  <property name="kdenlive:folderid">2</property>
  <property name="kdenlive:file_size">34479982</property>
  <property name="kdenlive:file_hash">bf6534ae03238030094d11cfc877b837</property>
  <property name="global_feed">1</property>
 </producer>
 <producer id="52" out="5463" in="0">
  <property name="length">5464</property>
  <property name="eof">pause</property>
  <property name="resource">/opt/vlog/musica/ikson/Ikson - Dont Worry (Future Bass).wav</property>
  <property name="audio_index">0</property>
  <property name="video_index">-1</property>
  <property name="mute_on_pause">1</property>
  <property name="mlt_service">avformat-novalidate</property>
  <property name="meta.media.nb_streams">1</property>
  <property name="meta.media.0.stream.type">audio</property>
  <property name="meta.media.0.codec.sample_fmt">s16</property>
  <property name="meta.media.0.codec.sample_rate">44100</property>
  <property name="meta.media.0.codec.channels">2</property>
  <property name="meta.media.0.codec.name">pcm_s16le</property>
  <property name="meta.media.0.codec.long_name">PCM signed 16-bit little-endian</property>
  <property name="meta.media.0.codec.bit_rate">1411200</property>
  <property name="meta.attr.encoder.markup">FL Studio 20</property>
  <property name="seekable">1</property>
  <property name="kdenlive:folderid">2</property>
  <property name="kdenlive:file_size">38556146</property>
  <property name="kdenlive:file_hash">19bfe38bc31d88ff64154edd69f50dad</property>
 </producer>
 <producer id="53" title="Anonymous Submission" out="5775" in="0">
  <property name="length">5776</property>
  <property name="eof">pause</property>
  <property name="resource">/opt/vlog/musica/ikson/Ikson - Paradise.wav</property>
  <property name="audio_index">0</property>
  <property name="video_index">-1</property>
  <property name="mute_on_pause">1</property>
  <property name="mlt_service">avformat-novalidate</property>
  <property name="meta.media.nb_streams">1</property>
  <property name="meta.media.0.stream.type">audio</property>
  <property name="meta.media.0.codec.sample_fmt">s16</property>
  <property name="meta.media.0.codec.sample_rate">44100</property>
  <property name="meta.media.0.codec.channels">2</property>
  <property name="meta.media.0.codec.name">pcm_s16le</property>
  <property name="meta.media.0.codec.long_name">PCM signed 16-bit little-endian</property>
  <property name="meta.media.0.codec.bit_rate">1411200</property>
  <property name="meta.attr.encoder.markup">FL Studio 12</property>
  <property name="seekable">1</property>
  <property name="kdenlive:folderid">2</property>
  <property name="kdenlive:file_size">40754114</property>
  <property name="kdenlive:file_hash">457aaa45cc5b007bc3a24b69eb6acf23</property>
  <property name="global_feed">1</property>
 </producer>
 <producer id="54" title="Anonymous Submission" out="149" in="0">
  <property name="length">612</property>
  <property name="eof">pause</property>
  <property name="resource"/>
  <property name="progressive">1</property>
  <property name="aspect_ratio">1</property>
  <property name="seekable">1</property>
  <property name="mlt_service">kdenlivetitle</property>
  <property name="kdenlive:folderid">3</property>
  <property name="kdenlive:duration">150</property>
  <property name="force_reload">0</property>
  <property name="kdenlive:file_hash">90a5d3434ccf2865c6badc92476479ce</property>
  <property name="xmldata">&lt;kdenlivetitle width="1920" duration="150" out="150" height="1080" LC_NUMERIC="de_DE.UTF-8">
 &lt;item z-index="3" type="QGraphicsTextItem">
  &lt;position x="0" y="943">
   &lt;transform>1,0,0,0,1,0,0,0,1&lt;/transform>
  &lt;/position>
  &lt;content font-italic="0" letter-spacing="0" font-weight="75" box-height="73" font-outline-color="0,0,0,255" shadow="0;#64000000;3;3;3" font="Carlito" font-underline="0" font-outline="2.1" font-pixel-size="60" box-width="916.297" font-color="255,255,255,255" alignment="1"> Continuará con la parte del torneo...&lt;/content>
 &lt;/item>
 &lt;item z-index="2" type="QGraphicsTextItem">
  &lt;position x="407" y="105">
   &lt;transform>1,0,0,0,1,0,0,0,1&lt;/transform>
  &lt;/position>
  &lt;content font-italic="0" letter-spacing="0" font-weight="75" box-height="183" font-outline-color="0,0,0,255" shadow="1;#ff000000;99;0;0" font="Carlito" font-underline="0" font-outline="2.1" font-pixel-size="150" line-spacing="0" box-width="1106.22" font-color="255,255,255,255" alignment="4">Thunder Guanaco&lt;/content>
 &lt;/item>
 &lt;startviewport rect="0,0,1920,1080"/>
 &lt;endviewport rect="0,0,1920,1080"/>
 &lt;background color="0,0,0,0"/>
&lt;/kdenlivetitle>
</property>
  <property name="global_feed">1</property>
  <property name="meta.media.width">1920</property>
  <property name="meta.media.height">1080</property>
 </producer>
 <producer id="55" out="1071" in="0">
  <property name="length">1072</property>
  <property name="eof">pause</property>
  <property name="resource">videos/VID_20191031_100011.mp4</property>
  <property name="audio_index">0</property>
  <property name="video_index">1</property>
  <property name="mute_on_pause">1</property>
  <property name="mlt_service">avformat-novalidate</property>
  <property name="meta.media.nb_streams">2</property>
  <property name="meta.media.0.stream.type">audio</property>
  <property name="meta.media.0.codec.sample_fmt">fltp</property>
  <property name="meta.media.0.codec.sample_rate">48000</property>
  <property name="meta.media.0.codec.channels">2</property>
  <property name="meta.media.0.codec.name">aac</property>
  <property name="meta.media.0.codec.long_name">AAC (Advanced Audio Coding)</property>
  <property name="meta.media.0.codec.bit_rate">191988</property>
  <property name="meta.attr.0.stream.creation_time.markup">2019-10-31T09:00:11.000000Z</property>
  <property name="meta.attr.0.stream.language.markup">eng</property>
  <property name="meta.attr.0.stream.handler_name.markup">SoundHandle</property>
  <property name="meta.media.1.stream.type">video</property>
  <property name="meta.media.1.stream.frame_rate">29,9761</property>
  <property name="meta.media.1.stream.sample_aspect_ratio">1</property>
  <property name="meta.media.1.codec.width">1920</property>
  <property name="meta.media.1.codec.height">1080</property>
  <property name="meta.media.1.codec.rotate">0</property>
  <property name="meta.media.1.codec.frame_rate">90000</property>
  <property name="meta.media.1.codec.pix_fmt">yuvj420p</property>
  <property name="meta.media.1.codec.sample_aspect_ratio">0</property>
  <property name="meta.media.1.codec.colorspace">601</property>
  <property name="meta.media.1.codec.color_trc">15</property>
  <property name="meta.media.1.codec.name">h264</property>
  <property name="meta.media.1.codec.long_name">H.264 / AVC / MPEG-4 AVC / MPEG-4 part 10</property>
  <property name="meta.media.1.codec.bit_rate">22020969</property>
  <property name="meta.attr.1.stream.creation_time.markup">2019-10-31T09:00:11.000000Z</property>
  <property name="meta.attr.1.stream.language.markup">eng</property>
  <property name="meta.attr.1.stream.handler_name.markup">VideoHandle</property>
  <property name="meta.attr.major_brand.markup">mp42</property>
  <property name="meta.attr.minor_version.markup">0</property>
  <property name="meta.attr.compatible_brands.markup">isommp42</property>
  <property name="meta.attr.creation_time.markup">2019-10-31T09:00:11.000000Z</property>
  <property name="meta.attr.location.markup">+36.7218-004.4354/</property>
  <property name="meta.attr.location-eng.markup">+36.7218-004.4354/</property>
  <property name="meta.attr.com.android.version.markup">10</property>
  <property name="seekable">1</property>
  <property name="meta.media.sample_aspect_num">1</property>
  <property name="meta.media.sample_aspect_den">1</property>
  <property name="aspect_ratio">1</property>
  <property name="kdenlive:folderid">1</property>
  <property name="meta.media.frame_rate_num">115650000</property>
  <property name="meta.media.frame_rate_den">3858079</property>
  <property name="meta.media.colorspace">601</property>
  <property name="meta.media.color_trc">15</property>
  <property name="meta.media.width">1920</property>
  <property name="meta.media.height">1080</property>
  <property name="meta.media.top_field_first">0</property>
  <property name="meta.media.progressive">1</property>
  <property name="kdenlive:file_size">119046228</property>
  <property name="kdenlive:file_hash">cf91ae1057fffcfccaf7d48f8d258373</property>
 </producer>
 <producer id="56" out="982" in="0">
  <property name="length">983</property>
  <property name="eof">pause</property>
  <property name="resource">videos/VID_20191031_103813.mp4</property>
  <property name="audio_index">0</property>
  <property name="video_index">1</property>
  <property name="mute_on_pause">1</property>
  <property name="mlt_service">avformat-novalidate</property>
  <property name="meta.media.nb_streams">2</property>
  <property name="meta.media.0.stream.type">audio</property>
  <property name="meta.media.0.codec.sample_fmt">fltp</property>
  <property name="meta.media.0.codec.sample_rate">48000</property>
  <property name="meta.media.0.codec.channels">2</property>
  <property name="meta.media.0.codec.name">aac</property>
  <property name="meta.media.0.codec.long_name">AAC (Advanced Audio Coding)</property>
  <property name="meta.media.0.codec.bit_rate">191928</property>
  <property name="meta.attr.0.stream.creation_time.markup">2019-10-31T09:38:13.000000Z</property>
  <property name="meta.attr.0.stream.language.markup">eng</property>
  <property name="meta.attr.0.stream.handler_name.markup">SoundHandle</property>
  <property name="meta.media.1.stream.type">video</property>
  <property name="meta.media.1.stream.frame_rate">29,4435</property>
  <property name="meta.media.1.stream.sample_aspect_ratio">1</property>
  <property name="meta.media.1.codec.width">1920</property>
  <property name="meta.media.1.codec.height">1080</property>
  <property name="meta.media.1.codec.rotate">0</property>
  <property name="meta.media.1.codec.frame_rate">90000</property>
  <property name="meta.media.1.codec.pix_fmt">yuvj420p</property>
  <property name="meta.media.1.codec.sample_aspect_ratio">0</property>
  <property name="meta.media.1.codec.colorspace">601</property>
  <property name="meta.media.1.codec.color_trc">15</property>
  <property name="meta.media.1.codec.name">h264</property>
  <property name="meta.media.1.codec.long_name">H.264 / AVC / MPEG-4 AVC / MPEG-4 part 10</property>
  <property name="meta.media.1.codec.bit_rate">21983267</property>
  <property name="meta.attr.1.stream.creation_time.markup">2019-10-31T09:38:13.000000Z</property>
  <property name="meta.attr.1.stream.language.markup">eng</property>
  <property name="meta.attr.1.stream.handler_name.markup">VideoHandle</property>
  <property name="meta.attr.major_brand.markup">mp42</property>
  <property name="meta.attr.minor_version.markup">0</property>
  <property name="meta.attr.compatible_brands.markup">isommp42</property>
  <property name="meta.attr.creation_time.markup">2019-10-31T09:38:13.000000Z</property>
  <property name="meta.attr.location.markup">+36.5821-004.6125/</property>
  <property name="meta.attr.location-eng.markup">+36.5821-004.6125/</property>
  <property name="meta.attr.com.android.version.markup">10</property>
  <property name="seekable">1</property>
  <property name="meta.media.sample_aspect_num">1</property>
  <property name="meta.media.sample_aspect_den">1</property>
  <property name="aspect_ratio">1</property>
  <property name="kdenlive:folderid">1</property>
  <property name="meta.media.frame_rate_num">104130000</property>
  <property name="meta.media.frame_rate_den">3536599</property>
  <property name="meta.media.colorspace">601</property>
  <property name="meta.media.color_trc">15</property>
  <property name="meta.media.width">1920</property>
  <property name="meta.media.height">1080</property>
  <property name="meta.media.top_field_first">0</property>
  <property name="meta.media.progressive">1</property>
  <property name="kdenlive:file_size">108942075</property>
  <property name="kdenlive:file_hash">bd55f9059d05c468cafa7179feb4cf1f</property>
 </producer>
 <producer id="57" out="1628" in="0">
  <property name="length">1629</property>
  <property name="eof">pause</property>
  <property name="resource">videos/VID_20191031_104116.mp4</property>
  <property name="audio_index">0</property>
  <property name="video_index">1</property>
  <property name="mute_on_pause">1</property>
  <property name="mlt_service">avformat-novalidate</property>
  <property name="meta.media.nb_streams">2</property>
  <property name="meta.media.0.stream.type">audio</property>
  <property name="meta.media.0.codec.sample_fmt">fltp</property>
  <property name="meta.media.0.codec.sample_rate">48000</property>
  <property name="meta.media.0.codec.channels">2</property>
  <property name="meta.media.0.codec.name">aac</property>
  <property name="meta.media.0.codec.long_name">AAC (Advanced Audio Coding)</property>
  <property name="meta.media.0.codec.bit_rate">191845</property>
  <property name="meta.attr.0.stream.creation_time.markup">2019-10-31T09:41:16.000000Z</property>
  <property name="meta.attr.0.stream.language.markup">eng</property>
  <property name="meta.attr.0.stream.handler_name.markup">SoundHandle</property>
  <property name="meta.media.1.stream.type">video</property>
  <property name="meta.media.1.stream.frame_rate">30,1578</property>
  <property name="meta.media.1.stream.sample_aspect_ratio">1</property>
  <property name="meta.media.1.codec.width">1920</property>
  <property name="meta.media.1.codec.height">1080</property>
  <property name="meta.media.1.codec.rotate">0</property>
  <property name="meta.media.1.codec.frame_rate">90000</property>
  <property name="meta.media.1.codec.pix_fmt">yuvj420p</property>
  <property name="meta.media.1.codec.sample_aspect_ratio">0</property>
  <property name="meta.media.1.codec.colorspace">601</property>
  <property name="meta.media.1.codec.color_trc">15</property>
  <property name="meta.media.1.codec.name">h264</property>
  <property name="meta.media.1.codec.long_name">H.264 / AVC / MPEG-4 AVC / MPEG-4 part 10</property>
  <property name="meta.media.1.codec.bit_rate">22106973</property>
  <property name="meta.attr.1.stream.creation_time.markup">2019-10-31T09:41:16.000000Z</property>
  <property name="meta.attr.1.stream.language.markup">eng</property>
  <property name="meta.attr.1.stream.handler_name.markup">VideoHandle</property>
  <property name="meta.attr.major_brand.markup">mp42</property>
  <property name="meta.attr.minor_version.markup">0</property>
  <property name="meta.attr.compatible_brands.markup">isommp42</property>
  <property name="meta.attr.creation_time.markup">2019-10-31T09:41:16.000000Z</property>
  <property name="meta.attr.location.markup">+36.5819-004.6124/</property>
  <property name="meta.attr.location-eng.markup">+36.5819-004.6124/</property>
  <property name="meta.attr.com.android.version.markup">10</property>
  <property name="seekable">1</property>
  <property name="meta.media.sample_aspect_num">1</property>
  <property name="meta.media.sample_aspect_den">1</property>
  <property name="aspect_ratio">1</property>
  <property name="kdenlive:folderid">1</property>
  <property name="meta.media.frame_rate_num">44212500</property>
  <property name="meta.media.frame_rate_den">1466039</property>
  <property name="meta.media.colorspace">601</property>
  <property name="meta.media.color_trc">15</property>
  <property name="meta.media.width">1920</property>
  <property name="meta.media.height">1080</property>
  <property name="meta.media.variable_frame_rate">1</property>
  <property name="meta.media.top_field_first">0</property>
  <property name="meta.media.progressive">1</property>
  <property name="kdenlive:file_size">181643767</property>
  <property name="kdenlive:file_hash">e04bb2a9b56339cb4b347693f3c9c58f</property>
 </producer>
 <producer id="58" out="385" in="0">
  <property name="length">386</property>
  <property name="eof">pause</property>
  <property name="resource">videos/VID_20191031_111527.mp4</property>
  <property name="audio_index">0</property>
  <property name="video_index">1</property>
  <property name="mute_on_pause">1</property>
  <property name="mlt_service">avformat-novalidate</property>
  <property name="meta.media.nb_streams">2</property>
  <property name="meta.media.0.stream.type">audio</property>
  <property name="meta.media.0.codec.sample_fmt">fltp</property>
  <property name="meta.media.0.codec.sample_rate">48000</property>
  <property name="meta.media.0.codec.channels">2</property>
  <property name="meta.media.0.codec.name">aac</property>
  <property name="meta.media.0.codec.long_name">AAC (Advanced Audio Coding)</property>
  <property name="meta.media.0.codec.bit_rate">190706</property>
  <property name="meta.attr.0.stream.creation_time.markup">2019-10-31T10:15:27.000000Z</property>
  <property name="meta.attr.0.stream.language.markup">eng</property>
  <property name="meta.attr.0.stream.handler_name.markup">SoundHandle</property>
  <property name="meta.media.1.stream.type">video</property>
  <property name="meta.media.1.stream.frame_rate">37,078</property>
  <property name="meta.media.1.stream.sample_aspect_ratio">1</property>
  <property name="meta.media.1.codec.width">1920</property>
  <property name="meta.media.1.codec.height">1080</property>
  <property name="meta.media.1.codec.rotate">0</property>
  <property name="meta.media.1.codec.frame_rate">90000</property>
  <property name="meta.media.1.codec.pix_fmt">yuvj420p</property>
  <property name="meta.media.1.codec.sample_aspect_ratio">0</property>
  <property name="meta.media.1.codec.colorspace">601</property>
  <property name="meta.media.1.codec.color_trc">15</property>
  <property name="meta.media.1.codec.name">h264</property>
  <property name="meta.media.1.codec.long_name">H.264 / AVC / MPEG-4 AVC / MPEG-4 part 10</property>
  <property name="meta.media.1.codec.bit_rate">24604540</property>
  <property name="meta.attr.1.stream.creation_time.markup">2019-10-31T10:15:27.000000Z</property>
  <property name="meta.attr.1.stream.language.markup">eng</property>
  <property name="meta.attr.1.stream.handler_name.markup">VideoHandle</property>
  <property name="meta.attr.major_brand.markup">mp42</property>
  <property name="meta.attr.minor_version.markup">0</property>
  <property name="meta.attr.compatible_brands.markup">isommp42</property>
  <property name="meta.attr.creation_time.markup">2019-10-31T10:15:27.000000Z</property>
  <property name="meta.attr.location.markup">+36.5822-004.6116/</property>
  <property name="meta.attr.location-eng.markup">+36.5822-004.6116/</property>
  <property name="meta.attr.com.android.version.markup">10</property>
  <property name="seekable">1</property>
  <property name="meta.media.sample_aspect_num">1</property>
  <property name="meta.media.sample_aspect_den">1</property>
  <property name="aspect_ratio">1</property>
  <property name="kdenlive:folderid">1</property>
  <property name="meta.media.frame_rate_num">2145000</property>
  <property name="meta.media.frame_rate_den">57851</property>
  <property name="meta.media.colorspace">601</property>
  <property name="meta.media.color_trc">15</property>
  <property name="meta.media.width">1920</property>
  <property name="meta.media.height">1080</property>
  <property name="meta.media.variable_frame_rate">1</property>
  <property name="meta.media.top_field_first">0</property>
  <property name="meta.media.progressive">1</property>
  <property name="kdenlive:file_size">47825354</property>
  <property name="kdenlive:file_hash">9cbe5594b91ec905e41654d43ac65d99</property>
 </producer>
 <producer id="59" out="543" in="0">
  <property name="length">544</property>
  <property name="eof">pause</property>
  <property name="resource">videos/VID_20191031_111556.mp4</property>
  <property name="audio_index">0</property>
  <property name="video_index">1</property>
  <property name="mute_on_pause">1</property>
  <property name="mlt_service">avformat-novalidate</property>
  <property name="meta.media.nb_streams">2</property>
  <property name="meta.media.0.stream.type">audio</property>
  <property name="meta.media.0.codec.sample_fmt">fltp</property>
  <property name="meta.media.0.codec.sample_rate">48000</property>
  <property name="meta.media.0.codec.channels">2</property>
  <property name="meta.media.0.codec.name">aac</property>
  <property name="meta.media.0.codec.long_name">AAC (Advanced Audio Coding)</property>
  <property name="meta.media.0.codec.bit_rate">191975</property>
  <property name="meta.attr.0.stream.creation_time.markup">2019-10-31T10:15:56.000000Z</property>
  <property name="meta.attr.0.stream.language.markup">eng</property>
  <property name="meta.attr.0.stream.handler_name.markup">SoundHandle</property>
  <property name="meta.media.1.stream.type">video</property>
  <property name="meta.media.1.stream.frame_rate">30,0114</property>
  <property name="meta.media.1.stream.sample_aspect_ratio">1</property>
  <property name="meta.media.1.codec.width">1920</property>
  <property name="meta.media.1.codec.height">1080</property>
  <property name="meta.media.1.codec.rotate">0</property>
  <property name="meta.media.1.codec.frame_rate">90000</property>
  <property name="meta.media.1.codec.pix_fmt">yuvj420p</property>
  <property name="meta.media.1.codec.sample_aspect_ratio">0</property>
  <property name="meta.media.1.codec.colorspace">601</property>
  <property name="meta.media.1.codec.color_trc">15</property>
  <property name="meta.media.1.codec.name">h264</property>
  <property name="meta.media.1.codec.long_name">H.264 / AVC / MPEG-4 AVC / MPEG-4 part 10</property>
  <property name="meta.media.1.codec.bit_rate">22298139</property>
  <property name="meta.attr.1.stream.creation_time.markup">2019-10-31T10:15:56.000000Z</property>
  <property name="meta.attr.1.stream.language.markup">eng</property>
  <property name="meta.attr.1.stream.handler_name.markup">VideoHandle</property>
  <property name="meta.attr.major_brand.markup">mp42</property>
  <property name="meta.attr.minor_version.markup">0</property>
  <property name="meta.attr.compatible_brands.markup">isommp42</property>
  <property name="meta.attr.creation_time.markup">2019-10-31T10:15:56.000000Z</property>
  <property name="meta.attr.location.markup">+36.5822-004.6116/</property>
  <property name="meta.attr.location-eng.markup">+36.5822-004.6116/</property>
  <property name="meta.attr.com.android.version.markup">10</property>
  <property name="seekable">1</property>
  <property name="meta.media.sample_aspect_num">1</property>
  <property name="meta.media.sample_aspect_den">1</property>
  <property name="aspect_ratio">1</property>
  <property name="kdenlive:folderid">1</property>
  <property name="meta.media.frame_rate_num">29340000</property>
  <property name="meta.media.frame_rate_den">977629</property>
  <property name="meta.media.colorspace">601</property>
  <property name="meta.media.color_trc">15</property>
  <property name="meta.media.width">1920</property>
  <property name="meta.media.height">1080</property>
  <property name="meta.media.top_field_first">0</property>
  <property name="meta.media.progressive">1</property>
  <property name="kdenlive:file_size">61087106</property>
  <property name="kdenlive:file_hash">ccaf02ba24436b1658734a1c143069ed</property>
 </producer>
 <producer id="60" out="446" in="0">
  <property name="length">447</property>
  <property name="eof">pause</property>
  <property name="resource">videos/VID_20191031_111617.mp4</property>
  <property name="audio_index">0</property>
  <property name="video_index">1</property>
  <property name="mute_on_pause">1</property>
  <property name="mlt_service">avformat-novalidate</property>
  <property name="meta.media.nb_streams">2</property>
  <property name="meta.media.0.stream.type">audio</property>
  <property name="meta.media.0.codec.sample_fmt">fltp</property>
  <property name="meta.media.0.codec.sample_rate">48000</property>
  <property name="meta.media.0.codec.channels">2</property>
  <property name="meta.media.0.codec.name">aac</property>
  <property name="meta.media.0.codec.long_name">AAC (Advanced Audio Coding)</property>
  <property name="meta.media.0.codec.bit_rate">191947</property>
  <property name="meta.attr.0.stream.creation_time.markup">2019-10-31T10:16:17.000000Z</property>
  <property name="meta.attr.0.stream.language.markup">eng</property>
  <property name="meta.attr.0.stream.handler_name.markup">SoundHandle</property>
  <property name="meta.media.1.stream.type">video</property>
  <property name="meta.media.1.stream.frame_rate">30,0101</property>
  <property name="meta.media.1.stream.sample_aspect_ratio">1</property>
  <property name="meta.media.1.codec.width">1920</property>
  <property name="meta.media.1.codec.height">1080</property>
  <property name="meta.media.1.codec.rotate">0</property>
  <property name="meta.media.1.codec.frame_rate">90000</property>
  <property name="meta.media.1.codec.pix_fmt">yuvj420p</property>
  <property name="meta.media.1.codec.sample_aspect_ratio">0</property>
  <property name="meta.media.1.codec.colorspace">601</property>
  <property name="meta.media.1.codec.color_trc">15</property>
  <property name="meta.media.1.codec.name">h264</property>
  <property name="meta.media.1.codec.long_name">H.264 / AVC / MPEG-4 AVC / MPEG-4 part 10</property>
  <property name="meta.media.1.codec.bit_rate">22204778</property>
  <property name="meta.attr.1.stream.creation_time.markup">2019-10-31T10:16:17.000000Z</property>
  <property name="meta.attr.1.stream.language.markup">eng</property>
  <property name="meta.attr.1.stream.handler_name.markup">VideoHandle</property>
  <property name="meta.attr.major_brand.markup">mp42</property>
  <property name="meta.attr.minor_version.markup">0</property>
  <property name="meta.attr.compatible_brands.markup">isommp42</property>
  <property name="meta.attr.creation_time.markup">2019-10-31T10:16:17.000000Z</property>
  <property name="meta.attr.location.markup">+36.5822-004.6116/</property>
  <property name="meta.attr.location-eng.markup">+36.5822-004.6116/</property>
  <property name="meta.attr.com.android.version.markup">10</property>
  <property name="seekable">1</property>
  <property name="meta.media.sample_aspect_num">1</property>
  <property name="meta.media.sample_aspect_den">1</property>
  <property name="aspect_ratio">1</property>
  <property name="kdenlive:folderid">1</property>
  <property name="meta.media.frame_rate_num">6041250</property>
  <property name="meta.media.frame_rate_den">201307</property>
  <property name="meta.media.colorspace">601</property>
  <property name="meta.media.color_trc">15</property>
  <property name="meta.media.width">1920</property>
  <property name="meta.media.height">1080</property>
  <property name="meta.media.variable_frame_rate">1</property>
  <property name="meta.media.top_field_first">0</property>
  <property name="meta.media.progressive">1</property>
  <property name="kdenlive:file_size">50105909</property>
  <property name="kdenlive:file_hash">3a22f049eb758ed3fc0f5d6fc370f12d</property>
 </producer>
 <producer id="61" out="267" in="0">
  <property name="length">268</property>
  <property name="eof">pause</property>
  <property name="resource">videos/VID_20191031_112945.mp4</property>
  <property name="audio_index">0</property>
  <property name="video_index">1</property>
  <property name="mute_on_pause">1</property>
  <property name="mlt_service">avformat-novalidate</property>
  <property name="meta.media.nb_streams">2</property>
  <property name="meta.media.0.stream.type">audio</property>
  <property name="meta.media.0.codec.sample_fmt">fltp</property>
  <property name="meta.media.0.codec.sample_rate">48000</property>
  <property name="meta.media.0.codec.channels">2</property>
  <property name="meta.media.0.codec.name">aac</property>
  <property name="meta.media.0.codec.long_name">AAC (Advanced Audio Coding)</property>
  <property name="meta.media.0.codec.bit_rate">192187</property>
  <property name="meta.attr.0.stream.creation_time.markup">2019-10-31T10:29:45.000000Z</property>
  <property name="meta.attr.0.stream.language.markup">eng</property>
  <property name="meta.attr.0.stream.handler_name.markup">SoundHandle</property>
  <property name="meta.media.1.stream.type">video</property>
  <property name="meta.media.1.stream.frame_rate">29,1986</property>
  <property name="meta.media.1.stream.sample_aspect_ratio">1</property>
  <property name="meta.media.1.codec.width">1920</property>
  <property name="meta.media.1.codec.height">1080</property>
  <property name="meta.media.1.codec.rotate">0</property>
  <property name="meta.media.1.codec.frame_rate">90000</property>
  <property name="meta.media.1.codec.pix_fmt">yuvj420p</property>
  <property name="meta.media.1.codec.sample_aspect_ratio">0</property>
  <property name="meta.media.1.codec.colorspace">601</property>
  <property name="meta.media.1.codec.color_trc">15</property>
  <property name="meta.media.1.codec.name">h264</property>
  <property name="meta.media.1.codec.long_name">H.264 / AVC / MPEG-4 AVC / MPEG-4 part 10</property>
  <property name="meta.media.1.codec.bit_rate">22135364</property>
  <property name="meta.attr.1.stream.creation_time.markup">2019-10-31T10:29:45.000000Z</property>
  <property name="meta.attr.1.stream.language.markup">eng</property>
  <property name="meta.attr.1.stream.handler_name.markup">VideoHandle</property>
  <property name="meta.attr.major_brand.markup">mp42</property>
  <property name="meta.attr.minor_version.markup">0</property>
  <property name="meta.attr.compatible_brands.markup">isommp42</property>
  <property name="meta.attr.creation_time.markup">2019-10-31T10:29:45.000000Z</property>
  <property name="meta.attr.location.markup">+36.5819-004.6123/</property>
  <property name="meta.attr.location-eng.markup">+36.5819-004.6123/</property>
  <property name="meta.attr.com.android.version.markup">10</property>
  <property name="seekable">1</property>
  <property name="meta.media.sample_aspect_num">1</property>
  <property name="meta.media.sample_aspect_den">1</property>
  <property name="aspect_ratio">1</property>
  <property name="kdenlive:folderid">1</property>
  <property name="meta.media.frame_rate_num">7042500</property>
  <property name="meta.media.frame_rate_den">241193</property>
  <property name="meta.media.colorspace">601</property>
  <property name="meta.media.color_trc">15</property>
  <property name="meta.media.width">1920</property>
  <property name="meta.media.height">1080</property>
  <property name="meta.media.variable_frame_rate">1</property>
  <property name="meta.media.top_field_first">0</property>
  <property name="meta.media.progressive">1</property>
  <property name="kdenlive:file_size">29927001</property>
  <property name="kdenlive:file_hash">b939cb29572e264de8b8548c21ac5a55</property>
 </producer>
 <producer id="62" out="2732" in="0">
  <property name="length">2733</property>
  <property name="eof">pause</property>
  <property name="resource">videos/VID_20191031_113145.mp4</property>
  <property name="audio_index">0</property>
  <property name="video_index">1</property>
  <property name="mute_on_pause">1</property>
  <property name="mlt_service">avformat-novalidate</property>
  <property name="meta.media.nb_streams">2</property>
  <property name="meta.media.0.stream.type">audio</property>
  <property name="meta.media.0.codec.sample_fmt">fltp</property>
  <property name="meta.media.0.codec.sample_rate">48000</property>
  <property name="meta.media.0.codec.channels">2</property>
  <property name="meta.media.0.codec.name">aac</property>
  <property name="meta.media.0.codec.long_name">AAC (Advanced Audio Coding)</property>
  <property name="meta.media.0.codec.bit_rate">191963</property>
  <property name="meta.attr.0.stream.creation_time.markup">2019-10-31T10:31:45.000000Z</property>
  <property name="meta.attr.0.stream.language.markup">eng</property>
  <property name="meta.attr.0.stream.handler_name.markup">SoundHandle</property>
  <property name="meta.media.1.stream.type">video</property>
  <property name="meta.media.1.stream.frame_rate">31,0136</property>
  <property name="meta.media.1.stream.sample_aspect_ratio">1</property>
  <property name="meta.media.1.codec.width">1920</property>
  <property name="meta.media.1.codec.height">1080</property>
  <property name="meta.media.1.codec.rotate">0</property>
  <property name="meta.media.1.codec.frame_rate">90000</property>
  <property name="meta.media.1.codec.pix_fmt">yuvj420p</property>
  <property name="meta.media.1.codec.sample_aspect_ratio">0</property>
  <property name="meta.media.1.codec.colorspace">601</property>
  <property name="meta.media.1.codec.color_trc">15</property>
  <property name="meta.media.1.codec.name">h264</property>
  <property name="meta.media.1.codec.long_name">H.264 / AVC / MPEG-4 AVC / MPEG-4 part 10</property>
  <property name="meta.media.1.codec.bit_rate">22342083</property>
  <property name="meta.attr.1.stream.creation_time.markup">2019-10-31T10:31:45.000000Z</property>
  <property name="meta.attr.1.stream.language.markup">eng</property>
  <property name="meta.attr.1.stream.handler_name.markup">VideoHandle</property>
  <property name="meta.attr.major_brand.markup">mp42</property>
  <property name="meta.attr.minor_version.markup">0</property>
  <property name="meta.attr.compatible_brands.markup">isommp42</property>
  <property name="meta.attr.creation_time.markup">2019-10-31T10:31:45.000000Z</property>
  <property name="meta.attr.location.markup">+36.5819-004.6123/</property>
  <property name="meta.attr.location-eng.markup">+36.5819-004.6123/</property>
  <property name="meta.attr.com.android.version.markup">10</property>
  <property name="seekable">1</property>
  <property name="meta.media.sample_aspect_num">1</property>
  <property name="meta.media.sample_aspect_den">1</property>
  <property name="aspect_ratio">1</property>
  <property name="kdenlive:folderid">1</property>
  <property name="meta.media.frame_rate_num">30510000</property>
  <property name="meta.media.frame_rate_den">983761</property>
  <property name="meta.media.colorspace">601</property>
  <property name="meta.media.color_trc">15</property>
  <property name="meta.media.width">1920</property>
  <property name="meta.media.height">1080</property>
  <property name="meta.media.variable_frame_rate">1</property>
  <property name="meta.media.top_field_first">0</property>
  <property name="meta.media.progressive">1</property>
  <property name="kdenlive:file_size">307933121</property>
  <property name="kdenlive:file_hash">a6d432f891897afc4562460b37a288c6</property>
 </producer>
 <producer id="63" out="480" in="0">
  <property name="length">481</property>
  <property name="eof">pause</property>
  <property name="resource">videos/VID_20191031_113304.mp4</property>
  <property name="audio_index">0</property>
  <property name="video_index">1</property>
  <property name="mute_on_pause">1</property>
  <property name="mlt_service">avformat-novalidate</property>
  <property name="meta.media.nb_streams">2</property>
  <property name="meta.media.0.stream.type">audio</property>
  <property name="meta.media.0.codec.sample_fmt">fltp</property>
  <property name="meta.media.0.codec.sample_rate">48000</property>
  <property name="meta.media.0.codec.channels">2</property>
  <property name="meta.media.0.codec.name">aac</property>
  <property name="meta.media.0.codec.long_name">AAC (Advanced Audio Coding)</property>
  <property name="meta.media.0.codec.bit_rate">191659</property>
  <property name="meta.attr.0.stream.creation_time.markup">2019-10-31T10:33:04.000000Z</property>
  <property name="meta.attr.0.stream.language.markup">eng</property>
  <property name="meta.attr.0.stream.handler_name.markup">SoundHandle</property>
  <property name="meta.media.1.stream.type">video</property>
  <property name="meta.media.1.stream.frame_rate">30,8459</property>
  <property name="meta.media.1.stream.sample_aspect_ratio">1</property>
  <property name="meta.media.1.codec.width">1920</property>
  <property name="meta.media.1.codec.height">1080</property>
  <property name="meta.media.1.codec.rotate">0</property>
  <property name="meta.media.1.codec.frame_rate">90000</property>
  <property name="meta.media.1.codec.pix_fmt">yuvj420p</property>
  <property name="meta.media.1.codec.sample_aspect_ratio">0</property>
  <property name="meta.media.1.codec.colorspace">601</property>
  <property name="meta.media.1.codec.color_trc">15</property>
  <property name="meta.media.1.codec.name">h264</property>
  <property name="meta.media.1.codec.long_name">H.264 / AVC / MPEG-4 AVC / MPEG-4 part 10</property>
  <property name="meta.media.1.codec.bit_rate">22228930</property>
  <property name="meta.attr.1.stream.creation_time.markup">2019-10-31T10:33:04.000000Z</property>
  <property name="meta.attr.1.stream.language.markup">eng</property>
  <property name="meta.attr.1.stream.handler_name.markup">VideoHandle</property>
  <property name="meta.attr.major_brand.markup">mp42</property>
  <property name="meta.attr.minor_version.markup">0</property>
  <property name="meta.attr.compatible_brands.markup">isommp42</property>
  <property name="meta.attr.creation_time.markup">2019-10-31T10:33:04.000000Z</property>
  <property name="meta.attr.location.markup">+36.5813-004.6122/</property>
  <property name="meta.attr.location-eng.markup">+36.5813-004.6122/</property>
  <property name="meta.attr.com.android.version.markup">10</property>
  <property name="seekable">1</property>
  <property name="meta.media.sample_aspect_num">1</property>
  <property name="meta.media.sample_aspect_den">1</property>
  <property name="aspect_ratio">1</property>
  <property name="kdenlive:folderid">1</property>
  <property name="meta.media.frame_rate_num">53280000</property>
  <property name="meta.media.frame_rate_den">1727297</property>
  <property name="meta.media.colorspace">601</property>
  <property name="meta.media.color_trc">15</property>
  <property name="meta.media.width">1920</property>
  <property name="meta.media.height">1080</property>
  <property name="meta.media.top_field_first">0</property>
  <property name="meta.media.progressive">1</property>
  <property name="kdenlive:file_size">53799940</property>
  <property name="kdenlive:file_hash">d79623ed48907888573a872014a7e7c3</property>
 </producer>
 <producer id="64" out="3132" in="0">
  <property name="length">3133</property>
  <property name="eof">pause</property>
  <property name="resource">videos/VID_20191031_113535.mp4</property>
  <property name="audio_index">0</property>
  <property name="video_index">1</property>
  <property name="mute_on_pause">1</property>
  <property name="mlt_service">avformat-novalidate</property>
  <property name="meta.media.nb_streams">2</property>
  <property name="meta.media.0.stream.type">audio</property>
  <property name="meta.media.0.codec.sample_fmt">fltp</property>
  <property name="meta.media.0.codec.sample_rate">48000</property>
  <property name="meta.media.0.codec.channels">2</property>
  <property name="meta.media.0.codec.name">aac</property>
  <property name="meta.media.0.codec.long_name">AAC (Advanced Audio Coding)</property>
  <property name="meta.media.0.codec.bit_rate">191940</property>
  <property name="meta.attr.0.stream.creation_time.markup">2019-10-31T10:35:35.000000Z</property>
  <property name="meta.attr.0.stream.language.markup">eng</property>
  <property name="meta.attr.0.stream.handler_name.markup">SoundHandle</property>
  <property name="meta.media.1.stream.type">video</property>
  <property name="meta.media.1.stream.frame_rate">35,9893</property>
  <property name="meta.media.1.stream.sample_aspect_ratio">1</property>
  <property name="meta.media.1.codec.width">1920</property>
  <property name="meta.media.1.codec.height">1080</property>
  <property name="meta.media.1.codec.rotate">0</property>
  <property name="meta.media.1.codec.frame_rate">90000</property>
  <property name="meta.media.1.codec.pix_fmt">yuvj420p</property>
  <property name="meta.media.1.codec.sample_aspect_ratio">0</property>
  <property name="meta.media.1.codec.colorspace">601</property>
  <property name="meta.media.1.codec.color_trc">15</property>
  <property name="meta.media.1.codec.name">h264</property>
  <property name="meta.media.1.codec.long_name">H.264 / AVC / MPEG-4 AVC / MPEG-4 part 10</property>
  <property name="meta.media.1.codec.bit_rate">24196065</property>
  <property name="meta.attr.1.stream.creation_time.markup">2019-10-31T10:35:35.000000Z</property>
  <property name="meta.attr.1.stream.language.markup">eng</property>
  <property name="meta.attr.1.stream.handler_name.markup">VideoHandle</property>
  <property name="meta.attr.major_brand.markup">mp42</property>
  <property name="meta.attr.minor_version.markup">0</property>
  <property name="meta.attr.compatible_brands.markup">isommp42</property>
  <property name="meta.attr.creation_time.markup">2019-10-31T10:35:35.000000Z</property>
  <property name="meta.attr.location.markup">+36.5813-004.6123/</property>
  <property name="meta.attr.location-eng.markup">+36.5813-004.6123/</property>
  <property name="meta.attr.com.android.version.markup">10</property>
  <property name="seekable">1</property>
  <property name="meta.media.sample_aspect_num">1</property>
  <property name="meta.media.sample_aspect_den">1</property>
  <property name="aspect_ratio">1</property>
  <property name="kdenlive:folderid">1</property>
  <property name="meta.media.frame_rate_num">81180000</property>
  <property name="meta.media.frame_rate_den">2255669</property>
  <property name="meta.media.colorspace">601</property>
  <property name="meta.media.color_trc">15</property>
  <property name="meta.media.width">1920</property>
  <property name="meta.media.height">1080</property>
  <property name="meta.media.variable_frame_rate">1</property>
  <property name="meta.media.top_field_first">0</property>
  <property name="meta.media.progressive">1</property>
  <property name="kdenlive:file_size">382075569</property>
  <property name="kdenlive:file_hash">ac2e862988dd04f034798069df80f4de</property>
 </producer>
 <producer id="65" out="1589" in="0">
  <property name="length">1590</property>
  <property name="eof">pause</property>
  <property name="resource">videos/VID_20191031_163941.mp4</property>
  <property name="audio_index">0</property>
  <property name="video_index">1</property>
  <property name="mute_on_pause">1</property>
  <property name="mlt_service">avformat-novalidate</property>
  <property name="meta.media.nb_streams">2</property>
  <property name="meta.media.0.stream.type">audio</property>
  <property name="meta.media.0.codec.sample_fmt">fltp</property>
  <property name="meta.media.0.codec.sample_rate">48000</property>
  <property name="meta.media.0.codec.channels">2</property>
  <property name="meta.media.0.codec.name">aac</property>
  <property name="meta.media.0.codec.long_name">AAC (Advanced Audio Coding)</property>
  <property name="meta.media.0.codec.bit_rate">192007</property>
  <property name="meta.attr.0.stream.creation_time.markup">2019-10-31T15:39:41.000000Z</property>
  <property name="meta.attr.0.stream.language.markup">eng</property>
  <property name="meta.attr.0.stream.handler_name.markup">SoundHandle</property>
  <property name="meta.media.1.stream.type">video</property>
  <property name="meta.media.1.stream.frame_rate">29,0693</property>
  <property name="meta.media.1.stream.sample_aspect_ratio">1</property>
  <property name="meta.media.1.codec.width">1920</property>
  <property name="meta.media.1.codec.height">1080</property>
  <property name="meta.media.1.codec.rotate">0</property>
  <property name="meta.media.1.codec.frame_rate">90000</property>
  <property name="meta.media.1.codec.pix_fmt">yuvj420p</property>
  <property name="meta.media.1.codec.sample_aspect_ratio">0</property>
  <property name="meta.media.1.codec.colorspace">601</property>
  <property name="meta.media.1.codec.color_trc">15</property>
  <property name="meta.media.1.codec.name">h264</property>
  <property name="meta.media.1.codec.long_name">H.264 / AVC / MPEG-4 AVC / MPEG-4 part 10</property>
  <property name="meta.media.1.codec.bit_rate">21918105</property>
  <property name="meta.attr.1.stream.creation_time.markup">2019-10-31T15:39:41.000000Z</property>
  <property name="meta.attr.1.stream.language.markup">eng</property>
  <property name="meta.attr.1.stream.handler_name.markup">VideoHandle</property>
  <property name="meta.attr.major_brand.markup">mp42</property>
  <property name="meta.attr.minor_version.markup">0</property>
  <property name="meta.attr.compatible_brands.markup">isommp42</property>
  <property name="meta.attr.creation_time.markup">2019-10-31T15:39:41.000000Z</property>
  <property name="meta.attr.location.markup">+36.5821-004.6121/</property>
  <property name="meta.attr.location-eng.markup">+36.5821-004.6121/</property>
  <property name="meta.attr.com.android.version.markup">10</property>
  <property name="seekable">1</property>
  <property name="meta.media.sample_aspect_num">1</property>
  <property name="meta.media.sample_aspect_den">1</property>
  <property name="aspect_ratio">1</property>
  <property name="kdenlive:folderid">1</property>
  <property name="meta.media.frame_rate_num">166320000</property>
  <property name="meta.media.frame_rate_den">5721493</property>
  <property name="meta.media.colorspace">601</property>
  <property name="meta.media.color_trc">15</property>
  <property name="meta.media.width">1920</property>
  <property name="meta.media.height">1080</property>
  <property name="meta.media.variable_frame_rate">1</property>
  <property name="meta.media.top_field_first">0</property>
  <property name="meta.media.progressive">1</property>
  <property name="kdenlive:file_size">175725710</property>
  <property name="kdenlive:file_hash">aae2bf8c3a7973161a6a8f6d58c7e836</property>
 </producer>
 <producer id="66" out="744" in="0">
  <property name="length">745</property>
  <property name="eof">pause</property>
  <property name="resource">videos/VID_20191031_202252.mp4</property>
  <property name="audio_index">0</property>
  <property name="video_index">1</property>
  <property name="mute_on_pause">1</property>
  <property name="mlt_service">avformat-novalidate</property>
  <property name="meta.media.nb_streams">2</property>
  <property name="meta.media.0.stream.type">audio</property>
  <property name="meta.media.0.codec.sample_fmt">fltp</property>
  <property name="meta.media.0.codec.sample_rate">48000</property>
  <property name="meta.media.0.codec.channels">2</property>
  <property name="meta.media.0.codec.name">aac</property>
  <property name="meta.media.0.codec.long_name">AAC (Advanced Audio Coding)</property>
  <property name="meta.media.0.codec.bit_rate">191893</property>
  <property name="meta.attr.0.stream.creation_time.markup">2019-10-31T19:22:52.000000Z</property>
  <property name="meta.attr.0.stream.language.markup">eng</property>
  <property name="meta.attr.0.stream.handler_name.markup">SoundHandle</property>
  <property name="meta.media.1.stream.type">video</property>
  <property name="meta.media.1.stream.frame_rate">30,0119</property>
  <property name="meta.media.1.stream.sample_aspect_ratio">1</property>
  <property name="meta.media.1.codec.width">1920</property>
  <property name="meta.media.1.codec.height">1080</property>
  <property name="meta.media.1.codec.rotate">0</property>
  <property name="meta.media.1.codec.frame_rate">90000</property>
  <property name="meta.media.1.codec.pix_fmt">yuvj420p</property>
  <property name="meta.media.1.codec.sample_aspect_ratio">0</property>
  <property name="meta.media.1.codec.colorspace">601</property>
  <property name="meta.media.1.codec.color_trc">15</property>
  <property name="meta.media.1.codec.name">h264</property>
  <property name="meta.media.1.codec.long_name">H.264 / AVC / MPEG-4 AVC / MPEG-4 part 10</property>
  <property name="meta.media.1.codec.bit_rate">22071355</property>
  <property name="meta.attr.1.stream.creation_time.markup">2019-10-31T19:22:52.000000Z</property>
  <property name="meta.attr.1.stream.language.markup">eng</property>
  <property name="meta.attr.1.stream.handler_name.markup">VideoHandle</property>
  <property name="meta.attr.major_brand.markup">mp42</property>
  <property name="meta.attr.minor_version.markup">0</property>
  <property name="meta.attr.compatible_brands.markup">isommp42</property>
  <property name="meta.attr.creation_time.markup">2019-10-31T19:22:52.000000Z</property>
  <property name="meta.attr.location.markup">+36.7165-004.4135/</property>
  <property name="meta.attr.location-eng.markup">+36.7165-004.4135/</property>
  <property name="meta.attr.com.android.version.markup">10</property>
  <property name="seekable">1</property>
  <property name="meta.media.sample_aspect_num">1</property>
  <property name="meta.media.sample_aspect_den">1</property>
  <property name="aspect_ratio">1</property>
  <property name="kdenlive:folderid">1</property>
  <property name="meta.media.frame_rate_num">5364000</property>
  <property name="meta.media.frame_rate_den">178729</property>
  <property name="meta.media.colorspace">601</property>
  <property name="meta.media.color_trc">15</property>
  <property name="meta.media.width">1920</property>
  <property name="meta.media.height">1080</property>
  <property name="meta.media.top_field_first">0</property>
  <property name="meta.media.progressive">1</property>
  <property name="kdenlive:file_size">82911905</property>
  <property name="kdenlive:file_hash">d10d03f1badbbf88d3fc4a86ef4293bd</property>
 </producer>
 <producer id="67" out="145" in="0">
  <property name="length">146</property>
  <property name="eof">pause</property>
  <property name="resource">videos/VID_20191031_203012.mp4</property>
  <property name="audio_index">0</property>
  <property name="video_index">1</property>
  <property name="mute_on_pause">1</property>
  <property name="mlt_service">avformat-novalidate</property>
  <property name="meta.media.nb_streams">2</property>
  <property name="meta.media.0.stream.type">audio</property>
  <property name="meta.media.0.codec.sample_fmt">fltp</property>
  <property name="meta.media.0.codec.sample_rate">48000</property>
  <property name="meta.media.0.codec.channels">2</property>
  <property name="meta.media.0.codec.name">aac</property>
  <property name="meta.media.0.codec.long_name">AAC (Advanced Audio Coding)</property>
  <property name="meta.media.0.codec.bit_rate">192318</property>
  <property name="meta.attr.0.stream.creation_time.markup">2019-10-31T19:30:12.000000Z</property>
  <property name="meta.attr.0.stream.language.markup">eng</property>
  <property name="meta.attr.0.stream.handler_name.markup">SoundHandle</property>
  <property name="meta.media.1.stream.type">video</property>
  <property name="meta.media.1.stream.frame_rate">30,0115</property>
  <property name="meta.media.1.stream.sample_aspect_ratio">1</property>
  <property name="meta.media.1.codec.width">1920</property>
  <property name="meta.media.1.codec.height">1080</property>
  <property name="meta.media.1.codec.rotate">0</property>
  <property name="meta.media.1.codec.frame_rate">90000</property>
  <property name="meta.media.1.codec.pix_fmt">yuvj420p</property>
  <property name="meta.media.1.codec.sample_aspect_ratio">0</property>
  <property name="meta.media.1.codec.colorspace">601</property>
  <property name="meta.media.1.codec.color_trc">15</property>
  <property name="meta.media.1.codec.name">h264</property>
  <property name="meta.media.1.codec.long_name">H.264 / AVC / MPEG-4 AVC / MPEG-4 part 10</property>
  <property name="meta.media.1.codec.bit_rate">22440641</property>
  <property name="meta.attr.1.stream.creation_time.markup">2019-10-31T19:30:12.000000Z</property>
  <property name="meta.attr.1.stream.language.markup">eng</property>
  <property name="meta.attr.1.stream.handler_name.markup">VideoHandle</property>
  <property name="meta.attr.major_brand.markup">mp42</property>
  <property name="meta.attr.minor_version.markup">0</property>
  <property name="meta.attr.compatible_brands.markup">isommp42</property>
  <property name="meta.attr.creation_time.markup">2019-10-31T19:30:12.000000Z</property>
  <property name="meta.attr.location.markup">+36.7161-004.4134/</property>
  <property name="meta.attr.location-eng.markup">+36.7161-004.4134/</property>
  <property name="meta.attr.com.android.version.markup">10</property>
  <property name="seekable">1</property>
  <property name="meta.media.sample_aspect_num">1</property>
  <property name="meta.media.sample_aspect_den">1</property>
  <property name="aspect_ratio">1</property>
  <property name="kdenlive:folderid">1</property>
  <property name="meta.media.frame_rate_num">7875000</property>
  <property name="meta.media.frame_rate_den">262399</property>
  <property name="meta.media.colorspace">601</property>
  <property name="meta.media.color_trc">15</property>
  <property name="meta.media.width">1920</property>
  <property name="meta.media.height">1080</property>
  <property name="meta.media.top_field_first">0</property>
  <property name="meta.media.progressive">1</property>
  <property name="kdenlive:file_size">16503689</property>
  <property name="kdenlive:file_hash">2001525c61b260725340d0e1370f2c81</property>
 </producer>
 <producer id="68" out="1133" in="0">
  <property name="length">1134</property>
  <property name="eof">pause</property>
  <property name="resource">videos/VID_20191101_102530.mp4</property>
  <property name="audio_index">0</property>
  <property name="video_index">1</property>
  <property name="mute_on_pause">1</property>
  <property name="mlt_service">avformat-novalidate</property>
  <property name="meta.media.nb_streams">2</property>
  <property name="meta.media.0.stream.type">audio</property>
  <property name="meta.media.0.codec.sample_fmt">fltp</property>
  <property name="meta.media.0.codec.sample_rate">48000</property>
  <property name="meta.media.0.codec.channels">2</property>
  <property name="meta.media.0.codec.name">aac</property>
  <property name="meta.media.0.codec.long_name">AAC (Advanced Audio Coding)</property>
  <property name="meta.media.0.codec.bit_rate">192051</property>
  <property name="meta.attr.0.stream.creation_time.markup">2019-11-01T09:25:30.000000Z</property>
  <property name="meta.attr.0.stream.language.markup">eng</property>
  <property name="meta.attr.0.stream.handler_name.markup">SoundHandle</property>
  <property name="meta.media.1.stream.type">video</property>
  <property name="meta.media.1.stream.frame_rate">30,0229</property>
  <property name="meta.media.1.stream.sample_aspect_ratio">1</property>
  <property name="meta.media.1.codec.width">1920</property>
  <property name="meta.media.1.codec.height">1080</property>
  <property name="meta.media.1.codec.rotate">0</property>
  <property name="meta.media.1.codec.frame_rate">90000</property>
  <property name="meta.media.1.codec.pix_fmt">yuvj420p</property>
  <property name="meta.media.1.codec.sample_aspect_ratio">0</property>
  <property name="meta.media.1.codec.colorspace">601</property>
  <property name="meta.media.1.codec.color_trc">15</property>
  <property name="meta.media.1.codec.name">h264</property>
  <property name="meta.media.1.codec.long_name">H.264 / AVC / MPEG-4 AVC / MPEG-4 part 10</property>
  <property name="meta.media.1.codec.bit_rate">21653517</property>
  <property name="meta.attr.1.stream.creation_time.markup">2019-11-01T09:25:30.000000Z</property>
  <property name="meta.attr.1.stream.language.markup">eng</property>
  <property name="meta.attr.1.stream.handler_name.markup">VideoHandle</property>
  <property name="meta.attr.major_brand.markup">mp42</property>
  <property name="meta.attr.minor_version.markup">0</property>
  <property name="meta.attr.compatible_brands.markup">isommp42</property>
  <property name="meta.attr.creation_time.markup">2019-11-01T09:25:30.000000Z</property>
  <property name="meta.attr.location.markup">+36.5820-004.6130/</property>
  <property name="meta.attr.location-eng.markup">+36.5820-004.6130/</property>
  <property name="meta.attr.com.android.version.markup">10</property>
  <property name="seekable">1</property>
  <property name="meta.media.sample_aspect_num">1</property>
  <property name="meta.media.sample_aspect_den">1</property>
  <property name="aspect_ratio">1</property>
  <property name="kdenlive:folderid">1</property>
  <property name="meta.media.frame_rate_num">20415000</property>
  <property name="meta.media.frame_rate_den">679981</property>
  <property name="meta.media.colorspace">601</property>
  <property name="meta.media.color_trc">15</property>
  <property name="meta.media.width">1920</property>
  <property name="meta.media.height">1080</property>
  <property name="meta.media.top_field_first">0</property>
  <property name="meta.media.progressive">1</property>
  <property name="kdenlive:file_size">123807981</property>
  <property name="kdenlive:file_hash">5a11f7f5223bdbd3e83eedbf989e0100</property>
 </producer>
 <producer id="69" out="1772" in="0">
  <property name="length">1773</property>
  <property name="eof">pause</property>
  <property name="resource">videos/VID_20191101_121913.mp4</property>
  <property name="audio_index">0</property>
  <property name="video_index">1</property>
  <property name="mute_on_pause">1</property>
  <property name="mlt_service">avformat-novalidate</property>
  <property name="meta.media.nb_streams">2</property>
  <property name="meta.media.0.stream.type">audio</property>
  <property name="meta.media.0.codec.sample_fmt">fltp</property>
  <property name="meta.media.0.codec.sample_rate">48000</property>
  <property name="meta.media.0.codec.channels">2</property>
  <property name="meta.media.0.codec.name">aac</property>
  <property name="meta.media.0.codec.long_name">AAC (Advanced Audio Coding)</property>
  <property name="meta.media.0.codec.bit_rate">191915</property>
  <property name="meta.attr.0.stream.creation_time.markup">2019-11-01T11:19:13.000000Z</property>
  <property name="meta.attr.0.stream.language.markup">eng</property>
  <property name="meta.attr.0.stream.handler_name.markup">SoundHandle</property>
  <property name="meta.media.1.stream.type">video</property>
  <property name="meta.media.1.stream.frame_rate">30,0965</property>
  <property name="meta.media.1.stream.sample_aspect_ratio">1</property>
  <property name="meta.media.1.codec.width">1920</property>
  <property name="meta.media.1.codec.height">1080</property>
  <property name="meta.media.1.codec.rotate">0</property>
  <property name="meta.media.1.codec.frame_rate">90000</property>
  <property name="meta.media.1.codec.pix_fmt">yuvj420p</property>
  <property name="meta.media.1.codec.sample_aspect_ratio">0</property>
  <property name="meta.media.1.codec.colorspace">601</property>
  <property name="meta.media.1.codec.color_trc">15</property>
  <property name="meta.media.1.codec.name">h264</property>
  <property name="meta.media.1.codec.long_name">H.264 / AVC / MPEG-4 AVC / MPEG-4 part 10</property>
  <property name="meta.media.1.codec.bit_rate">22055789</property>
  <property name="meta.attr.1.stream.creation_time.markup">2019-11-01T11:19:13.000000Z</property>
  <property name="meta.attr.1.stream.language.markup">eng</property>
  <property name="meta.attr.1.stream.handler_name.markup">VideoHandle</property>
  <property name="meta.attr.major_brand.markup">mp42</property>
  <property name="meta.attr.minor_version.markup">0</property>
  <property name="meta.attr.compatible_brands.markup">isommp42</property>
  <property name="meta.attr.creation_time.markup">2019-11-01T11:19:13.000000Z</property>
  <property name="meta.attr.location.markup">+36.5952-004.6318/</property>
  <property name="meta.attr.location-eng.markup">+36.5952-004.6318/</property>
  <property name="meta.attr.com.android.version.markup">10</property>
  <property name="seekable">1</property>
  <property name="meta.media.sample_aspect_num">1</property>
  <property name="meta.media.sample_aspect_den">1</property>
  <property name="aspect_ratio">1</property>
  <property name="kdenlive:folderid">1</property>
  <property name="meta.media.frame_rate_num">192060000</property>
  <property name="meta.media.frame_rate_den">6381479</property>
  <property name="meta.media.colorspace">601</property>
  <property name="meta.media.color_trc">15</property>
  <property name="meta.media.width">1920</property>
  <property name="meta.media.height">1080</property>
  <property name="meta.media.variable_frame_rate">1</property>
  <property name="meta.media.top_field_first">0</property>
  <property name="meta.media.progressive">1</property>
  <property name="kdenlive:file_size">197213632</property>
  <property name="kdenlive:file_hash">052a961e21bc46ad69cd00ce734e0854</property>
 </producer>
 <producer id="70" out="1978" in="0">
  <property name="length">1979</property>
  <property name="eof">pause</property>
  <property name="resource">videos/VID_20191101_124123.mp4</property>
  <property name="audio_index">0</property>
  <property name="video_index">1</property>
  <property name="mute_on_pause">1</property>
  <property name="mlt_service">avformat-novalidate</property>
  <property name="meta.media.nb_streams">2</property>
  <property name="meta.media.0.stream.type">audio</property>
  <property name="meta.media.0.codec.sample_fmt">fltp</property>
  <property name="meta.media.0.codec.sample_rate">48000</property>
  <property name="meta.media.0.codec.channels">2</property>
  <property name="meta.media.0.codec.name">aac</property>
  <property name="meta.media.0.codec.long_name">AAC (Advanced Audio Coding)</property>
  <property name="meta.media.0.codec.bit_rate">191951</property>
  <property name="meta.attr.0.stream.creation_time.markup">2019-11-01T11:41:23.000000Z</property>
  <property name="meta.attr.0.stream.language.markup">eng</property>
  <property name="meta.attr.0.stream.handler_name.markup">SoundHandle</property>
  <property name="meta.media.1.stream.type">video</property>
  <property name="meta.media.1.stream.frame_rate">31,3701</property>
  <property name="meta.media.1.stream.sample_aspect_ratio">1</property>
  <property name="meta.media.1.codec.width">1920</property>
  <property name="meta.media.1.codec.height">1080</property>
  <property name="meta.media.1.codec.rotate">0</property>
  <property name="meta.media.1.codec.frame_rate">90000</property>
  <property name="meta.media.1.codec.pix_fmt">yuvj420p</property>
  <property name="meta.media.1.codec.sample_aspect_ratio">0</property>
  <property name="meta.media.1.codec.colorspace">601</property>
  <property name="meta.media.1.codec.color_trc">15</property>
  <property name="meta.media.1.codec.name">h264</property>
  <property name="meta.media.1.codec.long_name">H.264 / AVC / MPEG-4 AVC / MPEG-4 part 10</property>
  <property name="meta.media.1.codec.bit_rate">22495791</property>
  <property name="meta.attr.1.stream.creation_time.markup">2019-11-01T11:41:23.000000Z</property>
  <property name="meta.attr.1.stream.language.markup">eng</property>
  <property name="meta.attr.1.stream.handler_name.markup">VideoHandle</property>
  <property name="meta.attr.major_brand.markup">mp42</property>
  <property name="meta.attr.minor_version.markup">0</property>
  <property name="meta.attr.compatible_brands.markup">isommp42</property>
  <property name="meta.attr.creation_time.markup">2019-11-01T11:41:23.000000Z</property>
  <property name="meta.attr.location.markup">+36.5729-004.6166/</property>
  <property name="meta.attr.location-eng.markup">+36.5729-004.6166/</property>
  <property name="meta.attr.com.android.version.markup">10</property>
  <property name="seekable">1</property>
  <property name="meta.media.sample_aspect_num">1</property>
  <property name="meta.media.sample_aspect_den">1</property>
  <property name="aspect_ratio">1</property>
  <property name="kdenlive:folderid">1</property>
  <property name="meta.media.frame_rate_num">111735000</property>
  <property name="meta.media.frame_rate_den">3561829</property>
  <property name="meta.media.colorspace">601</property>
  <property name="meta.media.color_trc">15</property>
  <property name="meta.media.width">1920</property>
  <property name="meta.media.height">1080</property>
  <property name="meta.media.variable_frame_rate">1</property>
  <property name="meta.media.top_field_first">0</property>
  <property name="meta.media.progressive">1</property>
  <property name="kdenlive:file_size">224504041</property>
  <property name="kdenlive:file_hash">15e620f746a193c307f3110294e53e99</property>
 </producer>
 <producer id="71" out="2508" in="0">
  <property name="length">2509</property>
  <property name="eof">pause</property>
  <property name="resource">videos/VID_20191101_131022.mp4</property>
  <property name="audio_index">0</property>
  <property name="video_index">1</property>
  <property name="mute_on_pause">1</property>
  <property name="mlt_service">avformat-novalidate</property>
  <property name="meta.media.nb_streams">2</property>
  <property name="meta.media.0.stream.type">audio</property>
  <property name="meta.media.0.codec.sample_fmt">fltp</property>
  <property name="meta.media.0.codec.sample_rate">48000</property>
  <property name="meta.media.0.codec.channels">2</property>
  <property name="meta.media.0.codec.name">aac</property>
  <property name="meta.media.0.codec.long_name">AAC (Advanced Audio Coding)</property>
  <property name="meta.media.0.codec.bit_rate">191953</property>
  <property name="meta.attr.0.stream.creation_time.markup">2019-11-01T12:10:22.000000Z</property>
  <property name="meta.attr.0.stream.language.markup">eng</property>
  <property name="meta.attr.0.stream.handler_name.markup">SoundHandle</property>
  <property name="meta.media.1.stream.type">video</property>
  <property name="meta.media.1.stream.frame_rate">30,1116</property>
  <property name="meta.media.1.stream.sample_aspect_ratio">1</property>
  <property name="meta.media.1.codec.width">1920</property>
  <property name="meta.media.1.codec.height">1080</property>
  <property name="meta.media.1.codec.rotate">0</property>
  <property name="meta.media.1.codec.frame_rate">90000</property>
  <property name="meta.media.1.codec.pix_fmt">yuvj420p</property>
  <property name="meta.media.1.codec.sample_aspect_ratio">0</property>
  <property name="meta.media.1.codec.colorspace">601</property>
  <property name="meta.media.1.codec.color_trc">15</property>
  <property name="meta.media.1.codec.name">h264</property>
  <property name="meta.media.1.codec.long_name">H.264 / AVC / MPEG-4 AVC / MPEG-4 part 10</property>
  <property name="meta.media.1.codec.bit_rate">22070709</property>
  <property name="meta.attr.1.stream.creation_time.markup">2019-11-01T12:10:22.000000Z</property>
  <property name="meta.attr.1.stream.language.markup">eng</property>
  <property name="meta.attr.1.stream.handler_name.markup">VideoHandle</property>
  <property name="meta.attr.major_brand.markup">mp42</property>
  <property name="meta.attr.minor_version.markup">0</property>
  <property name="meta.attr.compatible_brands.markup">isommp42</property>
  <property name="meta.attr.creation_time.markup">2019-11-01T12:10:22.000000Z</property>
  <property name="meta.attr.location.markup">+36.5763-004.6099/</property>
  <property name="meta.attr.location-eng.markup">+36.5763-004.6099/</property>
  <property name="meta.attr.com.android.version.markup">10</property>
  <property name="seekable">1</property>
  <property name="meta.media.sample_aspect_num">1</property>
  <property name="meta.media.sample_aspect_den">1</property>
  <property name="aspect_ratio">1</property>
  <property name="kdenlive:folderid">1</property>
  <property name="meta.media.frame_rate_num">27189000</property>
  <property name="meta.media.frame_rate_den">902941</property>
  <property name="meta.media.colorspace">601</property>
  <property name="meta.media.color_trc">15</property>
  <property name="meta.media.width">1920</property>
  <property name="meta.media.height">1080</property>
  <property name="meta.media.variable_frame_rate">1</property>
  <property name="meta.media.top_field_first">0</property>
  <property name="meta.media.progressive">1</property>
  <property name="kdenlive:file_size">279232747</property>
  <property name="kdenlive:file_hash">bb7a7d9bd4f39a753ee77bb70c04795b</property>
 </producer>
 <producer id="72" out="2085" in="0">
  <property name="length">2086</property>
  <property name="eof">pause</property>
  <property name="resource">videos/VID_20191101_152157.mp4</property>
  <property name="audio_index">0</property>
  <property name="video_index">1</property>
  <property name="mute_on_pause">1</property>
  <property name="mlt_service">avformat-novalidate</property>
  <property name="meta.media.nb_streams">2</property>
  <property name="meta.media.0.stream.type">audio</property>
  <property name="meta.media.0.codec.sample_fmt">fltp</property>
  <property name="meta.media.0.codec.sample_rate">48000</property>
  <property name="meta.media.0.codec.channels">2</property>
  <property name="meta.media.0.codec.name">aac</property>
  <property name="meta.media.0.codec.long_name">AAC (Advanced Audio Coding)</property>
  <property name="meta.media.0.codec.bit_rate">191995</property>
  <property name="meta.attr.0.stream.creation_time.markup">2019-11-01T14:21:57.000000Z</property>
  <property name="meta.attr.0.stream.language.markup">eng</property>
  <property name="meta.attr.0.stream.handler_name.markup">SoundHandle</property>
  <property name="meta.media.1.stream.type">video</property>
  <property name="meta.media.1.stream.frame_rate">29,6451</property>
  <property name="meta.media.1.stream.sample_aspect_ratio">1</property>
  <property name="meta.media.1.codec.width">1920</property>
  <property name="meta.media.1.codec.height">1080</property>
  <property name="meta.media.1.codec.rotate">0</property>
  <property name="meta.media.1.codec.frame_rate">90000</property>
  <property name="meta.media.1.codec.pix_fmt">yuvj420p</property>
  <property name="meta.media.1.codec.sample_aspect_ratio">0</property>
  <property name="meta.media.1.codec.colorspace">601</property>
  <property name="meta.media.1.codec.color_trc">15</property>
  <property name="meta.media.1.codec.name">h264</property>
  <property name="meta.media.1.codec.long_name">H.264 / AVC / MPEG-4 AVC / MPEG-4 part 10</property>
  <property name="meta.media.1.codec.bit_rate">22060203</property>
  <property name="meta.attr.1.stream.creation_time.markup">2019-11-01T14:21:57.000000Z</property>
  <property name="meta.attr.1.stream.language.markup">eng</property>
  <property name="meta.attr.1.stream.handler_name.markup">VideoHandle</property>
  <property name="meta.attr.major_brand.markup">mp42</property>
  <property name="meta.attr.minor_version.markup">0</property>
  <property name="meta.attr.compatible_brands.markup">isommp42</property>
  <property name="meta.attr.creation_time.markup">2019-11-01T14:21:57.000000Z</property>
  <property name="meta.attr.location.markup">+36.5819-004.6137/</property>
  <property name="meta.attr.location-eng.markup">+36.5819-004.6137/</property>
  <property name="meta.attr.com.android.version.markup">10</property>
  <property name="seekable">1</property>
  <property name="meta.media.sample_aspect_num">1</property>
  <property name="meta.media.sample_aspect_den">1</property>
  <property name="aspect_ratio">1</property>
  <property name="kdenlive:folderid">1</property>
  <property name="meta.media.frame_rate_num">24740000</property>
  <property name="meta.media.frame_rate_den">834539</property>
  <property name="meta.media.colorspace">601</property>
  <property name="meta.media.color_trc">15</property>
  <property name="meta.media.width">1920</property>
  <property name="meta.media.height">1080</property>
  <property name="meta.media.variable_frame_rate">1</property>
  <property name="meta.media.top_field_first">0</property>
  <property name="meta.media.progressive">1</property>
  <property name="kdenlive:file_size">232163071</property>
  <property name="kdenlive:file_hash">92044af8d8e5a7d1b6ff5a0f5be13a1e</property>
 </producer>
 <producer id="73" out="1005" in="0">
  <property name="length">1006</property>
  <property name="eof">pause</property>
  <property name="resource">videos/VID_20191101_211546.mp4</property>
  <property name="audio_index">0</property>
  <property name="video_index">1</property>
  <property name="mute_on_pause">1</property>
  <property name="mlt_service">avformat-novalidate</property>
  <property name="meta.media.nb_streams">2</property>
  <property name="meta.media.0.stream.type">audio</property>
  <property name="meta.media.0.codec.sample_fmt">fltp</property>
  <property name="meta.media.0.codec.sample_rate">48000</property>
  <property name="meta.media.0.codec.channels">2</property>
  <property name="meta.media.0.codec.name">aac</property>
  <property name="meta.media.0.codec.long_name">AAC (Advanced Audio Coding)</property>
  <property name="meta.media.0.codec.bit_rate">191961</property>
  <property name="meta.attr.0.stream.creation_time.markup">2019-11-01T20:15:46.000000Z</property>
  <property name="meta.attr.0.stream.language.markup">eng</property>
  <property name="meta.attr.0.stream.handler_name.markup">SoundHandle</property>
  <property name="meta.media.1.stream.type">video</property>
  <property name="meta.media.1.stream.frame_rate">29,9873</property>
  <property name="meta.media.1.stream.sample_aspect_ratio">1</property>
  <property name="meta.media.1.codec.width">1920</property>
  <property name="meta.media.1.codec.height">1080</property>
  <property name="meta.media.1.codec.rotate">0</property>
  <property name="meta.media.1.codec.frame_rate">90000</property>
  <property name="meta.media.1.codec.pix_fmt">yuvj420p</property>
  <property name="meta.media.1.codec.sample_aspect_ratio">0</property>
  <property name="meta.media.1.codec.colorspace">601</property>
  <property name="meta.media.1.codec.color_trc">15</property>
  <property name="meta.media.1.codec.name">h264</property>
  <property name="meta.media.1.codec.long_name">H.264 / AVC / MPEG-4 AVC / MPEG-4 part 10</property>
  <property name="meta.media.1.codec.bit_rate">22032670</property>
  <property name="meta.attr.1.stream.creation_time.markup">2019-11-01T20:15:46.000000Z</property>
  <property name="meta.attr.1.stream.language.markup">eng</property>
  <property name="meta.attr.1.stream.handler_name.markup">VideoHandle</property>
  <property name="meta.attr.major_brand.markup">mp42</property>
  <property name="meta.attr.minor_version.markup">0</property>
  <property name="meta.attr.compatible_brands.markup">isommp42</property>
  <property name="meta.attr.creation_time.markup">2019-11-01T20:15:46.000000Z</property>
  <property name="meta.attr.location.markup">+36.7265-004.3817/</property>
  <property name="meta.attr.location-eng.markup">+36.7265-004.3817/</property>
  <property name="meta.attr.com.android.version.markup">10</property>
  <property name="seekable">1</property>
  <property name="meta.media.sample_aspect_num">1</property>
  <property name="meta.media.sample_aspect_den">1</property>
  <property name="aspect_ratio">1</property>
  <property name="kdenlive:folderid">1</property>
  <property name="meta.media.frame_rate_num">108630000</property>
  <property name="meta.media.frame_rate_den">3622537</property>
  <property name="meta.media.colorspace">601</property>
  <property name="meta.media.color_trc">15</property>
  <property name="meta.media.width">1920</property>
  <property name="meta.media.height">1080</property>
  <property name="meta.media.variable_frame_rate">1</property>
  <property name="meta.media.top_field_first">0</property>
  <property name="meta.media.progressive">1</property>
  <property name="kdenlive:file_size">111836771</property>
  <property name="kdenlive:file_hash">5c1d1122499ccd85e6ea1d80b7d0fca3</property>
 </producer>
 <producer id="74" out="292" in="0">
  <property name="length">293</property>
  <property name="eof">pause</property>
  <property name="resource">videos/VID_20191101_212035.mp4</property>
  <property name="audio_index">0</property>
  <property name="video_index">1</property>
  <property name="mute_on_pause">1</property>
  <property name="mlt_service">avformat-novalidate</property>
  <property name="meta.media.nb_streams">2</property>
  <property name="meta.media.0.stream.type">audio</property>
  <property name="meta.media.0.codec.sample_fmt">fltp</property>
  <property name="meta.media.0.codec.sample_rate">48000</property>
  <property name="meta.media.0.codec.channels">2</property>
  <property name="meta.media.0.codec.name">aac</property>
  <property name="meta.media.0.codec.long_name">AAC (Advanced Audio Coding)</property>
  <property name="meta.media.0.codec.bit_rate">192108</property>
  <property name="meta.attr.0.stream.creation_time.markup">2019-11-01T20:20:35.000000Z</property>
  <property name="meta.attr.0.stream.language.markup">eng</property>
  <property name="meta.attr.0.stream.handler_name.markup">SoundHandle</property>
  <property name="meta.media.1.stream.type">video</property>
  <property name="meta.media.1.stream.frame_rate">30,0118</property>
  <property name="meta.media.1.stream.sample_aspect_ratio">1</property>
  <property name="meta.media.1.codec.width">1920</property>
  <property name="meta.media.1.codec.height">1080</property>
  <property name="meta.media.1.codec.rotate">0</property>
  <property name="meta.media.1.codec.frame_rate">90000</property>
  <property name="meta.media.1.codec.pix_fmt">yuvj420p</property>
  <property name="meta.media.1.codec.sample_aspect_ratio">0</property>
  <property name="meta.media.1.codec.colorspace">601</property>
  <property name="meta.media.1.codec.color_trc">15</property>
  <property name="meta.media.1.codec.name">h264</property>
  <property name="meta.media.1.codec.long_name">H.264 / AVC / MPEG-4 AVC / MPEG-4 part 10</property>
  <property name="meta.media.1.codec.bit_rate">22165141</property>
  <property name="meta.attr.1.stream.creation_time.markup">2019-11-01T20:20:35.000000Z</property>
  <property name="meta.attr.1.stream.language.markup">eng</property>
  <property name="meta.attr.1.stream.handler_name.markup">VideoHandle</property>
  <property name="meta.attr.major_brand.markup">mp42</property>
  <property name="meta.attr.minor_version.markup">0</property>
  <property name="meta.attr.compatible_brands.markup">isommp42</property>
  <property name="meta.attr.creation_time.markup">2019-11-01T20:20:35.000000Z</property>
  <property name="meta.attr.location.markup">+36.7265-004.3817/</property>
  <property name="meta.attr.location-eng.markup">+36.7265-004.3817/</property>
  <property name="meta.attr.com.android.version.markup">10</property>
  <property name="seekable">1</property>
  <property name="meta.media.sample_aspect_num">1</property>
  <property name="meta.media.sample_aspect_den">1</property>
  <property name="aspect_ratio">1</property>
  <property name="kdenlive:folderid">1</property>
  <property name="meta.media.frame_rate_num">6318000</property>
  <property name="meta.media.frame_rate_den">210517</property>
  <property name="meta.media.colorspace">601</property>
  <property name="meta.media.color_trc">15</property>
  <property name="meta.media.width">1920</property>
  <property name="meta.media.height">1080</property>
  <property name="meta.media.variable_frame_rate">1</property>
  <property name="meta.media.top_field_first">0</property>
  <property name="meta.media.progressive">1</property>
  <property name="kdenlive:file_size">32693552</property>
  <property name="kdenlive:file_hash">7d126193c40539a20c7d93057906703b</property>
 </producer>
 <producer id="75" out="1617" in="0">
  <property name="length">1618</property>
  <property name="eof">pause</property>
  <property name="resource">videos/VID_20191101_212541.mp4</property>
  <property name="audio_index">0</property>
  <property name="video_index">1</property>
  <property name="mute_on_pause">1</property>
  <property name="mlt_service">avformat-novalidate</property>
  <property name="meta.media.nb_streams">2</property>
  <property name="meta.media.0.stream.type">audio</property>
  <property name="meta.media.0.codec.sample_fmt">fltp</property>
  <property name="meta.media.0.codec.sample_rate">48000</property>
  <property name="meta.media.0.codec.channels">2</property>
  <property name="meta.media.0.codec.name">aac</property>
  <property name="meta.media.0.codec.long_name">AAC (Advanced Audio Coding)</property>
  <property name="meta.media.0.codec.bit_rate">192008</property>
  <property name="meta.attr.0.stream.creation_time.markup">2019-11-01T20:25:41.000000Z</property>
  <property name="meta.attr.0.stream.language.markup">eng</property>
  <property name="meta.attr.0.stream.handler_name.markup">SoundHandle</property>
  <property name="meta.media.1.stream.type">video</property>
  <property name="meta.media.1.stream.frame_rate">30,0122</property>
  <property name="meta.media.1.stream.sample_aspect_ratio">1</property>
  <property name="meta.media.1.codec.width">1920</property>
  <property name="meta.media.1.codec.height">1080</property>
  <property name="meta.media.1.codec.rotate">0</property>
  <property name="meta.media.1.codec.frame_rate">90000</property>
  <property name="meta.media.1.codec.pix_fmt">yuvj420p</property>
  <property name="meta.media.1.codec.sample_aspect_ratio">0</property>
  <property name="meta.media.1.codec.colorspace">601</property>
  <property name="meta.media.1.codec.color_trc">15</property>
  <property name="meta.media.1.codec.name">h264</property>
  <property name="meta.media.1.codec.long_name">H.264 / AVC / MPEG-4 AVC / MPEG-4 part 10</property>
  <property name="meta.media.1.codec.bit_rate">22054947</property>
  <property name="meta.attr.1.stream.creation_time.markup">2019-11-01T20:25:41.000000Z</property>
  <property name="meta.attr.1.stream.language.markup">eng</property>
  <property name="meta.attr.1.stream.handler_name.markup">VideoHandle</property>
  <property name="meta.attr.major_brand.markup">mp42</property>
  <property name="meta.attr.minor_version.markup">0</property>
  <property name="meta.attr.compatible_brands.markup">isommp42</property>
  <property name="meta.attr.creation_time.markup">2019-11-01T20:25:41.000000Z</property>
  <property name="meta.attr.com.android.version.markup">10</property>
  <property name="seekable">1</property>
  <property name="meta.media.sample_aspect_num">1</property>
  <property name="meta.media.sample_aspect_den">1</property>
  <property name="aspect_ratio">1</property>
  <property name="kdenlive:folderid">1</property>
  <property name="meta.media.frame_rate_num">1942000</property>
  <property name="meta.media.frame_rate_den">64707</property>
  <property name="meta.media.colorspace">601</property>
  <property name="meta.media.color_trc">15</property>
  <property name="meta.media.width">1920</property>
  <property name="meta.media.height">1080</property>
  <property name="meta.media.top_field_first">0</property>
  <property name="meta.media.progressive">1</property>
  <property name="kdenlive:file_size">179968516</property>
  <property name="kdenlive:file_hash">0ddd74011c1cd5da84f87ae9565bc704</property>
 </producer>
 <producer id="76" out="1115" in="0">
  <property name="length">1116</property>
  <property name="eof">pause</property>
  <property name="resource">videos/VID_20191101_213321.mp4</property>
  <property name="audio_index">0</property>
  <property name="video_index">1</property>
  <property name="mute_on_pause">1</property>
  <property name="mlt_service">avformat-novalidate</property>
  <property name="meta.media.nb_streams">2</property>
  <property name="meta.media.0.stream.type">audio</property>
  <property name="meta.media.0.codec.sample_fmt">fltp</property>
  <property name="meta.media.0.codec.sample_rate">48000</property>
  <property name="meta.media.0.codec.channels">2</property>
  <property name="meta.media.0.codec.name">aac</property>
  <property name="meta.media.0.codec.long_name">AAC (Advanced Audio Coding)</property>
  <property name="meta.media.0.codec.bit_rate">191961</property>
  <property name="meta.attr.0.stream.creation_time.markup">2019-11-01T20:33:21.000000Z</property>
  <property name="meta.attr.0.stream.language.markup">eng</property>
  <property name="meta.attr.0.stream.handler_name.markup">SoundHandle</property>
  <property name="meta.media.1.stream.type">video</property>
  <property name="meta.media.1.stream.frame_rate">29,9449</property>
  <property name="meta.media.1.stream.sample_aspect_ratio">1</property>
  <property name="meta.media.1.codec.width">1920</property>
  <property name="meta.media.1.codec.height">1080</property>
  <property name="meta.media.1.codec.rotate">0</property>
  <property name="meta.media.1.codec.frame_rate">90000</property>
  <property name="meta.media.1.codec.pix_fmt">yuvj420p</property>
  <property name="meta.media.1.codec.sample_aspect_ratio">0</property>
  <property name="meta.media.1.codec.colorspace">601</property>
  <property name="meta.media.1.codec.color_trc">15</property>
  <property name="meta.media.1.codec.name">h264</property>
  <property name="meta.media.1.codec.long_name">H.264 / AVC / MPEG-4 AVC / MPEG-4 part 10</property>
  <property name="meta.media.1.codec.bit_rate">22077090</property>
  <property name="meta.attr.1.stream.creation_time.markup">2019-11-01T20:33:21.000000Z</property>
  <property name="meta.attr.1.stream.language.markup">eng</property>
  <property name="meta.attr.1.stream.handler_name.markup">VideoHandle</property>
  <property name="meta.attr.major_brand.markup">mp42</property>
  <property name="meta.attr.minor_version.markup">0</property>
  <property name="meta.attr.compatible_brands.markup">isommp42</property>
  <property name="meta.attr.creation_time.markup">2019-11-01T20:33:21.000000Z</property>
  <property name="meta.attr.location.markup">+36.7265-004.3817/</property>
  <property name="meta.attr.location-eng.markup">+36.7265-004.3817/</property>
  <property name="meta.attr.com.android.version.markup">10</property>
  <property name="seekable">1</property>
  <property name="meta.media.sample_aspect_num">1</property>
  <property name="meta.media.sample_aspect_den">1</property>
  <property name="aspect_ratio">1</property>
  <property name="kdenlive:folderid">1</property>
  <property name="meta.media.frame_rate_num">60120000</property>
  <property name="meta.media.frame_rate_den">2007689</property>
  <property name="meta.media.colorspace">601</property>
  <property name="meta.media.color_trc">15</property>
  <property name="meta.media.width">1920</property>
  <property name="meta.media.height">1080</property>
  <property name="meta.media.variable_frame_rate">1</property>
  <property name="meta.media.top_field_first">0</property>
  <property name="meta.media.progressive">1</property>
  <property name="kdenlive:file_size">124212416</property>
  <property name="kdenlive:file_hash">586f7a572f344261ee9f05af31fc50ac</property>
 </producer>
 <producer id="77" out="542" in="0">
  <property name="length">543</property>
  <property name="eof">pause</property>
  <property name="resource">videos/VID_20191101_213401.mp4</property>
  <property name="audio_index">0</property>
  <property name="video_index">1</property>
  <property name="mute_on_pause">1</property>
  <property name="mlt_service">avformat-novalidate</property>
  <property name="meta.media.nb_streams">2</property>
  <property name="meta.media.0.stream.type">audio</property>
  <property name="meta.media.0.codec.sample_fmt">fltp</property>
  <property name="meta.media.0.codec.sample_rate">48000</property>
  <property name="meta.media.0.codec.channels">2</property>
  <property name="meta.media.0.codec.name">aac</property>
  <property name="meta.media.0.codec.long_name">AAC (Advanced Audio Coding)</property>
  <property name="meta.media.0.codec.bit_rate">191907</property>
  <property name="meta.attr.0.stream.creation_time.markup">2019-11-01T20:34:01.000000Z</property>
  <property name="meta.attr.0.stream.language.markup">eng</property>
  <property name="meta.attr.0.stream.handler_name.markup">SoundHandle</property>
  <property name="meta.media.1.stream.type">video</property>
  <property name="meta.media.1.stream.frame_rate">30,012</property>
  <property name="meta.media.1.stream.sample_aspect_ratio">1</property>
  <property name="meta.media.1.codec.width">1920</property>
  <property name="meta.media.1.codec.height">1080</property>
  <property name="meta.media.1.codec.rotate">0</property>
  <property name="meta.media.1.codec.frame_rate">90000</property>
  <property name="meta.media.1.codec.pix_fmt">yuvj420p</property>
  <property name="meta.media.1.codec.sample_aspect_ratio">0</property>
  <property name="meta.media.1.codec.colorspace">601</property>
  <property name="meta.media.1.codec.color_trc">15</property>
  <property name="meta.media.1.codec.name">h264</property>
  <property name="meta.media.1.codec.long_name">H.264 / AVC / MPEG-4 AVC / MPEG-4 part 10</property>
  <property name="meta.media.1.codec.bit_rate">22150096</property>
  <property name="meta.attr.1.stream.creation_time.markup">2019-11-01T20:34:01.000000Z</property>
  <property name="meta.attr.1.stream.language.markup">eng</property>
  <property name="meta.attr.1.stream.handler_name.markup">VideoHandle</property>
  <property name="meta.attr.major_brand.markup">mp42</property>
  <property name="meta.attr.minor_version.markup">0</property>
  <property name="meta.attr.compatible_brands.markup">isommp42</property>
  <property name="meta.attr.creation_time.markup">2019-11-01T20:34:01.000000Z</property>
  <property name="meta.attr.com.android.version.markup">10</property>
  <property name="seekable">1</property>
  <property name="meta.media.sample_aspect_num">1</property>
  <property name="meta.media.sample_aspect_den">1</property>
  <property name="aspect_ratio">1</property>
  <property name="kdenlive:folderid">1</property>
  <property name="meta.media.frame_rate_num">58680000</property>
  <property name="meta.media.frame_rate_den">1955221</property>
  <property name="meta.media.colorspace">601</property>
  <property name="meta.media.color_trc">15</property>
  <property name="meta.media.width">1920</property>
  <property name="meta.media.height">1080</property>
  <property name="meta.media.variable_frame_rate">1</property>
  <property name="meta.media.top_field_first">0</property>
  <property name="meta.media.progressive">1</property>
  <property name="kdenlive:file_size">60683542</property>
  <property name="kdenlive:file_hash">3b8beae82a89da0066d278e912c8d87c</property>
 </producer>
 <producer id="78" out="622" in="0">
  <property name="length">623</property>
  <property name="eof">pause</property>
  <property name="resource">videos/VID_20191101_213602.mp4</property>
  <property name="audio_index">0</property>
  <property name="video_index">1</property>
  <property name="mute_on_pause">1</property>
  <property name="mlt_service">avformat-novalidate</property>
  <property name="meta.media.nb_streams">2</property>
  <property name="meta.media.0.stream.type">audio</property>
  <property name="meta.media.0.codec.sample_fmt">fltp</property>
  <property name="meta.media.0.codec.sample_rate">48000</property>
  <property name="meta.media.0.codec.channels">2</property>
  <property name="meta.media.0.codec.name">aac</property>
  <property name="meta.media.0.codec.long_name">AAC (Advanced Audio Coding)</property>
  <property name="meta.media.0.codec.bit_rate">191993</property>
  <property name="meta.attr.0.stream.creation_time.markup">2019-11-01T20:36:02.000000Z</property>
  <property name="meta.attr.0.stream.language.markup">eng</property>
  <property name="meta.attr.0.stream.handler_name.markup">SoundHandle</property>
  <property name="meta.media.1.stream.type">video</property>
  <property name="meta.media.1.stream.frame_rate">29,6891</property>
  <property name="meta.media.1.stream.sample_aspect_ratio">1</property>
  <property name="meta.media.1.codec.width">1920</property>
  <property name="meta.media.1.codec.height">1080</property>
  <property name="meta.media.1.codec.rotate">0</property>
  <property name="meta.media.1.codec.frame_rate">90000</property>
  <property name="meta.media.1.codec.pix_fmt">yuvj420p</property>
  <property name="meta.media.1.codec.sample_aspect_ratio">0</property>
  <property name="meta.media.1.codec.colorspace">601</property>
  <property name="meta.media.1.codec.color_trc">15</property>
  <property name="meta.media.1.codec.name">h264</property>
  <property name="meta.media.1.codec.long_name">H.264 / AVC / MPEG-4 AVC / MPEG-4 part 10</property>
  <property name="meta.media.1.codec.bit_rate">22036246</property>
  <property name="meta.attr.1.stream.creation_time.markup">2019-11-01T20:36:02.000000Z</property>
  <property name="meta.attr.1.stream.language.markup">eng</property>
  <property name="meta.attr.1.stream.handler_name.markup">VideoHandle</property>
  <property name="meta.attr.major_brand.markup">mp42</property>
  <property name="meta.attr.minor_version.markup">0</property>
  <property name="meta.attr.compatible_brands.markup">isommp42</property>
  <property name="meta.attr.creation_time.markup">2019-11-01T20:36:02.000000Z</property>
  <property name="meta.attr.com.android.version.markup">10</property>
  <property name="seekable">1</property>
  <property name="meta.media.sample_aspect_num">1</property>
  <property name="meta.media.sample_aspect_den">1</property>
  <property name="aspect_ratio">1</property>
  <property name="kdenlive:folderid">1</property>
  <property name="meta.media.frame_rate_num">13320000</property>
  <property name="meta.media.frame_rate_den">448649</property>
  <property name="meta.media.colorspace">601</property>
  <property name="meta.media.color_trc">15</property>
  <property name="meta.media.width">1920</property>
  <property name="meta.media.height">1080</property>
  <property name="meta.media.top_field_first">0</property>
  <property name="meta.media.progressive">1</property>
  <property name="kdenlive:file_size">69267565</property>
  <property name="kdenlive:file_hash">e5e67b38050f9e041df608cbae7777e2</property>
 </producer>
 <producer id="79" out="1396" in="0">
  <property name="length">1397</property>
  <property name="eof">pause</property>
  <property name="resource">videos/VID_20191102_101851.mp4</property>
  <property name="audio_index">0</property>
  <property name="video_index">1</property>
  <property name="mute_on_pause">1</property>
  <property name="mlt_service">avformat-novalidate</property>
  <property name="meta.media.nb_streams">2</property>
  <property name="meta.media.0.stream.type">audio</property>
  <property name="meta.media.0.codec.sample_fmt">fltp</property>
  <property name="meta.media.0.codec.sample_rate">48000</property>
  <property name="meta.media.0.codec.channels">2</property>
  <property name="meta.media.0.codec.name">aac</property>
  <property name="meta.media.0.codec.long_name">AAC (Advanced Audio Coding)</property>
  <property name="meta.media.0.codec.bit_rate">191982</property>
  <property name="meta.attr.0.stream.creation_time.markup">2019-11-02T09:18:51.000000Z</property>
  <property name="meta.attr.0.stream.language.markup">eng</property>
  <property name="meta.attr.0.stream.handler_name.markup">SoundHandle</property>
  <property name="meta.media.1.stream.type">video</property>
  <property name="meta.media.1.stream.frame_rate">29,5227</property>
  <property name="meta.media.1.stream.sample_aspect_ratio">1</property>
  <property name="meta.media.1.codec.width">1920</property>
  <property name="meta.media.1.codec.height">1080</property>
  <property name="meta.media.1.codec.rotate">0</property>
  <property name="meta.media.1.codec.frame_rate">90000</property>
  <property name="meta.media.1.codec.pix_fmt">yuvj420p</property>
  <property name="meta.media.1.codec.sample_aspect_ratio">0</property>
  <property name="meta.media.1.codec.colorspace">601</property>
  <property name="meta.media.1.codec.color_trc">15</property>
  <property name="meta.media.1.codec.name">h264</property>
  <property name="meta.media.1.codec.long_name">H.264 / AVC / MPEG-4 AVC / MPEG-4 part 10</property>
  <property name="meta.media.1.codec.bit_rate">22067652</property>
  <property name="meta.attr.1.stream.creation_time.markup">2019-11-02T09:18:51.000000Z</property>
  <property name="meta.attr.1.stream.language.markup">eng</property>
  <property name="meta.attr.1.stream.handler_name.markup">VideoHandle</property>
  <property name="meta.attr.major_brand.markup">mp42</property>
  <property name="meta.attr.minor_version.markup">0</property>
  <property name="meta.attr.compatible_brands.markup">isommp42</property>
  <property name="meta.attr.creation_time.markup">2019-11-02T09:18:51.000000Z</property>
  <property name="meta.attr.location.markup">+36.5821-004.6122/</property>
  <property name="meta.attr.location-eng.markup">+36.5821-004.6122/</property>
  <property name="meta.attr.com.android.version.markup">10</property>
  <property name="seekable">1</property>
  <property name="meta.media.sample_aspect_num">1</property>
  <property name="meta.media.sample_aspect_den">1</property>
  <property name="aspect_ratio">1</property>
  <property name="kdenlive:folderid">1</property>
  <property name="meta.media.frame_rate_num">18562500</property>
  <property name="meta.media.frame_rate_den">628753</property>
  <property name="meta.media.colorspace">601</property>
  <property name="meta.media.color_trc">15</property>
  <property name="meta.media.width">1920</property>
  <property name="meta.media.height">1080</property>
  <property name="meta.media.top_field_first">0</property>
  <property name="meta.media.progressive">1</property>
  <property name="kdenlive:file_size">155532720</property>
  <property name="kdenlive:file_hash">4a1e153c5642232c1a8a43ac1ab7d23f</property>
 </producer>
 <producer id="80" out="2308" in="0">
  <property name="length">2309</property>
  <property name="eof">pause</property>
  <property name="resource">videos/VID_20191102_102103.mp4</property>
  <property name="audio_index">0</property>
  <property name="video_index">1</property>
  <property name="mute_on_pause">1</property>
  <property name="mlt_service">avformat-novalidate</property>
  <property name="meta.media.nb_streams">2</property>
  <property name="meta.media.0.stream.type">audio</property>
  <property name="meta.media.0.codec.sample_fmt">fltp</property>
  <property name="meta.media.0.codec.sample_rate">48000</property>
  <property name="meta.media.0.codec.channels">2</property>
  <property name="meta.media.0.codec.name">aac</property>
  <property name="meta.media.0.codec.long_name">AAC (Advanced Audio Coding)</property>
  <property name="meta.media.0.codec.bit_rate">191890</property>
  <property name="meta.attr.0.stream.creation_time.markup">2019-11-02T09:21:03.000000Z</property>
  <property name="meta.attr.0.stream.language.markup">eng</property>
  <property name="meta.attr.0.stream.handler_name.markup">SoundHandle</property>
  <property name="meta.media.1.stream.type">video</property>
  <property name="meta.media.1.stream.frame_rate">31,1653</property>
  <property name="meta.media.1.stream.sample_aspect_ratio">1</property>
  <property name="meta.media.1.codec.width">1920</property>
  <property name="meta.media.1.codec.height">1080</property>
  <property name="meta.media.1.codec.rotate">0</property>
  <property name="meta.media.1.codec.frame_rate">90000</property>
  <property name="meta.media.1.codec.pix_fmt">yuvj420p</property>
  <property name="meta.media.1.codec.sample_aspect_ratio">0</property>
  <property name="meta.media.1.codec.colorspace">601</property>
  <property name="meta.media.1.codec.color_trc">15</property>
  <property name="meta.media.1.codec.name">h264</property>
  <property name="meta.media.1.codec.long_name">H.264 / AVC / MPEG-4 AVC / MPEG-4 part 10</property>
  <property name="meta.media.1.codec.bit_rate">22401499</property>
  <property name="meta.attr.1.stream.creation_time.markup">2019-11-02T09:21:03.000000Z</property>
  <property name="meta.attr.1.stream.language.markup">eng</property>
  <property name="meta.attr.1.stream.handler_name.markup">VideoHandle</property>
  <property name="meta.attr.major_brand.markup">mp42</property>
  <property name="meta.attr.minor_version.markup">0</property>
  <property name="meta.attr.compatible_brands.markup">isommp42</property>
  <property name="meta.attr.creation_time.markup">2019-11-02T09:21:03.000000Z</property>
  <property name="meta.attr.location.markup">+36.5821-004.6122/</property>
  <property name="meta.attr.location-eng.markup">+36.5821-004.6122/</property>
  <property name="meta.attr.com.android.version.markup">10</property>
  <property name="seekable">1</property>
  <property name="meta.media.sample_aspect_num">1</property>
  <property name="meta.media.sample_aspect_den">1</property>
  <property name="aspect_ratio">1</property>
  <property name="kdenlive:folderid">1</property>
  <property name="meta.media.frame_rate_num">8634000</property>
  <property name="meta.media.frame_rate_den">277039</property>
  <property name="meta.media.colorspace">601</property>
  <property name="meta.media.color_trc">15</property>
  <property name="meta.media.width">1920</property>
  <property name="meta.media.height">1080</property>
  <property name="meta.media.variable_frame_rate">1</property>
  <property name="meta.media.top_field_first">0</property>
  <property name="meta.media.progressive">1</property>
  <property name="kdenlive:file_size">260838736</property>
  <property name="kdenlive:file_hash">b3b8f2f5245f74a2c11dee899b45b3dd</property>
 </producer>
 <producer id="81" out="222" in="0">
  <property name="length">223</property>
  <property name="eof">pause</property>
  <property name="resource">videos/VID_20191102_105333.mp4</property>
  <property name="audio_index">0</property>
  <property name="video_index">1</property>
  <property name="mute_on_pause">1</property>
  <property name="mlt_service">avformat-novalidate</property>
  <property name="meta.media.nb_streams">2</property>
  <property name="meta.media.0.stream.type">audio</property>
  <property name="meta.media.0.codec.sample_fmt">fltp</property>
  <property name="meta.media.0.codec.sample_rate">48000</property>
  <property name="meta.media.0.codec.channels">2</property>
  <property name="meta.media.0.codec.name">aac</property>
  <property name="meta.media.0.codec.long_name">AAC (Advanced Audio Coding)</property>
  <property name="meta.media.0.codec.bit_rate">191637</property>
  <property name="meta.attr.0.stream.creation_time.markup">2019-11-02T09:53:33.000000Z</property>
  <property name="meta.attr.0.stream.language.markup">eng</property>
  <property name="meta.attr.0.stream.handler_name.markup">SoundHandle</property>
  <property name="meta.media.1.stream.type">video</property>
  <property name="meta.media.1.stream.frame_rate">29,7877</property>
  <property name="meta.media.1.stream.sample_aspect_ratio">1</property>
  <property name="meta.media.1.codec.width">1920</property>
  <property name="meta.media.1.codec.height">1080</property>
  <property name="meta.media.1.codec.rotate">0</property>
  <property name="meta.media.1.codec.frame_rate">90000</property>
  <property name="meta.media.1.codec.pix_fmt">yuvj420p</property>
  <property name="meta.media.1.codec.sample_aspect_ratio">0</property>
  <property name="meta.media.1.codec.colorspace">601</property>
  <property name="meta.media.1.codec.color_trc">15</property>
  <property name="meta.media.1.codec.name">h264</property>
  <property name="meta.media.1.codec.long_name">H.264 / AVC / MPEG-4 AVC / MPEG-4 part 10</property>
  <property name="meta.media.1.codec.bit_rate">22533756</property>
  <property name="meta.attr.1.stream.creation_time.markup">2019-11-02T09:53:33.000000Z</property>
  <property name="meta.attr.1.stream.language.markup">eng</property>
  <property name="meta.attr.1.stream.handler_name.markup">VideoHandle</property>
  <property name="meta.attr.major_brand.markup">mp42</property>
  <property name="meta.attr.minor_version.markup">0</property>
  <property name="meta.attr.compatible_brands.markup">isommp42</property>
  <property name="meta.attr.creation_time.markup">2019-11-02T09:53:33.000000Z</property>
  <property name="meta.attr.location.markup">+36.7207-004.4331/</property>
  <property name="meta.attr.location-eng.markup">+36.7207-004.4331/</property>
  <property name="meta.attr.com.android.version.markup">10</property>
  <property name="seekable">1</property>
  <property name="meta.media.sample_aspect_num">1</property>
  <property name="meta.media.sample_aspect_den">1</property>
  <property name="aspect_ratio">1</property>
  <property name="kdenlive:folderid">1</property>
  <property name="meta.media.frame_rate_num">4770000</property>
  <property name="meta.media.frame_rate_den">160133</property>
  <property name="meta.media.colorspace">601</property>
  <property name="meta.media.color_trc">15</property>
  <property name="meta.media.width">1920</property>
  <property name="meta.media.height">1080</property>
  <property name="meta.media.variable_frame_rate">1</property>
  <property name="meta.media.top_field_first">0</property>
  <property name="meta.media.progressive">1</property>
  <property name="kdenlive:file_size">25279669</property>
  <property name="kdenlive:file_hash">3cd421f051c7e60291e4e2f948df2e30</property>
 </producer>
 <producer id="82" out="34" in="0">
  <property name="length">35</property>
  <property name="eof">pause</property>
  <property name="resource">videos/VID_20191102_110003.mp4</property>
  <property name="audio_index">0</property>
  <property name="video_index">1</property>
  <property name="mute_on_pause">1</property>
  <property name="mlt_service">avformat-novalidate</property>
  <property name="meta.media.nb_streams">2</property>
  <property name="meta.media.0.stream.type">audio</property>
  <property name="meta.media.0.codec.sample_fmt">fltp</property>
  <property name="meta.media.0.codec.sample_rate">48000</property>
  <property name="meta.media.0.codec.channels">2</property>
  <property name="meta.media.0.codec.name">aac</property>
  <property name="meta.media.0.codec.long_name">AAC (Advanced Audio Coding)</property>
  <property name="meta.media.0.codec.bit_rate">193113</property>
  <property name="meta.attr.0.stream.creation_time.markup">2019-11-02T10:00:03.000000Z</property>
  <property name="meta.attr.0.stream.language.markup">eng</property>
  <property name="meta.attr.0.stream.handler_name.markup">SoundHandle</property>
  <property name="meta.media.1.stream.type">video</property>
  <property name="meta.media.1.stream.frame_rate">52,6026</property>
  <property name="meta.media.1.stream.sample_aspect_ratio">1</property>
  <property name="meta.media.1.codec.width">1920</property>
  <property name="meta.media.1.codec.height">1080</property>
  <property name="meta.media.1.codec.rotate">0</property>
  <property name="meta.media.1.codec.frame_rate">90000</property>
  <property name="meta.media.1.codec.pix_fmt">yuvj420p</property>
  <property name="meta.media.1.codec.sample_aspect_ratio">0</property>
  <property name="meta.media.1.codec.colorspace">601</property>
  <property name="meta.media.1.codec.color_trc">15</property>
  <property name="meta.media.1.codec.name">h264</property>
  <property name="meta.media.1.codec.long_name">H.264 / AVC / MPEG-4 AVC / MPEG-4 part 10</property>
  <property name="meta.media.1.codec.bit_rate">33850745</property>
  <property name="meta.attr.1.stream.creation_time.markup">2019-11-02T10:00:03.000000Z</property>
  <property name="meta.attr.1.stream.language.markup">eng</property>
  <property name="meta.attr.1.stream.handler_name.markup">VideoHandle</property>
  <property name="meta.attr.major_brand.markup">mp42</property>
  <property name="meta.attr.minor_version.markup">0</property>
  <property name="meta.attr.compatible_brands.markup">isommp42</property>
  <property name="meta.attr.creation_time.markup">2019-11-02T10:00:03.000000Z</property>
  <property name="meta.attr.location.markup">+36.5822-004.6118/</property>
  <property name="meta.attr.location-eng.markup">+36.5822-004.6118/</property>
  <property name="meta.attr.com.android.version.markup">10</property>
  <property name="seekable">1</property>
  <property name="meta.media.sample_aspect_num">1</property>
  <property name="meta.media.sample_aspect_den">1</property>
  <property name="aspect_ratio">1</property>
  <property name="kdenlive:folderid">1</property>
  <property name="meta.media.frame_rate_num">6390000</property>
  <property name="meta.media.frame_rate_den">121477</property>
  <property name="meta.media.colorspace">601</property>
  <property name="meta.media.color_trc">15</property>
  <property name="meta.media.width">1920</property>
  <property name="meta.media.height">1080</property>
  <property name="meta.media.variable_frame_rate">1</property>
  <property name="meta.media.top_field_first">0</property>
  <property name="meta.media.progressive">1</property>
  <property name="kdenlive:file_size">5748048</property>
  <property name="kdenlive:file_hash">4173ede6dca5e1a1230e2a5b450b050e</property>
 </producer>
 <producer id="83" out="1773" in="0">
  <property name="length">1774</property>
  <property name="eof">pause</property>
  <property name="resource">videos/VID_20191102_141942.mp4</property>
  <property name="audio_index">0</property>
  <property name="video_index">1</property>
  <property name="mute_on_pause">1</property>
  <property name="mlt_service">avformat-novalidate</property>
  <property name="meta.media.nb_streams">2</property>
  <property name="meta.media.0.stream.type">audio</property>
  <property name="meta.media.0.codec.sample_fmt">fltp</property>
  <property name="meta.media.0.codec.sample_rate">48000</property>
  <property name="meta.media.0.codec.channels">2</property>
  <property name="meta.media.0.codec.name">aac</property>
  <property name="meta.media.0.codec.long_name">AAC (Advanced Audio Coding)</property>
  <property name="meta.media.0.codec.bit_rate">192016</property>
  <property name="meta.attr.0.stream.creation_time.markup">2019-11-02T13:19:42.000000Z</property>
  <property name="meta.attr.0.stream.language.markup">eng</property>
  <property name="meta.attr.0.stream.handler_name.markup">SoundHandle</property>
  <property name="meta.media.1.stream.type">video</property>
  <property name="meta.media.1.stream.frame_rate">33,1414</property>
  <property name="meta.media.1.stream.sample_aspect_ratio">1</property>
  <property name="meta.media.1.codec.width">1920</property>
  <property name="meta.media.1.codec.height">1080</property>
  <property name="meta.media.1.codec.rotate">0</property>
  <property name="meta.media.1.codec.frame_rate">90000</property>
  <property name="meta.media.1.codec.pix_fmt">yuvj420p</property>
  <property name="meta.media.1.codec.sample_aspect_ratio">0</property>
  <property name="meta.media.1.codec.colorspace">601</property>
  <property name="meta.media.1.codec.color_trc">15</property>
  <property name="meta.media.1.codec.name">h264</property>
  <property name="meta.media.1.codec.long_name">H.264 / AVC / MPEG-4 AVC / MPEG-4 part 10</property>
  <property name="meta.media.1.codec.bit_rate">23225797</property>
  <property name="meta.attr.1.stream.creation_time.markup">2019-11-02T13:19:42.000000Z</property>
  <property name="meta.attr.1.stream.language.markup">eng</property>
  <property name="meta.attr.1.stream.handler_name.markup">VideoHandle</property>
  <property name="meta.attr.major_brand.markup">mp42</property>
  <property name="meta.attr.minor_version.markup">0</property>
  <property name="meta.attr.compatible_brands.markup">isommp42</property>
  <property name="meta.attr.creation_time.markup">2019-11-02T13:19:42.000000Z</property>
  <property name="meta.attr.location.markup">+36.7207-004.4331/</property>
  <property name="meta.attr.location-eng.markup">+36.7207-004.4331/</property>
  <property name="meta.attr.com.android.version.markup">10</property>
  <property name="seekable">1</property>
  <property name="meta.media.sample_aspect_num">1</property>
  <property name="meta.media.sample_aspect_den">1</property>
  <property name="aspect_ratio">1</property>
  <property name="kdenlive:folderid">1</property>
  <property name="meta.media.frame_rate_num">211680000</property>
  <property name="meta.media.frame_rate_den">6387181</property>
  <property name="meta.media.colorspace">601</property>
  <property name="meta.media.color_trc">15</property>
  <property name="meta.media.width">1920</property>
  <property name="meta.media.height">1080</property>
  <property name="meta.media.variable_frame_rate">1</property>
  <property name="meta.media.top_field_first">0</property>
  <property name="meta.media.progressive">1</property>
  <property name="kdenlive:file_size">207773116</property>
  <property name="kdenlive:file_hash">9b9455d0ba8846c5fbbe45d1ac03dff4</property>
 </producer>
 <producer id="84" out="1173" in="0">
  <property name="length">1174</property>
  <property name="eof">pause</property>
  <property name="resource">videos/VID_20191102_150020.mp4</property>
  <property name="audio_index">0</property>
  <property name="video_index">1</property>
  <property name="mute_on_pause">1</property>
  <property name="mlt_service">avformat-novalidate</property>
  <property name="meta.media.nb_streams">2</property>
  <property name="meta.media.0.stream.type">audio</property>
  <property name="meta.media.0.codec.sample_fmt">fltp</property>
  <property name="meta.media.0.codec.sample_rate">48000</property>
  <property name="meta.media.0.codec.channels">2</property>
  <property name="meta.media.0.codec.name">aac</property>
  <property name="meta.media.0.codec.long_name">AAC (Advanced Audio Coding)</property>
  <property name="meta.media.0.codec.bit_rate">192007</property>
  <property name="meta.attr.0.stream.creation_time.markup">2019-11-02T14:00:20.000000Z</property>
  <property name="meta.attr.0.stream.language.markup">eng</property>
  <property name="meta.attr.0.stream.handler_name.markup">SoundHandle</property>
  <property name="meta.media.1.stream.type">video</property>
  <property name="meta.media.1.stream.frame_rate">29,7893</property>
  <property name="meta.media.1.stream.sample_aspect_ratio">1</property>
  <property name="meta.media.1.codec.width">1920</property>
  <property name="meta.media.1.codec.height">1080</property>
  <property name="meta.media.1.codec.rotate">0</property>
  <property name="meta.media.1.codec.frame_rate">90000</property>
  <property name="meta.media.1.codec.pix_fmt">yuvj420p</property>
  <property name="meta.media.1.codec.sample_aspect_ratio">0</property>
  <property name="meta.media.1.codec.colorspace">601</property>
  <property name="meta.media.1.codec.color_trc">15</property>
  <property name="meta.media.1.codec.name">h264</property>
  <property name="meta.media.1.codec.long_name">H.264 / AVC / MPEG-4 AVC / MPEG-4 part 10</property>
  <property name="meta.media.1.codec.bit_rate">22028320</property>
  <property name="meta.attr.1.stream.creation_time.markup">2019-11-02T14:00:20.000000Z</property>
  <property name="meta.attr.1.stream.language.markup">eng</property>
  <property name="meta.attr.1.stream.handler_name.markup">VideoHandle</property>
  <property name="meta.attr.major_brand.markup">mp42</property>
  <property name="meta.attr.minor_version.markup">0</property>
  <property name="meta.attr.compatible_brands.markup">isommp42</property>
  <property name="meta.attr.creation_time.markup">2019-11-02T14:00:20.000000Z</property>
  <property name="meta.attr.location.markup">+36.5820-004.6126/</property>
  <property name="meta.attr.location-eng.markup">+36.5820-004.6126/</property>
  <property name="meta.attr.com.android.version.markup">10</property>
  <property name="seekable">1</property>
  <property name="meta.media.sample_aspect_num">1</property>
  <property name="meta.media.sample_aspect_den">1</property>
  <property name="aspect_ratio">1</property>
  <property name="kdenlive:folderid">1</property>
  <property name="meta.media.frame_rate_num">41940000</property>
  <property name="meta.media.frame_rate_den">1407889</property>
  <property name="meta.media.colorspace">601</property>
  <property name="meta.media.color_trc">15</property>
  <property name="meta.media.width">1920</property>
  <property name="meta.media.height">1080</property>
  <property name="meta.media.variable_frame_rate">1</property>
  <property name="meta.media.top_field_first">0</property>
  <property name="meta.media.progressive">1</property>
  <property name="kdenlive:file_size">130371852</property>
  <property name="kdenlive:file_hash">fd13ea8081c9aadbb99cbcd59d3632f2</property>
 </producer>
 <producer id="85" out="4211" in="0">
  <property name="length">4212</property>
  <property name="eof">pause</property>
  <property name="resource">videos/VID_20191102_153341.mp4</property>
  <property name="audio_index">0</property>
  <property name="video_index">1</property>
  <property name="mute_on_pause">1</property>
  <property name="mlt_service">avformat-novalidate</property>
  <property name="meta.media.nb_streams">2</property>
  <property name="meta.media.0.stream.type">audio</property>
  <property name="meta.media.0.codec.sample_fmt">fltp</property>
  <property name="meta.media.0.codec.sample_rate">48000</property>
  <property name="meta.media.0.codec.channels">2</property>
  <property name="meta.media.0.codec.name">aac</property>
  <property name="meta.media.0.codec.long_name">AAC (Advanced Audio Coding)</property>
  <property name="meta.media.0.codec.bit_rate">191991</property>
  <property name="meta.attr.0.stream.creation_time.markup">2019-11-02T14:33:41.000000Z</property>
  <property name="meta.attr.0.stream.language.markup">eng</property>
  <property name="meta.attr.0.stream.handler_name.markup">SoundHandle</property>
  <property name="meta.media.1.stream.type">video</property>
  <property name="meta.media.1.stream.frame_rate">29,6378</property>
  <property name="meta.media.1.stream.sample_aspect_ratio">1</property>
  <property name="meta.media.1.codec.width">1920</property>
  <property name="meta.media.1.codec.height">1080</property>
  <property name="meta.media.1.codec.rotate">0</property>
  <property name="meta.media.1.codec.frame_rate">90000</property>
  <property name="meta.media.1.codec.pix_fmt">yuvj420p</property>
  <property name="meta.media.1.codec.sample_aspect_ratio">0</property>
  <property name="meta.media.1.codec.colorspace">601</property>
  <property name="meta.media.1.codec.color_trc">15</property>
  <property name="meta.media.1.codec.name">h264</property>
  <property name="meta.media.1.codec.long_name">H.264 / AVC / MPEG-4 AVC / MPEG-4 part 10</property>
  <property name="meta.media.1.codec.bit_rate">21990944</property>
  <property name="meta.attr.1.stream.creation_time.markup">2019-11-02T14:33:41.000000Z</property>
  <property name="meta.attr.1.stream.language.markup">eng</property>
  <property name="meta.attr.1.stream.handler_name.markup">VideoHandle</property>
  <property name="meta.attr.major_brand.markup">mp42</property>
  <property name="meta.attr.minor_version.markup">0</property>
  <property name="meta.attr.compatible_brands.markup">isommp42</property>
  <property name="meta.attr.creation_time.markup">2019-11-02T14:33:41.000000Z</property>
  <property name="meta.attr.location.markup">+36.5514-004.6141/</property>
  <property name="meta.attr.location-eng.markup">+36.5514-004.6141/</property>
  <property name="meta.attr.com.android.version.markup">10</property>
  <property name="seekable">1</property>
  <property name="meta.media.sample_aspect_num">1</property>
  <property name="meta.media.sample_aspect_den">1</property>
  <property name="aspect_ratio">1</property>
  <property name="kdenlive:folderid">1</property>
  <property name="meta.media.frame_rate_num">24965000</property>
  <property name="meta.media.frame_rate_den">842337</property>
  <property name="meta.media.colorspace">601</property>
  <property name="meta.media.color_trc">15</property>
  <property name="meta.media.width">1920</property>
  <property name="meta.media.height">1080</property>
  <property name="meta.media.top_field_first">0</property>
  <property name="meta.media.progressive">1</property>
  <property name="kdenlive:file_size">467203035</property>
  <property name="kdenlive:file_hash">0f0482323d5eaa2b3f5b4832bc309bbf</property>
 </producer>
 <producer id="86" out="648" in="0">
  <property name="length">649</property>
  <property name="eof">pause</property>
  <property name="resource">videos/VID_20191102_175045.mp4</property>
  <property name="audio_index">0</property>
  <property name="video_index">1</property>
  <property name="mute_on_pause">1</property>
  <property name="mlt_service">avformat-novalidate</property>
  <property name="meta.media.nb_streams">2</property>
  <property name="meta.media.0.stream.type">audio</property>
  <property name="meta.media.0.codec.sample_fmt">fltp</property>
  <property name="meta.media.0.codec.sample_rate">48000</property>
  <property name="meta.media.0.codec.channels">2</property>
  <property name="meta.media.0.codec.name">aac</property>
  <property name="meta.media.0.codec.long_name">AAC (Advanced Audio Coding)</property>
  <property name="meta.media.0.codec.bit_rate">192082</property>
  <property name="meta.attr.0.stream.creation_time.markup">2019-11-02T16:50:45.000000Z</property>
  <property name="meta.attr.0.stream.language.markup">eng</property>
  <property name="meta.attr.0.stream.handler_name.markup">SoundHandle</property>
  <property name="meta.media.1.stream.type">video</property>
  <property name="meta.media.1.stream.frame_rate">30,0166</property>
  <property name="meta.media.1.stream.sample_aspect_ratio">1</property>
  <property name="meta.media.1.codec.width">1920</property>
  <property name="meta.media.1.codec.height">1080</property>
  <property name="meta.media.1.codec.rotate">0</property>
  <property name="meta.media.1.codec.frame_rate">90000</property>
  <property name="meta.media.1.codec.pix_fmt">yuvj420p</property>
  <property name="meta.media.1.codec.sample_aspect_ratio">0</property>
  <property name="meta.media.1.codec.colorspace">601</property>
  <property name="meta.media.1.codec.color_trc">15</property>
  <property name="meta.media.1.codec.name">h264</property>
  <property name="meta.media.1.codec.long_name">H.264 / AVC / MPEG-4 AVC / MPEG-4 part 10</property>
  <property name="meta.media.1.codec.bit_rate">22077381</property>
  <property name="meta.attr.1.stream.creation_time.markup">2019-11-02T16:50:45.000000Z</property>
  <property name="meta.attr.1.stream.language.markup">eng</property>
  <property name="meta.attr.1.stream.handler_name.markup">VideoHandle</property>
  <property name="meta.attr.major_brand.markup">mp42</property>
  <property name="meta.attr.minor_version.markup">0</property>
  <property name="meta.attr.compatible_brands.markup">isommp42</property>
  <property name="meta.attr.creation_time.markup">2019-11-02T16:50:45.000000Z</property>
  <property name="meta.attr.location.markup">+36.5731-004.6107/</property>
  <property name="meta.attr.location-eng.markup">+36.5731-004.6107/</property>
  <property name="meta.attr.com.android.version.markup">10</property>
  <property name="seekable">1</property>
  <property name="meta.media.sample_aspect_num">1</property>
  <property name="meta.media.sample_aspect_den">1</property>
  <property name="aspect_ratio">1</property>
  <property name="kdenlive:folderid">1</property>
  <property name="meta.media.frame_rate_num">14022000</property>
  <property name="meta.media.frame_rate_den">467141</property>
  <property name="meta.media.colorspace">601</property>
  <property name="meta.media.color_trc">15</property>
  <property name="meta.media.width">1920</property>
  <property name="meta.media.height">1080</property>
  <property name="meta.media.variable_frame_rate">1</property>
  <property name="meta.media.top_field_first">0</property>
  <property name="meta.media.progressive">1</property>
  <property name="kdenlive:file_size">72257341</property>
  <property name="kdenlive:file_hash">6e8c7bfcd10e79df0d225c436770cd03</property>
 </producer>
 <producer id="87" out="1194" in="0">
  <property name="length">1195</property>
  <property name="eof">pause</property>
  <property name="resource">videos/VID_20191102_180900.mp4</property>
  <property name="audio_index">0</property>
  <property name="video_index">1</property>
  <property name="mute_on_pause">1</property>
  <property name="mlt_service">avformat-novalidate</property>
  <property name="meta.media.nb_streams">2</property>
  <property name="meta.media.0.stream.type">audio</property>
  <property name="meta.media.0.codec.sample_fmt">fltp</property>
  <property name="meta.media.0.codec.sample_rate">48000</property>
  <property name="meta.media.0.codec.channels">2</property>
  <property name="meta.media.0.codec.name">aac</property>
  <property name="meta.media.0.codec.long_name">AAC (Advanced Audio Coding)</property>
  <property name="meta.media.0.codec.bit_rate">192043</property>
  <property name="meta.attr.0.stream.creation_time.markup">2019-11-02T17:09:00.000000Z</property>
  <property name="meta.attr.0.stream.language.markup">eng</property>
  <property name="meta.attr.0.stream.handler_name.markup">SoundHandle</property>
  <property name="meta.media.1.stream.type">video</property>
  <property name="meta.media.1.stream.frame_rate">29,9917</property>
  <property name="meta.media.1.stream.sample_aspect_ratio">1</property>
  <property name="meta.media.1.codec.width">1920</property>
  <property name="meta.media.1.codec.height">1080</property>
  <property name="meta.media.1.codec.rotate">0</property>
  <property name="meta.media.1.codec.frame_rate">90000</property>
  <property name="meta.media.1.codec.pix_fmt">yuvj420p</property>
  <property name="meta.media.1.codec.sample_aspect_ratio">0</property>
  <property name="meta.media.1.codec.colorspace">601</property>
  <property name="meta.media.1.codec.color_trc">15</property>
  <property name="meta.media.1.codec.name">h264</property>
  <property name="meta.media.1.codec.long_name">H.264 / AVC / MPEG-4 AVC / MPEG-4 part 10</property>
  <property name="meta.media.1.codec.bit_rate">22078616</property>
  <property name="meta.attr.1.stream.creation_time.markup">2019-11-02T17:09:00.000000Z</property>
  <property name="meta.attr.1.stream.language.markup">eng</property>
  <property name="meta.attr.1.stream.handler_name.markup">VideoHandle</property>
  <property name="meta.attr.major_brand.markup">mp42</property>
  <property name="meta.attr.minor_version.markup">0</property>
  <property name="meta.attr.compatible_brands.markup">isommp42</property>
  <property name="meta.attr.creation_time.markup">2019-11-02T17:09:00.000000Z</property>
  <property name="meta.attr.location.markup">+36.5742-004.6138/</property>
  <property name="meta.attr.location-eng.markup">+36.5742-004.6138/</property>
  <property name="meta.attr.com.android.version.markup">10</property>
  <property name="seekable">1</property>
  <property name="meta.media.sample_aspect_num">1</property>
  <property name="meta.media.sample_aspect_den">1</property>
  <property name="aspect_ratio">1</property>
  <property name="kdenlive:folderid">1</property>
  <property name="meta.media.frame_rate_num">8598000</property>
  <property name="meta.media.frame_rate_den">286679</property>
  <property name="meta.media.colorspace">601</property>
  <property name="meta.media.color_trc">15</property>
  <property name="meta.media.width">1920</property>
  <property name="meta.media.height">1080</property>
  <property name="meta.media.top_field_first">0</property>
  <property name="meta.media.progressive">1</property>
  <property name="kdenlive:file_size">133031828</property>
  <property name="kdenlive:file_hash">33cf43ee4e9ec877174dc518ebe18c8c</property>
 </producer>
 <playlist id="main bin">
  <property name="kdenlive:folder.-1.1">videos</property>
  <property name="kdenlive:docproperties.audiotargettrack">2</property>
  <property name="kdenlive:docproperties.decimalPoint">,</property>
  <property name="kdenlive:docproperties.dirtypreviewchunks"/>
  <property name="kdenlive:docproperties.disablepreview">0</property>
  <property name="kdenlive:docproperties.documentid">1572769974405</property>
  <property name="kdenlive:docproperties.enableproxy">0</property>
  <property name="kdenlive:docproperties.generateimageproxy">0</property>
  <property name="kdenlive:docproperties.generateproxy">0</property>
  <property name="kdenlive:docproperties.kdenliveversion">17.12.3</property>
  <property name="kdenlive:docproperties.position">5136</property>
  <property name="kdenlive:docproperties.previewchunks"/>
  <property name="kdenlive:docproperties.previewextension"/>
  <property name="kdenlive:docproperties.previewparameters"/>
  <property name="kdenlive:docproperties.profile">atsc_1080p_25</property>
  <property name="kdenlive:docproperties.proxyextension">mkv</property>
  <property name="kdenlive:docproperties.proxyimageminsize">2000</property>
  <property name="kdenlive:docproperties.proxyminsize">1000</property>
  <property name="kdenlive:docproperties.proxyparams">-vf yadif,scale=960:-2 -qscale 3 -vcodec mjpeg -acodec pcm_s16le</property>
  <property name="kdenlive:docproperties.version">0.96</property>
  <property name="kdenlive:docproperties.verticalzoom">1</property>
  <property name="kdenlive:docproperties.videotargettrack">3</property>
  <property name="kdenlive:docproperties.zonein">0</property>
  <property name="kdenlive:docproperties.zoneout">100</property>
  <property name="kdenlive:docproperties.zoom">9</property>
  <property name="kdenlive:documentnotes"/>
  <property name="kdenlive:clipgroups"/>
  <property name="kdenlive:folder.-1.2">music</property>
  <property name="kdenlive:folder.-1.3">titles</property>
  <property name="kdenlive:docproperties.renderaudioquality">192</property>
  <property name="kdenlive:docproperties.rendercategory">Custom</property>
  <property name="kdenlive:docproperties.renderendguide">-1</property>
  <property name="kdenlive:docproperties.renderexportaudio">0</property>
  <property name="kdenlive:docproperties.renderguide">0</property>
  <property name="kdenlive:docproperties.renderplay">0</property>
  <property name="kdenlive:docproperties.renderprofile">MP4-H265 (HEVC)</property>
  <property name="kdenlive:docproperties.renderquality">15</property>
  <property name="kdenlive:docproperties.renderratio">1</property>
  <property name="kdenlive:docproperties.renderrescale">0</property>
  <property name="kdenlive:docproperties.renderrescaleheight">180</property>
  <property name="kdenlive:docproperties.renderrescalewidth">320</property>
  <property name="kdenlive:docproperties.renderscanning">0</property>
  <property name="kdenlive:docproperties.renderspeed">2</property>
  <property name="kdenlive:docproperties.renderstartguide">-1</property>
  <property name="kdenlive:docproperties.rendertcoverlay">0</property>
  <property name="kdenlive:docproperties.rendertctype">0</property>
  <property name="kdenlive:docproperties.rendertwopass">0</property>
  <property name="kdenlive:docproperties.renderurl">part1.mp4</property>
  <property name="kdenlive:docproperties.renderzone">0</property>
  <property name="xml_retain">1</property>
  <entry out="2095" producer="1" in="0"/>
  <entry out="2460" producer="2" in="0"/>
  <entry out="889" producer="3" in="0"/>
  <entry out="1637" producer="4" in="0"/>
  <entry out="1255" producer="5" in="0"/>
  <entry out="1330" producer="6" in="0"/>
  <entry out="1103" producer="7" in="0"/>
  <entry out="3526" producer="8" in="0"/>
  <entry out="4447" producer="9" in="0"/>
  <entry out="433" producer="10" in="0"/>
  <entry out="461" producer="11" in="0"/>
  <entry out="2063" producer="12" in="0"/>
  <entry out="4174" producer="13" in="0"/>
  <entry out="537" producer="14" in="0"/>
  <entry out="477" producer="15" in="0"/>
  <entry out="615" producer="16" in="0"/>
  <entry out="1112" producer="17" in="0"/>
  <entry out="444" producer="18" in="0"/>
  <entry out="553" producer="19" in="0"/>
  <entry out="160" producer="20" in="0"/>
  <entry out="295" producer="21" in="0"/>
  <entry out="325" producer="22" in="0"/>
  <entry out="261" producer="23" in="0"/>
  <entry out="395" producer="24" in="0"/>
  <entry out="46" producer="25" in="0"/>
  <entry out="994" producer="26" in="0"/>
  <entry out="445" producer="27" in="0"/>
  <entry out="949" producer="28" in="0"/>
  <entry out="1492" producer="29" in="0"/>
  <entry out="278" producer="30" in="0"/>
  <entry out="38" producer="31" in="0"/>
  <entry out="1311" producer="32" in="0"/>
  <entry out="285" producer="33" in="0"/>
  <entry out="621" producer="34" in="0"/>
  <entry out="328" producer="35" in="0"/>
  <entry out="191" producer="36" in="0"/>
  <entry out="966" producer="37" in="0"/>
  <entry out="727" producer="38" in="0"/>
  <entry out="459" producer="39" in="0"/>
  <entry out="193" producer="40" in="0"/>
  <entry out="140" producer="41" in="0"/>
  <entry out="417" producer="42" in="0"/>
  <entry out="423" producer="43" in="0"/>
  <entry out="132" producer="44" in="0"/>
  <entry out="270" producer="45" in="0"/>
  <entry out="226" producer="46" in="0"/>
  <entry out="217" producer="47" in="0"/>
  <entry out="783" producer="48" in="0"/>
  <entry out="313" producer="49" in="0"/>
  <entry out="179" producer="50" in="0"/>
  <entry out="4886" producer="51" in="0"/>
  <entry out="5463" producer="52" in="0"/>
  <entry out="5775" producer="53" in="0"/>
  <entry out="149" producer="54" in="0"/>
  <entry out="1071" producer="55" in="0"/>
  <entry out="982" producer="56" in="0"/>
  <entry out="1628" producer="57" in="0"/>
  <entry out="385" producer="58" in="0"/>
  <entry out="543" producer="59" in="0"/>
  <entry out="446" producer="60" in="0"/>
  <entry out="267" producer="61" in="0"/>
  <entry out="2732" producer="62" in="0"/>
  <entry out="480" producer="63" in="0"/>
  <entry out="3132" producer="64" in="0"/>
  <entry out="1589" producer="65" in="0"/>
  <entry out="744" producer="66" in="0"/>
  <entry out="145" producer="67" in="0"/>
  <entry out="1133" producer="68" in="0"/>
  <entry out="1772" producer="69" in="0"/>
  <entry out="1978" producer="70" in="0"/>
  <entry out="2508" producer="71" in="0"/>
  <entry out="2085" producer="72" in="0"/>
  <entry out="1005" producer="73" in="0"/>
  <entry out="292" producer="74" in="0"/>
  <entry out="1617" producer="75" in="0"/>
  <entry out="1115" producer="76" in="0"/>
  <entry out="542" producer="77" in="0"/>
  <entry out="622" producer="78" in="0"/>
  <entry out="1396" producer="79" in="0"/>
  <entry out="2308" producer="80" in="0"/>
  <entry out="222" producer="81" in="0"/>
  <entry out="34" producer="82" in="0"/>
  <entry out="1773" producer="83" in="0"/>
  <entry out="1173" producer="84" in="0"/>
  <entry out="4211" producer="85" in="0"/>
  <entry out="648" producer="86" in="0"/>
  <entry out="1194" producer="87" in="0"/>
 </playlist>
 <producer id="black" out="43685" in="0">
  <property name="length">43686</property>
  <property name="eof">pause</property>
  <property name="resource">black</property>
  <property name="aspect_ratio">1</property>
  <property name="mlt_service">colour</property>
  <property name="set.test_audio">0</property>
 </producer>
 <playlist id="black_track">
  <entry out="5444" producer="black" in="0"/>
 </playlist>
 <producer id="53_playlist1" title="Anonymous Submission" out="5775" in="0">
  <property name="length">5776</property>
  <property name="eof">pause</property>
  <property name="resource">/opt/vlog/musica/ikson/Ikson - Paradise.wav</property>
  <property name="audio_index">0</property>
  <property name="video_index">-1</property>
  <property name="mute_on_pause">1</property>
  <property name="mlt_service">avformat-novalidate</property>
  <property name="seekable">1</property>
  <property name="kdenlive:folderid">2</property>
  <property name="kdenlive:file_size">40754114</property>
  <property name="kdenlive:file_hash">457aaa45cc5b007bc3a24b69eb6acf23</property>
  <property name="global_feed">1</property>
  <property name="xml">was here</property>
  <property name="meta.media.nb_streams">1</property>
  <property name="meta.media.0.stream.type">audio</property>
  <property name="meta.media.0.codec.sample_fmt">s16</property>
  <property name="meta.media.0.codec.sample_rate">44100</property>
  <property name="meta.media.0.codec.channels">2</property>
  <property name="meta.media.0.codec.name">pcm_s16le</property>
  <property name="meta.media.0.codec.long_name">PCM signed 16-bit little-endian</property>
  <property name="meta.media.0.codec.bit_rate">1411200</property>
  <property name="meta.attr.encoder.markup">FL Studio 12</property>
 </producer>
 <playlist id="playlist1">
  <property name="kdenlive:track_name">Audio 2</property>
  <property name="kdenlive:audio_track">1</property>
  <property name="kdenlive:locked_track">0</property>
  <blank length="4735"/>
  <entry out="708" producer="53_playlist1" in="0">
   <filter id="volume">
    <property name="window">75</property>
    <property name="max_gain">20dB</property>
    <property name="level">0=0;686=-6;696~=-28;705~=-36;708~=-58</property>
    <property name="mlt_service">volume</property>
    <property name="kdenlive_id">volume</property>
    <property name="tag">volume</property>
    <property name="kdenlive_ix">1</property>
    <property name="kdenlive_info"/>
    <property name="disable"/>
   </filter>
  </entry>
 </playlist>
 <producer id="51_playlist2" title="Anonymous Submission" out="4886" in="0">
  <property name="length">4887</property>
  <property name="eof">pause</property>
  <property name="resource">/opt/vlog/musica/ikson/Ikson - To You (Official).wav</property>
  <property name="audio_index">0</property>
  <property name="video_index">-1</property>
  <property name="mute_on_pause">1</property>
  <property name="mlt_service">avformat-novalidate</property>
  <property name="seekable">1</property>
  <property name="kdenlive:folderid">2</property>
  <property name="kdenlive:file_size">34479982</property>
  <property name="kdenlive:file_hash">bf6534ae03238030094d11cfc877b837</property>
  <property name="global_feed">1</property>
  <property name="xml">was here</property>
  <property name="meta.media.nb_streams">1</property>
  <property name="meta.media.0.stream.type">audio</property>
  <property name="meta.media.0.codec.sample_fmt">s16</property>
  <property name="meta.media.0.codec.sample_rate">44100</property>
  <property name="meta.media.0.codec.channels">2</property>
  <property name="meta.media.0.codec.name">pcm_s16le</property>
  <property name="meta.media.0.codec.long_name">PCM signed 16-bit little-endian</property>
  <property name="meta.media.0.codec.bit_rate">1411200</property>
  <property name="meta.attr.encoder.markup">FL Studio 20</property>
 </producer>
 <playlist id="playlist2">
  <property name="kdenlive:track_name">Audio 1</property>
  <property name="kdenlive:audio_track">1</property>
  <property name="kdenlive:locked_track">1</property>
  <entry out="4886" producer="51_playlist2" in="27">
   <filter id="filter0">
    <property name="window">75</property>
    <property name="max_gain">20dB</property>
    <property name="level">0=-14;27=-20;930~=-20;946=2;1137~=-2;1150=-25;1569=-25;1584=0;2115=-2;2134~=-20;2503=-20;2528~=0;4747~=-2;4772~=-32;-2=-60</property>
    <property name="mlt_service">volume</property>
    <property name="kdenlive_id">volume</property>
    <property name="tag">volume</property>
    <property name="kdenlive_ix">1</property>
    <property name="kdenlive_info"/>
    <property name="disable"/>
   </filter>
  </entry>
 </playlist>
 <playlist id="playlist3">
  <property name="kdenlive:track_name">Video 1</property>
 </playlist>
 <producer id="slowmotion:4:3:1:0" out="545" in="0">
  <property name="length">546</property>
  <property name="eof">pause</property>
  <property name="resource">3:videos/VID_20191026_095334.mp4</property>
  <property name="aspect_ratio">1</property>
  <property name="meta.media.nb_streams">2</property>
  <property name="meta.media.0.stream.type">audio</property>
  <property name="meta.media.0.codec.sample_fmt">fltp</property>
  <property name="meta.media.0.codec.sample_rate">48000</property>
  <property name="meta.media.0.codec.channels">2</property>
  <property name="meta.media.0.codec.name">aac</property>
  <property name="meta.media.0.codec.long_name">AAC (Advanced Audio Coding)</property>
  <property name="meta.media.0.codec.bit_rate">191998</property>
  <property name="meta.attr.0.stream.creation_time.markup">2019-10-26T07:53:34.000000Z</property>
  <property name="meta.attr.0.stream.language.markup">eng</property>
  <property name="meta.attr.0.stream.handler_name.markup">SoundHandle</property>
  <property name="meta.media.1.stream.type">video</property>
  <property name="meta.media.1.stream.frame_rate">30,012</property>
  <property name="meta.media.1.stream.sample_aspect_ratio">1</property>
  <property name="meta.media.1.codec.width">1920</property>
  <property name="meta.media.1.codec.height">1080</property>
  <property name="meta.media.1.codec.rotate">0</property>
  <property name="meta.media.1.codec.frame_rate">90000</property>
  <property name="meta.media.1.codec.pix_fmt">yuvj420p</property>
  <property name="meta.media.1.codec.sample_aspect_ratio">0</property>
  <property name="meta.media.1.codec.colorspace">601</property>
  <property name="meta.media.1.codec.color_trc">15</property>
  <property name="meta.media.1.codec.name">h264</property>
  <property name="meta.media.1.codec.long_name">H.264 / AVC / MPEG-4 AVC / MPEG-4 part 10</property>
  <property name="meta.media.1.codec.bit_rate">22063690</property>
  <property name="meta.attr.1.stream.creation_time.markup">2019-10-26T07:53:34.000000Z</property>
  <property name="meta.attr.1.stream.language.markup">eng</property>
  <property name="meta.attr.1.stream.handler_name.markup">VideoHandle</property>
  <property name="meta.attr.major_brand.markup">mp42</property>
  <property name="meta.attr.minor_version.markup">0</property>
  <property name="meta.attr.compatible_brands.markup">isommp42</property>
  <property name="meta.attr.creation_time.markup">2019-10-26T07:53:34.000000Z</property>
  <property name="meta.attr.location.markup">+47.2441+009.6066/</property>
  <property name="meta.attr.location-eng.markup">+47.2441+009.6066/</property>
  <property name="meta.attr.com.android.version.markup">10</property>
  <property name="seekable">1</property>
  <property name="meta.media.sample_aspect_num">1</property>
  <property name="meta.media.sample_aspect_den">1</property>
  <property name="audio_index">0</property>
  <property name="video_index">1</property>
  <property name="mute_on_pause">1</property>
  <property name="warp_speed">3</property>
  <property name="warp_resource">videos/VID_20191026_095334.mp4</property>
  <property name="mlt_service">timewarp</property>
  <property name="meta.media.frame_rate_num">19660000</property>
  <property name="meta.media.frame_rate_den">655071</property>
  <property name="meta.media.colorspace">601</property>
  <property name="meta.media.color_trc">15</property>
  <property name="meta.media.width">1920</property>
  <property name="meta.media.height">1080</property>
  <property name="meta.media.top_field_first">0</property>
  <property name="meta.media.progressive">1</property>
 </producer>
 <producer id="50_playlist4" title="Anonymous Submission" out="179" in="0">
  <property name="length">180</property>
  <property name="eof">pause</property>
  <property name="resource">videos/VID_20191029_122719.mp4</property>
  <property name="audio_index">0</property>
  <property name="video_index">1</property>
  <property name="mute_on_pause">1</property>
  <property name="mlt_service">avformat-novalidate</property>
  <property name="seekable">1</property>
  <property name="aspect_ratio">1</property>
  <property name="kdenlive:folderid">1</property>
  <property name="kdenlive:file_size">20287600</property>
  <property name="kdenlive:file_hash">4840518362a1add37a1fc53344bfc0b4</property>
  <property name="global_feed">1</property>
  <property name="xml">was here</property>
  <property name="meta.media.nb_streams">2</property>
  <property name="meta.media.0.stream.type">audio</property>
  <property name="meta.media.0.codec.sample_fmt">fltp</property>
  <property name="meta.media.0.codec.sample_rate">48000</property>
  <property name="meta.media.0.codec.channels">2</property>
  <property name="meta.media.0.codec.name">aac</property>
  <property name="meta.media.0.codec.long_name">AAC (Advanced Audio Coding)</property>
  <property name="meta.media.0.codec.bit_rate">191542</property>
  <property name="meta.attr.0.stream.creation_time.markup">2019-10-29T11:27:19.000000Z</property>
  <property name="meta.attr.0.stream.language.markup">eng</property>
  <property name="meta.attr.0.stream.handler_name.markup">SoundHandle</property>
  <property name="meta.media.1.stream.type">video</property>
  <property name="meta.media.1.stream.frame_rate">30,0117</property>
  <property name="meta.media.1.stream.sample_aspect_ratio">1</property>
  <property name="meta.media.1.codec.width">1920</property>
  <property name="meta.media.1.codec.height">1080</property>
  <property name="meta.media.1.codec.rotate">0</property>
  <property name="meta.media.1.codec.frame_rate">90000</property>
  <property name="meta.media.1.codec.pix_fmt">yuvj420p</property>
  <property name="meta.media.1.codec.sample_aspect_ratio">0</property>
  <property name="meta.media.1.codec.colorspace">601</property>
  <property name="meta.media.1.codec.color_trc">15</property>
  <property name="meta.media.1.codec.name">h264</property>
  <property name="meta.media.1.codec.long_name">H.264 / AVC / MPEG-4 AVC / MPEG-4 part 10</property>
  <property name="meta.media.1.codec.bit_rate">22351181</property>
  <property name="meta.attr.1.stream.creation_time.markup">2019-10-29T11:27:19.000000Z</property>
  <property name="meta.attr.1.stream.language.markup">eng</property>
  <property name="meta.attr.1.stream.handler_name.markup">VideoHandle</property>
  <property name="meta.attr.major_brand.markup">mp42</property>
  <property name="meta.attr.minor_version.markup">0</property>
  <property name="meta.attr.compatible_brands.markup">isommp42</property>
  <property name="meta.attr.creation_time.markup">2019-10-29T11:27:19.000000Z</property>
  <property name="meta.attr.location.markup">+36.7180-004.4202/</property>
  <property name="meta.attr.location-eng.markup">+36.7180-004.4202/</property>
  <property name="meta.attr.com.android.version.markup">10</property>
  <property name="meta.media.sample_aspect_num">1</property>
  <property name="meta.media.sample_aspect_den">1</property>
  <property name="meta.media.frame_rate_num">540000</property>
  <property name="meta.media.frame_rate_den">17993</property>
  <property name="meta.media.colorspace">601</property>
  <property name="meta.media.color_trc">15</property>
  <property name="meta.media.width">1920</property>
  <property name="meta.media.height">1080</property>
  <property name="meta.media.top_field_first">0</property>
  <property name="meta.media.progressive">1</property>
 </producer>
 <playlist id="playlist4">
  <property name="kdenlive:track_name">Video 2</property>
  <blank length="897"/>
  <entry out="146" producer="slowmotion:4:3:1:0" in="0">
   <filter id="mute">
    <property name="window">75</property>
    <property name="max_gain">20dB</property>
    <property name="mlt_service">volume</property>
    <property name="kdenlive_id">mute</property>
    <property name="tag">volume</property>
    <property name="kdenlive_ix">2</property>
    <property name="gain">0</property>
   </filter>
   <filter id="fade_from_black" out="7">
    <property name="start">0</property>
    <property name="mlt_service">brightness</property>
    <property name="kdenlive_id">fade_from_black</property>
    <property name="tag">brightness</property>
    <property name="kdenlive_ix">3</property>
    <property name="end">1</property>
   </filter>
  </entry>
  <blank length="4282"/>
  <entry out="117" producer="50_playlist4" in="0">
   <filter id="filter2">
    <property name="window">75</property>
    <property name="max_gain">20dB</property>
    <property name="mlt_service">volume</property>
    <property name="kdenlive_id">mute</property>
    <property name="tag">volume</property>
    <property name="kdenlive_ix">1</property>
    <property name="gain">0</property>
   </filter>
  </entry>
 </playlist>
 <producer id="1_playlist5" title="Anonymous Submission" out="2095" in="0">
  <property name="length">2096</property>
  <property name="eof">pause</property>
  <property name="resource">videos/VID_20191026_090740.mp4</property>
  <property name="audio_index">0</property>
  <property name="video_index">1</property>
  <property name="mute_on_pause">1</property>
  <property name="mlt_service">avformat-novalidate</property>
  <property name="seekable">1</property>
  <property name="aspect_ratio">1</property>
  <property name="kdenlive:folderid">1</property>
  <property name="kdenlive:file_size">232901766</property>
  <property name="kdenlive:file_hash">476dfd97f3312ee5ea254e030e3f5d88</property>
  <property name="global_feed">1</property>
  <property name="xml">was here</property>
  <property name="meta.media.nb_streams">2</property>
  <property name="meta.media.0.stream.type">audio</property>
  <property name="meta.media.0.codec.sample_fmt">fltp</property>
  <property name="meta.media.0.codec.sample_rate">48000</property>
  <property name="meta.media.0.codec.channels">2</property>
  <property name="meta.media.0.codec.name">aac</property>
  <property name="meta.media.0.codec.long_name">AAC (Advanced Audio Coding)</property>
  <property name="meta.media.0.codec.bit_rate">192021</property>
  <property name="meta.attr.0.stream.creation_time.markup">2019-10-26T07:07:40.000000Z</property>
  <property name="meta.attr.0.stream.language.markup">eng</property>
  <property name="meta.attr.0.stream.handler_name.markup">SoundHandle</property>
  <property name="meta.media.1.stream.type">video</property>
  <property name="meta.media.1.stream.frame_rate">30,1335</property>
  <property name="meta.media.1.stream.sample_aspect_ratio">1</property>
  <property name="meta.media.1.codec.width">1920</property>
  <property name="meta.media.1.codec.height">1080</property>
  <property name="meta.media.1.codec.rotate">0</property>
  <property name="meta.media.1.codec.frame_rate">90000</property>
  <property name="meta.media.1.codec.pix_fmt">yuvj420p</property>
  <property name="meta.media.1.codec.sample_aspect_ratio">0</property>
  <property name="meta.media.1.codec.colorspace">601</property>
  <property name="meta.media.1.codec.color_trc">15</property>
  <property name="meta.media.1.codec.name">h264</property>
  <property name="meta.media.1.codec.long_name">H.264 / AVC / MPEG-4 AVC / MPEG-4 part 10</property>
  <property name="meta.media.1.codec.bit_rate">22040176</property>
  <property name="meta.attr.1.stream.creation_time.markup">2019-10-26T07:07:40.000000Z</property>
  <property name="meta.attr.1.stream.language.markup">eng</property>
  <property name="meta.attr.1.stream.handler_name.markup">VideoHandle</property>
  <property name="meta.attr.major_brand.markup">mp42</property>
  <property name="meta.attr.minor_version.markup">0</property>
  <property name="meta.attr.compatible_brands.markup">isommp42</property>
  <property name="meta.attr.creation_time.markup">2019-10-26T07:07:40.000000Z</property>
  <property name="meta.attr.location.markup">+47.2436+009.6049/</property>
  <property name="meta.attr.location-eng.markup">+47.2436+009.6049/</property>
  <property name="meta.attr.com.android.version.markup">10</property>
  <property name="meta.media.sample_aspect_num">1</property>
  <property name="meta.media.sample_aspect_den">1</property>
  <property name="meta.media.frame_rate_num">227250000</property>
  <property name="meta.media.frame_rate_den">7541449</property>
  <property name="meta.media.colorspace">601</property>
  <property name="meta.media.color_trc">15</property>
  <property name="meta.media.width">1920</property>
  <property name="meta.media.height">1080</property>
  <property name="meta.media.variable_frame_rate">1</property>
  <property name="meta.media.top_field_first">0</property>
  <property name="meta.media.progressive">1</property>
 </producer>
 <producer id="slowmotion:5:3:1:0" out="418" in="0">
  <property name="length">419</property>
  <property name="eof">pause</property>
  <property name="resource">3:videos/VID_20191026_095630.mp4</property>
  <property name="aspect_ratio">1</property>
  <property name="meta.media.nb_streams">2</property>
  <property name="meta.media.0.stream.type">audio</property>
  <property name="meta.media.0.codec.sample_fmt">fltp</property>
  <property name="meta.media.0.codec.sample_rate">48000</property>
  <property name="meta.media.0.codec.channels">2</property>
  <property name="meta.media.0.codec.name">aac</property>
  <property name="meta.media.0.codec.long_name">AAC (Advanced Audio Coding)</property>
  <property name="meta.media.0.codec.bit_rate">192016</property>
  <property name="meta.attr.0.stream.creation_time.markup">2019-10-26T07:56:30.000000Z</property>
  <property name="meta.attr.0.stream.language.markup">eng</property>
  <property name="meta.attr.0.stream.handler_name.markup">SoundHandle</property>
  <property name="meta.media.1.stream.type">video</property>
  <property name="meta.media.1.stream.frame_rate">30,0113</property>
  <property name="meta.media.1.stream.sample_aspect_ratio">1</property>
  <property name="meta.media.1.codec.width">1920</property>
  <property name="meta.media.1.codec.height">1080</property>
  <property name="meta.media.1.codec.rotate">0</property>
  <property name="meta.media.1.codec.frame_rate">90000</property>
  <property name="meta.media.1.codec.pix_fmt">yuvj420p</property>
  <property name="meta.media.1.codec.sample_aspect_ratio">0</property>
  <property name="meta.media.1.codec.colorspace">601</property>
  <property name="meta.media.1.codec.color_trc">15</property>
  <property name="meta.media.1.codec.name">h264</property>
  <property name="meta.media.1.codec.long_name">H.264 / AVC / MPEG-4 AVC / MPEG-4 part 10</property>
  <property name="meta.media.1.codec.bit_rate">22104544</property>
  <property name="meta.attr.1.stream.creation_time.markup">2019-10-26T07:56:30.000000Z</property>
  <property name="meta.attr.1.stream.language.markup">eng</property>
  <property name="meta.attr.1.stream.handler_name.markup">VideoHandle</property>
  <property name="meta.attr.major_brand.markup">mp42</property>
  <property name="meta.attr.minor_version.markup">0</property>
  <property name="meta.attr.compatible_brands.markup">isommp42</property>
  <property name="meta.attr.creation_time.markup">2019-10-26T07:56:30.000000Z</property>
  <property name="meta.attr.location.markup">+47.2215+009.5720/</property>
  <property name="meta.attr.location-eng.markup">+47.2215+009.5720/</property>
  <property name="meta.attr.com.android.version.markup">10</property>
  <property name="seekable">1</property>
  <property name="meta.media.sample_aspect_num">1</property>
  <property name="meta.media.sample_aspect_den">1</property>
  <property name="audio_index">0</property>
  <property name="video_index">1</property>
  <property name="mute_on_pause">1</property>
  <property name="warp_speed">3</property>
  <property name="warp_resource">videos/VID_20191026_095630.mp4</property>
  <property name="mlt_service">timewarp</property>
  <property name="meta.media.frame_rate_num">16953750</property>
  <property name="meta.media.frame_rate_den">564913</property>
  <property name="meta.media.colorspace">601</property>
  <property name="meta.media.color_trc">15</property>
  <property name="meta.media.width">1920</property>
  <property name="meta.media.height">1080</property>
  <property name="meta.media.top_field_first">0</property>
  <property name="meta.media.progressive">1</property>
 </producer>
 <producer id="7_playlist5" title="Anonymous Submission" out="1103" in="0">
  <property name="length">1104</property>
  <property name="eof">pause</property>
  <property name="resource">videos/VID_20191026_122154.mp4</property>
  <property name="audio_index">0</property>
  <property name="video_index">1</property>
  <property name="mute_on_pause">1</property>
  <property name="mlt_service">avformat-novalidate</property>
  <property name="seekable">1</property>
  <property name="aspect_ratio">1</property>
  <property name="kdenlive:folderid">1</property>
  <property name="kdenlive:file_size">122579281</property>
  <property name="kdenlive:file_hash">df463821ffb426a7438cd78762ce1ac5</property>
  <property name="global_feed">1</property>
  <property name="xml">was here</property>
  <property name="meta.media.nb_streams">2</property>
  <property name="meta.media.0.stream.type">audio</property>
  <property name="meta.media.0.codec.sample_fmt">fltp</property>
  <property name="meta.media.0.codec.sample_rate">48000</property>
  <property name="meta.media.0.codec.channels">2</property>
  <property name="meta.media.0.codec.name">aac</property>
  <property name="meta.media.0.codec.long_name">AAC (Advanced Audio Coding)</property>
  <property name="meta.media.0.codec.bit_rate">191996</property>
  <property name="meta.attr.0.stream.creation_time.markup">2019-10-26T10:21:54.000000Z</property>
  <property name="meta.attr.0.stream.language.markup">eng</property>
  <property name="meta.attr.0.stream.handler_name.markup">SoundHandle</property>
  <property name="meta.media.1.stream.type">video</property>
  <property name="meta.media.1.stream.frame_rate">30,0851</property>
  <property name="meta.media.1.stream.sample_aspect_ratio">1</property>
  <property name="meta.media.1.codec.width">1920</property>
  <property name="meta.media.1.codec.height">1080</property>
  <property name="meta.media.1.codec.rotate">0</property>
  <property name="meta.media.1.codec.frame_rate">90000</property>
  <property name="meta.media.1.codec.pix_fmt">yuvj420p</property>
  <property name="meta.media.1.codec.sample_aspect_ratio">0</property>
  <property name="meta.media.1.codec.colorspace">601</property>
  <property name="meta.media.1.codec.color_trc">15</property>
  <property name="meta.media.1.codec.name">h264</property>
  <property name="meta.media.1.codec.long_name">H.264 / AVC / MPEG-4 AVC / MPEG-4 part 10</property>
  <property name="meta.media.1.codec.bit_rate">22019689</property>
  <property name="meta.attr.1.stream.creation_time.markup">2019-10-26T10:21:54.000000Z</property>
  <property name="meta.attr.1.stream.language.markup">eng</property>
  <property name="meta.attr.1.stream.handler_name.markup">VideoHandle</property>
  <property name="meta.attr.major_brand.markup">mp42</property>
  <property name="meta.attr.minor_version.markup">0</property>
  <property name="meta.attr.compatible_brands.markup">isommp42</property>
  <property name="meta.attr.creation_time.markup">2019-10-26T10:21:54.000000Z</property>
  <property name="meta.attr.location.markup">+47.4521+008.5609/</property>
  <property name="meta.attr.location-eng.markup">+47.4521+008.5609/</property>
  <property name="meta.attr.com.android.version.markup">10</property>
  <property name="meta.media.sample_aspect_num">1</property>
  <property name="meta.media.sample_aspect_den">1</property>
  <property name="meta.media.frame_rate_num">119520000</property>
  <property name="meta.media.frame_rate_den">3972737</property>
  <property name="meta.media.colorspace">601</property>
  <property name="meta.media.color_trc">15</property>
  <property name="meta.media.width">1920</property>
  <property name="meta.media.height">1080</property>
  <property name="meta.media.top_field_first">0</property>
  <property name="meta.media.progressive">1</property>
 </producer>
 <producer id="slowmotion:8:10:1:0" out="352" in="0">
  <property name="length">353</property>
  <property name="eof">pause</property>
  <property name="resource">10:videos/VID_20191026_151716.mp4</property>
  <property name="aspect_ratio">1</property>
  <property name="meta.media.nb_streams">2</property>
  <property name="meta.media.0.stream.type">audio</property>
  <property name="meta.media.0.codec.sample_fmt">fltp</property>
  <property name="meta.media.0.codec.sample_rate">48000</property>
  <property name="meta.media.0.codec.channels">2</property>
  <property name="meta.media.0.codec.name">aac</property>
  <property name="meta.media.0.codec.long_name">AAC (Advanced Audio Coding)</property>
  <property name="meta.media.0.codec.bit_rate">192008</property>
  <property name="meta.attr.0.stream.creation_time.markup">2019-10-26T13:17:16.000000Z</property>
  <property name="meta.attr.0.stream.language.markup">eng</property>
  <property name="meta.attr.0.stream.handler_name.markup">SoundHandle</property>
  <property name="meta.media.1.stream.type">video</property>
  <property name="meta.media.1.stream.frame_rate">30,0109</property>
  <property name="meta.media.1.stream.sample_aspect_ratio">1</property>
  <property name="meta.media.1.codec.width">1920</property>
  <property name="meta.media.1.codec.height">1080</property>
  <property name="meta.media.1.codec.rotate">0</property>
  <property name="meta.media.1.codec.frame_rate">90000</property>
  <property name="meta.media.1.codec.pix_fmt">yuvj420p</property>
  <property name="meta.media.1.codec.sample_aspect_ratio">0</property>
  <property name="meta.media.1.codec.colorspace">601</property>
  <property name="meta.media.1.codec.color_trc">15</property>
  <property name="meta.media.1.codec.name">h264</property>
  <property name="meta.media.1.codec.long_name">H.264 / AVC / MPEG-4 AVC / MPEG-4 part 10</property>
  <property name="meta.media.1.codec.bit_rate">22009280</property>
  <property name="meta.attr.1.stream.creation_time.markup">2019-10-26T13:17:16.000000Z</property>
  <property name="meta.attr.1.stream.language.markup">eng</property>
  <property name="meta.attr.1.stream.handler_name.markup">VideoHandle</property>
  <property name="meta.attr.major_brand.markup">mp42</property>
  <property name="meta.attr.minor_version.markup">0</property>
  <property name="meta.attr.compatible_brands.markup">isommp42</property>
  <property name="meta.attr.creation_time.markup">2019-10-26T13:17:16.000000Z</property>
  <property name="meta.attr.location.markup">+47.4510+008.5599/</property>
  <property name="meta.attr.location-eng.markup">+47.4510+008.5599/</property>
  <property name="meta.attr.com.android.version.markup">10</property>
  <property name="seekable">1</property>
  <property name="meta.media.sample_aspect_num">1</property>
  <property name="meta.media.sample_aspect_den">1</property>
  <property name="audio_index">0</property>
  <property name="video_index">1</property>
  <property name="mute_on_pause">1</property>
  <property name="warp_speed">10</property>
  <property name="warp_resource">videos/VID_20191026_151716.mp4</property>
  <property name="mlt_service">timewarp</property>
  <property name="meta.media.frame_rate_num">2117000</property>
  <property name="meta.media.frame_rate_den">70541</property>
  <property name="meta.media.colorspace">601</property>
  <property name="meta.media.color_trc">15</property>
  <property name="meta.media.width">1920</property>
  <property name="meta.media.height">1080</property>
  <property name="meta.media.top_field_first">0</property>
  <property name="meta.media.progressive">1</property>
 </producer>
 <producer id="slowmotion:9:6:1:0" out="740" in="0">
  <property name="length">741</property>
  <property name="eof">pause</property>
  <property name="resource">6:videos/VID_20191026_165543.mp4</property>
  <property name="aspect_ratio">1</property>
  <property name="meta.media.nb_streams">2</property>
  <property name="meta.media.0.stream.type">audio</property>
  <property name="meta.media.0.codec.sample_fmt">fltp</property>
  <property name="meta.media.0.codec.sample_rate">48000</property>
  <property name="meta.media.0.codec.channels">2</property>
  <property name="meta.media.0.codec.name">aac</property>
  <property name="meta.media.0.codec.long_name">AAC (Advanced Audio Coding)</property>
  <property name="meta.media.0.codec.bit_rate">191606</property>
  <property name="meta.attr.0.stream.creation_time.markup">2019-10-26T14:55:43.000000Z</property>
  <property name="meta.attr.0.stream.language.markup">eng</property>
  <property name="meta.attr.0.stream.handler_name.markup">SoundHandle</property>
  <property name="meta.media.1.stream.type">video</property>
  <property name="meta.media.1.stream.frame_rate">30,608</property>
  <property name="meta.media.1.stream.sample_aspect_ratio">1</property>
  <property name="meta.media.1.codec.width">1920</property>
  <property name="meta.media.1.codec.height">1080</property>
  <property name="meta.media.1.codec.rotate">0</property>
  <property name="meta.media.1.codec.frame_rate">90000</property>
  <property name="meta.media.1.codec.pix_fmt">yuvj420p</property>
  <property name="meta.media.1.codec.sample_aspect_ratio">0</property>
  <property name="meta.media.1.codec.colorspace">601</property>
  <property name="meta.media.1.codec.color_trc">15</property>
  <property name="meta.media.1.codec.name">h264</property>
  <property name="meta.media.1.codec.long_name">H.264 / AVC / MPEG-4 AVC / MPEG-4 part 10</property>
  <property name="meta.media.1.codec.bit_rate">22214667</property>
  <property name="meta.attr.1.stream.creation_time.markup">2019-10-26T14:55:43.000000Z</property>
  <property name="meta.attr.1.stream.language.markup">eng</property>
  <property name="meta.attr.1.stream.handler_name.markup">VideoHandle</property>
  <property name="meta.attr.major_brand.markup">mp42</property>
  <property name="meta.attr.minor_version.markup">0</property>
  <property name="meta.attr.compatible_brands.markup">isommp42</property>
  <property name="meta.attr.creation_time.markup">2019-10-26T14:55:43.000000Z</property>
  <property name="meta.attr.location.markup">+47.4553+008.5554/</property>
  <property name="meta.attr.location-eng.markup">+47.4553+008.5554/</property>
  <property name="meta.attr.com.android.version.markup">10</property>
  <property name="seekable">1</property>
  <property name="meta.media.sample_aspect_num">1</property>
  <property name="meta.media.sample_aspect_den">1</property>
  <property name="audio_index">0</property>
  <property name="video_index">1</property>
  <property name="mute_on_pause">1</property>
  <property name="warp_speed">6</property>
  <property name="warp_resource">videos/VID_20191026_165543.mp4</property>
  <property name="mlt_service">timewarp</property>
  <property name="meta.media.frame_rate_num">6050000</property>
  <property name="meta.media.frame_rate_den">197661</property>
  <property name="meta.media.colorspace">601</property>
  <property name="meta.media.color_trc">15</property>
  <property name="meta.media.width">1920</property>
  <property name="meta.media.height">1080</property>
  <property name="meta.media.top_field_first">0</property>
  <property name="meta.media.progressive">1</property>
 </producer>
 <producer id="slowmotion:13:5:1:0" out="834" in="0">
  <property name="length">835</property>
  <property name="eof">pause</property>
  <property name="resource">5:videos/VID_20191026_190842.mp4</property>
  <property name="aspect_ratio">1</property>
  <property name="meta.media.nb_streams">2</property>
  <property name="meta.media.0.stream.type">audio</property>
  <property name="meta.media.0.codec.sample_fmt">fltp</property>
  <property name="meta.media.0.codec.sample_rate">48000</property>
  <property name="meta.media.0.codec.channels">2</property>
  <property name="meta.media.0.codec.name">aac</property>
  <property name="meta.media.0.codec.long_name">AAC (Advanced Audio Coding)</property>
  <property name="meta.media.0.codec.bit_rate">191982</property>
  <property name="meta.attr.0.stream.creation_time.markup">2019-10-26T17:08:42.000000Z</property>
  <property name="meta.attr.0.stream.language.markup">eng</property>
  <property name="meta.attr.0.stream.handler_name.markup">SoundHandle</property>
  <property name="meta.media.1.stream.type">video</property>
  <property name="meta.media.1.stream.frame_rate">30,0119</property>
  <property name="meta.media.1.stream.sample_aspect_ratio">1</property>
  <property name="meta.media.1.codec.width">1920</property>
  <property name="meta.media.1.codec.height">1080</property>
  <property name="meta.media.1.codec.rotate">0</property>
  <property name="meta.media.1.codec.frame_rate">90000</property>
  <property name="meta.media.1.codec.pix_fmt">yuvj420p</property>
  <property name="meta.media.1.codec.sample_aspect_ratio">0</property>
  <property name="meta.media.1.codec.colorspace">601</property>
  <property name="meta.media.1.codec.color_trc">15</property>
  <property name="meta.media.1.codec.name">h264</property>
  <property name="meta.media.1.codec.long_name">H.264 / AVC / MPEG-4 AVC / MPEG-4 part 10</property>
  <property name="meta.media.1.codec.bit_rate">22020801</property>
  <property name="meta.attr.1.stream.creation_time.markup">2019-10-26T17:08:42.000000Z</property>
  <property name="meta.attr.1.stream.language.markup">eng</property>
  <property name="meta.attr.1.stream.handler_name.markup">VideoHandle</property>
  <property name="meta.attr.major_brand.markup">mp42</property>
  <property name="meta.attr.minor_version.markup">0</property>
  <property name="meta.attr.compatible_brands.markup">isommp42</property>
  <property name="meta.attr.creation_time.markup">2019-10-26T17:08:42.000000Z</property>
  <property name="meta.attr.location.markup">+36.7320-004.5788/</property>
  <property name="meta.attr.location-eng.markup">+36.7320-004.5788/</property>
  <property name="meta.attr.com.android.version.markup">10</property>
  <property name="seekable">1</property>
  <property name="meta.media.sample_aspect_num">1</property>
  <property name="meta.media.sample_aspect_den">1</property>
  <property name="audio_index">0</property>
  <property name="video_index">1</property>
  <property name="mute_on_pause">1</property>
  <property name="warp_speed">5</property>
  <property name="warp_resource">videos/VID_20191026_190842.mp4</property>
  <property name="mlt_service">timewarp</property>
  <property name="meta.media.frame_rate_num">56385000</property>
  <property name="meta.media.frame_rate_den">1878757</property>
  <property name="meta.media.colorspace">601</property>
  <property name="meta.media.color_trc">15</property>
  <property name="meta.media.width">1920</property>
  <property name="meta.media.height">1080</property>
  <property name="meta.media.top_field_first">0</property>
  <property name="meta.media.progressive">1</property>
 </producer>
 <producer id="29_playlist5" title="Anonymous Submission" out="1492" in="0">
  <property name="length">1493</property>
  <property name="eof">pause</property>
  <property name="resource">videos/VID_20191027_191429.mp4</property>
  <property name="audio_index">0</property>
  <property name="video_index">1</property>
  <property name="mute_on_pause">1</property>
  <property name="mlt_service">avformat-novalidate</property>
  <property name="seekable">1</property>
  <property name="aspect_ratio">1</property>
  <property name="kdenlive:folderid">1</property>
  <property name="kdenlive:file_size">166057802</property>
  <property name="kdenlive:file_hash">75a3a619a2997eede4b1ce872f3a9bde</property>
  <property name="global_feed">1</property>
  <property name="xml">was here</property>
  <property name="meta.media.nb_streams">2</property>
  <property name="meta.media.0.stream.type">audio</property>
  <property name="meta.media.0.codec.sample_fmt">fltp</property>
  <property name="meta.media.0.codec.sample_rate">48000</property>
  <property name="meta.media.0.codec.channels">2</property>
  <property name="meta.media.0.codec.name">aac</property>
  <property name="meta.media.0.codec.long_name">AAC (Advanced Audio Coding)</property>
  <property name="meta.media.0.codec.bit_rate">192019</property>
  <property name="meta.attr.0.stream.creation_time.markup">2019-10-27T18:14:29.000000Z</property>
  <property name="meta.attr.0.stream.language.markup">eng</property>
  <property name="meta.attr.0.stream.handler_name.markup">SoundHandle</property>
  <property name="meta.media.1.stream.type">video</property>
  <property name="meta.media.1.stream.frame_rate">28,9795</property>
  <property name="meta.media.1.stream.sample_aspect_ratio">1</property>
  <property name="meta.media.1.codec.width">1920</property>
  <property name="meta.media.1.codec.height">1080</property>
  <property name="meta.media.1.codec.rotate">0</property>
  <property name="meta.media.1.codec.frame_rate">90000</property>
  <property name="meta.media.1.codec.pix_fmt">yuvj420p</property>
  <property name="meta.media.1.codec.sample_aspect_ratio">0</property>
  <property name="meta.media.1.codec.colorspace">601</property>
  <property name="meta.media.1.codec.color_trc">15</property>
  <property name="meta.media.1.codec.name">h264</property>
  <property name="meta.media.1.codec.long_name">H.264 / AVC / MPEG-4 AVC / MPEG-4 part 10</property>
  <property name="meta.media.1.codec.bit_rate">22045222</property>
  <property name="meta.attr.1.stream.creation_time.markup">2019-10-27T18:14:29.000000Z</property>
  <property name="meta.attr.1.stream.language.markup">eng</property>
  <property name="meta.attr.1.stream.handler_name.markup">VideoHandle</property>
  <property name="meta.attr.major_brand.markup">mp42</property>
  <property name="meta.attr.minor_version.markup">0</property>
  <property name="meta.attr.compatible_brands.markup">isommp42</property>
  <property name="meta.attr.creation_time.markup">2019-10-27T18:14:29.000000Z</property>
  <property name="meta.attr.location.markup">+36.7181-004.4153/</property>
  <property name="meta.attr.location-eng.markup">+36.7181-004.4153/</property>
  <property name="meta.attr.com.android.version.markup">10</property>
  <property name="meta.media.sample_aspect_num">1</property>
  <property name="meta.media.sample_aspect_den">1</property>
  <property name="meta.media.frame_rate_num">12982500</property>
  <property name="meta.media.frame_rate_den">447989</property>
  <property name="meta.media.colorspace">601</property>
  <property name="meta.media.color_trc">15</property>
  <property name="meta.media.width">1920</property>
  <property name="meta.media.height">1080</property>
  <property name="meta.media.top_field_first">0</property>
  <property name="meta.media.progressive">1</property>
 </producer>
 <producer id="30_playlist5" title="Anonymous Submission" out="278" in="0">
  <property name="length">279</property>
  <property name="eof">pause</property>
  <property name="resource">videos/VID_20191027_191448.mp4</property>
  <property name="audio_index">0</property>
  <property name="video_index">1</property>
  <property name="mute_on_pause">1</property>
  <property name="mlt_service">avformat-novalidate</property>
  <property name="seekable">1</property>
  <property name="aspect_ratio">1</property>
  <property name="kdenlive:folderid">1</property>
  <property name="kdenlive:file_size">31268954</property>
  <property name="kdenlive:file_hash">97518eebb3c520f418ddc297f5dfffd0</property>
  <property name="global_feed">1</property>
  <property name="xml">was here</property>
  <property name="meta.media.nb_streams">2</property>
  <property name="meta.media.0.stream.type">audio</property>
  <property name="meta.media.0.codec.sample_fmt">fltp</property>
  <property name="meta.media.0.codec.sample_rate">48000</property>
  <property name="meta.media.0.codec.channels">2</property>
  <property name="meta.media.0.codec.name">aac</property>
  <property name="meta.media.0.codec.long_name">AAC (Advanced Audio Coding)</property>
  <property name="meta.media.0.codec.bit_rate">192047</property>
  <property name="meta.attr.0.stream.creation_time.markup">2019-10-27T18:14:48.000000Z</property>
  <property name="meta.attr.0.stream.language.markup">eng</property>
  <property name="meta.attr.0.stream.handler_name.markup">SoundHandle</property>
  <property name="meta.media.1.stream.type">video</property>
  <property name="meta.media.1.stream.frame_rate">30,0119</property>
  <property name="meta.media.1.stream.sample_aspect_ratio">1</property>
  <property name="meta.media.1.codec.width">1920</property>
  <property name="meta.media.1.codec.height">1080</property>
  <property name="meta.media.1.codec.rotate">0</property>
  <property name="meta.media.1.codec.frame_rate">90000</property>
  <property name="meta.media.1.codec.pix_fmt">yuvj420p</property>
  <property name="meta.media.1.codec.sample_aspect_ratio">0</property>
  <property name="meta.media.1.codec.colorspace">601</property>
  <property name="meta.media.1.codec.color_trc">15</property>
  <property name="meta.media.1.codec.name">h264</property>
  <property name="meta.media.1.codec.long_name">H.264 / AVC / MPEG-4 AVC / MPEG-4 part 10</property>
  <property name="meta.media.1.codec.bit_rate">22212478</property>
  <property name="meta.attr.1.stream.creation_time.markup">2019-10-27T18:14:48.000000Z</property>
  <property name="meta.attr.1.stream.language.markup">eng</property>
  <property name="meta.attr.1.stream.handler_name.markup">VideoHandle</property>
  <property name="meta.attr.major_brand.markup">mp42</property>
  <property name="meta.attr.minor_version.markup">0</property>
  <property name="meta.attr.compatible_brands.markup">isommp42</property>
  <property name="meta.attr.creation_time.markup">2019-10-27T18:14:48.000000Z</property>
  <property name="meta.attr.location.markup">+36.7181-004.4153/</property>
  <property name="meta.attr.location-eng.markup">+36.7181-004.4153/</property>
  <property name="meta.attr.com.android.version.markup">10</property>
  <property name="meta.media.sample_aspect_num">1</property>
  <property name="meta.media.sample_aspect_den">1</property>
  <property name="meta.media.frame_rate_num">15075000</property>
  <property name="meta.media.frame_rate_den">502301</property>
  <property name="meta.media.colorspace">601</property>
  <property name="meta.media.color_trc">15</property>
  <property name="meta.media.width">1920</property>
  <property name="meta.media.height">1080</property>
  <property name="meta.media.top_field_first">0</property>
  <property name="meta.media.progressive">1</property>
 </producer>
 <producer id="33_playlist5" title="Anonymous Submission" out="285" in="0">
  <property name="length">286</property>
  <property name="eof">pause</property>
  <property name="resource">videos/VID_20191027_192138.mp4</property>
  <property name="audio_index">0</property>
  <property name="video_index">1</property>
  <property name="mute_on_pause">1</property>
  <property name="mlt_service">avformat-novalidate</property>
  <property name="seekable">1</property>
  <property name="aspect_ratio">1</property>
  <property name="kdenlive:folderid">1</property>
  <property name="kdenlive:file_size">31990118</property>
  <property name="kdenlive:file_hash">1cc0fb5d431c5e87f1eed2cbec9ef962</property>
  <property name="global_feed">1</property>
  <property name="xml">was here</property>
  <property name="meta.media.nb_streams">2</property>
  <property name="meta.media.0.stream.type">audio</property>
  <property name="meta.media.0.codec.sample_fmt">fltp</property>
  <property name="meta.media.0.codec.sample_rate">48000</property>
  <property name="meta.media.0.codec.channels">2</property>
  <property name="meta.media.0.codec.name">aac</property>
  <property name="meta.media.0.codec.long_name">AAC (Advanced Audio Coding)</property>
  <property name="meta.media.0.codec.bit_rate">191983</property>
  <property name="meta.attr.0.stream.creation_time.markup">2019-10-27T18:21:38.000000Z</property>
  <property name="meta.attr.0.stream.language.markup">eng</property>
  <property name="meta.attr.0.stream.handler_name.markup">SoundHandle</property>
  <property name="meta.media.1.stream.type">video</property>
  <property name="meta.media.1.stream.frame_rate">30,0121</property>
  <property name="meta.media.1.stream.sample_aspect_ratio">1</property>
  <property name="meta.media.1.codec.width">1920</property>
  <property name="meta.media.1.codec.height">1080</property>
  <property name="meta.media.1.codec.rotate">0</property>
  <property name="meta.media.1.codec.frame_rate">90000</property>
  <property name="meta.media.1.codec.pix_fmt">yuvj420p</property>
  <property name="meta.media.1.codec.sample_aspect_ratio">0</property>
  <property name="meta.media.1.codec.colorspace">601</property>
  <property name="meta.media.1.codec.color_trc">15</property>
  <property name="meta.media.1.codec.name">h264</property>
  <property name="meta.media.1.codec.long_name">H.264 / AVC / MPEG-4 AVC / MPEG-4 part 10</property>
  <property name="meta.media.1.codec.bit_rate">22194758</property>
  <property name="meta.attr.1.stream.creation_time.markup">2019-10-27T18:21:38.000000Z</property>
  <property name="meta.attr.1.stream.language.markup">eng</property>
  <property name="meta.attr.1.stream.handler_name.markup">VideoHandle</property>
  <property name="meta.attr.major_brand.markup">mp42</property>
  <property name="meta.attr.minor_version.markup">0</property>
  <property name="meta.attr.compatible_brands.markup">isommp42</property>
  <property name="meta.attr.creation_time.markup">2019-10-27T18:21:38.000000Z</property>
  <property name="meta.attr.location.markup">+36.7173-004.4127/</property>
  <property name="meta.attr.location-eng.markup">+36.7173-004.4127/</property>
  <property name="meta.attr.com.android.version.markup">10</property>
  <property name="meta.media.sample_aspect_num">1</property>
  <property name="meta.media.sample_aspect_den">1</property>
  <property name="meta.media.frame_rate_num">6174000</property>
  <property name="meta.media.frame_rate_den">205717</property>
  <property name="meta.media.colorspace">601</property>
  <property name="meta.media.color_trc">15</property>
  <property name="meta.media.width">1920</property>
  <property name="meta.media.height">1080</property>
  <property name="meta.media.top_field_first">0</property>
  <property name="meta.media.progressive">1</property>
 </producer>
 <producer id="34_playlist5" title="Anonymous Submission" out="621" in="0">
  <property name="length">622</property>
  <property name="eof">pause</property>
  <property name="resource">videos/VID_20191027_192653.mp4</property>
  <property name="audio_index">0</property>
  <property name="video_index">1</property>
  <property name="mute_on_pause">1</property>
  <property name="mlt_service">avformat-novalidate</property>
  <property name="seekable">1</property>
  <property name="aspect_ratio">1</property>
  <property name="kdenlive:folderid">1</property>
  <property name="kdenlive:file_size">69233851</property>
  <property name="kdenlive:file_hash">96910ad424e08f0c81cf9ffc296fb066</property>
  <property name="global_feed">1</property>
  <property name="xml">was here</property>
  <property name="meta.media.nb_streams">2</property>
  <property name="meta.media.0.stream.type">audio</property>
  <property name="meta.media.0.codec.sample_fmt">fltp</property>
  <property name="meta.media.0.codec.sample_rate">48000</property>
  <property name="meta.media.0.codec.channels">2</property>
  <property name="meta.media.0.codec.name">aac</property>
  <property name="meta.media.0.codec.long_name">AAC (Advanced Audio Coding)</property>
  <property name="meta.media.0.codec.bit_rate">191990</property>
  <property name="meta.attr.0.stream.creation_time.markup">2019-10-27T18:26:53.000000Z</property>
  <property name="meta.attr.0.stream.language.markup">eng</property>
  <property name="meta.attr.0.stream.handler_name.markup">SoundHandle</property>
  <property name="meta.media.1.stream.type">video</property>
  <property name="meta.media.1.stream.frame_rate">29,9986</property>
  <property name="meta.media.1.stream.sample_aspect_ratio">1</property>
  <property name="meta.media.1.codec.width">1920</property>
  <property name="meta.media.1.codec.height">1080</property>
  <property name="meta.media.1.codec.rotate">0</property>
  <property name="meta.media.1.codec.frame_rate">90000</property>
  <property name="meta.media.1.codec.pix_fmt">yuvj420p</property>
  <property name="meta.media.1.codec.sample_aspect_ratio">0</property>
  <property name="meta.media.1.codec.colorspace">601</property>
  <property name="meta.media.1.codec.color_trc">15</property>
  <property name="meta.media.1.codec.name">h264</property>
  <property name="meta.media.1.codec.long_name">H.264 / AVC / MPEG-4 AVC / MPEG-4 part 10</property>
  <property name="meta.media.1.codec.bit_rate">22076414</property>
  <property name="meta.attr.1.stream.creation_time.markup">2019-10-27T18:26:53.000000Z</property>
  <property name="meta.attr.1.stream.language.markup">eng</property>
  <property name="meta.attr.1.stream.handler_name.markup">VideoHandle</property>
  <property name="meta.attr.major_brand.markup">mp42</property>
  <property name="meta.attr.minor_version.markup">0</property>
  <property name="meta.attr.compatible_brands.markup">isommp42</property>
  <property name="meta.attr.creation_time.markup">2019-10-27T18:26:53.000000Z</property>
  <property name="meta.attr.location.markup">+36.7165-004.4134/</property>
  <property name="meta.attr.location-eng.markup">+36.7165-004.4134/</property>
  <property name="meta.attr.com.android.version.markup">10</property>
  <property name="meta.media.sample_aspect_num">1</property>
  <property name="meta.media.sample_aspect_den">1</property>
  <property name="meta.media.frame_rate_num">67140000</property>
  <property name="meta.media.frame_rate_den">2238101</property>
  <property name="meta.media.colorspace">601</property>
  <property name="meta.media.color_trc">15</property>
  <property name="meta.media.width">1920</property>
  <property name="meta.media.height">1080</property>
  <property name="meta.media.top_field_first">0</property>
  <property name="meta.media.progressive">1</property>
 </producer>
 <producer id="36_playlist5" title="Anonymous Submission" out="191" in="0">
  <property name="length">192</property>
  <property name="eof">pause</property>
  <property name="resource">videos/VID_20191027_193213.mp4</property>
  <property name="audio_index">0</property>
  <property name="video_index">1</property>
  <property name="mute_on_pause">1</property>
  <property name="mlt_service">avformat-novalidate</property>
  <property name="seekable">1</property>
  <property name="aspect_ratio">1</property>
  <property name="kdenlive:folderid">1</property>
  <property name="kdenlive:file_size">21543342</property>
  <property name="kdenlive:file_hash">fde4ac5a548f2b6c550b7c6f23bca028</property>
  <property name="global_feed">1</property>
  <property name="xml">was here</property>
  <property name="meta.media.nb_streams">2</property>
  <property name="meta.media.0.stream.type">audio</property>
  <property name="meta.media.0.codec.sample_fmt">fltp</property>
  <property name="meta.media.0.codec.sample_rate">48000</property>
  <property name="meta.media.0.codec.channels">2</property>
  <property name="meta.media.0.codec.name">aac</property>
  <property name="meta.media.0.codec.long_name">AAC (Advanced Audio Coding)</property>
  <property name="meta.media.0.codec.bit_rate">191926</property>
  <property name="meta.attr.0.stream.creation_time.markup">2019-10-27T18:32:13.000000Z</property>
  <property name="meta.attr.0.stream.language.markup">eng</property>
  <property name="meta.attr.0.stream.handler_name.markup">SoundHandle</property>
  <property name="meta.media.1.stream.type">video</property>
  <property name="meta.media.1.stream.frame_rate">30,0118</property>
  <property name="meta.media.1.stream.sample_aspect_ratio">1</property>
  <property name="meta.media.1.codec.width">1920</property>
  <property name="meta.media.1.codec.height">1080</property>
  <property name="meta.media.1.codec.rotate">0</property>
  <property name="meta.media.1.codec.frame_rate">90000</property>
  <property name="meta.media.1.codec.pix_fmt">yuvj420p</property>
  <property name="meta.media.1.codec.sample_aspect_ratio">0</property>
  <property name="meta.media.1.codec.colorspace">601</property>
  <property name="meta.media.1.codec.color_trc">15</property>
  <property name="meta.media.1.codec.name">h264</property>
  <property name="meta.media.1.codec.long_name">H.264 / AVC / MPEG-4 AVC / MPEG-4 part 10</property>
  <property name="meta.media.1.codec.bit_rate">22192240</property>
  <property name="meta.attr.1.stream.creation_time.markup">2019-10-27T18:32:13.000000Z</property>
  <property name="meta.attr.1.stream.language.markup">eng</property>
  <property name="meta.attr.1.stream.handler_name.markup">VideoHandle</property>
  <property name="meta.attr.major_brand.markup">mp42</property>
  <property name="meta.attr.minor_version.markup">0</property>
  <property name="meta.attr.compatible_brands.markup">isommp42</property>
  <property name="meta.attr.creation_time.markup">2019-10-27T18:32:13.000000Z</property>
  <property name="meta.attr.location.markup">+36.7201-004.4125/</property>
  <property name="meta.attr.location-eng.markup">+36.7201-004.4125/</property>
  <property name="meta.attr.com.android.version.markup">10</property>
  <property name="meta.media.sample_aspect_num">1</property>
  <property name="meta.media.sample_aspect_den">1</property>
  <property name="meta.media.frame_rate_num">2598750</property>
  <property name="meta.media.frame_rate_den">86591</property>
  <property name="meta.media.colorspace">601</property>
  <property name="meta.media.color_trc">15</property>
  <property name="meta.media.width">1920</property>
  <property name="meta.media.height">1080</property>
  <property name="meta.media.top_field_first">0</property>
  <property name="meta.media.progressive">1</property>
 </producer>
 <producer id="37_playlist5" title="Anonymous Submission" out="966" in="0">
  <property name="length">967</property>
  <property name="eof">pause</property>
  <property name="resource">videos/VID_20191027_193744.mp4</property>
  <property name="audio_index">0</property>
  <property name="video_index">1</property>
  <property name="mute_on_pause">1</property>
  <property name="mlt_service">avformat-novalidate</property>
  <property name="seekable">1</property>
  <property name="aspect_ratio">1</property>
  <property name="kdenlive:folderid">1</property>
  <property name="kdenlive:file_size">107699280</property>
  <property name="kdenlive:file_hash">51f609dfdbd86fdeab810f3fca83e1b8</property>
  <property name="global_feed">1</property>
  <property name="xml">was here</property>
  <property name="meta.media.nb_streams">2</property>
  <property name="meta.media.0.stream.type">audio</property>
  <property name="meta.media.0.codec.sample_fmt">fltp</property>
  <property name="meta.media.0.codec.sample_rate">48000</property>
  <property name="meta.media.0.codec.channels">2</property>
  <property name="meta.media.0.codec.name">aac</property>
  <property name="meta.media.0.codec.long_name">AAC (Advanced Audio Coding)</property>
  <property name="meta.media.0.codec.bit_rate">191964</property>
  <property name="meta.attr.0.stream.creation_time.markup">2019-10-27T18:37:44.000000Z</property>
  <property name="meta.attr.0.stream.language.markup">eng</property>
  <property name="meta.attr.0.stream.handler_name.markup">SoundHandle</property>
  <property name="meta.media.1.stream.type">video</property>
  <property name="meta.media.1.stream.frame_rate">30,012</property>
  <property name="meta.media.1.stream.sample_aspect_ratio">1</property>
  <property name="meta.media.1.codec.width">1920</property>
  <property name="meta.media.1.codec.height">1080</property>
  <property name="meta.media.1.codec.rotate">0</property>
  <property name="meta.media.1.codec.frame_rate">90000</property>
  <property name="meta.media.1.codec.pix_fmt">yuvj420p</property>
  <property name="meta.media.1.codec.sample_aspect_ratio">0</property>
  <property name="meta.media.1.codec.colorspace">601</property>
  <property name="meta.media.1.codec.color_trc">15</property>
  <property name="meta.media.1.codec.name">h264</property>
  <property name="meta.media.1.codec.long_name">H.264 / AVC / MPEG-4 AVC / MPEG-4 part 10</property>
  <property name="meta.media.1.codec.bit_rate">22076703</property>
  <property name="meta.attr.1.stream.creation_time.markup">2019-10-27T18:37:44.000000Z</property>
  <property name="meta.attr.1.stream.language.markup">eng</property>
  <property name="meta.attr.1.stream.handler_name.markup">VideoHandle</property>
  <property name="meta.attr.major_brand.markup">mp42</property>
  <property name="meta.attr.minor_version.markup">0</property>
  <property name="meta.attr.compatible_brands.markup">isommp42</property>
  <property name="meta.attr.creation_time.markup">2019-10-27T18:37:44.000000Z</property>
  <property name="meta.attr.location.markup">+36.7209-004.4170/</property>
  <property name="meta.attr.location-eng.markup">+36.7209-004.4170/</property>
  <property name="meta.attr.com.android.version.markup">10</property>
  <property name="meta.media.sample_aspect_num">1</property>
  <property name="meta.media.sample_aspect_den">1</property>
  <property name="meta.media.frame_rate_num">2322000</property>
  <property name="meta.media.frame_rate_den">77369</property>
  <property name="meta.media.colorspace">601</property>
  <property name="meta.media.color_trc">15</property>
  <property name="meta.media.width">1920</property>
  <property name="meta.media.height">1080</property>
  <property name="meta.media.top_field_first">0</property>
  <property name="meta.media.progressive">1</property>
 </producer>
 <producer id="26_playlist5" title="Anonymous Submission" out="994" in="0">
  <property name="length">995</property>
  <property name="eof">pause</property>
  <property name="resource">videos/VID_20191027_190124.mp4</property>
  <property name="audio_index">0</property>
  <property name="video_index">1</property>
  <property name="mute_on_pause">1</property>
  <property name="mlt_service">avformat-novalidate</property>
  <property name="seekable">1</property>
  <property name="aspect_ratio">1</property>
  <property name="kdenlive:folderid">1</property>
  <property name="kdenlive:file_size">110496736</property>
  <property name="kdenlive:file_hash">befc2b2446200bd68e164493aaffe445</property>
  <property name="global_feed">1</property>
  <property name="xml">was here</property>
  <property name="meta.media.nb_streams">2</property>
  <property name="meta.media.0.stream.type">audio</property>
  <property name="meta.media.0.codec.sample_fmt">fltp</property>
  <property name="meta.media.0.codec.sample_rate">48000</property>
  <property name="meta.media.0.codec.channels">2</property>
  <property name="meta.media.0.codec.name">aac</property>
  <property name="meta.media.0.codec.long_name">AAC (Advanced Audio Coding)</property>
  <property name="meta.media.0.codec.bit_rate">191951</property>
  <property name="meta.attr.0.stream.creation_time.markup">2019-10-27T18:01:24.000000Z</property>
  <property name="meta.attr.0.stream.language.markup">eng</property>
  <property name="meta.attr.0.stream.handler_name.markup">SoundHandle</property>
  <property name="meta.media.1.stream.type">video</property>
  <property name="meta.media.1.stream.frame_rate">30,012</property>
  <property name="meta.media.1.stream.sample_aspect_ratio">1</property>
  <property name="meta.media.1.codec.width">1920</property>
  <property name="meta.media.1.codec.height">1080</property>
  <property name="meta.media.1.codec.rotate">0</property>
  <property name="meta.media.1.codec.frame_rate">90000</property>
  <property name="meta.media.1.codec.pix_fmt">yuvj420p</property>
  <property name="meta.media.1.codec.sample_aspect_ratio">0</property>
  <property name="meta.media.1.codec.colorspace">601</property>
  <property name="meta.media.1.codec.color_trc">15</property>
  <property name="meta.media.1.codec.name">h264</property>
  <property name="meta.media.1.codec.long_name">H.264 / AVC / MPEG-4 AVC / MPEG-4 part 10</property>
  <property name="meta.media.1.codec.bit_rate">22005134</property>
  <property name="meta.attr.1.stream.creation_time.markup">2019-10-27T18:01:24.000000Z</property>
  <property name="meta.attr.1.stream.language.markup">eng</property>
  <property name="meta.attr.1.stream.handler_name.markup">VideoHandle</property>
  <property name="meta.attr.major_brand.markup">mp42</property>
  <property name="meta.attr.minor_version.markup">0</property>
  <property name="meta.attr.compatible_brands.markup">isommp42</property>
  <property name="meta.attr.creation_time.markup">2019-10-27T18:01:24.000000Z</property>
  <property name="meta.attr.location.markup">+36.7202-004.4202/</property>
  <property name="meta.attr.location-eng.markup">+36.7202-004.4202/</property>
  <property name="meta.attr.com.android.version.markup">10</property>
  <property name="meta.media.sample_aspect_num">1</property>
  <property name="meta.media.sample_aspect_den">1</property>
  <property name="meta.media.frame_rate_num">26887500</property>
  <property name="meta.media.frame_rate_den">895891</property>
  <property name="meta.media.colorspace">601</property>
  <property name="meta.media.color_trc">15</property>
  <property name="meta.media.width">1920</property>
  <property name="meta.media.height">1080</property>
  <property name="meta.media.top_field_first">0</property>
  <property name="meta.media.progressive">1</property>
 </producer>
 <producer id="23_playlist5" title="Anonymous Submission" out="261" in="0">
  <property name="length">262</property>
  <property name="eof">pause</property>
  <property name="resource">videos/VID_20191027_185605.mp4</property>
  <property name="audio_index">0</property>
  <property name="video_index">1</property>
  <property name="mute_on_pause">1</property>
  <property name="mlt_service">avformat-novalidate</property>
  <property name="seekable">1</property>
  <property name="aspect_ratio">1</property>
  <property name="kdenlive:folderid">1</property>
  <property name="kdenlive:file_size">29247813</property>
  <property name="kdenlive:file_hash">06a8299bd1186a2b88338ba7689577c2</property>
  <property name="global_feed">1</property>
  <property name="xml">was here</property>
  <property name="meta.media.nb_streams">2</property>
  <property name="meta.media.0.stream.type">audio</property>
  <property name="meta.media.0.codec.sample_fmt">fltp</property>
  <property name="meta.media.0.codec.sample_rate">48000</property>
  <property name="meta.media.0.codec.channels">2</property>
  <property name="meta.media.0.codec.name">aac</property>
  <property name="meta.media.0.codec.long_name">AAC (Advanced Audio Coding)</property>
  <property name="meta.media.0.codec.bit_rate">191860</property>
  <property name="meta.attr.0.stream.creation_time.markup">2019-10-27T17:56:05.000000Z</property>
  <property name="meta.attr.0.stream.language.markup">eng</property>
  <property name="meta.attr.0.stream.handler_name.markup">SoundHandle</property>
  <property name="meta.media.1.stream.type">video</property>
  <property name="meta.media.1.stream.frame_rate">30,012</property>
  <property name="meta.media.1.stream.sample_aspect_ratio">1</property>
  <property name="meta.media.1.codec.width">1920</property>
  <property name="meta.media.1.codec.height">1080</property>
  <property name="meta.media.1.codec.rotate">0</property>
  <property name="meta.media.1.codec.frame_rate">90000</property>
  <property name="meta.media.1.codec.pix_fmt">yuvj420p</property>
  <property name="meta.media.1.codec.sample_aspect_ratio">0</property>
  <property name="meta.media.1.codec.colorspace">601</property>
  <property name="meta.media.1.codec.color_trc">15</property>
  <property name="meta.media.1.codec.name">h264</property>
  <property name="meta.media.1.codec.long_name">H.264 / AVC / MPEG-4 AVC / MPEG-4 part 10</property>
  <property name="meta.media.1.codec.bit_rate">22165377</property>
  <property name="meta.attr.1.stream.creation_time.markup">2019-10-27T17:56:05.000000Z</property>
  <property name="meta.attr.1.stream.language.markup">eng</property>
  <property name="meta.attr.1.stream.handler_name.markup">VideoHandle</property>
  <property name="meta.attr.major_brand.markup">mp42</property>
  <property name="meta.attr.minor_version.markup">0</property>
  <property name="meta.attr.compatible_brands.markup">isommp42</property>
  <property name="meta.attr.creation_time.markup">2019-10-27T17:56:05.000000Z</property>
  <property name="meta.attr.location.markup">+36.7212-004.4218/</property>
  <property name="meta.attr.location-eng.markup">+36.7212-004.4218/</property>
  <property name="meta.attr.com.android.version.markup">10</property>
  <property name="meta.media.sample_aspect_num">1</property>
  <property name="meta.media.sample_aspect_den">1</property>
  <property name="meta.media.frame_rate_num">28260000</property>
  <property name="meta.media.frame_rate_den">941623</property>
  <property name="meta.media.colorspace">601</property>
  <property name="meta.media.color_trc">15</property>
  <property name="meta.media.width">1920</property>
  <property name="meta.media.height">1080</property>
  <property name="meta.media.top_field_first">0</property>
  <property name="meta.media.progressive">1</property>
 </producer>
 <producer id="22_playlist5" title="Anonymous Submission" out="325" in="0">
  <property name="length">326</property>
  <property name="eof">pause</property>
  <property name="resource">videos/VID_20191027_185501.mp4</property>
  <property name="audio_index">0</property>
  <property name="video_index">1</property>
  <property name="mute_on_pause">1</property>
  <property name="mlt_service">avformat-novalidate</property>
  <property name="seekable">1</property>
  <property name="aspect_ratio">1</property>
  <property name="kdenlive:folderid">1</property>
  <property name="kdenlive:file_size">36330043</property>
  <property name="kdenlive:file_hash">44f8dded9378694b0c60b66eec5d49e0</property>
  <property name="global_feed">1</property>
  <property name="xml">was here</property>
  <property name="meta.media.nb_streams">2</property>
  <property name="meta.media.0.stream.type">audio</property>
  <property name="meta.media.0.codec.sample_fmt">fltp</property>
  <property name="meta.media.0.codec.sample_rate">48000</property>
  <property name="meta.media.0.codec.channels">2</property>
  <property name="meta.media.0.codec.name">aac</property>
  <property name="meta.media.0.codec.long_name">AAC (Advanced Audio Coding)</property>
  <property name="meta.media.0.codec.bit_rate">191999</property>
  <property name="meta.attr.0.stream.creation_time.markup">2019-10-27T17:55:01.000000Z</property>
  <property name="meta.attr.0.stream.language.markup">eng</property>
  <property name="meta.attr.0.stream.handler_name.markup">SoundHandle</property>
  <property name="meta.media.1.stream.type">video</property>
  <property name="meta.media.1.stream.frame_rate">29,9352</property>
  <property name="meta.media.1.stream.sample_aspect_ratio">1</property>
  <property name="meta.media.1.codec.width">1920</property>
  <property name="meta.media.1.codec.height">1080</property>
  <property name="meta.media.1.codec.rotate">0</property>
  <property name="meta.media.1.codec.frame_rate">90000</property>
  <property name="meta.media.1.codec.pix_fmt">yuvj420p</property>
  <property name="meta.media.1.codec.sample_aspect_ratio">0</property>
  <property name="meta.media.1.codec.colorspace">601</property>
  <property name="meta.media.1.codec.color_trc">15</property>
  <property name="meta.media.1.codec.name">h264</property>
  <property name="meta.media.1.codec.long_name">H.264 / AVC / MPEG-4 AVC / MPEG-4 part 10</property>
  <property name="meta.media.1.codec.bit_rate">22110910</property>
  <property name="meta.attr.1.stream.creation_time.markup">2019-10-27T17:55:01.000000Z</property>
  <property name="meta.attr.1.stream.language.markup">eng</property>
  <property name="meta.attr.1.stream.handler_name.markup">VideoHandle</property>
  <property name="meta.attr.major_brand.markup">mp42</property>
  <property name="meta.attr.minor_version.markup">0</property>
  <property name="meta.attr.compatible_brands.markup">isommp42</property>
  <property name="meta.attr.creation_time.markup">2019-10-27T17:55:01.000000Z</property>
  <property name="meta.attr.location.markup">+36.7212-004.4219/</property>
  <property name="meta.attr.location-eng.markup">+36.7212-004.4219/</property>
  <property name="meta.attr.com.android.version.markup">10</property>
  <property name="meta.media.sample_aspect_num">1</property>
  <property name="meta.media.sample_aspect_den">1</property>
  <property name="meta.media.frame_rate_num">17550000</property>
  <property name="meta.media.frame_rate_den">586267</property>
  <property name="meta.media.colorspace">601</property>
  <property name="meta.media.color_trc">15</property>
  <property name="meta.media.width">1920</property>
  <property name="meta.media.height">1080</property>
  <property name="meta.media.top_field_first">0</property>
  <property name="meta.media.progressive">1</property>
 </producer>
 <producer id="40_playlist5" title="Anonymous Submission" out="193" in="0">
  <property name="length">194</property>
  <property name="eof">pause</property>
  <property name="resource">videos/VID_20191029_102054.mp4</property>
  <property name="audio_index">0</property>
  <property name="video_index">1</property>
  <property name="mute_on_pause">1</property>
  <property name="mlt_service">avformat-novalidate</property>
  <property name="seekable">1</property>
  <property name="aspect_ratio">1</property>
  <property name="kdenlive:folderid">1</property>
  <property name="kdenlive:file_size">26066072</property>
  <property name="kdenlive:file_hash">5fcd5d54f6d5b5eaa555fefbc4648e84</property>
  <property name="global_feed">1</property>
  <property name="xml">was here</property>
  <property name="meta.media.nb_streams">2</property>
  <property name="meta.media.0.stream.type">audio</property>
  <property name="meta.media.0.codec.sample_fmt">fltp</property>
  <property name="meta.media.0.codec.sample_rate">48000</property>
  <property name="meta.media.0.codec.channels">2</property>
  <property name="meta.media.0.codec.name">aac</property>
  <property name="meta.media.0.codec.long_name">AAC (Advanced Audio Coding)</property>
  <property name="meta.media.0.codec.bit_rate">189579</property>
  <property name="meta.attr.0.stream.creation_time.markup">2019-10-29T09:20:54.000000Z</property>
  <property name="meta.attr.0.stream.language.markup">eng</property>
  <property name="meta.attr.0.stream.handler_name.markup">SoundHandle</property>
  <property name="meta.media.1.stream.type">video</property>
  <property name="meta.media.1.stream.frame_rate">43,6651</property>
  <property name="meta.media.1.stream.sample_aspect_ratio">1</property>
  <property name="meta.media.1.codec.width">1920</property>
  <property name="meta.media.1.codec.height">1080</property>
  <property name="meta.media.1.codec.rotate">0</property>
  <property name="meta.media.1.codec.frame_rate">90000</property>
  <property name="meta.media.1.codec.pix_fmt">yuvj420p</property>
  <property name="meta.media.1.codec.sample_aspect_ratio">0</property>
  <property name="meta.media.1.codec.colorspace">601</property>
  <property name="meta.media.1.codec.color_trc">15</property>
  <property name="meta.media.1.codec.name">h264</property>
  <property name="meta.media.1.codec.long_name">H.264 / AVC / MPEG-4 AVC / MPEG-4 part 10</property>
  <property name="meta.media.1.codec.bit_rate">26662002</property>
  <property name="meta.attr.1.stream.creation_time.markup">2019-10-29T09:20:54.000000Z</property>
  <property name="meta.attr.1.stream.language.markup">eng</property>
  <property name="meta.attr.1.stream.handler_name.markup">VideoHandle</property>
  <property name="meta.attr.major_brand.markup">mp42</property>
  <property name="meta.attr.minor_version.markup">0</property>
  <property name="meta.attr.compatible_brands.markup">isommp42</property>
  <property name="meta.attr.creation_time.markup">2019-10-29T09:20:54.000000Z</property>
  <property name="meta.attr.location.markup">+36.7178-004.4103/</property>
  <property name="meta.attr.location-eng.markup">+36.7178-004.4103/</property>
  <property name="meta.attr.com.android.version.markup">10</property>
  <property name="meta.media.sample_aspect_num">1</property>
  <property name="meta.media.sample_aspect_den">1</property>
  <property name="meta.media.frame_rate_num">3813750</property>
  <property name="meta.media.frame_rate_den">87341</property>
  <property name="meta.media.colorspace">601</property>
  <property name="meta.media.color_trc">15</property>
  <property name="meta.media.width">1920</property>
  <property name="meta.media.height">1080</property>
  <property name="meta.media.top_field_first">0</property>
  <property name="meta.media.progressive">1</property>
 </producer>
 <producer id="41_playlist5" title="Anonymous Submission" out="140" in="0">
  <property name="length">141</property>
  <property name="eof">pause</property>
  <property name="resource">videos/VID_20191029_102105.mp4</property>
  <property name="audio_index">0</property>
  <property name="video_index">1</property>
  <property name="mute_on_pause">1</property>
  <property name="mlt_service">avformat-novalidate</property>
  <property name="seekable">1</property>
  <property name="aspect_ratio">1</property>
  <property name="kdenlive:folderid">1</property>
  <property name="kdenlive:file_size">15914066</property>
  <property name="kdenlive:file_hash">3139ec0f6eddef7db294ec74c1ef2cc7</property>
  <property name="global_feed">1</property>
  <property name="xml">was here</property>
  <property name="meta.media.nb_streams">2</property>
  <property name="meta.media.0.stream.type">audio</property>
  <property name="meta.media.0.codec.sample_fmt">fltp</property>
  <property name="meta.media.0.codec.sample_rate">48000</property>
  <property name="meta.media.0.codec.channels">2</property>
  <property name="meta.media.0.codec.name">aac</property>
  <property name="meta.media.0.codec.long_name">AAC (Advanced Audio Coding)</property>
  <property name="meta.media.0.codec.bit_rate">192086</property>
  <property name="meta.attr.0.stream.creation_time.markup">2019-10-29T09:21:05.000000Z</property>
  <property name="meta.attr.0.stream.language.markup">eng</property>
  <property name="meta.attr.0.stream.handler_name.markup">SoundHandle</property>
  <property name="meta.media.1.stream.type">video</property>
  <property name="meta.media.1.stream.frame_rate">30,01</property>
  <property name="meta.media.1.stream.sample_aspect_ratio">1</property>
  <property name="meta.media.1.codec.width">1920</property>
  <property name="meta.media.1.codec.height">1080</property>
  <property name="meta.media.1.codec.rotate">0</property>
  <property name="meta.media.1.codec.frame_rate">90000</property>
  <property name="meta.media.1.codec.pix_fmt">yuvj420p</property>
  <property name="meta.media.1.codec.sample_aspect_ratio">0</property>
  <property name="meta.media.1.codec.colorspace">601</property>
  <property name="meta.media.1.codec.color_trc">15</property>
  <property name="meta.media.1.codec.name">h264</property>
  <property name="meta.media.1.codec.long_name">H.264 / AVC / MPEG-4 AVC / MPEG-4 part 10</property>
  <property name="meta.media.1.codec.bit_rate">22409870</property>
  <property name="meta.attr.1.stream.creation_time.markup">2019-10-29T09:21:05.000000Z</property>
  <property name="meta.attr.1.stream.language.markup">eng</property>
  <property name="meta.attr.1.stream.handler_name.markup">VideoHandle</property>
  <property name="meta.attr.major_brand.markup">mp42</property>
  <property name="meta.attr.minor_version.markup">0</property>
  <property name="meta.attr.compatible_brands.markup">isommp42</property>
  <property name="meta.attr.creation_time.markup">2019-10-29T09:21:05.000000Z</property>
  <property name="meta.attr.location.markup">+36.7178-004.4103/</property>
  <property name="meta.attr.location-eng.markup">+36.7178-004.4103/</property>
  <property name="meta.attr.com.android.version.markup">10</property>
  <property name="meta.media.sample_aspect_num">1</property>
  <property name="meta.media.sample_aspect_den">1</property>
  <property name="meta.media.frame_rate_num">90000</property>
  <property name="meta.media.frame_rate_den">2999</property>
  <property name="meta.media.colorspace">601</property>
  <property name="meta.media.color_trc">15</property>
  <property name="meta.media.width">1920</property>
  <property name="meta.media.height">1080</property>
  <property name="meta.media.top_field_first">0</property>
  <property name="meta.media.progressive">1</property>
 </producer>
 <producer id="43_playlist5" title="Anonymous Submission" out="423" in="0">
  <property name="length">424</property>
  <property name="eof">pause</property>
  <property name="resource">videos/VID_20191029_102627.mp4</property>
  <property name="audio_index">0</property>
  <property name="video_index">1</property>
  <property name="mute_on_pause">1</property>
  <property name="mlt_service">avformat-novalidate</property>
  <property name="seekable">1</property>
  <property name="aspect_ratio">1</property>
  <property name="kdenlive:folderid">1</property>
  <property name="kdenlive:file_size">55618348</property>
  <property name="kdenlive:file_hash">ae6425090bd123723e118a7505491695</property>
  <property name="global_feed">1</property>
  <property name="xml">was here</property>
  <property name="meta.media.nb_streams">2</property>
  <property name="meta.media.0.stream.type">audio</property>
  <property name="meta.media.0.codec.sample_fmt">fltp</property>
  <property name="meta.media.0.codec.sample_rate">48000</property>
  <property name="meta.media.0.codec.channels">2</property>
  <property name="meta.media.0.codec.name">aac</property>
  <property name="meta.media.0.codec.long_name">AAC (Advanced Audio Coding)</property>
  <property name="meta.media.0.codec.bit_rate">191869</property>
  <property name="meta.attr.0.stream.creation_time.markup">2019-10-29T09:26:27.000000Z</property>
  <property name="meta.attr.0.stream.language.markup">eng</property>
  <property name="meta.attr.0.stream.handler_name.markup">SoundHandle</property>
  <property name="meta.media.1.stream.type">video</property>
  <property name="meta.media.1.stream.frame_rate">42,2603</property>
  <property name="meta.media.1.stream.sample_aspect_ratio">1</property>
  <property name="meta.media.1.codec.width">1920</property>
  <property name="meta.media.1.codec.height">1080</property>
  <property name="meta.media.1.codec.rotate">0</property>
  <property name="meta.media.1.codec.frame_rate">90000</property>
  <property name="meta.media.1.codec.pix_fmt">yuvj420p</property>
  <property name="meta.media.1.codec.sample_aspect_ratio">0</property>
  <property name="meta.media.1.codec.colorspace">601</property>
  <property name="meta.media.1.codec.color_trc">15</property>
  <property name="meta.media.1.codec.name">h264</property>
  <property name="meta.media.1.codec.long_name">H.264 / AVC / MPEG-4 AVC / MPEG-4 part 10</property>
  <property name="meta.media.1.codec.bit_rate">26064175</property>
  <property name="meta.attr.1.stream.creation_time.markup">2019-10-29T09:26:27.000000Z</property>
  <property name="meta.attr.1.stream.language.markup">eng</property>
  <property name="meta.attr.1.stream.handler_name.markup">VideoHandle</property>
  <property name="meta.attr.major_brand.markup">mp42</property>
  <property name="meta.attr.minor_version.markup">0</property>
  <property name="meta.attr.compatible_brands.markup">isommp42</property>
  <property name="meta.attr.creation_time.markup">2019-10-29T09:26:27.000000Z</property>
  <property name="meta.attr.location.markup">+36.7172-004.4096/</property>
  <property name="meta.attr.location-eng.markup">+36.7172-004.4096/</property>
  <property name="meta.attr.com.android.version.markup">10</property>
  <property name="meta.media.sample_aspect_num">1</property>
  <property name="meta.media.sample_aspect_den">1</property>
  <property name="meta.media.frame_rate_num">21480000</property>
  <property name="meta.media.frame_rate_den">508279</property>
  <property name="meta.media.colorspace">601</property>
  <property name="meta.media.color_trc">15</property>
  <property name="meta.media.width">1920</property>
  <property name="meta.media.height">1080</property>
  <property name="meta.media.variable_frame_rate">1</property>
  <property name="meta.media.top_field_first">0</property>
  <property name="meta.media.progressive">1</property>
 </producer>
 <producer id="44_playlist5" title="Anonymous Submission" out="132" in="0">
  <property name="length">133</property>
  <property name="eof">pause</property>
  <property name="resource">videos/VID_20191029_110246.mp4</property>
  <property name="audio_index">0</property>
  <property name="video_index">1</property>
  <property name="mute_on_pause">1</property>
  <property name="mlt_service">avformat-novalidate</property>
  <property name="seekable">1</property>
  <property name="aspect_ratio">1</property>
  <property name="kdenlive:folderid">1</property>
  <property name="kdenlive:file_size">15550283</property>
  <property name="kdenlive:file_hash">5765d0ce14feb1165ead1a599f3a57ce</property>
  <property name="global_feed">1</property>
  <property name="xml">was here</property>
  <property name="meta.media.nb_streams">2</property>
  <property name="meta.media.0.stream.type">audio</property>
  <property name="meta.media.0.codec.sample_fmt">fltp</property>
  <property name="meta.media.0.codec.sample_rate">48000</property>
  <property name="meta.media.0.codec.channels">2</property>
  <property name="meta.media.0.codec.name">aac</property>
  <property name="meta.media.0.codec.long_name">AAC (Advanced Audio Coding)</property>
  <property name="meta.media.0.codec.bit_rate">191643</property>
  <property name="meta.attr.0.stream.creation_time.markup">2019-10-29T10:02:46.000000Z</property>
  <property name="meta.attr.0.stream.language.markup">eng</property>
  <property name="meta.attr.0.stream.handler_name.markup">SoundHandle</property>
  <property name="meta.media.1.stream.type">video</property>
  <property name="meta.media.1.stream.frame_rate">32,2779</property>
  <property name="meta.media.1.stream.sample_aspect_ratio">1</property>
  <property name="meta.media.1.codec.width">1920</property>
  <property name="meta.media.1.codec.height">1080</property>
  <property name="meta.media.1.codec.rotate">0</property>
  <property name="meta.media.1.codec.frame_rate">90000</property>
  <property name="meta.media.1.codec.pix_fmt">yuvj420p</property>
  <property name="meta.media.1.codec.sample_aspect_ratio">0</property>
  <property name="meta.media.1.codec.colorspace">601</property>
  <property name="meta.media.1.codec.color_trc">15</property>
  <property name="meta.media.1.codec.name">h264</property>
  <property name="meta.media.1.codec.long_name">H.264 / AVC / MPEG-4 AVC / MPEG-4 part 10</property>
  <property name="meta.media.1.codec.bit_rate">23285043</property>
  <property name="meta.attr.1.stream.creation_time.markup">2019-10-29T10:02:46.000000Z</property>
  <property name="meta.attr.1.stream.language.markup">eng</property>
  <property name="meta.attr.1.stream.handler_name.markup">VideoHandle</property>
  <property name="meta.attr.major_brand.markup">mp42</property>
  <property name="meta.attr.minor_version.markup">0</property>
  <property name="meta.attr.compatible_brands.markup">isommp42</property>
  <property name="meta.attr.creation_time.markup">2019-10-29T10:02:46.000000Z</property>
  <property name="meta.attr.location.markup">+36.7189-004.4082/</property>
  <property name="meta.attr.location-eng.markup">+36.7189-004.4082/</property>
  <property name="meta.attr.com.android.version.markup">10</property>
  <property name="meta.media.sample_aspect_num">1</property>
  <property name="meta.media.sample_aspect_den">1</property>
  <property name="meta.media.frame_rate_num">15390000</property>
  <property name="meta.media.frame_rate_den">476797</property>
  <property name="meta.media.colorspace">601</property>
  <property name="meta.media.color_trc">15</property>
  <property name="meta.media.width">1920</property>
  <property name="meta.media.height">1080</property>
  <property name="meta.media.top_field_first">0</property>
  <property name="meta.media.progressive">1</property>
 </producer>
 <producer id="45_playlist5" title="Anonymous Submission" out="270" in="0">
  <property name="length">271</property>
  <property name="eof">pause</property>
  <property name="resource">videos/VID_20191029_121327.mp4</property>
  <property name="audio_index">0</property>
  <property name="video_index">1</property>
  <property name="mute_on_pause">1</property>
  <property name="mlt_service">avformat-novalidate</property>
  <property name="seekable">1</property>
  <property name="aspect_ratio">1</property>
  <property name="kdenlive:folderid">1</property>
  <property name="kdenlive:file_size">36193348</property>
  <property name="kdenlive:file_hash">b34ea1b55a7a2192e08d65aad7a42883</property>
  <property name="global_feed">1</property>
  <property name="xml">was here</property>
  <property name="meta.media.nb_streams">2</property>
  <property name="meta.media.0.stream.type">audio</property>
  <property name="meta.media.0.codec.sample_fmt">fltp</property>
  <property name="meta.media.0.codec.sample_rate">48000</property>
  <property name="meta.media.0.codec.channels">2</property>
  <property name="meta.media.0.codec.name">aac</property>
  <property name="meta.media.0.codec.long_name">AAC (Advanced Audio Coding)</property>
  <property name="meta.media.0.codec.bit_rate">191459</property>
  <property name="meta.attr.0.stream.creation_time.markup">2019-10-29T11:13:27.000000Z</property>
  <property name="meta.attr.0.stream.language.markup">eng</property>
  <property name="meta.attr.0.stream.handler_name.markup">SoundHandle</property>
  <property name="meta.media.1.stream.type">video</property>
  <property name="meta.media.1.stream.frame_rate">41,2791</property>
  <property name="meta.media.1.stream.sample_aspect_ratio">1</property>
  <property name="meta.media.1.codec.width">1920</property>
  <property name="meta.media.1.codec.height">1080</property>
  <property name="meta.media.1.codec.rotate">0</property>
  <property name="meta.media.1.codec.frame_rate">90000</property>
  <property name="meta.media.1.codec.pix_fmt">yuvj420p</property>
  <property name="meta.media.1.codec.sample_aspect_ratio">0</property>
  <property name="meta.media.1.codec.colorspace">601</property>
  <property name="meta.media.1.codec.color_trc">15</property>
  <property name="meta.media.1.codec.name">h264</property>
  <property name="meta.media.1.codec.long_name">H.264 / AVC / MPEG-4 AVC / MPEG-4 part 10</property>
  <property name="meta.media.1.codec.bit_rate">26540226</property>
  <property name="meta.attr.1.stream.creation_time.markup">2019-10-29T11:13:27.000000Z</property>
  <property name="meta.attr.1.stream.language.markup">eng</property>
  <property name="meta.attr.1.stream.handler_name.markup">VideoHandle</property>
  <property name="meta.attr.major_brand.markup">mp42</property>
  <property name="meta.attr.minor_version.markup">0</property>
  <property name="meta.attr.compatible_brands.markup">isommp42</property>
  <property name="meta.attr.creation_time.markup">2019-10-29T11:13:27.000000Z</property>
  <property name="meta.attr.location.markup">+36.7184-004.4131/</property>
  <property name="meta.attr.location-eng.markup">+36.7184-004.4131/</property>
  <property name="meta.attr.com.android.version.markup">10</property>
  <property name="meta.media.sample_aspect_num">1</property>
  <property name="meta.media.sample_aspect_den">1</property>
  <property name="meta.media.frame_rate_num">8046000</property>
  <property name="meta.media.frame_rate_den">194917</property>
  <property name="meta.media.colorspace">601</property>
  <property name="meta.media.color_trc">15</property>
  <property name="meta.media.width">1920</property>
  <property name="meta.media.height">1080</property>
  <property name="meta.media.top_field_first">0</property>
  <property name="meta.media.progressive">1</property>
 </producer>
 <producer id="46_playlist5" title="Anonymous Submission" out="226" in="0">
  <property name="length">227</property>
  <property name="eof">pause</property>
  <property name="resource">videos/VID_20191029_121345.mp4</property>
  <property name="audio_index">0</property>
  <property name="video_index">1</property>
  <property name="mute_on_pause">1</property>
  <property name="mlt_service">avformat-novalidate</property>
  <property name="seekable">1</property>
  <property name="aspect_ratio">1</property>
  <property name="kdenlive:folderid">1</property>
  <property name="kdenlive:file_size">25670079</property>
  <property name="kdenlive:file_hash">44d26f9373bab8d16dda22a74bc3493a</property>
  <property name="global_feed">1</property>
  <property name="xml">was here</property>
  <property name="meta.media.nb_streams">2</property>
  <property name="meta.media.0.stream.type">audio</property>
  <property name="meta.media.0.codec.sample_fmt">fltp</property>
  <property name="meta.media.0.codec.sample_rate">48000</property>
  <property name="meta.media.0.codec.channels">2</property>
  <property name="meta.media.0.codec.name">aac</property>
  <property name="meta.media.0.codec.long_name">AAC (Advanced Audio Coding)</property>
  <property name="meta.media.0.codec.bit_rate">191938</property>
  <property name="meta.attr.0.stream.creation_time.markup">2019-10-29T11:13:45.000000Z</property>
  <property name="meta.attr.0.stream.language.markup">eng</property>
  <property name="meta.attr.0.stream.handler_name.markup">SoundHandle</property>
  <property name="meta.media.1.stream.type">video</property>
  <property name="meta.media.1.stream.frame_rate">30,012</property>
  <property name="meta.media.1.stream.sample_aspect_ratio">1</property>
  <property name="meta.media.1.codec.width">1920</property>
  <property name="meta.media.1.codec.height">1080</property>
  <property name="meta.media.1.codec.rotate">0</property>
  <property name="meta.media.1.codec.frame_rate">90000</property>
  <property name="meta.media.1.codec.pix_fmt">yuvj420p</property>
  <property name="meta.media.1.codec.sample_aspect_ratio">0</property>
  <property name="meta.media.1.codec.colorspace">601</property>
  <property name="meta.media.1.codec.color_trc">15</property>
  <property name="meta.media.1.codec.name">h264</property>
  <property name="meta.media.1.codec.long_name">H.264 / AVC / MPEG-4 AVC / MPEG-4 part 10</property>
  <property name="meta.media.1.codec.bit_rate">22460337</property>
  <property name="meta.attr.1.stream.creation_time.markup">2019-10-29T11:13:45.000000Z</property>
  <property name="meta.attr.1.stream.language.markup">eng</property>
  <property name="meta.attr.1.stream.handler_name.markup">VideoHandle</property>
  <property name="meta.attr.major_brand.markup">mp42</property>
  <property name="meta.attr.minor_version.markup">0</property>
  <property name="meta.attr.compatible_brands.markup">isommp42</property>
  <property name="meta.attr.creation_time.markup">2019-10-29T11:13:45.000000Z</property>
  <property name="meta.attr.location.markup">+36.7178-004.4130/</property>
  <property name="meta.attr.location-eng.markup">+36.7178-004.4130/</property>
  <property name="meta.attr.com.android.version.markup">10</property>
  <property name="meta.media.sample_aspect_num">1</property>
  <property name="meta.media.sample_aspect_den">1</property>
  <property name="meta.media.frame_rate_num">12240000</property>
  <property name="meta.media.frame_rate_den">407837</property>
  <property name="meta.media.colorspace">601</property>
  <property name="meta.media.color_trc">15</property>
  <property name="meta.media.width">1920</property>
  <property name="meta.media.height">1080</property>
  <property name="meta.media.top_field_first">0</property>
  <property name="meta.media.progressive">1</property>
 </producer>
 <producer id="slowmotion:48:2,5:1:0" out="313" in="0">
  <property name="length">314</property>
  <property name="eof">pause</property>
  <property name="resource">2,5:videos/VID_20191029_121649.mp4</property>
  <property name="aspect_ratio">1</property>
  <property name="meta.media.nb_streams">2</property>
  <property name="meta.media.0.stream.type">audio</property>
  <property name="meta.media.0.codec.sample_fmt">fltp</property>
  <property name="meta.media.0.codec.sample_rate">48000</property>
  <property name="meta.media.0.codec.channels">2</property>
  <property name="meta.media.0.codec.name">aac</property>
  <property name="meta.media.0.codec.long_name">AAC (Advanced Audio Coding)</property>
  <property name="meta.media.0.codec.bit_rate">191805</property>
  <property name="meta.attr.0.stream.creation_time.markup">2019-10-29T11:16:49.000000Z</property>
  <property name="meta.attr.0.stream.language.markup">eng</property>
  <property name="meta.attr.0.stream.handler_name.markup">SoundHandle</property>
  <property name="meta.media.1.stream.type">video</property>
  <property name="meta.media.1.stream.frame_rate">33,4876</property>
  <property name="meta.media.1.stream.sample_aspect_ratio">1</property>
  <property name="meta.media.1.codec.width">1920</property>
  <property name="meta.media.1.codec.height">1080</property>
  <property name="meta.media.1.codec.rotate">0</property>
  <property name="meta.media.1.codec.frame_rate">90000</property>
  <property name="meta.media.1.codec.pix_fmt">yuvj420p</property>
  <property name="meta.media.1.codec.sample_aspect_ratio">0</property>
  <property name="meta.media.1.codec.colorspace">601</property>
  <property name="meta.media.1.codec.color_trc">15</property>
  <property name="meta.media.1.codec.name">h264</property>
  <property name="meta.media.1.codec.long_name">H.264 / AVC / MPEG-4 AVC / MPEG-4 part 10</property>
  <property name="meta.media.1.codec.bit_rate">23231227</property>
  <property name="meta.attr.1.stream.creation_time.markup">2019-10-29T11:16:49.000000Z</property>
  <property name="meta.attr.1.stream.language.markup">eng</property>
  <property name="meta.attr.1.stream.handler_name.markup">VideoHandle</property>
  <property name="meta.attr.major_brand.markup">mp42</property>
  <property name="meta.attr.minor_version.markup">0</property>
  <property name="meta.attr.compatible_brands.markup">isommp42</property>
  <property name="meta.attr.creation_time.markup">2019-10-29T11:16:49.000000Z</property>
  <property name="meta.attr.location.markup">+36.7187-004.4140/</property>
  <property name="meta.attr.location-eng.markup">+36.7187-004.4140/</property>
  <property name="meta.attr.com.android.version.markup">10</property>
  <property name="seekable">1</property>
  <property name="meta.media.sample_aspect_num">1</property>
  <property name="meta.media.sample_aspect_den">1</property>
  <property name="audio_index">0</property>
  <property name="video_index">1</property>
  <property name="mute_on_pause">1</property>
  <property name="warp_speed">2,5</property>
  <property name="warp_resource">videos/VID_20191029_121649.mp4</property>
  <property name="mlt_service">timewarp</property>
  <property name="meta.media.frame_rate_num">10500000</property>
  <property name="meta.media.frame_rate_den">313549</property>
  <property name="meta.media.colorspace">601</property>
  <property name="meta.media.color_trc">15</property>
  <property name="meta.media.width">1920</property>
  <property name="meta.media.height">1080</property>
  <property name="meta.media.top_field_first">0</property>
  <property name="meta.media.progressive">1</property>
 </producer>
 <playlist id="playlist5">
  <property name="kdenlive:track_name">Video 3</property>
  <blank length="11"/>
  <entry out="705" producer="1_playlist5" in="0">
   <filter id="gain">
    <property name="window">75</property>
    <property name="max_gain">20dB</property>
    <property name="mlt_service">volume</property>
    <property name="kdenlive_id">gain</property>
    <property name="tag">volume</property>
    <property name="kdenlive_ix">1</property>
    <property name="gain">1,4</property>
    <property name="kdenlive_info"/>
   </filter>
  </entry>
  <entry out="2061" producer="1_playlist5" in="1875">
   <filter id="fade_to_black" out="2062" in="2043">
    <property name="start">1</property>
    <property name="mlt_service">brightness</property>
    <property name="kdenlive_id">fade_to_black</property>
    <property name="tag">brightness</property>
    <property name="kdenlive_ix">1</property>
    <property name="end">0</property>
    <property name="kdenlive_info"/>
   </filter>
   <filter id="filter3">
    <property name="window">75</property>
    <property name="max_gain">20dB</property>
    <property name="level">1875=0;2049=-2;2055=-60</property>
    <property name="mlt_service">volume</property>
    <property name="kdenlive_id">volume</property>
    <property name="tag">volume</property>
    <property name="kdenlive_ix">2</property>
    <property name="kdenlive_info"/>
   </filter>
  </entry>
  <blank length="130"/>
  <entry out="102" producer="slowmotion:5:3:1:0" in="0">
   <filter id="filter4">
    <property name="window">75</property>
    <property name="max_gain">20dB</property>
    <property name="mlt_service">volume</property>
    <property name="kdenlive_id">mute</property>
    <property name="tag">volume</property>
    <property name="kdenlive_ix">1</property>
    <property name="gain">0</property>
   </filter>
  </entry>
  <entry out="1103" producer="7_playlist5" in="683">
   <filter id="filter1">
    <property name="window">75</property>
    <property name="max_gain">20dB</property>
    <property name="mlt_service">volume</property>
    <property name="kdenlive_id">gain</property>
    <property name="tag">volume</property>
    <property name="kdenlive_ix">1</property>
    <property name="gain">1,4</property>
    <property name="kdenlive_info"/>
    <property name="disable"/>
   </filter>
  </entry>
  <entry out="62" producer="slowmotion:8:10:1:0" in="0">
   <filter id="filter5">
    <property name="window">75</property>
    <property name="max_gain">20dB</property>
    <property name="mlt_service">volume</property>
    <property name="kdenlive_id">mute</property>
    <property name="tag">volume</property>
    <property name="kdenlive_ix">1</property>
    <property name="gain">0</property>
   </filter>
  </entry>
  <entry out="555" producer="slowmotion:9:6:1:0" in="402">
   <filter id="filter6">
    <property name="window">75</property>
    <property name="max_gain">20dB</property>
    <property name="mlt_service">volume</property>
    <property name="kdenlive_id">mute</property>
    <property name="tag">volume</property>
    <property name="kdenlive_ix">1</property>
    <property name="gain">0</property>
   </filter>
  </entry>
  <entry out="834" producer="slowmotion:13:5:1:0" in="521">
   <filter id="filter7">
    <property name="window">75</property>
    <property name="max_gain">20dB</property>
    <property name="mlt_service">volume</property>
    <property name="kdenlive_id">mute</property>
    <property name="tag">volume</property>
    <property name="kdenlive_ix">1</property>
    <property name="gain">0</property>
   </filter>
  </entry>
  <entry out="1292" producer="29_playlist5" in="907">
   <filter id="filter8">
    <property name="window">75</property>
    <property name="max_gain">20dB</property>
    <property name="mlt_service">volume</property>
    <property name="kdenlive_id">gain</property>
    <property name="tag">volume</property>
    <property name="kdenlive_ix">1</property>
    <property name="gain">1,4</property>
    <property name="kdenlive_info"/>
    <property name="disable"/>
   </filter>
  </entry>
  <entry out="57" producer="30_playlist5" in="0">
   <filter id="filter9">
    <property name="window">75</property>
    <property name="max_gain">20dB</property>
    <property name="mlt_service">volume</property>
    <property name="kdenlive_id">mute</property>
    <property name="tag">volume</property>
    <property name="kdenlive_ix">1</property>
    <property name="gain">0</property>
   </filter>
  </entry>
  <entry out="140" producer="33_playlist5" in="0">
   <filter id="filter10">
    <property name="window">75</property>
    <property name="max_gain">20dB</property>
    <property name="mlt_service">volume</property>
    <property name="kdenlive_id">mute</property>
    <property name="tag">volume</property>
    <property name="kdenlive_ix">1</property>
    <property name="gain">0</property>
   </filter>
  </entry>
  <entry out="134" producer="34_playlist5" in="0">
   <filter id="filter11">
    <property name="window">75</property>
    <property name="max_gain">20dB</property>
    <property name="mlt_service">volume</property>
    <property name="kdenlive_id">mute</property>
    <property name="tag">volume</property>
    <property name="kdenlive_ix">1</property>
    <property name="gain">0</property>
   </filter>
  </entry>
  <entry out="191" producer="36_playlist5" in="0">
   <filter id="filter12">
    <property name="window">75</property>
    <property name="max_gain">20dB</property>
    <property name="mlt_service">volume</property>
    <property name="kdenlive_id">mute</property>
    <property name="tag">volume</property>
    <property name="kdenlive_ix">1</property>
    <property name="gain">0</property>
   </filter>
  </entry>
  <entry out="243" producer="37_playlist5" in="0">
   <filter id="filter13">
    <property name="window">75</property>
    <property name="max_gain">20dB</property>
    <property name="mlt_service">volume</property>
    <property name="kdenlive_id">mute</property>
    <property name="tag">volume</property>
    <property name="kdenlive_ix">1</property>
    <property name="gain">0</property>
   </filter>
  </entry>
  <entry out="428" producer="26_playlist5" in="0">
   <filter id="filter14">
    <property name="window">75</property>
    <property name="max_gain">20dB</property>
    <property name="mlt_service">volume</property>
    <property name="kdenlive_id">mute</property>
    <property name="tag">volume</property>
    <property name="kdenlive_ix">1</property>
    <property name="gain">0</property>
   </filter>
   <filter id="filter15">
    <property name="window">75</property>
    <property name="max_gain">20dB</property>
    <property name="mlt_service">volume</property>
    <property name="kdenlive_id">mute</property>
    <property name="tag">volume</property>
    <property name="kdenlive_ix">2</property>
    <property name="gain">0</property>
   </filter>
  </entry>
  <entry out="261" producer="23_playlist5" in="0">
   <filter id="filter16">
    <property name="window">75</property>
    <property name="max_gain">20dB</property>
    <property name="mlt_service">volume</property>
    <property name="kdenlive_id">mute</property>
    <property name="tag">volume</property>
    <property name="kdenlive_ix">1</property>
    <property name="gain">0</property>
   </filter>
   <filter id="filter17">
    <property name="window">75</property>
    <property name="max_gain">20dB</property>
    <property name="mlt_service">volume</property>
    <property name="kdenlive_id">mute</property>
    <property name="tag">volume</property>
    <property name="kdenlive_ix">2</property>
    <property name="gain">0</property>
   </filter>
  </entry>
  <entry out="287" producer="22_playlist5" in="0">
   <filter id="filter18">
    <property name="window">75</property>
    <property name="max_gain">20dB</property>
    <property name="mlt_service">volume</property>
    <property name="kdenlive_id">mute</property>
    <property name="tag">volume</property>
    <property name="kdenlive_ix">1</property>
    <property name="gain">0</property>
   </filter>
  </entry>
  <entry out="193" producer="40_playlist5" in="0">
   <filter id="filter22">
    <property name="window">75</property>
    <property name="max_gain">20dB</property>
    <property name="mlt_service">volume</property>
    <property name="kdenlive_id">mute</property>
    <property name="tag">volume</property>
    <property name="kdenlive_ix">1</property>
    <property name="gain">0</property>
   </filter>
  </entry>
  <entry out="140" producer="41_playlist5" in="0">
   <filter id="filter23">
    <property name="window">75</property>
    <property name="max_gain">20dB</property>
    <property name="mlt_service">volume</property>
    <property name="kdenlive_id">mute</property>
    <property name="tag">volume</property>
    <property name="kdenlive_ix">1</property>
    <property name="gain">0</property>
   </filter>
  </entry>
  <entry out="133" producer="43_playlist5" in="0">
   <filter id="filter24">
    <property name="window">75</property>
    <property name="max_gain">20dB</property>
    <property name="mlt_service">volume</property>
    <property name="kdenlive_id">mute</property>
    <property name="tag">volume</property>
    <property name="kdenlive_ix">1</property>
    <property name="gain">0</property>
   </filter>
  </entry>
  <entry out="132" producer="44_playlist5" in="0">
   <filter id="filter25">
    <property name="window">75</property>
    <property name="max_gain">20dB</property>
    <property name="mlt_service">volume</property>
    <property name="kdenlive_id">mute</property>
    <property name="tag">volume</property>
    <property name="kdenlive_ix">1</property>
    <property name="gain">0</property>
   </filter>
  </entry>
  <entry out="84" producer="45_playlist5" in="0">
   <filter id="filter26">
    <property name="window">75</property>
    <property name="max_gain">20dB</property>
    <property name="mlt_service">volume</property>
    <property name="kdenlive_id">mute</property>
    <property name="tag">volume</property>
    <property name="kdenlive_ix">1</property>
    <property name="gain">0</property>
   </filter>
  </entry>
  <entry out="101" producer="46_playlist5" in="0">
   <filter id="filter27">
    <property name="window">75</property>
    <property name="max_gain">20dB</property>
    <property name="mlt_service">volume</property>
    <property name="kdenlive_id">mute</property>
    <property name="tag">volume</property>
    <property name="kdenlive_ix">1</property>
    <property name="gain">0</property>
   </filter>
  </entry>
  <entry out="312" producer="slowmotion:48:2,5:1:0" in="0">
   <filter id="filter28">
    <property name="window">75</property>
    <property name="max_gain">20dB</property>
    <property name="mlt_service">volume</property>
    <property name="kdenlive_id">mute</property>
    <property name="tag">volume</property>
    <property name="kdenlive_ix">1</property>
    <property name="gain">0</property>
   </filter>
   <filter id="filter29">
    <property name="window">75</property>
    <property name="max_gain">20dB</property>
    <property name="mlt_service">volume</property>
    <property name="kdenlive_id">mute</property>
    <property name="tag">volume</property>
    <property name="kdenlive_ix">2</property>
    <property name="gain">0</property>
   </filter>
  </entry>
  <entry out="117" producer="54" in="0"/>
 </playlist>
 <tractor id="maintractor" title="Anonymous Submission" global_feed="1" out="5444" in="0">
  <track producer="black_track"/>
  <track producer="playlist1" hide="video"/>
  <track producer="playlist2" hide="video"/>
  <track producer="playlist3"/>
  <track producer="playlist4"/>
  <track producer="playlist5"/>
  <transition id="transition0">
   <property name="a_track">0</property>
   <property name="b_track">1</property>
   <property name="mlt_service">mix</property>
   <property name="always_active">1</property>
   <property name="sum">1</property>
   <property name="internal_added">237</property>
  </transition>
  <transition id="transition1">
   <property name="a_track">0</property>
   <property name="b_track">2</property>
   <property name="mlt_service">mix</property>
   <property name="always_active">1</property>
   <property name="sum">1</property>
   <property name="internal_added">237</property>
  </transition>
  <transition id="transition2">
   <property name="a_track">0</property>
   <property name="b_track">3</property>
   <property name="mlt_service">mix</property>
   <property name="always_active">1</property>
   <property name="sum">1</property>
   <property name="internal_added">237</property>
  </transition>
  <transition id="transition3">
   <property name="a_track">0</property>
   <property name="b_track">4</property>
   <property name="mlt_service">mix</property>
   <property name="always_active">1</property>
   <property name="sum">1</property>
   <property name="internal_added">237</property>
  </transition>
  <transition id="transition4">
   <property name="a_track">0</property>
   <property name="b_track">5</property>
   <property name="mlt_service">mix</property>
   <property name="always_active">1</property>
   <property name="sum">1</property>
   <property name="internal_added">237</property>
  </transition>
  <transition id="transition5" out="1043" in="1034">
   <property name="a_track">3</property>
   <property name="b_track">4</property>
   <property name="factory">loader</property>
   <property name="mlt_service">luma</property>
   <property name="automatic">1</property>
   <property name="kdenlive_id">dissolve</property>
   <property name="force_track">0</property>
   <property name="reverse">1</property>
  </transition>
  <transition id="transition6">
   <property name="a_track">0</property>
   <property name="b_track">3</property>
   <property name="compositing">0</property>
   <property name="distort">0</property>
   <property name="rotate_center">0</property>
   <property name="mlt_service">qtblend</property>
   <property name="internal_added">237</property>
  </transition>
  <transition id="transition7">
   <property name="a_track">0</property>
   <property name="b_track">4</property>
   <property name="compositing">0</property>
   <property name="distort">0</property>
   <property name="rotate_center">0</property>
   <property name="mlt_service">qtblend</property>
   <property name="internal_added">237</property>
  </transition>
  <transition id="transition8">
   <property name="a_track">0</property>
   <property name="b_track">5</property>
   <property name="compositing">0</property>
   <property name="distort">0</property>
   <property name="rotate_center">0</property>
   <property name="mlt_service">qtblend</property>
   <property name="internal_added">237</property>
  </transition>
 </tractor>
</mlt>
