<?xml version='1.0' encoding='utf-8'?>
<mlt LC_NUMERIC="C" producer="main_bin" version="7.4.0" root="/opt/vlog/reviews/courses/groet">
 <profile frame_rate_num="30" sample_aspect_num="1" display_aspect_den="9" colorspace="709" progressive="1" description="HD 1080p 30 fps" display_aspect_num="16" frame_rate_den="1" width="1920" height="1080" sample_aspect_den="1"/>
 <producer id="producer0" in="00:00:00.000" out="00:01:02.667">
  <property name="length">1881</property>
  <property name="eof">pause</property>
  <property name="resource">videos/PXL_20220330_090506422.TS.mp4</property>
  <property name="audio_index">1</property>
  <property name="video_index">2</property>
  <property name="mute_on_pause">0</property>
  <property name="mlt_service">avformat-novalidate</property>
  <property name="seekable">1</property>
  <property name="aspect_ratio">1</property>
  <property name="kdenlive:clipname"/>
  <property name="kdenlive:folderid">37</property>
  <property name="kdenlive:id">3</property>
  <property name="kdenlive:file_size">155548311</property>
  <property name="kdenlive:file_hash">6696e3d75c72ea844163777db7ddcf10</property>
  <property name="kdenlive:audio_max1">224</property>
  <property name="meta.media.nb_streams">4</property>
  <property name="meta.media.1.stream.type">audio</property>
  <property name="meta.media.1.codec.sample_fmt">fltp</property>
  <property name="meta.media.1.codec.sample_rate">48000</property>
  <property name="meta.media.1.codec.channels">2</property>
  <property name="meta.media.1.codec.name">aac</property>
  <property name="meta.media.1.codec.long_name">AAC (Advanced Audio Coding)</property>
  <property name="meta.media.1.codec.bit_rate">191919</property>
  <property name="meta.attr.1.stream.creation_time.markup">2022-03-30T09:06:15.000000Z</property>
  <property name="meta.attr.1.stream.language.markup">eng</property>
  <property name="meta.attr.1.stream.handler_name.markup">SoundHandle</property>
  <property name="meta.media.2.stream.type">video</property>
  <property name="meta.media.2.stream.frame_rate">30.013</property>
  <property name="meta.media.2.stream.sample_aspect_ratio">1</property>
  <property name="meta.media.2.codec.width">1920</property>
  <property name="meta.media.2.codec.height">1080</property>
  <property name="meta.media.2.codec.rotate">0</property>
  <property name="meta.media.2.codec.pix_fmt">yuvj420p</property>
  <property name="meta.media.2.codec.sample_aspect_ratio">0</property>
  <property name="meta.media.2.codec.colorspace">709</property>
  <property name="meta.media.2.codec.color_trc">1</property>
  <property name="meta.media.2.codec.name">hevc</property>
  <property name="meta.media.2.codec.long_name">HEVC (High Efficiency Video Coding)</property>
  <property name="meta.media.2.codec.bit_rate">19621546</property>
  <property name="meta.attr.2.stream.creation_time.markup">2022-03-30T09:06:15.000000Z</property>
  <property name="meta.attr.2.stream.language.markup">eng</property>
  <property name="meta.attr.2.stream.handler_name.markup">VideoHandle</property>
  <property name="meta.attr.major_brand.markup">isom</property>
  <property name="meta.attr.minor_version.markup">131072</property>
  <property name="meta.attr.compatible_brands.markup">isomiso2mp41</property>
  <property name="meta.attr.creation_time.markup">2022-03-30T09:06:15.000000Z</property>
  <property name="meta.attr.location.markup">+52.7185+4.6578/</property>
  <property name="meta.attr.location-eng.markup">+52.7185+4.6578/</property>
  <property name="meta.attr.com.android.capture.fps.markup">30.000000</property>
  <property name="meta.media.sample_aspect_num">1</property>
  <property name="meta.media.sample_aspect_den">1</property>
  <property name="meta.media.frame_rate_num">84690000</property>
  <property name="meta.media.frame_rate_den">2821777</property>
  <property name="meta.media.colorspace">709</property>
  <property name="meta.media.color_trc">1</property>
  <property name="meta.media.has_b_frames">0</property>
  <property name="meta.media.width">1920</property>
  <property name="meta.media.height">1080</property>
  <property name="meta.media.color_range">full</property>
  <property name="meta.media.variable_frame_rate">1</property>
  <property name="meta.media.top_field_first">0</property>
  <property name="meta.media.progressive">1</property>
 </producer>
 <producer id="producer1" in="00:00:00.000" out="00:00:10.600">
  <property name="length">319</property>
  <property name="eof">pause</property>
  <property name="resource">videos/PXL_20220330_090647184.TS.mp4</property>
  <property name="audio_index">1</property>
  <property name="video_index">2</property>
  <property name="mute_on_pause">0</property>
  <property name="mlt_service">avformat-novalidate</property>
  <property name="seekable">1</property>
  <property name="aspect_ratio">1</property>
  <property name="kdenlive:clipname"/>
  <property name="kdenlive:folderid">37</property>
  <property name="kdenlive:id">4</property>
  <property name="kdenlive:file_size">26472531</property>
  <property name="kdenlive:file_hash">e09d80d3eacc2d1884e94019a2b75696</property>
  <property name="kdenlive:audio_max1">216</property>
  <property name="meta.media.nb_streams">4</property>
  <property name="meta.media.1.stream.type">audio</property>
  <property name="meta.media.1.codec.sample_fmt">fltp</property>
  <property name="meta.media.1.codec.sample_rate">48000</property>
  <property name="meta.media.1.codec.channels">2</property>
  <property name="meta.media.1.codec.name">aac</property>
  <property name="meta.media.1.codec.long_name">AAC (Advanced Audio Coding)</property>
  <property name="meta.media.1.codec.bit_rate">191652</property>
  <property name="meta.attr.1.stream.creation_time.markup">2022-03-30T09:07:03.000000Z</property>
  <property name="meta.attr.1.stream.language.markup">eng</property>
  <property name="meta.attr.1.stream.handler_name.markup">SoundHandle</property>
  <property name="meta.media.2.stream.type">video</property>
  <property name="meta.media.2.stream.frame_rate">29.997</property>
  <property name="meta.media.2.stream.sample_aspect_ratio">1</property>
  <property name="meta.media.2.codec.width">1920</property>
  <property name="meta.media.2.codec.height">1080</property>
  <property name="meta.media.2.codec.rotate">0</property>
  <property name="meta.media.2.codec.pix_fmt">yuvj420p</property>
  <property name="meta.media.2.codec.sample_aspect_ratio">0</property>
  <property name="meta.media.2.codec.colorspace">709</property>
  <property name="meta.media.2.codec.color_trc">1</property>
  <property name="meta.media.2.codec.name">hevc</property>
  <property name="meta.media.2.codec.long_name">HEVC (High Efficiency Video Coding)</property>
  <property name="meta.media.2.codec.bit_rate">19674469</property>
  <property name="meta.attr.2.stream.creation_time.markup">2022-03-30T09:07:03.000000Z</property>
  <property name="meta.attr.2.stream.language.markup">eng</property>
  <property name="meta.attr.2.stream.handler_name.markup">VideoHandle</property>
  <property name="meta.attr.major_brand.markup">isom</property>
  <property name="meta.attr.minor_version.markup">131072</property>
  <property name="meta.attr.compatible_brands.markup">isomiso2mp41</property>
  <property name="meta.attr.creation_time.markup">2022-03-30T09:07:03.000000Z</property>
  <property name="meta.attr.location.markup">+52.7207+4.6577/</property>
  <property name="meta.attr.location-eng.markup">+52.7207+4.6577/</property>
  <property name="meta.attr.com.android.capture.fps.markup">30.000000</property>
  <property name="meta.media.sample_aspect_num">1</property>
  <property name="meta.media.sample_aspect_den">1</property>
  <property name="meta.media.frame_rate_num">28710000</property>
  <property name="meta.media.frame_rate_den">957097</property>
  <property name="meta.media.colorspace">709</property>
  <property name="meta.media.color_trc">1</property>
  <property name="meta.media.has_b_frames">0</property>
  <property name="meta.media.width">1920</property>
  <property name="meta.media.height">1080</property>
  <property name="meta.media.color_range">full</property>
  <property name="meta.media.variable_frame_rate">1</property>
  <property name="meta.media.top_field_first">0</property>
  <property name="meta.media.progressive">1</property>
 </producer>
 <producer id="producer2" in="00:00:00.000" out="00:00:12.033">
  <property name="length">362</property>
  <property name="eof">pause</property>
  <property name="resource">videos/PXL_20220330_090704209.TS.mp4</property>
  <property name="audio_index">1</property>
  <property name="video_index">2</property>
  <property name="mute_on_pause">0</property>
  <property name="mlt_service">avformat-novalidate</property>
  <property name="seekable">1</property>
  <property name="aspect_ratio">1</property>
  <property name="kdenlive:clipname"/>
  <property name="kdenlive:folderid">37</property>
  <property name="kdenlive:file_size">30015705</property>
  <property name="kdenlive:id">5</property>
  <property name="kdenlive:file_hash">893dd2e9fd341518901d1b226c96bfd9</property>
  <property name="kdenlive:audio_max1">217</property>
  <property name="meta.media.nb_streams">4</property>
  <property name="meta.media.1.stream.type">audio</property>
  <property name="meta.media.1.codec.sample_fmt">fltp</property>
  <property name="meta.media.1.codec.sample_rate">48000</property>
  <property name="meta.media.1.codec.channels">2</property>
  <property name="meta.media.1.codec.name">aac</property>
  <property name="meta.media.1.codec.long_name">AAC (Advanced Audio Coding)</property>
  <property name="meta.media.1.codec.bit_rate">191714</property>
  <property name="meta.attr.1.stream.creation_time.markup">2022-03-30T09:07:17.000000Z</property>
  <property name="meta.attr.1.stream.language.markup">eng</property>
  <property name="meta.attr.1.stream.handler_name.markup">SoundHandle</property>
  <property name="meta.media.2.stream.type">video</property>
  <property name="meta.media.2.stream.frame_rate">29.9966</property>
  <property name="meta.media.2.stream.sample_aspect_ratio">1</property>
  <property name="meta.media.2.codec.width">1920</property>
  <property name="meta.media.2.codec.height">1080</property>
  <property name="meta.media.2.codec.rotate">0</property>
  <property name="meta.media.2.codec.pix_fmt">yuvj420p</property>
  <property name="meta.media.2.codec.sample_aspect_ratio">0</property>
  <property name="meta.media.2.codec.colorspace">709</property>
  <property name="meta.media.2.codec.color_trc">1</property>
  <property name="meta.media.2.codec.name">hevc</property>
  <property name="meta.media.2.codec.long_name">HEVC (High Efficiency Video Coding)</property>
  <property name="meta.media.2.codec.bit_rate">19657543</property>
  <property name="meta.attr.2.stream.creation_time.markup">2022-03-30T09:07:17.000000Z</property>
  <property name="meta.attr.2.stream.language.markup">eng</property>
  <property name="meta.attr.2.stream.handler_name.markup">VideoHandle</property>
  <property name="meta.attr.major_brand.markup">isom</property>
  <property name="meta.attr.minor_version.markup">131072</property>
  <property name="meta.attr.compatible_brands.markup">isomiso2mp41</property>
  <property name="meta.attr.creation_time.markup">2022-03-30T09:07:17.000000Z</property>
  <property name="meta.attr.location.markup">+52.7181+4.6581/</property>
  <property name="meta.attr.location-eng.markup">+52.7181+4.6581/</property>
  <property name="meta.attr.com.android.capture.fps.markup">30.000000</property>
  <property name="meta.media.sample_aspect_num">1</property>
  <property name="meta.media.sample_aspect_den">1</property>
  <property name="meta.media.frame_rate_num">10860000</property>
  <property name="meta.media.frame_rate_den">362041</property>
  <property name="meta.media.colorspace">709</property>
  <property name="meta.media.color_trc">1</property>
  <property name="meta.media.has_b_frames">0</property>
  <property name="meta.media.width">1920</property>
  <property name="meta.media.height">1080</property>
  <property name="meta.media.color_range">full</property>
  <property name="meta.media.variable_frame_rate">1</property>
  <property name="meta.media.top_field_first">0</property>
  <property name="meta.media.progressive">1</property>
 </producer>
 <producer id="producer3" in="00:00:00.000" out="00:00:30.667">
  <property name="length">921</property>
  <property name="eof">pause</property>
  <property name="resource">videos/PXL_20220330_090719070.TS.mp4</property>
  <property name="audio_index">1</property>
  <property name="video_index">2</property>
  <property name="mute_on_pause">0</property>
  <property name="mlt_service">avformat-novalidate</property>
  <property name="seekable">1</property>
  <property name="aspect_ratio">1</property>
  <property name="kdenlive:clipname"/>
  <property name="kdenlive:folderid">37</property>
  <property name="kdenlive:file_size">76220773</property>
  <property name="kdenlive:id">6</property>
  <property name="kdenlive:file_hash">56a1c02312f771231019b02a32caa5da</property>
  <property name="kdenlive:audio_max1">208</property>
  <property name="meta.media.nb_streams">4</property>
  <property name="meta.media.1.stream.type">audio</property>
  <property name="meta.media.1.codec.sample_fmt">fltp</property>
  <property name="meta.media.1.codec.sample_rate">48000</property>
  <property name="meta.media.1.codec.channels">2</property>
  <property name="meta.media.1.codec.name">aac</property>
  <property name="meta.media.1.codec.long_name">AAC (Advanced Audio Coding)</property>
  <property name="meta.media.1.codec.bit_rate">191839</property>
  <property name="meta.attr.1.stream.creation_time.markup">2022-03-30T09:07:51.000000Z</property>
  <property name="meta.attr.1.stream.language.markup">eng</property>
  <property name="meta.attr.1.stream.handler_name.markup">SoundHandle</property>
  <property name="meta.media.2.stream.type">video</property>
  <property name="meta.media.2.stream.frame_rate">29.9973</property>
  <property name="meta.media.2.stream.sample_aspect_ratio">1</property>
  <property name="meta.media.2.codec.width">1920</property>
  <property name="meta.media.2.codec.height">1080</property>
  <property name="meta.media.2.codec.rotate">0</property>
  <property name="meta.media.2.codec.pix_fmt">yuvj420p</property>
  <property name="meta.media.2.codec.sample_aspect_ratio">0</property>
  <property name="meta.media.2.codec.colorspace">709</property>
  <property name="meta.media.2.codec.color_trc">1</property>
  <property name="meta.media.2.codec.name">hevc</property>
  <property name="meta.media.2.codec.long_name">HEVC (High Efficiency Video Coding)</property>
  <property name="meta.media.2.codec.bit_rate">19620620</property>
  <property name="meta.attr.2.stream.creation_time.markup">2022-03-30T09:07:51.000000Z</property>
  <property name="meta.attr.2.stream.language.markup">eng</property>
  <property name="meta.attr.2.stream.handler_name.markup">VideoHandle</property>
  <property name="meta.attr.major_brand.markup">isom</property>
  <property name="meta.attr.minor_version.markup">131072</property>
  <property name="meta.attr.compatible_brands.markup">isomiso2mp41</property>
  <property name="meta.attr.creation_time.markup">2022-03-30T09:07:51.000000Z</property>
  <property name="meta.attr.location.markup">+52.7181+4.6581/</property>
  <property name="meta.attr.location-eng.markup">+52.7181+4.6581/</property>
  <property name="meta.attr.com.android.capture.fps.markup">30.000000</property>
  <property name="meta.media.sample_aspect_num">1</property>
  <property name="meta.media.sample_aspect_den">1</property>
  <property name="meta.media.frame_rate_num">2302500</property>
  <property name="meta.media.frame_rate_den">76757</property>
  <property name="meta.media.colorspace">709</property>
  <property name="meta.media.color_trc">1</property>
  <property name="meta.media.has_b_frames">0</property>
  <property name="meta.media.width">1920</property>
  <property name="meta.media.height">1080</property>
  <property name="meta.media.color_range">full</property>
 </producer>
 <producer id="producer5" in="00:00:00.000" out="00:01:03.400">
  <property name="length">1903</property>
  <property name="eof">pause</property>
  <property name="resource">videos/PXL_20220330_090801425.TS.mp4</property>
  <property name="audio_index">1</property>
  <property name="video_index">2</property>
  <property name="mute_on_pause">0</property>
  <property name="mlt_service">avformat-novalidate</property>
  <property name="seekable">1</property>
  <property name="aspect_ratio">1</property>
  <property name="kdenlive:clipname"/>
  <property name="kdenlive:folderid">37</property>
  <property name="kdenlive:id">7</property>
  <property name="kdenlive:file_size">157512481</property>
  <property name="kdenlive:file_hash">3042f6620848219663cde2132fcbb733</property>
  <property name="kdenlive:audio_max1">203</property>
  <property name="meta.media.nb_streams">4</property>
  <property name="meta.media.1.stream.type">audio</property>
  <property name="meta.media.1.codec.sample_fmt">fltp</property>
  <property name="meta.media.1.codec.sample_rate">48000</property>
  <property name="meta.media.1.codec.channels">2</property>
  <property name="meta.media.1.codec.name">aac</property>
  <property name="meta.media.1.codec.long_name">AAC (Advanced Audio Coding)</property>
  <property name="meta.media.1.codec.bit_rate">191932</property>
  <property name="meta.attr.1.stream.creation_time.markup">2022-03-30T09:09:06.000000Z</property>
  <property name="meta.attr.1.stream.language.markup">eng</property>
  <property name="meta.attr.1.stream.handler_name.markup">SoundHandle</property>
  <property name="meta.media.2.stream.type">video</property>
  <property name="meta.media.2.stream.frame_rate">29.9971</property>
  <property name="meta.media.2.stream.sample_aspect_ratio">1</property>
  <property name="meta.media.2.codec.width">1920</property>
  <property name="meta.media.2.codec.height">1080</property>
  <property name="meta.media.2.codec.rotate">0</property>
  <property name="meta.media.2.codec.pix_fmt">yuvj420p</property>
  <property name="meta.media.2.codec.sample_aspect_ratio">0</property>
  <property name="meta.media.2.codec.colorspace">709</property>
  <property name="meta.media.2.codec.color_trc">1</property>
  <property name="meta.media.2.codec.name">hevc</property>
  <property name="meta.media.2.codec.long_name">HEVC (High Efficiency Video Coding)</property>
  <property name="meta.media.2.codec.bit_rate">19623544</property>
  <property name="meta.attr.2.stream.creation_time.markup">2022-03-30T09:09:06.000000Z</property>
  <property name="meta.attr.2.stream.language.markup">eng</property>
  <property name="meta.attr.2.stream.handler_name.markup">VideoHandle</property>
  <property name="meta.attr.major_brand.markup">isom</property>
  <property name="meta.attr.minor_version.markup">131072</property>
  <property name="meta.attr.compatible_brands.markup">isomiso2mp41</property>
  <property name="meta.attr.creation_time.markup">2022-03-30T09:09:06.000000Z</property>
  <property name="meta.attr.location.markup">+52.7181+4.6581/</property>
  <property name="meta.attr.location-eng.markup">+52.7181+4.6581/</property>
  <property name="meta.attr.com.android.capture.fps.markup">30.000000</property>
  <property name="meta.media.sample_aspect_num">1</property>
  <property name="meta.media.sample_aspect_den">1</property>
  <property name="meta.media.frame_rate_num">171270000</property>
  <property name="meta.media.frame_rate_den">5709553</property>
  <property name="meta.media.colorspace">709</property>
  <property name="meta.media.color_trc">1</property>
  <property name="meta.media.has_b_frames">0</property>
  <property name="meta.media.width">1920</property>
  <property name="meta.media.height">1080</property>
  <property name="meta.media.color_range">full</property>
  <property name="meta.media.variable_frame_rate">1</property>
  <property name="meta.media.top_field_first">0</property>
  <property name="meta.media.progressive">1</property>
 </producer>
 <producer id="producer4" in="00:00:00.000" out="00:02:25.267">
  <property name="length">4359</property>
  <property name="eof">pause</property>
  <property name="resource">videos/PXL_20220330_091005061.TS.mp4</property>
  <property name="audio_index">1</property>
  <property name="video_index">2</property>
  <property name="mute_on_pause">0</property>
  <property name="mlt_service">avformat-novalidate</property>
  <property name="seekable">1</property>
  <property name="aspect_ratio">1</property>
  <property name="kdenlive:clipname"/>
  <property name="kdenlive:folderid">37</property>
  <property name="kdenlive:id">8</property>
  <property name="kdenlive:file_size">359727619</property>
  <property name="kdenlive:file_hash">19d3f558e48b734b4aa5e1b47cd00ba7</property>
  <property name="kdenlive:audio_max1">213</property>
  <property name="meta.media.nb_streams">4</property>
  <property name="meta.media.1.stream.type">audio</property>
  <property name="meta.media.1.codec.sample_fmt">fltp</property>
  <property name="meta.media.1.codec.sample_rate">48000</property>
  <property name="meta.media.1.codec.channels">2</property>
  <property name="meta.media.1.codec.name">aac</property>
  <property name="meta.media.1.codec.long_name">AAC (Advanced Audio Coding)</property>
  <property name="meta.media.1.codec.bit_rate">191995</property>
  <property name="meta.attr.1.stream.creation_time.markup">2022-03-30T09:12:32.000000Z</property>
  <property name="meta.attr.1.stream.language.markup">eng</property>
  <property name="meta.attr.1.stream.handler_name.markup">SoundHandle</property>
  <property name="meta.media.2.stream.type">video</property>
  <property name="meta.media.2.stream.frame_rate">29.9971</property>
  <property name="meta.media.2.stream.sample_aspect_ratio">1</property>
  <property name="meta.media.2.codec.width">1920</property>
  <property name="meta.media.2.codec.height">1080</property>
  <property name="meta.media.2.codec.rotate">0</property>
  <property name="meta.media.2.codec.pix_fmt">yuvj420p</property>
  <property name="meta.media.2.codec.sample_aspect_ratio">0</property>
  <property name="meta.media.2.codec.colorspace">709</property>
  <property name="meta.media.2.codec.color_trc">1</property>
  <property name="meta.media.2.codec.name">hevc</property>
  <property name="meta.media.2.codec.long_name">HEVC (High Efficiency Video Coding)</property>
  <property name="meta.media.2.codec.bit_rate">19564778</property>
  <property name="meta.attr.2.stream.creation_time.markup">2022-03-30T09:12:32.000000Z</property>
  <property name="meta.attr.2.stream.language.markup">eng</property>
  <property name="meta.attr.2.stream.handler_name.markup">VideoHandle</property>
  <property name="meta.attr.major_brand.markup">isom</property>
  <property name="meta.attr.minor_version.markup">131072</property>
  <property name="meta.attr.compatible_brands.markup">isomiso2mp41</property>
  <property name="meta.attr.creation_time.markup">2022-03-30T09:12:32.000000Z</property>
  <property name="meta.attr.location.markup">+52.7186+4.6579/</property>
  <property name="meta.attr.location-eng.markup">+52.7186+4.6579/</property>
  <property name="meta.attr.com.android.capture.fps.markup">30.000000</property>
  <property name="meta.media.sample_aspect_num">1</property>
  <property name="meta.media.sample_aspect_den">1</property>
  <property name="meta.media.frame_rate_num">8173125</property>
  <property name="meta.media.frame_rate_den">272464</property>
  <property name="meta.media.colorspace">709</property>
  <property name="meta.media.color_trc">1</property>
  <property name="meta.media.has_b_frames">0</property>
  <property name="meta.media.width">1920</property>
  <property name="meta.media.height">1080</property>
  <property name="meta.media.color_range">full</property>
  <property name="meta.media.variable_frame_rate">1</property>
  <property name="meta.media.top_field_first">0</property>
  <property name="meta.media.progressive">1</property>
  <property name="kdenlive:markers">[
    {
        "comment": "Marker",
        "pos": 1295,
        "type": 0
    }
]
</property>
 </producer>
 <producer id="producer6" in="00:00:00.000" out="00:00:24.833">
  <property name="length">746</property>
  <property name="eof">pause</property>
  <property name="resource">videos/PXL_20220330_091355697.TS.mp4</property>
  <property name="audio_index">1</property>
  <property name="video_index">2</property>
  <property name="mute_on_pause">0</property>
  <property name="mlt_service">avformat-novalidate</property>
  <property name="seekable">1</property>
  <property name="aspect_ratio">1</property>
  <property name="kdenlive:clipname"/>
  <property name="kdenlive:folderid">37</property>
  <property name="kdenlive:id">9</property>
  <property name="kdenlive:file_size">61905963</property>
  <property name="kdenlive:file_hash">3155feb02096d406b0d74f4064ad0436</property>
  <property name="kdenlive:audio_max1">204</property>
  <property name="meta.media.nb_streams">4</property>
  <property name="meta.media.1.stream.type">audio</property>
  <property name="meta.media.1.codec.sample_fmt">fltp</property>
  <property name="meta.media.1.codec.sample_rate">48000</property>
  <property name="meta.media.1.codec.channels">2</property>
  <property name="meta.media.1.codec.name">aac</property>
  <property name="meta.media.1.codec.long_name">AAC (Advanced Audio Coding)</property>
  <property name="meta.media.1.codec.bit_rate">191836</property>
  <property name="meta.attr.1.stream.creation_time.markup">2022-03-30T09:14:21.000000Z</property>
  <property name="meta.attr.1.stream.language.markup">eng</property>
  <property name="meta.attr.1.stream.handler_name.markup">SoundHandle</property>
  <property name="meta.media.2.stream.type">video</property>
  <property name="meta.media.2.stream.frame_rate">29.9752</property>
  <property name="meta.media.2.stream.sample_aspect_ratio">1</property>
  <property name="meta.media.2.codec.width">1920</property>
  <property name="meta.media.2.codec.height">1080</property>
  <property name="meta.media.2.codec.rotate">0</property>
  <property name="meta.media.2.codec.pix_fmt">yuvj420p</property>
  <property name="meta.media.2.codec.sample_aspect_ratio">0</property>
  <property name="meta.media.2.codec.colorspace">709</property>
  <property name="meta.media.2.codec.color_trc">1</property>
  <property name="meta.media.2.codec.name">hevc</property>
  <property name="meta.media.2.codec.long_name">HEVC (High Efficiency Video Coding)</property>
  <property name="meta.media.2.codec.bit_rate">19694781</property>
  <property name="meta.attr.2.stream.creation_time.markup">2022-03-30T09:14:21.000000Z</property>
  <property name="meta.attr.2.stream.language.markup">eng</property>
  <property name="meta.attr.2.stream.handler_name.markup">VideoHandle</property>
  <property name="meta.attr.major_brand.markup">isom</property>
  <property name="meta.attr.minor_version.markup">131072</property>
  <property name="meta.attr.compatible_brands.markup">isomiso2mp41</property>
  <property name="meta.attr.creation_time.markup">2022-03-30T09:14:21.000000Z</property>
  <property name="meta.attr.location.markup">+52.7185+4.6583/</property>
  <property name="meta.attr.location-eng.markup">+52.7185+4.6583/</property>
  <property name="meta.attr.com.android.capture.fps.markup">30.000000</property>
  <property name="meta.media.sample_aspect_num">1</property>
  <property name="meta.media.sample_aspect_den">1</property>
  <property name="meta.media.frame_rate_num">67050000</property>
  <property name="meta.media.frame_rate_den">2236849</property>
  <property name="meta.media.colorspace">709</property>
  <property name="meta.media.color_trc">1</property>
  <property name="meta.media.has_b_frames">0</property>
  <property name="meta.media.width">1920</property>
  <property name="meta.media.height">1080</property>
  <property name="meta.media.color_range">full</property>
  <property name="meta.media.variable_frame_rate">1</property>
  <property name="meta.media.top_field_first">0</property>
  <property name="meta.media.progressive">1</property>
 </producer>
 <producer id="producer7" in="00:00:00.000" out="00:00:25.567">
  <property name="length">768</property>
  <property name="eof">pause</property>
  <property name="resource">videos/PXL_20220330_091504327.TS.mp4</property>
  <property name="audio_index">1</property>
  <property name="video_index">2</property>
  <property name="mute_on_pause">0</property>
  <property name="mlt_service">avformat-novalidate</property>
  <property name="seekable">1</property>
  <property name="aspect_ratio">1</property>
  <property name="kdenlive:clipname"/>
  <property name="kdenlive:folderid">37</property>
  <property name="kdenlive:id">10</property>
  <property name="kdenlive:file_size">63734230</property>
  <property name="kdenlive:file_hash">a7bc340400aeae00e26c4fc48dbed78c</property>
  <property name="kdenlive:audio_max1">196</property>
  <property name="meta.media.nb_streams">4</property>
  <property name="meta.media.1.stream.type">audio</property>
  <property name="meta.media.1.codec.sample_fmt">fltp</property>
  <property name="meta.media.1.codec.sample_rate">48000</property>
  <property name="meta.media.1.codec.channels">2</property>
  <property name="meta.media.1.codec.name">aac</property>
  <property name="meta.media.1.codec.long_name">AAC (Advanced Audio Coding)</property>
  <property name="meta.media.1.codec.bit_rate">192082</property>
  <property name="meta.attr.1.stream.creation_time.markup">2022-03-30T09:15:37.000000Z</property>
  <property name="meta.attr.1.stream.language.markup">eng</property>
  <property name="meta.attr.1.stream.handler_name.markup">SoundHandle</property>
  <property name="meta.media.2.stream.type">video</property>
  <property name="meta.media.2.stream.frame_rate">29.9971</property>
  <property name="meta.media.2.stream.sample_aspect_ratio">1</property>
  <property name="meta.media.2.codec.width">1920</property>
  <property name="meta.media.2.codec.height">1080</property>
  <property name="meta.media.2.codec.rotate">0</property>
  <property name="meta.media.2.codec.pix_fmt">yuvj420p</property>
  <property name="meta.media.2.codec.sample_aspect_ratio">0</property>
  <property name="meta.media.2.codec.colorspace">709</property>
  <property name="meta.media.2.codec.color_trc">1</property>
  <property name="meta.media.2.codec.name">hevc</property>
  <property name="meta.media.2.codec.long_name">HEVC (High Efficiency Video Coding)</property>
  <property name="meta.media.2.codec.bit_rate">19667430</property>
  <property name="meta.attr.2.stream.creation_time.markup">2022-03-30T09:15:37.000000Z</property>
  <property name="meta.attr.2.stream.language.markup">eng</property>
  <property name="meta.attr.2.stream.handler_name.markup">VideoHandle</property>
  <property name="meta.attr.major_brand.markup">isom</property>
  <property name="meta.attr.minor_version.markup">131072</property>
  <property name="meta.attr.compatible_brands.markup">isomiso2mp41</property>
  <property name="meta.attr.creation_time.markup">2022-03-30T09:15:37.000000Z</property>
  <property name="meta.attr.location.markup">+52.7185+4.6583/</property>
  <property name="meta.attr.location-eng.markup">+52.7185+4.6583/</property>
  <property name="meta.attr.com.android.capture.fps.markup">30.000000</property>
  <property name="meta.media.sample_aspect_num">1</property>
  <property name="meta.media.sample_aspect_den">1</property>
  <property name="meta.media.frame_rate_num">2160000</property>
  <property name="meta.media.frame_rate_den">72007</property>
  <property name="meta.media.colorspace">709</property>
  <property name="meta.media.color_trc">1</property>
  <property name="meta.media.has_b_frames">0</property>
  <property name="meta.media.width">1920</property>
  <property name="meta.media.height">1080</property>
  <property name="meta.media.color_range">full</property>
  <property name="meta.media.variable_frame_rate">1</property>
  <property name="meta.media.top_field_first">0</property>
  <property name="meta.media.progressive">1</property>
 </producer>
 <producer id="producer8" in="00:00:00.000" out="00:00:53.000">
  <property name="length">1591</property>
  <property name="eof">pause</property>
  <property name="resource">videos/PXL_20220330_091548488.TS.mp4</property>
  <property name="audio_index">1</property>
  <property name="video_index">2</property>
  <property name="mute_on_pause">0</property>
  <property name="mlt_service">avformat-novalidate</property>
  <property name="seekable">1</property>
  <property name="aspect_ratio">1</property>
  <property name="kdenlive:clipname"/>
  <property name="kdenlive:folderid">37</property>
  <property name="kdenlive:id">11</property>
  <property name="kdenlive:file_size">132004145</property>
  <property name="kdenlive:file_hash">7b09b69968c81fcc0691d3292d56d1b6</property>
  <property name="kdenlive:audio_max1">208</property>
  <property name="meta.media.nb_streams">4</property>
  <property name="meta.media.1.stream.type">audio</property>
  <property name="meta.media.1.codec.sample_fmt">fltp</property>
  <property name="meta.media.1.codec.sample_rate">48000</property>
  <property name="meta.media.1.codec.channels">2</property>
  <property name="meta.media.1.codec.name">aac</property>
  <property name="meta.media.1.codec.long_name">AAC (Advanced Audio Coding)</property>
  <property name="meta.media.1.codec.bit_rate">191943</property>
  <property name="meta.attr.1.stream.creation_time.markup">2022-03-30T09:16:43.000000Z</property>
  <property name="meta.attr.1.stream.language.markup">eng</property>
  <property name="meta.attr.1.stream.handler_name.markup">SoundHandle</property>
  <property name="meta.media.2.stream.type">video</property>
  <property name="meta.media.2.stream.frame_rate">29.9972</property>
  <property name="meta.media.2.stream.sample_aspect_ratio">1</property>
  <property name="meta.media.2.codec.width">1920</property>
  <property name="meta.media.2.codec.height">1080</property>
  <property name="meta.media.2.codec.rotate">0</property>
  <property name="meta.media.2.codec.pix_fmt">yuvj420p</property>
  <property name="meta.media.2.codec.sample_aspect_ratio">0</property>
  <property name="meta.media.2.codec.colorspace">709</property>
  <property name="meta.media.2.codec.color_trc">1</property>
  <property name="meta.media.2.codec.name">hevc</property>
  <property name="meta.media.2.codec.long_name">HEVC (High Efficiency Video Coding)</property>
  <property name="meta.media.2.codec.bit_rate">19665114</property>
  <property name="meta.attr.2.stream.creation_time.markup">2022-03-30T09:16:43.000000Z</property>
  <property name="meta.attr.2.stream.language.markup">eng</property>
  <property name="meta.attr.2.stream.handler_name.markup">VideoHandle</property>
  <property name="meta.attr.major_brand.markup">isom</property>
  <property name="meta.attr.minor_version.markup">131072</property>
  <property name="meta.attr.compatible_brands.markup">isomiso2mp41</property>
  <property name="meta.attr.creation_time.markup">2022-03-30T09:16:43.000000Z</property>
  <property name="meta.attr.location.markup">+52.7185+4.6583/</property>
  <property name="meta.attr.location-eng.markup">+52.7185+4.6583/</property>
  <property name="meta.attr.com.android.capture.fps.markup">30.000000</property>
  <property name="meta.media.sample_aspect_num">1</property>
  <property name="meta.media.sample_aspect_den">1</property>
  <property name="meta.media.frame_rate_num">28638000</property>
  <property name="meta.media.frame_rate_den">954689</property>
  <property name="meta.media.colorspace">709</property>
  <property name="meta.media.color_trc">1</property>
  <property name="meta.media.has_b_frames">0</property>
  <property name="meta.media.width">1920</property>
  <property name="meta.media.height">1080</property>
  <property name="meta.media.color_range">full</property>
  <property name="meta.media.variable_frame_rate">1</property>
  <property name="meta.media.top_field_first">0</property>
  <property name="meta.media.progressive">1</property>
 </producer>
 <producer id="producer9" in="00:00:00.000" out="00:00:19.833">
  <property name="length">596</property>
  <property name="eof">pause</property>
  <property name="resource">videos/PXL_20220330_091706441.TS.mp4</property>
  <property name="audio_index">0</property>
  <property name="video_index">2</property>
  <property name="mute_on_pause">0</property>
  <property name="mlt_service">avformat-novalidate</property>
  <property name="seekable">1</property>
  <property name="aspect_ratio">1</property>
  <property name="kdenlive:clipname"/>
  <property name="kdenlive:folderid">37</property>
  <property name="kdenlive:id">12</property>
  <property name="kdenlive:file_size">49456143</property>
  <property name="kdenlive:file_hash">4387ab30c14abc8347ee73c8516b52fe</property>
  <property name="kdenlive:audio_max0">210</property>
  <property name="meta.media.nb_streams">4</property>
  <property name="meta.media.0.stream.type">audio</property>
  <property name="meta.media.0.codec.sample_fmt">fltp</property>
  <property name="meta.media.0.codec.sample_rate">48000</property>
  <property name="meta.media.0.codec.channels">2</property>
  <property name="meta.media.0.codec.name">aac</property>
  <property name="meta.media.0.codec.long_name">AAC (Advanced Audio Coding)</property>
  <property name="meta.media.0.codec.bit_rate">191799</property>
  <property name="meta.attr.0.stream.creation_time.markup">2022-03-30T09:17:30.000000Z</property>
  <property name="meta.attr.0.stream.language.markup">eng</property>
  <property name="meta.attr.0.stream.handler_name.markup">SoundHandle</property>
  <property name="meta.media.2.stream.type">video</property>
  <property name="meta.media.2.stream.frame_rate">29.9976</property>
  <property name="meta.media.2.stream.sample_aspect_ratio">1</property>
  <property name="meta.media.2.codec.width">1920</property>
  <property name="meta.media.2.codec.height">1080</property>
  <property name="meta.media.2.codec.rotate">0</property>
  <property name="meta.media.2.codec.pix_fmt">yuvj420p</property>
  <property name="meta.media.2.codec.sample_aspect_ratio">0</property>
  <property name="meta.media.2.codec.colorspace">709</property>
  <property name="meta.media.2.codec.color_trc">1</property>
  <property name="meta.media.2.codec.name">hevc</property>
  <property name="meta.media.2.codec.long_name">HEVC (High Efficiency Video Coding)</property>
  <property name="meta.media.2.codec.bit_rate">19673697</property>
  <property name="meta.attr.2.stream.creation_time.markup">2022-03-30T09:17:30.000000Z</property>
  <property name="meta.attr.2.stream.language.markup">eng</property>
  <property name="meta.attr.2.stream.handler_name.markup">VideoHandle</property>
  <property name="meta.attr.major_brand.markup">isom</property>
  <property name="meta.attr.minor_version.markup">131072</property>
  <property name="meta.attr.compatible_brands.markup">isomiso2mp41</property>
  <property name="meta.attr.creation_time.markup">2022-03-30T09:17:30.000000Z</property>
  <property name="meta.attr.location.markup">+52.7415+4.6575/</property>
  <property name="meta.attr.location-eng.markup">+52.7415+4.6575/</property>
  <property name="meta.attr.com.android.capture.fps.markup">30.000000</property>
  <property name="meta.media.sample_aspect_num">1</property>
  <property name="meta.media.sample_aspect_den">1</property>
  <property name="meta.media.frame_rate_num">17880000</property>
  <property name="meta.media.frame_rate_den">596047</property>
  <property name="meta.media.colorspace">709</property>
  <property name="meta.media.color_trc">1</property>
  <property name="meta.media.has_b_frames">0</property>
  <property name="meta.media.width">1920</property>
  <property name="meta.media.height">1080</property>
  <property name="meta.media.color_range">full</property>
  <property name="meta.media.variable_frame_rate">1</property>
  <property name="meta.media.top_field_first">0</property>
  <property name="meta.media.progressive">1</property>
 </producer>
 <producer id="producer10" in="00:00:00.000" out="00:00:14.367">
  <property name="length">432</property>
  <property name="eof">pause</property>
  <property name="resource">videos/PXL_20220330_091806519.TS.mp4</property>
  <property name="audio_index">1</property>
  <property name="video_index">2</property>
  <property name="mute_on_pause">0</property>
  <property name="mlt_service">avformat-novalidate</property>
  <property name="seekable">1</property>
  <property name="aspect_ratio">1</property>
  <property name="kdenlive:clipname"/>
  <property name="kdenlive:folderid">37</property>
  <property name="kdenlive:id">13</property>
  <property name="kdenlive:file_size">36141396</property>
  <property name="kdenlive:file_hash">78116776c576a75d65e8ed883ad345c4</property>
  <property name="kdenlive:audio_max1">203</property>
  <property name="meta.media.nb_streams">4</property>
  <property name="meta.media.1.stream.type">audio</property>
  <property name="meta.media.1.codec.sample_fmt">fltp</property>
  <property name="meta.media.1.codec.sample_rate">48000</property>
  <property name="meta.media.1.codec.channels">2</property>
  <property name="meta.media.1.codec.name">aac</property>
  <property name="meta.media.1.codec.long_name">AAC (Advanced Audio Coding)</property>
  <property name="meta.media.1.codec.bit_rate">191735</property>
  <property name="meta.attr.1.stream.creation_time.markup">2022-03-30T09:18:22.000000Z</property>
  <property name="meta.attr.1.stream.language.markup">eng</property>
  <property name="meta.attr.1.stream.handler_name.markup">SoundHandle</property>
  <property name="meta.media.2.stream.type">video</property>
  <property name="meta.media.2.stream.frame_rate">29.816</property>
  <property name="meta.media.2.stream.sample_aspect_ratio">1</property>
  <property name="meta.media.2.codec.width">1920</property>
  <property name="meta.media.2.codec.height">1080</property>
  <property name="meta.media.2.codec.rotate">0</property>
  <property name="meta.media.2.codec.pix_fmt">yuvj420p</property>
  <property name="meta.media.2.codec.sample_aspect_ratio">0</property>
  <property name="meta.media.2.codec.colorspace">709</property>
  <property name="meta.media.2.codec.color_trc">1</property>
  <property name="meta.media.2.codec.name">hevc</property>
  <property name="meta.media.2.codec.long_name">HEVC (High Efficiency Video Coding)</property>
  <property name="meta.media.2.codec.bit_rate">19858883</property>
  <property name="meta.attr.2.stream.creation_time.markup">2022-03-30T09:18:22.000000Z</property>
  <property name="meta.attr.2.stream.language.markup">eng</property>
  <property name="meta.attr.2.stream.handler_name.markup">VideoHandle</property>
  <property name="meta.attr.major_brand.markup">isom</property>
  <property name="meta.attr.minor_version.markup">131072</property>
  <property name="meta.attr.compatible_brands.markup">isomiso2mp41</property>
  <property name="meta.attr.creation_time.markup">2022-03-30T09:18:22.000000Z</property>
  <property name="meta.attr.location.markup">+52.7415+4.6575/</property>
  <property name="meta.attr.location-eng.markup">+52.7415+4.6575/</property>
  <property name="meta.attr.com.android.capture.fps.markup">30.000000</property>
  <property name="meta.media.sample_aspect_num">1</property>
  <property name="meta.media.sample_aspect_den">1</property>
  <property name="meta.media.frame_rate_num">12870000</property>
  <property name="meta.media.frame_rate_den">431647</property>
  <property name="meta.media.colorspace">709</property>
  <property name="meta.media.color_trc">1</property>
  <property name="meta.media.has_b_frames">0</property>
  <property name="meta.media.width">1920</property>
  <property name="meta.media.height">1080</property>
  <property name="meta.media.color_range">full</property>
 </producer>
 <producer id="producer11" in="00:00:00.000" out="00:00:50.200">
  <property name="length">1507</property>
  <property name="eof">pause</property>
  <property name="resource">videos/PXL_20220330_091822973.TS.mp4</property>
  <property name="audio_index">1</property>
  <property name="video_index">2</property>
  <property name="mute_on_pause">0</property>
  <property name="mlt_service">avformat-novalidate</property>
  <property name="seekable">1</property>
  <property name="aspect_ratio">1</property>
  <property name="kdenlive:clipname"/>
  <property name="kdenlive:folderid">37</property>
  <property name="kdenlive:id">14</property>
  <property name="kdenlive:file_size">101871259</property>
  <property name="kdenlive:file_hash">4da6aa016a5279729303a821a64120bc</property>
  <property name="kdenlive:audio_max1">178</property>
  <property name="meta.media.nb_streams">4</property>
  <property name="meta.media.1.stream.type">audio</property>
  <property name="meta.media.1.codec.sample_fmt">fltp</property>
  <property name="meta.media.1.codec.sample_rate">48000</property>
  <property name="meta.media.1.codec.channels">2</property>
  <property name="meta.media.1.codec.name">aac</property>
  <property name="meta.media.1.codec.long_name">AAC (Advanced Audio Coding)</property>
  <property name="meta.media.1.codec.bit_rate">191917</property>
  <property name="meta.attr.1.stream.creation_time.markup">2022-03-30T09:19:14.000000Z</property>
  <property name="meta.attr.1.stream.language.markup">eng</property>
  <property name="meta.attr.1.stream.handler_name.markup">SoundHandle</property>
  <property name="meta.media.2.stream.type">video</property>
  <property name="meta.media.2.stream.frame_rate">29.8525</property>
  <property name="meta.media.2.stream.sample_aspect_ratio">1</property>
  <property name="meta.media.2.codec.width">1920</property>
  <property name="meta.media.2.codec.height">1080</property>
  <property name="meta.media.2.codec.rotate">0</property>
  <property name="meta.media.2.codec.pix_fmt">yuvj420p</property>
  <property name="meta.media.2.codec.sample_aspect_ratio">0</property>
  <property name="meta.media.2.codec.colorspace">709</property>
  <property name="meta.media.2.codec.color_trc">1</property>
  <property name="meta.media.2.codec.name">hevc</property>
  <property name="meta.media.2.codec.long_name">HEVC (High Efficiency Video Coding)</property>
  <property name="meta.media.2.codec.bit_rate">15999026</property>
  <property name="meta.attr.2.stream.creation_time.markup">2022-03-30T09:19:14.000000Z</property>
  <property name="meta.attr.2.stream.language.markup">eng</property>
  <property name="meta.attr.2.stream.handler_name.markup">VideoHandle</property>
  <property name="meta.attr.major_brand.markup">isom</property>
  <property name="meta.attr.minor_version.markup">131072</property>
  <property name="meta.attr.compatible_brands.markup">isomiso2mp41</property>
  <property name="meta.attr.creation_time.markup">2022-03-30T09:19:14.000000Z</property>
  <property name="meta.attr.location.markup">+52.7415+4.6575/</property>
  <property name="meta.attr.location-eng.markup">+52.7415+4.6575/</property>
  <property name="meta.attr.com.android.capture.fps.markup">30.000000</property>
  <property name="meta.media.sample_aspect_num">1</property>
  <property name="meta.media.sample_aspect_den">1</property>
  <property name="meta.media.frame_rate_num">67500000</property>
  <property name="meta.media.frame_rate_den">2261119</property>
  <property name="meta.media.colorspace">709</property>
  <property name="meta.media.color_trc">1</property>
  <property name="meta.media.has_b_frames">0</property>
  <property name="meta.media.width">1920</property>
  <property name="meta.media.height">1080</property>
  <property name="meta.media.color_range">full</property>
 </producer>
 <producer id="producer12" in="00:00:00.000" out="00:00:54.133">
  <property name="length">1625</property>
  <property name="eof">pause</property>
  <property name="resource">videos/PXL_20220330_091915559.TS.mp4</property>
  <property name="audio_index">1</property>
  <property name="video_index">2</property>
  <property name="mute_on_pause">0</property>
  <property name="mlt_service">avformat-novalidate</property>
  <property name="seekable">1</property>
  <property name="aspect_ratio">1</property>
  <property name="kdenlive:clipname"/>
  <property name="kdenlive:folderid">37</property>
  <property name="kdenlive:id">15</property>
  <property name="kdenlive:file_size">133586693</property>
  <property name="kdenlive:file_hash">b2126bfb9e557e34ba92c10405b8cee9</property>
  <property name="kdenlive:audio_max1">210</property>
  <property name="meta.media.nb_streams">4</property>
  <property name="meta.media.1.stream.type">audio</property>
  <property name="meta.media.1.codec.sample_fmt">fltp</property>
  <property name="meta.media.1.codec.sample_rate">48000</property>
  <property name="meta.media.1.codec.channels">2</property>
  <property name="meta.media.1.codec.name">aac</property>
  <property name="meta.media.1.codec.long_name">AAC (Advanced Audio Coding)</property>
  <property name="meta.media.1.codec.bit_rate">191956</property>
  <property name="meta.attr.1.stream.creation_time.markup">2022-03-30T09:20:11.000000Z</property>
  <property name="meta.attr.1.stream.language.markup">eng</property>
  <property name="meta.attr.1.stream.handler_name.markup">SoundHandle</property>
  <property name="meta.media.2.stream.type">video</property>
  <property name="meta.media.2.stream.frame_rate">29.8531</property>
  <property name="meta.media.2.stream.sample_aspect_ratio">1</property>
  <property name="meta.media.2.codec.width">1920</property>
  <property name="meta.media.2.codec.height">1080</property>
  <property name="meta.media.2.codec.rotate">0</property>
  <property name="meta.media.2.codec.pix_fmt">yuvj420p</property>
  <property name="meta.media.2.codec.sample_aspect_ratio">0</property>
  <property name="meta.media.2.codec.colorspace">709</property>
  <property name="meta.media.2.codec.color_trc">1</property>
  <property name="meta.media.2.codec.name">hevc</property>
  <property name="meta.media.2.codec.long_name">HEVC (High Efficiency Video Coding)</property>
  <property name="meta.media.2.codec.bit_rate">19510640</property>
  <property name="meta.attr.2.stream.creation_time.markup">2022-03-30T09:20:11.000000Z</property>
  <property name="meta.attr.2.stream.language.markup">eng</property>
  <property name="meta.attr.2.stream.handler_name.markup">VideoHandle</property>
  <property name="meta.attr.major_brand.markup">isom</property>
  <property name="meta.attr.minor_version.markup">131072</property>
  <property name="meta.attr.compatible_brands.markup">isomiso2mp41</property>
  <property name="meta.attr.creation_time.markup">2022-03-30T09:20:11.000000Z</property>
  <property name="meta.attr.location.markup">+52.7415+4.6575/</property>
  <property name="meta.attr.location-eng.markup">+52.7415+4.6575/</property>
  <property name="meta.attr.com.android.capture.fps.markup">30.000000</property>
  <property name="meta.media.sample_aspect_num">1</property>
  <property name="meta.media.sample_aspect_den">1</property>
  <property name="meta.media.frame_rate_num">145530000</property>
  <property name="meta.media.frame_rate_den">4874867</property>
  <property name="meta.media.colorspace">709</property>
  <property name="meta.media.color_trc">1</property>
  <property name="meta.media.has_b_frames">0</property>
  <property name="meta.media.width">1920</property>
  <property name="meta.media.height">1080</property>
  <property name="meta.media.color_range">full</property>
 </producer>
 <producer id="producer13" in="00:00:00.000" out="00:00:53.833">
  <property name="length">1616</property>
  <property name="eof">pause</property>
  <property name="resource">videos/PXL_20220330_092016964.TS.mp4</property>
  <property name="audio_index">1</property>
  <property name="video_index">2</property>
  <property name="mute_on_pause">0</property>
  <property name="mlt_service">avformat-novalidate</property>
  <property name="seekable">1</property>
  <property name="aspect_ratio">1</property>
  <property name="kdenlive:clipname"/>
  <property name="kdenlive:folderid">37</property>
  <property name="kdenlive:id">16</property>
  <property name="kdenlive:file_size">132680703</property>
  <property name="kdenlive:file_hash">d171d21f42821076931a21e7993027a6</property>
  <property name="kdenlive:audio_max1">187</property>
  <property name="meta.media.nb_streams">4</property>
  <property name="meta.media.1.stream.type">audio</property>
  <property name="meta.media.1.codec.sample_fmt">fltp</property>
  <property name="meta.media.1.codec.sample_rate">48000</property>
  <property name="meta.media.1.codec.channels">2</property>
  <property name="meta.media.1.codec.name">aac</property>
  <property name="meta.media.1.codec.long_name">AAC (Advanced Audio Coding)</property>
  <property name="meta.media.1.codec.bit_rate">191928</property>
  <property name="meta.attr.1.stream.creation_time.markup">2022-03-30T09:21:12.000000Z</property>
  <property name="meta.attr.1.stream.language.markup">eng</property>
  <property name="meta.attr.1.stream.handler_name.markup">SoundHandle</property>
  <property name="meta.media.2.stream.type">video</property>
  <property name="meta.media.2.stream.frame_rate">29.8527</property>
  <property name="meta.media.2.stream.sample_aspect_ratio">1</property>
  <property name="meta.media.2.codec.width">1920</property>
  <property name="meta.media.2.codec.height">1080</property>
  <property name="meta.media.2.codec.rotate">0</property>
  <property name="meta.media.2.codec.pix_fmt">yuvj420p</property>
  <property name="meta.media.2.codec.sample_aspect_ratio">0</property>
  <property name="meta.media.2.codec.colorspace">709</property>
  <property name="meta.media.2.codec.color_trc">1</property>
  <property name="meta.media.2.codec.name">hevc</property>
  <property name="meta.media.2.codec.long_name">HEVC (High Efficiency Video Coding)</property>
  <property name="meta.media.2.codec.bit_rate">19486071</property>
  <property name="meta.attr.2.stream.creation_time.markup">2022-03-30T09:21:12.000000Z</property>
  <property name="meta.attr.2.stream.language.markup">eng</property>
  <property name="meta.attr.2.stream.handler_name.markup">VideoHandle</property>
  <property name="meta.attr.major_brand.markup">isom</property>
  <property name="meta.attr.minor_version.markup">131072</property>
  <property name="meta.attr.compatible_brands.markup">isomiso2mp41</property>
  <property name="meta.attr.creation_time.markup">2022-03-30T09:21:12.000000Z</property>
  <property name="meta.attr.location.markup">+52.7415+4.6575/</property>
  <property name="meta.attr.location-eng.markup">+52.7415+4.6575/</property>
  <property name="meta.attr.com.android.capture.fps.markup">30.000000</property>
  <property name="meta.media.sample_aspect_num">1</property>
  <property name="meta.media.sample_aspect_den">1</property>
  <property name="meta.media.frame_rate_num">72360000</property>
  <property name="meta.media.frame_rate_den">2423899</property>
  <property name="meta.media.colorspace">709</property>
  <property name="meta.media.color_trc">1</property>
  <property name="meta.media.has_b_frames">0</property>
  <property name="meta.media.width">1920</property>
  <property name="meta.media.height">1080</property>
  <property name="meta.media.color_range">full</property>
 </producer>
 <producer id="producer14" in="00:00:00.000" out="00:00:11.433">
  <property name="length">344</property>
  <property name="eof">pause</property>
  <property name="resource">videos/PXL_20220330_092114716.TS.mp4</property>
  <property name="audio_index">1</property>
  <property name="video_index">2</property>
  <property name="mute_on_pause">0</property>
  <property name="mlt_service">avformat-novalidate</property>
  <property name="seekable">1</property>
  <property name="aspect_ratio">1</property>
  <property name="kdenlive:clipname"/>
  <property name="kdenlive:folderid">37</property>
  <property name="kdenlive:id">17</property>
  <property name="kdenlive:file_size">28491899</property>
  <property name="kdenlive:file_hash">4ace150531950896c3ca372e4655bb15</property>
  <property name="kdenlive:audio_max1">177</property>
  <property name="meta.media.nb_streams">4</property>
  <property name="meta.media.1.stream.type">audio</property>
  <property name="meta.media.1.codec.sample_fmt">fltp</property>
  <property name="meta.media.1.codec.sample_rate">48000</property>
  <property name="meta.media.1.codec.channels">2</property>
  <property name="meta.media.1.codec.name">aac</property>
  <property name="meta.media.1.codec.long_name">AAC (Advanced Audio Coding)</property>
  <property name="meta.media.1.codec.bit_rate">191640</property>
  <property name="meta.attr.1.stream.creation_time.markup">2022-03-30T09:21:27.000000Z</property>
  <property name="meta.attr.1.stream.language.markup">eng</property>
  <property name="meta.attr.1.stream.handler_name.markup">SoundHandle</property>
  <property name="meta.media.2.stream.type">video</property>
  <property name="meta.media.2.stream.frame_rate">29.8538</property>
  <property name="meta.media.2.stream.sample_aspect_ratio">1</property>
  <property name="meta.media.2.codec.width">1920</property>
  <property name="meta.media.2.codec.height">1080</property>
  <property name="meta.media.2.codec.rotate">0</property>
  <property name="meta.media.2.codec.pix_fmt">yuvj420p</property>
  <property name="meta.media.2.codec.sample_aspect_ratio">0</property>
  <property name="meta.media.2.codec.colorspace">709</property>
  <property name="meta.media.2.codec.color_trc">1</property>
  <property name="meta.media.2.codec.name">hevc</property>
  <property name="meta.media.2.codec.long_name">HEVC (High Efficiency Video Coding)</property>
  <property name="meta.media.2.codec.bit_rate">19676225</property>
  <property name="meta.attr.2.stream.creation_time.markup">2022-03-30T09:21:27.000000Z</property>
  <property name="meta.attr.2.stream.language.markup">eng</property>
  <property name="meta.attr.2.stream.handler_name.markup">VideoHandle</property>
  <property name="meta.attr.major_brand.markup">isom</property>
  <property name="meta.attr.minor_version.markup">131072</property>
  <property name="meta.attr.compatible_brands.markup">isomiso2mp41</property>
  <property name="meta.attr.creation_time.markup">2022-03-30T09:21:27.000000Z</property>
  <property name="meta.attr.location.markup">+52.7415+4.6575/</property>
  <property name="meta.attr.location-eng.markup">+52.7415+4.6575/</property>
  <property name="meta.attr.com.android.capture.fps.markup">30.000000</property>
  <property name="meta.media.sample_aspect_num">1</property>
  <property name="meta.media.sample_aspect_den">1</property>
  <property name="meta.media.frame_rate_num">410400</property>
  <property name="meta.media.frame_rate_den">13747</property>
  <property name="meta.media.colorspace">709</property>
  <property name="meta.media.color_trc">1</property>
  <property name="meta.media.has_b_frames">0</property>
  <property name="meta.media.width">1920</property>
  <property name="meta.media.height">1080</property>
  <property name="meta.media.color_range">full</property>
 </producer>
 <producer id="producer15" in="00:00:00.000" out="00:01:29.533">
  <property name="length">2687</property>
  <property name="eof">pause</property>
  <property name="resource">videos/PXL_20220330_092230489.TS.mp4</property>
  <property name="audio_index">1</property>
  <property name="video_index">2</property>
  <property name="mute_on_pause">0</property>
  <property name="mlt_service">avformat-novalidate</property>
  <property name="seekable">1</property>
  <property name="aspect_ratio">1</property>
  <property name="kdenlive:clipname"/>
  <property name="kdenlive:folderid">37</property>
  <property name="kdenlive:id">18</property>
  <property name="kdenlive:file_size">220877569</property>
  <property name="kdenlive:file_hash">1a3e5c7b930d18b35281791f2c51396a</property>
  <property name="meta.media.nb_streams">4</property>
  <property name="meta.media.1.stream.type">audio</property>
  <property name="meta.media.1.codec.sample_fmt">fltp</property>
  <property name="meta.media.1.codec.sample_rate">48000</property>
  <property name="meta.media.1.codec.channels">2</property>
  <property name="meta.media.1.codec.name">aac</property>
  <property name="meta.media.1.codec.long_name">AAC (Advanced Audio Coding)</property>
  <property name="meta.media.1.codec.bit_rate">191937</property>
  <property name="meta.attr.1.stream.creation_time.markup">2022-03-30T09:24:01.000000Z</property>
  <property name="meta.attr.1.stream.language.markup">eng</property>
  <property name="meta.attr.1.stream.handler_name.markup">SoundHandle</property>
  <property name="meta.media.2.stream.type">video</property>
  <property name="meta.media.2.stream.frame_rate">29.8521</property>
  <property name="meta.media.2.stream.sample_aspect_ratio">1</property>
  <property name="meta.media.2.codec.width">1920</property>
  <property name="meta.media.2.codec.height">1080</property>
  <property name="meta.media.2.codec.rotate">0</property>
  <property name="meta.media.2.codec.pix_fmt">yuvj420p</property>
  <property name="meta.media.2.codec.sample_aspect_ratio">0</property>
  <property name="meta.media.2.codec.colorspace">709</property>
  <property name="meta.media.2.codec.color_trc">1</property>
  <property name="meta.media.2.codec.name">hevc</property>
  <property name="meta.media.2.codec.long_name">HEVC (High Efficiency Video Coding)</property>
  <property name="meta.media.2.codec.bit_rate">19507017</property>
  <property name="meta.attr.2.stream.creation_time.markup">2022-03-30T09:24:01.000000Z</property>
  <property name="meta.attr.2.stream.language.markup">eng</property>
  <property name="meta.attr.2.stream.handler_name.markup">VideoHandle</property>
  <property name="meta.attr.major_brand.markup">isom</property>
  <property name="meta.attr.minor_version.markup">131072</property>
  <property name="meta.attr.compatible_brands.markup">isomiso2mp41</property>
  <property name="meta.attr.creation_time.markup">2022-03-30T09:24:01.000000Z</property>
  <property name="meta.attr.location.markup">+52.7415+4.6575/</property>
  <property name="meta.attr.location-eng.markup">+52.7415+4.6575/</property>
  <property name="meta.attr.com.android.capture.fps.markup">30.000000</property>
  <property name="meta.media.sample_aspect_num">1</property>
  <property name="meta.media.sample_aspect_den">1</property>
  <property name="meta.media.frame_rate_num">12033000</property>
  <property name="meta.media.frame_rate_den">403087</property>
  <property name="meta.media.colorspace">709</property>
  <property name="meta.media.color_trc">1</property>
  <property name="meta.media.has_b_frames">0</property>
  <property name="meta.media.width">1920</property>
  <property name="meta.media.height">1080</property>
  <property name="meta.media.color_range">full</property>
  <property name="kdenlive:audio_max1">211</property>
 </producer>
 <producer id="producer16" in="00:00:00.000" out="00:01:59.700">
  <property name="length">3592</property>
  <property name="eof">pause</property>
  <property name="resource">videos/PXL_20220330_092500844.TS.mp4</property>
  <property name="audio_index">1</property>
  <property name="video_index">2</property>
  <property name="mute_on_pause">0</property>
  <property name="mlt_service">avformat-novalidate</property>
  <property name="seekable">1</property>
  <property name="aspect_ratio">1</property>
  <property name="kdenlive:clipname"/>
  <property name="kdenlive:folderid">37</property>
  <property name="kdenlive:id">19</property>
  <property name="kdenlive:file_size">296354117</property>
  <property name="kdenlive:file_hash">a44147ebe77fa2a43e61052fc3643cdd</property>
  <property name="meta.media.nb_streams">4</property>
  <property name="meta.media.1.stream.type">audio</property>
  <property name="meta.media.1.codec.sample_fmt">fltp</property>
  <property name="meta.media.1.codec.sample_rate">48000</property>
  <property name="meta.media.1.codec.channels">2</property>
  <property name="meta.media.1.codec.name">aac</property>
  <property name="meta.media.1.codec.long_name">AAC (Advanced Audio Coding)</property>
  <property name="meta.media.1.codec.bit_rate">191944</property>
  <property name="meta.attr.1.stream.creation_time.markup">2022-03-30T09:27:19.000000Z</property>
  <property name="meta.attr.1.stream.language.markup">eng</property>
  <property name="meta.attr.1.stream.handler_name.markup">SoundHandle</property>
  <property name="meta.media.2.stream.type">video</property>
  <property name="meta.media.2.stream.frame_rate">29.79</property>
  <property name="meta.media.2.stream.sample_aspect_ratio">1</property>
  <property name="meta.media.2.codec.width">1920</property>
  <property name="meta.media.2.codec.height">1080</property>
  <property name="meta.media.2.codec.rotate">0</property>
  <property name="meta.media.2.codec.pix_fmt">yuvj420p</property>
  <property name="meta.media.2.codec.sample_aspect_ratio">0</property>
  <property name="meta.media.2.codec.colorspace">709</property>
  <property name="meta.media.2.codec.color_trc">1</property>
  <property name="meta.media.2.codec.name">hevc</property>
  <property name="meta.media.2.codec.long_name">HEVC (High Efficiency Video Coding)</property>
  <property name="meta.media.2.codec.bit_rate">19574409</property>
  <property name="meta.attr.2.stream.creation_time.markup">2022-03-30T09:27:19.000000Z</property>
  <property name="meta.attr.2.stream.language.markup">eng</property>
  <property name="meta.attr.2.stream.handler_name.markup">VideoHandle</property>
  <property name="meta.attr.major_brand.markup">isom</property>
  <property name="meta.attr.minor_version.markup">131072</property>
  <property name="meta.attr.compatible_brands.markup">isomiso2mp41</property>
  <property name="meta.attr.creation_time.markup">2022-03-30T09:27:19.000000Z</property>
  <property name="meta.attr.location.markup">+52.7185+4.6581/</property>
  <property name="meta.attr.location-eng.markup">+52.7185+4.6581/</property>
  <property name="meta.attr.com.android.capture.fps.markup">30.000000</property>
  <property name="meta.media.sample_aspect_num">1</property>
  <property name="meta.media.sample_aspect_den">1</property>
  <property name="meta.media.frame_rate_num">2140200</property>
  <property name="meta.media.frame_rate_den">71843</property>
  <property name="meta.media.colorspace">709</property>
  <property name="meta.media.color_trc">1</property>
  <property name="meta.media.has_b_frames">0</property>
  <property name="meta.media.width">1920</property>
  <property name="meta.media.height">1080</property>
  <property name="meta.media.color_range">full</property>
  <property name="kdenlive:audio_max1">223</property>
 </producer>
 <producer id="producer17" in="00:00:00.000" out="00:00:13.367">
  <property name="length">402</property>
  <property name="eof">pause</property>
  <property name="resource">videos/PXL_20220330_092726833.TS.mp4</property>
  <property name="audio_index">1</property>
  <property name="video_index">2</property>
  <property name="mute_on_pause">0</property>
  <property name="mlt_service">avformat-novalidate</property>
  <property name="seekable">1</property>
  <property name="aspect_ratio">1</property>
  <property name="kdenlive:clipname"/>
  <property name="kdenlive:folderid">37</property>
  <property name="kdenlive:id">20</property>
  <property name="kdenlive:file_size">32995966</property>
  <property name="kdenlive:file_hash">99696324522007b69bc8bce202972f1a</property>
  <property name="kdenlive:audio_max1">213</property>
  <property name="meta.media.nb_streams">4</property>
  <property name="meta.media.1.stream.type">audio</property>
  <property name="meta.media.1.codec.sample_fmt">fltp</property>
  <property name="meta.media.1.codec.sample_rate">48000</property>
  <property name="meta.media.1.codec.channels">2</property>
  <property name="meta.media.1.codec.name">aac</property>
  <property name="meta.media.1.codec.long_name">AAC (Advanced Audio Coding)</property>
  <property name="meta.media.1.codec.bit_rate">192027</property>
  <property name="meta.attr.1.stream.creation_time.markup">2022-03-30T09:27:41.000000Z</property>
  <property name="meta.attr.1.stream.language.markup">eng</property>
  <property name="meta.attr.1.stream.handler_name.markup">SoundHandle</property>
  <property name="meta.media.2.stream.type">video</property>
  <property name="meta.media.2.stream.frame_rate">30.0123</property>
  <property name="meta.media.2.stream.sample_aspect_ratio">1</property>
  <property name="meta.media.2.codec.width">1920</property>
  <property name="meta.media.2.codec.height">1080</property>
  <property name="meta.media.2.codec.rotate">0</property>
  <property name="meta.media.2.codec.pix_fmt">yuvj420p</property>
  <property name="meta.media.2.codec.sample_aspect_ratio">0</property>
  <property name="meta.media.2.codec.colorspace">709</property>
  <property name="meta.media.2.codec.color_trc">1</property>
  <property name="meta.media.2.codec.name">hevc</property>
  <property name="meta.media.2.codec.long_name">HEVC (High Efficiency Video Coding)</property>
  <property name="meta.media.2.codec.bit_rate">19483374</property>
  <property name="meta.attr.2.stream.creation_time.markup">2022-03-30T09:27:41.000000Z</property>
  <property name="meta.attr.2.stream.language.markup">eng</property>
  <property name="meta.attr.2.stream.handler_name.markup">VideoHandle</property>
  <property name="meta.attr.major_brand.markup">isom</property>
  <property name="meta.attr.minor_version.markup">131072</property>
  <property name="meta.attr.compatible_brands.markup">isomiso2mp41</property>
  <property name="meta.attr.creation_time.markup">2022-03-30T09:27:41.000000Z</property>
  <property name="meta.attr.location.markup">+52.7185+4.6581/</property>
  <property name="meta.attr.location-eng.markup">+52.7185+4.6581/</property>
  <property name="meta.attr.com.android.capture.fps.markup">30.000000</property>
  <property name="meta.media.sample_aspect_num">1</property>
  <property name="meta.media.sample_aspect_den">1</property>
  <property name="meta.media.frame_rate_num">18090000</property>
  <property name="meta.media.frame_rate_den">602753</property>
  <property name="meta.media.colorspace">709</property>
  <property name="meta.media.color_trc">1</property>
  <property name="meta.media.has_b_frames">0</property>
  <property name="meta.media.width">1920</property>
  <property name="meta.media.height">1080</property>
  <property name="meta.media.color_range">full</property>
 </producer>
 <producer id="producer18" in="00:00:00.000" out="00:00:12.567">
  <property name="length">378</property>
  <property name="eof">pause</property>
  <property name="resource">videos/PXL_20220330_092751722.TS.mp4</property>
  <property name="audio_index">1</property>
  <property name="video_index">2</property>
  <property name="mute_on_pause">0</property>
  <property name="mlt_service">avformat-novalidate</property>
  <property name="seekable">1</property>
  <property name="aspect_ratio">1</property>
  <property name="kdenlive:clipname"/>
  <property name="kdenlive:folderid">37</property>
  <property name="kdenlive:id">21</property>
  <property name="kdenlive:file_size">31145423</property>
  <property name="kdenlive:file_hash">196a0d6e64cdab1c993bfaf33700c1b4</property>
  <property name="kdenlive:audio_max1">214</property>
  <property name="meta.media.nb_streams">4</property>
  <property name="meta.media.1.stream.type">audio</property>
  <property name="meta.media.1.codec.sample_fmt">fltp</property>
  <property name="meta.media.1.codec.sample_rate">48000</property>
  <property name="meta.media.1.codec.channels">2</property>
  <property name="meta.media.1.codec.name">aac</property>
  <property name="meta.media.1.codec.long_name">AAC (Advanced Audio Coding)</property>
  <property name="meta.media.1.codec.bit_rate">192117</property>
  <property name="meta.attr.1.stream.creation_time.markup">2022-03-30T09:28:05.000000Z</property>
  <property name="meta.attr.1.stream.language.markup">eng</property>
  <property name="meta.attr.1.stream.handler_name.markup">SoundHandle</property>
  <property name="meta.media.2.stream.type">video</property>
  <property name="meta.media.2.stream.frame_rate">30.0146</property>
  <property name="meta.media.2.stream.sample_aspect_ratio">1</property>
  <property name="meta.media.2.codec.width">1920</property>
  <property name="meta.media.2.codec.height">1080</property>
  <property name="meta.media.2.codec.rotate">0</property>
  <property name="meta.media.2.codec.pix_fmt">yuvj420p</property>
  <property name="meta.media.2.codec.sample_aspect_ratio">0</property>
  <property name="meta.media.2.codec.colorspace">709</property>
  <property name="meta.media.2.codec.color_trc">1</property>
  <property name="meta.media.2.codec.name">hevc</property>
  <property name="meta.media.2.codec.long_name">HEVC (High Efficiency Video Coding)</property>
  <property name="meta.media.2.codec.bit_rate">19560055</property>
  <property name="meta.attr.2.stream.creation_time.markup">2022-03-30T09:28:05.000000Z</property>
  <property name="meta.attr.2.stream.language.markup">eng</property>
  <property name="meta.attr.2.stream.handler_name.markup">VideoHandle</property>
  <property name="meta.attr.major_brand.markup">isom</property>
  <property name="meta.attr.minor_version.markup">131072</property>
  <property name="meta.attr.compatible_brands.markup">isomiso2mp41</property>
  <property name="meta.attr.creation_time.markup">2022-03-30T09:28:05.000000Z</property>
  <property name="meta.attr.location.markup">+52.7185+4.6581/</property>
  <property name="meta.attr.location-eng.markup">+52.7185+4.6581/</property>
  <property name="meta.attr.com.android.capture.fps.markup">30.000000</property>
  <property name="meta.media.sample_aspect_num">1</property>
  <property name="meta.media.sample_aspect_den">1</property>
  <property name="meta.media.frame_rate_num">680400</property>
  <property name="meta.media.frame_rate_den">22669</property>
  <property name="meta.media.colorspace">709</property>
  <property name="meta.media.color_trc">1</property>
  <property name="meta.media.has_b_frames">0</property>
  <property name="meta.media.width">1920</property>
  <property name="meta.media.height">1080</property>
  <property name="meta.media.color_range">full</property>
  <property name="meta.media.variable_frame_rate">1</property>
  <property name="meta.media.top_field_first">0</property>
  <property name="meta.media.progressive">1</property>
 </producer>
 <producer id="producer19" in="00:00:00.000" out="00:00:34.100">
  <property name="length">1024</property>
  <property name="eof">pause</property>
  <property name="resource">videos/PXL_20220330_092808909.TS.mp4</property>
  <property name="audio_index">1</property>
  <property name="video_index">2</property>
  <property name="mute_on_pause">0</property>
  <property name="mlt_service">avformat-novalidate</property>
  <property name="seekable">1</property>
  <property name="aspect_ratio">1</property>
  <property name="kdenlive:clipname"/>
  <property name="kdenlive:folderid">37</property>
  <property name="kdenlive:id">22</property>
  <property name="kdenlive:file_size">84781215</property>
  <property name="kdenlive:file_hash">fa4e3a283b5883db042ab4529971fe0b</property>
  <property name="kdenlive:audio_max1">218</property>
  <property name="meta.media.nb_streams">4</property>
  <property name="meta.media.1.stream.type">audio</property>
  <property name="meta.media.1.codec.sample_fmt">fltp</property>
  <property name="meta.media.1.codec.sample_rate">48000</property>
  <property name="meta.media.1.codec.channels">2</property>
  <property name="meta.media.1.codec.name">aac</property>
  <property name="meta.media.1.codec.long_name">AAC (Advanced Audio Coding)</property>
  <property name="meta.media.1.codec.bit_rate">191836</property>
  <property name="meta.attr.1.stream.creation_time.markup">2022-03-30T09:28:44.000000Z</property>
  <property name="meta.attr.1.stream.language.markup">eng</property>
  <property name="meta.attr.1.stream.handler_name.markup">SoundHandle</property>
  <property name="meta.media.2.stream.type">video</property>
  <property name="meta.media.2.stream.frame_rate">29.9968</property>
  <property name="meta.media.2.stream.sample_aspect_ratio">1</property>
  <property name="meta.media.2.codec.width">1920</property>
  <property name="meta.media.2.codec.height">1080</property>
  <property name="meta.media.2.codec.rotate">0</property>
  <property name="meta.media.2.codec.pix_fmt">yuvj420p</property>
  <property name="meta.media.2.codec.sample_aspect_ratio">0</property>
  <property name="meta.media.2.codec.colorspace">709</property>
  <property name="meta.media.2.codec.color_trc">1</property>
  <property name="meta.media.2.codec.name">hevc</property>
  <property name="meta.media.2.codec.long_name">HEVC (High Efficiency Video Coding)</property>
  <property name="meta.media.2.codec.bit_rate">19629040</property>
  <property name="meta.attr.2.stream.creation_time.markup">2022-03-30T09:28:44.000000Z</property>
  <property name="meta.attr.2.stream.language.markup">eng</property>
  <property name="meta.attr.2.stream.handler_name.markup">VideoHandle</property>
  <property name="meta.attr.major_brand.markup">isom</property>
  <property name="meta.attr.minor_version.markup">131072</property>
  <property name="meta.attr.compatible_brands.markup">isomiso2mp41</property>
  <property name="meta.attr.creation_time.markup">2022-03-30T09:28:44.000000Z</property>
  <property name="meta.attr.location.markup">+52.7185+4.6581/</property>
  <property name="meta.attr.location-eng.markup">+52.7185+4.6581/</property>
  <property name="meta.attr.com.android.capture.fps.markup">30.000000</property>
  <property name="meta.media.sample_aspect_num">1</property>
  <property name="meta.media.sample_aspect_den">1</property>
  <property name="meta.media.frame_rate_num">30720000</property>
  <property name="meta.media.frame_rate_den">1024109</property>
  <property name="meta.media.colorspace">709</property>
  <property name="meta.media.color_trc">1</property>
  <property name="meta.media.has_b_frames">0</property>
  <property name="meta.media.width">1920</property>
  <property name="meta.media.height">1080</property>
  <property name="meta.media.color_range">full</property>
  <property name="meta.media.variable_frame_rate">1</property>
  <property name="meta.media.top_field_first">0</property>
  <property name="meta.media.progressive">1</property>
 </producer>
 <producer id="producer20" in="00:00:00.000" out="00:00:23.233">
  <property name="length">698</property>
  <property name="eof">pause</property>
  <property name="resource">videos/PXL_20220330_092912682.TS.mp4</property>
  <property name="audio_index">1</property>
  <property name="video_index">2</property>
  <property name="mute_on_pause">0</property>
  <property name="mlt_service">avformat-novalidate</property>
  <property name="seekable">1</property>
  <property name="aspect_ratio">1</property>
  <property name="kdenlive:clipname"/>
  <property name="kdenlive:folderid">37</property>
  <property name="kdenlive:id">23</property>
  <property name="kdenlive:file_size">57927386</property>
  <property name="kdenlive:file_hash">020daccf26b2b0c16b004044ed978b8e</property>
  <property name="kdenlive:audio_max1">205</property>
  <property name="meta.media.nb_streams">4</property>
  <property name="meta.media.1.stream.type">audio</property>
  <property name="meta.media.1.codec.sample_fmt">fltp</property>
  <property name="meta.media.1.codec.sample_rate">48000</property>
  <property name="meta.media.1.codec.channels">2</property>
  <property name="meta.media.1.codec.name">aac</property>
  <property name="meta.media.1.codec.long_name">AAC (Advanced Audio Coding)</property>
  <property name="meta.media.1.codec.bit_rate">191943</property>
  <property name="meta.attr.1.stream.creation_time.markup">2022-03-30T09:29:37.000000Z</property>
  <property name="meta.attr.1.stream.language.markup">eng</property>
  <property name="meta.attr.1.stream.handler_name.markup">SoundHandle</property>
  <property name="meta.media.2.stream.type">video</property>
  <property name="meta.media.2.stream.frame_rate">29.9971</property>
  <property name="meta.media.2.stream.sample_aspect_ratio">1</property>
  <property name="meta.media.2.codec.width">1920</property>
  <property name="meta.media.2.codec.height">1080</property>
  <property name="meta.media.2.codec.rotate">0</property>
  <property name="meta.media.2.codec.pix_fmt">yuvj420p</property>
  <property name="meta.media.2.codec.sample_aspect_ratio">0</property>
  <property name="meta.media.2.codec.colorspace">709</property>
  <property name="meta.media.2.codec.color_trc">1</property>
  <property name="meta.media.2.codec.name">hevc</property>
  <property name="meta.media.2.codec.long_name">HEVC (High Efficiency Video Coding)</property>
  <property name="meta.media.2.codec.bit_rate">19676085</property>
  <property name="meta.attr.2.stream.creation_time.markup">2022-03-30T09:29:37.000000Z</property>
  <property name="meta.attr.2.stream.language.markup">eng</property>
  <property name="meta.attr.2.stream.handler_name.markup">VideoHandle</property>
  <property name="meta.attr.major_brand.markup">isom</property>
  <property name="meta.attr.minor_version.markup">131072</property>
  <property name="meta.attr.compatible_brands.markup">isomiso2mp41</property>
  <property name="meta.attr.creation_time.markup">2022-03-30T09:29:37.000000Z</property>
  <property name="meta.attr.location.markup">+52.7185+4.6581/</property>
  <property name="meta.attr.location-eng.markup">+52.7185+4.6581/</property>
  <property name="meta.attr.com.android.capture.fps.markup">30.000000</property>
  <property name="meta.media.sample_aspect_num">1</property>
  <property name="meta.media.sample_aspect_den">1</property>
  <property name="meta.media.frame_rate_num">5235000</property>
  <property name="meta.media.frame_rate_den">174517</property>
  <property name="meta.media.colorspace">709</property>
  <property name="meta.media.color_trc">1</property>
  <property name="meta.media.has_b_frames">0</property>
  <property name="meta.media.width">1920</property>
  <property name="meta.media.height">1080</property>
  <property name="meta.media.color_range">full</property>
  <property name="meta.media.variable_frame_rate">1</property>
  <property name="meta.media.top_field_first">0</property>
  <property name="meta.media.progressive">1</property>
 </producer>
 <producer id="producer21" in="00:00:00.000" out="00:01:02.400">
  <property name="length">1873</property>
  <property name="eof">pause</property>
  <property name="resource">videos/PXL_20220330_092942158.TS.mp4</property>
  <property name="audio_index">1</property>
  <property name="video_index">2</property>
  <property name="mute_on_pause">0</property>
  <property name="mlt_service">avformat-novalidate</property>
  <property name="seekable">1</property>
  <property name="aspect_ratio">1</property>
  <property name="kdenlive:clipname"/>
  <property name="kdenlive:folderid">37</property>
  <property name="kdenlive:id">24</property>
  <property name="kdenlive:file_size">154863943</property>
  <property name="kdenlive:file_hash">79c547848bdde96d2864e28f023dec74</property>
  <property name="meta.media.nb_streams">4</property>
  <property name="meta.media.1.stream.type">audio</property>
  <property name="meta.media.1.codec.sample_fmt">fltp</property>
  <property name="meta.media.1.codec.sample_rate">48000</property>
  <property name="meta.media.1.codec.channels">2</property>
  <property name="meta.media.1.codec.name">aac</property>
  <property name="meta.media.1.codec.long_name">AAC (Advanced Audio Coding)</property>
  <property name="meta.media.1.codec.bit_rate">191936</property>
  <property name="meta.attr.1.stream.creation_time.markup">2022-03-30T09:30:45.000000Z</property>
  <property name="meta.attr.1.stream.language.markup">eng</property>
  <property name="meta.attr.1.stream.handler_name.markup">SoundHandle</property>
  <property name="meta.media.2.stream.type">video</property>
  <property name="meta.media.2.stream.frame_rate">29.9971</property>
  <property name="meta.media.2.stream.sample_aspect_ratio">1</property>
  <property name="meta.media.2.codec.width">1920</property>
  <property name="meta.media.2.codec.height">1080</property>
  <property name="meta.media.2.codec.rotate">0</property>
  <property name="meta.media.2.codec.pix_fmt">yuvj420p</property>
  <property name="meta.media.2.codec.sample_aspect_ratio">0</property>
  <property name="meta.media.2.codec.colorspace">709</property>
  <property name="meta.media.2.codec.color_trc">1</property>
  <property name="meta.media.2.codec.name">hevc</property>
  <property name="meta.media.2.codec.long_name">HEVC (High Efficiency Video Coding)</property>
  <property name="meta.media.2.codec.bit_rate">19602114</property>
  <property name="meta.attr.2.stream.creation_time.markup">2022-03-30T09:30:45.000000Z</property>
  <property name="meta.attr.2.stream.language.markup">eng</property>
  <property name="meta.attr.2.stream.handler_name.markup">VideoHandle</property>
  <property name="meta.attr.major_brand.markup">isom</property>
  <property name="meta.attr.minor_version.markup">131072</property>
  <property name="meta.attr.compatible_brands.markup">isomiso2mp41</property>
  <property name="meta.attr.creation_time.markup">2022-03-30T09:30:45.000000Z</property>
  <property name="meta.attr.location.markup">+52.7185+4.6581/</property>
  <property name="meta.attr.location-eng.markup">+52.7185+4.6581/</property>
  <property name="meta.attr.com.android.capture.fps.markup">30.000000</property>
  <property name="meta.media.sample_aspect_num">1</property>
  <property name="meta.media.sample_aspect_den">1</property>
  <property name="meta.media.frame_rate_num">3511875</property>
  <property name="meta.media.frame_rate_den">117074</property>
  <property name="meta.media.colorspace">709</property>
  <property name="meta.media.color_trc">1</property>
  <property name="meta.media.has_b_frames">0</property>
  <property name="meta.media.width">1920</property>
  <property name="meta.media.height">1080</property>
  <property name="meta.media.color_range">full</property>
  <property name="kdenlive:audio_max1">161</property>
 </producer>
 <producer id="producer32" in="00:00:00.000" out="00:00:04.967">
  <property name="length">00:00:05.000</property>
  <property name="eof">pause</property>
  <property name="resource">videos/PXL_20220330_093206546.jpg</property>
  <property name="ttl">25</property>
  <property name="aspect_ratio">1</property>
  <property name="progressive">1</property>
  <property name="seekable">1</property>
  <property name="meta.media.width">4080</property>
  <property name="meta.media.height">3072</property>
  <property name="mlt_service">qimage</property>
  <property name="kdenlive:clipname"/>
  <property name="kdenlive:duration">00:00:05.000</property>
  <property name="kdenlive:folderid">37</property>
  <property name="kdenlive:id">25</property>
  <property name="kdenlive:file_size">6075323</property>
  <property name="kdenlive:file_hash">8911955ed2866bcb1e48a593840b32c1</property>
 </producer>
 <producer id="producer22" in="00:00:00.000" out="00:00:05.000">
  <property name="length">151</property>
  <property name="eof">pause</property>
  <property name="resource">videos/PXL_20220330_093208845.TS.mp4</property>
  <property name="audio_index">0</property>
  <property name="video_index">2</property>
  <property name="mute_on_pause">0</property>
  <property name="mlt_service">avformat-novalidate</property>
  <property name="seekable">1</property>
  <property name="aspect_ratio">1</property>
  <property name="kdenlive:clipname"/>
  <property name="kdenlive:folderid">37</property>
  <property name="kdenlive:id">26</property>
  <property name="kdenlive:file_size">12763628</property>
  <property name="kdenlive:file_hash">b9cb3733b0cc7e2541505ede57e0da63</property>
  <property name="kdenlive:audio_max0">198</property>
  <property name="meta.media.nb_streams">4</property>
  <property name="meta.media.0.stream.type">audio</property>
  <property name="meta.media.0.codec.sample_fmt">fltp</property>
  <property name="meta.media.0.codec.sample_rate">48000</property>
  <property name="meta.media.0.codec.channels">2</property>
  <property name="meta.media.0.codec.name">aac</property>
  <property name="meta.media.0.codec.long_name">AAC (Advanced Audio Coding)</property>
  <property name="meta.media.0.codec.bit_rate">191208</property>
  <property name="meta.attr.0.stream.creation_time.markup">2022-03-30T09:32:18.000000Z</property>
  <property name="meta.attr.0.stream.language.markup">eng</property>
  <property name="meta.attr.0.stream.handler_name.markup">SoundHandle</property>
  <property name="meta.media.2.stream.type">video</property>
  <property name="meta.media.2.stream.frame_rate">29.9983</property>
  <property name="meta.media.2.stream.sample_aspect_ratio">1</property>
  <property name="meta.media.2.codec.width">1920</property>
  <property name="meta.media.2.codec.height">1080</property>
  <property name="meta.media.2.codec.rotate">0</property>
  <property name="meta.media.2.codec.pix_fmt">yuvj420p</property>
  <property name="meta.media.2.codec.sample_aspect_ratio">0</property>
  <property name="meta.media.2.codec.colorspace">709</property>
  <property name="meta.media.2.codec.color_trc">1</property>
  <property name="meta.media.2.codec.name">hevc</property>
  <property name="meta.media.2.codec.long_name">HEVC (High Efficiency Video Coding)</property>
  <property name="meta.media.2.codec.bit_rate">20044655</property>
  <property name="meta.attr.2.stream.creation_time.markup">2022-03-30T09:32:18.000000Z</property>
  <property name="meta.attr.2.stream.language.markup">eng</property>
  <property name="meta.attr.2.stream.handler_name.markup">VideoHandle</property>
  <property name="meta.attr.major_brand.markup">isom</property>
  <property name="meta.attr.minor_version.markup">131072</property>
  <property name="meta.attr.compatible_brands.markup">isomiso2mp41</property>
  <property name="meta.attr.creation_time.markup">2022-03-30T09:32:18.000000Z</property>
  <property name="meta.attr.location.markup">+52.7185+4.6577/</property>
  <property name="meta.attr.location-eng.markup">+52.7185+4.6577/</property>
  <property name="meta.attr.com.android.capture.fps.markup">30.000000</property>
  <property name="meta.media.sample_aspect_num">1</property>
  <property name="meta.media.sample_aspect_den">1</property>
  <property name="meta.media.frame_rate_num">6795000</property>
  <property name="meta.media.frame_rate_den">226513</property>
  <property name="meta.media.colorspace">709</property>
  <property name="meta.media.color_trc">1</property>
  <property name="meta.media.has_b_frames">0</property>
  <property name="meta.media.width">1920</property>
  <property name="meta.media.height">1080</property>
  <property name="meta.media.color_range">full</property>
 </producer>
 <producer id="producer23" in="00:00:00.000" out="00:00:45.133">
  <property name="length">1355</property>
  <property name="eof">pause</property>
  <property name="resource">videos/PXL_20220330_093249682.TS.mp4</property>
  <property name="audio_index">1</property>
  <property name="video_index">2</property>
  <property name="mute_on_pause">0</property>
  <property name="mlt_service">avformat-novalidate</property>
  <property name="seekable">1</property>
  <property name="aspect_ratio">1</property>
  <property name="kdenlive:clipname"/>
  <property name="kdenlive:folderid">37</property>
  <property name="kdenlive:id">27</property>
  <property name="kdenlive:file_size">112059644</property>
  <property name="kdenlive:file_hash">4783add9f29b6034cc7fa4922d758ff5</property>
  <property name="meta.media.nb_streams">4</property>
  <property name="meta.media.1.stream.type">audio</property>
  <property name="meta.media.1.codec.sample_fmt">fltp</property>
  <property name="meta.media.1.codec.sample_rate">48000</property>
  <property name="meta.media.1.codec.channels">2</property>
  <property name="meta.media.1.codec.name">aac</property>
  <property name="meta.media.1.codec.long_name">AAC (Advanced Audio Coding)</property>
  <property name="meta.media.1.codec.bit_rate">191950</property>
  <property name="meta.attr.1.stream.creation_time.markup">2022-03-30T09:33:36.000000Z</property>
  <property name="meta.attr.1.stream.language.markup">eng</property>
  <property name="meta.attr.1.stream.handler_name.markup">SoundHandle</property>
  <property name="meta.media.2.stream.type">video</property>
  <property name="meta.media.2.stream.frame_rate">29.9973</property>
  <property name="meta.media.2.stream.sample_aspect_ratio">1</property>
  <property name="meta.media.2.codec.width">1920</property>
  <property name="meta.media.2.codec.height">1080</property>
  <property name="meta.media.2.codec.rotate">0</property>
  <property name="meta.media.2.codec.pix_fmt">yuvj420p</property>
  <property name="meta.media.2.codec.sample_aspect_ratio">0</property>
  <property name="meta.media.2.codec.colorspace">709</property>
  <property name="meta.media.2.codec.color_trc">1</property>
  <property name="meta.media.2.codec.name">hevc</property>
  <property name="meta.media.2.codec.long_name">HEVC (High Efficiency Video Coding)</property>
  <property name="meta.media.2.codec.bit_rate">19604197</property>
  <property name="meta.attr.2.stream.creation_time.markup">2022-03-30T09:33:36.000000Z</property>
  <property name="meta.attr.2.stream.language.markup">eng</property>
  <property name="meta.attr.2.stream.handler_name.markup">VideoHandle</property>
  <property name="meta.attr.major_brand.markup">isom</property>
  <property name="meta.attr.minor_version.markup">131072</property>
  <property name="meta.attr.compatible_brands.markup">isomiso2mp41</property>
  <property name="meta.attr.creation_time.markup">2022-03-30T09:33:36.000000Z</property>
  <property name="meta.attr.location.markup">+52.7185+4.6577/</property>
  <property name="meta.attr.location-eng.markup">+52.7185+4.6577/</property>
  <property name="meta.attr.com.android.capture.fps.markup">30.000000</property>
  <property name="meta.media.sample_aspect_num">1</property>
  <property name="meta.media.sample_aspect_den">1</property>
  <property name="meta.media.frame_rate_num">121950000</property>
  <property name="meta.media.frame_rate_den">4065361</property>
  <property name="meta.media.colorspace">709</property>
  <property name="meta.media.color_trc">1</property>
  <property name="meta.media.has_b_frames">0</property>
  <property name="meta.media.width">1920</property>
  <property name="meta.media.height">1080</property>
  <property name="meta.media.color_range">full</property>
  <property name="kdenlive:audio_max1">190</property>
  <property name="meta.media.variable_frame_rate">1</property>
  <property name="meta.media.top_field_first">0</property>
  <property name="meta.media.progressive">1</property>
 </producer>
 <producer id="producer31" in="00:00:00.000" out="00:00:04.967">
  <property name="length">00:00:05.000</property>
  <property name="eof">pause</property>
  <property name="resource">videos/PXL_20220330_093405125.jpg</property>
  <property name="ttl">25</property>
  <property name="aspect_ratio">1</property>
  <property name="progressive">1</property>
  <property name="seekable">1</property>
  <property name="meta.media.width">4080</property>
  <property name="meta.media.height">3072</property>
  <property name="mlt_service">qimage</property>
  <property name="kdenlive:clipname"/>
  <property name="kdenlive:duration">00:00:05.000</property>
  <property name="kdenlive:folderid">37</property>
  <property name="kdenlive:id">28</property>
  <property name="kdenlive:file_size">3772151</property>
  <property name="kdenlive:file_hash">7718ec2af9c9642501ade7623281cb13</property>
 </producer>
 <producer id="producer33" in="00:00:00.000" out="00:00:04.967">
  <property name="length">00:00:05.000</property>
  <property name="eof">pause</property>
  <property name="resource">videos/PXL_20220330_093517710.jpg</property>
  <property name="ttl">25</property>
  <property name="aspect_ratio">1</property>
  <property name="progressive">1</property>
  <property name="seekable">1</property>
  <property name="meta.media.width">4080</property>
  <property name="meta.media.height">3072</property>
  <property name="mlt_service">qimage</property>
  <property name="kdenlive:clipname"/>
  <property name="kdenlive:duration">00:00:05.000</property>
  <property name="kdenlive:folderid">37</property>
  <property name="kdenlive:id">29</property>
  <property name="kdenlive:file_size">6007071</property>
  <property name="kdenlive:file_hash">a1543a38091c6312bba1ee349e06d505</property>
 </producer>
 <producer id="producer24" in="00:00:00.000" out="00:00:53.567">
  <property name="length">1608</property>
  <property name="eof">pause</property>
  <property name="resource">videos/PXL_20220330_093519653.TS.mp4</property>
  <property name="audio_index">1</property>
  <property name="video_index">2</property>
  <property name="mute_on_pause">0</property>
  <property name="mlt_service">avformat-novalidate</property>
  <property name="seekable">1</property>
  <property name="aspect_ratio">1</property>
  <property name="kdenlive:clipname"/>
  <property name="kdenlive:folderid">37</property>
  <property name="kdenlive:id">30</property>
  <property name="kdenlive:file_size">133019595</property>
  <property name="kdenlive:file_hash">e6bbd23e664f25271cf648f01e29bc7a</property>
  <property name="meta.media.nb_streams">4</property>
  <property name="meta.media.1.stream.type">audio</property>
  <property name="meta.media.1.codec.sample_fmt">fltp</property>
  <property name="meta.media.1.codec.sample_rate">48000</property>
  <property name="meta.media.1.codec.channels">2</property>
  <property name="meta.media.1.codec.name">aac</property>
  <property name="meta.media.1.codec.long_name">AAC (Advanced Audio Coding)</property>
  <property name="meta.media.1.codec.bit_rate">191921</property>
  <property name="meta.attr.1.stream.creation_time.markup">2022-03-30T09:36:15.000000Z</property>
  <property name="meta.attr.1.stream.language.markup">eng</property>
  <property name="meta.attr.1.stream.handler_name.markup">SoundHandle</property>
  <property name="meta.media.2.stream.type">video</property>
  <property name="meta.media.2.stream.frame_rate">29.9972</property>
  <property name="meta.media.2.stream.sample_aspect_ratio">1</property>
  <property name="meta.media.2.codec.width">1920</property>
  <property name="meta.media.2.codec.height">1080</property>
  <property name="meta.media.2.codec.rotate">0</property>
  <property name="meta.media.2.codec.pix_fmt">yuvj420p</property>
  <property name="meta.media.2.codec.sample_aspect_ratio">0</property>
  <property name="meta.media.2.codec.colorspace">709</property>
  <property name="meta.media.2.codec.color_trc">1</property>
  <property name="meta.media.2.codec.name">hevc</property>
  <property name="meta.media.2.codec.long_name">HEVC (High Efficiency Video Coding)</property>
  <property name="meta.media.2.codec.bit_rate">19612321</property>
  <property name="meta.attr.2.stream.creation_time.markup">2022-03-30T09:36:15.000000Z</property>
  <property name="meta.attr.2.stream.language.markup">eng</property>
  <property name="meta.attr.2.stream.handler_name.markup">VideoHandle</property>
  <property name="meta.attr.major_brand.markup">isom</property>
  <property name="meta.attr.minor_version.markup">131072</property>
  <property name="meta.attr.compatible_brands.markup">isomiso2mp41</property>
  <property name="meta.attr.creation_time.markup">2022-03-30T09:36:15.000000Z</property>
  <property name="meta.attr.location.markup">+52.7178+4.6571/</property>
  <property name="meta.attr.location-eng.markup">+52.7178+4.6571/</property>
  <property name="meta.attr.com.android.capture.fps.markup">30.000000</property>
  <property name="meta.media.sample_aspect_num">1</property>
  <property name="meta.media.sample_aspect_den">1</property>
  <property name="meta.media.frame_rate_num">12060000</property>
  <property name="meta.media.frame_rate_den">402037</property>
  <property name="meta.media.colorspace">709</property>
  <property name="meta.media.color_trc">1</property>
  <property name="meta.media.has_b_frames">0</property>
  <property name="meta.media.width">1920</property>
  <property name="meta.media.height">1080</property>
  <property name="meta.media.color_range">full</property>
  <property name="kdenlive:audio_max1">194</property>
  <property name="meta.media.variable_frame_rate">1</property>
  <property name="meta.media.top_field_first">0</property>
  <property name="meta.media.progressive">1</property>
 </producer>
 <producer id="producer25" in="00:00:00.000" out="00:00:23.367">
  <property name="length">702</property>
  <property name="eof">pause</property>
  <property name="resource">videos/PXL_20220330_093618729.TS.mp4</property>
  <property name="audio_index">1</property>
  <property name="video_index">2</property>
  <property name="mute_on_pause">0</property>
  <property name="mlt_service">avformat-novalidate</property>
  <property name="seekable">1</property>
  <property name="aspect_ratio">1</property>
  <property name="kdenlive:clipname"/>
  <property name="kdenlive:folderid">37</property>
  <property name="kdenlive:id">31</property>
  <property name="kdenlive:file_size">58257553</property>
  <property name="kdenlive:file_hash">c127b40e4e3a3182208160217d7868c1</property>
  <property name="meta.media.nb_streams">4</property>
  <property name="meta.media.1.stream.type">audio</property>
  <property name="meta.media.1.codec.sample_fmt">fltp</property>
  <property name="meta.media.1.codec.sample_rate">48000</property>
  <property name="meta.media.1.codec.channels">2</property>
  <property name="meta.media.1.codec.name">aac</property>
  <property name="meta.media.1.codec.long_name">AAC (Advanced Audio Coding)</property>
  <property name="meta.media.1.codec.bit_rate">191828</property>
  <property name="meta.attr.1.stream.creation_time.markup">2022-03-30T09:36:43.000000Z</property>
  <property name="meta.attr.1.stream.language.markup">eng</property>
  <property name="meta.attr.1.stream.handler_name.markup">SoundHandle</property>
  <property name="meta.media.2.stream.type">video</property>
  <property name="meta.media.2.stream.frame_rate">29.9973</property>
  <property name="meta.media.2.stream.sample_aspect_ratio">1</property>
  <property name="meta.media.2.codec.width">1920</property>
  <property name="meta.media.2.codec.height">1080</property>
  <property name="meta.media.2.codec.rotate">0</property>
  <property name="meta.media.2.codec.pix_fmt">yuvj420p</property>
  <property name="meta.media.2.codec.sample_aspect_ratio">0</property>
  <property name="meta.media.2.codec.colorspace">709</property>
  <property name="meta.media.2.codec.color_trc">1</property>
  <property name="meta.media.2.codec.name">hevc</property>
  <property name="meta.media.2.codec.long_name">HEVC (High Efficiency Video Coding)</property>
  <property name="meta.media.2.codec.bit_rate">19675639</property>
  <property name="meta.attr.2.stream.creation_time.markup">2022-03-30T09:36:43.000000Z</property>
  <property name="meta.attr.2.stream.language.markup">eng</property>
  <property name="meta.attr.2.stream.handler_name.markup">VideoHandle</property>
  <property name="meta.attr.major_brand.markup">isom</property>
  <property name="meta.attr.minor_version.markup">131072</property>
  <property name="meta.attr.compatible_brands.markup">isomiso2mp41</property>
  <property name="meta.attr.creation_time.markup">2022-03-30T09:36:43.000000Z</property>
  <property name="meta.attr.location.markup">+52.7178+4.6571/</property>
  <property name="meta.attr.location-eng.markup">+52.7178+4.6571/</property>
  <property name="meta.attr.com.android.capture.fps.markup">30.000000</property>
  <property name="meta.media.sample_aspect_num">1</property>
  <property name="meta.media.sample_aspect_den">1</property>
  <property name="meta.media.frame_rate_num">1316250</property>
  <property name="meta.media.frame_rate_den">43879</property>
  <property name="meta.media.colorspace">709</property>
  <property name="meta.media.color_trc">1</property>
  <property name="meta.media.has_b_frames">0</property>
  <property name="meta.media.width">1920</property>
  <property name="meta.media.height">1080</property>
  <property name="meta.media.color_range">full</property>
  <property name="kdenlive:audio_max1">206</property>
  <property name="meta.media.variable_frame_rate">1</property>
  <property name="meta.media.top_field_first">0</property>
  <property name="meta.media.progressive">1</property>
 </producer>
 <producer id="producer26" in="00:00:00.000" out="00:00:33.600">
  <property name="length">1009</property>
  <property name="eof">pause</property>
  <property name="resource">videos/PXL_20220330_093721581.TS.mp4</property>
  <property name="audio_index">1</property>
  <property name="video_index">2</property>
  <property name="mute_on_pause">0</property>
  <property name="mlt_service">avformat-novalidate</property>
  <property name="seekable">1</property>
  <property name="aspect_ratio">1</property>
  <property name="kdenlive:clipname"/>
  <property name="kdenlive:folderid">37</property>
  <property name="kdenlive:id">32</property>
  <property name="kdenlive:file_size">83542347</property>
  <property name="kdenlive:file_hash">06a810c7a7b66b5dbf15c559b91328e6</property>
  <property name="meta.media.nb_streams">4</property>
  <property name="meta.media.1.stream.type">audio</property>
  <property name="meta.media.1.codec.sample_fmt">fltp</property>
  <property name="meta.media.1.codec.sample_rate">48000</property>
  <property name="meta.media.1.codec.channels">2</property>
  <property name="meta.media.1.codec.name">aac</property>
  <property name="meta.media.1.codec.long_name">AAC (Advanced Audio Coding)</property>
  <property name="meta.media.1.codec.bit_rate">191927</property>
  <property name="meta.attr.1.stream.creation_time.markup">2022-03-30T09:37:57.000000Z</property>
  <property name="meta.attr.1.stream.language.markup">eng</property>
  <property name="meta.attr.1.stream.handler_name.markup">SoundHandle</property>
  <property name="meta.media.2.stream.type">video</property>
  <property name="meta.media.2.stream.frame_rate">29.9971</property>
  <property name="meta.media.2.stream.sample_aspect_ratio">1</property>
  <property name="meta.media.2.codec.width">1920</property>
  <property name="meta.media.2.codec.height">1080</property>
  <property name="meta.media.2.codec.rotate">0</property>
  <property name="meta.media.2.codec.pix_fmt">yuvj420p</property>
  <property name="meta.media.2.codec.sample_aspect_ratio">0</property>
  <property name="meta.media.2.codec.colorspace">709</property>
  <property name="meta.media.2.codec.color_trc">1</property>
  <property name="meta.media.2.codec.name">hevc</property>
  <property name="meta.media.2.codec.long_name">HEVC (High Efficiency Video Coding)</property>
  <property name="meta.media.2.codec.bit_rate">19630099</property>
  <property name="meta.attr.2.stream.creation_time.markup">2022-03-30T09:37:57.000000Z</property>
  <property name="meta.attr.2.stream.language.markup">eng</property>
  <property name="meta.attr.2.stream.handler_name.markup">VideoHandle</property>
  <property name="meta.attr.major_brand.markup">isom</property>
  <property name="meta.attr.minor_version.markup">131072</property>
  <property name="meta.attr.compatible_brands.markup">isomiso2mp41</property>
  <property name="meta.attr.creation_time.markup">2022-03-30T09:37:57.000000Z</property>
  <property name="meta.attr.location.markup">+52.7178+4.6571/</property>
  <property name="meta.attr.location-eng.markup">+52.7178+4.6571/</property>
  <property name="meta.attr.com.android.capture.fps.markup">30.000000</property>
  <property name="meta.media.sample_aspect_num">1</property>
  <property name="meta.media.sample_aspect_den">1</property>
  <property name="meta.media.frame_rate_num">22702500</property>
  <property name="meta.media.frame_rate_den">756823</property>
  <property name="meta.media.colorspace">709</property>
  <property name="meta.media.color_trc">1</property>
  <property name="meta.media.has_b_frames">0</property>
  <property name="meta.media.width">1920</property>
  <property name="meta.media.height">1080</property>
  <property name="meta.media.color_range">full</property>
  <property name="kdenlive:audio_max1">210</property>
  <property name="meta.media.variable_frame_rate">1</property>
  <property name="meta.media.top_field_first">0</property>
  <property name="meta.media.progressive">1</property>
 </producer>
 <producer id="producer27" in="00:00:00.000" out="00:00:29.700">
  <property name="length">892</property>
  <property name="eof">pause</property>
  <property name="resource">videos/PXL_20220330_094103730.TS.mp4</property>
  <property name="audio_index">1</property>
  <property name="video_index">2</property>
  <property name="mute_on_pause">0</property>
  <property name="mlt_service">avformat-novalidate</property>
  <property name="seekable">1</property>
  <property name="aspect_ratio">1</property>
  <property name="kdenlive:clipname"/>
  <property name="kdenlive:folderid">37</property>
  <property name="kdenlive:id">33</property>
  <property name="kdenlive:file_size">73851269</property>
  <property name="kdenlive:file_hash">4c37023f6c99568482b2d2496d7e4462</property>
  <property name="meta.media.nb_streams">4</property>
  <property name="meta.media.1.stream.type">audio</property>
  <property name="meta.media.1.codec.sample_fmt">fltp</property>
  <property name="meta.media.1.codec.sample_rate">48000</property>
  <property name="meta.media.1.codec.channels">2</property>
  <property name="meta.media.1.codec.name">aac</property>
  <property name="meta.media.1.codec.long_name">AAC (Advanced Audio Coding)</property>
  <property name="meta.media.1.codec.bit_rate">191809</property>
  <property name="meta.attr.1.stream.creation_time.markup">2022-03-30T09:41:34.000000Z</property>
  <property name="meta.attr.1.stream.language.markup">eng</property>
  <property name="meta.attr.1.stream.handler_name.markup">SoundHandle</property>
  <property name="meta.media.2.stream.type">video</property>
  <property name="meta.media.2.stream.frame_rate">29.9971</property>
  <property name="meta.media.2.stream.sample_aspect_ratio">1</property>
  <property name="meta.media.2.codec.width">1920</property>
  <property name="meta.media.2.codec.height">1080</property>
  <property name="meta.media.2.codec.rotate">0</property>
  <property name="meta.media.2.codec.pix_fmt">yuvj420p</property>
  <property name="meta.media.2.codec.sample_aspect_ratio">0</property>
  <property name="meta.media.2.codec.colorspace">709</property>
  <property name="meta.media.2.codec.color_trc">1</property>
  <property name="meta.media.2.codec.name">hevc</property>
  <property name="meta.media.2.codec.long_name">HEVC (High Efficiency Video Coding)</property>
  <property name="meta.media.2.codec.bit_rate">19628361</property>
  <property name="meta.attr.2.stream.creation_time.markup">2022-03-30T09:41:34.000000Z</property>
  <property name="meta.attr.2.stream.language.markup">eng</property>
  <property name="meta.attr.2.stream.handler_name.markup">VideoHandle</property>
  <property name="meta.attr.major_brand.markup">isom</property>
  <property name="meta.attr.minor_version.markup">131072</property>
  <property name="meta.attr.compatible_brands.markup">isomiso2mp41</property>
  <property name="meta.attr.creation_time.markup">2022-03-30T09:41:34.000000Z</property>
  <property name="meta.attr.location.markup">+52.7183+4.6581/</property>
  <property name="meta.attr.location-eng.markup">+52.7183+4.6581/</property>
  <property name="meta.attr.com.android.capture.fps.markup">30.000000</property>
  <property name="meta.media.sample_aspect_num">1</property>
  <property name="meta.media.sample_aspect_den">1</property>
  <property name="meta.media.frame_rate_num">26760000</property>
  <property name="meta.media.frame_rate_den">892087</property>
  <property name="meta.media.colorspace">709</property>
  <property name="meta.media.color_trc">1</property>
  <property name="meta.media.has_b_frames">0</property>
  <property name="meta.media.width">1920</property>
  <property name="meta.media.height">1080</property>
  <property name="meta.media.color_range">full</property>
  <property name="kdenlive:audio_max1">212</property>
  <property name="meta.media.variable_frame_rate">1</property>
  <property name="meta.media.top_field_first">0</property>
  <property name="meta.media.progressive">1</property>
 </producer>
 <producer id="producer28" in="00:00:00.000" out="00:00:40.367">
  <property name="length">1212</property>
  <property name="eof">pause</property>
  <property name="resource">videos/PXL_20220330_094306109.TS.mp4</property>
  <property name="audio_index">1</property>
  <property name="video_index">2</property>
  <property name="mute_on_pause">0</property>
  <property name="mlt_service">avformat-novalidate</property>
  <property name="seekable">1</property>
  <property name="aspect_ratio">1</property>
  <property name="kdenlive:clipname"/>
  <property name="kdenlive:folderid">37</property>
  <property name="kdenlive:id">34</property>
  <property name="kdenlive:file_size">100077012</property>
  <property name="kdenlive:file_hash">402f1ea492ded7e85bf4ccc58de3586d</property>
  <property name="meta.media.nb_streams">4</property>
  <property name="meta.media.1.stream.type">audio</property>
  <property name="meta.media.1.codec.sample_fmt">fltp</property>
  <property name="meta.media.1.codec.sample_rate">48000</property>
  <property name="meta.media.1.codec.channels">2</property>
  <property name="meta.media.1.codec.name">aac</property>
  <property name="meta.media.1.codec.long_name">AAC (Advanced Audio Coding)</property>
  <property name="meta.media.1.codec.bit_rate">191920</property>
  <property name="meta.attr.1.stream.creation_time.markup">2022-03-30T09:43:50.000000Z</property>
  <property name="meta.attr.1.stream.language.markup">eng</property>
  <property name="meta.attr.1.stream.handler_name.markup">SoundHandle</property>
  <property name="meta.media.2.stream.type">video</property>
  <property name="meta.media.2.stream.frame_rate">29.8802</property>
  <property name="meta.media.2.stream.sample_aspect_ratio">1</property>
  <property name="meta.media.2.codec.width">1920</property>
  <property name="meta.media.2.codec.height">1080</property>
  <property name="meta.media.2.codec.rotate">0</property>
  <property name="meta.media.2.codec.pix_fmt">yuvj420p</property>
  <property name="meta.media.2.codec.sample_aspect_ratio">0</property>
  <property name="meta.media.2.codec.colorspace">709</property>
  <property name="meta.media.2.codec.color_trc">1</property>
  <property name="meta.media.2.codec.name">hevc</property>
  <property name="meta.media.2.codec.long_name">HEVC (High Efficiency Video Coding)</property>
  <property name="meta.media.2.codec.bit_rate">19595829</property>
  <property name="meta.attr.2.stream.creation_time.markup">2022-03-30T09:43:50.000000Z</property>
  <property name="meta.attr.2.stream.language.markup">eng</property>
  <property name="meta.attr.2.stream.handler_name.markup">VideoHandle</property>
  <property name="meta.attr.major_brand.markup">isom</property>
  <property name="meta.attr.minor_version.markup">131072</property>
  <property name="meta.attr.compatible_brands.markup">isomiso2mp41</property>
  <property name="meta.attr.creation_time.markup">2022-03-30T09:43:50.000000Z</property>
  <property name="meta.attr.location.markup">+52.7183+4.6581/</property>
  <property name="meta.attr.location-eng.markup">+52.7183+4.6581/</property>
  <property name="meta.attr.com.android.capture.fps.markup">30.000000</property>
  <property name="meta.media.sample_aspect_num">1</property>
  <property name="meta.media.sample_aspect_den">1</property>
  <property name="meta.media.frame_rate_num">12070000</property>
  <property name="meta.media.frame_rate_den">403947</property>
  <property name="meta.media.colorspace">709</property>
  <property name="meta.media.color_trc">1</property>
  <property name="meta.media.has_b_frames">0</property>
  <property name="meta.media.width">1920</property>
  <property name="meta.media.height">1080</property>
  <property name="meta.media.color_range">full</property>
  <property name="kdenlive:audio_max1">220</property>
  <property name="meta.media.variable_frame_rate">1</property>
  <property name="meta.media.top_field_first">0</property>
  <property name="meta.media.progressive">1</property>
 </producer>
 <producer id="producer29" in="00:00:00.000" out="00:00:13.600">
  <property name="length">409</property>
  <property name="eof">pause</property>
  <property name="resource">videos/PXL_20220330_095847376.TS.mp4</property>
  <property name="audio_index">1</property>
  <property name="video_index">2</property>
  <property name="mute_on_pause">0</property>
  <property name="mlt_service">avformat-novalidate</property>
  <property name="seekable">1</property>
  <property name="aspect_ratio">1</property>
  <property name="kdenlive:clipname"/>
  <property name="kdenlive:folderid">37</property>
  <property name="kdenlive:id">35</property>
  <property name="kdenlive:file_size">34500025</property>
  <property name="kdenlive:file_hash">1859af1c5b2975abc4a97eb2de560dcc</property>
  <property name="meta.media.nb_streams">4</property>
  <property name="meta.media.1.stream.type">audio</property>
  <property name="meta.media.1.codec.sample_fmt">fltp</property>
  <property name="meta.media.1.codec.sample_rate">48000</property>
  <property name="meta.media.1.codec.channels">2</property>
  <property name="meta.media.1.codec.name">aac</property>
  <property name="meta.media.1.codec.long_name">AAC (Advanced Audio Coding)</property>
  <property name="meta.media.1.codec.bit_rate">191570</property>
  <property name="meta.attr.1.stream.rotate.markup">180</property>
  <property name="meta.attr.1.stream.creation_time.markup">2022-03-30T09:59:05.000000Z</property>
  <property name="meta.attr.1.stream.language.markup">eng</property>
  <property name="meta.attr.1.stream.handler_name.markup">SoundHandle</property>
  <property name="meta.media.2.stream.type">video</property>
  <property name="meta.media.2.stream.frame_rate">29.8635</property>
  <property name="meta.media.2.stream.sample_aspect_ratio">1</property>
  <property name="meta.media.2.codec.width">1920</property>
  <property name="meta.media.2.codec.height">1080</property>
  <property name="meta.media.2.codec.rotate">180</property>
  <property name="meta.media.2.codec.pix_fmt">yuvj420p</property>
  <property name="meta.media.2.codec.sample_aspect_ratio">0</property>
  <property name="meta.media.2.codec.colorspace">709</property>
  <property name="meta.media.2.codec.color_trc">1</property>
  <property name="meta.media.2.codec.name">hevc</property>
  <property name="meta.media.2.codec.long_name">HEVC (High Efficiency Video Coding)</property>
  <property name="meta.media.2.codec.bit_rate">20020494</property>
  <property name="meta.attr.2.stream.rotate.markup">180</property>
  <property name="meta.attr.2.stream.creation_time.markup">2022-03-30T09:59:05.000000Z</property>
  <property name="meta.attr.2.stream.language.markup">eng</property>
  <property name="meta.attr.2.stream.handler_name.markup">VideoHandle</property>
  <property name="meta.attr.major_brand.markup">isom</property>
  <property name="meta.attr.minor_version.markup">131072</property>
  <property name="meta.attr.compatible_brands.markup">isomiso2mp41</property>
  <property name="meta.attr.creation_time.markup">2022-03-30T09:59:05.000000Z</property>
  <property name="meta.attr.location.markup">+52.7190+4.6577/</property>
  <property name="meta.attr.location-eng.markup">+52.7190+4.6577/</property>
  <property name="meta.attr.com.android.capture.fps.markup">30.000000</property>
  <property name="meta.media.sample_aspect_num">1</property>
  <property name="meta.media.sample_aspect_den">1</property>
  <property name="meta.media.frame_rate_num">18315000</property>
  <property name="meta.media.frame_rate_den">613291</property>
  <property name="meta.media.colorspace">709</property>
  <property name="meta.media.color_trc">1</property>
  <property name="meta.media.has_b_frames">0</property>
  <property name="meta.media.width">1920</property>
  <property name="meta.media.height">1080</property>
  <property name="meta.media.color_range">full</property>
  <property name="kdenlive:audio_max1">197</property>
 </producer>
 <producer id="producer30" in="00:00:00.000" out="00:00:12.433">
  <property name="length">374</property>
  <property name="eof">pause</property>
  <property name="resource">videos/PXL_20220330_100004586.TS.mp4</property>
  <property name="audio_index">1</property>
  <property name="video_index">2</property>
  <property name="mute_on_pause">0</property>
  <property name="mlt_service">avformat-novalidate</property>
  <property name="seekable">1</property>
  <property name="aspect_ratio">1</property>
  <property name="kdenlive:clipname"/>
  <property name="kdenlive:folderid">37</property>
  <property name="kdenlive:id">36</property>
  <property name="kdenlive:file_size">31105764</property>
  <property name="kdenlive:file_hash">66fbd10623b1583a0c3e4927c4d03857</property>
  <property name="meta.media.nb_streams">4</property>
  <property name="meta.media.1.stream.type">audio</property>
  <property name="meta.media.1.codec.sample_fmt">fltp</property>
  <property name="meta.media.1.codec.sample_rate">48000</property>
  <property name="meta.media.1.codec.channels">2</property>
  <property name="meta.media.1.codec.name">aac</property>
  <property name="meta.media.1.codec.long_name">AAC (Advanced Audio Coding)</property>
  <property name="meta.media.1.codec.bit_rate">191550</property>
  <property name="meta.attr.1.stream.creation_time.markup">2022-03-30T10:00:20.000000Z</property>
  <property name="meta.attr.1.stream.language.markup">eng</property>
  <property name="meta.attr.1.stream.handler_name.markup">SoundHandle</property>
  <property name="meta.media.2.stream.type">video</property>
  <property name="meta.media.2.stream.frame_rate">29.9994</property>
  <property name="meta.media.2.stream.sample_aspect_ratio">1</property>
  <property name="meta.media.2.codec.width">1920</property>
  <property name="meta.media.2.codec.height">1080</property>
  <property name="meta.media.2.codec.rotate">0</property>
  <property name="meta.media.2.codec.pix_fmt">yuvj420p</property>
  <property name="meta.media.2.codec.sample_aspect_ratio">0</property>
  <property name="meta.media.2.codec.colorspace">709</property>
  <property name="meta.media.2.codec.color_trc">1</property>
  <property name="meta.media.2.codec.name">hevc</property>
  <property name="meta.media.2.codec.long_name">HEVC (High Efficiency Video Coding)</property>
  <property name="meta.media.2.codec.bit_rate">19720319</property>
  <property name="meta.attr.2.stream.creation_time.markup">2022-03-30T10:00:20.000000Z</property>
  <property name="meta.attr.2.stream.language.markup">eng</property>
  <property name="meta.attr.2.stream.handler_name.markup">VideoHandle</property>
  <property name="meta.attr.major_brand.markup">isom</property>
  <property name="meta.attr.minor_version.markup">131072</property>
  <property name="meta.attr.compatible_brands.markup">isomiso2mp41</property>
  <property name="meta.attr.creation_time.markup">2022-03-30T10:00:20.000000Z</property>
  <property name="meta.attr.location.markup">+52.7189+4.6566/</property>
  <property name="meta.attr.location-eng.markup">+52.7189+4.6566/</property>
  <property name="meta.attr.com.android.capture.fps.markup">30.000000</property>
  <property name="meta.media.sample_aspect_num">1</property>
  <property name="meta.media.sample_aspect_den">1</property>
  <property name="meta.media.frame_rate_num">1530000</property>
  <property name="meta.media.frame_rate_den">51001</property>
  <property name="meta.media.colorspace">709</property>
  <property name="meta.media.color_trc">1</property>
  <property name="meta.media.has_b_frames">0</property>
  <property name="meta.media.width">1920</property>
  <property name="meta.media.height">1080</property>
  <property name="meta.media.color_range">full</property>
  <property name="kdenlive:audio_max1">197</property>
 </producer>
 <producer id="producer34" in="00:00:00.000" out="00:00:11.967">
  <property name="length">360</property>
  <property name="eof">pause</property>
  <property name="resource">videos/catch-cam/20220330_110833.mp4</property>
  <property name="audio_index">1</property>
  <property name="video_index">0</property>
  <property name="mute_on_pause">0</property>
  <property name="mlt_service">avformat-novalidate</property>
  <property name="meta.media.nb_streams">2</property>
  <property name="meta.media.0.stream.type">video</property>
  <property name="meta.media.0.stream.frame_rate">29.8376</property>
  <property name="meta.media.0.stream.sample_aspect_ratio">0</property>
  <property name="meta.media.0.codec.width">1920</property>
  <property name="meta.media.0.codec.height">1080</property>
  <property name="meta.media.0.codec.rotate">0</property>
  <property name="meta.media.0.codec.pix_fmt">yuv420p</property>
  <property name="meta.media.0.codec.sample_aspect_ratio">0</property>
  <property name="meta.media.0.codec.colorspace">709</property>
  <property name="meta.media.0.codec.color_trc">1</property>
  <property name="meta.media.0.codec.name">h264</property>
  <property name="meta.media.0.codec.long_name">H.264 / AVC / MPEG-4 AVC / MPEG-4 part 10</property>
  <property name="meta.media.0.codec.bit_rate">14069932</property>
  <property name="meta.attr.0.stream.creation_time.markup">2022-03-30T09:08:46.000000Z</property>
  <property name="meta.attr.0.stream.language.markup">eng</property>
  <property name="meta.attr.0.stream.handler_name.markup">VideoHandle</property>
  <property name="meta.media.1.stream.type">audio</property>
  <property name="meta.media.1.codec.sample_fmt">fltp</property>
  <property name="meta.media.1.codec.sample_rate">48000</property>
  <property name="meta.media.1.codec.channels">2</property>
  <property name="meta.media.1.codec.name">aac</property>
  <property name="meta.media.1.codec.long_name">AAC (Advanced Audio Coding)</property>
  <property name="meta.media.1.codec.bit_rate">256207</property>
  <property name="meta.attr.1.stream.creation_time.markup">2022-03-30T09:08:46.000000Z</property>
  <property name="meta.attr.1.stream.language.markup">eng</property>
  <property name="meta.attr.1.stream.handler_name.markup">SoundHandle</property>
  <property name="meta.attr.major_brand.markup">mp42</property>
  <property name="meta.attr.minor_version.markup">0</property>
  <property name="meta.attr.compatible_brands.markup">isommp42</property>
  <property name="meta.attr.creation_time.markup">2022-03-30T09:08:46.000000Z</property>
  <property name="meta.attr.com.android.version.markup">12</property>
  <property name="meta.attr.com.android.capture.fps.markup">30.000000</property>
  <property name="seekable">1</property>
  <property name="meta.media.sample_aspect_num">1</property>
  <property name="meta.media.sample_aspect_den">1</property>
  <property name="aspect_ratio">1</property>
  <property name="kdenlive:clipname"/>
  <property name="kdenlive:folderid">38</property>
  <property name="kdenlive:file_size">21494733</property>
  <property name="meta.media.frame_rate_num">6444000</property>
  <property name="meta.media.frame_rate_den">215969</property>
  <property name="meta.media.colorspace">709</property>
  <property name="meta.media.color_trc">1</property>
  <property name="meta.media.has_b_frames">0</property>
  <property name="meta.media.width">1920</property>
  <property name="meta.media.height">1080</property>
  <property name="meta.media.color_range">mpeg</property>
  <property name="kdenlive:id">39</property>
  <property name="kdenlive:file_hash">0bea170ea7090e601882cd857ff7d2f5</property>
  <property name="kdenlive:audio_max1">205</property>
  <property name="meta.media.variable_frame_rate">1</property>
  <property name="meta.media.top_field_first">0</property>
  <property name="meta.media.progressive">1</property>
 </producer>
 <producer id="producer35" in="00:00:00.000" out="00:00:11.033">
  <property name="length">332</property>
  <property name="eof">pause</property>
  <property name="resource">videos/catch-cam/20220330_110849.mp4</property>
  <property name="audio_index">1</property>
  <property name="video_index">0</property>
  <property name="mute_on_pause">0</property>
  <property name="mlt_service">avformat-novalidate</property>
  <property name="meta.media.nb_streams">2</property>
  <property name="meta.media.0.stream.type">video</property>
  <property name="meta.media.0.stream.frame_rate">30.0043</property>
  <property name="meta.media.0.stream.sample_aspect_ratio">0</property>
  <property name="meta.media.0.codec.width">1920</property>
  <property name="meta.media.0.codec.height">1080</property>
  <property name="meta.media.0.codec.rotate">0</property>
  <property name="meta.media.0.codec.pix_fmt">yuv420p</property>
  <property name="meta.media.0.codec.sample_aspect_ratio">0</property>
  <property name="meta.media.0.codec.colorspace">709</property>
  <property name="meta.media.0.codec.color_trc">1</property>
  <property name="meta.media.0.codec.name">h264</property>
  <property name="meta.media.0.codec.long_name">H.264 / AVC / MPEG-4 AVC / MPEG-4 part 10</property>
  <property name="meta.media.0.codec.bit_rate">14181927</property>
  <property name="meta.attr.0.stream.creation_time.markup">2022-03-30T09:09:01.000000Z</property>
  <property name="meta.attr.0.stream.language.markup">eng</property>
  <property name="meta.attr.0.stream.handler_name.markup">VideoHandle</property>
  <property name="meta.media.1.stream.type">audio</property>
  <property name="meta.media.1.codec.sample_fmt">fltp</property>
  <property name="meta.media.1.codec.sample_rate">48000</property>
  <property name="meta.media.1.codec.channels">2</property>
  <property name="meta.media.1.codec.name">aac</property>
  <property name="meta.media.1.codec.long_name">AAC (Advanced Audio Coding)</property>
  <property name="meta.media.1.codec.bit_rate">256230</property>
  <property name="meta.attr.1.stream.creation_time.markup">2022-03-30T09:09:01.000000Z</property>
  <property name="meta.attr.1.stream.language.markup">eng</property>
  <property name="meta.attr.1.stream.handler_name.markup">SoundHandle</property>
  <property name="meta.attr.major_brand.markup">mp42</property>
  <property name="meta.attr.minor_version.markup">0</property>
  <property name="meta.attr.compatible_brands.markup">isommp42</property>
  <property name="meta.attr.creation_time.markup">2022-03-30T09:09:01.000000Z</property>
  <property name="meta.attr.com.android.version.markup">12</property>
  <property name="meta.attr.com.android.capture.fps.markup">30.000000</property>
  <property name="seekable">1</property>
  <property name="meta.media.sample_aspect_num">1</property>
  <property name="meta.media.sample_aspect_den">1</property>
  <property name="aspect_ratio">1</property>
  <property name="kdenlive:clipname"/>
  <property name="kdenlive:folderid">38</property>
  <property name="meta.media.frame_rate_num">29880000</property>
  <property name="meta.media.frame_rate_den">995857</property>
  <property name="meta.media.colorspace">709</property>
  <property name="meta.media.color_trc">1</property>
  <property name="meta.media.has_b_frames">0</property>
  <property name="meta.media.width">1920</property>
  <property name="meta.media.height">1080</property>
  <property name="meta.media.color_range">mpeg</property>
  <property name="kdenlive:id">40</property>
  <property name="kdenlive:file_size">19976503</property>
  <property name="kdenlive:file_hash">e86fa8fc6b343a535b534faf979f8837</property>
  <property name="kdenlive:audio_max1">97</property>
  <property name="meta.media.variable_frame_rate">1</property>
  <property name="meta.media.top_field_first">0</property>
  <property name="meta.media.progressive">1</property>
 </producer>
 <producer id="producer36" in="00:00:00.000" out="00:00:46.967">
  <property name="length">1410</property>
  <property name="eof">pause</property>
  <property name="resource">videos/catch-cam/20220330_113525.mp4</property>
  <property name="audio_index">1</property>
  <property name="video_index">0</property>
  <property name="mute_on_pause">0</property>
  <property name="mlt_service">avformat-novalidate</property>
  <property name="meta.media.nb_streams">2</property>
  <property name="meta.media.0.stream.type">video</property>
  <property name="meta.media.0.stream.frame_rate">29.8802</property>
  <property name="meta.media.0.stream.sample_aspect_ratio">0</property>
  <property name="meta.media.0.codec.width">1920</property>
  <property name="meta.media.0.codec.height">1080</property>
  <property name="meta.media.0.codec.rotate">0</property>
  <property name="meta.media.0.codec.pix_fmt">yuv420p</property>
  <property name="meta.media.0.codec.sample_aspect_ratio">0</property>
  <property name="meta.media.0.codec.colorspace">709</property>
  <property name="meta.media.0.codec.color_trc">1</property>
  <property name="meta.media.0.codec.name">h264</property>
  <property name="meta.media.0.codec.long_name">H.264 / AVC / MPEG-4 AVC / MPEG-4 part 10</property>
  <property name="meta.media.0.codec.bit_rate">13908219</property>
  <property name="meta.attr.0.stream.creation_time.markup">2022-03-30T09:36:13.000000Z</property>
  <property name="meta.attr.0.stream.language.markup">eng</property>
  <property name="meta.attr.0.stream.handler_name.markup">VideoHandle</property>
  <property name="meta.media.1.stream.type">audio</property>
  <property name="meta.media.1.codec.sample_fmt">fltp</property>
  <property name="meta.media.1.codec.sample_rate">48000</property>
  <property name="meta.media.1.codec.channels">2</property>
  <property name="meta.media.1.codec.name">aac</property>
  <property name="meta.media.1.codec.long_name">AAC (Advanced Audio Coding)</property>
  <property name="meta.media.1.codec.bit_rate">256058</property>
  <property name="meta.attr.1.stream.creation_time.markup">2022-03-30T09:36:13.000000Z</property>
  <property name="meta.attr.1.stream.language.markup">eng</property>
  <property name="meta.attr.1.stream.handler_name.markup">SoundHandle</property>
  <property name="meta.attr.major_brand.markup">mp42</property>
  <property name="meta.attr.minor_version.markup">0</property>
  <property name="meta.attr.compatible_brands.markup">isommp42</property>
  <property name="meta.attr.creation_time.markup">2022-03-30T09:36:13.000000Z</property>
  <property name="meta.attr.com.android.version.markup">12</property>
  <property name="meta.attr.com.android.capture.fps.markup">30.000000</property>
  <property name="seekable">1</property>
  <property name="meta.media.sample_aspect_num">1</property>
  <property name="meta.media.sample_aspect_den">1</property>
  <property name="aspect_ratio">1</property>
  <property name="kdenlive:clipname"/>
  <property name="kdenlive:folderid">38</property>
  <property name="meta.media.frame_rate_num">126360000</property>
  <property name="meta.media.frame_rate_den">4228891</property>
  <property name="meta.media.colorspace">709</property>
  <property name="meta.media.color_trc">1</property>
  <property name="meta.media.has_b_frames">0</property>
  <property name="meta.media.width">1920</property>
  <property name="meta.media.height">1080</property>
  <property name="meta.media.color_range">mpeg</property>
  <property name="kdenlive:id">41</property>
  <property name="kdenlive:file_size">83222914</property>
  <property name="kdenlive:file_hash">a2504c0dd89071f456933b9c49f38210</property>
  <property name="kdenlive:audio_max1">192</property>
  <property name="meta.media.variable_frame_rate">1</property>
  <property name="meta.media.top_field_first">0</property>
  <property name="meta.media.progressive">1</property>
 </producer>
 <producer id="producer37" in="00:00:00.000" out="00:00:46.533">
  <property name="length">1397</property>
  <property name="eof">pause</property>
  <property name="resource">videos/catch-cam/20220330_115905.mp4</property>
  <property name="audio_index">1</property>
  <property name="video_index">0</property>
  <property name="mute_on_pause">0</property>
  <property name="mlt_service">avformat-novalidate</property>
  <property name="meta.media.nb_streams">2</property>
  <property name="meta.media.0.stream.type">video</property>
  <property name="meta.media.0.stream.frame_rate">30.0043</property>
  <property name="meta.media.0.stream.sample_aspect_ratio">0</property>
  <property name="meta.media.0.codec.width">1920</property>
  <property name="meta.media.0.codec.height">1080</property>
  <property name="meta.media.0.codec.rotate">0</property>
  <property name="meta.media.0.codec.pix_fmt">yuv420p</property>
  <property name="meta.media.0.codec.sample_aspect_ratio">0</property>
  <property name="meta.media.0.codec.colorspace">709</property>
  <property name="meta.media.0.codec.color_trc">1</property>
  <property name="meta.media.0.codec.name">h264</property>
  <property name="meta.media.0.codec.long_name">H.264 / AVC / MPEG-4 AVC / MPEG-4 part 10</property>
  <property name="meta.media.0.codec.bit_rate">13924648</property>
  <property name="meta.attr.0.stream.creation_time.markup">2022-03-30T09:59:53.000000Z</property>
  <property name="meta.attr.0.stream.language.markup">eng</property>
  <property name="meta.attr.0.stream.handler_name.markup">VideoHandle</property>
  <property name="meta.media.1.stream.type">audio</property>
  <property name="meta.media.1.codec.sample_fmt">fltp</property>
  <property name="meta.media.1.codec.sample_rate">48000</property>
  <property name="meta.media.1.codec.channels">2</property>
  <property name="meta.media.1.codec.name">aac</property>
  <property name="meta.media.1.codec.long_name">AAC (Advanced Audio Coding)</property>
  <property name="meta.media.1.codec.bit_rate">256049</property>
  <property name="meta.attr.1.stream.creation_time.markup">2022-03-30T09:59:53.000000Z</property>
  <property name="meta.attr.1.stream.language.markup">eng</property>
  <property name="meta.attr.1.stream.handler_name.markup">SoundHandle</property>
  <property name="meta.attr.major_brand.markup">mp42</property>
  <property name="meta.attr.minor_version.markup">0</property>
  <property name="meta.attr.compatible_brands.markup">isommp42</property>
  <property name="meta.attr.creation_time.markup">2022-03-30T09:59:53.000000Z</property>
  <property name="meta.attr.com.android.version.markup">12</property>
  <property name="meta.attr.com.android.capture.fps.markup">30.000000</property>
  <property name="seekable">1</property>
  <property name="meta.media.sample_aspect_num">1</property>
  <property name="meta.media.sample_aspect_den">1</property>
  <property name="aspect_ratio">1</property>
  <property name="kdenlive:clipname"/>
  <property name="kdenlive:folderid">38</property>
  <property name="meta.media.frame_rate_num">2286000</property>
  <property name="meta.media.frame_rate_den">76189</property>
  <property name="meta.media.colorspace">709</property>
  <property name="meta.media.color_trc">1</property>
  <property name="meta.media.has_b_frames">0</property>
  <property name="meta.media.width">1920</property>
  <property name="meta.media.height">1080</property>
  <property name="meta.media.color_range">mpeg</property>
  <property name="kdenlive:id">42</property>
  <property name="kdenlive:file_size">82560319</property>
  <property name="kdenlive:file_hash">98c43a5c9c2f5acc272dc25f384d2a4e</property>
  <property name="kdenlive:audio_max1">173</property>
  <property name="meta.media.variable_frame_rate">1</property>
  <property name="meta.media.top_field_first">0</property>
  <property name="meta.media.progressive">1</property>
 </producer>
 <producer id="producer38" in="00:00:00.000" out="00:03:37.400">
  <property name="length">6523</property>
  <property name="eof">pause</property>
  <property name="resource">/opt/vlog/musica/bensound/bensound-summer.mp3</property>
  <property name="meta.media.nb_streams">1</property>
  <property name="meta.media.0.stream.type">audio</property>
  <property name="meta.media.0.codec.sample_fmt">fltp</property>
  <property name="meta.media.0.codec.sample_rate">44100</property>
  <property name="meta.media.0.codec.channels">2</property>
  <property name="meta.media.0.codec.name">mp3float</property>
  <property name="meta.media.0.codec.long_name">MP3 (MPEG audio layer 3)</property>
  <property name="meta.media.0.codec.bit_rate">160000</property>
  <property name="meta.attr.genre.markup">Abstract</property>
  <property name="seekable">1</property>
  <property name="audio_index">0</property>
  <property name="video_index">-1</property>
  <property name="mute_on_pause">1</property>
  <property name="mlt_service">avformat</property>
  <property name="kdenlive:clipname"/>
  <property name="kdenlive:folderid">-1</property>
  <property name="kdenlive:id">43</property>
  <property name="kdenlive:file_size">4349086</property>
  <property name="kdenlive:file_hash">74259650835e9a0a4bb28d7ecab36973</property>
  <property name="kdenlive:audio_max0">250</property>
  <property name="kdenlive:markers">[
    {
        "comment": "Marker",
        "pos": 5435,
        "type": 0
    }
]
</property>
 </producer>
 <producer id="producer39" in="00:00:00.000" out="00:00:07.200">
  <property name="length">217</property>
  <property name="eof">pause</property>
  <property name="resource">Disc-Golf-Courses-UDisc-Groet.png</property>
  <property name="ttl">25</property>
  <property name="aspect_ratio">1</property>
  <property name="progressive">1</property>
  <property name="seekable">1</property>
  <property name="meta.media.width">524</property>
  <property name="meta.media.height">630</property>
  <property name="mlt_service">qimage</property>
  <property name="kdenlive:clipname"/>
  <property name="kdenlive:duration">00:00:05.000</property>
  <property name="kdenlive:folderid">-1</property>
  <property name="kdenlive:file_size">285750</property>
  <property name="kdenlive:id">44</property>
  <property name="kdenlive:file_hash">35270e44dc8ed7c3821d1c149fb7fef7</property>
 </producer>
 <producer id="producer40" in="00:00:00.000" out="00:00:07.600">
  <property name="length">229</property>
  <property name="eof">pause</property>
  <property name="resource"/>
  <property name="progressive">1</property>
  <property name="aspect_ratio">1</property>
  <property name="seekable">1</property>
  <property name="mlt_service">kdenlivetitle</property>
  <property name="kdenlive:duration">150</property>
  <property name="kdenlive:clipname">flecha</property>
  <property name="xmldata">&lt;kdenlivetitle duration="150" LC_NUMERIC="C" width="1920" height="1080" out="149">
 &lt;item type="QGraphicsTextItem" z-index="0">
  &lt;position x="1040" y="200">
   &lt;transform>1,0,0,0,1,0,0,0,1&lt;/transform>
  &lt;/position>
  &lt;content line-spacing="0" shadow="0;#64000000;3;3;3" font-underline="0" box-height="127" font-outline-color="0,0,0,255" font="Konkretika Black WIP" letter-spacing="0" font-pixel-size="100" font-italic="0" typewriter="0;2;1;0;0" alignment="2" font-weight="75" font-outline="5" box-width="83.7813" font-color="239,41,41,255">↓&lt;/content>
 &lt;/item>
 &lt;startviewport rect="0,0,1920,1080"/>
 &lt;endviewport rect="0,0,1920,1080"/>
 &lt;background color="0,0,0,0"/>
&lt;/kdenlivetitle>
</property>
  <property name="kdenlive:folderid">-1</property>
  <property name="kdenlive:file_hash">00c089af5b9a6c4a29c245011b546970</property>
  <property name="kdenlive:id">45</property>
  <property name="force_reload">0</property>
  <property name="meta.media.width">1920</property>
  <property name="meta.media.height">1080</property>
 </producer>
 <producer id="producer41" in="00:00:00.000" out="00:00:39.300">
  <property name="length">1180</property>
  <property name="eof">pause</property>
  <property name="resource">/opt/vlog/graficas/ThunderGuanaco.kdenlivetitle</property>
  <property name="progressive">1</property>
  <property name="aspect_ratio">1</property>
  <property name="seekable">1</property>
  <property name="mlt_service">kdenlivetitle</property>
  <property name="kdenlive:duration">1180</property>
  <property name="kdenlive:clipname"/>
  <property name="kdenlive:folderid">-1</property>
  <property name="kdenlive:file_hash">5b23d34e1e02b6ee0d48862a10f343dd</property>
  <property name="kdenlive:id">46</property>
  <property name="force_reload">0</property>
  <property name="meta.media.width">1920</property>
  <property name="meta.media.height">1080</property>
 </producer>
 <playlist id="main_bin">
  <property name="kdenlive:folder.-1.2">videos</property>
  <property name="kdenlive:folder.2.37">Manolo</property>
  <property name="kdenlive:folder.2.38">Steffi</property>
  <property name="kdenlive:docproperties.activeTrack">4</property>
  <property name="kdenlive:docproperties.audioChannels">2</property>
  <property name="kdenlive:docproperties.audioTarget">-1</property>
  <property name="kdenlive:docproperties.disablepreview">0</property>
  <property name="kdenlive:docproperties.documentid">1649321673333</property>
  <property name="kdenlive:docproperties.enableTimelineZone">0</property>
  <property name="kdenlive:docproperties.enableexternalproxy">0</property>
  <property name="kdenlive:docproperties.enableproxy">0</property>
  <property name="kdenlive:docproperties.externalproxyparams"/>
  <property name="kdenlive:docproperties.generateimageproxy">0</property>
  <property name="kdenlive:docproperties.generateproxy">0</property>
  <property name="kdenlive:docproperties.groups">[
    {
        "children": [
            {
                "data": "4:6921",
                "leaf": "clip",
                "type": "Leaf"
            },
            {
                "data": "3:6921",
                "leaf": "clip",
                "type": "Leaf"
            }
        ],
        "type": "AVSplit"
    },
    {
        "children": [
            {
                "data": "4:0",
                "leaf": "clip",
                "type": "Leaf"
            },
            {
                "data": "3:0",
                "leaf": "clip",
                "type": "Leaf"
            }
        ],
        "type": "AVSplit"
    },
    {
        "children": [
            {
                "data": "3:5393",
                "leaf": "clip",
                "type": "Leaf"
            },
            {
                "data": "4:5393",
                "leaf": "clip",
                "type": "Leaf"
            }
        ],
        "type": "AVSplit"
    },
    {
        "children": [
            {
                "data": "3:4965",
                "leaf": "clip",
                "type": "Leaf"
            },
            {
                "data": "4:4965",
                "leaf": "clip",
                "type": "Leaf"
            }
        ],
        "type": "AVSplit"
    },
    {
        "children": [
            {
                "data": "3:846",
                "leaf": "clip",
                "type": "Leaf"
            },
            {
                "data": "4:846",
                "leaf": "clip",
                "type": "Leaf"
            }
        ],
        "type": "AVSplit"
    },
    {
        "children": [
            {
                "data": "4:174",
                "leaf": "clip",
                "type": "Leaf"
            },
            {
                "data": "3:174",
                "leaf": "clip",
                "type": "Leaf"
            }
        ],
        "type": "AVSplit"
    },
    {
        "children": [
            {
                "data": "4:5147",
                "leaf": "clip",
                "type": "Leaf"
            },
            {
                "data": "3:5147",
                "leaf": "clip",
                "type": "Leaf"
            }
        ],
        "type": "AVSplit"
    },
    {
        "children": [
            {
                "data": "3:6121",
                "leaf": "clip",
                "type": "Leaf"
            },
            {
                "data": "4:6121",
                "leaf": "clip",
                "type": "Leaf"
            }
        ],
        "type": "AVSplit"
    },
    {
        "children": [
            {
                "data": "4:3568",
                "leaf": "clip",
                "type": "Leaf"
            },
            {
                "data": "3:3568",
                "leaf": "clip",
                "type": "Leaf"
            }
        ],
        "type": "AVSplit"
    },
    {
        "children": [
            {
                "data": "4:3797",
                "leaf": "clip",
                "type": "Leaf"
            },
            {
                "data": "3:3797",
                "leaf": "clip",
                "type": "Leaf"
            }
        ],
        "type": "AVSplit"
    },
    {
        "children": [
            {
                "data": "4:2608",
                "leaf": "clip",
                "type": "Leaf"
            },
            {
                "data": "3:2608",
                "leaf": "clip",
                "type": "Leaf"
            }
        ],
        "type": "AVSplit"
    },
    {
        "children": [
            {
                "data": "4:4260",
                "leaf": "clip",
                "type": "Leaf"
            },
            {
                "data": "3:4260",
                "leaf": "clip",
                "type": "Leaf"
            }
        ],
        "type": "AVSplit"
    },
    {
        "children": [
            {
                "data": "3:3917",
                "leaf": "clip",
                "type": "Leaf"
            },
            {
                "data": "4:3917",
                "leaf": "clip",
                "type": "Leaf"
            }
        ],
        "type": "AVSplit"
    },
    {
        "children": [
            {
                "data": "3:6478",
                "leaf": "clip",
                "type": "Leaf"
            },
            {
                "data": "4:6478",
                "leaf": "clip",
                "type": "Leaf"
            }
        ],
        "type": "AVSplit"
    },
    {
        "children": [
            {
                "data": "4:543",
                "leaf": "clip",
                "type": "Leaf"
            },
            {
                "data": "3:543",
                "leaf": "clip",
                "type": "Leaf"
            }
        ],
        "type": "AVSplit"
    },
    {
        "children": [
            {
                "data": "3:1645",
                "leaf": "clip",
                "type": "Leaf"
            },
            {
                "data": "4:1645",
                "leaf": "clip",
                "type": "Leaf"
            }
        ],
        "type": "AVSplit"
    },
    {
        "children": [
            {
                "data": "4:502",
                "leaf": "clip",
                "type": "Leaf"
            },
            {
                "data": "3:502",
                "leaf": "clip",
                "type": "Leaf"
            }
        ],
        "type": "AVSplit"
    },
    {
        "children": [
            {
                "data": "3:5979",
                "leaf": "clip",
                "type": "Leaf"
            },
            {
                "data": "4:5979",
                "leaf": "clip",
                "type": "Leaf"
            }
        ],
        "type": "AVSplit"
    }
]
</property>
  <property name="kdenlive:docproperties.kdenliveversion">21.12.2</property>
  <property name="kdenlive:docproperties.position">691</property>
  <property name="kdenlive:docproperties.previewextension"/>
  <property name="kdenlive:docproperties.previewparameters"/>
  <property name="kdenlive:docproperties.profile">atsc_1080p_30</property>
  <property name="kdenlive:docproperties.proxyextension"/>
  <property name="kdenlive:docproperties.proxyimageminsize">2000</property>
  <property name="kdenlive:docproperties.proxyimagesize">800</property>
  <property name="kdenlive:docproperties.proxyminsize">1000</property>
  <property name="kdenlive:docproperties.proxyparams"/>
  <property name="kdenlive:docproperties.proxyresize">640</property>
  <property name="kdenlive:docproperties.renderaudioquality">192</property>
  <property name="kdenlive:docproperties.rendercategory">Custom</property>
  <property name="kdenlive:docproperties.renderendguide">-1</property>
  <property name="kdenlive:docproperties.renderexportaudio">0</property>
  <property name="kdenlive:docproperties.renderfield">0</property>
  <property name="kdenlive:docproperties.renderguide">0</property>
  <property name="kdenlive:docproperties.renderplay">0</property>
  <property name="kdenlive:docproperties.renderprofile">Calidad a tope</property>
  <property name="kdenlive:docproperties.renderquality">15</property>
  <property name="kdenlive:docproperties.renderratio">1</property>
  <property name="kdenlive:docproperties.renderrescale">0</property>
  <property name="kdenlive:docproperties.renderrescaleheight">540</property>
  <property name="kdenlive:docproperties.renderrescalewidth">960</property>
  <property name="kdenlive:docproperties.renderscanning">0</property>
  <property name="kdenlive:docproperties.renderspeed">2</property>
  <property name="kdenlive:docproperties.renderstartguide">-1</property>
  <property name="kdenlive:docproperties.rendertcoverlay">0</property>
  <property name="kdenlive:docproperties.rendertctype">0</property>
  <property name="kdenlive:docproperties.rendertwopass">0</property>
  <property name="kdenlive:docproperties.renderurl">groet.mp4</property>
  <property name="kdenlive:docproperties.renderzone">0</property>
  <property name="kdenlive:docproperties.scrollPos">1560</property>
  <property name="kdenlive:docproperties.seekOffset">30000</property>
  <property name="kdenlive:docproperties.storagefolder">1649321673333</property>
  <property name="kdenlive:docproperties.version">1.04</property>
  <property name="kdenlive:docproperties.verticalzoom">1</property>
  <property name="kdenlive:docproperties.videoTarget">-1</property>
  <property name="kdenlive:docproperties.zonein">0</property>
  <property name="kdenlive:docproperties.zoneout">75</property>
  <property name="kdenlive:docproperties.zoom">7</property>
  <property name="kdenlive:expandedFolders">38</property>
  <property name="kdenlive:documentnotes"/>
  <property name="xml_retain">1</property>
  <entry producer="producer0" in="00:00:00.000" out="00:01:02.667"/>
  <entry producer="producer1" in="00:00:00.000" out="00:00:10.600"/>
  <entry producer="producer2" in="00:00:00.000" out="00:00:12.033"/>
  <entry producer="producer3" in="00:00:00.000" out="00:00:30.667"/>
  <entry producer="producer5" in="00:00:00.000" out="00:01:03.400"/>
  <entry producer="producer4" in="00:00:00.000" out="00:02:25.267"/>
  <entry producer="producer6" in="00:00:00.000" out="00:00:24.833"/>
  <entry producer="producer7" in="00:00:00.000" out="00:00:25.567"/>
  <entry producer="producer8" in="00:00:00.000" out="00:00:53.000"/>
  <entry producer="producer9" in="00:00:00.000" out="00:00:19.833"/>
  <entry producer="producer10" in="00:00:00.000" out="00:00:14.367"/>
  <entry producer="producer11" in="00:00:00.000" out="00:00:50.200"/>
  <entry producer="producer12" in="00:00:00.000" out="00:00:54.133"/>
  <entry producer="producer13" in="00:00:00.000" out="00:00:53.833"/>
  <entry producer="producer14" in="00:00:00.000" out="00:00:11.433"/>
  <entry producer="producer15" in="00:00:00.000" out="00:01:29.533"/>
  <entry producer="producer16" in="00:00:00.000" out="00:01:59.700"/>
  <entry producer="producer17" in="00:00:00.000" out="00:00:13.367"/>
  <entry producer="producer18" in="00:00:00.000" out="00:00:12.567"/>
  <entry producer="producer19" in="00:00:00.000" out="00:00:34.100"/>
  <entry producer="producer20" in="00:00:00.000" out="00:00:23.233"/>
  <entry producer="producer21" in="00:00:00.000" out="00:01:02.400"/>
  <entry producer="producer32" in="00:00:00.000" out="00:00:04.967"/>
  <entry producer="producer22" in="00:00:00.000" out="00:00:05.000"/>
  <entry producer="producer23" in="00:00:00.000" out="00:00:45.133"/>
  <entry producer="producer31" in="00:00:00.000" out="00:00:04.967"/>
  <entry producer="producer33" in="00:00:00.000" out="00:00:04.967"/>
  <entry producer="producer24" in="00:00:00.000" out="00:00:53.567"/>
  <entry producer="producer25" in="00:00:00.000" out="00:00:23.367"/>
  <entry producer="producer26" in="00:00:00.000" out="00:00:33.600"/>
  <entry producer="producer27" in="00:00:00.000" out="00:00:29.700"/>
  <entry producer="producer28" in="00:00:00.000" out="00:00:40.367"/>
  <entry producer="producer29" in="00:00:00.000" out="00:00:13.600"/>
  <entry producer="producer30" in="00:00:00.000" out="00:00:12.433"/>
  <entry producer="producer34" in="00:00:00.000" out="00:00:11.967"/>
  <entry producer="producer35" in="00:00:00.000" out="00:00:11.033"/>
  <entry producer="producer36" in="00:00:00.000" out="00:00:46.967"/>
  <entry producer="producer37" in="00:00:00.000" out="00:00:46.533"/>
  <entry producer="producer38" in="00:00:00.000" out="00:03:37.400"/>
  <entry producer="producer39" in="00:00:00.000" out="00:00:07.200"/>
  <entry producer="producer40" in="00:00:00.000" out="00:00:07.600"/>
  <entry producer="producer41" in="00:00:00.000" out="00:00:39.300"/>
 </playlist>
 <producer id="black_track" in="00:00:00.000" out="00:22:24.233">
  <property name="length">2147483647</property>
  <property name="eof">continue</property>
  <property name="resource">black</property>
  <property name="aspect_ratio">1</property>
  <property name="mlt_service">color</property>
  <property name="mlt_image_format">rgba</property>
  <property name="set.test_audio">0</property>
 </producer>
 <producer id="producer42" in="00:00:00.000" out="00:03:37.400">
  <property name="length">6523</property>
  <property name="eof">pause</property>
  <property name="resource">/opt/vlog/musica/bensound/bensound-summer.mp3</property>
  <property name="audio_index">0</property>
  <property name="video_index">-1</property>
  <property name="mute_on_pause">0</property>
  <property name="mlt_service">avformat-novalidate</property>
  <property name="meta.media.nb_streams">1</property>
  <property name="meta.media.0.stream.type">audio</property>
  <property name="meta.media.0.codec.sample_fmt">fltp</property>
  <property name="meta.media.0.codec.sample_rate">44100</property>
  <property name="meta.media.0.codec.channels">2</property>
  <property name="meta.media.0.codec.name">mp3float</property>
  <property name="meta.media.0.codec.long_name">MP3 (MPEG audio layer 3)</property>
  <property name="meta.media.0.codec.bit_rate">160000</property>
  <property name="meta.attr.genre.markup">Abstract</property>
  <property name="seekable">1</property>
  <property name="kdenlive:clipname"/>
  <property name="kdenlive:folderid">-1</property>
  <property name="kdenlive:id">43</property>
  <property name="kdenlive:file_size">4349086</property>
  <property name="kdenlive:file_hash">74259650835e9a0a4bb28d7ecab36973</property>
  <property name="kdenlive:audio_max0">250</property>
  <property name="xml">was here</property>
  <property name="set.test_audio">0</property>
  <property name="set.test_image">1</property>
 </producer>
 <playlist id="playlist0">
  <property name="kdenlive:audio_track">1</property>
  <blank length="00:03:01.033"/>
  <entry producer="producer42" in="00:00:54.233" out="00:03:37.400">
   <property name="kdenlive:id">43</property>
   <filter id="filter0">
    <property name="window">75</property>
    <property name="max_gain">20dB</property>
    <property name="level">00:00:54.233=-20</property>
    <property name="mlt_service">volume</property>
    <property name="kdenlive_id">volume</property>
    <property name="kdenlive:collapsed">0</property>
   </filter>
   <filter id="filter1" in="00:00:54.233" out="00:00:54.367">
    <property name="window">75</property>
    <property name="max_gain">20dB</property>
    <property name="mlt_service">volume</property>
    <property name="kdenlive_id">fadein</property>
    <property name="gain">0</property>
    <property name="end">1</property>
    <property name="kdenlive:collapsed">0</property>
   </filter>
   <filter id="filter2" in="00:03:35.233" out="00:03:37.400">
    <property name="window">75</property>
    <property name="max_gain">20dB</property>
    <property name="mlt_service">volume</property>
    <property name="kdenlive_id">fadeout</property>
    <property name="gain">1</property>
    <property name="end">0</property>
    <property name="kdenlive:collapsed">0</property>
   </filter>
  </entry>
 </playlist>
 <playlist id="playlist1">
  <property name="kdenlive:audio_track">1</property>
 </playlist>
 <tractor id="tractor0" in="00:00:00.000" out="00:05:44.200">
  <property name="kdenlive:audio_track">1</property>
  <property name="kdenlive:trackheight">69</property>
  <property name="kdenlive:timeline_active">1</property>
  <property name="kdenlive:collapsed">0</property>
  <property name="kdenlive:thumbs_format"/>
  <property name="kdenlive:audio_rec"/>
  <track hide="video" producer="playlist0"/>
  <track hide="video" producer="playlist1"/>
  <filter id="filter3">
   <property name="window">75</property>
   <property name="max_gain">20dB</property>
   <property name="mlt_service">volume</property>
   <property name="internal_added">237</property>
   <property name="disable">1</property>
  </filter>
  <filter id="filter4">
   <property name="channel">-1</property>
   <property name="mlt_service">panner</property>
   <property name="internal_added">237</property>
   <property name="start">0.5</property>
   <property name="disable">1</property>
  </filter>
  <filter id="filter5">
   <property name="iec_scale">0</property>
   <property name="mlt_service">audiolevel</property>
   <property name="disable">1</property>
  </filter>
 </tractor>
 <producer id="producer43" in="00:00:00.000" out="00:03:37.400">
  <property name="length">6523</property>
  <property name="eof">pause</property>
  <property name="resource">/opt/vlog/musica/bensound/bensound-summer.mp3</property>
  <property name="audio_index">0</property>
  <property name="video_index">-1</property>
  <property name="mute_on_pause">0</property>
  <property name="mlt_service">avformat-novalidate</property>
  <property name="meta.media.nb_streams">1</property>
  <property name="meta.media.0.stream.type">audio</property>
  <property name="meta.media.0.codec.sample_fmt">fltp</property>
  <property name="meta.media.0.codec.sample_rate">44100</property>
  <property name="meta.media.0.codec.channels">2</property>
  <property name="meta.media.0.codec.name">mp3float</property>
  <property name="meta.media.0.codec.long_name">MP3 (MPEG audio layer 3)</property>
  <property name="meta.media.0.codec.bit_rate">160000</property>
  <property name="meta.attr.genre.markup">Abstract</property>
  <property name="seekable">1</property>
  <property name="kdenlive:clipname"/>
  <property name="kdenlive:folderid">38</property>
  <property name="kdenlive:id">43</property>
  <property name="kdenlive:file_size">4349086</property>
  <property name="kdenlive:file_hash">74259650835e9a0a4bb28d7ecab36973</property>
  <property name="kdenlive:audio_max0">250</property>
  <property name="xml">was here</property>
  <property name="set.test_audio">0</property>
  <property name="set.test_image">1</property>
 </producer>
 <playlist id="playlist2">
  <property name="kdenlive:audio_track">1</property>
  <entry producer="producer43" in="00:00:00.000" out="00:03:01.300">
   <property name="kdenlive:id">43</property>
   <filter id="filter6">
    <property name="window">75</property>
    <property name="max_gain">20dB</property>
    <property name="level">00:00:00.000=-20</property>
    <property name="mlt_service">volume</property>
    <property name="kdenlive_id">volume</property>
    <property name="kdenlive:collapsed">0</property>
   </filter>
   <filter id="filter7" in="00:03:00.933" out="00:03:01.300">
    <property name="window">75</property>
    <property name="max_gain">20dB</property>
    <property name="mlt_service">volume</property>
    <property name="kdenlive_id">fadeout</property>
    <property name="gain">1</property>
    <property name="end">0</property>
    <property name="kdenlive:collapsed">0</property>
   </filter>
  </entry>
 </playlist>
 <playlist id="playlist3">
  <property name="kdenlive:audio_track">1</property>
 </playlist>
 <tractor id="tractor1" in="00:00:00.000" out="00:03:01.300">
  <property name="kdenlive:audio_track">1</property>
  <property name="kdenlive:trackheight">69</property>
  <property name="kdenlive:timeline_active">1</property>
  <property name="kdenlive:collapsed">0</property>
  <property name="kdenlive:thumbs_format"/>
  <property name="kdenlive:audio_rec"/>
  <track hide="video" producer="playlist2"/>
  <track hide="video" producer="playlist3"/>
  <filter id="filter8">
   <property name="window">75</property>
   <property name="max_gain">20dB</property>
   <property name="mlt_service">volume</property>
   <property name="internal_added">237</property>
   <property name="disable">1</property>
  </filter>
  <filter id="filter9">
   <property name="channel">-1</property>
   <property name="mlt_service">panner</property>
   <property name="internal_added">237</property>
   <property name="start">0.5</property>
   <property name="disable">1</property>
  </filter>
  <filter id="filter10">
   <property name="iec_scale">0</property>
   <property name="mlt_service">audiolevel</property>
   <property name="disable">1</property>
  </filter>
 </tractor>
 <producer id="producer44" in="00:00:00.000" out="00:00:12.567">
  <property name="length">378</property>
  <property name="eof">pause</property>
  <property name="resource">videos/PXL_20220330_092751722.TS.mp4</property>
  <property name="audio_index">1</property>
  <property name="video_index">2</property>
  <property name="mute_on_pause">0</property>
  <property name="mlt_service">avformat-novalidate</property>
  <property name="seekable">1</property>
  <property name="aspect_ratio">1</property>
  <property name="kdenlive:clipname"/>
  <property name="kdenlive:folderid">2</property>
  <property name="kdenlive:id">21</property>
  <property name="kdenlive:file_size">31145423</property>
  <property name="kdenlive:file_hash">196a0d6e64cdab1c993bfaf33700c1b4</property>
  <property name="kdenlive:audio_max1">214</property>
  <property name="xml">was here</property>
  <property name="meta.media.nb_streams">4</property>
  <property name="meta.media.1.stream.type">audio</property>
  <property name="meta.media.1.codec.sample_fmt">fltp</property>
  <property name="meta.media.1.codec.sample_rate">48000</property>
  <property name="meta.media.1.codec.channels">2</property>
  <property name="meta.media.1.codec.name">aac</property>
  <property name="meta.media.1.codec.long_name">AAC (Advanced Audio Coding)</property>
  <property name="meta.media.1.codec.bit_rate">192117</property>
  <property name="meta.attr.1.stream.creation_time.markup">2022-03-30T09:28:05.000000Z</property>
  <property name="meta.attr.1.stream.language.markup">eng</property>
  <property name="meta.attr.1.stream.handler_name.markup">SoundHandle</property>
  <property name="meta.media.2.stream.type">video</property>
  <property name="meta.media.2.stream.frame_rate">30.0146</property>
  <property name="meta.media.2.stream.sample_aspect_ratio">1</property>
  <property name="meta.media.2.codec.width">1920</property>
  <property name="meta.media.2.codec.height">1080</property>
  <property name="meta.media.2.codec.rotate">0</property>
  <property name="meta.media.2.codec.pix_fmt">yuvj420p</property>
  <property name="meta.media.2.codec.sample_aspect_ratio">0</property>
  <property name="meta.media.2.codec.colorspace">709</property>
  <property name="meta.media.2.codec.color_trc">1</property>
  <property name="meta.media.2.codec.name">hevc</property>
  <property name="meta.media.2.codec.long_name">HEVC (High Efficiency Video Coding)</property>
  <property name="meta.media.2.codec.bit_rate">19560055</property>
  <property name="meta.attr.2.stream.creation_time.markup">2022-03-30T09:28:05.000000Z</property>
  <property name="meta.attr.2.stream.language.markup">eng</property>
  <property name="meta.attr.2.stream.handler_name.markup">VideoHandle</property>
  <property name="meta.attr.major_brand.markup">isom</property>
  <property name="meta.attr.minor_version.markup">131072</property>
  <property name="meta.attr.compatible_brands.markup">isomiso2mp41</property>
  <property name="meta.attr.creation_time.markup">2022-03-30T09:28:05.000000Z</property>
  <property name="meta.attr.location.markup">+52.7185+4.6581/</property>
  <property name="meta.attr.location-eng.markup">+52.7185+4.6581/</property>
  <property name="meta.attr.com.android.capture.fps.markup">30.000000</property>
  <property name="meta.media.sample_aspect_num">1</property>
  <property name="meta.media.sample_aspect_den">1</property>
  <property name="meta.media.frame_rate_num">680400</property>
  <property name="meta.media.frame_rate_den">22669</property>
  <property name="meta.media.colorspace">709</property>
  <property name="meta.media.color_trc">1</property>
  <property name="meta.media.has_b_frames">0</property>
  <property name="meta.media.width">1920</property>
  <property name="meta.media.height">1080</property>
  <property name="meta.media.color_range">full</property>
  <property name="set.test_audio">0</property>
  <property name="set.test_image">1</property>
  <property name="meta.media.variable_frame_rate">1</property>
 </producer>
 <playlist id="playlist4">
  <property name="kdenlive:audio_track">1</property>
  <blank length="00:05:06.333"/>
  <entry producer="producer44" in="00:00:00.067" out="00:00:12.567">
   <property name="kdenlive:id">21</property>
  </entry>
 </playlist>
 <playlist id="playlist5">
  <property name="kdenlive:audio_track">1</property>
 </playlist>
 <tractor id="tractor2" in="00:00:00.000" out="00:05:18.833">
  <property name="kdenlive:audio_track">1</property>
  <property name="kdenlive:trackheight">69</property>
  <property name="kdenlive:timeline_active">1</property>
  <property name="kdenlive:collapsed">0</property>
  <property name="kdenlive:thumbs_format"/>
  <property name="kdenlive:audio_rec"/>
  <track hide="video" producer="playlist4"/>
  <track hide="video" producer="playlist5"/>
  <filter id="filter11">
   <property name="window">75</property>
   <property name="max_gain">20dB</property>
   <property name="mlt_service">volume</property>
   <property name="internal_added">237</property>
   <property name="disable">1</property>
  </filter>
  <filter id="filter12">
   <property name="channel">-1</property>
   <property name="mlt_service">panner</property>
   <property name="internal_added">237</property>
   <property name="start">0.5</property>
   <property name="disable">1</property>
  </filter>
  <filter id="filter13">
   <property name="iec_scale">0</property>
   <property name="mlt_service">audiolevel</property>
   <property name="disable">1</property>
  </filter>
 </tractor>
 <producer id="producer45" in="00:00:00.000" out="00:01:02.667">
  <property name="length">1881</property>
  <property name="eof">pause</property>
  <property name="resource">videos/PXL_20220330_090506422.TS.mp4</property>
  <property name="audio_index">1</property>
  <property name="video_index">2</property>
  <property name="mute_on_pause">0</property>
  <property name="mlt_service">avformat-novalidate</property>
  <property name="seekable">1</property>
  <property name="aspect_ratio">1</property>
  <property name="kdenlive:clipname"/>
  <property name="kdenlive:folderid">2</property>
  <property name="kdenlive:id">3</property>
  <property name="kdenlive:file_size">155548311</property>
  <property name="kdenlive:file_hash">6696e3d75c72ea844163777db7ddcf10</property>
  <property name="kdenlive:audio_max1">224</property>
  <property name="xml">was here</property>
  <property name="meta.media.nb_streams">4</property>
  <property name="meta.media.1.stream.type">audio</property>
  <property name="meta.media.1.codec.sample_fmt">fltp</property>
  <property name="meta.media.1.codec.sample_rate">48000</property>
  <property name="meta.media.1.codec.channels">2</property>
  <property name="meta.media.1.codec.name">aac</property>
  <property name="meta.media.1.codec.long_name">AAC (Advanced Audio Coding)</property>
  <property name="meta.media.1.codec.bit_rate">191919</property>
  <property name="meta.attr.1.stream.creation_time.markup">2022-03-30T09:06:15.000000Z</property>
  <property name="meta.attr.1.stream.language.markup">eng</property>
  <property name="meta.attr.1.stream.handler_name.markup">SoundHandle</property>
  <property name="meta.media.2.stream.type">video</property>
  <property name="meta.media.2.stream.frame_rate">30.013</property>
  <property name="meta.media.2.stream.sample_aspect_ratio">1</property>
  <property name="meta.media.2.codec.width">1920</property>
  <property name="meta.media.2.codec.height">1080</property>
  <property name="meta.media.2.codec.rotate">0</property>
  <property name="meta.media.2.codec.pix_fmt">yuvj420p</property>
  <property name="meta.media.2.codec.sample_aspect_ratio">0</property>
  <property name="meta.media.2.codec.colorspace">709</property>
  <property name="meta.media.2.codec.color_trc">1</property>
  <property name="meta.media.2.codec.name">hevc</property>
  <property name="meta.media.2.codec.long_name">HEVC (High Efficiency Video Coding)</property>
  <property name="meta.media.2.codec.bit_rate">19621546</property>
  <property name="meta.attr.2.stream.creation_time.markup">2022-03-30T09:06:15.000000Z</property>
  <property name="meta.attr.2.stream.language.markup">eng</property>
  <property name="meta.attr.2.stream.handler_name.markup">VideoHandle</property>
  <property name="meta.attr.major_brand.markup">isom</property>
  <property name="meta.attr.minor_version.markup">131072</property>
  <property name="meta.attr.compatible_brands.markup">isomiso2mp41</property>
  <property name="meta.attr.creation_time.markup">2022-03-30T09:06:15.000000Z</property>
  <property name="meta.attr.location.markup">+52.7185+4.6578/</property>
  <property name="meta.attr.location-eng.markup">+52.7185+4.6578/</property>
  <property name="meta.attr.com.android.capture.fps.markup">30.000000</property>
  <property name="meta.media.sample_aspect_num">1</property>
  <property name="meta.media.sample_aspect_den">1</property>
  <property name="meta.media.frame_rate_num">84690000</property>
  <property name="meta.media.frame_rate_den">2821777</property>
  <property name="meta.media.colorspace">709</property>
  <property name="meta.media.color_trc">1</property>
  <property name="meta.media.has_b_frames">0</property>
  <property name="meta.media.width">1920</property>
  <property name="meta.media.height">1080</property>
  <property name="meta.media.color_range">full</property>
  <property name="meta.media.variable_frame_rate">1</property>
  <property name="meta.media.top_field_first">0</property>
  <property name="meta.media.progressive">1</property>
  <property name="set.test_audio">0</property>
  <property name="set.test_image">1</property>
 </producer>
 <producer id="producer46" in="00:00:00.000" out="00:00:30.667">
  <property name="length">921</property>
  <property name="eof">pause</property>
  <property name="resource">videos/PXL_20220330_090719070.TS.mp4</property>
  <property name="audio_index">1</property>
  <property name="video_index">2</property>
  <property name="mute_on_pause">0</property>
  <property name="mlt_service">avformat-novalidate</property>
  <property name="seekable">1</property>
  <property name="aspect_ratio">1</property>
  <property name="kdenlive:clipname"/>
  <property name="kdenlive:folderid">2</property>
  <property name="kdenlive:file_size">76220773</property>
  <property name="kdenlive:id">6</property>
  <property name="kdenlive:file_hash">56a1c02312f771231019b02a32caa5da</property>
  <property name="kdenlive:audio_max1">208</property>
  <property name="xml">was here</property>
  <property name="meta.media.nb_streams">4</property>
  <property name="meta.media.1.stream.type">audio</property>
  <property name="meta.media.1.codec.sample_fmt">fltp</property>
  <property name="meta.media.1.codec.sample_rate">48000</property>
  <property name="meta.media.1.codec.channels">2</property>
  <property name="meta.media.1.codec.name">aac</property>
  <property name="meta.media.1.codec.long_name">AAC (Advanced Audio Coding)</property>
  <property name="meta.media.1.codec.bit_rate">191839</property>
  <property name="meta.attr.1.stream.creation_time.markup">2022-03-30T09:07:51.000000Z</property>
  <property name="meta.attr.1.stream.language.markup">eng</property>
  <property name="meta.attr.1.stream.handler_name.markup">SoundHandle</property>
  <property name="meta.media.2.stream.type">video</property>
  <property name="meta.media.2.stream.frame_rate">29.9973</property>
  <property name="meta.media.2.stream.sample_aspect_ratio">1</property>
  <property name="meta.media.2.codec.width">1920</property>
  <property name="meta.media.2.codec.height">1080</property>
  <property name="meta.media.2.codec.rotate">0</property>
  <property name="meta.media.2.codec.pix_fmt">yuvj420p</property>
  <property name="meta.media.2.codec.sample_aspect_ratio">0</property>
  <property name="meta.media.2.codec.colorspace">709</property>
  <property name="meta.media.2.codec.color_trc">1</property>
  <property name="meta.media.2.codec.name">hevc</property>
  <property name="meta.media.2.codec.long_name">HEVC (High Efficiency Video Coding)</property>
  <property name="meta.media.2.codec.bit_rate">19620620</property>
  <property name="meta.attr.2.stream.creation_time.markup">2022-03-30T09:07:51.000000Z</property>
  <property name="meta.attr.2.stream.language.markup">eng</property>
  <property name="meta.attr.2.stream.handler_name.markup">VideoHandle</property>
  <property name="meta.attr.major_brand.markup">isom</property>
  <property name="meta.attr.minor_version.markup">131072</property>
  <property name="meta.attr.compatible_brands.markup">isomiso2mp41</property>
  <property name="meta.attr.creation_time.markup">2022-03-30T09:07:51.000000Z</property>
  <property name="meta.attr.location.markup">+52.7181+4.6581/</property>
  <property name="meta.attr.location-eng.markup">+52.7181+4.6581/</property>
  <property name="meta.attr.com.android.capture.fps.markup">30.000000</property>
  <property name="meta.media.sample_aspect_num">1</property>
  <property name="meta.media.sample_aspect_den">1</property>
  <property name="meta.media.frame_rate_num">2302500</property>
  <property name="meta.media.frame_rate_den">76757</property>
  <property name="meta.media.colorspace">709</property>
  <property name="meta.media.color_trc">1</property>
  <property name="meta.media.has_b_frames">0</property>
  <property name="meta.media.width">1920</property>
  <property name="meta.media.height">1080</property>
  <property name="meta.media.color_range">full</property>
  <property name="set.test_audio">0</property>
  <property name="set.test_image">1</property>
  <property name="meta.media.variable_frame_rate">1</property>
 </producer>
 <producer id="producer47" in="00:00:00.000" out="00:01:03.400">
  <property name="length">1903</property>
  <property name="eof">pause</property>
  <property name="resource">videos/PXL_20220330_090801425.TS.mp4</property>
  <property name="audio_index">1</property>
  <property name="video_index">2</property>
  <property name="mute_on_pause">0</property>
  <property name="mlt_service">avformat-novalidate</property>
  <property name="seekable">1</property>
  <property name="aspect_ratio">1</property>
  <property name="kdenlive:clipname"/>
  <property name="kdenlive:folderid">2</property>
  <property name="kdenlive:id">7</property>
  <property name="kdenlive:file_size">157512481</property>
  <property name="kdenlive:file_hash">3042f6620848219663cde2132fcbb733</property>
  <property name="kdenlive:audio_max1">203</property>
  <property name="xml">was here</property>
  <property name="meta.media.nb_streams">4</property>
  <property name="meta.media.1.stream.type">audio</property>
  <property name="meta.media.1.codec.sample_fmt">fltp</property>
  <property name="meta.media.1.codec.sample_rate">48000</property>
  <property name="meta.media.1.codec.channels">2</property>
  <property name="meta.media.1.codec.name">aac</property>
  <property name="meta.media.1.codec.long_name">AAC (Advanced Audio Coding)</property>
  <property name="meta.media.1.codec.bit_rate">191932</property>
  <property name="meta.attr.1.stream.creation_time.markup">2022-03-30T09:09:06.000000Z</property>
  <property name="meta.attr.1.stream.language.markup">eng</property>
  <property name="meta.attr.1.stream.handler_name.markup">SoundHandle</property>
  <property name="meta.media.2.stream.type">video</property>
  <property name="meta.media.2.stream.frame_rate">29.9971</property>
  <property name="meta.media.2.stream.sample_aspect_ratio">1</property>
  <property name="meta.media.2.codec.width">1920</property>
  <property name="meta.media.2.codec.height">1080</property>
  <property name="meta.media.2.codec.rotate">0</property>
  <property name="meta.media.2.codec.pix_fmt">yuvj420p</property>
  <property name="meta.media.2.codec.sample_aspect_ratio">0</property>
  <property name="meta.media.2.codec.colorspace">709</property>
  <property name="meta.media.2.codec.color_trc">1</property>
  <property name="meta.media.2.codec.name">hevc</property>
  <property name="meta.media.2.codec.long_name">HEVC (High Efficiency Video Coding)</property>
  <property name="meta.media.2.codec.bit_rate">19623544</property>
  <property name="meta.attr.2.stream.creation_time.markup">2022-03-30T09:09:06.000000Z</property>
  <property name="meta.attr.2.stream.language.markup">eng</property>
  <property name="meta.attr.2.stream.handler_name.markup">VideoHandle</property>
  <property name="meta.attr.major_brand.markup">isom</property>
  <property name="meta.attr.minor_version.markup">131072</property>
  <property name="meta.attr.compatible_brands.markup">isomiso2mp41</property>
  <property name="meta.attr.creation_time.markup">2022-03-30T09:09:06.000000Z</property>
  <property name="meta.attr.location.markup">+52.7181+4.6581/</property>
  <property name="meta.attr.location-eng.markup">+52.7181+4.6581/</property>
  <property name="meta.attr.com.android.capture.fps.markup">30.000000</property>
  <property name="meta.media.sample_aspect_num">1</property>
  <property name="meta.media.sample_aspect_den">1</property>
  <property name="meta.media.frame_rate_num">171270000</property>
  <property name="meta.media.frame_rate_den">5709553</property>
  <property name="meta.media.colorspace">709</property>
  <property name="meta.media.color_trc">1</property>
  <property name="meta.media.has_b_frames">0</property>
  <property name="meta.media.width">1920</property>
  <property name="meta.media.height">1080</property>
  <property name="meta.media.color_range">full</property>
  <property name="set.test_audio">0</property>
  <property name="set.test_image">1</property>
  <property name="meta.media.variable_frame_rate">1</property>
 </producer>
 <producer id="producer48" in="00:00:00.000" out="00:02:25.267">
  <property name="length">4359</property>
  <property name="eof">pause</property>
  <property name="resource">videos/PXL_20220330_091005061.TS.mp4</property>
  <property name="audio_index">1</property>
  <property name="video_index">2</property>
  <property name="mute_on_pause">0</property>
  <property name="mlt_service">avformat-novalidate</property>
  <property name="seekable">1</property>
  <property name="aspect_ratio">1</property>
  <property name="kdenlive:clipname"/>
  <property name="kdenlive:folderid">2</property>
  <property name="kdenlive:id">8</property>
  <property name="kdenlive:file_size">359727619</property>
  <property name="kdenlive:file_hash">19d3f558e48b734b4aa5e1b47cd00ba7</property>
  <property name="kdenlive:audio_max1">213</property>
  <property name="xml">was here</property>
  <property name="meta.media.nb_streams">4</property>
  <property name="meta.media.1.stream.type">audio</property>
  <property name="meta.media.1.codec.sample_fmt">fltp</property>
  <property name="meta.media.1.codec.sample_rate">48000</property>
  <property name="meta.media.1.codec.channels">2</property>
  <property name="meta.media.1.codec.name">aac</property>
  <property name="meta.media.1.codec.long_name">AAC (Advanced Audio Coding)</property>
  <property name="meta.media.1.codec.bit_rate">191995</property>
  <property name="meta.attr.1.stream.creation_time.markup">2022-03-30T09:12:32.000000Z</property>
  <property name="meta.attr.1.stream.language.markup">eng</property>
  <property name="meta.attr.1.stream.handler_name.markup">SoundHandle</property>
  <property name="meta.media.2.stream.type">video</property>
  <property name="meta.media.2.stream.frame_rate">29.9971</property>
  <property name="meta.media.2.stream.sample_aspect_ratio">1</property>
  <property name="meta.media.2.codec.width">1920</property>
  <property name="meta.media.2.codec.height">1080</property>
  <property name="meta.media.2.codec.rotate">0</property>
  <property name="meta.media.2.codec.pix_fmt">yuvj420p</property>
  <property name="meta.media.2.codec.sample_aspect_ratio">0</property>
  <property name="meta.media.2.codec.colorspace">709</property>
  <property name="meta.media.2.codec.color_trc">1</property>
  <property name="meta.media.2.codec.name">hevc</property>
  <property name="meta.media.2.codec.long_name">HEVC (High Efficiency Video Coding)</property>
  <property name="meta.media.2.codec.bit_rate">19564778</property>
  <property name="meta.attr.2.stream.creation_time.markup">2022-03-30T09:12:32.000000Z</property>
  <property name="meta.attr.2.stream.language.markup">eng</property>
  <property name="meta.attr.2.stream.handler_name.markup">VideoHandle</property>
  <property name="meta.attr.major_brand.markup">isom</property>
  <property name="meta.attr.minor_version.markup">131072</property>
  <property name="meta.attr.compatible_brands.markup">isomiso2mp41</property>
  <property name="meta.attr.creation_time.markup">2022-03-30T09:12:32.000000Z</property>
  <property name="meta.attr.location.markup">+52.7186+4.6579/</property>
  <property name="meta.attr.location-eng.markup">+52.7186+4.6579/</property>
  <property name="meta.attr.com.android.capture.fps.markup">30.000000</property>
  <property name="meta.media.sample_aspect_num">1</property>
  <property name="meta.media.sample_aspect_den">1</property>
  <property name="meta.media.frame_rate_num">8173125</property>
  <property name="meta.media.frame_rate_den">272464</property>
  <property name="meta.media.colorspace">709</property>
  <property name="meta.media.color_trc">1</property>
  <property name="meta.media.has_b_frames">0</property>
  <property name="meta.media.width">1920</property>
  <property name="meta.media.height">1080</property>
  <property name="meta.media.color_range">full</property>
  <property name="set.test_audio">0</property>
  <property name="set.test_image">1</property>
  <property name="meta.media.variable_frame_rate">1</property>
 </producer>
 <producer id="producer49" in="00:00:00.000" out="00:00:24.833">
  <property name="length">746</property>
  <property name="eof">pause</property>
  <property name="resource">videos/PXL_20220330_091355697.TS.mp4</property>
  <property name="audio_index">1</property>
  <property name="video_index">2</property>
  <property name="mute_on_pause">0</property>
  <property name="mlt_service">avformat-novalidate</property>
  <property name="seekable">1</property>
  <property name="aspect_ratio">1</property>
  <property name="kdenlive:clipname"/>
  <property name="kdenlive:folderid">2</property>
  <property name="kdenlive:id">9</property>
  <property name="kdenlive:file_size">61905963</property>
  <property name="kdenlive:file_hash">3155feb02096d406b0d74f4064ad0436</property>
  <property name="kdenlive:audio_max1">204</property>
  <property name="xml">was here</property>
  <property name="meta.media.nb_streams">4</property>
  <property name="meta.media.1.stream.type">audio</property>
  <property name="meta.media.1.codec.sample_fmt">fltp</property>
  <property name="meta.media.1.codec.sample_rate">48000</property>
  <property name="meta.media.1.codec.channels">2</property>
  <property name="meta.media.1.codec.name">aac</property>
  <property name="meta.media.1.codec.long_name">AAC (Advanced Audio Coding)</property>
  <property name="meta.media.1.codec.bit_rate">191836</property>
  <property name="meta.attr.1.stream.creation_time.markup">2022-03-30T09:14:21.000000Z</property>
  <property name="meta.attr.1.stream.language.markup">eng</property>
  <property name="meta.attr.1.stream.handler_name.markup">SoundHandle</property>
  <property name="meta.media.2.stream.type">video</property>
  <property name="meta.media.2.stream.frame_rate">29.9752</property>
  <property name="meta.media.2.stream.sample_aspect_ratio">1</property>
  <property name="meta.media.2.codec.width">1920</property>
  <property name="meta.media.2.codec.height">1080</property>
  <property name="meta.media.2.codec.rotate">0</property>
  <property name="meta.media.2.codec.pix_fmt">yuvj420p</property>
  <property name="meta.media.2.codec.sample_aspect_ratio">0</property>
  <property name="meta.media.2.codec.colorspace">709</property>
  <property name="meta.media.2.codec.color_trc">1</property>
  <property name="meta.media.2.codec.name">hevc</property>
  <property name="meta.media.2.codec.long_name">HEVC (High Efficiency Video Coding)</property>
  <property name="meta.media.2.codec.bit_rate">19694781</property>
  <property name="meta.attr.2.stream.creation_time.markup">2022-03-30T09:14:21.000000Z</property>
  <property name="meta.attr.2.stream.language.markup">eng</property>
  <property name="meta.attr.2.stream.handler_name.markup">VideoHandle</property>
  <property name="meta.attr.major_brand.markup">isom</property>
  <property name="meta.attr.minor_version.markup">131072</property>
  <property name="meta.attr.compatible_brands.markup">isomiso2mp41</property>
  <property name="meta.attr.creation_time.markup">2022-03-30T09:14:21.000000Z</property>
  <property name="meta.attr.location.markup">+52.7185+4.6583/</property>
  <property name="meta.attr.location-eng.markup">+52.7185+4.6583/</property>
  <property name="meta.attr.com.android.capture.fps.markup">30.000000</property>
  <property name="meta.media.sample_aspect_num">1</property>
  <property name="meta.media.sample_aspect_den">1</property>
  <property name="meta.media.frame_rate_num">67050000</property>
  <property name="meta.media.frame_rate_den">2236849</property>
  <property name="meta.media.colorspace">709</property>
  <property name="meta.media.color_trc">1</property>
  <property name="meta.media.has_b_frames">0</property>
  <property name="meta.media.width">1920</property>
  <property name="meta.media.height">1080</property>
  <property name="meta.media.color_range">full</property>
  <property name="set.test_audio">0</property>
  <property name="set.test_image">1</property>
  <property name="meta.media.variable_frame_rate">1</property>
 </producer>
 <producer id="producer50" in="00:00:00.000" out="00:00:53.000">
  <property name="length">1591</property>
  <property name="eof">pause</property>
  <property name="resource">videos/PXL_20220330_091548488.TS.mp4</property>
  <property name="audio_index">1</property>
  <property name="video_index">2</property>
  <property name="mute_on_pause">0</property>
  <property name="mlt_service">avformat-novalidate</property>
  <property name="seekable">1</property>
  <property name="aspect_ratio">1</property>
  <property name="kdenlive:clipname"/>
  <property name="kdenlive:folderid">2</property>
  <property name="kdenlive:id">11</property>
  <property name="kdenlive:file_size">132004145</property>
  <property name="kdenlive:file_hash">7b09b69968c81fcc0691d3292d56d1b6</property>
  <property name="kdenlive:audio_max1">208</property>
  <property name="xml">was here</property>
  <property name="meta.media.nb_streams">4</property>
  <property name="meta.media.1.stream.type">audio</property>
  <property name="meta.media.1.codec.sample_fmt">fltp</property>
  <property name="meta.media.1.codec.sample_rate">48000</property>
  <property name="meta.media.1.codec.channels">2</property>
  <property name="meta.media.1.codec.name">aac</property>
  <property name="meta.media.1.codec.long_name">AAC (Advanced Audio Coding)</property>
  <property name="meta.media.1.codec.bit_rate">191943</property>
  <property name="meta.attr.1.stream.creation_time.markup">2022-03-30T09:16:43.000000Z</property>
  <property name="meta.attr.1.stream.language.markup">eng</property>
  <property name="meta.attr.1.stream.handler_name.markup">SoundHandle</property>
  <property name="meta.media.2.stream.type">video</property>
  <property name="meta.media.2.stream.frame_rate">29.9972</property>
  <property name="meta.media.2.stream.sample_aspect_ratio">1</property>
  <property name="meta.media.2.codec.width">1920</property>
  <property name="meta.media.2.codec.height">1080</property>
  <property name="meta.media.2.codec.rotate">0</property>
  <property name="meta.media.2.codec.pix_fmt">yuvj420p</property>
  <property name="meta.media.2.codec.sample_aspect_ratio">0</property>
  <property name="meta.media.2.codec.colorspace">709</property>
  <property name="meta.media.2.codec.color_trc">1</property>
  <property name="meta.media.2.codec.name">hevc</property>
  <property name="meta.media.2.codec.long_name">HEVC (High Efficiency Video Coding)</property>
  <property name="meta.media.2.codec.bit_rate">19665114</property>
  <property name="meta.attr.2.stream.creation_time.markup">2022-03-30T09:16:43.000000Z</property>
  <property name="meta.attr.2.stream.language.markup">eng</property>
  <property name="meta.attr.2.stream.handler_name.markup">VideoHandle</property>
  <property name="meta.attr.major_brand.markup">isom</property>
  <property name="meta.attr.minor_version.markup">131072</property>
  <property name="meta.attr.compatible_brands.markup">isomiso2mp41</property>
  <property name="meta.attr.creation_time.markup">2022-03-30T09:16:43.000000Z</property>
  <property name="meta.attr.location.markup">+52.7185+4.6583/</property>
  <property name="meta.attr.location-eng.markup">+52.7185+4.6583/</property>
  <property name="meta.attr.com.android.capture.fps.markup">30.000000</property>
  <property name="meta.media.sample_aspect_num">1</property>
  <property name="meta.media.sample_aspect_den">1</property>
  <property name="meta.media.frame_rate_num">28638000</property>
  <property name="meta.media.frame_rate_den">954689</property>
  <property name="meta.media.colorspace">709</property>
  <property name="meta.media.color_trc">1</property>
  <property name="meta.media.has_b_frames">0</property>
  <property name="meta.media.width">1920</property>
  <property name="meta.media.height">1080</property>
  <property name="meta.media.color_range">full</property>
  <property name="set.test_audio">0</property>
  <property name="set.test_image">1</property>
  <property name="meta.media.variable_frame_rate">1</property>
 </producer>
 <producer id="producer51" in="00:00:00.000" out="00:00:19.833">
  <property name="length">596</property>
  <property name="eof">pause</property>
  <property name="resource">videos/PXL_20220330_091706441.TS.mp4</property>
  <property name="audio_index">0</property>
  <property name="video_index">2</property>
  <property name="mute_on_pause">0</property>
  <property name="mlt_service">avformat-novalidate</property>
  <property name="seekable">1</property>
  <property name="aspect_ratio">1</property>
  <property name="kdenlive:clipname"/>
  <property name="kdenlive:folderid">2</property>
  <property name="kdenlive:id">12</property>
  <property name="kdenlive:file_size">49456143</property>
  <property name="kdenlive:file_hash">4387ab30c14abc8347ee73c8516b52fe</property>
  <property name="kdenlive:audio_max0">210</property>
  <property name="xml">was here</property>
  <property name="meta.media.nb_streams">4</property>
  <property name="meta.media.0.stream.type">audio</property>
  <property name="meta.media.0.codec.sample_fmt">fltp</property>
  <property name="meta.media.0.codec.sample_rate">48000</property>
  <property name="meta.media.0.codec.channels">2</property>
  <property name="meta.media.0.codec.name">aac</property>
  <property name="meta.media.0.codec.long_name">AAC (Advanced Audio Coding)</property>
  <property name="meta.media.0.codec.bit_rate">191799</property>
  <property name="meta.attr.0.stream.creation_time.markup">2022-03-30T09:17:30.000000Z</property>
  <property name="meta.attr.0.stream.language.markup">eng</property>
  <property name="meta.attr.0.stream.handler_name.markup">SoundHandle</property>
  <property name="meta.media.2.stream.type">video</property>
  <property name="meta.media.2.stream.frame_rate">29.9976</property>
  <property name="meta.media.2.stream.sample_aspect_ratio">1</property>
  <property name="meta.media.2.codec.width">1920</property>
  <property name="meta.media.2.codec.height">1080</property>
  <property name="meta.media.2.codec.rotate">0</property>
  <property name="meta.media.2.codec.pix_fmt">yuvj420p</property>
  <property name="meta.media.2.codec.sample_aspect_ratio">0</property>
  <property name="meta.media.2.codec.colorspace">709</property>
  <property name="meta.media.2.codec.color_trc">1</property>
  <property name="meta.media.2.codec.name">hevc</property>
  <property name="meta.media.2.codec.long_name">HEVC (High Efficiency Video Coding)</property>
  <property name="meta.media.2.codec.bit_rate">19673697</property>
  <property name="meta.attr.2.stream.creation_time.markup">2022-03-30T09:17:30.000000Z</property>
  <property name="meta.attr.2.stream.language.markup">eng</property>
  <property name="meta.attr.2.stream.handler_name.markup">VideoHandle</property>
  <property name="meta.attr.major_brand.markup">isom</property>
  <property name="meta.attr.minor_version.markup">131072</property>
  <property name="meta.attr.compatible_brands.markup">isomiso2mp41</property>
  <property name="meta.attr.creation_time.markup">2022-03-30T09:17:30.000000Z</property>
  <property name="meta.attr.location.markup">+52.7415+4.6575/</property>
  <property name="meta.attr.location-eng.markup">+52.7415+4.6575/</property>
  <property name="meta.attr.com.android.capture.fps.markup">30.000000</property>
  <property name="meta.media.sample_aspect_num">1</property>
  <property name="meta.media.sample_aspect_den">1</property>
  <property name="meta.media.frame_rate_num">17880000</property>
  <property name="meta.media.frame_rate_den">596047</property>
  <property name="meta.media.colorspace">709</property>
  <property name="meta.media.color_trc">1</property>
  <property name="meta.media.has_b_frames">0</property>
  <property name="meta.media.width">1920</property>
  <property name="meta.media.height">1080</property>
  <property name="meta.media.color_range">full</property>
  <property name="set.test_audio">0</property>
  <property name="set.test_image">1</property>
  <property name="meta.media.variable_frame_rate">1</property>
 </producer>
 <producer id="producer52" in="00:00:00.000" out="00:00:23.233">
  <property name="length">698</property>
  <property name="eof">pause</property>
  <property name="resource">videos/PXL_20220330_092912682.TS.mp4</property>
  <property name="audio_index">1</property>
  <property name="video_index">2</property>
  <property name="mute_on_pause">0</property>
  <property name="mlt_service">avformat-novalidate</property>
  <property name="seekable">1</property>
  <property name="aspect_ratio">1</property>
  <property name="kdenlive:clipname"/>
  <property name="kdenlive:folderid">2</property>
  <property name="kdenlive:id">23</property>
  <property name="kdenlive:file_size">57927386</property>
  <property name="kdenlive:file_hash">020daccf26b2b0c16b004044ed978b8e</property>
  <property name="kdenlive:audio_max1">205</property>
  <property name="xml">was here</property>
  <property name="meta.media.nb_streams">4</property>
  <property name="meta.media.1.stream.type">audio</property>
  <property name="meta.media.1.codec.sample_fmt">fltp</property>
  <property name="meta.media.1.codec.sample_rate">48000</property>
  <property name="meta.media.1.codec.channels">2</property>
  <property name="meta.media.1.codec.name">aac</property>
  <property name="meta.media.1.codec.long_name">AAC (Advanced Audio Coding)</property>
  <property name="meta.media.1.codec.bit_rate">191943</property>
  <property name="meta.attr.1.stream.creation_time.markup">2022-03-30T09:29:37.000000Z</property>
  <property name="meta.attr.1.stream.language.markup">eng</property>
  <property name="meta.attr.1.stream.handler_name.markup">SoundHandle</property>
  <property name="meta.media.2.stream.type">video</property>
  <property name="meta.media.2.stream.frame_rate">29.9971</property>
  <property name="meta.media.2.stream.sample_aspect_ratio">1</property>
  <property name="meta.media.2.codec.width">1920</property>
  <property name="meta.media.2.codec.height">1080</property>
  <property name="meta.media.2.codec.rotate">0</property>
  <property name="meta.media.2.codec.pix_fmt">yuvj420p</property>
  <property name="meta.media.2.codec.sample_aspect_ratio">0</property>
  <property name="meta.media.2.codec.colorspace">709</property>
  <property name="meta.media.2.codec.color_trc">1</property>
  <property name="meta.media.2.codec.name">hevc</property>
  <property name="meta.media.2.codec.long_name">HEVC (High Efficiency Video Coding)</property>
  <property name="meta.media.2.codec.bit_rate">19676085</property>
  <property name="meta.attr.2.stream.creation_time.markup">2022-03-30T09:29:37.000000Z</property>
  <property name="meta.attr.2.stream.language.markup">eng</property>
  <property name="meta.attr.2.stream.handler_name.markup">VideoHandle</property>
  <property name="meta.attr.major_brand.markup">isom</property>
  <property name="meta.attr.minor_version.markup">131072</property>
  <property name="meta.attr.compatible_brands.markup">isomiso2mp41</property>
  <property name="meta.attr.creation_time.markup">2022-03-30T09:29:37.000000Z</property>
  <property name="meta.attr.location.markup">+52.7185+4.6581/</property>
  <property name="meta.attr.location-eng.markup">+52.7185+4.6581/</property>
  <property name="meta.attr.com.android.capture.fps.markup">30.000000</property>
  <property name="meta.media.sample_aspect_num">1</property>
  <property name="meta.media.sample_aspect_den">1</property>
  <property name="meta.media.frame_rate_num">5235000</property>
  <property name="meta.media.frame_rate_den">174517</property>
  <property name="meta.media.colorspace">709</property>
  <property name="meta.media.color_trc">1</property>
  <property name="meta.media.has_b_frames">0</property>
  <property name="meta.media.width">1920</property>
  <property name="meta.media.height">1080</property>
  <property name="meta.media.color_range">full</property>
  <property name="set.test_audio">0</property>
  <property name="set.test_image">1</property>
  <property name="meta.media.variable_frame_rate">1</property>
 </producer>
 <producer id="producer53" in="00:00:00.000" out="00:01:02.400">
  <property name="length">1873</property>
  <property name="eof">pause</property>
  <property name="resource">videos/PXL_20220330_092942158.TS.mp4</property>
  <property name="audio_index">1</property>
  <property name="video_index">2</property>
  <property name="mute_on_pause">0</property>
  <property name="mlt_service">avformat-novalidate</property>
  <property name="seekable">1</property>
  <property name="aspect_ratio">1</property>
  <property name="kdenlive:clipname"/>
  <property name="kdenlive:folderid">2</property>
  <property name="kdenlive:id">24</property>
  <property name="kdenlive:file_size">154863943</property>
  <property name="kdenlive:file_hash">79c547848bdde96d2864e28f023dec74</property>
  <property name="kdenlive:audio_max1">161</property>
  <property name="xml">was here</property>
  <property name="meta.media.nb_streams">4</property>
  <property name="meta.media.1.stream.type">audio</property>
  <property name="meta.media.1.codec.sample_fmt">fltp</property>
  <property name="meta.media.1.codec.sample_rate">48000</property>
  <property name="meta.media.1.codec.channels">2</property>
  <property name="meta.media.1.codec.name">aac</property>
  <property name="meta.media.1.codec.long_name">AAC (Advanced Audio Coding)</property>
  <property name="meta.media.1.codec.bit_rate">191936</property>
  <property name="meta.attr.1.stream.creation_time.markup">2022-03-30T09:30:45.000000Z</property>
  <property name="meta.attr.1.stream.language.markup">eng</property>
  <property name="meta.attr.1.stream.handler_name.markup">SoundHandle</property>
  <property name="meta.media.2.stream.type">video</property>
  <property name="meta.media.2.stream.frame_rate">29.9971</property>
  <property name="meta.media.2.stream.sample_aspect_ratio">1</property>
  <property name="meta.media.2.codec.width">1920</property>
  <property name="meta.media.2.codec.height">1080</property>
  <property name="meta.media.2.codec.rotate">0</property>
  <property name="meta.media.2.codec.pix_fmt">yuvj420p</property>
  <property name="meta.media.2.codec.sample_aspect_ratio">0</property>
  <property name="meta.media.2.codec.colorspace">709</property>
  <property name="meta.media.2.codec.color_trc">1</property>
  <property name="meta.media.2.codec.name">hevc</property>
  <property name="meta.media.2.codec.long_name">HEVC (High Efficiency Video Coding)</property>
  <property name="meta.media.2.codec.bit_rate">19602114</property>
  <property name="meta.attr.2.stream.creation_time.markup">2022-03-30T09:30:45.000000Z</property>
  <property name="meta.attr.2.stream.language.markup">eng</property>
  <property name="meta.attr.2.stream.handler_name.markup">VideoHandle</property>
  <property name="meta.attr.major_brand.markup">isom</property>
  <property name="meta.attr.minor_version.markup">131072</property>
  <property name="meta.attr.compatible_brands.markup">isomiso2mp41</property>
  <property name="meta.attr.creation_time.markup">2022-03-30T09:30:45.000000Z</property>
  <property name="meta.attr.location.markup">+52.7185+4.6581/</property>
  <property name="meta.attr.location-eng.markup">+52.7185+4.6581/</property>
  <property name="meta.attr.com.android.capture.fps.markup">30.000000</property>
  <property name="meta.media.sample_aspect_num">1</property>
  <property name="meta.media.sample_aspect_den">1</property>
  <property name="meta.media.frame_rate_num">3511875</property>
  <property name="meta.media.frame_rate_den">117074</property>
  <property name="meta.media.colorspace">709</property>
  <property name="meta.media.color_trc">1</property>
  <property name="meta.media.has_b_frames">0</property>
  <property name="meta.media.width">1920</property>
  <property name="meta.media.height">1080</property>
  <property name="meta.media.color_range">full</property>
  <property name="set.test_audio">0</property>
  <property name="set.test_image">1</property>
  <property name="meta.media.variable_frame_rate">1</property>
 </producer>
 <producer id="producer54" in="00:00:00.000" out="00:00:05.000">
  <property name="length">151</property>
  <property name="eof">pause</property>
  <property name="resource">videos/PXL_20220330_093208845.TS.mp4</property>
  <property name="audio_index">0</property>
  <property name="video_index">2</property>
  <property name="mute_on_pause">0</property>
  <property name="mlt_service">avformat-novalidate</property>
  <property name="seekable">1</property>
  <property name="aspect_ratio">1</property>
  <property name="kdenlive:clipname"/>
  <property name="kdenlive:folderid">2</property>
  <property name="kdenlive:id">26</property>
  <property name="kdenlive:file_size">12763628</property>
  <property name="kdenlive:file_hash">b9cb3733b0cc7e2541505ede57e0da63</property>
  <property name="kdenlive:audio_max0">198</property>
  <property name="xml">was here</property>
  <property name="meta.media.nb_streams">4</property>
  <property name="meta.media.0.stream.type">audio</property>
  <property name="meta.media.0.codec.sample_fmt">fltp</property>
  <property name="meta.media.0.codec.sample_rate">48000</property>
  <property name="meta.media.0.codec.channels">2</property>
  <property name="meta.media.0.codec.name">aac</property>
  <property name="meta.media.0.codec.long_name">AAC (Advanced Audio Coding)</property>
  <property name="meta.media.0.codec.bit_rate">191208</property>
  <property name="meta.attr.0.stream.creation_time.markup">2022-03-30T09:32:18.000000Z</property>
  <property name="meta.attr.0.stream.language.markup">eng</property>
  <property name="meta.attr.0.stream.handler_name.markup">SoundHandle</property>
  <property name="meta.media.2.stream.type">video</property>
  <property name="meta.media.2.stream.frame_rate">29.9983</property>
  <property name="meta.media.2.stream.sample_aspect_ratio">1</property>
  <property name="meta.media.2.codec.width">1920</property>
  <property name="meta.media.2.codec.height">1080</property>
  <property name="meta.media.2.codec.rotate">0</property>
  <property name="meta.media.2.codec.pix_fmt">yuvj420p</property>
  <property name="meta.media.2.codec.sample_aspect_ratio">0</property>
  <property name="meta.media.2.codec.colorspace">709</property>
  <property name="meta.media.2.codec.color_trc">1</property>
  <property name="meta.media.2.codec.name">hevc</property>
  <property name="meta.media.2.codec.long_name">HEVC (High Efficiency Video Coding)</property>
  <property name="meta.media.2.codec.bit_rate">20044655</property>
  <property name="meta.attr.2.stream.creation_time.markup">2022-03-30T09:32:18.000000Z</property>
  <property name="meta.attr.2.stream.language.markup">eng</property>
  <property name="meta.attr.2.stream.handler_name.markup">VideoHandle</property>
  <property name="meta.attr.major_brand.markup">isom</property>
  <property name="meta.attr.minor_version.markup">131072</property>
  <property name="meta.attr.compatible_brands.markup">isomiso2mp41</property>
  <property name="meta.attr.creation_time.markup">2022-03-30T09:32:18.000000Z</property>
  <property name="meta.attr.location.markup">+52.7185+4.6577/</property>
  <property name="meta.attr.location-eng.markup">+52.7185+4.6577/</property>
  <property name="meta.attr.com.android.capture.fps.markup">30.000000</property>
  <property name="meta.media.sample_aspect_num">1</property>
  <property name="meta.media.sample_aspect_den">1</property>
  <property name="meta.media.frame_rate_num">6795000</property>
  <property name="meta.media.frame_rate_den">226513</property>
  <property name="meta.media.colorspace">709</property>
  <property name="meta.media.color_trc">1</property>
  <property name="meta.media.has_b_frames">0</property>
  <property name="meta.media.width">1920</property>
  <property name="meta.media.height">1080</property>
  <property name="meta.media.color_range">full</property>
  <property name="set.test_audio">0</property>
  <property name="set.test_image">1</property>
  <property name="meta.media.variable_frame_rate">1</property>
 </producer>
 <producer id="producer55" in="00:00:00.000" out="00:00:45.133">
  <property name="length">1355</property>
  <property name="eof">pause</property>
  <property name="resource">videos/PXL_20220330_093249682.TS.mp4</property>
  <property name="audio_index">1</property>
  <property name="video_index">2</property>
  <property name="mute_on_pause">0</property>
  <property name="mlt_service">avformat-novalidate</property>
  <property name="seekable">1</property>
  <property name="aspect_ratio">1</property>
  <property name="kdenlive:clipname"/>
  <property name="kdenlive:folderid">2</property>
  <property name="kdenlive:id">27</property>
  <property name="kdenlive:file_size">112059644</property>
  <property name="kdenlive:file_hash">4783add9f29b6034cc7fa4922d758ff5</property>
  <property name="kdenlive:audio_max1">190</property>
  <property name="xml">was here</property>
  <property name="meta.media.nb_streams">4</property>
  <property name="meta.media.1.stream.type">audio</property>
  <property name="meta.media.1.codec.sample_fmt">fltp</property>
  <property name="meta.media.1.codec.sample_rate">48000</property>
  <property name="meta.media.1.codec.channels">2</property>
  <property name="meta.media.1.codec.name">aac</property>
  <property name="meta.media.1.codec.long_name">AAC (Advanced Audio Coding)</property>
  <property name="meta.media.1.codec.bit_rate">191950</property>
  <property name="meta.attr.1.stream.creation_time.markup">2022-03-30T09:33:36.000000Z</property>
  <property name="meta.attr.1.stream.language.markup">eng</property>
  <property name="meta.attr.1.stream.handler_name.markup">SoundHandle</property>
  <property name="meta.media.2.stream.type">video</property>
  <property name="meta.media.2.stream.frame_rate">29.9973</property>
  <property name="meta.media.2.stream.sample_aspect_ratio">1</property>
  <property name="meta.media.2.codec.width">1920</property>
  <property name="meta.media.2.codec.height">1080</property>
  <property name="meta.media.2.codec.rotate">0</property>
  <property name="meta.media.2.codec.pix_fmt">yuvj420p</property>
  <property name="meta.media.2.codec.sample_aspect_ratio">0</property>
  <property name="meta.media.2.codec.colorspace">709</property>
  <property name="meta.media.2.codec.color_trc">1</property>
  <property name="meta.media.2.codec.name">hevc</property>
  <property name="meta.media.2.codec.long_name">HEVC (High Efficiency Video Coding)</property>
  <property name="meta.media.2.codec.bit_rate">19604197</property>
  <property name="meta.attr.2.stream.creation_time.markup">2022-03-30T09:33:36.000000Z</property>
  <property name="meta.attr.2.stream.language.markup">eng</property>
  <property name="meta.attr.2.stream.handler_name.markup">VideoHandle</property>
  <property name="meta.attr.major_brand.markup">isom</property>
  <property name="meta.attr.minor_version.markup">131072</property>
  <property name="meta.attr.compatible_brands.markup">isomiso2mp41</property>
  <property name="meta.attr.creation_time.markup">2022-03-30T09:33:36.000000Z</property>
  <property name="meta.attr.location.markup">+52.7185+4.6577/</property>
  <property name="meta.attr.location-eng.markup">+52.7185+4.6577/</property>
  <property name="meta.attr.com.android.capture.fps.markup">30.000000</property>
  <property name="meta.media.sample_aspect_num">1</property>
  <property name="meta.media.sample_aspect_den">1</property>
  <property name="meta.media.frame_rate_num">121950000</property>
  <property name="meta.media.frame_rate_den">4065361</property>
  <property name="meta.media.colorspace">709</property>
  <property name="meta.media.color_trc">1</property>
  <property name="meta.media.has_b_frames">0</property>
  <property name="meta.media.width">1920</property>
  <property name="meta.media.height">1080</property>
  <property name="meta.media.color_range">full</property>
  <property name="set.test_audio">0</property>
  <property name="set.test_image">1</property>
  <property name="meta.media.variable_frame_rate">1</property>
 </producer>
 <producer id="producer56" in="00:00:00.000" out="00:00:23.367">
  <property name="length">702</property>
  <property name="eof">pause</property>
  <property name="resource">videos/PXL_20220330_093618729.TS.mp4</property>
  <property name="audio_index">1</property>
  <property name="video_index">2</property>
  <property name="mute_on_pause">0</property>
  <property name="mlt_service">avformat-novalidate</property>
  <property name="seekable">1</property>
  <property name="aspect_ratio">1</property>
  <property name="kdenlive:clipname"/>
  <property name="kdenlive:folderid">2</property>
  <property name="kdenlive:id">31</property>
  <property name="kdenlive:file_size">58257553</property>
  <property name="kdenlive:file_hash">c127b40e4e3a3182208160217d7868c1</property>
  <property name="kdenlive:audio_max1">206</property>
  <property name="xml">was here</property>
  <property name="meta.media.nb_streams">4</property>
  <property name="meta.media.1.stream.type">audio</property>
  <property name="meta.media.1.codec.sample_fmt">fltp</property>
  <property name="meta.media.1.codec.sample_rate">48000</property>
  <property name="meta.media.1.codec.channels">2</property>
  <property name="meta.media.1.codec.name">aac</property>
  <property name="meta.media.1.codec.long_name">AAC (Advanced Audio Coding)</property>
  <property name="meta.media.1.codec.bit_rate">191828</property>
  <property name="meta.attr.1.stream.creation_time.markup">2022-03-30T09:36:43.000000Z</property>
  <property name="meta.attr.1.stream.language.markup">eng</property>
  <property name="meta.attr.1.stream.handler_name.markup">SoundHandle</property>
  <property name="meta.media.2.stream.type">video</property>
  <property name="meta.media.2.stream.frame_rate">29.9973</property>
  <property name="meta.media.2.stream.sample_aspect_ratio">1</property>
  <property name="meta.media.2.codec.width">1920</property>
  <property name="meta.media.2.codec.height">1080</property>
  <property name="meta.media.2.codec.rotate">0</property>
  <property name="meta.media.2.codec.pix_fmt">yuvj420p</property>
  <property name="meta.media.2.codec.sample_aspect_ratio">0</property>
  <property name="meta.media.2.codec.colorspace">709</property>
  <property name="meta.media.2.codec.color_trc">1</property>
  <property name="meta.media.2.codec.name">hevc</property>
  <property name="meta.media.2.codec.long_name">HEVC (High Efficiency Video Coding)</property>
  <property name="meta.media.2.codec.bit_rate">19675639</property>
  <property name="meta.attr.2.stream.creation_time.markup">2022-03-30T09:36:43.000000Z</property>
  <property name="meta.attr.2.stream.language.markup">eng</property>
  <property name="meta.attr.2.stream.handler_name.markup">VideoHandle</property>
  <property name="meta.attr.major_brand.markup">isom</property>
  <property name="meta.attr.minor_version.markup">131072</property>
  <property name="meta.attr.compatible_brands.markup">isomiso2mp41</property>
  <property name="meta.attr.creation_time.markup">2022-03-30T09:36:43.000000Z</property>
  <property name="meta.attr.location.markup">+52.7178+4.6571/</property>
  <property name="meta.attr.location-eng.markup">+52.7178+4.6571/</property>
  <property name="meta.attr.com.android.capture.fps.markup">30.000000</property>
  <property name="meta.media.sample_aspect_num">1</property>
  <property name="meta.media.sample_aspect_den">1</property>
  <property name="meta.media.frame_rate_num">1316250</property>
  <property name="meta.media.frame_rate_den">43879</property>
  <property name="meta.media.colorspace">709</property>
  <property name="meta.media.color_trc">1</property>
  <property name="meta.media.has_b_frames">0</property>
  <property name="meta.media.width">1920</property>
  <property name="meta.media.height">1080</property>
  <property name="meta.media.color_range">full</property>
  <property name="set.test_audio">0</property>
  <property name="set.test_image">1</property>
  <property name="meta.media.variable_frame_rate">1</property>
 </producer>
 <producer id="producer57" in="00:00:00.000" out="00:00:53.567">
  <property name="length">1608</property>
  <property name="eof">pause</property>
  <property name="resource">videos/PXL_20220330_093519653.TS.mp4</property>
  <property name="audio_index">1</property>
  <property name="video_index">2</property>
  <property name="mute_on_pause">0</property>
  <property name="mlt_service">avformat-novalidate</property>
  <property name="seekable">1</property>
  <property name="aspect_ratio">1</property>
  <property name="kdenlive:clipname"/>
  <property name="kdenlive:folderid">2</property>
  <property name="kdenlive:id">30</property>
  <property name="kdenlive:file_size">133019595</property>
  <property name="kdenlive:file_hash">e6bbd23e664f25271cf648f01e29bc7a</property>
  <property name="kdenlive:audio_max1">194</property>
  <property name="xml">was here</property>
  <property name="meta.media.nb_streams">4</property>
  <property name="meta.media.1.stream.type">audio</property>
  <property name="meta.media.1.codec.sample_fmt">fltp</property>
  <property name="meta.media.1.codec.sample_rate">48000</property>
  <property name="meta.media.1.codec.channels">2</property>
  <property name="meta.media.1.codec.name">aac</property>
  <property name="meta.media.1.codec.long_name">AAC (Advanced Audio Coding)</property>
  <property name="meta.media.1.codec.bit_rate">191921</property>
  <property name="meta.attr.1.stream.creation_time.markup">2022-03-30T09:36:15.000000Z</property>
  <property name="meta.attr.1.stream.language.markup">eng</property>
  <property name="meta.attr.1.stream.handler_name.markup">SoundHandle</property>
  <property name="meta.media.2.stream.type">video</property>
  <property name="meta.media.2.stream.frame_rate">29.9972</property>
  <property name="meta.media.2.stream.sample_aspect_ratio">1</property>
  <property name="meta.media.2.codec.width">1920</property>
  <property name="meta.media.2.codec.height">1080</property>
  <property name="meta.media.2.codec.rotate">0</property>
  <property name="meta.media.2.codec.pix_fmt">yuvj420p</property>
  <property name="meta.media.2.codec.sample_aspect_ratio">0</property>
  <property name="meta.media.2.codec.colorspace">709</property>
  <property name="meta.media.2.codec.color_trc">1</property>
  <property name="meta.media.2.codec.name">hevc</property>
  <property name="meta.media.2.codec.long_name">HEVC (High Efficiency Video Coding)</property>
  <property name="meta.media.2.codec.bit_rate">19612321</property>
  <property name="meta.attr.2.stream.creation_time.markup">2022-03-30T09:36:15.000000Z</property>
  <property name="meta.attr.2.stream.language.markup">eng</property>
  <property name="meta.attr.2.stream.handler_name.markup">VideoHandle</property>
  <property name="meta.attr.major_brand.markup">isom</property>
  <property name="meta.attr.minor_version.markup">131072</property>
  <property name="meta.attr.compatible_brands.markup">isomiso2mp41</property>
  <property name="meta.attr.creation_time.markup">2022-03-30T09:36:15.000000Z</property>
  <property name="meta.attr.location.markup">+52.7178+4.6571/</property>
  <property name="meta.attr.location-eng.markup">+52.7178+4.6571/</property>
  <property name="meta.attr.com.android.capture.fps.markup">30.000000</property>
  <property name="meta.media.sample_aspect_num">1</property>
  <property name="meta.media.sample_aspect_den">1</property>
  <property name="meta.media.frame_rate_num">12060000</property>
  <property name="meta.media.frame_rate_den">402037</property>
  <property name="meta.media.colorspace">709</property>
  <property name="meta.media.color_trc">1</property>
  <property name="meta.media.has_b_frames">0</property>
  <property name="meta.media.width">1920</property>
  <property name="meta.media.height">1080</property>
  <property name="meta.media.color_range">full</property>
  <property name="set.test_audio">0</property>
  <property name="set.test_image">1</property>
  <property name="meta.media.variable_frame_rate">1</property>
 </producer>
 <producer id="producer58" in="00:00:00.000" out="00:00:13.600">
  <property name="length">409</property>
  <property name="eof">pause</property>
  <property name="resource">videos/PXL_20220330_095847376.TS.mp4</property>
  <property name="audio_index">1</property>
  <property name="video_index">2</property>
  <property name="mute_on_pause">0</property>
  <property name="mlt_service">avformat-novalidate</property>
  <property name="seekable">1</property>
  <property name="aspect_ratio">1</property>
  <property name="kdenlive:clipname"/>
  <property name="kdenlive:folderid">2</property>
  <property name="kdenlive:id">35</property>
  <property name="kdenlive:file_size">34500025</property>
  <property name="kdenlive:file_hash">1859af1c5b2975abc4a97eb2de560dcc</property>
  <property name="kdenlive:audio_max1">197</property>
  <property name="xml">was here</property>
  <property name="meta.media.nb_streams">4</property>
  <property name="meta.media.1.stream.type">audio</property>
  <property name="meta.media.1.codec.sample_fmt">fltp</property>
  <property name="meta.media.1.codec.sample_rate">48000</property>
  <property name="meta.media.1.codec.channels">2</property>
  <property name="meta.media.1.codec.name">aac</property>
  <property name="meta.media.1.codec.long_name">AAC (Advanced Audio Coding)</property>
  <property name="meta.media.1.codec.bit_rate">191570</property>
  <property name="meta.attr.1.stream.rotate.markup">180</property>
  <property name="meta.attr.1.stream.creation_time.markup">2022-03-30T09:59:05.000000Z</property>
  <property name="meta.attr.1.stream.language.markup">eng</property>
  <property name="meta.attr.1.stream.handler_name.markup">SoundHandle</property>
  <property name="meta.media.2.stream.type">video</property>
  <property name="meta.media.2.stream.frame_rate">29.8635</property>
  <property name="meta.media.2.stream.sample_aspect_ratio">1</property>
  <property name="meta.media.2.codec.width">1920</property>
  <property name="meta.media.2.codec.height">1080</property>
  <property name="meta.media.2.codec.rotate">180</property>
  <property name="meta.media.2.codec.pix_fmt">yuvj420p</property>
  <property name="meta.media.2.codec.sample_aspect_ratio">0</property>
  <property name="meta.media.2.codec.colorspace">709</property>
  <property name="meta.media.2.codec.color_trc">1</property>
  <property name="meta.media.2.codec.name">hevc</property>
  <property name="meta.media.2.codec.long_name">HEVC (High Efficiency Video Coding)</property>
  <property name="meta.media.2.codec.bit_rate">20020494</property>
  <property name="meta.attr.2.stream.rotate.markup">180</property>
  <property name="meta.attr.2.stream.creation_time.markup">2022-03-30T09:59:05.000000Z</property>
  <property name="meta.attr.2.stream.language.markup">eng</property>
  <property name="meta.attr.2.stream.handler_name.markup">VideoHandle</property>
  <property name="meta.attr.major_brand.markup">isom</property>
  <property name="meta.attr.minor_version.markup">131072</property>
  <property name="meta.attr.compatible_brands.markup">isomiso2mp41</property>
  <property name="meta.attr.creation_time.markup">2022-03-30T09:59:05.000000Z</property>
  <property name="meta.attr.location.markup">+52.7190+4.6577/</property>
  <property name="meta.attr.location-eng.markup">+52.7190+4.6577/</property>
  <property name="meta.attr.com.android.capture.fps.markup">30.000000</property>
  <property name="meta.media.sample_aspect_num">1</property>
  <property name="meta.media.sample_aspect_den">1</property>
  <property name="meta.media.frame_rate_num">18315000</property>
  <property name="meta.media.frame_rate_den">613291</property>
  <property name="meta.media.colorspace">709</property>
  <property name="meta.media.color_trc">1</property>
  <property name="meta.media.has_b_frames">0</property>
  <property name="meta.media.width">1920</property>
  <property name="meta.media.height">1080</property>
  <property name="meta.media.color_range">full</property>
  <property name="set.test_audio">0</property>
  <property name="set.test_image">1</property>
  <property name="meta.media.variable_frame_rate">1</property>
 </producer>
 <producer id="producer59" in="00:00:00.000" out="00:00:46.533">
  <property name="length">1397</property>
  <property name="eof">pause</property>
  <property name="resource">videos/catch-cam/20220330_115905.mp4</property>
  <property name="audio_index">1</property>
  <property name="video_index">0</property>
  <property name="mute_on_pause">0</property>
  <property name="mlt_service">avformat-novalidate</property>
  <property name="seekable">1</property>
  <property name="aspect_ratio">1</property>
  <property name="kdenlive:clipname"/>
  <property name="kdenlive:folderid">38</property>
  <property name="kdenlive:id">42</property>
  <property name="kdenlive:file_size">82560319</property>
  <property name="kdenlive:file_hash">98c43a5c9c2f5acc272dc25f384d2a4e</property>
  <property name="kdenlive:audio_max1">173</property>
  <property name="xml">was here</property>
  <property name="meta.media.nb_streams">2</property>
  <property name="meta.media.0.stream.type">video</property>
  <property name="meta.media.0.stream.frame_rate">30.0043</property>
  <property name="meta.media.0.stream.sample_aspect_ratio">0</property>
  <property name="meta.media.0.codec.width">1920</property>
  <property name="meta.media.0.codec.height">1080</property>
  <property name="meta.media.0.codec.rotate">0</property>
  <property name="meta.media.0.codec.pix_fmt">yuv420p</property>
  <property name="meta.media.0.codec.sample_aspect_ratio">0</property>
  <property name="meta.media.0.codec.colorspace">709</property>
  <property name="meta.media.0.codec.color_trc">1</property>
  <property name="meta.media.0.codec.name">h264</property>
  <property name="meta.media.0.codec.long_name">H.264 / AVC / MPEG-4 AVC / MPEG-4 part 10</property>
  <property name="meta.media.0.codec.bit_rate">13924648</property>
  <property name="meta.attr.0.stream.creation_time.markup">2022-03-30T09:59:53.000000Z</property>
  <property name="meta.attr.0.stream.language.markup">eng</property>
  <property name="meta.attr.0.stream.handler_name.markup">VideoHandle</property>
  <property name="meta.media.1.stream.type">audio</property>
  <property name="meta.media.1.codec.sample_fmt">fltp</property>
  <property name="meta.media.1.codec.sample_rate">48000</property>
  <property name="meta.media.1.codec.channels">2</property>
  <property name="meta.media.1.codec.name">aac</property>
  <property name="meta.media.1.codec.long_name">AAC (Advanced Audio Coding)</property>
  <property name="meta.media.1.codec.bit_rate">256049</property>
  <property name="meta.attr.1.stream.creation_time.markup">2022-03-30T09:59:53.000000Z</property>
  <property name="meta.attr.1.stream.language.markup">eng</property>
  <property name="meta.attr.1.stream.handler_name.markup">SoundHandle</property>
  <property name="meta.attr.major_brand.markup">mp42</property>
  <property name="meta.attr.minor_version.markup">0</property>
  <property name="meta.attr.compatible_brands.markup">isommp42</property>
  <property name="meta.attr.creation_time.markup">2022-03-30T09:59:53.000000Z</property>
  <property name="meta.attr.com.android.version.markup">12</property>
  <property name="meta.attr.com.android.capture.fps.markup">30.000000</property>
  <property name="meta.media.sample_aspect_num">1</property>
  <property name="meta.media.sample_aspect_den">1</property>
  <property name="meta.media.frame_rate_num">2286000</property>
  <property name="meta.media.frame_rate_den">76189</property>
  <property name="meta.media.colorspace">709</property>
  <property name="meta.media.color_trc">1</property>
  <property name="meta.media.has_b_frames">0</property>
  <property name="meta.media.width">1920</property>
  <property name="meta.media.height">1080</property>
  <property name="meta.media.color_range">mpeg</property>
  <property name="meta.media.variable_frame_rate">1</property>
  <property name="meta.media.top_field_first">0</property>
  <property name="meta.media.progressive">1</property>
  <property name="set.test_audio">0</property>
  <property name="set.test_image">1</property>
 </producer>
 <producer id="producer60" in="00:00:00.000" out="00:00:40.367">
  <property name="length">1212</property>
  <property name="eof">pause</property>
  <property name="resource">videos/PXL_20220330_094306109.TS.mp4</property>
  <property name="audio_index">1</property>
  <property name="video_index">2</property>
  <property name="mute_on_pause">0</property>
  <property name="mlt_service">avformat-novalidate</property>
  <property name="seekable">1</property>
  <property name="aspect_ratio">1</property>
  <property name="kdenlive:clipname"/>
  <property name="kdenlive:folderid">2</property>
  <property name="kdenlive:id">34</property>
  <property name="kdenlive:file_size">100077012</property>
  <property name="kdenlive:file_hash">402f1ea492ded7e85bf4ccc58de3586d</property>
  <property name="kdenlive:audio_max1">220</property>
  <property name="xml">was here</property>
  <property name="meta.media.nb_streams">4</property>
  <property name="meta.media.1.stream.type">audio</property>
  <property name="meta.media.1.codec.sample_fmt">fltp</property>
  <property name="meta.media.1.codec.sample_rate">48000</property>
  <property name="meta.media.1.codec.channels">2</property>
  <property name="meta.media.1.codec.name">aac</property>
  <property name="meta.media.1.codec.long_name">AAC (Advanced Audio Coding)</property>
  <property name="meta.media.1.codec.bit_rate">191920</property>
  <property name="meta.attr.1.stream.creation_time.markup">2022-03-30T09:43:50.000000Z</property>
  <property name="meta.attr.1.stream.language.markup">eng</property>
  <property name="meta.attr.1.stream.handler_name.markup">SoundHandle</property>
  <property name="meta.media.2.stream.type">video</property>
  <property name="meta.media.2.stream.frame_rate">29.8802</property>
  <property name="meta.media.2.stream.sample_aspect_ratio">1</property>
  <property name="meta.media.2.codec.width">1920</property>
  <property name="meta.media.2.codec.height">1080</property>
  <property name="meta.media.2.codec.rotate">0</property>
  <property name="meta.media.2.codec.pix_fmt">yuvj420p</property>
  <property name="meta.media.2.codec.sample_aspect_ratio">0</property>
  <property name="meta.media.2.codec.colorspace">709</property>
  <property name="meta.media.2.codec.color_trc">1</property>
  <property name="meta.media.2.codec.name">hevc</property>
  <property name="meta.media.2.codec.long_name">HEVC (High Efficiency Video Coding)</property>
  <property name="meta.media.2.codec.bit_rate">19595829</property>
  <property name="meta.attr.2.stream.creation_time.markup">2022-03-30T09:43:50.000000Z</property>
  <property name="meta.attr.2.stream.language.markup">eng</property>
  <property name="meta.attr.2.stream.handler_name.markup">VideoHandle</property>
  <property name="meta.attr.major_brand.markup">isom</property>
  <property name="meta.attr.minor_version.markup">131072</property>
  <property name="meta.attr.compatible_brands.markup">isomiso2mp41</property>
  <property name="meta.attr.creation_time.markup">2022-03-30T09:43:50.000000Z</property>
  <property name="meta.attr.location.markup">+52.7183+4.6581/</property>
  <property name="meta.attr.location-eng.markup">+52.7183+4.6581/</property>
  <property name="meta.attr.com.android.capture.fps.markup">30.000000</property>
  <property name="meta.media.sample_aspect_num">1</property>
  <property name="meta.media.sample_aspect_den">1</property>
  <property name="meta.media.frame_rate_num">12070000</property>
  <property name="meta.media.frame_rate_den">403947</property>
  <property name="meta.media.colorspace">709</property>
  <property name="meta.media.color_trc">1</property>
  <property name="meta.media.has_b_frames">0</property>
  <property name="meta.media.width">1920</property>
  <property name="meta.media.height">1080</property>
  <property name="meta.media.color_range">full</property>
  <property name="set.test_audio">0</property>
  <property name="set.test_image">1</property>
  <property name="meta.media.variable_frame_rate">1</property>
 </producer>
 <producer id="producer61" in="00:00:00.000" out="00:00:14.367">
  <property name="length">432</property>
  <property name="eof">pause</property>
  <property name="resource">videos/PXL_20220330_091806519.TS.mp4</property>
  <property name="audio_index">1</property>
  <property name="video_index">2</property>
  <property name="mute_on_pause">0</property>
  <property name="mlt_service">avformat-novalidate</property>
  <property name="seekable">1</property>
  <property name="aspect_ratio">1</property>
  <property name="kdenlive:clipname"/>
  <property name="kdenlive:folderid">2</property>
  <property name="kdenlive:id">13</property>
  <property name="kdenlive:file_size">36141396</property>
  <property name="kdenlive:file_hash">78116776c576a75d65e8ed883ad345c4</property>
  <property name="kdenlive:audio_max1">203</property>
  <property name="xml">was here</property>
  <property name="meta.media.nb_streams">4</property>
  <property name="meta.media.1.stream.type">audio</property>
  <property name="meta.media.1.codec.sample_fmt">fltp</property>
  <property name="meta.media.1.codec.sample_rate">48000</property>
  <property name="meta.media.1.codec.channels">2</property>
  <property name="meta.media.1.codec.name">aac</property>
  <property name="meta.media.1.codec.long_name">AAC (Advanced Audio Coding)</property>
  <property name="meta.media.1.codec.bit_rate">191735</property>
  <property name="meta.attr.1.stream.creation_time.markup">2022-03-30T09:18:22.000000Z</property>
  <property name="meta.attr.1.stream.language.markup">eng</property>
  <property name="meta.attr.1.stream.handler_name.markup">SoundHandle</property>
  <property name="meta.media.2.stream.type">video</property>
  <property name="meta.media.2.stream.frame_rate">29.816</property>
  <property name="meta.media.2.stream.sample_aspect_ratio">1</property>
  <property name="meta.media.2.codec.width">1920</property>
  <property name="meta.media.2.codec.height">1080</property>
  <property name="meta.media.2.codec.rotate">0</property>
  <property name="meta.media.2.codec.pix_fmt">yuvj420p</property>
  <property name="meta.media.2.codec.sample_aspect_ratio">0</property>
  <property name="meta.media.2.codec.colorspace">709</property>
  <property name="meta.media.2.codec.color_trc">1</property>
  <property name="meta.media.2.codec.name">hevc</property>
  <property name="meta.media.2.codec.long_name">HEVC (High Efficiency Video Coding)</property>
  <property name="meta.media.2.codec.bit_rate">19858883</property>
  <property name="meta.attr.2.stream.creation_time.markup">2022-03-30T09:18:22.000000Z</property>
  <property name="meta.attr.2.stream.language.markup">eng</property>
  <property name="meta.attr.2.stream.handler_name.markup">VideoHandle</property>
  <property name="meta.attr.major_brand.markup">isom</property>
  <property name="meta.attr.minor_version.markup">131072</property>
  <property name="meta.attr.compatible_brands.markup">isomiso2mp41</property>
  <property name="meta.attr.creation_time.markup">2022-03-30T09:18:22.000000Z</property>
  <property name="meta.attr.location.markup">+52.7415+4.6575/</property>
  <property name="meta.attr.location-eng.markup">+52.7415+4.6575/</property>
  <property name="meta.attr.com.android.capture.fps.markup">30.000000</property>
  <property name="meta.media.sample_aspect_num">1</property>
  <property name="meta.media.sample_aspect_den">1</property>
  <property name="meta.media.frame_rate_num">12870000</property>
  <property name="meta.media.frame_rate_den">431647</property>
  <property name="meta.media.colorspace">709</property>
  <property name="meta.media.color_trc">1</property>
  <property name="meta.media.has_b_frames">0</property>
  <property name="meta.media.width">1920</property>
  <property name="meta.media.height">1080</property>
  <property name="meta.media.color_range">full</property>
  <property name="set.test_audio">0</property>
  <property name="set.test_image">1</property>
  <property name="meta.media.variable_frame_rate">1</property>
 </producer>
 <producer id="producer62" in="00:00:00.000" out="00:00:50.200">
  <property name="length">1507</property>
  <property name="eof">pause</property>
  <property name="resource">videos/PXL_20220330_091822973.TS.mp4</property>
  <property name="audio_index">1</property>
  <property name="video_index">2</property>
  <property name="mute_on_pause">0</property>
  <property name="mlt_service">avformat-novalidate</property>
  <property name="seekable">1</property>
  <property name="aspect_ratio">1</property>
  <property name="kdenlive:clipname"/>
  <property name="kdenlive:folderid">2</property>
  <property name="kdenlive:id">14</property>
  <property name="kdenlive:file_size">101871259</property>
  <property name="kdenlive:file_hash">4da6aa016a5279729303a821a64120bc</property>
  <property name="kdenlive:audio_max1">178</property>
  <property name="xml">was here</property>
  <property name="meta.media.nb_streams">4</property>
  <property name="meta.media.1.stream.type">audio</property>
  <property name="meta.media.1.codec.sample_fmt">fltp</property>
  <property name="meta.media.1.codec.sample_rate">48000</property>
  <property name="meta.media.1.codec.channels">2</property>
  <property name="meta.media.1.codec.name">aac</property>
  <property name="meta.media.1.codec.long_name">AAC (Advanced Audio Coding)</property>
  <property name="meta.media.1.codec.bit_rate">191917</property>
  <property name="meta.attr.1.stream.creation_time.markup">2022-03-30T09:19:14.000000Z</property>
  <property name="meta.attr.1.stream.language.markup">eng</property>
  <property name="meta.attr.1.stream.handler_name.markup">SoundHandle</property>
  <property name="meta.media.2.stream.type">video</property>
  <property name="meta.media.2.stream.frame_rate">29.8525</property>
  <property name="meta.media.2.stream.sample_aspect_ratio">1</property>
  <property name="meta.media.2.codec.width">1920</property>
  <property name="meta.media.2.codec.height">1080</property>
  <property name="meta.media.2.codec.rotate">0</property>
  <property name="meta.media.2.codec.pix_fmt">yuvj420p</property>
  <property name="meta.media.2.codec.sample_aspect_ratio">0</property>
  <property name="meta.media.2.codec.colorspace">709</property>
  <property name="meta.media.2.codec.color_trc">1</property>
  <property name="meta.media.2.codec.name">hevc</property>
  <property name="meta.media.2.codec.long_name">HEVC (High Efficiency Video Coding)</property>
  <property name="meta.media.2.codec.bit_rate">15999026</property>
  <property name="meta.attr.2.stream.creation_time.markup">2022-03-30T09:19:14.000000Z</property>
  <property name="meta.attr.2.stream.language.markup">eng</property>
  <property name="meta.attr.2.stream.handler_name.markup">VideoHandle</property>
  <property name="meta.attr.major_brand.markup">isom</property>
  <property name="meta.attr.minor_version.markup">131072</property>
  <property name="meta.attr.compatible_brands.markup">isomiso2mp41</property>
  <property name="meta.attr.creation_time.markup">2022-03-30T09:19:14.000000Z</property>
  <property name="meta.attr.location.markup">+52.7415+4.6575/</property>
  <property name="meta.attr.location-eng.markup">+52.7415+4.6575/</property>
  <property name="meta.attr.com.android.capture.fps.markup">30.000000</property>
  <property name="meta.media.sample_aspect_num">1</property>
  <property name="meta.media.sample_aspect_den">1</property>
  <property name="meta.media.frame_rate_num">67500000</property>
  <property name="meta.media.frame_rate_den">2261119</property>
  <property name="meta.media.colorspace">709</property>
  <property name="meta.media.color_trc">1</property>
  <property name="meta.media.has_b_frames">0</property>
  <property name="meta.media.width">1920</property>
  <property name="meta.media.height">1080</property>
  <property name="meta.media.color_range">full</property>
  <property name="set.test_audio">0</property>
  <property name="set.test_image">1</property>
  <property name="meta.media.variable_frame_rate">1</property>
 </producer>
 <producer id="producer63" in="00:00:00.000" out="00:00:54.133">
  <property name="length">1625</property>
  <property name="eof">pause</property>
  <property name="resource">videos/PXL_20220330_091915559.TS.mp4</property>
  <property name="audio_index">1</property>
  <property name="video_index">2</property>
  <property name="mute_on_pause">0</property>
  <property name="mlt_service">avformat-novalidate</property>
  <property name="seekable">1</property>
  <property name="aspect_ratio">1</property>
  <property name="kdenlive:clipname"/>
  <property name="kdenlive:folderid">2</property>
  <property name="kdenlive:id">15</property>
  <property name="kdenlive:file_size">133586693</property>
  <property name="kdenlive:file_hash">b2126bfb9e557e34ba92c10405b8cee9</property>
  <property name="kdenlive:audio_max1">210</property>
  <property name="xml">was here</property>
  <property name="meta.media.nb_streams">4</property>
  <property name="meta.media.1.stream.type">audio</property>
  <property name="meta.media.1.codec.sample_fmt">fltp</property>
  <property name="meta.media.1.codec.sample_rate">48000</property>
  <property name="meta.media.1.codec.channels">2</property>
  <property name="meta.media.1.codec.name">aac</property>
  <property name="meta.media.1.codec.long_name">AAC (Advanced Audio Coding)</property>
  <property name="meta.media.1.codec.bit_rate">191956</property>
  <property name="meta.attr.1.stream.creation_time.markup">2022-03-30T09:20:11.000000Z</property>
  <property name="meta.attr.1.stream.language.markup">eng</property>
  <property name="meta.attr.1.stream.handler_name.markup">SoundHandle</property>
  <property name="meta.media.2.stream.type">video</property>
  <property name="meta.media.2.stream.frame_rate">29.8531</property>
  <property name="meta.media.2.stream.sample_aspect_ratio">1</property>
  <property name="meta.media.2.codec.width">1920</property>
  <property name="meta.media.2.codec.height">1080</property>
  <property name="meta.media.2.codec.rotate">0</property>
  <property name="meta.media.2.codec.pix_fmt">yuvj420p</property>
  <property name="meta.media.2.codec.sample_aspect_ratio">0</property>
  <property name="meta.media.2.codec.colorspace">709</property>
  <property name="meta.media.2.codec.color_trc">1</property>
  <property name="meta.media.2.codec.name">hevc</property>
  <property name="meta.media.2.codec.long_name">HEVC (High Efficiency Video Coding)</property>
  <property name="meta.media.2.codec.bit_rate">19510640</property>
  <property name="meta.attr.2.stream.creation_time.markup">2022-03-30T09:20:11.000000Z</property>
  <property name="meta.attr.2.stream.language.markup">eng</property>
  <property name="meta.attr.2.stream.handler_name.markup">VideoHandle</property>
  <property name="meta.attr.major_brand.markup">isom</property>
  <property name="meta.attr.minor_version.markup">131072</property>
  <property name="meta.attr.compatible_brands.markup">isomiso2mp41</property>
  <property name="meta.attr.creation_time.markup">2022-03-30T09:20:11.000000Z</property>
  <property name="meta.attr.location.markup">+52.7415+4.6575/</property>
  <property name="meta.attr.location-eng.markup">+52.7415+4.6575/</property>
  <property name="meta.attr.com.android.capture.fps.markup">30.000000</property>
  <property name="meta.media.sample_aspect_num">1</property>
  <property name="meta.media.sample_aspect_den">1</property>
  <property name="meta.media.frame_rate_num">145530000</property>
  <property name="meta.media.frame_rate_den">4874867</property>
  <property name="meta.media.colorspace">709</property>
  <property name="meta.media.color_trc">1</property>
  <property name="meta.media.has_b_frames">0</property>
  <property name="meta.media.width">1920</property>
  <property name="meta.media.height">1080</property>
  <property name="meta.media.color_range">full</property>
  <property name="set.test_audio">0</property>
  <property name="set.test_image">1</property>
  <property name="meta.media.variable_frame_rate">1</property>
 </producer>
 <producer id="producer64" in="00:00:00.000" out="00:01:29.533">
  <property name="length">2687</property>
  <property name="eof">pause</property>
  <property name="resource">videos/PXL_20220330_092230489.TS.mp4</property>
  <property name="audio_index">1</property>
  <property name="video_index">2</property>
  <property name="mute_on_pause">0</property>
  <property name="mlt_service">avformat-novalidate</property>
  <property name="seekable">1</property>
  <property name="aspect_ratio">1</property>
  <property name="kdenlive:clipname"/>
  <property name="kdenlive:folderid">2</property>
  <property name="kdenlive:id">18</property>
  <property name="kdenlive:file_size">220877569</property>
  <property name="kdenlive:file_hash">1a3e5c7b930d18b35281791f2c51396a</property>
  <property name="kdenlive:audio_max1">211</property>
  <property name="xml">was here</property>
  <property name="meta.media.nb_streams">4</property>
  <property name="meta.media.1.stream.type">audio</property>
  <property name="meta.media.1.codec.sample_fmt">fltp</property>
  <property name="meta.media.1.codec.sample_rate">48000</property>
  <property name="meta.media.1.codec.channels">2</property>
  <property name="meta.media.1.codec.name">aac</property>
  <property name="meta.media.1.codec.long_name">AAC (Advanced Audio Coding)</property>
  <property name="meta.media.1.codec.bit_rate">191937</property>
  <property name="meta.attr.1.stream.creation_time.markup">2022-03-30T09:24:01.000000Z</property>
  <property name="meta.attr.1.stream.language.markup">eng</property>
  <property name="meta.attr.1.stream.handler_name.markup">SoundHandle</property>
  <property name="meta.media.2.stream.type">video</property>
  <property name="meta.media.2.stream.frame_rate">29.8521</property>
  <property name="meta.media.2.stream.sample_aspect_ratio">1</property>
  <property name="meta.media.2.codec.width">1920</property>
  <property name="meta.media.2.codec.height">1080</property>
  <property name="meta.media.2.codec.rotate">0</property>
  <property name="meta.media.2.codec.pix_fmt">yuvj420p</property>
  <property name="meta.media.2.codec.sample_aspect_ratio">0</property>
  <property name="meta.media.2.codec.colorspace">709</property>
  <property name="meta.media.2.codec.color_trc">1</property>
  <property name="meta.media.2.codec.name">hevc</property>
  <property name="meta.media.2.codec.long_name">HEVC (High Efficiency Video Coding)</property>
  <property name="meta.media.2.codec.bit_rate">19507017</property>
  <property name="meta.attr.2.stream.creation_time.markup">2022-03-30T09:24:01.000000Z</property>
  <property name="meta.attr.2.stream.language.markup">eng</property>
  <property name="meta.attr.2.stream.handler_name.markup">VideoHandle</property>
  <property name="meta.attr.major_brand.markup">isom</property>
  <property name="meta.attr.minor_version.markup">131072</property>
  <property name="meta.attr.compatible_brands.markup">isomiso2mp41</property>
  <property name="meta.attr.creation_time.markup">2022-03-30T09:24:01.000000Z</property>
  <property name="meta.attr.location.markup">+52.7415+4.6575/</property>
  <property name="meta.attr.location-eng.markup">+52.7415+4.6575/</property>
  <property name="meta.attr.com.android.capture.fps.markup">30.000000</property>
  <property name="meta.media.sample_aspect_num">1</property>
  <property name="meta.media.sample_aspect_den">1</property>
  <property name="meta.media.frame_rate_num">12033000</property>
  <property name="meta.media.frame_rate_den">403087</property>
  <property name="meta.media.colorspace">709</property>
  <property name="meta.media.color_trc">1</property>
  <property name="meta.media.has_b_frames">0</property>
  <property name="meta.media.width">1920</property>
  <property name="meta.media.height">1080</property>
  <property name="meta.media.color_range">full</property>
  <property name="set.test_audio">0</property>
  <property name="set.test_image">1</property>
  <property name="meta.media.variable_frame_rate">1</property>
 </producer>
 <producer id="producer65" in="00:00:00.000" out="00:01:59.700">
  <property name="length">3592</property>
  <property name="eof">pause</property>
  <property name="resource">videos/PXL_20220330_092500844.TS.mp4</property>
  <property name="audio_index">1</property>
  <property name="video_index">2</property>
  <property name="mute_on_pause">0</property>
  <property name="mlt_service">avformat-novalidate</property>
  <property name="seekable">1</property>
  <property name="aspect_ratio">1</property>
  <property name="kdenlive:clipname"/>
  <property name="kdenlive:folderid">2</property>
  <property name="kdenlive:id">19</property>
  <property name="kdenlive:file_size">296354117</property>
  <property name="kdenlive:file_hash">a44147ebe77fa2a43e61052fc3643cdd</property>
  <property name="kdenlive:audio_max1">223</property>
  <property name="xml">was here</property>
  <property name="meta.media.nb_streams">4</property>
  <property name="meta.media.1.stream.type">audio</property>
  <property name="meta.media.1.codec.sample_fmt">fltp</property>
  <property name="meta.media.1.codec.sample_rate">48000</property>
  <property name="meta.media.1.codec.channels">2</property>
  <property name="meta.media.1.codec.name">aac</property>
  <property name="meta.media.1.codec.long_name">AAC (Advanced Audio Coding)</property>
  <property name="meta.media.1.codec.bit_rate">191944</property>
  <property name="meta.attr.1.stream.creation_time.markup">2022-03-30T09:27:19.000000Z</property>
  <property name="meta.attr.1.stream.language.markup">eng</property>
  <property name="meta.attr.1.stream.handler_name.markup">SoundHandle</property>
  <property name="meta.media.2.stream.type">video</property>
  <property name="meta.media.2.stream.frame_rate">29.79</property>
  <property name="meta.media.2.stream.sample_aspect_ratio">1</property>
  <property name="meta.media.2.codec.width">1920</property>
  <property name="meta.media.2.codec.height">1080</property>
  <property name="meta.media.2.codec.rotate">0</property>
  <property name="meta.media.2.codec.pix_fmt">yuvj420p</property>
  <property name="meta.media.2.codec.sample_aspect_ratio">0</property>
  <property name="meta.media.2.codec.colorspace">709</property>
  <property name="meta.media.2.codec.color_trc">1</property>
  <property name="meta.media.2.codec.name">hevc</property>
  <property name="meta.media.2.codec.long_name">HEVC (High Efficiency Video Coding)</property>
  <property name="meta.media.2.codec.bit_rate">19574409</property>
  <property name="meta.attr.2.stream.creation_time.markup">2022-03-30T09:27:19.000000Z</property>
  <property name="meta.attr.2.stream.language.markup">eng</property>
  <property name="meta.attr.2.stream.handler_name.markup">VideoHandle</property>
  <property name="meta.attr.major_brand.markup">isom</property>
  <property name="meta.attr.minor_version.markup">131072</property>
  <property name="meta.attr.compatible_brands.markup">isomiso2mp41</property>
  <property name="meta.attr.creation_time.markup">2022-03-30T09:27:19.000000Z</property>
  <property name="meta.attr.location.markup">+52.7185+4.6581/</property>
  <property name="meta.attr.location-eng.markup">+52.7185+4.6581/</property>
  <property name="meta.attr.com.android.capture.fps.markup">30.000000</property>
  <property name="meta.media.sample_aspect_num">1</property>
  <property name="meta.media.sample_aspect_den">1</property>
  <property name="meta.media.frame_rate_num">2140200</property>
  <property name="meta.media.frame_rate_den">71843</property>
  <property name="meta.media.colorspace">709</property>
  <property name="meta.media.color_trc">1</property>
  <property name="meta.media.has_b_frames">0</property>
  <property name="meta.media.width">1920</property>
  <property name="meta.media.height">1080</property>
  <property name="meta.media.color_range">full</property>
  <property name="set.test_audio">0</property>
  <property name="set.test_image">1</property>
  <property name="meta.media.variable_frame_rate">1</property>
 </producer>
 <producer id="producer66" in="00:00:00.000" out="00:00:34.100">
  <property name="length">1024</property>
  <property name="eof">pause</property>
  <property name="resource">videos/PXL_20220330_092808909.TS.mp4</property>
  <property name="audio_index">1</property>
  <property name="video_index">2</property>
  <property name="mute_on_pause">0</property>
  <property name="mlt_service">avformat-novalidate</property>
  <property name="seekable">1</property>
  <property name="aspect_ratio">1</property>
  <property name="kdenlive:clipname"/>
  <property name="kdenlive:folderid">2</property>
  <property name="kdenlive:id">22</property>
  <property name="kdenlive:file_size">84781215</property>
  <property name="kdenlive:file_hash">fa4e3a283b5883db042ab4529971fe0b</property>
  <property name="kdenlive:audio_max1">218</property>
  <property name="xml">was here</property>
  <property name="meta.media.nb_streams">4</property>
  <property name="meta.media.1.stream.type">audio</property>
  <property name="meta.media.1.codec.sample_fmt">fltp</property>
  <property name="meta.media.1.codec.sample_rate">48000</property>
  <property name="meta.media.1.codec.channels">2</property>
  <property name="meta.media.1.codec.name">aac</property>
  <property name="meta.media.1.codec.long_name">AAC (Advanced Audio Coding)</property>
  <property name="meta.media.1.codec.bit_rate">191836</property>
  <property name="meta.attr.1.stream.creation_time.markup">2022-03-30T09:28:44.000000Z</property>
  <property name="meta.attr.1.stream.language.markup">eng</property>
  <property name="meta.attr.1.stream.handler_name.markup">SoundHandle</property>
  <property name="meta.media.2.stream.type">video</property>
  <property name="meta.media.2.stream.frame_rate">29.9968</property>
  <property name="meta.media.2.stream.sample_aspect_ratio">1</property>
  <property name="meta.media.2.codec.width">1920</property>
  <property name="meta.media.2.codec.height">1080</property>
  <property name="meta.media.2.codec.rotate">0</property>
  <property name="meta.media.2.codec.pix_fmt">yuvj420p</property>
  <property name="meta.media.2.codec.sample_aspect_ratio">0</property>
  <property name="meta.media.2.codec.colorspace">709</property>
  <property name="meta.media.2.codec.color_trc">1</property>
  <property name="meta.media.2.codec.name">hevc</property>
  <property name="meta.media.2.codec.long_name">HEVC (High Efficiency Video Coding)</property>
  <property name="meta.media.2.codec.bit_rate">19629040</property>
  <property name="meta.attr.2.stream.creation_time.markup">2022-03-30T09:28:44.000000Z</property>
  <property name="meta.attr.2.stream.language.markup">eng</property>
  <property name="meta.attr.2.stream.handler_name.markup">VideoHandle</property>
  <property name="meta.attr.major_brand.markup">isom</property>
  <property name="meta.attr.minor_version.markup">131072</property>
  <property name="meta.attr.compatible_brands.markup">isomiso2mp41</property>
  <property name="meta.attr.creation_time.markup">2022-03-30T09:28:44.000000Z</property>
  <property name="meta.attr.location.markup">+52.7185+4.6581/</property>
  <property name="meta.attr.location-eng.markup">+52.7185+4.6581/</property>
  <property name="meta.attr.com.android.capture.fps.markup">30.000000</property>
  <property name="meta.media.sample_aspect_num">1</property>
  <property name="meta.media.sample_aspect_den">1</property>
  <property name="meta.media.frame_rate_num">30720000</property>
  <property name="meta.media.frame_rate_den">1024109</property>
  <property name="meta.media.colorspace">709</property>
  <property name="meta.media.color_trc">1</property>
  <property name="meta.media.has_b_frames">0</property>
  <property name="meta.media.width">1920</property>
  <property name="meta.media.height">1080</property>
  <property name="meta.media.color_range">full</property>
  <property name="set.test_audio">0</property>
  <property name="set.test_image">1</property>
  <property name="meta.media.variable_frame_rate">1</property>
 </producer>
 <playlist id="playlist6">
  <property name="kdenlive:audio_track">1</property>
  <entry producer="producer45" in="00:00:12.300" out="00:00:18.067">
   <property name="kdenlive:id">3</property>
  </entry>
  <entry producer="producer45" in="00:00:35.867" out="00:00:46.767">
   <property name="kdenlive:id">3</property>
  </entry>
  <entry producer="producer45" in="00:00:46.800" out="00:00:48.133">
   <property name="kdenlive:id">3</property>
  </entry>
  <entry producer="producer45" in="00:00:58.200" out="00:01:02.667">
   <property name="kdenlive:id">3</property>
  </entry>
  <entry producer="producer46" in="00:00:13.333" out="00:00:17.267">
   <property name="kdenlive:id">6</property>
  </entry>
  <entry producer="producer46" in="00:00:19.133" out="00:00:20.733">
   <property name="kdenlive:id">6</property>
  </entry>
  <entry producer="producer46" in="00:00:23.767" out="00:00:30.667">
   <property name="kdenlive:id">6</property>
  </entry>
  <entry producer="producer47" in="00:00:47.967" out="00:00:58.767">
   <property name="kdenlive:id">7</property>
  </entry>
  <entry producer="producer48" in="00:00:08.700" out="00:00:14.100">
   <property name="kdenlive:id">8</property>
  </entry>
  <entry producer="producer48" in="00:00:14.333" out="00:00:16.033">
   <property name="kdenlive:id">8</property>
  </entry>
  <entry producer="producer48" in="00:00:41.100" out="00:00:42.767">
   <property name="kdenlive:id">8</property>
  </entry>
  <entry producer="producer48" in="00:02:10.700" out="00:02:25.267">
   <property name="kdenlive:id">8</property>
  </entry>
  <entry producer="producer49" in="00:00:00.000" out="00:00:03.367">
   <property name="kdenlive:id">9</property>
  </entry>
  <entry producer="producer49" in="00:00:06.933" out="00:00:21.000">
   <property name="kdenlive:id">9</property>
   <filter id="filter14">
    <property name="window">75</property>
    <property name="max_gain">20dB</property>
    <property name="level">00:00:06.933=0;00:00:08.433=-0.629755;00:00:10.367=10;00:00:15.733=10.1706;00:00:15.833=-0.296927</property>
    <property name="mlt_service">volume</property>
    <property name="kdenlive_id">volume</property>
    <property name="kdenlive:collapsed">0</property>
   </filter>
  </entry>
  <entry producer="producer50" in="00:00:36.167" out="00:00:45.000">
   <property name="kdenlive:id">11</property>
  </entry>
  <entry producer="producer51" in="00:00:00.000" out="00:00:07.400">
   <property name="kdenlive:id">12</property>
  </entry>
  <entry producer="producer51" in="00:00:11.700" out="00:00:17.700">
   <property name="kdenlive:id">12</property>
  </entry>
  <entry producer="producer52" in="00:00:00.000" out="00:00:00.767">
   <property name="kdenlive:id">23</property>
  </entry>
  <entry producer="producer52" in="00:00:00.800" out="00:00:01.100">
   <property name="kdenlive:id">23</property>
  </entry>
  <entry producer="producer52" in="00:00:01.133" out="00:00:02.067">
   <property name="kdenlive:id">23</property>
  </entry>
  <entry producer="producer52" in="00:00:00.700" out="00:00:01.200">
   <property name="kdenlive:id">23</property>
  </entry>
  <entry producer="producer52" in="00:00:14.800" out="00:00:21.800">
   <property name="kdenlive:id">23</property>
   <filter id="filter15" in="00:00:14.800" out="00:00:14.867">
    <property name="window">75</property>
    <property name="max_gain">20dB</property>
    <property name="mlt_service">volume</property>
    <property name="kdenlive_id">fadein</property>
    <property name="gain">0</property>
    <property name="end">1</property>
    <property name="kdenlive:collapsed">0</property>
   </filter>
   <filter id="filter16">
    <property name="window">75</property>
    <property name="max_gain">20dB</property>
    <property name="level">00:00:14.800=0;00:00:16.733=0;00:00:17.000=5.34806</property>
    <property name="mlt_service">volume</property>
    <property name="kdenlive_id">volume</property>
    <property name="kdenlive:collapsed">0</property>
   </filter>
  </entry>
  <entry producer="producer53" in="00:00:37.833" out="00:00:45.433">
   <property name="kdenlive:id">24</property>
  </entry>
  <entry producer="producer54" in="00:00:01.033" out="00:00:05.000">
   <property name="kdenlive:id">26</property>
  </entry>
  <entry producer="producer55" in="00:00:32.900" out="00:00:44.300">
   <property name="kdenlive:id">27</property>
  </entry>
  <entry producer="producer56" in="00:00:02.733" out="00:00:17.333">
   <property name="kdenlive:id">31</property>
  </entry>
  <entry producer="producer57" in="00:00:40.067" out="00:00:48.900">
   <property name="kdenlive:id">30</property>
  </entry>
  <entry producer="producer58" in="00:00:05.433" out="00:00:11.467">
   <property name="kdenlive:id">35</property>
   <filter id="filter17">
    <property name="window">75</property>
    <property name="max_gain">20dB</property>
    <property name="level">00:00:05.433=10</property>
    <property name="mlt_service">volume</property>
    <property name="kdenlive_id">volume</property>
    <property name="kdenlive:collapsed">0</property>
   </filter>
  </entry>
  <entry producer="producer59" in="00:00:16.800" out="00:00:24.967">
   <property name="kdenlive:id">42</property>
  </entry>
  <entry producer="producer60" in="00:00:00.000" out="00:00:06.233">
   <property name="kdenlive:id">34</property>
  </entry>
  <entry producer="producer60" in="00:00:09.933" out="00:00:17.600">
   <property name="kdenlive:id">34</property>
  </entry>
  <entry producer="producer60" in="00:00:17.900" out="00:00:23.433">
   <property name="kdenlive:id">34</property>
  </entry>
  <entry producer="producer60" in="00:00:33.733" out="00:00:38.433">
   <property name="kdenlive:id">34</property>
  </entry>
  <entry producer="producer61" in="00:00:01.200" out="00:00:13.067">
   <property name="kdenlive:id">13</property>
   <filter id="filter18">
    <property name="window">75</property>
    <property name="max_gain">20dB</property>
    <property name="level">00:00:01.200=0;00:00:07.533=0;00:00:08.100=10</property>
    <property name="mlt_service">volume</property>
    <property name="kdenlive_id">volume</property>
    <property name="kdenlive:collapsed">0</property>
   </filter>
  </entry>
  <entry producer="producer62" in="00:00:19.567" out="00:00:25.100">
   <property name="kdenlive:id">14</property>
  </entry>
  <entry producer="producer63" in="00:00:10.733" out="00:00:19.900">
   <property name="kdenlive:id">15</property>
  </entry>
  <entry producer="producer64" in="00:00:50.433" out="00:01:25.967">
   <property name="kdenlive:id">18</property>
  </entry>
  <entry producer="producer65" in="00:00:53.833" out="00:00:55.900">
   <property name="kdenlive:id">19</property>
  </entry>
  <entry producer="producer65" in="00:00:57.967" out="00:01:23.867">
   <property name="kdenlive:id">19</property>
  </entry>
  <entry producer="producer65" in="00:01:46.300" out="00:01:55.767">
   <property name="kdenlive:id">19</property>
  </entry>
  <entry producer="producer65" in="00:01:57.200" out="00:01:59.700">
   <property name="kdenlive:id">19</property>
  </entry>
  <blank length="00:00:09.700"/>
  <entry producer="producer66" in="00:00:08.600" out="00:00:33.767">
   <property name="kdenlive:id">22</property>
   <filter id="filter19" in="00:00:08.600" out="00:00:09.900">
    <property name="window">75</property>
    <property name="max_gain">20dB</property>
    <property name="mlt_service">volume</property>
    <property name="kdenlive_id">fadein</property>
    <property name="gain">0</property>
    <property name="end">1</property>
    <property name="kdenlive:collapsed">0</property>
   </filter>
   <filter id="filter20" in="00:00:32.767" out="00:00:33.767">
    <property name="window">75</property>
    <property name="max_gain">20dB</property>
    <property name="mlt_service">volume</property>
    <property name="kdenlive_id">fadeout</property>
    <property name="gain">1</property>
    <property name="end">0</property>
    <property name="kdenlive:collapsed">0</property>
   </filter>
  </entry>
 </playlist>
 <playlist id="playlist7">
  <property name="kdenlive:audio_track">1</property>
 </playlist>
 <tractor id="tractor3" in="00:00:00.000" out="00:05:41.200">
  <property name="kdenlive:audio_track">1</property>
  <property name="kdenlive:trackheight">69</property>
  <property name="kdenlive:timeline_active">0</property>
  <property name="kdenlive:collapsed">0</property>
  <property name="kdenlive:thumbs_format"/>
  <property name="kdenlive:audio_rec"/>
  <track hide="video" producer="playlist6"/>
  <track hide="video" producer="playlist7"/>
  <filter id="filter21">
   <property name="window">75</property>
   <property name="max_gain">20dB</property>
   <property name="mlt_service">volume</property>
   <property name="internal_added">237</property>
   <property name="disable">1</property>
  </filter>
  <filter id="filter22">
   <property name="channel">-1</property>
   <property name="mlt_service">panner</property>
   <property name="internal_added">237</property>
   <property name="start">0.5</property>
   <property name="disable">1</property>
  </filter>
  <filter id="filter23">
   <property name="iec_scale">0</property>
   <property name="mlt_service">audiolevel</property>
   <property name="disable">1</property>
  </filter>
 </tractor>
 <producer id="producer67" in="00:00:00.000" out="00:01:02.667">
  <property name="length">1881</property>
  <property name="eof">pause</property>
  <property name="resource">videos/PXL_20220330_090506422.TS.mp4</property>
  <property name="audio_index">1</property>
  <property name="video_index">2</property>
  <property name="mute_on_pause">0</property>
  <property name="mlt_service">avformat-novalidate</property>
  <property name="seekable">1</property>
  <property name="aspect_ratio">1</property>
  <property name="kdenlive:clipname"/>
  <property name="kdenlive:folderid">2</property>
  <property name="kdenlive:id">3</property>
  <property name="kdenlive:file_size">155548311</property>
  <property name="kdenlive:file_hash">6696e3d75c72ea844163777db7ddcf10</property>
  <property name="kdenlive:audio_max1">224</property>
  <property name="xml">was here</property>
  <property name="meta.media.nb_streams">4</property>
  <property name="meta.media.1.stream.type">audio</property>
  <property name="meta.media.1.codec.sample_fmt">fltp</property>
  <property name="meta.media.1.codec.sample_rate">48000</property>
  <property name="meta.media.1.codec.channels">2</property>
  <property name="meta.media.1.codec.name">aac</property>
  <property name="meta.media.1.codec.long_name">AAC (Advanced Audio Coding)</property>
  <property name="meta.media.1.codec.bit_rate">191919</property>
  <property name="meta.attr.1.stream.creation_time.markup">2022-03-30T09:06:15.000000Z</property>
  <property name="meta.attr.1.stream.language.markup">eng</property>
  <property name="meta.attr.1.stream.handler_name.markup">SoundHandle</property>
  <property name="meta.media.2.stream.type">video</property>
  <property name="meta.media.2.stream.frame_rate">30.013</property>
  <property name="meta.media.2.stream.sample_aspect_ratio">1</property>
  <property name="meta.media.2.codec.width">1920</property>
  <property name="meta.media.2.codec.height">1080</property>
  <property name="meta.media.2.codec.rotate">0</property>
  <property name="meta.media.2.codec.pix_fmt">yuvj420p</property>
  <property name="meta.media.2.codec.sample_aspect_ratio">0</property>
  <property name="meta.media.2.codec.colorspace">709</property>
  <property name="meta.media.2.codec.color_trc">1</property>
  <property name="meta.media.2.codec.name">hevc</property>
  <property name="meta.media.2.codec.long_name">HEVC (High Efficiency Video Coding)</property>
  <property name="meta.media.2.codec.bit_rate">19621546</property>
  <property name="meta.attr.2.stream.creation_time.markup">2022-03-30T09:06:15.000000Z</property>
  <property name="meta.attr.2.stream.language.markup">eng</property>
  <property name="meta.attr.2.stream.handler_name.markup">VideoHandle</property>
  <property name="meta.attr.major_brand.markup">isom</property>
  <property name="meta.attr.minor_version.markup">131072</property>
  <property name="meta.attr.compatible_brands.markup">isomiso2mp41</property>
  <property name="meta.attr.creation_time.markup">2022-03-30T09:06:15.000000Z</property>
  <property name="meta.attr.location.markup">+52.7185+4.6578/</property>
  <property name="meta.attr.location-eng.markup">+52.7185+4.6578/</property>
  <property name="meta.attr.com.android.capture.fps.markup">30.000000</property>
  <property name="meta.media.sample_aspect_num">1</property>
  <property name="meta.media.sample_aspect_den">1</property>
  <property name="meta.media.frame_rate_num">84690000</property>
  <property name="meta.media.frame_rate_den">2821777</property>
  <property name="meta.media.colorspace">709</property>
  <property name="meta.media.color_trc">1</property>
  <property name="meta.media.has_b_frames">0</property>
  <property name="meta.media.width">1920</property>
  <property name="meta.media.height">1080</property>
  <property name="meta.media.color_range">full</property>
  <property name="meta.media.variable_frame_rate">1</property>
  <property name="meta.media.top_field_first">0</property>
  <property name="meta.media.progressive">1</property>
  <property name="set.test_audio">1</property>
  <property name="set.test_image">0</property>
 </producer>
 <producer id="producer68" in="00:00:00.000" out="00:00:30.667">
  <property name="length">921</property>
  <property name="eof">pause</property>
  <property name="resource">videos/PXL_20220330_090719070.TS.mp4</property>
  <property name="audio_index">1</property>
  <property name="video_index">2</property>
  <property name="mute_on_pause">0</property>
  <property name="mlt_service">avformat-novalidate</property>
  <property name="seekable">1</property>
  <property name="aspect_ratio">1</property>
  <property name="kdenlive:clipname"/>
  <property name="kdenlive:folderid">2</property>
  <property name="kdenlive:file_size">76220773</property>
  <property name="kdenlive:id">6</property>
  <property name="kdenlive:file_hash">56a1c02312f771231019b02a32caa5da</property>
  <property name="kdenlive:audio_max1">208</property>
  <property name="xml">was here</property>
  <property name="meta.media.nb_streams">4</property>
  <property name="meta.media.1.stream.type">audio</property>
  <property name="meta.media.1.codec.sample_fmt">fltp</property>
  <property name="meta.media.1.codec.sample_rate">48000</property>
  <property name="meta.media.1.codec.channels">2</property>
  <property name="meta.media.1.codec.name">aac</property>
  <property name="meta.media.1.codec.long_name">AAC (Advanced Audio Coding)</property>
  <property name="meta.media.1.codec.bit_rate">191839</property>
  <property name="meta.attr.1.stream.creation_time.markup">2022-03-30T09:07:51.000000Z</property>
  <property name="meta.attr.1.stream.language.markup">eng</property>
  <property name="meta.attr.1.stream.handler_name.markup">SoundHandle</property>
  <property name="meta.media.2.stream.type">video</property>
  <property name="meta.media.2.stream.frame_rate">29.9973</property>
  <property name="meta.media.2.stream.sample_aspect_ratio">1</property>
  <property name="meta.media.2.codec.width">1920</property>
  <property name="meta.media.2.codec.height">1080</property>
  <property name="meta.media.2.codec.rotate">0</property>
  <property name="meta.media.2.codec.pix_fmt">yuvj420p</property>
  <property name="meta.media.2.codec.sample_aspect_ratio">0</property>
  <property name="meta.media.2.codec.colorspace">709</property>
  <property name="meta.media.2.codec.color_trc">1</property>
  <property name="meta.media.2.codec.name">hevc</property>
  <property name="meta.media.2.codec.long_name">HEVC (High Efficiency Video Coding)</property>
  <property name="meta.media.2.codec.bit_rate">19620620</property>
  <property name="meta.attr.2.stream.creation_time.markup">2022-03-30T09:07:51.000000Z</property>
  <property name="meta.attr.2.stream.language.markup">eng</property>
  <property name="meta.attr.2.stream.handler_name.markup">VideoHandle</property>
  <property name="meta.attr.major_brand.markup">isom</property>
  <property name="meta.attr.minor_version.markup">131072</property>
  <property name="meta.attr.compatible_brands.markup">isomiso2mp41</property>
  <property name="meta.attr.creation_time.markup">2022-03-30T09:07:51.000000Z</property>
  <property name="meta.attr.location.markup">+52.7181+4.6581/</property>
  <property name="meta.attr.location-eng.markup">+52.7181+4.6581/</property>
  <property name="meta.attr.com.android.capture.fps.markup">30.000000</property>
  <property name="meta.media.sample_aspect_num">1</property>
  <property name="meta.media.sample_aspect_den">1</property>
  <property name="meta.media.frame_rate_num">2302500</property>
  <property name="meta.media.frame_rate_den">76757</property>
  <property name="meta.media.colorspace">709</property>
  <property name="meta.media.color_trc">1</property>
  <property name="meta.media.has_b_frames">0</property>
  <property name="meta.media.width">1920</property>
  <property name="meta.media.height">1080</property>
  <property name="meta.media.color_range">full</property>
  <property name="set.test_audio">1</property>
  <property name="set.test_image">0</property>
  <property name="meta.media.variable_frame_rate">1</property>
  <property name="meta.media.top_field_first">0</property>
  <property name="meta.media.progressive">1</property>
 </producer>
 <producer id="producer69" in="00:00:00.000" out="00:01:03.400">
  <property name="length">1903</property>
  <property name="eof">pause</property>
  <property name="resource">videos/PXL_20220330_090801425.TS.mp4</property>
  <property name="audio_index">1</property>
  <property name="video_index">2</property>
  <property name="mute_on_pause">0</property>
  <property name="mlt_service">avformat-novalidate</property>
  <property name="seekable">1</property>
  <property name="aspect_ratio">1</property>
  <property name="kdenlive:clipname"/>
  <property name="kdenlive:folderid">2</property>
  <property name="kdenlive:id">7</property>
  <property name="kdenlive:file_size">157512481</property>
  <property name="kdenlive:file_hash">3042f6620848219663cde2132fcbb733</property>
  <property name="kdenlive:audio_max1">203</property>
  <property name="xml">was here</property>
  <property name="meta.media.nb_streams">4</property>
  <property name="meta.media.1.stream.type">audio</property>
  <property name="meta.media.1.codec.sample_fmt">fltp</property>
  <property name="meta.media.1.codec.sample_rate">48000</property>
  <property name="meta.media.1.codec.channels">2</property>
  <property name="meta.media.1.codec.name">aac</property>
  <property name="meta.media.1.codec.long_name">AAC (Advanced Audio Coding)</property>
  <property name="meta.media.1.codec.bit_rate">191932</property>
  <property name="meta.attr.1.stream.creation_time.markup">2022-03-30T09:09:06.000000Z</property>
  <property name="meta.attr.1.stream.language.markup">eng</property>
  <property name="meta.attr.1.stream.handler_name.markup">SoundHandle</property>
  <property name="meta.media.2.stream.type">video</property>
  <property name="meta.media.2.stream.frame_rate">29.9971</property>
  <property name="meta.media.2.stream.sample_aspect_ratio">1</property>
  <property name="meta.media.2.codec.width">1920</property>
  <property name="meta.media.2.codec.height">1080</property>
  <property name="meta.media.2.codec.rotate">0</property>
  <property name="meta.media.2.codec.pix_fmt">yuvj420p</property>
  <property name="meta.media.2.codec.sample_aspect_ratio">0</property>
  <property name="meta.media.2.codec.colorspace">709</property>
  <property name="meta.media.2.codec.color_trc">1</property>
  <property name="meta.media.2.codec.name">hevc</property>
  <property name="meta.media.2.codec.long_name">HEVC (High Efficiency Video Coding)</property>
  <property name="meta.media.2.codec.bit_rate">19623544</property>
  <property name="meta.attr.2.stream.creation_time.markup">2022-03-30T09:09:06.000000Z</property>
  <property name="meta.attr.2.stream.language.markup">eng</property>
  <property name="meta.attr.2.stream.handler_name.markup">VideoHandle</property>
  <property name="meta.attr.major_brand.markup">isom</property>
  <property name="meta.attr.minor_version.markup">131072</property>
  <property name="meta.attr.compatible_brands.markup">isomiso2mp41</property>
  <property name="meta.attr.creation_time.markup">2022-03-30T09:09:06.000000Z</property>
  <property name="meta.attr.location.markup">+52.7181+4.6581/</property>
  <property name="meta.attr.location-eng.markup">+52.7181+4.6581/</property>
  <property name="meta.attr.com.android.capture.fps.markup">30.000000</property>
  <property name="meta.media.sample_aspect_num">1</property>
  <property name="meta.media.sample_aspect_den">1</property>
  <property name="meta.media.frame_rate_num">171270000</property>
  <property name="meta.media.frame_rate_den">5709553</property>
  <property name="meta.media.colorspace">709</property>
  <property name="meta.media.color_trc">1</property>
  <property name="meta.media.has_b_frames">0</property>
  <property name="meta.media.width">1920</property>
  <property name="meta.media.height">1080</property>
  <property name="meta.media.color_range">full</property>
  <property name="set.test_audio">1</property>
  <property name="set.test_image">0</property>
  <property name="meta.media.variable_frame_rate">1</property>
  <property name="meta.media.top_field_first">0</property>
  <property name="meta.media.progressive">1</property>
 </producer>
 <producer id="producer70" in="00:00:00.000" out="00:00:11.033">
  <property name="length">332</property>
  <property name="eof">pause</property>
  <property name="resource">videos/catch-cam/20220330_110849.mp4</property>
  <property name="audio_index">1</property>
  <property name="video_index">0</property>
  <property name="mute_on_pause">0</property>
  <property name="mlt_service">avformat-novalidate</property>
  <property name="seekable">1</property>
  <property name="aspect_ratio">1</property>
  <property name="kdenlive:clipname"/>
  <property name="kdenlive:folderid">38</property>
  <property name="kdenlive:id">40</property>
  <property name="kdenlive:file_size">19976503</property>
  <property name="kdenlive:file_hash">e86fa8fc6b343a535b534faf979f8837</property>
  <property name="kdenlive:audio_max1">97</property>
  <property name="xml">was here</property>
  <property name="meta.media.nb_streams">2</property>
  <property name="meta.media.0.stream.type">video</property>
  <property name="meta.media.0.stream.frame_rate">30.0043</property>
  <property name="meta.media.0.stream.sample_aspect_ratio">0</property>
  <property name="meta.media.0.codec.width">1920</property>
  <property name="meta.media.0.codec.height">1080</property>
  <property name="meta.media.0.codec.rotate">0</property>
  <property name="meta.media.0.codec.pix_fmt">yuv420p</property>
  <property name="meta.media.0.codec.sample_aspect_ratio">0</property>
  <property name="meta.media.0.codec.colorspace">709</property>
  <property name="meta.media.0.codec.color_trc">1</property>
  <property name="meta.media.0.codec.name">h264</property>
  <property name="meta.media.0.codec.long_name">H.264 / AVC / MPEG-4 AVC / MPEG-4 part 10</property>
  <property name="meta.media.0.codec.bit_rate">14181927</property>
  <property name="meta.attr.0.stream.creation_time.markup">2022-03-30T09:09:01.000000Z</property>
  <property name="meta.attr.0.stream.language.markup">eng</property>
  <property name="meta.attr.0.stream.handler_name.markup">VideoHandle</property>
  <property name="meta.media.1.stream.type">audio</property>
  <property name="meta.media.1.codec.sample_fmt">fltp</property>
  <property name="meta.media.1.codec.sample_rate">48000</property>
  <property name="meta.media.1.codec.channels">2</property>
  <property name="meta.media.1.codec.name">aac</property>
  <property name="meta.media.1.codec.long_name">AAC (Advanced Audio Coding)</property>
  <property name="meta.media.1.codec.bit_rate">256230</property>
  <property name="meta.attr.1.stream.creation_time.markup">2022-03-30T09:09:01.000000Z</property>
  <property name="meta.attr.1.stream.language.markup">eng</property>
  <property name="meta.attr.1.stream.handler_name.markup">SoundHandle</property>
  <property name="meta.attr.major_brand.markup">mp42</property>
  <property name="meta.attr.minor_version.markup">0</property>
  <property name="meta.attr.compatible_brands.markup">isommp42</property>
  <property name="meta.attr.creation_time.markup">2022-03-30T09:09:01.000000Z</property>
  <property name="meta.attr.com.android.version.markup">12</property>
  <property name="meta.attr.com.android.capture.fps.markup">30.000000</property>
  <property name="meta.media.sample_aspect_num">1</property>
  <property name="meta.media.sample_aspect_den">1</property>
  <property name="meta.media.frame_rate_num">29880000</property>
  <property name="meta.media.frame_rate_den">995857</property>
  <property name="meta.media.colorspace">709</property>
  <property name="meta.media.color_trc">1</property>
  <property name="meta.media.has_b_frames">0</property>
  <property name="meta.media.width">1920</property>
  <property name="meta.media.height">1080</property>
  <property name="meta.media.color_range">mpeg</property>
  <property name="meta.media.variable_frame_rate">1</property>
  <property name="meta.media.top_field_first">0</property>
  <property name="meta.media.progressive">1</property>
  <property name="set.test_audio">1</property>
  <property name="set.test_image">0</property>
 </producer>
 <producer id="producer71" in="00:00:00.000" out="00:02:25.267">
  <property name="length">4359</property>
  <property name="eof">pause</property>
  <property name="resource">videos/PXL_20220330_091005061.TS.mp4</property>
  <property name="audio_index">1</property>
  <property name="video_index">2</property>
  <property name="mute_on_pause">0</property>
  <property name="mlt_service">avformat-novalidate</property>
  <property name="seekable">1</property>
  <property name="aspect_ratio">1</property>
  <property name="kdenlive:clipname"/>
  <property name="kdenlive:folderid">2</property>
  <property name="kdenlive:id">8</property>
  <property name="kdenlive:file_size">359727619</property>
  <property name="kdenlive:file_hash">19d3f558e48b734b4aa5e1b47cd00ba7</property>
  <property name="kdenlive:audio_max1">213</property>
  <property name="xml">was here</property>
  <property name="meta.media.nb_streams">4</property>
  <property name="meta.media.1.stream.type">audio</property>
  <property name="meta.media.1.codec.sample_fmt">fltp</property>
  <property name="meta.media.1.codec.sample_rate">48000</property>
  <property name="meta.media.1.codec.channels">2</property>
  <property name="meta.media.1.codec.name">aac</property>
  <property name="meta.media.1.codec.long_name">AAC (Advanced Audio Coding)</property>
  <property name="meta.media.1.codec.bit_rate">191995</property>
  <property name="meta.attr.1.stream.creation_time.markup">2022-03-30T09:12:32.000000Z</property>
  <property name="meta.attr.1.stream.language.markup">eng</property>
  <property name="meta.attr.1.stream.handler_name.markup">SoundHandle</property>
  <property name="meta.media.2.stream.type">video</property>
  <property name="meta.media.2.stream.frame_rate">29.9971</property>
  <property name="meta.media.2.stream.sample_aspect_ratio">1</property>
  <property name="meta.media.2.codec.width">1920</property>
  <property name="meta.media.2.codec.height">1080</property>
  <property name="meta.media.2.codec.rotate">0</property>
  <property name="meta.media.2.codec.pix_fmt">yuvj420p</property>
  <property name="meta.media.2.codec.sample_aspect_ratio">0</property>
  <property name="meta.media.2.codec.colorspace">709</property>
  <property name="meta.media.2.codec.color_trc">1</property>
  <property name="meta.media.2.codec.name">hevc</property>
  <property name="meta.media.2.codec.long_name">HEVC (High Efficiency Video Coding)</property>
  <property name="meta.media.2.codec.bit_rate">19564778</property>
  <property name="meta.attr.2.stream.creation_time.markup">2022-03-30T09:12:32.000000Z</property>
  <property name="meta.attr.2.stream.language.markup">eng</property>
  <property name="meta.attr.2.stream.handler_name.markup">VideoHandle</property>
  <property name="meta.attr.major_brand.markup">isom</property>
  <property name="meta.attr.minor_version.markup">131072</property>
  <property name="meta.attr.compatible_brands.markup">isomiso2mp41</property>
  <property name="meta.attr.creation_time.markup">2022-03-30T09:12:32.000000Z</property>
  <property name="meta.attr.location.markup">+52.7186+4.6579/</property>
  <property name="meta.attr.location-eng.markup">+52.7186+4.6579/</property>
  <property name="meta.attr.com.android.capture.fps.markup">30.000000</property>
  <property name="meta.media.sample_aspect_num">1</property>
  <property name="meta.media.sample_aspect_den">1</property>
  <property name="meta.media.frame_rate_num">8173125</property>
  <property name="meta.media.frame_rate_den">272464</property>
  <property name="meta.media.colorspace">709</property>
  <property name="meta.media.color_trc">1</property>
  <property name="meta.media.has_b_frames">0</property>
  <property name="meta.media.width">1920</property>
  <property name="meta.media.height">1080</property>
  <property name="meta.media.color_range">full</property>
  <property name="set.test_audio">1</property>
  <property name="set.test_image">0</property>
  <property name="meta.media.variable_frame_rate">1</property>
  <property name="meta.media.top_field_first">0</property>
  <property name="meta.media.progressive">1</property>
 </producer>
 <producer id="producer72" in="00:00:00.000" out="00:00:24.833">
  <property name="length">746</property>
  <property name="eof">pause</property>
  <property name="resource">videos/PXL_20220330_091355697.TS.mp4</property>
  <property name="audio_index">1</property>
  <property name="video_index">2</property>
  <property name="mute_on_pause">0</property>
  <property name="mlt_service">avformat-novalidate</property>
  <property name="seekable">1</property>
  <property name="aspect_ratio">1</property>
  <property name="kdenlive:clipname"/>
  <property name="kdenlive:folderid">2</property>
  <property name="kdenlive:id">9</property>
  <property name="kdenlive:file_size">61905963</property>
  <property name="kdenlive:file_hash">3155feb02096d406b0d74f4064ad0436</property>
  <property name="kdenlive:audio_max1">204</property>
  <property name="xml">was here</property>
  <property name="meta.media.nb_streams">4</property>
  <property name="meta.media.1.stream.type">audio</property>
  <property name="meta.media.1.codec.sample_fmt">fltp</property>
  <property name="meta.media.1.codec.sample_rate">48000</property>
  <property name="meta.media.1.codec.channels">2</property>
  <property name="meta.media.1.codec.name">aac</property>
  <property name="meta.media.1.codec.long_name">AAC (Advanced Audio Coding)</property>
  <property name="meta.media.1.codec.bit_rate">191836</property>
  <property name="meta.attr.1.stream.creation_time.markup">2022-03-30T09:14:21.000000Z</property>
  <property name="meta.attr.1.stream.language.markup">eng</property>
  <property name="meta.attr.1.stream.handler_name.markup">SoundHandle</property>
  <property name="meta.media.2.stream.type">video</property>
  <property name="meta.media.2.stream.frame_rate">29.9752</property>
  <property name="meta.media.2.stream.sample_aspect_ratio">1</property>
  <property name="meta.media.2.codec.width">1920</property>
  <property name="meta.media.2.codec.height">1080</property>
  <property name="meta.media.2.codec.rotate">0</property>
  <property name="meta.media.2.codec.pix_fmt">yuvj420p</property>
  <property name="meta.media.2.codec.sample_aspect_ratio">0</property>
  <property name="meta.media.2.codec.colorspace">709</property>
  <property name="meta.media.2.codec.color_trc">1</property>
  <property name="meta.media.2.codec.name">hevc</property>
  <property name="meta.media.2.codec.long_name">HEVC (High Efficiency Video Coding)</property>
  <property name="meta.media.2.codec.bit_rate">19694781</property>
  <property name="meta.attr.2.stream.creation_time.markup">2022-03-30T09:14:21.000000Z</property>
  <property name="meta.attr.2.stream.language.markup">eng</property>
  <property name="meta.attr.2.stream.handler_name.markup">VideoHandle</property>
  <property name="meta.attr.major_brand.markup">isom</property>
  <property name="meta.attr.minor_version.markup">131072</property>
  <property name="meta.attr.compatible_brands.markup">isomiso2mp41</property>
  <property name="meta.attr.creation_time.markup">2022-03-30T09:14:21.000000Z</property>
  <property name="meta.attr.location.markup">+52.7185+4.6583/</property>
  <property name="meta.attr.location-eng.markup">+52.7185+4.6583/</property>
  <property name="meta.attr.com.android.capture.fps.markup">30.000000</property>
  <property name="meta.media.sample_aspect_num">1</property>
  <property name="meta.media.sample_aspect_den">1</property>
  <property name="meta.media.frame_rate_num">67050000</property>
  <property name="meta.media.frame_rate_den">2236849</property>
  <property name="meta.media.colorspace">709</property>
  <property name="meta.media.color_trc">1</property>
  <property name="meta.media.has_b_frames">0</property>
  <property name="meta.media.width">1920</property>
  <property name="meta.media.height">1080</property>
  <property name="meta.media.color_range">full</property>
  <property name="set.test_audio">1</property>
  <property name="set.test_image">0</property>
  <property name="meta.media.variable_frame_rate">1</property>
  <property name="meta.media.top_field_first">0</property>
  <property name="meta.media.progressive">1</property>
 </producer>
 <producer id="producer73" in="00:00:00.000" out="00:00:53.000">
  <property name="length">1591</property>
  <property name="eof">pause</property>
  <property name="resource">videos/PXL_20220330_091548488.TS.mp4</property>
  <property name="audio_index">1</property>
  <property name="video_index">2</property>
  <property name="mute_on_pause">0</property>
  <property name="mlt_service">avformat-novalidate</property>
  <property name="seekable">1</property>
  <property name="aspect_ratio">1</property>
  <property name="kdenlive:clipname"/>
  <property name="kdenlive:folderid">2</property>
  <property name="kdenlive:id">11</property>
  <property name="kdenlive:file_size">132004145</property>
  <property name="kdenlive:file_hash">7b09b69968c81fcc0691d3292d56d1b6</property>
  <property name="kdenlive:audio_max1">208</property>
  <property name="xml">was here</property>
  <property name="meta.media.nb_streams">4</property>
  <property name="meta.media.1.stream.type">audio</property>
  <property name="meta.media.1.codec.sample_fmt">fltp</property>
  <property name="meta.media.1.codec.sample_rate">48000</property>
  <property name="meta.media.1.codec.channels">2</property>
  <property name="meta.media.1.codec.name">aac</property>
  <property name="meta.media.1.codec.long_name">AAC (Advanced Audio Coding)</property>
  <property name="meta.media.1.codec.bit_rate">191943</property>
  <property name="meta.attr.1.stream.creation_time.markup">2022-03-30T09:16:43.000000Z</property>
  <property name="meta.attr.1.stream.language.markup">eng</property>
  <property name="meta.attr.1.stream.handler_name.markup">SoundHandle</property>
  <property name="meta.media.2.stream.type">video</property>
  <property name="meta.media.2.stream.frame_rate">29.9972</property>
  <property name="meta.media.2.stream.sample_aspect_ratio">1</property>
  <property name="meta.media.2.codec.width">1920</property>
  <property name="meta.media.2.codec.height">1080</property>
  <property name="meta.media.2.codec.rotate">0</property>
  <property name="meta.media.2.codec.pix_fmt">yuvj420p</property>
  <property name="meta.media.2.codec.sample_aspect_ratio">0</property>
  <property name="meta.media.2.codec.colorspace">709</property>
  <property name="meta.media.2.codec.color_trc">1</property>
  <property name="meta.media.2.codec.name">hevc</property>
  <property name="meta.media.2.codec.long_name">HEVC (High Efficiency Video Coding)</property>
  <property name="meta.media.2.codec.bit_rate">19665114</property>
  <property name="meta.attr.2.stream.creation_time.markup">2022-03-30T09:16:43.000000Z</property>
  <property name="meta.attr.2.stream.language.markup">eng</property>
  <property name="meta.attr.2.stream.handler_name.markup">VideoHandle</property>
  <property name="meta.attr.major_brand.markup">isom</property>
  <property name="meta.attr.minor_version.markup">131072</property>
  <property name="meta.attr.compatible_brands.markup">isomiso2mp41</property>
  <property name="meta.attr.creation_time.markup">2022-03-30T09:16:43.000000Z</property>
  <property name="meta.attr.location.markup">+52.7185+4.6583/</property>
  <property name="meta.attr.location-eng.markup">+52.7185+4.6583/</property>
  <property name="meta.attr.com.android.capture.fps.markup">30.000000</property>
  <property name="meta.media.sample_aspect_num">1</property>
  <property name="meta.media.sample_aspect_den">1</property>
  <property name="meta.media.frame_rate_num">28638000</property>
  <property name="meta.media.frame_rate_den">954689</property>
  <property name="meta.media.colorspace">709</property>
  <property name="meta.media.color_trc">1</property>
  <property name="meta.media.has_b_frames">0</property>
  <property name="meta.media.width">1920</property>
  <property name="meta.media.height">1080</property>
  <property name="meta.media.color_range">full</property>
  <property name="set.test_audio">1</property>
  <property name="set.test_image">0</property>
  <property name="meta.media.variable_frame_rate">1</property>
  <property name="meta.media.top_field_first">0</property>
  <property name="meta.media.progressive">1</property>
 </producer>
 <producer id="producer74" in="00:00:00.000" out="00:00:19.833">
  <property name="length">596</property>
  <property name="eof">pause</property>
  <property name="resource">videos/PXL_20220330_091706441.TS.mp4</property>
  <property name="audio_index">0</property>
  <property name="video_index">2</property>
  <property name="mute_on_pause">0</property>
  <property name="mlt_service">avformat-novalidate</property>
  <property name="seekable">1</property>
  <property name="aspect_ratio">1</property>
  <property name="kdenlive:clipname"/>
  <property name="kdenlive:folderid">2</property>
  <property name="kdenlive:id">12</property>
  <property name="kdenlive:file_size">49456143</property>
  <property name="kdenlive:file_hash">4387ab30c14abc8347ee73c8516b52fe</property>
  <property name="kdenlive:audio_max0">210</property>
  <property name="xml">was here</property>
  <property name="meta.media.nb_streams">4</property>
  <property name="meta.media.0.stream.type">audio</property>
  <property name="meta.media.0.codec.sample_fmt">fltp</property>
  <property name="meta.media.0.codec.sample_rate">48000</property>
  <property name="meta.media.0.codec.channels">2</property>
  <property name="meta.media.0.codec.name">aac</property>
  <property name="meta.media.0.codec.long_name">AAC (Advanced Audio Coding)</property>
  <property name="meta.media.0.codec.bit_rate">191799</property>
  <property name="meta.attr.0.stream.creation_time.markup">2022-03-30T09:17:30.000000Z</property>
  <property name="meta.attr.0.stream.language.markup">eng</property>
  <property name="meta.attr.0.stream.handler_name.markup">SoundHandle</property>
  <property name="meta.media.2.stream.type">video</property>
  <property name="meta.media.2.stream.frame_rate">29.9976</property>
  <property name="meta.media.2.stream.sample_aspect_ratio">1</property>
  <property name="meta.media.2.codec.width">1920</property>
  <property name="meta.media.2.codec.height">1080</property>
  <property name="meta.media.2.codec.rotate">0</property>
  <property name="meta.media.2.codec.pix_fmt">yuvj420p</property>
  <property name="meta.media.2.codec.sample_aspect_ratio">0</property>
  <property name="meta.media.2.codec.colorspace">709</property>
  <property name="meta.media.2.codec.color_trc">1</property>
  <property name="meta.media.2.codec.name">hevc</property>
  <property name="meta.media.2.codec.long_name">HEVC (High Efficiency Video Coding)</property>
  <property name="meta.media.2.codec.bit_rate">19673697</property>
  <property name="meta.attr.2.stream.creation_time.markup">2022-03-30T09:17:30.000000Z</property>
  <property name="meta.attr.2.stream.language.markup">eng</property>
  <property name="meta.attr.2.stream.handler_name.markup">VideoHandle</property>
  <property name="meta.attr.major_brand.markup">isom</property>
  <property name="meta.attr.minor_version.markup">131072</property>
  <property name="meta.attr.compatible_brands.markup">isomiso2mp41</property>
  <property name="meta.attr.creation_time.markup">2022-03-30T09:17:30.000000Z</property>
  <property name="meta.attr.location.markup">+52.7415+4.6575/</property>
  <property name="meta.attr.location-eng.markup">+52.7415+4.6575/</property>
  <property name="meta.attr.com.android.capture.fps.markup">30.000000</property>
  <property name="meta.media.sample_aspect_num">1</property>
  <property name="meta.media.sample_aspect_den">1</property>
  <property name="meta.media.frame_rate_num">17880000</property>
  <property name="meta.media.frame_rate_den">596047</property>
  <property name="meta.media.colorspace">709</property>
  <property name="meta.media.color_trc">1</property>
  <property name="meta.media.has_b_frames">0</property>
  <property name="meta.media.width">1920</property>
  <property name="meta.media.height">1080</property>
  <property name="meta.media.color_range">full</property>
  <property name="set.test_audio">1</property>
  <property name="set.test_image">0</property>
  <property name="meta.media.variable_frame_rate">1</property>
  <property name="meta.media.top_field_first">0</property>
  <property name="meta.media.progressive">1</property>
 </producer>
 <producer id="producer75" in="00:00:00.000" out="00:00:23.233">
  <property name="length">698</property>
  <property name="eof">pause</property>
  <property name="resource">videos/PXL_20220330_092912682.TS.mp4</property>
  <property name="audio_index">1</property>
  <property name="video_index">2</property>
  <property name="mute_on_pause">0</property>
  <property name="mlt_service">avformat-novalidate</property>
  <property name="seekable">1</property>
  <property name="aspect_ratio">1</property>
  <property name="kdenlive:clipname"/>
  <property name="kdenlive:folderid">2</property>
  <property name="kdenlive:id">23</property>
  <property name="kdenlive:file_size">57927386</property>
  <property name="kdenlive:file_hash">020daccf26b2b0c16b004044ed978b8e</property>
  <property name="kdenlive:audio_max1">205</property>
  <property name="xml">was here</property>
  <property name="meta.media.nb_streams">4</property>
  <property name="meta.media.1.stream.type">audio</property>
  <property name="meta.media.1.codec.sample_fmt">fltp</property>
  <property name="meta.media.1.codec.sample_rate">48000</property>
  <property name="meta.media.1.codec.channels">2</property>
  <property name="meta.media.1.codec.name">aac</property>
  <property name="meta.media.1.codec.long_name">AAC (Advanced Audio Coding)</property>
  <property name="meta.media.1.codec.bit_rate">191943</property>
  <property name="meta.attr.1.stream.creation_time.markup">2022-03-30T09:29:37.000000Z</property>
  <property name="meta.attr.1.stream.language.markup">eng</property>
  <property name="meta.attr.1.stream.handler_name.markup">SoundHandle</property>
  <property name="meta.media.2.stream.type">video</property>
  <property name="meta.media.2.stream.frame_rate">29.9971</property>
  <property name="meta.media.2.stream.sample_aspect_ratio">1</property>
  <property name="meta.media.2.codec.width">1920</property>
  <property name="meta.media.2.codec.height">1080</property>
  <property name="meta.media.2.codec.rotate">0</property>
  <property name="meta.media.2.codec.pix_fmt">yuvj420p</property>
  <property name="meta.media.2.codec.sample_aspect_ratio">0</property>
  <property name="meta.media.2.codec.colorspace">709</property>
  <property name="meta.media.2.codec.color_trc">1</property>
  <property name="meta.media.2.codec.name">hevc</property>
  <property name="meta.media.2.codec.long_name">HEVC (High Efficiency Video Coding)</property>
  <property name="meta.media.2.codec.bit_rate">19676085</property>
  <property name="meta.attr.2.stream.creation_time.markup">2022-03-30T09:29:37.000000Z</property>
  <property name="meta.attr.2.stream.language.markup">eng</property>
  <property name="meta.attr.2.stream.handler_name.markup">VideoHandle</property>
  <property name="meta.attr.major_brand.markup">isom</property>
  <property name="meta.attr.minor_version.markup">131072</property>
  <property name="meta.attr.compatible_brands.markup">isomiso2mp41</property>
  <property name="meta.attr.creation_time.markup">2022-03-30T09:29:37.000000Z</property>
  <property name="meta.attr.location.markup">+52.7185+4.6581/</property>
  <property name="meta.attr.location-eng.markup">+52.7185+4.6581/</property>
  <property name="meta.attr.com.android.capture.fps.markup">30.000000</property>
  <property name="meta.media.sample_aspect_num">1</property>
  <property name="meta.media.sample_aspect_den">1</property>
  <property name="meta.media.frame_rate_num">5235000</property>
  <property name="meta.media.frame_rate_den">174517</property>
  <property name="meta.media.colorspace">709</property>
  <property name="meta.media.color_trc">1</property>
  <property name="meta.media.has_b_frames">0</property>
  <property name="meta.media.width">1920</property>
  <property name="meta.media.height">1080</property>
  <property name="meta.media.color_range">full</property>
  <property name="set.test_audio">1</property>
  <property name="set.test_image">0</property>
  <property name="meta.media.variable_frame_rate">1</property>
  <property name="meta.media.top_field_first">0</property>
  <property name="meta.media.progressive">1</property>
 </producer>
 <producer id="producer76" in="00:00:00.000" out="00:01:02.400">
  <property name="length">1873</property>
  <property name="eof">pause</property>
  <property name="resource">videos/PXL_20220330_092942158.TS.mp4</property>
  <property name="audio_index">1</property>
  <property name="video_index">2</property>
  <property name="mute_on_pause">0</property>
  <property name="mlt_service">avformat-novalidate</property>
  <property name="seekable">1</property>
  <property name="aspect_ratio">1</property>
  <property name="kdenlive:clipname"/>
  <property name="kdenlive:folderid">2</property>
  <property name="kdenlive:id">24</property>
  <property name="kdenlive:file_size">154863943</property>
  <property name="kdenlive:file_hash">79c547848bdde96d2864e28f023dec74</property>
  <property name="kdenlive:audio_max1">161</property>
  <property name="xml">was here</property>
  <property name="meta.media.nb_streams">4</property>
  <property name="meta.media.1.stream.type">audio</property>
  <property name="meta.media.1.codec.sample_fmt">fltp</property>
  <property name="meta.media.1.codec.sample_rate">48000</property>
  <property name="meta.media.1.codec.channels">2</property>
  <property name="meta.media.1.codec.name">aac</property>
  <property name="meta.media.1.codec.long_name">AAC (Advanced Audio Coding)</property>
  <property name="meta.media.1.codec.bit_rate">191936</property>
  <property name="meta.attr.1.stream.creation_time.markup">2022-03-30T09:30:45.000000Z</property>
  <property name="meta.attr.1.stream.language.markup">eng</property>
  <property name="meta.attr.1.stream.handler_name.markup">SoundHandle</property>
  <property name="meta.media.2.stream.type">video</property>
  <property name="meta.media.2.stream.frame_rate">29.9971</property>
  <property name="meta.media.2.stream.sample_aspect_ratio">1</property>
  <property name="meta.media.2.codec.width">1920</property>
  <property name="meta.media.2.codec.height">1080</property>
  <property name="meta.media.2.codec.rotate">0</property>
  <property name="meta.media.2.codec.pix_fmt">yuvj420p</property>
  <property name="meta.media.2.codec.sample_aspect_ratio">0</property>
  <property name="meta.media.2.codec.colorspace">709</property>
  <property name="meta.media.2.codec.color_trc">1</property>
  <property name="meta.media.2.codec.name">hevc</property>
  <property name="meta.media.2.codec.long_name">HEVC (High Efficiency Video Coding)</property>
  <property name="meta.media.2.codec.bit_rate">19602114</property>
  <property name="meta.attr.2.stream.creation_time.markup">2022-03-30T09:30:45.000000Z</property>
  <property name="meta.attr.2.stream.language.markup">eng</property>
  <property name="meta.attr.2.stream.handler_name.markup">VideoHandle</property>
  <property name="meta.attr.major_brand.markup">isom</property>
  <property name="meta.attr.minor_version.markup">131072</property>
  <property name="meta.attr.compatible_brands.markup">isomiso2mp41</property>
  <property name="meta.attr.creation_time.markup">2022-03-30T09:30:45.000000Z</property>
  <property name="meta.attr.location.markup">+52.7185+4.6581/</property>
  <property name="meta.attr.location-eng.markup">+52.7185+4.6581/</property>
  <property name="meta.attr.com.android.capture.fps.markup">30.000000</property>
  <property name="meta.media.sample_aspect_num">1</property>
  <property name="meta.media.sample_aspect_den">1</property>
  <property name="meta.media.frame_rate_num">3511875</property>
  <property name="meta.media.frame_rate_den">117074</property>
  <property name="meta.media.colorspace">709</property>
  <property name="meta.media.color_trc">1</property>
  <property name="meta.media.has_b_frames">0</property>
  <property name="meta.media.width">1920</property>
  <property name="meta.media.height">1080</property>
  <property name="meta.media.color_range">full</property>
  <property name="set.test_audio">1</property>
  <property name="set.test_image">0</property>
  <property name="meta.media.variable_frame_rate">1</property>
  <property name="meta.media.top_field_first">0</property>
  <property name="meta.media.progressive">1</property>
 </producer>
 <producer id="producer77" in="00:00:00.000" out="00:00:05.000">
  <property name="length">151</property>
  <property name="eof">pause</property>
  <property name="resource">videos/PXL_20220330_093208845.TS.mp4</property>
  <property name="audio_index">0</property>
  <property name="video_index">2</property>
  <property name="mute_on_pause">0</property>
  <property name="mlt_service">avformat-novalidate</property>
  <property name="seekable">1</property>
  <property name="aspect_ratio">1</property>
  <property name="kdenlive:clipname"/>
  <property name="kdenlive:folderid">2</property>
  <property name="kdenlive:id">26</property>
  <property name="kdenlive:file_size">12763628</property>
  <property name="kdenlive:file_hash">b9cb3733b0cc7e2541505ede57e0da63</property>
  <property name="kdenlive:audio_max0">198</property>
  <property name="xml">was here</property>
  <property name="meta.media.nb_streams">4</property>
  <property name="meta.media.0.stream.type">audio</property>
  <property name="meta.media.0.codec.sample_fmt">fltp</property>
  <property name="meta.media.0.codec.sample_rate">48000</property>
  <property name="meta.media.0.codec.channels">2</property>
  <property name="meta.media.0.codec.name">aac</property>
  <property name="meta.media.0.codec.long_name">AAC (Advanced Audio Coding)</property>
  <property name="meta.media.0.codec.bit_rate">191208</property>
  <property name="meta.attr.0.stream.creation_time.markup">2022-03-30T09:32:18.000000Z</property>
  <property name="meta.attr.0.stream.language.markup">eng</property>
  <property name="meta.attr.0.stream.handler_name.markup">SoundHandle</property>
  <property name="meta.media.2.stream.type">video</property>
  <property name="meta.media.2.stream.frame_rate">29.9983</property>
  <property name="meta.media.2.stream.sample_aspect_ratio">1</property>
  <property name="meta.media.2.codec.width">1920</property>
  <property name="meta.media.2.codec.height">1080</property>
  <property name="meta.media.2.codec.rotate">0</property>
  <property name="meta.media.2.codec.pix_fmt">yuvj420p</property>
  <property name="meta.media.2.codec.sample_aspect_ratio">0</property>
  <property name="meta.media.2.codec.colorspace">709</property>
  <property name="meta.media.2.codec.color_trc">1</property>
  <property name="meta.media.2.codec.name">hevc</property>
  <property name="meta.media.2.codec.long_name">HEVC (High Efficiency Video Coding)</property>
  <property name="meta.media.2.codec.bit_rate">20044655</property>
  <property name="meta.attr.2.stream.creation_time.markup">2022-03-30T09:32:18.000000Z</property>
  <property name="meta.attr.2.stream.language.markup">eng</property>
  <property name="meta.attr.2.stream.handler_name.markup">VideoHandle</property>
  <property name="meta.attr.major_brand.markup">isom</property>
  <property name="meta.attr.minor_version.markup">131072</property>
  <property name="meta.attr.compatible_brands.markup">isomiso2mp41</property>
  <property name="meta.attr.creation_time.markup">2022-03-30T09:32:18.000000Z</property>
  <property name="meta.attr.location.markup">+52.7185+4.6577/</property>
  <property name="meta.attr.location-eng.markup">+52.7185+4.6577/</property>
  <property name="meta.attr.com.android.capture.fps.markup">30.000000</property>
  <property name="meta.media.sample_aspect_num">1</property>
  <property name="meta.media.sample_aspect_den">1</property>
  <property name="meta.media.frame_rate_num">6795000</property>
  <property name="meta.media.frame_rate_den">226513</property>
  <property name="meta.media.colorspace">709</property>
  <property name="meta.media.color_trc">1</property>
  <property name="meta.media.has_b_frames">0</property>
  <property name="meta.media.width">1920</property>
  <property name="meta.media.height">1080</property>
  <property name="meta.media.color_range">full</property>
  <property name="set.test_audio">1</property>
  <property name="set.test_image">0</property>
  <property name="meta.media.variable_frame_rate">1</property>
  <property name="meta.media.top_field_first">0</property>
  <property name="meta.media.progressive">1</property>
 </producer>
 <producer id="producer78" in="00:00:00.000" out="00:00:45.133">
  <property name="length">1355</property>
  <property name="eof">pause</property>
  <property name="resource">videos/PXL_20220330_093249682.TS.mp4</property>
  <property name="audio_index">1</property>
  <property name="video_index">2</property>
  <property name="mute_on_pause">0</property>
  <property name="mlt_service">avformat-novalidate</property>
  <property name="seekable">1</property>
  <property name="aspect_ratio">1</property>
  <property name="kdenlive:clipname"/>
  <property name="kdenlive:folderid">2</property>
  <property name="kdenlive:id">27</property>
  <property name="kdenlive:file_size">112059644</property>
  <property name="kdenlive:file_hash">4783add9f29b6034cc7fa4922d758ff5</property>
  <property name="kdenlive:audio_max1">190</property>
  <property name="xml">was here</property>
  <property name="meta.media.nb_streams">4</property>
  <property name="meta.media.1.stream.type">audio</property>
  <property name="meta.media.1.codec.sample_fmt">fltp</property>
  <property name="meta.media.1.codec.sample_rate">48000</property>
  <property name="meta.media.1.codec.channels">2</property>
  <property name="meta.media.1.codec.name">aac</property>
  <property name="meta.media.1.codec.long_name">AAC (Advanced Audio Coding)</property>
  <property name="meta.media.1.codec.bit_rate">191950</property>
  <property name="meta.attr.1.stream.creation_time.markup">2022-03-30T09:33:36.000000Z</property>
  <property name="meta.attr.1.stream.language.markup">eng</property>
  <property name="meta.attr.1.stream.handler_name.markup">SoundHandle</property>
  <property name="meta.media.2.stream.type">video</property>
  <property name="meta.media.2.stream.frame_rate">29.9973</property>
  <property name="meta.media.2.stream.sample_aspect_ratio">1</property>
  <property name="meta.media.2.codec.width">1920</property>
  <property name="meta.media.2.codec.height">1080</property>
  <property name="meta.media.2.codec.rotate">0</property>
  <property name="meta.media.2.codec.pix_fmt">yuvj420p</property>
  <property name="meta.media.2.codec.sample_aspect_ratio">0</property>
  <property name="meta.media.2.codec.colorspace">709</property>
  <property name="meta.media.2.codec.color_trc">1</property>
  <property name="meta.media.2.codec.name">hevc</property>
  <property name="meta.media.2.codec.long_name">HEVC (High Efficiency Video Coding)</property>
  <property name="meta.media.2.codec.bit_rate">19604197</property>
  <property name="meta.attr.2.stream.creation_time.markup">2022-03-30T09:33:36.000000Z</property>
  <property name="meta.attr.2.stream.language.markup">eng</property>
  <property name="meta.attr.2.stream.handler_name.markup">VideoHandle</property>
  <property name="meta.attr.major_brand.markup">isom</property>
  <property name="meta.attr.minor_version.markup">131072</property>
  <property name="meta.attr.compatible_brands.markup">isomiso2mp41</property>
  <property name="meta.attr.creation_time.markup">2022-03-30T09:33:36.000000Z</property>
  <property name="meta.attr.location.markup">+52.7185+4.6577/</property>
  <property name="meta.attr.location-eng.markup">+52.7185+4.6577/</property>
  <property name="meta.attr.com.android.capture.fps.markup">30.000000</property>
  <property name="meta.media.sample_aspect_num">1</property>
  <property name="meta.media.sample_aspect_den">1</property>
  <property name="meta.media.frame_rate_num">121950000</property>
  <property name="meta.media.frame_rate_den">4065361</property>
  <property name="meta.media.colorspace">709</property>
  <property name="meta.media.color_trc">1</property>
  <property name="meta.media.has_b_frames">0</property>
  <property name="meta.media.width">1920</property>
  <property name="meta.media.height">1080</property>
  <property name="meta.media.color_range">full</property>
  <property name="set.test_audio">1</property>
  <property name="set.test_image">0</property>
  <property name="meta.media.variable_frame_rate">1</property>
  <property name="meta.media.top_field_first">0</property>
  <property name="meta.media.progressive">1</property>
 </producer>
 <producer id="producer79" in="00:00:00.000" out="00:00:23.367">
  <property name="length">702</property>
  <property name="eof">pause</property>
  <property name="resource">videos/PXL_20220330_093618729.TS.mp4</property>
  <property name="audio_index">1</property>
  <property name="video_index">2</property>
  <property name="mute_on_pause">0</property>
  <property name="mlt_service">avformat-novalidate</property>
  <property name="seekable">1</property>
  <property name="aspect_ratio">1</property>
  <property name="kdenlive:clipname"/>
  <property name="kdenlive:folderid">2</property>
  <property name="kdenlive:id">31</property>
  <property name="kdenlive:file_size">58257553</property>
  <property name="kdenlive:file_hash">c127b40e4e3a3182208160217d7868c1</property>
  <property name="kdenlive:audio_max1">206</property>
  <property name="xml">was here</property>
  <property name="meta.media.nb_streams">4</property>
  <property name="meta.media.1.stream.type">audio</property>
  <property name="meta.media.1.codec.sample_fmt">fltp</property>
  <property name="meta.media.1.codec.sample_rate">48000</property>
  <property name="meta.media.1.codec.channels">2</property>
  <property name="meta.media.1.codec.name">aac</property>
  <property name="meta.media.1.codec.long_name">AAC (Advanced Audio Coding)</property>
  <property name="meta.media.1.codec.bit_rate">191828</property>
  <property name="meta.attr.1.stream.creation_time.markup">2022-03-30T09:36:43.000000Z</property>
  <property name="meta.attr.1.stream.language.markup">eng</property>
  <property name="meta.attr.1.stream.handler_name.markup">SoundHandle</property>
  <property name="meta.media.2.stream.type">video</property>
  <property name="meta.media.2.stream.frame_rate">29.9973</property>
  <property name="meta.media.2.stream.sample_aspect_ratio">1</property>
  <property name="meta.media.2.codec.width">1920</property>
  <property name="meta.media.2.codec.height">1080</property>
  <property name="meta.media.2.codec.rotate">0</property>
  <property name="meta.media.2.codec.pix_fmt">yuvj420p</property>
  <property name="meta.media.2.codec.sample_aspect_ratio">0</property>
  <property name="meta.media.2.codec.colorspace">709</property>
  <property name="meta.media.2.codec.color_trc">1</property>
  <property name="meta.media.2.codec.name">hevc</property>
  <property name="meta.media.2.codec.long_name">HEVC (High Efficiency Video Coding)</property>
  <property name="meta.media.2.codec.bit_rate">19675639</property>
  <property name="meta.attr.2.stream.creation_time.markup">2022-03-30T09:36:43.000000Z</property>
  <property name="meta.attr.2.stream.language.markup">eng</property>
  <property name="meta.attr.2.stream.handler_name.markup">VideoHandle</property>
  <property name="meta.attr.major_brand.markup">isom</property>
  <property name="meta.attr.minor_version.markup">131072</property>
  <property name="meta.attr.compatible_brands.markup">isomiso2mp41</property>
  <property name="meta.attr.creation_time.markup">2022-03-30T09:36:43.000000Z</property>
  <property name="meta.attr.location.markup">+52.7178+4.6571/</property>
  <property name="meta.attr.location-eng.markup">+52.7178+4.6571/</property>
  <property name="meta.attr.com.android.capture.fps.markup">30.000000</property>
  <property name="meta.media.sample_aspect_num">1</property>
  <property name="meta.media.sample_aspect_den">1</property>
  <property name="meta.media.frame_rate_num">1316250</property>
  <property name="meta.media.frame_rate_den">43879</property>
  <property name="meta.media.colorspace">709</property>
  <property name="meta.media.color_trc">1</property>
  <property name="meta.media.has_b_frames">0</property>
  <property name="meta.media.width">1920</property>
  <property name="meta.media.height">1080</property>
  <property name="meta.media.color_range">full</property>
  <property name="set.test_audio">1</property>
  <property name="set.test_image">0</property>
  <property name="meta.media.variable_frame_rate">1</property>
  <property name="meta.media.top_field_first">0</property>
  <property name="meta.media.progressive">1</property>
 </producer>
 <producer id="producer80" in="00:00:00.000" out="00:00:46.967">
  <property name="length">1410</property>
  <property name="eof">pause</property>
  <property name="resource">videos/catch-cam/20220330_113525.mp4</property>
  <property name="audio_index">1</property>
  <property name="video_index">0</property>
  <property name="mute_on_pause">0</property>
  <property name="mlt_service">avformat-novalidate</property>
  <property name="seekable">1</property>
  <property name="aspect_ratio">1</property>
  <property name="kdenlive:clipname"/>
  <property name="kdenlive:folderid">38</property>
  <property name="kdenlive:id">41</property>
  <property name="kdenlive:file_size">83222914</property>
  <property name="kdenlive:file_hash">a2504c0dd89071f456933b9c49f38210</property>
  <property name="kdenlive:audio_max1">192</property>
  <property name="xml">was here</property>
  <property name="meta.media.nb_streams">2</property>
  <property name="meta.media.0.stream.type">video</property>
  <property name="meta.media.0.stream.frame_rate">29.8802</property>
  <property name="meta.media.0.stream.sample_aspect_ratio">0</property>
  <property name="meta.media.0.codec.width">1920</property>
  <property name="meta.media.0.codec.height">1080</property>
  <property name="meta.media.0.codec.rotate">0</property>
  <property name="meta.media.0.codec.pix_fmt">yuv420p</property>
  <property name="meta.media.0.codec.sample_aspect_ratio">0</property>
  <property name="meta.media.0.codec.colorspace">709</property>
  <property name="meta.media.0.codec.color_trc">1</property>
  <property name="meta.media.0.codec.name">h264</property>
  <property name="meta.media.0.codec.long_name">H.264 / AVC / MPEG-4 AVC / MPEG-4 part 10</property>
  <property name="meta.media.0.codec.bit_rate">13908219</property>
  <property name="meta.attr.0.stream.creation_time.markup">2022-03-30T09:36:13.000000Z</property>
  <property name="meta.attr.0.stream.language.markup">eng</property>
  <property name="meta.attr.0.stream.handler_name.markup">VideoHandle</property>
  <property name="meta.media.1.stream.type">audio</property>
  <property name="meta.media.1.codec.sample_fmt">fltp</property>
  <property name="meta.media.1.codec.sample_rate">48000</property>
  <property name="meta.media.1.codec.channels">2</property>
  <property name="meta.media.1.codec.name">aac</property>
  <property name="meta.media.1.codec.long_name">AAC (Advanced Audio Coding)</property>
  <property name="meta.media.1.codec.bit_rate">256058</property>
  <property name="meta.attr.1.stream.creation_time.markup">2022-03-30T09:36:13.000000Z</property>
  <property name="meta.attr.1.stream.language.markup">eng</property>
  <property name="meta.attr.1.stream.handler_name.markup">SoundHandle</property>
  <property name="meta.attr.major_brand.markup">mp42</property>
  <property name="meta.attr.minor_version.markup">0</property>
  <property name="meta.attr.compatible_brands.markup">isommp42</property>
  <property name="meta.attr.creation_time.markup">2022-03-30T09:36:13.000000Z</property>
  <property name="meta.attr.com.android.version.markup">12</property>
  <property name="meta.attr.com.android.capture.fps.markup">30.000000</property>
  <property name="meta.media.sample_aspect_num">1</property>
  <property name="meta.media.sample_aspect_den">1</property>
  <property name="meta.media.frame_rate_num">126360000</property>
  <property name="meta.media.frame_rate_den">4228891</property>
  <property name="meta.media.colorspace">709</property>
  <property name="meta.media.color_trc">1</property>
  <property name="meta.media.has_b_frames">0</property>
  <property name="meta.media.width">1920</property>
  <property name="meta.media.height">1080</property>
  <property name="meta.media.color_range">mpeg</property>
  <property name="meta.media.variable_frame_rate">1</property>
  <property name="meta.media.top_field_first">0</property>
  <property name="meta.media.progressive">1</property>
  <property name="set.test_audio">1</property>
  <property name="set.test_image">0</property>
 </producer>
 <producer id="producer83" in="00:00:00.000" out="00:00:13.600">
  <property name="length">409</property>
  <property name="eof">pause</property>
  <property name="resource">videos/PXL_20220330_095847376.TS.mp4</property>
  <property name="audio_index">1</property>
  <property name="video_index">2</property>
  <property name="mute_on_pause">0</property>
  <property name="mlt_service">avformat-novalidate</property>
  <property name="seekable">1</property>
  <property name="aspect_ratio">1</property>
  <property name="kdenlive:clipname"/>
  <property name="kdenlive:folderid">2</property>
  <property name="kdenlive:id">35</property>
  <property name="kdenlive:file_size">34500025</property>
  <property name="kdenlive:file_hash">1859af1c5b2975abc4a97eb2de560dcc</property>
  <property name="kdenlive:audio_max1">197</property>
  <property name="xml">was here</property>
  <property name="meta.media.nb_streams">4</property>
  <property name="meta.media.1.stream.type">audio</property>
  <property name="meta.media.1.codec.sample_fmt">fltp</property>
  <property name="meta.media.1.codec.sample_rate">48000</property>
  <property name="meta.media.1.codec.channels">2</property>
  <property name="meta.media.1.codec.name">aac</property>
  <property name="meta.media.1.codec.long_name">AAC (Advanced Audio Coding)</property>
  <property name="meta.media.1.codec.bit_rate">191570</property>
  <property name="meta.attr.1.stream.rotate.markup">180</property>
  <property name="meta.attr.1.stream.creation_time.markup">2022-03-30T09:59:05.000000Z</property>
  <property name="meta.attr.1.stream.language.markup">eng</property>
  <property name="meta.attr.1.stream.handler_name.markup">SoundHandle</property>
  <property name="meta.media.2.stream.type">video</property>
  <property name="meta.media.2.stream.frame_rate">29.8635</property>
  <property name="meta.media.2.stream.sample_aspect_ratio">1</property>
  <property name="meta.media.2.codec.width">1920</property>
  <property name="meta.media.2.codec.height">1080</property>
  <property name="meta.media.2.codec.rotate">180</property>
  <property name="meta.media.2.codec.pix_fmt">yuvj420p</property>
  <property name="meta.media.2.codec.sample_aspect_ratio">0</property>
  <property name="meta.media.2.codec.colorspace">709</property>
  <property name="meta.media.2.codec.color_trc">1</property>
  <property name="meta.media.2.codec.name">hevc</property>
  <property name="meta.media.2.codec.long_name">HEVC (High Efficiency Video Coding)</property>
  <property name="meta.media.2.codec.bit_rate">20020494</property>
  <property name="meta.attr.2.stream.rotate.markup">180</property>
  <property name="meta.attr.2.stream.creation_time.markup">2022-03-30T09:59:05.000000Z</property>
  <property name="meta.attr.2.stream.language.markup">eng</property>
  <property name="meta.attr.2.stream.handler_name.markup">VideoHandle</property>
  <property name="meta.attr.major_brand.markup">isom</property>
  <property name="meta.attr.minor_version.markup">131072</property>
  <property name="meta.attr.compatible_brands.markup">isomiso2mp41</property>
  <property name="meta.attr.creation_time.markup">2022-03-30T09:59:05.000000Z</property>
  <property name="meta.attr.location.markup">+52.7190+4.6577/</property>
  <property name="meta.attr.location-eng.markup">+52.7190+4.6577/</property>
  <property name="meta.attr.com.android.capture.fps.markup">30.000000</property>
  <property name="meta.media.sample_aspect_num">1</property>
  <property name="meta.media.sample_aspect_den">1</property>
  <property name="meta.media.frame_rate_num">18315000</property>
  <property name="meta.media.frame_rate_den">613291</property>
  <property name="meta.media.colorspace">709</property>
  <property name="meta.media.color_trc">1</property>
  <property name="meta.media.has_b_frames">0</property>
  <property name="meta.media.width">1920</property>
  <property name="meta.media.height">1080</property>
  <property name="meta.media.color_range">full</property>
  <property name="set.test_audio">1</property>
  <property name="set.test_image">0</property>
  <property name="meta.media.variable_frame_rate">1</property>
  <property name="meta.media.top_field_first">0</property>
  <property name="meta.media.progressive">1</property>
 </producer>
 <producer id="producer81" in="00:00:00.000" out="00:00:46.533">
  <property name="length">1397</property>
  <property name="eof">pause</property>
  <property name="resource">videos/catch-cam/20220330_115905.mp4</property>
  <property name="audio_index">1</property>
  <property name="video_index">0</property>
  <property name="mute_on_pause">0</property>
  <property name="mlt_service">avformat-novalidate</property>
  <property name="seekable">1</property>
  <property name="aspect_ratio">1</property>
  <property name="kdenlive:clipname"/>
  <property name="kdenlive:folderid">38</property>
  <property name="kdenlive:id">42</property>
  <property name="kdenlive:file_size">82560319</property>
  <property name="kdenlive:file_hash">98c43a5c9c2f5acc272dc25f384d2a4e</property>
  <property name="kdenlive:audio_max1">173</property>
  <property name="xml">was here</property>
  <property name="meta.media.nb_streams">2</property>
  <property name="meta.media.0.stream.type">video</property>
  <property name="meta.media.0.stream.frame_rate">30.0043</property>
  <property name="meta.media.0.stream.sample_aspect_ratio">0</property>
  <property name="meta.media.0.codec.width">1920</property>
  <property name="meta.media.0.codec.height">1080</property>
  <property name="meta.media.0.codec.rotate">0</property>
  <property name="meta.media.0.codec.pix_fmt">yuv420p</property>
  <property name="meta.media.0.codec.sample_aspect_ratio">0</property>
  <property name="meta.media.0.codec.colorspace">709</property>
  <property name="meta.media.0.codec.color_trc">1</property>
  <property name="meta.media.0.codec.name">h264</property>
  <property name="meta.media.0.codec.long_name">H.264 / AVC / MPEG-4 AVC / MPEG-4 part 10</property>
  <property name="meta.media.0.codec.bit_rate">13924648</property>
  <property name="meta.attr.0.stream.creation_time.markup">2022-03-30T09:59:53.000000Z</property>
  <property name="meta.attr.0.stream.language.markup">eng</property>
  <property name="meta.attr.0.stream.handler_name.markup">VideoHandle</property>
  <property name="meta.media.1.stream.type">audio</property>
  <property name="meta.media.1.codec.sample_fmt">fltp</property>
  <property name="meta.media.1.codec.sample_rate">48000</property>
  <property name="meta.media.1.codec.channels">2</property>
  <property name="meta.media.1.codec.name">aac</property>
  <property name="meta.media.1.codec.long_name">AAC (Advanced Audio Coding)</property>
  <property name="meta.media.1.codec.bit_rate">256049</property>
  <property name="meta.attr.1.stream.creation_time.markup">2022-03-30T09:59:53.000000Z</property>
  <property name="meta.attr.1.stream.language.markup">eng</property>
  <property name="meta.attr.1.stream.handler_name.markup">SoundHandle</property>
  <property name="meta.attr.major_brand.markup">mp42</property>
  <property name="meta.attr.minor_version.markup">0</property>
  <property name="meta.attr.compatible_brands.markup">isommp42</property>
  <property name="meta.attr.creation_time.markup">2022-03-30T09:59:53.000000Z</property>
  <property name="meta.attr.com.android.version.markup">12</property>
  <property name="meta.attr.com.android.capture.fps.markup">30.000000</property>
  <property name="meta.media.sample_aspect_num">1</property>
  <property name="meta.media.sample_aspect_den">1</property>
  <property name="meta.media.frame_rate_num">2286000</property>
  <property name="meta.media.frame_rate_den">76189</property>
  <property name="meta.media.colorspace">709</property>
  <property name="meta.media.color_trc">1</property>
  <property name="meta.media.has_b_frames">0</property>
  <property name="meta.media.width">1920</property>
  <property name="meta.media.height">1080</property>
  <property name="meta.media.color_range">mpeg</property>
  <property name="meta.media.variable_frame_rate">1</property>
  <property name="meta.media.top_field_first">0</property>
  <property name="meta.media.progressive">1</property>
  <property name="set.test_audio">1</property>
  <property name="set.test_image">0</property>
 </producer>
 <producer id="producer82" in="00:00:00.000" out="00:00:40.367">
  <property name="length">1212</property>
  <property name="eof">pause</property>
  <property name="resource">videos/PXL_20220330_094306109.TS.mp4</property>
  <property name="audio_index">1</property>
  <property name="video_index">2</property>
  <property name="mute_on_pause">0</property>
  <property name="mlt_service">avformat-novalidate</property>
  <property name="seekable">1</property>
  <property name="aspect_ratio">1</property>
  <property name="kdenlive:clipname"/>
  <property name="kdenlive:folderid">2</property>
  <property name="kdenlive:id">34</property>
  <property name="kdenlive:file_size">100077012</property>
  <property name="kdenlive:file_hash">402f1ea492ded7e85bf4ccc58de3586d</property>
  <property name="kdenlive:audio_max1">220</property>
  <property name="xml">was here</property>
  <property name="meta.media.nb_streams">4</property>
  <property name="meta.media.1.stream.type">audio</property>
  <property name="meta.media.1.codec.sample_fmt">fltp</property>
  <property name="meta.media.1.codec.sample_rate">48000</property>
  <property name="meta.media.1.codec.channels">2</property>
  <property name="meta.media.1.codec.name">aac</property>
  <property name="meta.media.1.codec.long_name">AAC (Advanced Audio Coding)</property>
  <property name="meta.media.1.codec.bit_rate">191920</property>
  <property name="meta.attr.1.stream.creation_time.markup">2022-03-30T09:43:50.000000Z</property>
  <property name="meta.attr.1.stream.language.markup">eng</property>
  <property name="meta.attr.1.stream.handler_name.markup">SoundHandle</property>
  <property name="meta.media.2.stream.type">video</property>
  <property name="meta.media.2.stream.frame_rate">29.8802</property>
  <property name="meta.media.2.stream.sample_aspect_ratio">1</property>
  <property name="meta.media.2.codec.width">1920</property>
  <property name="meta.media.2.codec.height">1080</property>
  <property name="meta.media.2.codec.rotate">0</property>
  <property name="meta.media.2.codec.pix_fmt">yuvj420p</property>
  <property name="meta.media.2.codec.sample_aspect_ratio">0</property>
  <property name="meta.media.2.codec.colorspace">709</property>
  <property name="meta.media.2.codec.color_trc">1</property>
  <property name="meta.media.2.codec.name">hevc</property>
  <property name="meta.media.2.codec.long_name">HEVC (High Efficiency Video Coding)</property>
  <property name="meta.media.2.codec.bit_rate">19595829</property>
  <property name="meta.attr.2.stream.creation_time.markup">2022-03-30T09:43:50.000000Z</property>
  <property name="meta.attr.2.stream.language.markup">eng</property>
  <property name="meta.attr.2.stream.handler_name.markup">VideoHandle</property>
  <property name="meta.attr.major_brand.markup">isom</property>
  <property name="meta.attr.minor_version.markup">131072</property>
  <property name="meta.attr.compatible_brands.markup">isomiso2mp41</property>
  <property name="meta.attr.creation_time.markup">2022-03-30T09:43:50.000000Z</property>
  <property name="meta.attr.location.markup">+52.7183+4.6581/</property>
  <property name="meta.attr.location-eng.markup">+52.7183+4.6581/</property>
  <property name="meta.attr.com.android.capture.fps.markup">30.000000</property>
  <property name="meta.media.sample_aspect_num">1</property>
  <property name="meta.media.sample_aspect_den">1</property>
  <property name="meta.media.frame_rate_num">12070000</property>
  <property name="meta.media.frame_rate_den">403947</property>
  <property name="meta.media.colorspace">709</property>
  <property name="meta.media.color_trc">1</property>
  <property name="meta.media.has_b_frames">0</property>
  <property name="meta.media.width">1920</property>
  <property name="meta.media.height">1080</property>
  <property name="meta.media.color_range">full</property>
  <property name="set.test_audio">1</property>
  <property name="set.test_image">0</property>
  <property name="meta.media.variable_frame_rate">1</property>
  <property name="meta.media.top_field_first">0</property>
  <property name="meta.media.progressive">1</property>
 </producer>
 <producer id="producer84" in="00:00:00.000" out="00:00:14.367">
  <property name="length">432</property>
  <property name="eof">pause</property>
  <property name="resource">videos/PXL_20220330_091806519.TS.mp4</property>
  <property name="audio_index">1</property>
  <property name="video_index">2</property>
  <property name="mute_on_pause">0</property>
  <property name="mlt_service">avformat-novalidate</property>
  <property name="seekable">1</property>
  <property name="aspect_ratio">1</property>
  <property name="kdenlive:clipname"/>
  <property name="kdenlive:folderid">2</property>
  <property name="kdenlive:id">13</property>
  <property name="kdenlive:file_size">36141396</property>
  <property name="kdenlive:file_hash">78116776c576a75d65e8ed883ad345c4</property>
  <property name="kdenlive:audio_max1">203</property>
  <property name="xml">was here</property>
  <property name="meta.media.nb_streams">4</property>
  <property name="meta.media.1.stream.type">audio</property>
  <property name="meta.media.1.codec.sample_fmt">fltp</property>
  <property name="meta.media.1.codec.sample_rate">48000</property>
  <property name="meta.media.1.codec.channels">2</property>
  <property name="meta.media.1.codec.name">aac</property>
  <property name="meta.media.1.codec.long_name">AAC (Advanced Audio Coding)</property>
  <property name="meta.media.1.codec.bit_rate">191735</property>
  <property name="meta.attr.1.stream.creation_time.markup">2022-03-30T09:18:22.000000Z</property>
  <property name="meta.attr.1.stream.language.markup">eng</property>
  <property name="meta.attr.1.stream.handler_name.markup">SoundHandle</property>
  <property name="meta.media.2.stream.type">video</property>
  <property name="meta.media.2.stream.frame_rate">29.816</property>
  <property name="meta.media.2.stream.sample_aspect_ratio">1</property>
  <property name="meta.media.2.codec.width">1920</property>
  <property name="meta.media.2.codec.height">1080</property>
  <property name="meta.media.2.codec.rotate">0</property>
  <property name="meta.media.2.codec.pix_fmt">yuvj420p</property>
  <property name="meta.media.2.codec.sample_aspect_ratio">0</property>
  <property name="meta.media.2.codec.colorspace">709</property>
  <property name="meta.media.2.codec.color_trc">1</property>
  <property name="meta.media.2.codec.name">hevc</property>
  <property name="meta.media.2.codec.long_name">HEVC (High Efficiency Video Coding)</property>
  <property name="meta.media.2.codec.bit_rate">19858883</property>
  <property name="meta.attr.2.stream.creation_time.markup">2022-03-30T09:18:22.000000Z</property>
  <property name="meta.attr.2.stream.language.markup">eng</property>
  <property name="meta.attr.2.stream.handler_name.markup">VideoHandle</property>
  <property name="meta.attr.major_brand.markup">isom</property>
  <property name="meta.attr.minor_version.markup">131072</property>
  <property name="meta.attr.compatible_brands.markup">isomiso2mp41</property>
  <property name="meta.attr.creation_time.markup">2022-03-30T09:18:22.000000Z</property>
  <property name="meta.attr.location.markup">+52.7415+4.6575/</property>
  <property name="meta.attr.location-eng.markup">+52.7415+4.6575/</property>
  <property name="meta.attr.com.android.capture.fps.markup">30.000000</property>
  <property name="meta.media.sample_aspect_num">1</property>
  <property name="meta.media.sample_aspect_den">1</property>
  <property name="meta.media.frame_rate_num">12870000</property>
  <property name="meta.media.frame_rate_den">431647</property>
  <property name="meta.media.colorspace">709</property>
  <property name="meta.media.color_trc">1</property>
  <property name="meta.media.has_b_frames">0</property>
  <property name="meta.media.width">1920</property>
  <property name="meta.media.height">1080</property>
  <property name="meta.media.color_range">full</property>
  <property name="set.test_audio">1</property>
  <property name="set.test_image">0</property>
  <property name="meta.media.variable_frame_rate">1</property>
  <property name="meta.media.top_field_first">0</property>
  <property name="meta.media.progressive">1</property>
 </producer>
 <producer id="producer85" in="00:00:00.000" out="00:00:50.200">
  <property name="length">1507</property>
  <property name="eof">pause</property>
  <property name="resource">videos/PXL_20220330_091822973.TS.mp4</property>
  <property name="audio_index">1</property>
  <property name="video_index">2</property>
  <property name="mute_on_pause">0</property>
  <property name="mlt_service">avformat-novalidate</property>
  <property name="seekable">1</property>
  <property name="aspect_ratio">1</property>
  <property name="kdenlive:clipname"/>
  <property name="kdenlive:folderid">2</property>
  <property name="kdenlive:id">14</property>
  <property name="kdenlive:file_size">101871259</property>
  <property name="kdenlive:file_hash">4da6aa016a5279729303a821a64120bc</property>
  <property name="kdenlive:audio_max1">178</property>
  <property name="xml">was here</property>
  <property name="meta.media.nb_streams">4</property>
  <property name="meta.media.1.stream.type">audio</property>
  <property name="meta.media.1.codec.sample_fmt">fltp</property>
  <property name="meta.media.1.codec.sample_rate">48000</property>
  <property name="meta.media.1.codec.channels">2</property>
  <property name="meta.media.1.codec.name">aac</property>
  <property name="meta.media.1.codec.long_name">AAC (Advanced Audio Coding)</property>
  <property name="meta.media.1.codec.bit_rate">191917</property>
  <property name="meta.attr.1.stream.creation_time.markup">2022-03-30T09:19:14.000000Z</property>
  <property name="meta.attr.1.stream.language.markup">eng</property>
  <property name="meta.attr.1.stream.handler_name.markup">SoundHandle</property>
  <property name="meta.media.2.stream.type">video</property>
  <property name="meta.media.2.stream.frame_rate">29.8525</property>
  <property name="meta.media.2.stream.sample_aspect_ratio">1</property>
  <property name="meta.media.2.codec.width">1920</property>
  <property name="meta.media.2.codec.height">1080</property>
  <property name="meta.media.2.codec.rotate">0</property>
  <property name="meta.media.2.codec.pix_fmt">yuvj420p</property>
  <property name="meta.media.2.codec.sample_aspect_ratio">0</property>
  <property name="meta.media.2.codec.colorspace">709</property>
  <property name="meta.media.2.codec.color_trc">1</property>
  <property name="meta.media.2.codec.name">hevc</property>
  <property name="meta.media.2.codec.long_name">HEVC (High Efficiency Video Coding)</property>
  <property name="meta.media.2.codec.bit_rate">15999026</property>
  <property name="meta.attr.2.stream.creation_time.markup">2022-03-30T09:19:14.000000Z</property>
  <property name="meta.attr.2.stream.language.markup">eng</property>
  <property name="meta.attr.2.stream.handler_name.markup">VideoHandle</property>
  <property name="meta.attr.major_brand.markup">isom</property>
  <property name="meta.attr.minor_version.markup">131072</property>
  <property name="meta.attr.compatible_brands.markup">isomiso2mp41</property>
  <property name="meta.attr.creation_time.markup">2022-03-30T09:19:14.000000Z</property>
  <property name="meta.attr.location.markup">+52.7415+4.6575/</property>
  <property name="meta.attr.location-eng.markup">+52.7415+4.6575/</property>
  <property name="meta.attr.com.android.capture.fps.markup">30.000000</property>
  <property name="meta.media.sample_aspect_num">1</property>
  <property name="meta.media.sample_aspect_den">1</property>
  <property name="meta.media.frame_rate_num">67500000</property>
  <property name="meta.media.frame_rate_den">2261119</property>
  <property name="meta.media.colorspace">709</property>
  <property name="meta.media.color_trc">1</property>
  <property name="meta.media.has_b_frames">0</property>
  <property name="meta.media.width">1920</property>
  <property name="meta.media.height">1080</property>
  <property name="meta.media.color_range">full</property>
  <property name="set.test_audio">1</property>
  <property name="set.test_image">0</property>
  <property name="meta.media.variable_frame_rate">1</property>
  <property name="meta.media.top_field_first">0</property>
  <property name="meta.media.progressive">1</property>
 </producer>
 <producer id="producer86" in="00:00:00.000" out="00:00:54.133">
  <property name="length">1625</property>
  <property name="eof">pause</property>
  <property name="resource">videos/PXL_20220330_091915559.TS.mp4</property>
  <property name="audio_index">1</property>
  <property name="video_index">2</property>
  <property name="mute_on_pause">0</property>
  <property name="mlt_service">avformat-novalidate</property>
  <property name="seekable">1</property>
  <property name="aspect_ratio">1</property>
  <property name="kdenlive:clipname"/>
  <property name="kdenlive:folderid">2</property>
  <property name="kdenlive:id">15</property>
  <property name="kdenlive:file_size">133586693</property>
  <property name="kdenlive:file_hash">b2126bfb9e557e34ba92c10405b8cee9</property>
  <property name="kdenlive:audio_max1">210</property>
  <property name="xml">was here</property>
  <property name="meta.media.nb_streams">4</property>
  <property name="meta.media.1.stream.type">audio</property>
  <property name="meta.media.1.codec.sample_fmt">fltp</property>
  <property name="meta.media.1.codec.sample_rate">48000</property>
  <property name="meta.media.1.codec.channels">2</property>
  <property name="meta.media.1.codec.name">aac</property>
  <property name="meta.media.1.codec.long_name">AAC (Advanced Audio Coding)</property>
  <property name="meta.media.1.codec.bit_rate">191956</property>
  <property name="meta.attr.1.stream.creation_time.markup">2022-03-30T09:20:11.000000Z</property>
  <property name="meta.attr.1.stream.language.markup">eng</property>
  <property name="meta.attr.1.stream.handler_name.markup">SoundHandle</property>
  <property name="meta.media.2.stream.type">video</property>
  <property name="meta.media.2.stream.frame_rate">29.8531</property>
  <property name="meta.media.2.stream.sample_aspect_ratio">1</property>
  <property name="meta.media.2.codec.width">1920</property>
  <property name="meta.media.2.codec.height">1080</property>
  <property name="meta.media.2.codec.rotate">0</property>
  <property name="meta.media.2.codec.pix_fmt">yuvj420p</property>
  <property name="meta.media.2.codec.sample_aspect_ratio">0</property>
  <property name="meta.media.2.codec.colorspace">709</property>
  <property name="meta.media.2.codec.color_trc">1</property>
  <property name="meta.media.2.codec.name">hevc</property>
  <property name="meta.media.2.codec.long_name">HEVC (High Efficiency Video Coding)</property>
  <property name="meta.media.2.codec.bit_rate">19510640</property>
  <property name="meta.attr.2.stream.creation_time.markup">2022-03-30T09:20:11.000000Z</property>
  <property name="meta.attr.2.stream.language.markup">eng</property>
  <property name="meta.attr.2.stream.handler_name.markup">VideoHandle</property>
  <property name="meta.attr.major_brand.markup">isom</property>
  <property name="meta.attr.minor_version.markup">131072</property>
  <property name="meta.attr.compatible_brands.markup">isomiso2mp41</property>
  <property name="meta.attr.creation_time.markup">2022-03-30T09:20:11.000000Z</property>
  <property name="meta.attr.location.markup">+52.7415+4.6575/</property>
  <property name="meta.attr.location-eng.markup">+52.7415+4.6575/</property>
  <property name="meta.attr.com.android.capture.fps.markup">30.000000</property>
  <property name="meta.media.sample_aspect_num">1</property>
  <property name="meta.media.sample_aspect_den">1</property>
  <property name="meta.media.frame_rate_num">145530000</property>
  <property name="meta.media.frame_rate_den">4874867</property>
  <property name="meta.media.colorspace">709</property>
  <property name="meta.media.color_trc">1</property>
  <property name="meta.media.has_b_frames">0</property>
  <property name="meta.media.width">1920</property>
  <property name="meta.media.height">1080</property>
  <property name="meta.media.color_range">full</property>
  <property name="set.test_audio">1</property>
  <property name="set.test_image">0</property>
  <property name="meta.media.variable_frame_rate">1</property>
  <property name="meta.media.top_field_first">0</property>
  <property name="meta.media.progressive">1</property>
 </producer>
 <producer id="producer87" in="00:00:00.000" out="00:01:29.533">
  <property name="length">2687</property>
  <property name="eof">pause</property>
  <property name="resource">videos/PXL_20220330_092230489.TS.mp4</property>
  <property name="audio_index">1</property>
  <property name="video_index">2</property>
  <property name="mute_on_pause">0</property>
  <property name="mlt_service">avformat-novalidate</property>
  <property name="seekable">1</property>
  <property name="aspect_ratio">1</property>
  <property name="kdenlive:clipname"/>
  <property name="kdenlive:folderid">2</property>
  <property name="kdenlive:id">18</property>
  <property name="kdenlive:file_size">220877569</property>
  <property name="kdenlive:file_hash">1a3e5c7b930d18b35281791f2c51396a</property>
  <property name="kdenlive:audio_max1">211</property>
  <property name="xml">was here</property>
  <property name="meta.media.nb_streams">4</property>
  <property name="meta.media.1.stream.type">audio</property>
  <property name="meta.media.1.codec.sample_fmt">fltp</property>
  <property name="meta.media.1.codec.sample_rate">48000</property>
  <property name="meta.media.1.codec.channels">2</property>
  <property name="meta.media.1.codec.name">aac</property>
  <property name="meta.media.1.codec.long_name">AAC (Advanced Audio Coding)</property>
  <property name="meta.media.1.codec.bit_rate">191937</property>
  <property name="meta.attr.1.stream.creation_time.markup">2022-03-30T09:24:01.000000Z</property>
  <property name="meta.attr.1.stream.language.markup">eng</property>
  <property name="meta.attr.1.stream.handler_name.markup">SoundHandle</property>
  <property name="meta.media.2.stream.type">video</property>
  <property name="meta.media.2.stream.frame_rate">29.8521</property>
  <property name="meta.media.2.stream.sample_aspect_ratio">1</property>
  <property name="meta.media.2.codec.width">1920</property>
  <property name="meta.media.2.codec.height">1080</property>
  <property name="meta.media.2.codec.rotate">0</property>
  <property name="meta.media.2.codec.pix_fmt">yuvj420p</property>
  <property name="meta.media.2.codec.sample_aspect_ratio">0</property>
  <property name="meta.media.2.codec.colorspace">709</property>
  <property name="meta.media.2.codec.color_trc">1</property>
  <property name="meta.media.2.codec.name">hevc</property>
  <property name="meta.media.2.codec.long_name">HEVC (High Efficiency Video Coding)</property>
  <property name="meta.media.2.codec.bit_rate">19507017</property>
  <property name="meta.attr.2.stream.creation_time.markup">2022-03-30T09:24:01.000000Z</property>
  <property name="meta.attr.2.stream.language.markup">eng</property>
  <property name="meta.attr.2.stream.handler_name.markup">VideoHandle</property>
  <property name="meta.attr.major_brand.markup">isom</property>
  <property name="meta.attr.minor_version.markup">131072</property>
  <property name="meta.attr.compatible_brands.markup">isomiso2mp41</property>
  <property name="meta.attr.creation_time.markup">2022-03-30T09:24:01.000000Z</property>
  <property name="meta.attr.location.markup">+52.7415+4.6575/</property>
  <property name="meta.attr.location-eng.markup">+52.7415+4.6575/</property>
  <property name="meta.attr.com.android.capture.fps.markup">30.000000</property>
  <property name="meta.media.sample_aspect_num">1</property>
  <property name="meta.media.sample_aspect_den">1</property>
  <property name="meta.media.frame_rate_num">12033000</property>
  <property name="meta.media.frame_rate_den">403087</property>
  <property name="meta.media.colorspace">709</property>
  <property name="meta.media.color_trc">1</property>
  <property name="meta.media.has_b_frames">0</property>
  <property name="meta.media.width">1920</property>
  <property name="meta.media.height">1080</property>
  <property name="meta.media.color_range">full</property>
  <property name="set.test_audio">1</property>
  <property name="set.test_image">0</property>
  <property name="meta.media.variable_frame_rate">1</property>
  <property name="meta.media.top_field_first">0</property>
  <property name="meta.media.progressive">1</property>
 </producer>
 <producer id="producer88" in="00:00:00.000" out="00:01:59.700">
  <property name="length">3592</property>
  <property name="eof">pause</property>
  <property name="resource">videos/PXL_20220330_092500844.TS.mp4</property>
  <property name="audio_index">1</property>
  <property name="video_index">2</property>
  <property name="mute_on_pause">0</property>
  <property name="mlt_service">avformat-novalidate</property>
  <property name="seekable">1</property>
  <property name="aspect_ratio">1</property>
  <property name="kdenlive:clipname"/>
  <property name="kdenlive:folderid">2</property>
  <property name="kdenlive:id">19</property>
  <property name="kdenlive:file_size">296354117</property>
  <property name="kdenlive:file_hash">a44147ebe77fa2a43e61052fc3643cdd</property>
  <property name="kdenlive:audio_max1">223</property>
  <property name="xml">was here</property>
  <property name="meta.media.nb_streams">4</property>
  <property name="meta.media.1.stream.type">audio</property>
  <property name="meta.media.1.codec.sample_fmt">fltp</property>
  <property name="meta.media.1.codec.sample_rate">48000</property>
  <property name="meta.media.1.codec.channels">2</property>
  <property name="meta.media.1.codec.name">aac</property>
  <property name="meta.media.1.codec.long_name">AAC (Advanced Audio Coding)</property>
  <property name="meta.media.1.codec.bit_rate">191944</property>
  <property name="meta.attr.1.stream.creation_time.markup">2022-03-30T09:27:19.000000Z</property>
  <property name="meta.attr.1.stream.language.markup">eng</property>
  <property name="meta.attr.1.stream.handler_name.markup">SoundHandle</property>
  <property name="meta.media.2.stream.type">video</property>
  <property name="meta.media.2.stream.frame_rate">29.79</property>
  <property name="meta.media.2.stream.sample_aspect_ratio">1</property>
  <property name="meta.media.2.codec.width">1920</property>
  <property name="meta.media.2.codec.height">1080</property>
  <property name="meta.media.2.codec.rotate">0</property>
  <property name="meta.media.2.codec.pix_fmt">yuvj420p</property>
  <property name="meta.media.2.codec.sample_aspect_ratio">0</property>
  <property name="meta.media.2.codec.colorspace">709</property>
  <property name="meta.media.2.codec.color_trc">1</property>
  <property name="meta.media.2.codec.name">hevc</property>
  <property name="meta.media.2.codec.long_name">HEVC (High Efficiency Video Coding)</property>
  <property name="meta.media.2.codec.bit_rate">19574409</property>
  <property name="meta.attr.2.stream.creation_time.markup">2022-03-30T09:27:19.000000Z</property>
  <property name="meta.attr.2.stream.language.markup">eng</property>
  <property name="meta.attr.2.stream.handler_name.markup">VideoHandle</property>
  <property name="meta.attr.major_brand.markup">isom</property>
  <property name="meta.attr.minor_version.markup">131072</property>
  <property name="meta.attr.compatible_brands.markup">isomiso2mp41</property>
  <property name="meta.attr.creation_time.markup">2022-03-30T09:27:19.000000Z</property>
  <property name="meta.attr.location.markup">+52.7185+4.6581/</property>
  <property name="meta.attr.location-eng.markup">+52.7185+4.6581/</property>
  <property name="meta.attr.com.android.capture.fps.markup">30.000000</property>
  <property name="meta.media.sample_aspect_num">1</property>
  <property name="meta.media.sample_aspect_den">1</property>
  <property name="meta.media.frame_rate_num">2140200</property>
  <property name="meta.media.frame_rate_den">71843</property>
  <property name="meta.media.colorspace">709</property>
  <property name="meta.media.color_trc">1</property>
  <property name="meta.media.has_b_frames">0</property>
  <property name="meta.media.width">1920</property>
  <property name="meta.media.height">1080</property>
  <property name="meta.media.color_range">full</property>
  <property name="set.test_audio">1</property>
  <property name="set.test_image">0</property>
  <property name="meta.media.variable_frame_rate">1</property>
  <property name="meta.media.top_field_first">0</property>
  <property name="meta.media.progressive">1</property>
 </producer>
 <producer id="producer89" in="00:00:00.000" out="00:00:12.567">
  <property name="length">378</property>
  <property name="eof">pause</property>
  <property name="resource">videos/PXL_20220330_092751722.TS.mp4</property>
  <property name="audio_index">1</property>
  <property name="video_index">2</property>
  <property name="mute_on_pause">0</property>
  <property name="mlt_service">avformat-novalidate</property>
  <property name="seekable">1</property>
  <property name="aspect_ratio">1</property>
  <property name="kdenlive:clipname"/>
  <property name="kdenlive:folderid">2</property>
  <property name="kdenlive:id">21</property>
  <property name="kdenlive:file_size">31145423</property>
  <property name="kdenlive:file_hash">196a0d6e64cdab1c993bfaf33700c1b4</property>
  <property name="kdenlive:audio_max1">214</property>
  <property name="xml">was here</property>
  <property name="meta.media.nb_streams">4</property>
  <property name="meta.media.1.stream.type">audio</property>
  <property name="meta.media.1.codec.sample_fmt">fltp</property>
  <property name="meta.media.1.codec.sample_rate">48000</property>
  <property name="meta.media.1.codec.channels">2</property>
  <property name="meta.media.1.codec.name">aac</property>
  <property name="meta.media.1.codec.long_name">AAC (Advanced Audio Coding)</property>
  <property name="meta.media.1.codec.bit_rate">192117</property>
  <property name="meta.attr.1.stream.creation_time.markup">2022-03-30T09:28:05.000000Z</property>
  <property name="meta.attr.1.stream.language.markup">eng</property>
  <property name="meta.attr.1.stream.handler_name.markup">SoundHandle</property>
  <property name="meta.media.2.stream.type">video</property>
  <property name="meta.media.2.stream.frame_rate">30.0146</property>
  <property name="meta.media.2.stream.sample_aspect_ratio">1</property>
  <property name="meta.media.2.codec.width">1920</property>
  <property name="meta.media.2.codec.height">1080</property>
  <property name="meta.media.2.codec.rotate">0</property>
  <property name="meta.media.2.codec.pix_fmt">yuvj420p</property>
  <property name="meta.media.2.codec.sample_aspect_ratio">0</property>
  <property name="meta.media.2.codec.colorspace">709</property>
  <property name="meta.media.2.codec.color_trc">1</property>
  <property name="meta.media.2.codec.name">hevc</property>
  <property name="meta.media.2.codec.long_name">HEVC (High Efficiency Video Coding)</property>
  <property name="meta.media.2.codec.bit_rate">19560055</property>
  <property name="meta.attr.2.stream.creation_time.markup">2022-03-30T09:28:05.000000Z</property>
  <property name="meta.attr.2.stream.language.markup">eng</property>
  <property name="meta.attr.2.stream.handler_name.markup">VideoHandle</property>
  <property name="meta.attr.major_brand.markup">isom</property>
  <property name="meta.attr.minor_version.markup">131072</property>
  <property name="meta.attr.compatible_brands.markup">isomiso2mp41</property>
  <property name="meta.attr.creation_time.markup">2022-03-30T09:28:05.000000Z</property>
  <property name="meta.attr.location.markup">+52.7185+4.6581/</property>
  <property name="meta.attr.location-eng.markup">+52.7185+4.6581/</property>
  <property name="meta.attr.com.android.capture.fps.markup">30.000000</property>
  <property name="meta.media.sample_aspect_num">1</property>
  <property name="meta.media.sample_aspect_den">1</property>
  <property name="meta.media.frame_rate_num">680400</property>
  <property name="meta.media.frame_rate_den">22669</property>
  <property name="meta.media.colorspace">709</property>
  <property name="meta.media.color_trc">1</property>
  <property name="meta.media.has_b_frames">0</property>
  <property name="meta.media.width">1920</property>
  <property name="meta.media.height">1080</property>
  <property name="meta.media.color_range">full</property>
  <property name="set.test_audio">1</property>
  <property name="set.test_image">0</property>
  <property name="meta.media.variable_frame_rate">1</property>
  <property name="meta.media.top_field_first">0</property>
  <property name="meta.media.progressive">1</property>
 </producer>
 <playlist id="playlist8">
  <entry producer="producer67" in="00:00:12.300" out="00:00:18.067">
   <property name="kdenlive:id">3</property>
  </entry>
  <entry producer="producer67" in="00:00:35.867" out="00:00:46.767">
   <property name="kdenlive:id">3</property>
  </entry>
  <entry producer="producer67" in="00:00:46.800" out="00:00:48.133">
   <property name="kdenlive:id">3</property>
  </entry>
  <entry producer="producer67" in="00:00:58.200" out="00:01:02.667">
   <property name="kdenlive:id">3</property>
  </entry>
  <entry producer="producer68" in="00:00:13.333" out="00:00:18.900">
   <property name="kdenlive:id">6</property>
  </entry>
  <entry producer="producer68" in="00:00:23.767" out="00:00:30.667">
   <property name="kdenlive:id">6</property>
  </entry>
  <entry producer="producer69" in="00:00:47.967" out="00:00:50.667">
   <property name="kdenlive:id">7</property>
  </entry>
  <entry producer="producer70" in="00:00:01.800" out="00:00:09.867">
   <property name="kdenlive:id">40</property>
  </entry>
  <entry producer="producer71" in="00:00:37.967" out="00:00:46.800">
   <property name="kdenlive:id">8</property>
  </entry>
  <entry producer="producer71" in="00:02:10.700" out="00:02:25.267">
   <property name="kdenlive:id">8</property>
  </entry>
  <entry producer="producer72" in="00:00:03.533" out="00:00:21.000">
   <property name="kdenlive:id">9</property>
  </entry>
  <entry producer="producer73" in="00:00:36.167" out="00:00:45.000">
   <property name="kdenlive:id">11</property>
  </entry>
  <entry producer="producer74" in="00:00:04.267" out="00:00:17.700">
   <property name="kdenlive:id">12</property>
  </entry>
  <entry producer="producer75" in="00:00:12.733" out="00:00:22.367">
   <property name="kdenlive:id">23</property>
  </entry>
  <entry producer="producer76" in="00:00:37.833" out="00:00:45.433">
   <property name="kdenlive:id">24</property>
  </entry>
  <entry producer="producer77" in="00:00:01.033" out="00:00:05.000">
   <property name="kdenlive:id">26</property>
  </entry>
  <entry producer="producer78" in="00:00:32.900" out="00:00:44.300">
   <property name="kdenlive:id">27</property>
   <filter id="filter24" in="00:00:43.633" out="00:00:44.300">
    <property name="start">1</property>
    <property name="level">1</property>
    <property name="mlt_service">brightness</property>
    <property name="kdenlive_id">fade_to_black</property>
    <property name="alpha">00:00:00.000=1;00:00:00.667=0</property>
   </filter>
  </entry>
  <entry producer="producer79" in="00:00:02.733" out="00:00:17.333">
   <property name="kdenlive:id">31</property>
  </entry>
  <entry producer="producer80" in="00:00:06.100" out="00:00:14.933">
   <property name="kdenlive:id">41</property>
  </entry>
  <entry producer="producer83" in="00:00:05.433" out="00:00:11.467">
   <property name="kdenlive:id">35</property>
  </entry>
  <entry producer="producer81" in="00:00:16.800" out="00:00:24.967">
   <property name="kdenlive:id">42</property>
  </entry>
  <entry producer="producer82" in="00:00:00.000" out="00:00:06.233">
   <property name="kdenlive:id">34</property>
  </entry>
  <blank length="00:00:13.267"/>
  <entry producer="producer82" in="00:00:33.733" out="00:00:38.433">
   <property name="kdenlive:id">34</property>
  </entry>
  <entry producer="producer84" in="00:00:01.200" out="00:00:13.067">
   <property name="kdenlive:id">13</property>
  </entry>
  <entry producer="producer85" in="00:00:19.567" out="00:00:25.100">
   <property name="kdenlive:id">14</property>
   <filter id="filter25">
    <property name="background">colour:0</property>
    <property name="mlt_service">affine</property>
    <property name="kdenlive_id">pan_zoom</property>
    <property name="transition.rect">00:00:19.567=0 0 1920 1080;00:00:22.267=0 0 1920 1080;00:00:25.100=-3397 -1783 9600 5400</property>
    <property name="transition.distort">0</property>
    <property name="use_normalised">0</property>
    <property name="producer.resource">0x00000000</property>
    <property name="kdenlive:collapsed">0</property>
   </filter>
  </entry>
  <entry producer="producer86" in="00:00:04.900" out="00:00:14.067">
   <property name="kdenlive:id">15</property>
  </entry>
  <entry producer="producer87" in="00:00:50.433" out="00:01:25.967">
   <property name="kdenlive:id">18</property>
  </entry>
  <entry producer="producer88" in="00:01:02.667" out="00:01:30.667">
   <property name="kdenlive:id">19</property>
  </entry>
  <entry producer="producer88" in="00:01:46.300" out="00:01:58.300">
   <property name="kdenlive:id">19</property>
  </entry>
  <entry producer="producer89" in="00:00:00.000" out="00:00:10.133">
   <property name="kdenlive:id">21</property>
   <filter id="filter26" in="00:00:10.033" out="00:00:10.133">
    <property name="start">1</property>
    <property name="level">1</property>
    <property name="mlt_service">brightness</property>
    <property name="kdenlive_id">fade_to_black</property>
    <property name="alpha">00:00:00.000=1;00:00:00.100=0</property>
    <property name="kdenlive:collapsed">0</property>
   </filter>
  </entry>
 </playlist>
 <playlist id="playlist9"/>
 <tractor id="tractor4" in="00:00:00.000" out="00:05:16.467">
  <property name="kdenlive:trackheight">69</property>
  <property name="kdenlive:timeline_active">1</property>
  <property name="kdenlive:collapsed">0</property>
  <property name="kdenlive:thumbs_format"/>
  <property name="kdenlive:audio_rec"/>
  <track hide="audio" producer="playlist8"/>
  <track hide="audio" producer="playlist9"/>
 </tractor>
 <producer id="producer90" in="00:00:00.000" out="00:00:40.367">
  <property name="length">1212</property>
  <property name="eof">pause</property>
  <property name="resource">videos/PXL_20220330_094306109.TS.mp4</property>
  <property name="audio_index">1</property>
  <property name="video_index">2</property>
  <property name="mute_on_pause">0</property>
  <property name="mlt_service">avformat-novalidate</property>
  <property name="seekable">1</property>
  <property name="aspect_ratio">1</property>
  <property name="kdenlive:clipname"/>
  <property name="kdenlive:folderid">37</property>
  <property name="kdenlive:id">34</property>
  <property name="kdenlive:file_size">100077012</property>
  <property name="kdenlive:file_hash">402f1ea492ded7e85bf4ccc58de3586d</property>
  <property name="kdenlive:audio_max1">220</property>
  <property name="xml">was here</property>
  <property name="meta.media.nb_streams">4</property>
  <property name="meta.media.1.stream.type">audio</property>
  <property name="meta.media.1.codec.sample_fmt">fltp</property>
  <property name="meta.media.1.codec.sample_rate">48000</property>
  <property name="meta.media.1.codec.channels">2</property>
  <property name="meta.media.1.codec.name">aac</property>
  <property name="meta.media.1.codec.long_name">AAC (Advanced Audio Coding)</property>
  <property name="meta.media.1.codec.bit_rate">191920</property>
  <property name="meta.attr.1.stream.creation_time.markup">2022-03-30T09:43:50.000000Z</property>
  <property name="meta.attr.1.stream.language.markup">eng</property>
  <property name="meta.attr.1.stream.handler_name.markup">SoundHandle</property>
  <property name="meta.media.2.stream.type">video</property>
  <property name="meta.media.2.stream.frame_rate">29.8802</property>
  <property name="meta.media.2.stream.sample_aspect_ratio">1</property>
  <property name="meta.media.2.codec.width">1920</property>
  <property name="meta.media.2.codec.height">1080</property>
  <property name="meta.media.2.codec.rotate">0</property>
  <property name="meta.media.2.codec.pix_fmt">yuvj420p</property>
  <property name="meta.media.2.codec.sample_aspect_ratio">0</property>
  <property name="meta.media.2.codec.colorspace">709</property>
  <property name="meta.media.2.codec.color_trc">1</property>
  <property name="meta.media.2.codec.name">hevc</property>
  <property name="meta.media.2.codec.long_name">HEVC (High Efficiency Video Coding)</property>
  <property name="meta.media.2.codec.bit_rate">19595829</property>
  <property name="meta.attr.2.stream.creation_time.markup">2022-03-30T09:43:50.000000Z</property>
  <property name="meta.attr.2.stream.language.markup">eng</property>
  <property name="meta.attr.2.stream.handler_name.markup">VideoHandle</property>
  <property name="meta.attr.major_brand.markup">isom</property>
  <property name="meta.attr.minor_version.markup">131072</property>
  <property name="meta.attr.compatible_brands.markup">isomiso2mp41</property>
  <property name="meta.attr.creation_time.markup">2022-03-30T09:43:50.000000Z</property>
  <property name="meta.attr.location.markup">+52.7183+4.6581/</property>
  <property name="meta.attr.location-eng.markup">+52.7183+4.6581/</property>
  <property name="meta.attr.com.android.capture.fps.markup">30.000000</property>
  <property name="meta.media.sample_aspect_num">1</property>
  <property name="meta.media.sample_aspect_den">1</property>
  <property name="meta.media.frame_rate_num">12070000</property>
  <property name="meta.media.frame_rate_den">403947</property>
  <property name="meta.media.colorspace">709</property>
  <property name="meta.media.color_trc">1</property>
  <property name="meta.media.has_b_frames">0</property>
  <property name="meta.media.width">1920</property>
  <property name="meta.media.height">1080</property>
  <property name="meta.media.color_range">full</property>
  <property name="meta.media.variable_frame_rate">1</property>
  <property name="meta.media.top_field_first">0</property>
  <property name="meta.media.progressive">1</property>
  <property name="set.test_audio">1</property>
  <property name="set.test_image">0</property>
 </producer>
 <producer id="producer91" in="00:00:00.000" out="00:00:34.100">
  <property name="length">1024</property>
  <property name="eof">pause</property>
  <property name="resource">videos/PXL_20220330_092808909.TS.mp4</property>
  <property name="audio_index">1</property>
  <property name="video_index">2</property>
  <property name="mute_on_pause">0</property>
  <property name="mlt_service">avformat-novalidate</property>
  <property name="seekable">1</property>
  <property name="aspect_ratio">1</property>
  <property name="kdenlive:clipname"/>
  <property name="kdenlive:folderid">2</property>
  <property name="kdenlive:id">22</property>
  <property name="kdenlive:file_size">84781215</property>
  <property name="kdenlive:file_hash">fa4e3a283b5883db042ab4529971fe0b</property>
  <property name="kdenlive:audio_max1">218</property>
  <property name="xml">was here</property>
  <property name="meta.media.nb_streams">4</property>
  <property name="meta.media.1.stream.type">audio</property>
  <property name="meta.media.1.codec.sample_fmt">fltp</property>
  <property name="meta.media.1.codec.sample_rate">48000</property>
  <property name="meta.media.1.codec.channels">2</property>
  <property name="meta.media.1.codec.name">aac</property>
  <property name="meta.media.1.codec.long_name">AAC (Advanced Audio Coding)</property>
  <property name="meta.media.1.codec.bit_rate">191836</property>
  <property name="meta.attr.1.stream.creation_time.markup">2022-03-30T09:28:44.000000Z</property>
  <property name="meta.attr.1.stream.language.markup">eng</property>
  <property name="meta.attr.1.stream.handler_name.markup">SoundHandle</property>
  <property name="meta.media.2.stream.type">video</property>
  <property name="meta.media.2.stream.frame_rate">29.9968</property>
  <property name="meta.media.2.stream.sample_aspect_ratio">1</property>
  <property name="meta.media.2.codec.width">1920</property>
  <property name="meta.media.2.codec.height">1080</property>
  <property name="meta.media.2.codec.rotate">0</property>
  <property name="meta.media.2.codec.pix_fmt">yuvj420p</property>
  <property name="meta.media.2.codec.sample_aspect_ratio">0</property>
  <property name="meta.media.2.codec.colorspace">709</property>
  <property name="meta.media.2.codec.color_trc">1</property>
  <property name="meta.media.2.codec.name">hevc</property>
  <property name="meta.media.2.codec.long_name">HEVC (High Efficiency Video Coding)</property>
  <property name="meta.media.2.codec.bit_rate">19629040</property>
  <property name="meta.attr.2.stream.creation_time.markup">2022-03-30T09:28:44.000000Z</property>
  <property name="meta.attr.2.stream.language.markup">eng</property>
  <property name="meta.attr.2.stream.handler_name.markup">VideoHandle</property>
  <property name="meta.attr.major_brand.markup">isom</property>
  <property name="meta.attr.minor_version.markup">131072</property>
  <property name="meta.attr.compatible_brands.markup">isomiso2mp41</property>
  <property name="meta.attr.creation_time.markup">2022-03-30T09:28:44.000000Z</property>
  <property name="meta.attr.location.markup">+52.7185+4.6581/</property>
  <property name="meta.attr.location-eng.markup">+52.7185+4.6581/</property>
  <property name="meta.attr.com.android.capture.fps.markup">30.000000</property>
  <property name="meta.media.sample_aspect_num">1</property>
  <property name="meta.media.sample_aspect_den">1</property>
  <property name="meta.media.frame_rate_num">30720000</property>
  <property name="meta.media.frame_rate_den">1024109</property>
  <property name="meta.media.colorspace">709</property>
  <property name="meta.media.color_trc">1</property>
  <property name="meta.media.has_b_frames">0</property>
  <property name="meta.media.width">1920</property>
  <property name="meta.media.height">1080</property>
  <property name="meta.media.color_range">full</property>
  <property name="set.test_audio">1</property>
  <property name="set.test_image">0</property>
  <property name="meta.media.variable_frame_rate">1</property>
  <property name="meta.media.top_field_first">0</property>
  <property name="meta.media.progressive">1</property>
 </producer>
 <producer id="producer92" in="00:00:00.000" out="00:00:56.867">
  <property name="length">1707</property>
  <property name="eof">pause</property>
  <property name="resource">0.600000:videos/PXL_20220330_092808909.TS.mp4</property>
  <property name="aspect_ratio">1</property>
  <property name="meta.media.nb_streams">4</property>
  <property name="meta.media.1.stream.type">audio</property>
  <property name="meta.media.1.codec.sample_fmt">fltp</property>
  <property name="meta.media.1.codec.sample_rate">48000</property>
  <property name="meta.media.1.codec.channels">2</property>
  <property name="meta.media.1.codec.name">aac</property>
  <property name="meta.media.1.codec.long_name">AAC (Advanced Audio Coding)</property>
  <property name="meta.media.1.codec.bit_rate">191836</property>
  <property name="meta.attr.1.stream.creation_time.markup">2022-03-30T09:28:44.000000Z</property>
  <property name="meta.attr.1.stream.language.markup">eng</property>
  <property name="meta.attr.1.stream.handler_name.markup">SoundHandle</property>
  <property name="meta.media.2.stream.type">video</property>
  <property name="meta.media.2.stream.frame_rate">29.9968</property>
  <property name="meta.media.2.stream.sample_aspect_ratio">1</property>
  <property name="meta.media.2.codec.width">1920</property>
  <property name="meta.media.2.codec.height">1080</property>
  <property name="meta.media.2.codec.rotate">0</property>
  <property name="meta.media.2.codec.pix_fmt">yuvj420p</property>
  <property name="meta.media.2.codec.sample_aspect_ratio">0</property>
  <property name="meta.media.2.codec.colorspace">709</property>
  <property name="meta.media.2.codec.color_trc">1</property>
  <property name="meta.media.2.codec.name">hevc</property>
  <property name="meta.media.2.codec.long_name">HEVC (High Efficiency Video Coding)</property>
  <property name="meta.media.2.codec.bit_rate">19629040</property>
  <property name="meta.attr.2.stream.creation_time.markup">2022-03-30T09:28:44.000000Z</property>
  <property name="meta.attr.2.stream.language.markup">eng</property>
  <property name="meta.attr.2.stream.handler_name.markup">VideoHandle</property>
  <property name="meta.attr.major_brand.markup">isom</property>
  <property name="meta.attr.minor_version.markup">131072</property>
  <property name="meta.attr.compatible_brands.markup">isomiso2mp41</property>
  <property name="meta.attr.creation_time.markup">2022-03-30T09:28:44.000000Z</property>
  <property name="meta.attr.location.markup">+52.7185+4.6581/</property>
  <property name="meta.attr.location-eng.markup">+52.7185+4.6581/</property>
  <property name="meta.attr.com.android.capture.fps.markup">30.000000</property>
  <property name="seekable">1</property>
  <property name="meta.media.sample_aspect_num">1</property>
  <property name="meta.media.sample_aspect_den">1</property>
  <property name="audio_index">1</property>
  <property name="video_index">2</property>
  <property name="mute_on_pause">1</property>
  <property name="warp_speed">0.6</property>
  <property name="warp_resource">videos/PXL_20220330_092808909.TS.mp4</property>
  <property name="mlt_service">timewarp</property>
  <property name="set.test_audio">1</property>
  <property name="set.test_image">0</property>
  <property name="kdenlive:id">22</property>
  <property name="warp_pitch">0</property>
  <property name="meta.media.frame_rate_num">30720000</property>
  <property name="meta.media.frame_rate_den">1024109</property>
  <property name="meta.media.colorspace">709</property>
  <property name="meta.media.color_trc">1</property>
  <property name="meta.media.has_b_frames">0</property>
  <property name="meta.media.width">1920</property>
  <property name="meta.media.height">1080</property>
  <property name="meta.media.color_range">full</property>
  <property name="meta.media.variable_frame_rate">1</property>
  <property name="meta.media.top_field_first">0</property>
  <property name="meta.media.progressive">1</property>
 </producer>
 <playlist id="playlist10">
  <blank length="00:00:04.233"/>
  <entry producer="producer39" in="00:00:00.000" out="00:00:07.000">
   <property name="kdenlive:id">44</property>
   <filter id="filter27">
    <property name="rotate_center">1</property>
    <property name="mlt_service">qtblend</property>
    <property name="kdenlive_id">qtblend</property>
    <property name="rect">00:00:00.000=1037 -181 857 1434 1.000000</property>
    <property name="rotation">00:00:00.000=0</property>
    <property name="compositing">0</property>
    <property name="distort">0</property>
    <property name="kdenlive:collapsed">0</property>
   </filter>
   <filter id="filter28" in="00:00:05.833" out="00:00:07.000">
    <property name="start">1</property>
    <property name="level">1</property>
    <property name="mlt_service">brightness</property>
    <property name="kdenlive_id">fade_to_black</property>
    <property name="alpha">00:00:00.000=1;00:00:01.167=0</property>
    <property name="kdenlive:collapsed">0</property>
   </filter>
   <filter id="filter29" out="00:00:00.500">
    <property name="start">1</property>
    <property name="level">1</property>
    <property name="mlt_service">brightness</property>
    <property name="kdenlive_id">fade_from_black</property>
    <property name="alpha">00:00:00.000=0;00:00:00.500=1</property>
    <property name="kdenlive:collapsed">0</property>
   </filter>
  </entry>
  <blank length="00:01:47.667"/>
  <entry producer="producer40" in="00:00:00.000" out="00:00:06.433">
   <property name="kdenlive:id">45</property>
  </entry>
  <blank length="00:00:59.600"/>
  <entry producer="producer90" in="00:00:09.400" out="00:00:23.667">
   <property name="kdenlive:id">34</property>
  </entry>
  <blank length="00:01:56.867"/>
  <entry producer="producer91" in="00:00:09.300" out="00:00:20.067">
   <property name="kdenlive:id">22</property>
  </entry>
  <entry producer="producer92" in="00:00:33.467" out="00:00:47.700">
   <property name="kdenlive:id">22</property>
   <filter id="filter30" in="00:00:46.700" out="00:00:47.700">
    <property name="start">1</property>
    <property name="level">1</property>
    <property name="mlt_service">brightness</property>
    <property name="kdenlive_id">fade_to_black</property>
    <property name="alpha">00:00:00.000=1;00:00:01.000=0</property>
    <property name="kdenlive:collapsed">0</property>
   </filter>
  </entry>
 </playlist>
 <playlist id="playlist11"/>
 <tractor id="tractor5" in="00:00:00.000" out="00:05:41.200">
  <property name="kdenlive:trackheight">69</property>
  <property name="kdenlive:timeline_active">1</property>
  <property name="kdenlive:collapsed">0</property>
  <property name="kdenlive:thumbs_format"/>
  <property name="kdenlive:audio_rec"/>
  <track hide="audio" producer="playlist10"/>
  <track hide="audio" producer="playlist11"/>
 </tractor>
 <playlist id="playlist12">
  <blank length="00:05:21.567"/>
  <entry producer="producer41" in="00:00:00.000" out="00:00:19.633">
   <property name="kdenlive:id">46</property>
   <filter id="filter31" in="00:00:18.633" out="00:00:19.633">
    <property name="start">1</property>
    <property name="level">1</property>
    <property name="mlt_service">brightness</property>
    <property name="kdenlive_id">fade_to_black</property>
    <property name="alpha">00:00:00.000=1;00:00:01.000=0</property>
    <property name="kdenlive:collapsed">0</property>
   </filter>
  </entry>
 </playlist>
 <playlist id="playlist13"/>
 <tractor id="tractor6" in="00:00:00.000" out="00:05:41.200">
  <property name="kdenlive:trackheight">69</property>
  <property name="kdenlive:timeline_active">1</property>
  <property name="kdenlive:collapsed">0</property>
  <property name="kdenlive:thumbs_format"/>
  <property name="kdenlive:audio_rec"/>
  <track hide="audio" producer="playlist12"/>
  <track hide="audio" producer="playlist13"/>
 </tractor>
 <tractor id="tractor7" in="00:00:00.000" out="00:22:24.233">
  <track producer="black_track"/>
  <track producer="tractor0"/>
  <track producer="tractor1"/>
  <track producer="tractor2"/>
  <track producer="tractor3"/>
  <track producer="tractor4"/>
  <track producer="tractor5"/>
  <track producer="tractor6"/>
  <transition id="transition0" in="00:03:05.000" out="00:03:06.000">
   <property name="a_track">5</property>
   <property name="b_track">6</property>
   <property name="geometry">0=0% 0% 100% 100% 0%;-1=0% 0% 100% 100% 100%</property>
   <property name="factory">loader</property>
   <property name="aligned">0</property>
   <property name="progressive">1</property>
   <property name="mlt_service">composite</property>
   <property name="kdenlive_id">wipe</property>
   <property name="luma"/>
   <property name="softness">0</property>
   <property name="luma_invert">0</property>
   <property name="fill">1</property>
  </transition>
  <transition id="transition1" in="00:05:16.167" out="00:05:16.467">
   <property name="a_track">5</property>
   <property name="b_track">6</property>
   <property name="geometry">0=0% 0% 100% 100% 0%;-1=0% 0% 100% 100% 100%</property>
   <property name="factory">loader</property>
   <property name="aligned">0</property>
   <property name="progressive">1</property>
   <property name="mlt_service">composite</property>
   <property name="kdenlive_id">wipe</property>
   <property name="luma"/>
   <property name="softness">0</property>
   <property name="luma_invert">0</property>
   <property name="fill">1</property>
  </transition>
  <transition id="transition2">
   <property name="a_track">0</property>
   <property name="b_track">1</property>
   <property name="mlt_service">mix</property>
   <property name="kdenlive_id">mix</property>
   <property name="internal_added">237</property>
   <property name="always_active">1</property>
   <property name="accepts_blanks">1</property>
   <property name="sum">1</property>
  </transition>
  <transition id="transition3">
   <property name="a_track">0</property>
   <property name="b_track">2</property>
   <property name="mlt_service">mix</property>
   <property name="kdenlive_id">mix</property>
   <property name="internal_added">237</property>
   <property name="always_active">1</property>
   <property name="accepts_blanks">1</property>
   <property name="sum">1</property>
  </transition>
  <transition id="transition4">
   <property name="a_track">0</property>
   <property name="b_track">3</property>
   <property name="mlt_service">mix</property>
   <property name="kdenlive_id">mix</property>
   <property name="internal_added">237</property>
   <property name="always_active">1</property>
   <property name="accepts_blanks">1</property>
   <property name="sum">1</property>
  </transition>
  <transition id="transition5">
   <property name="a_track">0</property>
   <property name="b_track">4</property>
   <property name="mlt_service">mix</property>
   <property name="kdenlive_id">mix</property>
   <property name="internal_added">237</property>
   <property name="always_active">1</property>
   <property name="accepts_blanks">1</property>
   <property name="sum">1</property>
  </transition>
  <transition id="transition6">
   <property name="a_track">0</property>
   <property name="b_track">5</property>
   <property name="version">0.9</property>
   <property name="mlt_service">frei0r.cairoblend</property>
   <property name="kdenlive_id">frei0r.cairoblend</property>
   <property name="internal_added">237</property>
   <property name="always_active">1</property>
  </transition>
  <transition id="transition7">
   <property name="a_track">0</property>
   <property name="b_track">6</property>
   <property name="version">0.9</property>
   <property name="mlt_service">frei0r.cairoblend</property>
   <property name="kdenlive_id">frei0r.cairoblend</property>
   <property name="internal_added">237</property>
   <property name="always_active">1</property>
  </transition>
  <transition id="transition8">
   <property name="a_track">0</property>
   <property name="b_track">7</property>
   <property name="version">0.9</property>
   <property name="mlt_service">frei0r.cairoblend</property>
   <property name="kdenlive_id">frei0r.cairoblend</property>
   <property name="internal_added">237</property>
   <property name="always_active">1</property>
  </transition>
  <filter id="filter32">
   <property name="window">75</property>
   <property name="max_gain">20dB</property>
   <property name="mlt_service">volume</property>
   <property name="internal_added">237</property>
   <property name="disable">1</property>
  </filter>
  <filter id="filter33">
   <property name="channel">-1</property>
   <property name="mlt_service">panner</property>
   <property name="internal_added">237</property>
   <property name="start">0.5</property>
   <property name="disable">1</property>
  </filter>
  <filter id="filter34">
   <property name="iec_scale">0</property>
   <property name="mlt_service">audiolevel</property>
   <property name="disable">1</property>
  </filter>
 </tractor>
</mlt>
