<?xml version='1.0' encoding='utf-8'?>
<mlt LC_NUMERIC="C" producer="main_bin" version="7.4.0" root="/opt/vlog/duelos/tirando-sin-ver">
 <profile frame_rate_num="30" sample_aspect_num="1" display_aspect_den="9" colorspace="709" progressive="1" description="HD 1080p 30 fps" display_aspect_num="16" frame_rate_den="1" width="1920" height="1080" sample_aspect_den="1"/>
 <producer id="producer3" in="00:00:00.000" out="00:00:55.867">
  <property name="length">1677</property>
  <property name="eof">pause</property>
  <property name="resource">videos/PXL_20221105_100449433.TS.mp4</property>
  <property name="audio_index">1</property>
  <property name="video_index">2</property>
  <property name="mute_on_pause">0</property>
  <property name="mlt_service">avformat-novalidate</property>
  <property name="seekable">1</property>
  <property name="aspect_ratio">1</property>
  <property name="kdenlive:clipname"/>
  <property name="kdenlive:folderid">2</property>
  <property name="kdenlive:id">3</property>
  <property name="kdenlive:file_size">138526280</property>
  <property name="kdenlive:file_hash">7da31f3d4e3aabab141703c469b5abf7</property>
  <property name="kdenlive:audio_max1">214</property>
  <property name="meta.media.nb_streams">4</property>
  <property name="meta.media.1.stream.type">audio</property>
  <property name="meta.media.1.codec.sample_fmt">fltp</property>
  <property name="meta.media.1.codec.sample_rate">48000</property>
  <property name="meta.media.1.codec.channels">2</property>
  <property name="meta.media.1.codec.name">aac</property>
  <property name="meta.media.1.codec.long_name">AAC (Advanced Audio Coding)</property>
  <property name="meta.media.1.codec.bit_rate">191995</property>
  <property name="meta.attr.1.stream.creation_time.markup">2022-11-05T10:05:46.000000Z</property>
  <property name="meta.attr.1.stream.language.markup">eng</property>
  <property name="meta.attr.1.stream.handler_name.markup">SoundHandle</property>
  <property name="meta.attr.1.stream.vendor_id.markup">[0][0][0][0]</property>
  <property name="meta.media.2.stream.type">video</property>
  <property name="meta.media.2.stream.frame_rate">30.0133</property>
  <property name="meta.media.2.stream.sample_aspect_ratio">1</property>
  <property name="meta.media.2.codec.width">1920</property>
  <property name="meta.media.2.codec.height">1080</property>
  <property name="meta.media.2.codec.rotate">0</property>
  <property name="meta.media.2.codec.pix_fmt">yuvj420p</property>
  <property name="meta.media.2.codec.sample_aspect_ratio">0</property>
  <property name="meta.media.2.codec.colorspace">709</property>
  <property name="meta.media.2.codec.color_trc">1</property>
  <property name="meta.media.2.codec.name">hevc</property>
  <property name="meta.media.2.codec.long_name">HEVC (High Efficiency Video Coding)</property>
  <property name="meta.media.2.codec.bit_rate">19596363</property>
  <property name="meta.attr.2.stream.creation_time.markup">2022-11-05T10:05:46.000000Z</property>
  <property name="meta.attr.2.stream.language.markup">eng</property>
  <property name="meta.attr.2.stream.handler_name.markup">VideoHandle</property>
  <property name="meta.attr.2.stream.vendor_id.markup">[0][0][0][0]</property>
  <property name="meta.attr.major_brand.markup">isom</property>
  <property name="meta.attr.minor_version.markup">131072</property>
  <property name="meta.attr.compatible_brands.markup">isomiso2mp41</property>
  <property name="meta.attr.creation_time.markup">2022-11-05T10:05:46.000000Z</property>
  <property name="meta.attr.location.markup">+51.4525+7.3582/</property>
  <property name="meta.attr.location-eng.markup">+51.4525+7.3582/</property>
  <property name="meta.attr.com.android.capture.fps.markup">30.000000</property>
  <property name="meta.media.sample_aspect_num">1</property>
  <property name="meta.media.sample_aspect_den">1</property>
  <property name="meta.media.frame_rate_num">37755000</property>
  <property name="meta.media.frame_rate_den">1257943</property>
  <property name="meta.media.colorspace">709</property>
  <property name="meta.media.color_trc">1</property>
  <property name="meta.media.has_b_frames">0</property>
  <property name="meta.media.width">1920</property>
  <property name="meta.media.height">1080</property>
  <property name="meta.media.color_range">full</property>
  <property name="meta.media.variable_frame_rate">1</property>
  <property name="meta.media.top_field_first">0</property>
  <property name="meta.media.progressive">1</property>
 </producer>
 <producer id="producer0" in="00:00:00.000" out="00:00:14.967">
  <property name="length">450</property>
  <property name="eof">pause</property>
  <property name="resource">videos/PXL_20221105_100619303.TS.mp4</property>
  <property name="audio_index">1</property>
  <property name="video_index">2</property>
  <property name="mute_on_pause">0</property>
  <property name="mlt_service">avformat-novalidate</property>
  <property name="seekable">1</property>
  <property name="aspect_ratio">1</property>
  <property name="kdenlive:clipname"/>
  <property name="kdenlive:folderid">2</property>
  <property name="kdenlive:id">4</property>
  <property name="kdenlive:file_size">37396143</property>
  <property name="kdenlive:file_hash">1e66f1f89251565d5722edbb35c0b48e</property>
  <property name="kdenlive:audio_max1">217</property>
  <property name="meta.media.nb_streams">4</property>
  <property name="meta.media.1.stream.type">audio</property>
  <property name="meta.media.1.codec.sample_fmt">fltp</property>
  <property name="meta.media.1.codec.sample_rate">48000</property>
  <property name="meta.media.1.codec.channels">2</property>
  <property name="meta.media.1.codec.name">aac</property>
  <property name="meta.media.1.codec.long_name">AAC (Advanced Audio Coding)</property>
  <property name="meta.media.1.codec.bit_rate">191865</property>
  <property name="meta.attr.1.stream.creation_time.markup">2022-11-05T10:06:35.000000Z</property>
  <property name="meta.attr.1.stream.language.markup">eng</property>
  <property name="meta.attr.1.stream.handler_name.markup">SoundHandle</property>
  <property name="meta.attr.1.stream.vendor_id.markup">[0][0][0][0]</property>
  <property name="meta.media.2.stream.type">video</property>
  <property name="meta.media.2.stream.frame_rate">29.9971</property>
  <property name="meta.media.2.stream.sample_aspect_ratio">1</property>
  <property name="meta.media.2.codec.width">1920</property>
  <property name="meta.media.2.codec.height">1080</property>
  <property name="meta.media.2.codec.rotate">0</property>
  <property name="meta.media.2.codec.pix_fmt">yuvj420p</property>
  <property name="meta.media.2.codec.sample_aspect_ratio">0</property>
  <property name="meta.media.2.codec.colorspace">709</property>
  <property name="meta.media.2.codec.color_trc">1</property>
  <property name="meta.media.2.codec.name">hevc</property>
  <property name="meta.media.2.codec.long_name">HEVC (High Efficiency Video Coding)</property>
  <property name="meta.media.2.codec.bit_rate">19690961</property>
  <property name="meta.attr.2.stream.creation_time.markup">2022-11-05T10:06:35.000000Z</property>
  <property name="meta.attr.2.stream.language.markup">eng</property>
  <property name="meta.attr.2.stream.handler_name.markup">VideoHandle</property>
  <property name="meta.attr.2.stream.vendor_id.markup">[0][0][0][0]</property>
  <property name="meta.attr.major_brand.markup">isom</property>
  <property name="meta.attr.minor_version.markup">131072</property>
  <property name="meta.attr.compatible_brands.markup">isomiso2mp41</property>
  <property name="meta.attr.creation_time.markup">2022-11-05T10:06:35.000000Z</property>
  <property name="meta.attr.location.markup">+51.4515+7.3604/</property>
  <property name="meta.attr.location-eng.markup">+51.4515+7.3604/</property>
  <property name="meta.attr.com.android.capture.fps.markup">30.000000</property>
  <property name="meta.media.sample_aspect_num">1</property>
  <property name="meta.media.sample_aspect_den">1</property>
  <property name="meta.media.frame_rate_num">40500000</property>
  <property name="meta.media.frame_rate_den">1350131</property>
  <property name="meta.media.colorspace">709</property>
  <property name="meta.media.color_trc">1</property>
  <property name="meta.media.has_b_frames">0</property>
  <property name="meta.media.width">1920</property>
  <property name="meta.media.height">1080</property>
  <property name="meta.media.color_range">full</property>
  <property name="meta.media.variable_frame_rate">1</property>
  <property name="meta.media.top_field_first">0</property>
  <property name="meta.media.progressive">1</property>
 </producer>
 <producer id="producer1" in="00:00:00.000" out="00:00:39.067">
  <property name="length">1173</property>
  <property name="eof">pause</property>
  <property name="resource">videos/PXL_20221105_100658755.TS.mp4</property>
  <property name="audio_index">1</property>
  <property name="video_index">2</property>
  <property name="mute_on_pause">0</property>
  <property name="mlt_service">avformat-novalidate</property>
  <property name="seekable">1</property>
  <property name="aspect_ratio">1</property>
  <property name="kdenlive:clipname"/>
  <property name="kdenlive:folderid">2</property>
  <property name="kdenlive:id">5</property>
  <property name="kdenlive:file_size">97249082</property>
  <property name="kdenlive:file_hash">1c3e3ddc12447aa54d6277a6d4f01019</property>
  <property name="kdenlive:audio_max1">202</property>
  <property name="meta.media.nb_streams">4</property>
  <property name="meta.media.1.stream.type">audio</property>
  <property name="meta.media.1.codec.sample_fmt">fltp</property>
  <property name="meta.media.1.codec.sample_rate">48000</property>
  <property name="meta.media.1.codec.channels">2</property>
  <property name="meta.media.1.codec.name">aac</property>
  <property name="meta.media.1.codec.long_name">AAC (Advanced Audio Coding)</property>
  <property name="meta.media.1.codec.bit_rate">191843</property>
  <property name="meta.attr.1.stream.creation_time.markup">2022-11-05T10:07:39.000000Z</property>
  <property name="meta.attr.1.stream.language.markup">eng</property>
  <property name="meta.attr.1.stream.handler_name.markup">SoundHandle</property>
  <property name="meta.attr.1.stream.vendor_id.markup">[0][0][0][0]</property>
  <property name="meta.media.2.stream.type">video</property>
  <property name="meta.media.2.stream.frame_rate">29.9971</property>
  <property name="meta.media.2.stream.sample_aspect_ratio">1</property>
  <property name="meta.media.2.codec.width">1920</property>
  <property name="meta.media.2.codec.height">1080</property>
  <property name="meta.media.2.codec.rotate">0</property>
  <property name="meta.media.2.codec.pix_fmt">yuvj420p</property>
  <property name="meta.media.2.codec.sample_aspect_ratio">0</property>
  <property name="meta.media.2.codec.colorspace">709</property>
  <property name="meta.media.2.codec.color_trc">1</property>
  <property name="meta.media.2.codec.name">hevc</property>
  <property name="meta.media.2.codec.long_name">HEVC (High Efficiency Video Coding)</property>
  <property name="meta.media.2.codec.bit_rate">19644505</property>
  <property name="meta.attr.2.stream.creation_time.markup">2022-11-05T10:07:39.000000Z</property>
  <property name="meta.attr.2.stream.language.markup">eng</property>
  <property name="meta.attr.2.stream.handler_name.markup">VideoHandle</property>
  <property name="meta.attr.2.stream.vendor_id.markup">[0][0][0][0]</property>
  <property name="meta.attr.major_brand.markup">isom</property>
  <property name="meta.attr.minor_version.markup">131072</property>
  <property name="meta.attr.compatible_brands.markup">isomiso2mp41</property>
  <property name="meta.attr.creation_time.markup">2022-11-05T10:07:39.000000Z</property>
  <property name="meta.attr.location.markup">+51.4515+7.3604/</property>
  <property name="meta.attr.location-eng.markup">+51.4515+7.3604/</property>
  <property name="meta.attr.com.android.capture.fps.markup">30.000000</property>
  <property name="meta.media.sample_aspect_num">1</property>
  <property name="meta.media.sample_aspect_den">1</property>
  <property name="meta.media.frame_rate_num">306000</property>
  <property name="meta.media.frame_rate_den">10201</property>
  <property name="meta.media.colorspace">709</property>
  <property name="meta.media.color_trc">1</property>
  <property name="meta.media.has_b_frames">0</property>
  <property name="meta.media.width">1920</property>
  <property name="meta.media.height">1080</property>
  <property name="meta.media.color_range">full</property>
  <property name="meta.media.variable_frame_rate">1</property>
  <property name="meta.media.top_field_first">0</property>
  <property name="meta.media.progressive">1</property>
 </producer>
 <producer id="producer2" in="00:00:00.000" out="00:00:06.367">
  <property name="length">192</property>
  <property name="eof">pause</property>
  <property name="resource">videos/PXL_20221105_100742409.TS.mp4</property>
  <property name="audio_index">1</property>
  <property name="video_index">2</property>
  <property name="mute_on_pause">0</property>
  <property name="mlt_service">avformat-novalidate</property>
  <property name="seekable">1</property>
  <property name="aspect_ratio">1</property>
  <property name="kdenlive:clipname"/>
  <property name="kdenlive:folderid">2</property>
  <property name="kdenlive:id">6</property>
  <property name="kdenlive:file_size">16019219</property>
  <property name="kdenlive:file_hash">5202d3aa4b09c490654ce1bd2ba8908a</property>
  <property name="kdenlive:audio_max1">205</property>
  <property name="meta.media.nb_streams">4</property>
  <property name="meta.media.1.stream.type">audio</property>
  <property name="meta.media.1.codec.sample_fmt">fltp</property>
  <property name="meta.media.1.codec.sample_rate">48000</property>
  <property name="meta.media.1.codec.channels">2</property>
  <property name="meta.media.1.codec.name">aac</property>
  <property name="meta.media.1.codec.long_name">AAC (Advanced Audio Coding)</property>
  <property name="meta.media.1.codec.bit_rate">191435</property>
  <property name="meta.attr.1.stream.creation_time.markup">2022-11-05T10:07:50.000000Z</property>
  <property name="meta.attr.1.stream.language.markup">eng</property>
  <property name="meta.attr.1.stream.handler_name.markup">SoundHandle</property>
  <property name="meta.attr.1.stream.vendor_id.markup">[0][0][0][0]</property>
  <property name="meta.media.2.stream.type">video</property>
  <property name="meta.media.2.stream.frame_rate">30.0132</property>
  <property name="meta.media.2.stream.sample_aspect_ratio">1</property>
  <property name="meta.media.2.codec.width">1920</property>
  <property name="meta.media.2.codec.height">1080</property>
  <property name="meta.media.2.codec.rotate">0</property>
  <property name="meta.media.2.codec.pix_fmt">yuvj420p</property>
  <property name="meta.media.2.codec.sample_aspect_ratio">0</property>
  <property name="meta.media.2.codec.colorspace">709</property>
  <property name="meta.media.2.codec.color_trc">1</property>
  <property name="meta.media.2.codec.name">hevc</property>
  <property name="meta.media.2.codec.long_name">HEVC (High Efficiency Video Coding)</property>
  <property name="meta.media.2.codec.bit_rate">19810133</property>
  <property name="meta.attr.2.stream.creation_time.markup">2022-11-05T10:07:50.000000Z</property>
  <property name="meta.attr.2.stream.language.markup">eng</property>
  <property name="meta.attr.2.stream.handler_name.markup">VideoHandle</property>
  <property name="meta.attr.2.stream.vendor_id.markup">[0][0][0][0]</property>
  <property name="meta.attr.major_brand.markup">isom</property>
  <property name="meta.attr.minor_version.markup">131072</property>
  <property name="meta.attr.compatible_brands.markup">isomiso2mp41</property>
  <property name="meta.attr.creation_time.markup">2022-11-05T10:07:50.000000Z</property>
  <property name="meta.attr.location.markup">+51.4515+7.3604/</property>
  <property name="meta.attr.location-eng.markup">+51.4515+7.3604/</property>
  <property name="meta.attr.com.android.capture.fps.markup">30.000000</property>
  <property name="meta.media.sample_aspect_num">1</property>
  <property name="meta.media.sample_aspect_den">1</property>
  <property name="meta.media.frame_rate_num">17280000</property>
  <property name="meta.media.frame_rate_den">575747</property>
  <property name="meta.media.colorspace">709</property>
  <property name="meta.media.color_trc">1</property>
  <property name="meta.media.has_b_frames">0</property>
  <property name="meta.media.width">1920</property>
  <property name="meta.media.height">1080</property>
  <property name="meta.media.color_range">full</property>
  <property name="meta.media.variable_frame_rate">1</property>
  <property name="meta.media.top_field_first">0</property>
  <property name="meta.media.progressive">1</property>
 </producer>
 <producer id="producer4" in="00:00:00.000" out="00:00:32.700">
  <property name="length">982</property>
  <property name="eof">pause</property>
  <property name="resource">videos/PXL_20221105_100751953.TS.mp4</property>
  <property name="audio_index">1</property>
  <property name="video_index">2</property>
  <property name="mute_on_pause">0</property>
  <property name="mlt_service">avformat-novalidate</property>
  <property name="seekable">1</property>
  <property name="aspect_ratio">1</property>
  <property name="kdenlive:clipname"/>
  <property name="kdenlive:folderid">2</property>
  <property name="kdenlive:id">7</property>
  <property name="kdenlive:file_size">81350257</property>
  <property name="kdenlive:file_hash">cc484de6b9c1bcee858852f056591aa1</property>
  <property name="kdenlive:audio_max1">219</property>
  <property name="meta.media.nb_streams">4</property>
  <property name="meta.media.1.stream.type">audio</property>
  <property name="meta.media.1.codec.sample_fmt">fltp</property>
  <property name="meta.media.1.codec.sample_rate">48000</property>
  <property name="meta.media.1.codec.channels">2</property>
  <property name="meta.media.1.codec.name">aac</property>
  <property name="meta.media.1.codec.long_name">AAC (Advanced Audio Coding)</property>
  <property name="meta.media.1.codec.bit_rate">191906</property>
  <property name="meta.attr.1.stream.creation_time.markup">2022-11-05T10:08:26.000000Z</property>
  <property name="meta.attr.1.stream.language.markup">eng</property>
  <property name="meta.attr.1.stream.handler_name.markup">SoundHandle</property>
  <property name="meta.attr.1.stream.vendor_id.markup">[0][0][0][0]</property>
  <property name="meta.media.2.stream.type">video</property>
  <property name="meta.media.2.stream.frame_rate">29.9375</property>
  <property name="meta.media.2.stream.sample_aspect_ratio">1</property>
  <property name="meta.media.2.codec.width">1920</property>
  <property name="meta.media.2.codec.height">1080</property>
  <property name="meta.media.2.codec.rotate">0</property>
  <property name="meta.media.2.codec.pix_fmt">yuvj420p</property>
  <property name="meta.media.2.codec.sample_aspect_ratio">0</property>
  <property name="meta.media.2.codec.colorspace">709</property>
  <property name="meta.media.2.codec.color_trc">1</property>
  <property name="meta.media.2.codec.name">hevc</property>
  <property name="meta.media.2.codec.long_name">HEVC (High Efficiency Video Coding)</property>
  <property name="meta.media.2.codec.bit_rate">19636094</property>
  <property name="meta.attr.2.stream.creation_time.markup">2022-11-05T10:08:26.000000Z</property>
  <property name="meta.attr.2.stream.language.markup">eng</property>
  <property name="meta.attr.2.stream.handler_name.markup">VideoHandle</property>
  <property name="meta.attr.2.stream.vendor_id.markup">[0][0][0][0]</property>
  <property name="meta.attr.major_brand.markup">isom</property>
  <property name="meta.attr.minor_version.markup">131072</property>
  <property name="meta.attr.compatible_brands.markup">isomiso2mp41</property>
  <property name="meta.attr.creation_time.markup">2022-11-05T10:08:26.000000Z</property>
  <property name="meta.attr.location.markup">+51.4515+7.3604/</property>
  <property name="meta.attr.location-eng.markup">+51.4515+7.3604/</property>
  <property name="meta.attr.com.android.capture.fps.markup">30.000000</property>
  <property name="meta.media.sample_aspect_num">1</property>
  <property name="meta.media.sample_aspect_den">1</property>
  <property name="meta.media.frame_rate_num">12600000</property>
  <property name="meta.media.frame_rate_den">420877</property>
  <property name="meta.media.colorspace">709</property>
  <property name="meta.media.color_trc">1</property>
  <property name="meta.media.has_b_frames">0</property>
  <property name="meta.media.width">1920</property>
  <property name="meta.media.height">1080</property>
  <property name="meta.media.color_range">full</property>
  <property name="meta.media.variable_frame_rate">1</property>
  <property name="meta.media.top_field_first">0</property>
  <property name="meta.media.progressive">1</property>
 </producer>
 <producer id="producer5" in="00:00:00.000" out="00:01:41.667">
  <property name="length">3051</property>
  <property name="eof">pause</property>
  <property name="resource">videos/PXL_20221105_100939196.TS.mp4</property>
  <property name="audio_index">1</property>
  <property name="video_index">2</property>
  <property name="mute_on_pause">0</property>
  <property name="mlt_service">avformat-novalidate</property>
  <property name="seekable">1</property>
  <property name="aspect_ratio">1</property>
  <property name="kdenlive:clipname"/>
  <property name="kdenlive:folderid">2</property>
  <property name="kdenlive:id">8</property>
  <property name="kdenlive:file_size">251230507</property>
  <property name="kdenlive:file_hash">2f091963639d5b5c6aa5af490314d23a</property>
  <property name="kdenlive:audio_max1">231</property>
  <property name="meta.media.nb_streams">4</property>
  <property name="meta.media.1.stream.type">audio</property>
  <property name="meta.media.1.codec.sample_fmt">fltp</property>
  <property name="meta.media.1.codec.sample_rate">48000</property>
  <property name="meta.media.1.codec.channels">2</property>
  <property name="meta.media.1.codec.name">aac</property>
  <property name="meta.media.1.codec.long_name">AAC (Advanced Audio Coding)</property>
  <property name="meta.media.1.codec.bit_rate">191996</property>
  <property name="meta.attr.1.stream.creation_time.markup">2022-11-05T10:11:22.000000Z</property>
  <property name="meta.attr.1.stream.language.markup">eng</property>
  <property name="meta.attr.1.stream.handler_name.markup">SoundHandle</property>
  <property name="meta.attr.1.stream.vendor_id.markup">[0][0][0][0]</property>
  <property name="meta.media.2.stream.type">video</property>
  <property name="meta.media.2.stream.frame_rate">29.8463</property>
  <property name="meta.media.2.stream.sample_aspect_ratio">1</property>
  <property name="meta.media.2.codec.width">1920</property>
  <property name="meta.media.2.codec.height">1080</property>
  <property name="meta.media.2.codec.rotate">0</property>
  <property name="meta.media.2.codec.pix_fmt">yuvj420p</property>
  <property name="meta.media.2.codec.sample_aspect_ratio">0</property>
  <property name="meta.media.2.codec.colorspace">709</property>
  <property name="meta.media.2.codec.color_trc">1</property>
  <property name="meta.media.2.codec.name">hevc</property>
  <property name="meta.media.2.codec.long_name">HEVC (High Efficiency Video Coding)</property>
  <property name="meta.media.2.codec.bit_rate">19538998</property>
  <property name="meta.attr.2.stream.creation_time.markup">2022-11-05T10:11:22.000000Z</property>
  <property name="meta.attr.2.stream.language.markup">eng</property>
  <property name="meta.attr.2.stream.handler_name.markup">VideoHandle</property>
  <property name="meta.attr.2.stream.vendor_id.markup">[0][0][0][0]</property>
  <property name="meta.attr.major_brand.markup">isom</property>
  <property name="meta.attr.minor_version.markup">131072</property>
  <property name="meta.attr.compatible_brands.markup">isomiso2mp41</property>
  <property name="meta.attr.creation_time.markup">2022-11-05T10:11:22.000000Z</property>
  <property name="meta.attr.location.markup">+51.4516+7.3603/</property>
  <property name="meta.attr.location-eng.markup">+51.4516+7.3603/</property>
  <property name="meta.attr.com.android.capture.fps.markup">30.000000</property>
  <property name="meta.media.sample_aspect_num">1</property>
  <property name="meta.media.sample_aspect_den">1</property>
  <property name="meta.media.frame_rate_num">91050000</property>
  <property name="meta.media.frame_rate_den">3050629</property>
  <property name="meta.media.colorspace">709</property>
  <property name="meta.media.color_trc">1</property>
  <property name="meta.media.has_b_frames">0</property>
  <property name="meta.media.width">1920</property>
  <property name="meta.media.height">1080</property>
  <property name="meta.media.color_range">full</property>
  <property name="meta.media.variable_frame_rate">1</property>
  <property name="meta.media.top_field_first">0</property>
  <property name="meta.media.progressive">1</property>
 </producer>
 <producer id="producer6" in="00:00:00.000" out="00:00:47.333">
  <property name="length">1421</property>
  <property name="eof">pause</property>
  <property name="resource">videos/PXL_20221105_101152835.TS.mp4</property>
  <property name="audio_index">1</property>
  <property name="video_index">2</property>
  <property name="mute_on_pause">0</property>
  <property name="mlt_service">avformat-novalidate</property>
  <property name="seekable">1</property>
  <property name="aspect_ratio">1</property>
  <property name="kdenlive:clipname"/>
  <property name="kdenlive:folderid">2</property>
  <property name="kdenlive:id">9</property>
  <property name="kdenlive:file_size">118332242</property>
  <property name="kdenlive:file_hash">0bfa558262f68c9042bade178ea2f206</property>
  <property name="kdenlive:audio_max1">217</property>
  <property name="meta.media.nb_streams">4</property>
  <property name="meta.media.1.stream.type">audio</property>
  <property name="meta.media.1.codec.sample_fmt">fltp</property>
  <property name="meta.media.1.codec.sample_rate">48000</property>
  <property name="meta.media.1.codec.channels">2</property>
  <property name="meta.media.1.codec.name">aac</property>
  <property name="meta.media.1.codec.long_name">AAC (Advanced Audio Coding)</property>
  <property name="meta.media.1.codec.bit_rate">191856</property>
  <property name="meta.attr.1.stream.creation_time.markup">2022-11-05T10:12:41.000000Z</property>
  <property name="meta.attr.1.stream.language.markup">eng</property>
  <property name="meta.attr.1.stream.handler_name.markup">SoundHandle</property>
  <property name="meta.attr.1.stream.vendor_id.markup">[0][0][0][0]</property>
  <property name="meta.media.2.stream.type">video</property>
  <property name="meta.media.2.stream.frame_rate">29.7775</property>
  <property name="meta.media.2.stream.sample_aspect_ratio">1</property>
  <property name="meta.media.2.codec.width">1920</property>
  <property name="meta.media.2.codec.height">1080</property>
  <property name="meta.media.2.codec.rotate">0</property>
  <property name="meta.media.2.codec.pix_fmt">yuvj420p</property>
  <property name="meta.media.2.codec.sample_aspect_ratio">0</property>
  <property name="meta.media.2.codec.colorspace">709</property>
  <property name="meta.media.2.codec.color_trc">1</property>
  <property name="meta.media.2.codec.name">hevc</property>
  <property name="meta.media.2.codec.long_name">HEVC (High Efficiency Video Coding)</property>
  <property name="meta.media.2.codec.bit_rate">19766874</property>
  <property name="meta.attr.2.stream.creation_time.markup">2022-11-05T10:12:41.000000Z</property>
  <property name="meta.attr.2.stream.language.markup">eng</property>
  <property name="meta.attr.2.stream.handler_name.markup">VideoHandle</property>
  <property name="meta.attr.2.stream.vendor_id.markup">[0][0][0][0]</property>
  <property name="meta.attr.major_brand.markup">isom</property>
  <property name="meta.attr.minor_version.markup">131072</property>
  <property name="meta.attr.compatible_brands.markup">isomiso2mp41</property>
  <property name="meta.attr.creation_time.markup">2022-11-05T10:12:41.000000Z</property>
  <property name="meta.attr.location.markup">+51.4516+7.3603/</property>
  <property name="meta.attr.location-eng.markup">+51.4516+7.3603/</property>
  <property name="meta.attr.com.android.capture.fps.markup">30.000000</property>
  <property name="meta.media.sample_aspect_num">1</property>
  <property name="meta.media.sample_aspect_den">1</property>
  <property name="meta.media.frame_rate_num">12690000</property>
  <property name="meta.media.frame_rate_den">426161</property>
  <property name="meta.media.colorspace">709</property>
  <property name="meta.media.color_trc">1</property>
  <property name="meta.media.has_b_frames">0</property>
  <property name="meta.media.width">1920</property>
  <property name="meta.media.height">1080</property>
  <property name="meta.media.color_range">full</property>
  <property name="meta.media.variable_frame_rate">1</property>
  <property name="meta.media.top_field_first">0</property>
  <property name="meta.media.progressive">1</property>
 </producer>
 <producer id="producer7" in="00:00:00.000" out="00:00:47.733">
  <property name="length">1433</property>
  <property name="eof">pause</property>
  <property name="resource">videos/PXL_20221105_101305666.TS.mp4</property>
  <property name="audio_index">1</property>
  <property name="video_index">2</property>
  <property name="mute_on_pause">0</property>
  <property name="mlt_service">avformat-novalidate</property>
  <property name="seekable">1</property>
  <property name="aspect_ratio">1</property>
  <property name="kdenlive:clipname"/>
  <property name="kdenlive:file_size">118192405</property>
  <property name="kdenlive:folderid">2</property>
  <property name="kdenlive:id">10</property>
  <property name="kdenlive:file_hash">d231e80d7de1efc4d718c16279a84078</property>
  <property name="kdenlive:audio_max1">223</property>
  <property name="meta.media.nb_streams">4</property>
  <property name="meta.media.1.stream.type">audio</property>
  <property name="meta.media.1.codec.sample_fmt">fltp</property>
  <property name="meta.media.1.codec.sample_rate">48000</property>
  <property name="meta.media.1.codec.channels">2</property>
  <property name="meta.media.1.codec.name">aac</property>
  <property name="meta.media.1.codec.long_name">AAC (Advanced Audio Coding)</property>
  <property name="meta.media.1.codec.bit_rate">191929</property>
  <property name="meta.attr.1.stream.creation_time.markup">2022-11-05T10:13:54.000000Z</property>
  <property name="meta.attr.1.stream.language.markup">eng</property>
  <property name="meta.attr.1.stream.handler_name.markup">SoundHandle</property>
  <property name="meta.attr.1.stream.vendor_id.markup">[0][0][0][0]</property>
  <property name="meta.media.2.stream.type">video</property>
  <property name="meta.media.2.stream.frame_rate">29.8523</property>
  <property name="meta.media.2.stream.sample_aspect_ratio">1</property>
  <property name="meta.media.2.codec.width">1920</property>
  <property name="meta.media.2.codec.height">1080</property>
  <property name="meta.media.2.codec.rotate">0</property>
  <property name="meta.media.2.codec.pix_fmt">yuvj420p</property>
  <property name="meta.media.2.codec.sample_aspect_ratio">0</property>
  <property name="meta.media.2.codec.colorspace">709</property>
  <property name="meta.media.2.codec.color_trc">1</property>
  <property name="meta.media.2.codec.name">hevc</property>
  <property name="meta.media.2.codec.long_name">HEVC (High Efficiency Video Coding)</property>
  <property name="meta.media.2.codec.bit_rate">19572069</property>
  <property name="meta.attr.2.stream.creation_time.markup">2022-11-05T10:13:54.000000Z</property>
  <property name="meta.attr.2.stream.language.markup">eng</property>
  <property name="meta.attr.2.stream.handler_name.markup">VideoHandle</property>
  <property name="meta.attr.2.stream.vendor_id.markup">[0][0][0][0]</property>
  <property name="meta.attr.major_brand.markup">isom</property>
  <property name="meta.attr.minor_version.markup">131072</property>
  <property name="meta.attr.compatible_brands.markup">isomiso2mp41</property>
  <property name="meta.attr.creation_time.markup">2022-11-05T10:13:54.000000Z</property>
  <property name="meta.attr.location.markup">+51.4516+7.3603/</property>
  <property name="meta.attr.location-eng.markup">+51.4516+7.3603/</property>
  <property name="meta.attr.com.android.capture.fps.markup">30.000000</property>
  <property name="meta.media.sample_aspect_num">1</property>
  <property name="meta.media.sample_aspect_den">1</property>
  <property name="meta.media.frame_rate_num">139500</property>
  <property name="meta.media.frame_rate_den">4673</property>
  <property name="meta.media.colorspace">709</property>
  <property name="meta.media.color_trc">1</property>
  <property name="meta.media.has_b_frames">0</property>
  <property name="meta.media.width">1920</property>
  <property name="meta.media.height">1080</property>
  <property name="meta.media.color_range">full</property>
  <property name="meta.media.variable_frame_rate">1</property>
  <property name="meta.media.top_field_first">0</property>
  <property name="meta.media.progressive">1</property>
 </producer>
 <producer id="producer8" in="00:00:00.000" out="00:00:48.667">
  <property name="length">1461</property>
  <property name="eof">pause</property>
  <property name="resource">videos/PXL_20221105_101358902.TS.mp4</property>
  <property name="audio_index">1</property>
  <property name="video_index">2</property>
  <property name="mute_on_pause">0</property>
  <property name="mlt_service">avformat-novalidate</property>
  <property name="seekable">1</property>
  <property name="aspect_ratio">1</property>
  <property name="kdenlive:clipname"/>
  <property name="kdenlive:file_size">121023567</property>
  <property name="kdenlive:folderid">2</property>
  <property name="kdenlive:id">11</property>
  <property name="kdenlive:file_hash">812faf4f0e13779e61e7f125c18d6167</property>
  <property name="kdenlive:audio_max1">220</property>
  <property name="meta.media.nb_streams">4</property>
  <property name="meta.media.1.stream.type">audio</property>
  <property name="meta.media.1.codec.sample_fmt">fltp</property>
  <property name="meta.media.1.codec.sample_rate">48000</property>
  <property name="meta.media.1.codec.channels">2</property>
  <property name="meta.media.1.codec.name">aac</property>
  <property name="meta.media.1.codec.long_name">AAC (Advanced Audio Coding)</property>
  <property name="meta.media.1.codec.bit_rate">191913</property>
  <property name="meta.attr.1.stream.creation_time.markup">2022-11-05T10:14:49.000000Z</property>
  <property name="meta.attr.1.stream.language.markup">eng</property>
  <property name="meta.attr.1.stream.handler_name.markup">SoundHandle</property>
  <property name="meta.attr.1.stream.vendor_id.markup">[0][0][0][0]</property>
  <property name="meta.media.2.stream.type">video</property>
  <property name="meta.media.2.stream.frame_rate">30.0133</property>
  <property name="meta.media.2.stream.sample_aspect_ratio">1</property>
  <property name="meta.media.2.codec.width">1920</property>
  <property name="meta.media.2.codec.height">1080</property>
  <property name="meta.media.2.codec.rotate">0</property>
  <property name="meta.media.2.codec.pix_fmt">yuvj420p</property>
  <property name="meta.media.2.codec.sample_aspect_ratio">0</property>
  <property name="meta.media.2.codec.colorspace">709</property>
  <property name="meta.media.2.codec.color_trc">1</property>
  <property name="meta.media.2.codec.name">hevc</property>
  <property name="meta.media.2.codec.long_name">HEVC (High Efficiency Video Coding)</property>
  <property name="meta.media.2.codec.bit_rate">19650230</property>
  <property name="meta.attr.2.stream.creation_time.markup">2022-11-05T10:14:49.000000Z</property>
  <property name="meta.attr.2.stream.language.markup">eng</property>
  <property name="meta.attr.2.stream.handler_name.markup">VideoHandle</property>
  <property name="meta.attr.2.stream.vendor_id.markup">[0][0][0][0]</property>
  <property name="meta.attr.major_brand.markup">isom</property>
  <property name="meta.attr.minor_version.markup">131072</property>
  <property name="meta.attr.compatible_brands.markup">isomiso2mp41</property>
  <property name="meta.attr.creation_time.markup">2022-11-05T10:14:49.000000Z</property>
  <property name="meta.attr.location.markup">+51.4516+7.3603/</property>
  <property name="meta.attr.location-eng.markup">+51.4516+7.3603/</property>
  <property name="meta.attr.com.android.capture.fps.markup">30.000000</property>
  <property name="meta.media.sample_aspect_num">1</property>
  <property name="meta.media.sample_aspect_den">1</property>
  <property name="meta.media.frame_rate_num">14620000</property>
  <property name="meta.media.frame_rate_den">487117</property>
  <property name="meta.media.colorspace">709</property>
  <property name="meta.media.color_trc">1</property>
  <property name="meta.media.has_b_frames">0</property>
  <property name="meta.media.width">1920</property>
  <property name="meta.media.height">1080</property>
  <property name="meta.media.color_range">full</property>
  <property name="meta.media.variable_frame_rate">1</property>
  <property name="meta.media.top_field_first">0</property>
  <property name="meta.media.progressive">1</property>
 </producer>
 <producer id="producer9" in="00:00:00.000" out="00:00:39.300">
  <property name="length">1180</property>
  <property name="eof">pause</property>
  <property name="resource">/opt/vlog/graficas/ThunderGuanaco.kdenlivetitle</property>
  <property name="progressive">1</property>
  <property name="aspect_ratio">1</property>
  <property name="seekable">1</property>
  <property name="mlt_service">kdenlivetitle</property>
  <property name="kdenlive:duration">1180</property>
  <property name="kdenlive:clipname"/>
  <property name="kdenlive:folderid">12</property>
  <property name="kdenlive:id">13</property>
  <property name="kdenlive:file_hash">5b23d34e1e02b6ee0d48862a10f343dd</property>
  <property name="force_reload">0</property>
  <property name="meta.media.width">1920</property>
  <property name="meta.media.height">1080</property>
 </producer>
 <producer id="producer10" in="00:00:00.000" out="00:02:37.167">
  <property name="length">4716</property>
  <property name="eof">pause</property>
  <property name="resource">/opt/vlog/musica/bensound/bensound-acousticbreeze.mp3</property>
  <property name="meta.media.nb_streams">1</property>
  <property name="meta.media.0.stream.type">audio</property>
  <property name="meta.media.0.codec.sample_fmt">fltp</property>
  <property name="meta.media.0.codec.sample_rate">44100</property>
  <property name="meta.media.0.codec.channels">2</property>
  <property name="meta.media.0.codec.name">mp3float</property>
  <property name="meta.media.0.codec.long_name">MP3 (MPEG audio layer 3)</property>
  <property name="meta.media.0.codec.bit_rate">112000</property>
  <property name="seekable">1</property>
  <property name="audio_index">0</property>
  <property name="video_index">-1</property>
  <property name="mute_on_pause">1</property>
  <property name="mlt_service">avformat</property>
  <property name="kdenlive:clipname"/>
  <property name="kdenlive:folderid">14</property>
  <property name="kdenlive:id">15</property>
  <property name="kdenlive:file_size">2200869</property>
  <property name="kdenlive:file_hash">56fc390ae97ef062e6d6a777cee974d5</property>
  <property name="kdenlive:audio_max0">200</property>
 </producer>
 <producer id="producer11" in="00:00:00.000" out="00:02:02.767">
  <property name="length">3684</property>
  <property name="eof">pause</property>
  <property name="resource">/opt/vlog/musica/bensound/bensound-actionable.mp3</property>
  <property name="meta.media.nb_streams">1</property>
  <property name="meta.media.0.stream.type">audio</property>
  <property name="meta.media.0.codec.sample_fmt">fltp</property>
  <property name="meta.media.0.codec.sample_rate">44100</property>
  <property name="meta.media.0.codec.channels">2</property>
  <property name="meta.media.0.codec.name">mp3float</property>
  <property name="meta.media.0.codec.long_name">MP3 (MPEG audio layer 3)</property>
  <property name="meta.media.0.codec.bit_rate">112000</property>
  <property name="meta.attr.title.markup">Actionable</property>
  <property name="meta.attr.artist.markup">Bensound</property>
  <property name="meta.attr.comment.markup">www.bensound.com</property>
  <property name="meta.attr.genre.markup">Abstract</property>
  <property name="seekable">1</property>
  <property name="audio_index">0</property>
  <property name="video_index">-1</property>
  <property name="mute_on_pause">1</property>
  <property name="mlt_service">avformat</property>
  <property name="kdenlive:clipname"/>
  <property name="kdenlive:folderid">14</property>
  <property name="kdenlive:id">16</property>
  <property name="kdenlive:file_size">1719476</property>
  <property name="kdenlive:file_hash">0c242a8925b43f930a61fbfa02bee956</property>
  <property name="kdenlive:audio_max0">224</property>
 </producer>
 <producer id="producer12" in="00:00:00.000" out="00:03:15.300">
  <property name="length">5860</property>
  <property name="eof">pause</property>
  <property name="resource">/opt/vlog/musica/bensound/bensound-adaytoremember.mp3</property>
  <property name="meta.media.nb_streams">1</property>
  <property name="meta.media.0.stream.type">audio</property>
  <property name="meta.media.0.codec.sample_fmt">fltp</property>
  <property name="meta.media.0.codec.sample_rate">44100</property>
  <property name="meta.media.0.codec.channels">2</property>
  <property name="meta.media.0.codec.name">mp3float</property>
  <property name="meta.media.0.codec.long_name">MP3 (MPEG audio layer 3)</property>
  <property name="meta.media.0.codec.bit_rate">160000</property>
  <property name="seekable">1</property>
  <property name="audio_index">0</property>
  <property name="video_index">-1</property>
  <property name="mute_on_pause">1</property>
  <property name="mlt_service">avformat</property>
  <property name="kdenlive:clipname"/>
  <property name="kdenlive:folderid">14</property>
  <property name="kdenlive:id">17</property>
  <property name="kdenlive:file_size">3906352</property>
  <property name="kdenlive:file_hash">2f39ef71881b7037fc8ac8b6bbe6e0ac</property>
  <property name="kdenlive:audio_max0">216</property>
 </producer>
 <producer id="producer13" in="00:00:00.000" out="00:03:07.067">
  <property name="length">5613</property>
  <property name="eof">pause</property>
  <property name="resource">/opt/vlog/musica/bensound/bensound-adventure.mp3</property>
  <property name="meta.media.nb_streams">1</property>
  <property name="meta.media.0.stream.type">audio</property>
  <property name="meta.media.0.codec.sample_fmt">fltp</property>
  <property name="meta.media.0.codec.sample_rate">44100</property>
  <property name="meta.media.0.codec.channels">2</property>
  <property name="meta.media.0.codec.name">mp3float</property>
  <property name="meta.media.0.codec.long_name">MP3 (MPEG audio layer 3)</property>
  <property name="meta.media.0.codec.bit_rate">192000</property>
  <property name="seekable">1</property>
  <property name="audio_index">0</property>
  <property name="video_index">-1</property>
  <property name="mute_on_pause">1</property>
  <property name="mlt_service">avformat</property>
  <property name="kdenlive:clipname"/>
  <property name="kdenlive:folderid">14</property>
  <property name="kdenlive:id">18</property>
  <property name="kdenlive:file_size">4490762</property>
  <property name="kdenlive:file_hash">3aba89cb28f701439e311c17d2f4dc87</property>
  <property name="kdenlive:audio_max0">238</property>
 </producer>
 <producer id="producer14" in="00:00:00.000" out="00:02:25.500">
  <property name="length">4366</property>
  <property name="eof">pause</property>
  <property name="resource">/opt/vlog/musica/bensound/bensound-allthat.mp3</property>
  <property name="meta.media.nb_streams">1</property>
  <property name="meta.media.0.stream.type">audio</property>
  <property name="meta.media.0.codec.sample_fmt">fltp</property>
  <property name="meta.media.0.codec.sample_rate">44100</property>
  <property name="meta.media.0.codec.channels">2</property>
  <property name="meta.media.0.codec.name">mp3float</property>
  <property name="meta.media.0.codec.long_name">MP3 (MPEG audio layer 3)</property>
  <property name="meta.media.0.codec.bit_rate">160000</property>
  <property name="seekable">1</property>
  <property name="audio_index">0</property>
  <property name="video_index">-1</property>
  <property name="mute_on_pause">1</property>
  <property name="mlt_service">avformat</property>
  <property name="kdenlive:clipname"/>
  <property name="kdenlive:folderid">14</property>
  <property name="kdenlive:id">19</property>
  <property name="kdenlive:file_size">2910564</property>
  <property name="kdenlive:file_hash">86d70d828c0bce8b9c22d2a0badc2496</property>
  <property name="kdenlive:audio_max0">250</property>
 </producer>
 <producer id="producer15" in="00:00:00.000" out="00:02:34.967">
  <property name="length">4650</property>
  <property name="eof">pause</property>
  <property name="resource">/opt/vlog/musica/bensound/bensound-anewbeginning.mp3</property>
  <property name="meta.media.nb_streams">1</property>
  <property name="meta.media.0.stream.type">audio</property>
  <property name="meta.media.0.codec.sample_fmt">fltp</property>
  <property name="meta.media.0.codec.sample_rate">44100</property>
  <property name="meta.media.0.codec.channels">2</property>
  <property name="meta.media.0.codec.name">mp3float</property>
  <property name="meta.media.0.codec.long_name">MP3 (MPEG audio layer 3)</property>
  <property name="meta.media.0.codec.bit_rate">112000</property>
  <property name="seekable">1</property>
  <property name="audio_index">0</property>
  <property name="video_index">-1</property>
  <property name="mute_on_pause">1</property>
  <property name="mlt_service">avformat</property>
  <property name="kdenlive:clipname"/>
  <property name="kdenlive:folderid">14</property>
  <property name="kdenlive:id">20</property>
  <property name="kdenlive:file_size">2169783</property>
  <property name="kdenlive:file_hash">c9e5ecd0c6f004edbf1280c8a3303222</property>
  <property name="kdenlive:audio_max0">228</property>
 </producer>
 <producer id="producer16" in="00:00:00.000" out="00:01:49.067">
  <property name="length">3273</property>
  <property name="eof">pause</property>
  <property name="resource">/opt/vlog/musica/bensound/bensound-badass.mp3</property>
  <property name="meta.media.nb_streams">1</property>
  <property name="meta.media.0.stream.type">audio</property>
  <property name="meta.media.0.codec.sample_fmt">fltp</property>
  <property name="meta.media.0.codec.sample_rate">44100</property>
  <property name="meta.media.0.codec.channels">2</property>
  <property name="meta.media.0.codec.name">mp3float</property>
  <property name="meta.media.0.codec.long_name">MP3 (MPEG audio layer 3)</property>
  <property name="meta.media.0.codec.bit_rate">112000</property>
  <property name="seekable">1</property>
  <property name="audio_index">0</property>
  <property name="video_index">-1</property>
  <property name="mute_on_pause">1</property>
  <property name="mlt_service">avformat</property>
  <property name="kdenlive:clipname"/>
  <property name="kdenlive:folderid">14</property>
  <property name="kdenlive:id">21</property>
  <property name="kdenlive:file_size">1527223</property>
  <property name="kdenlive:file_hash">66131e7e8714e069e7f64ab778620eb7</property>
  <property name="kdenlive:audio_max0">241</property>
 </producer>
 <producer id="producer17" in="00:00:00.000" out="00:02:33.800">
  <property name="length">4615</property>
  <property name="eof">pause</property>
  <property name="resource">/opt/vlog/musica/bensound/bensound-betterdays.mp3</property>
  <property name="meta.media.nb_streams">1</property>
  <property name="meta.media.0.stream.type">audio</property>
  <property name="meta.media.0.codec.sample_fmt">fltp</property>
  <property name="meta.media.0.codec.sample_rate">44100</property>
  <property name="meta.media.0.codec.channels">2</property>
  <property name="meta.media.0.codec.name">mp3float</property>
  <property name="meta.media.0.codec.long_name">MP3 (MPEG audio layer 3)</property>
  <property name="meta.media.0.codec.bit_rate">112000</property>
  <property name="seekable">1</property>
  <property name="audio_index">0</property>
  <property name="video_index">-1</property>
  <property name="mute_on_pause">1</property>
  <property name="mlt_service">avformat</property>
  <property name="kdenlive:clipname"/>
  <property name="kdenlive:folderid">14</property>
  <property name="kdenlive:id">22</property>
  <property name="kdenlive:file_size">2153691</property>
  <property name="kdenlive:file_hash">fd5f04125b6ab4ebdcbdf58391ce35ab</property>
  <property name="kdenlive:audio_max0">206</property>
 </producer>
 <producer id="producer18" in="00:00:00.000" out="00:03:06.700">
  <property name="length">5602</property>
  <property name="eof">pause</property>
  <property name="resource">/opt/vlog/musica/bensound/bensound-beyondtheline.mp3</property>
  <property name="meta.media.nb_streams">1</property>
  <property name="meta.media.0.stream.type">audio</property>
  <property name="meta.media.0.codec.sample_fmt">fltp</property>
  <property name="meta.media.0.codec.sample_rate">44100</property>
  <property name="meta.media.0.codec.channels">2</property>
  <property name="meta.media.0.codec.name">mp3float</property>
  <property name="meta.media.0.codec.long_name">MP3 (MPEG audio layer 3)</property>
  <property name="meta.media.0.codec.bit_rate">192000</property>
  <property name="seekable">1</property>
  <property name="audio_index">0</property>
  <property name="video_index">-1</property>
  <property name="mute_on_pause">1</property>
  <property name="mlt_service">avformat</property>
  <property name="kdenlive:clipname"/>
  <property name="kdenlive:folderid">14</property>
  <property name="kdenlive:id">23</property>
  <property name="kdenlive:file_size">4481985</property>
  <property name="kdenlive:file_hash">445115fbed9c6e8f816d747bf22b4a36</property>
  <property name="kdenlive:audio_max0">242</property>
 </producer>
 <producer id="producer19" in="00:00:00.000" out="00:03:49.200">
  <property name="length">6877</property>
  <property name="eof">pause</property>
  <property name="resource">/opt/vlog/musica/bensound/bensound-birthofahero.mp3</property>
  <property name="meta.media.nb_streams">1</property>
  <property name="meta.media.0.stream.type">audio</property>
  <property name="meta.media.0.codec.sample_fmt">fltp</property>
  <property name="meta.media.0.codec.sample_rate">44100</property>
  <property name="meta.media.0.codec.channels">2</property>
  <property name="meta.media.0.codec.name">mp3float</property>
  <property name="meta.media.0.codec.long_name">MP3 (MPEG audio layer 3)</property>
  <property name="meta.media.0.codec.bit_rate">192000</property>
  <property name="seekable">1</property>
  <property name="audio_index">0</property>
  <property name="video_index">-1</property>
  <property name="mute_on_pause">1</property>
  <property name="mlt_service">avformat</property>
  <property name="kdenlive:clipname"/>
  <property name="kdenlive:folderid">14</property>
  <property name="kdenlive:id">24</property>
  <property name="kdenlive:file_size">5501387</property>
  <property name="kdenlive:file_hash">6d1c5c28c4b071083a8fe6b4de3a7a26</property>
  <property name="kdenlive:audio_max0">237</property>
 </producer>
 <producer id="producer20" in="00:00:00.000" out="00:04:00.767">
  <property name="length">7224</property>
  <property name="eof">pause</property>
  <property name="resource">/opt/vlog/musica/bensound/bensound-brazilsamba.mp3</property>
  <property name="meta.media.nb_streams">1</property>
  <property name="meta.media.0.stream.type">audio</property>
  <property name="meta.media.0.codec.sample_fmt">fltp</property>
  <property name="meta.media.0.codec.sample_rate">44100</property>
  <property name="meta.media.0.codec.channels">2</property>
  <property name="meta.media.0.codec.name">mp3float</property>
  <property name="meta.media.0.codec.long_name">MP3 (MPEG audio layer 3)</property>
  <property name="meta.media.0.codec.bit_rate">112000</property>
  <property name="meta.attr.title.markup">Brazil Samba</property>
  <property name="meta.attr.artist.markup">Bensound</property>
  <property name="meta.attr.comment.markup">www.bensound.com</property>
  <property name="meta.attr.genre.markup">Abstract</property>
  <property name="seekable">1</property>
  <property name="audio_index">0</property>
  <property name="video_index">-1</property>
  <property name="mute_on_pause">1</property>
  <property name="mlt_service">avformat</property>
  <property name="kdenlive:clipname"/>
  <property name="kdenlive:folderid">14</property>
  <property name="kdenlive:id">25</property>
  <property name="kdenlive:file_size">3371412</property>
  <property name="kdenlive:file_hash">1559ab53eb7667dc22d0659d3b747ff2</property>
  <property name="kdenlive:audio_max0">233</property>
 </producer>
 <producer id="producer21" in="00:00:00.000" out="00:02:02.100">
  <property name="length">3664</property>
  <property name="eof">pause</property>
  <property name="resource">/opt/vlog/musica/bensound/bensound-buddy.mp3</property>
  <property name="meta.media.nb_streams">1</property>
  <property name="meta.media.0.stream.type">audio</property>
  <property name="meta.media.0.codec.sample_fmt">fltp</property>
  <property name="meta.media.0.codec.sample_rate">44100</property>
  <property name="meta.media.0.codec.channels">2</property>
  <property name="meta.media.0.codec.name">mp3float</property>
  <property name="meta.media.0.codec.long_name">MP3 (MPEG audio layer 3)</property>
  <property name="meta.media.0.codec.bit_rate">112000</property>
  <property name="seekable">1</property>
  <property name="audio_index">0</property>
  <property name="video_index">-1</property>
  <property name="mute_on_pause">1</property>
  <property name="mlt_service">avformat</property>
  <property name="kdenlive:clipname"/>
  <property name="kdenlive:folderid">14</property>
  <property name="kdenlive:id">26</property>
  <property name="kdenlive:file_size">1710080</property>
  <property name="kdenlive:file_hash">c7537cc5ce01f0956099702537615ee2</property>
  <property name="kdenlive:audio_max0">229</property>
 </producer>
 <producer id="producer22" in="00:00:00.000" out="00:02:56.767">
  <property name="length">5304</property>
  <property name="eof">pause</property>
  <property name="resource">/opt/vlog/musica/bensound/bensound-clapandyell.mp3</property>
  <property name="meta.media.nb_streams">1</property>
  <property name="meta.media.0.stream.type">audio</property>
  <property name="meta.media.0.codec.sample_fmt">fltp</property>
  <property name="meta.media.0.codec.sample_rate">44100</property>
  <property name="meta.media.0.codec.channels">2</property>
  <property name="meta.media.0.codec.name">mp3float</property>
  <property name="meta.media.0.codec.long_name">MP3 (MPEG audio layer 3)</property>
  <property name="meta.media.0.codec.bit_rate">112000</property>
  <property name="seekable">1</property>
  <property name="audio_index">0</property>
  <property name="video_index">-1</property>
  <property name="mute_on_pause">1</property>
  <property name="mlt_service">avformat</property>
  <property name="kdenlive:clipname"/>
  <property name="kdenlive:folderid">14</property>
  <property name="kdenlive:id">27</property>
  <property name="kdenlive:file_size">2475154</property>
  <property name="kdenlive:file_hash">444bb40003e01379dead64992836faf7</property>
  <property name="kdenlive:audio_max0">244</property>
 </producer>
 <producer id="producer23" in="00:00:00.000" out="00:01:29.800">
  <property name="length">2695</property>
  <property name="eof">pause</property>
  <property name="resource">/opt/vlog/musica/bensound/bensound-clearday.mp3</property>
  <property name="meta.media.nb_streams">1</property>
  <property name="meta.media.0.stream.type">audio</property>
  <property name="meta.media.0.codec.sample_fmt">fltp</property>
  <property name="meta.media.0.codec.sample_rate">44100</property>
  <property name="meta.media.0.codec.channels">2</property>
  <property name="meta.media.0.codec.name">mp3float</property>
  <property name="meta.media.0.codec.long_name">MP3 (MPEG audio layer 3)</property>
  <property name="meta.media.0.codec.bit_rate">112000</property>
  <property name="seekable">1</property>
  <property name="audio_index">0</property>
  <property name="video_index">-1</property>
  <property name="mute_on_pause">1</property>
  <property name="mlt_service">avformat</property>
  <property name="kdenlive:clipname"/>
  <property name="kdenlive:folderid">14</property>
  <property name="kdenlive:id">28</property>
  <property name="kdenlive:file_size">1257691</property>
  <property name="kdenlive:file_hash">6f257638bf1fd2ed12f2678e45c2c853</property>
  <property name="kdenlive:audio_max0">224</property>
 </producer>
 <producer id="producer24" in="00:00:00.000" out="00:03:27.133">
  <property name="length">6215</property>
  <property name="eof">pause</property>
  <property name="resource">/opt/vlog/musica/bensound/bensound-countryboy.mp3</property>
  <property name="meta.media.nb_streams">1</property>
  <property name="meta.media.0.stream.type">audio</property>
  <property name="meta.media.0.codec.sample_fmt">fltp</property>
  <property name="meta.media.0.codec.sample_rate">44100</property>
  <property name="meta.media.0.codec.channels">2</property>
  <property name="meta.media.0.codec.name">mp3float</property>
  <property name="meta.media.0.codec.long_name">MP3 (MPEG audio layer 3)</property>
  <property name="meta.media.0.codec.bit_rate">112000</property>
  <property name="seekable">1</property>
  <property name="audio_index">0</property>
  <property name="video_index">-1</property>
  <property name="mute_on_pause">1</property>
  <property name="mlt_service">avformat</property>
  <property name="kdenlive:clipname"/>
  <property name="kdenlive:folderid">14</property>
  <property name="kdenlive:id">29</property>
  <property name="kdenlive:file_size">2900114</property>
  <property name="kdenlive:file_hash">9d87158812284c6d6de3740896fff91a</property>
  <property name="kdenlive:audio_max0">223</property>
 </producer>
 <producer id="producer25" in="00:00:00.000" out="00:02:27.233">
  <property name="length">4418</property>
  <property name="eof">pause</property>
  <property name="resource">/opt/vlog/musica/bensound/bensound-creativeminds.mp3</property>
  <property name="meta.media.nb_streams">1</property>
  <property name="meta.media.0.stream.type">audio</property>
  <property name="meta.media.0.codec.sample_fmt">fltp</property>
  <property name="meta.media.0.codec.sample_rate">44100</property>
  <property name="meta.media.0.codec.channels">2</property>
  <property name="meta.media.0.codec.name">mp3float</property>
  <property name="meta.media.0.codec.long_name">MP3 (MPEG audio layer 3)</property>
  <property name="meta.media.0.codec.bit_rate">160000</property>
  <property name="seekable">1</property>
  <property name="audio_index">0</property>
  <property name="video_index">-1</property>
  <property name="mute_on_pause">1</property>
  <property name="mlt_service">avformat</property>
  <property name="kdenlive:clipname"/>
  <property name="kdenlive:folderid">14</property>
  <property name="kdenlive:id">30</property>
  <property name="kdenlive:file_size">2945045</property>
  <property name="kdenlive:file_hash">47de3f77f526670952f7abe882c617c3</property>
  <property name="kdenlive:audio_max0">246</property>
 </producer>
 <producer id="producer26" in="00:00:00.000" out="00:03:36.900">
  <property name="length">6508</property>
  <property name="eof">pause</property>
  <property name="resource">/opt/vlog/musica/bensound/bensound-creepy.mp3</property>
  <property name="meta.media.nb_streams">1</property>
  <property name="meta.media.0.stream.type">audio</property>
  <property name="meta.media.0.codec.sample_fmt">fltp</property>
  <property name="meta.media.0.codec.sample_rate">44100</property>
  <property name="meta.media.0.codec.channels">2</property>
  <property name="meta.media.0.codec.name">mp3float</property>
  <property name="meta.media.0.codec.long_name">MP3 (MPEG audio layer 3)</property>
  <property name="meta.media.0.codec.bit_rate">112000</property>
  <property name="seekable">1</property>
  <property name="audio_index">0</property>
  <property name="video_index">-1</property>
  <property name="mute_on_pause">1</property>
  <property name="mlt_service">avformat</property>
  <property name="kdenlive:clipname"/>
  <property name="kdenlive:folderid">14</property>
  <property name="kdenlive:id">31</property>
  <property name="kdenlive:file_size">3038001</property>
  <property name="kdenlive:file_hash">512d8fddf1bac997357668d7b6201ad6</property>
  <property name="kdenlive:audio_max0">192</property>
 </producer>
 <producer id="producer27" in="00:00:00.000" out="00:03:14.133">
  <property name="length">5825</property>
  <property name="eof">pause</property>
  <property name="resource">/opt/vlog/musica/bensound/bensound-cute.mp3</property>
  <property name="meta.media.nb_streams">1</property>
  <property name="meta.media.0.stream.type">audio</property>
  <property name="meta.media.0.codec.sample_fmt">fltp</property>
  <property name="meta.media.0.codec.sample_rate">44100</property>
  <property name="meta.media.0.codec.channels">2</property>
  <property name="meta.media.0.codec.name">mp3float</property>
  <property name="meta.media.0.codec.long_name">MP3 (MPEG audio layer 3)</property>
  <property name="meta.media.0.codec.bit_rate">112000</property>
  <property name="seekable">1</property>
  <property name="audio_index">0</property>
  <property name="video_index">-1</property>
  <property name="mute_on_pause">1</property>
  <property name="mlt_service">avformat</property>
  <property name="kdenlive:clipname"/>
  <property name="kdenlive:folderid">14</property>
  <property name="kdenlive:id">32</property>
  <property name="kdenlive:file_size">2718354</property>
  <property name="kdenlive:file_hash">b6533960dc310cff1bb3563189aa436e</property>
  <property name="kdenlive:audio_max0">231</property>
 </producer>
 <producer id="producer28" in="00:00:00.000" out="00:02:57.233">
  <property name="length">5318</property>
  <property name="eof">pause</property>
  <property name="resource">/opt/vlog/musica/bensound/bensound-dance.mp3</property>
  <property name="meta.media.nb_streams">1</property>
  <property name="meta.media.0.stream.type">audio</property>
  <property name="meta.media.0.codec.sample_fmt">fltp</property>
  <property name="meta.media.0.codec.sample_rate">44100</property>
  <property name="meta.media.0.codec.channels">2</property>
  <property name="meta.media.0.codec.name">mp3float</property>
  <property name="meta.media.0.codec.long_name">MP3 (MPEG audio layer 3)</property>
  <property name="meta.media.0.codec.bit_rate">112000</property>
  <property name="seekable">1</property>
  <property name="audio_index">0</property>
  <property name="video_index">-1</property>
  <property name="mute_on_pause">1</property>
  <property name="mlt_service">avformat</property>
  <property name="kdenlive:clipname"/>
  <property name="kdenlive:folderid">14</property>
  <property name="kdenlive:id">33</property>
  <property name="kdenlive:file_size">2481738</property>
  <property name="kdenlive:file_hash">f1314f4013248a26e1067d2aa7ff9840</property>
  <property name="kdenlive:audio_max0">248</property>
 </producer>
 <producer id="producer29" in="00:00:00.000" out="00:04:48.033">
  <property name="length">8642</property>
  <property name="eof">pause</property>
  <property name="resource">/opt/vlog/musica/bensound/bensound-deepblue.mp3</property>
  <property name="meta.media.nb_streams">1</property>
  <property name="meta.media.0.stream.type">audio</property>
  <property name="meta.media.0.codec.sample_fmt">fltp</property>
  <property name="meta.media.0.codec.sample_rate">44100</property>
  <property name="meta.media.0.codec.channels">2</property>
  <property name="meta.media.0.codec.name">mp3float</property>
  <property name="meta.media.0.codec.long_name">MP3 (MPEG audio layer 3)</property>
  <property name="meta.media.0.codec.bit_rate">112000</property>
  <property name="seekable">1</property>
  <property name="audio_index">0</property>
  <property name="video_index">-1</property>
  <property name="mute_on_pause">1</property>
  <property name="mlt_service">avformat</property>
  <property name="kdenlive:clipname"/>
  <property name="kdenlive:folderid">14</property>
  <property name="kdenlive:id">34</property>
  <property name="kdenlive:file_size">4032733</property>
  <property name="kdenlive:file_hash">3f5e95a8149c07e36bd312f958209092</property>
  <property name="kdenlive:audio_max0">206</property>
 </producer>
 <producer id="producer30" in="00:00:00.000" out="00:03:02.367">
  <property name="length">5472</property>
  <property name="eof">pause</property>
  <property name="resource">/opt/vlog/musica/bensound/bensound-downtown.mp3</property>
  <property name="meta.media.nb_streams">1</property>
  <property name="meta.media.0.stream.type">audio</property>
  <property name="meta.media.0.codec.sample_fmt">fltp</property>
  <property name="meta.media.0.codec.sample_rate">44100</property>
  <property name="meta.media.0.codec.channels">2</property>
  <property name="meta.media.0.codec.name">mp3float</property>
  <property name="meta.media.0.codec.long_name">MP3 (MPEG audio layer 3)</property>
  <property name="meta.media.0.codec.bit_rate">112000</property>
  <property name="seekable">1</property>
  <property name="audio_index">0</property>
  <property name="video_index">-1</property>
  <property name="mute_on_pause">1</property>
  <property name="mlt_service">avformat</property>
  <property name="kdenlive:clipname"/>
  <property name="kdenlive:folderid">14</property>
  <property name="kdenlive:id">35</property>
  <property name="kdenlive:file_size">2553417</property>
  <property name="kdenlive:file_hash">553a8ead9f23fb7f1448dec56678a6fb</property>
  <property name="kdenlive:audio_max0">247</property>
 </producer>
 <producer id="producer31" in="00:00:00.000" out="00:03:30.400">
  <property name="length">6313</property>
  <property name="eof">pause</property>
  <property name="resource">/opt/vlog/musica/bensound/bensound-dreams.mp3</property>
  <property name="meta.media.nb_streams">1</property>
  <property name="meta.media.0.stream.type">audio</property>
  <property name="meta.media.0.codec.sample_fmt">fltp</property>
  <property name="meta.media.0.codec.sample_rate">44100</property>
  <property name="meta.media.0.codec.channels">2</property>
  <property name="meta.media.0.codec.name">mp3float</property>
  <property name="meta.media.0.codec.long_name">MP3 (MPEG audio layer 3)</property>
  <property name="meta.media.0.codec.bit_rate">192000</property>
  <property name="seekable">1</property>
  <property name="audio_index">0</property>
  <property name="video_index">-1</property>
  <property name="mute_on_pause">1</property>
  <property name="mlt_service">avformat</property>
  <property name="kdenlive:clipname"/>
  <property name="kdenlive:folderid">14</property>
  <property name="kdenlive:id">36</property>
  <property name="kdenlive:file_size">5050618</property>
  <property name="kdenlive:file_hash">6c1356ee812ce3a9bd389bb251cb1442</property>
  <property name="kdenlive:audio_max0">245</property>
 </producer>
 <producer id="producer32" in="00:00:00.000" out="00:03:00.767">
  <property name="length">5424</property>
  <property name="eof">pause</property>
  <property name="resource">/opt/vlog/musica/bensound/bensound-endlessmotion.mp3</property>
  <property name="meta.media.nb_streams">1</property>
  <property name="meta.media.0.stream.type">audio</property>
  <property name="meta.media.0.codec.sample_fmt">fltp</property>
  <property name="meta.media.0.codec.sample_rate">44100</property>
  <property name="meta.media.0.codec.channels">2</property>
  <property name="meta.media.0.codec.name">mp3float</property>
  <property name="meta.media.0.codec.long_name">MP3 (MPEG audio layer 3)</property>
  <property name="meta.media.0.codec.bit_rate">160000</property>
  <property name="seekable">1</property>
  <property name="audio_index">0</property>
  <property name="video_index">-1</property>
  <property name="mute_on_pause">1</property>
  <property name="mlt_service">avformat</property>
  <property name="kdenlive:clipname"/>
  <property name="kdenlive:folderid">14</property>
  <property name="kdenlive:id">37</property>
  <property name="kdenlive:file_size">3615870</property>
  <property name="kdenlive:file_hash">0172073b7f5fd433030344abd1ff0da1</property>
  <property name="kdenlive:audio_max0">250</property>
 </producer>
 <producer id="producer33" in="00:00:00.000" out="00:02:59.533">
  <property name="length">5387</property>
  <property name="eof">pause</property>
  <property name="resource">/opt/vlog/musica/bensound/bensound-energy.mp3</property>
  <property name="meta.media.nb_streams">1</property>
  <property name="meta.media.0.stream.type">audio</property>
  <property name="meta.media.0.codec.sample_fmt">fltp</property>
  <property name="meta.media.0.codec.sample_rate">44100</property>
  <property name="meta.media.0.codec.channels">2</property>
  <property name="meta.media.0.codec.name">mp3float</property>
  <property name="meta.media.0.codec.long_name">MP3 (MPEG audio layer 3)</property>
  <property name="meta.media.0.codec.bit_rate">192000</property>
  <property name="seekable">1</property>
  <property name="audio_index">0</property>
  <property name="video_index">-1</property>
  <property name="mute_on_pause">1</property>
  <property name="mlt_service">avformat</property>
  <property name="kdenlive:clipname"/>
  <property name="kdenlive:folderid">14</property>
  <property name="kdenlive:id">38</property>
  <property name="kdenlive:file_size">4309577</property>
  <property name="kdenlive:file_hash">f1d02aeaee793caa79fc04f15d1285dd</property>
  <property name="kdenlive:audio_max0">224</property>
 </producer>
 <producer id="producer34" in="00:00:00.000" out="00:02:27.200">
  <property name="length">4417</property>
  <property name="eof">pause</property>
  <property name="resource">/opt/vlog/musica/bensound/bensound-enigmatic.mp3</property>
  <property name="meta.media.nb_streams">1</property>
  <property name="meta.media.0.stream.type">audio</property>
  <property name="meta.media.0.codec.sample_fmt">fltp</property>
  <property name="meta.media.0.codec.sample_rate">44100</property>
  <property name="meta.media.0.codec.channels">2</property>
  <property name="meta.media.0.codec.name">mp3float</property>
  <property name="meta.media.0.codec.long_name">MP3 (MPEG audio layer 3)</property>
  <property name="meta.media.0.codec.bit_rate">112000</property>
  <property name="seekable">1</property>
  <property name="audio_index">0</property>
  <property name="video_index">-1</property>
  <property name="mute_on_pause">1</property>
  <property name="mlt_service">avformat</property>
  <property name="kdenlive:clipname"/>
  <property name="kdenlive:folderid">14</property>
  <property name="kdenlive:id">39</property>
  <property name="kdenlive:file_size">2061167</property>
  <property name="kdenlive:file_hash">24e62a5f6b9b801500adbf28c9d449f3</property>
  <property name="kdenlive:audio_max0">196</property>
 </producer>
 <producer id="producer35" in="00:00:00.000" out="00:02:58.533">
  <property name="length">5357</property>
  <property name="eof">pause</property>
  <property name="resource">/opt/vlog/musica/bensound/bensound-epic.mp3</property>
  <property name="meta.media.nb_streams">1</property>
  <property name="meta.media.0.stream.type">audio</property>
  <property name="meta.media.0.codec.sample_fmt">fltp</property>
  <property name="meta.media.0.codec.sample_rate">44100</property>
  <property name="meta.media.0.codec.channels">2</property>
  <property name="meta.media.0.codec.name">mp3float</property>
  <property name="meta.media.0.codec.long_name">MP3 (MPEG audio layer 3)</property>
  <property name="meta.media.0.codec.bit_rate">112000</property>
  <property name="seekable">1</property>
  <property name="audio_index">0</property>
  <property name="video_index">-1</property>
  <property name="mute_on_pause">1</property>
  <property name="mlt_service">avformat</property>
  <property name="kdenlive:clipname"/>
  <property name="kdenlive:folderid">14</property>
  <property name="kdenlive:id">40</property>
  <property name="kdenlive:file_size">2500023</property>
  <property name="kdenlive:file_hash">d162f7dec87ba7e9851fdd163b836c3e</property>
  <property name="kdenlive:audio_max0">240</property>
 </producer>
 <producer id="producer36" in="00:00:00.000" out="00:04:40.667">
  <property name="length">8421</property>
  <property name="eof">pause</property>
  <property name="resource">/opt/vlog/musica/bensound/bensound-erf.mp3</property>
  <property name="meta.media.nb_streams">1</property>
  <property name="meta.media.0.stream.type">audio</property>
  <property name="meta.media.0.codec.sample_fmt">fltp</property>
  <property name="meta.media.0.codec.sample_rate">44100</property>
  <property name="meta.media.0.codec.channels">2</property>
  <property name="meta.media.0.codec.name">mp3float</property>
  <property name="meta.media.0.codec.long_name">MP3 (MPEG audio layer 3)</property>
  <property name="meta.media.0.codec.bit_rate">192000</property>
  <property name="seekable">1</property>
  <property name="audio_index">0</property>
  <property name="video_index">-1</property>
  <property name="mute_on_pause">1</property>
  <property name="mlt_service">avformat</property>
  <property name="kdenlive:clipname"/>
  <property name="kdenlive:folderid">14</property>
  <property name="kdenlive:id">41</property>
  <property name="kdenlive:file_size">6736457</property>
  <property name="kdenlive:file_hash">acf6771dae882ce478526d2597c0ecce</property>
  <property name="kdenlive:audio_max0">252</property>
 </producer>
 <producer id="producer37" in="00:00:00.000" out="00:08:03.367">
  <property name="length">14502</property>
  <property name="eof">pause</property>
  <property name="resource">/opt/vlog/musica/bensound/bensound-extremeaction.mp3</property>
  <property name="meta.media.nb_streams">1</property>
  <property name="meta.media.0.stream.type">audio</property>
  <property name="meta.media.0.codec.sample_fmt">fltp</property>
  <property name="meta.media.0.codec.sample_rate">44100</property>
  <property name="meta.media.0.codec.channels">2</property>
  <property name="meta.media.0.codec.name">mp3float</property>
  <property name="meta.media.0.codec.long_name">MP3 (MPEG audio layer 3)</property>
  <property name="meta.media.0.codec.bit_rate">112000</property>
  <property name="meta.attr.title.markup">Extreme Action Sport</property>
  <property name="meta.attr.artist.markup">Bensound</property>
  <property name="meta.attr.comment.markup">www.bensound.com</property>
  <property name="meta.attr.genre.markup">Abstract</property>
  <property name="seekable">1</property>
  <property name="audio_index">0</property>
  <property name="video_index">-1</property>
  <property name="mute_on_pause">1</property>
  <property name="mlt_service">avformat</property>
  <property name="kdenlive:clipname"/>
  <property name="kdenlive:folderid">14</property>
  <property name="kdenlive:id">42</property>
  <property name="kdenlive:file_size">6767816</property>
  <property name="kdenlive:file_hash">21cef6a38eb145fb5862ce77b34c877b</property>
  <property name="kdenlive:audio_max0">231</property>
 </producer>
 <producer id="producer38" in="00:00:00.000" out="00:03:13.333">
  <property name="length">5801</property>
  <property name="eof">pause</property>
  <property name="resource">/opt/vlog/musica/bensound/bensound-funday.mp3</property>
  <property name="meta.media.nb_streams">1</property>
  <property name="meta.media.0.stream.type">audio</property>
  <property name="meta.media.0.codec.sample_fmt">fltp</property>
  <property name="meta.media.0.codec.sample_rate">44100</property>
  <property name="meta.media.0.codec.channels">2</property>
  <property name="meta.media.0.codec.name">mp3float</property>
  <property name="meta.media.0.codec.long_name">MP3 (MPEG audio layer 3)</property>
  <property name="meta.media.0.codec.bit_rate">192000</property>
  <property name="seekable">1</property>
  <property name="audio_index">0</property>
  <property name="video_index">-1</property>
  <property name="mute_on_pause">1</property>
  <property name="mlt_service">avformat</property>
  <property name="kdenlive:clipname"/>
  <property name="kdenlive:folderid">14</property>
  <property name="kdenlive:id">43</property>
  <property name="kdenlive:file_size">4640600</property>
  <property name="kdenlive:file_hash">289b788badb90c4c8f24b10b54605220</property>
  <property name="kdenlive:audio_max0">243</property>
 </producer>
 <producer id="producer39" in="00:00:00.000" out="00:03:09.000">
  <property name="length">5671</property>
  <property name="eof">pause</property>
  <property name="resource">/opt/vlog/musica/bensound/bensound-funkyelement.mp3</property>
  <property name="meta.media.nb_streams">1</property>
  <property name="meta.media.0.stream.type">audio</property>
  <property name="meta.media.0.codec.sample_fmt">fltp</property>
  <property name="meta.media.0.codec.sample_rate">44100</property>
  <property name="meta.media.0.codec.channels">2</property>
  <property name="meta.media.0.codec.name">mp3float</property>
  <property name="meta.media.0.codec.long_name">MP3 (MPEG audio layer 3)</property>
  <property name="meta.media.0.codec.bit_rate">112000</property>
  <property name="seekable">1</property>
  <property name="audio_index">0</property>
  <property name="video_index">-1</property>
  <property name="mute_on_pause">1</property>
  <property name="mlt_service">avformat</property>
  <property name="kdenlive:clipname"/>
  <property name="kdenlive:folderid">14</property>
  <property name="kdenlive:id">44</property>
  <property name="kdenlive:file_size">2646309</property>
  <property name="kdenlive:file_hash">e2d2713ceecead95de599c4b10e8759b</property>
  <property name="kdenlive:audio_max0">197</property>
 </producer>
 <producer id="producer40" in="00:00:00.000" out="00:04:27.467">
  <property name="length">8025</property>
  <property name="eof">pause</property>
  <property name="resource">/opt/vlog/musica/bensound/bensound-funkysuspense.mp3</property>
  <property name="meta.media.nb_streams">1</property>
  <property name="meta.media.0.stream.type">audio</property>
  <property name="meta.media.0.codec.sample_fmt">fltp</property>
  <property name="meta.media.0.codec.sample_rate">44100</property>
  <property name="meta.media.0.codec.channels">2</property>
  <property name="meta.media.0.codec.name">mp3float</property>
  <property name="meta.media.0.codec.long_name">MP3 (MPEG audio layer 3)</property>
  <property name="meta.media.0.codec.bit_rate">112000</property>
  <property name="meta.attr.comment.markup">Made with Sony ACID Pro 6.0</property>
  <property name="meta.attr.genre.markup">Abstract</property>
  <property name="seekable">1</property>
  <property name="audio_index">0</property>
  <property name="video_index">-1</property>
  <property name="mute_on_pause">1</property>
  <property name="mlt_service">avformat</property>
  <property name="kdenlive:clipname"/>
  <property name="kdenlive:folderid">14</property>
  <property name="kdenlive:id">45</property>
  <property name="kdenlive:file_size">3745128</property>
  <property name="kdenlive:file_hash">f600ed933dd94458e6cf2886b2278bd1</property>
  <property name="kdenlive:audio_max0">209</property>
 </producer>
 <producer id="producer41" in="00:00:00.000" out="00:03:07.100">
  <property name="length">5614</property>
  <property name="eof">pause</property>
  <property name="resource">/opt/vlog/musica/bensound/bensound-funnysong.mp3</property>
  <property name="meta.media.nb_streams">1</property>
  <property name="meta.media.0.stream.type">audio</property>
  <property name="meta.media.0.codec.sample_fmt">fltp</property>
  <property name="meta.media.0.codec.sample_rate">44100</property>
  <property name="meta.media.0.codec.channels">2</property>
  <property name="meta.media.0.codec.name">mp3float</property>
  <property name="meta.media.0.codec.long_name">MP3 (MPEG audio layer 3)</property>
  <property name="meta.media.0.codec.bit_rate">112000</property>
  <property name="seekable">1</property>
  <property name="audio_index">0</property>
  <property name="video_index">-1</property>
  <property name="mute_on_pause">1</property>
  <property name="mlt_service">avformat</property>
  <property name="kdenlive:clipname"/>
  <property name="kdenlive:folderid">14</property>
  <property name="kdenlive:id">46</property>
  <property name="kdenlive:file_size">2619977</property>
  <property name="kdenlive:file_hash">8f73a76062bae05de585cf33c993510c</property>
  <property name="kdenlive:audio_max0">249</property>
 </producer>
 <producer id="producer42" in="00:00:00.000" out="00:04:04.500">
  <property name="length">7336</property>
  <property name="eof">pause</property>
  <property name="resource">/opt/vlog/musica/bensound/bensound-goinghigher.mp3</property>
  <property name="meta.media.nb_streams">1</property>
  <property name="meta.media.0.stream.type">audio</property>
  <property name="meta.media.0.codec.sample_fmt">fltp</property>
  <property name="meta.media.0.codec.sample_rate">44100</property>
  <property name="meta.media.0.codec.channels">2</property>
  <property name="meta.media.0.codec.name">mp3float</property>
  <property name="meta.media.0.codec.long_name">MP3 (MPEG audio layer 3)</property>
  <property name="meta.media.0.codec.bit_rate">112000</property>
  <property name="seekable">1</property>
  <property name="audio_index">0</property>
  <property name="video_index">-1</property>
  <property name="mute_on_pause">1</property>
  <property name="mlt_service">avformat</property>
  <property name="kdenlive:clipname"/>
  <property name="kdenlive:folderid">14</property>
  <property name="kdenlive:id">47</property>
  <property name="kdenlive:file_size">3423451</property>
  <property name="kdenlive:file_hash">0607d6fe23345268ae0e18611d215564</property>
  <property name="kdenlive:audio_max0">231</property>
 </producer>
 <producer id="producer43" in="00:00:00.000" out="00:04:00.533">
  <property name="length">7217</property>
  <property name="eof">pause</property>
  <property name="resource">/opt/vlog/musica/bensound/bensound-groovyhiphop.mp3</property>
  <property name="meta.media.nb_streams">1</property>
  <property name="meta.media.0.stream.type">audio</property>
  <property name="meta.media.0.codec.sample_fmt">fltp</property>
  <property name="meta.media.0.codec.sample_rate">44100</property>
  <property name="meta.media.0.codec.channels">2</property>
  <property name="meta.media.0.codec.name">mp3float</property>
  <property name="meta.media.0.codec.long_name">MP3 (MPEG audio layer 3)</property>
  <property name="meta.media.0.codec.bit_rate">112000</property>
  <property name="meta.attr.title.markup">Groovy Hip Hop</property>
  <property name="meta.attr.artist.markup">Bensound</property>
  <property name="meta.attr.comment.markup">www.bensound.com</property>
  <property name="meta.attr.genre.markup">Abstract</property>
  <property name="seekable">1</property>
  <property name="audio_index">0</property>
  <property name="video_index">-1</property>
  <property name="mute_on_pause">1</property>
  <property name="mlt_service">avformat</property>
  <property name="kdenlive:clipname"/>
  <property name="kdenlive:folderid">14</property>
  <property name="kdenlive:id">48</property>
  <property name="kdenlive:file_size">3368124</property>
  <property name="kdenlive:file_hash">8e5b79d7132f6e958227f5666b0cf4c0</property>
  <property name="kdenlive:audio_max0">247</property>
 </producer>
 <producer id="producer44" in="00:00:00.000" out="00:04:21.567">
  <property name="length">7848</property>
  <property name="eof">pause</property>
  <property name="resource">/opt/vlog/musica/bensound/bensound-happiness.mp3</property>
  <property name="meta.media.nb_streams">1</property>
  <property name="meta.media.0.stream.type">audio</property>
  <property name="meta.media.0.codec.sample_fmt">fltp</property>
  <property name="meta.media.0.codec.sample_rate">44100</property>
  <property name="meta.media.0.codec.channels">2</property>
  <property name="meta.media.0.codec.name">mp3float</property>
  <property name="meta.media.0.codec.long_name">MP3 (MPEG audio layer 3)</property>
  <property name="meta.media.0.codec.bit_rate">112000</property>
  <property name="seekable">1</property>
  <property name="audio_index">0</property>
  <property name="video_index">-1</property>
  <property name="mute_on_pause">1</property>
  <property name="mlt_service">avformat</property>
  <property name="kdenlive:clipname"/>
  <property name="kdenlive:folderid">14</property>
  <property name="kdenlive:id">49</property>
  <property name="kdenlive:file_size">3663373</property>
  <property name="kdenlive:file_hash">10124b7e9d7378d174dafd24fdb3b97e</property>
  <property name="kdenlive:audio_max0">245</property>
 </producer>
 <producer id="producer45" in="00:00:00.000" out="00:01:45.800">
  <property name="length">3175</property>
  <property name="eof">pause</property>
  <property name="resource">/opt/vlog/musica/bensound/bensound-happyrock.mp3</property>
  <property name="meta.media.nb_streams">1</property>
  <property name="meta.media.0.stream.type">audio</property>
  <property name="meta.media.0.codec.sample_fmt">fltp</property>
  <property name="meta.media.0.codec.sample_rate">44100</property>
  <property name="meta.media.0.codec.channels">2</property>
  <property name="meta.media.0.codec.name">mp3float</property>
  <property name="meta.media.0.codec.long_name">MP3 (MPEG audio layer 3)</property>
  <property name="meta.media.0.codec.bit_rate">112000</property>
  <property name="seekable">1</property>
  <property name="audio_index">0</property>
  <property name="video_index">-1</property>
  <property name="mute_on_pause">1</property>
  <property name="mlt_service">avformat</property>
  <property name="kdenlive:clipname"/>
  <property name="kdenlive:folderid">14</property>
  <property name="kdenlive:id">50</property>
  <property name="kdenlive:file_size">1481874</property>
  <property name="kdenlive:file_hash">86cea71fc112a44cd58919a996a71e66</property>
  <property name="kdenlive:audio_max0">243</property>
 </producer>
 <producer id="producer46" in="00:00:00.000" out="00:02:51.600">
  <property name="length">5149</property>
  <property name="eof">pause</property>
  <property name="resource">/opt/vlog/musica/bensound/bensound-hey.mp3</property>
  <property name="meta.media.nb_streams">1</property>
  <property name="meta.media.0.stream.type">audio</property>
  <property name="meta.media.0.codec.sample_fmt">fltp</property>
  <property name="meta.media.0.codec.sample_rate">44100</property>
  <property name="meta.media.0.codec.channels">2</property>
  <property name="meta.media.0.codec.name">mp3float</property>
  <property name="meta.media.0.codec.long_name">MP3 (MPEG audio layer 3)</property>
  <property name="meta.media.0.codec.bit_rate">160000</property>
  <property name="seekable">1</property>
  <property name="audio_index">0</property>
  <property name="video_index">-1</property>
  <property name="mute_on_pause">1</property>
  <property name="mlt_service">avformat</property>
  <property name="kdenlive:clipname"/>
  <property name="kdenlive:folderid">14</property>
  <property name="kdenlive:id">51</property>
  <property name="kdenlive:file_size">3432490</property>
  <property name="kdenlive:file_hash">fb2354b78c4c0592fe202801d5a2cc62</property>
  <property name="kdenlive:audio_max0">249</property>
 </producer>
 <producer id="producer47" in="00:00:00.000" out="00:02:35.033">
  <property name="length">4652</property>
  <property name="eof">pause</property>
  <property name="resource">/opt/vlog/musica/bensound/bensound-highoctane.mp3</property>
  <property name="meta.media.nb_streams">1</property>
  <property name="meta.media.0.stream.type">audio</property>
  <property name="meta.media.0.codec.sample_fmt">fltp</property>
  <property name="meta.media.0.codec.sample_rate">44100</property>
  <property name="meta.media.0.codec.channels">2</property>
  <property name="meta.media.0.codec.name">mp3float</property>
  <property name="meta.media.0.codec.long_name">MP3 (MPEG audio layer 3)</property>
  <property name="meta.media.0.codec.bit_rate">160000</property>
  <property name="seekable">1</property>
  <property name="audio_index">0</property>
  <property name="video_index">-1</property>
  <property name="mute_on_pause">1</property>
  <property name="mlt_service">avformat</property>
  <property name="kdenlive:clipname"/>
  <property name="kdenlive:folderid">14</property>
  <property name="kdenlive:id">52</property>
  <property name="kdenlive:file_size">3101258</property>
  <property name="kdenlive:file_hash">cc84dad81f550ce2b375d22cfcfba653</property>
  <property name="kdenlive:audio_max0">251</property>
 </producer>
 <producer id="producer48" in="00:00:00.000" out="00:02:43.900">
  <property name="length">4918</property>
  <property name="eof">pause</property>
  <property name="resource">/opt/vlog/musica/bensound/bensound-hipjazz.mp3</property>
  <property name="meta.media.nb_streams">1</property>
  <property name="meta.media.0.stream.type">audio</property>
  <property name="meta.media.0.codec.sample_fmt">fltp</property>
  <property name="meta.media.0.codec.sample_rate">44100</property>
  <property name="meta.media.0.codec.channels">2</property>
  <property name="meta.media.0.codec.name">mp3float</property>
  <property name="meta.media.0.codec.long_name">MP3 (MPEG audio layer 3)</property>
  <property name="meta.media.0.codec.bit_rate">192000</property>
  <property name="seekable">1</property>
  <property name="audio_index">0</property>
  <property name="video_index">-1</property>
  <property name="mute_on_pause">1</property>
  <property name="mlt_service">avformat</property>
  <property name="kdenlive:clipname"/>
  <property name="kdenlive:folderid">14</property>
  <property name="kdenlive:id">53</property>
  <property name="kdenlive:file_size">3934667</property>
  <property name="kdenlive:file_hash">7f3fad3389ccd0d86f6ae878dd26f23c</property>
  <property name="kdenlive:audio_max0">250</property>
 </producer>
 <producer id="producer49" in="00:00:00.000" out="00:04:19.533">
  <property name="length">7787</property>
  <property name="eof">pause</property>
  <property name="resource">/opt/vlog/musica/bensound/bensound-house.mp3</property>
  <property name="meta.media.nb_streams">1</property>
  <property name="meta.media.0.stream.type">audio</property>
  <property name="meta.media.0.codec.sample_fmt">fltp</property>
  <property name="meta.media.0.codec.sample_rate">44100</property>
  <property name="meta.media.0.codec.channels">2</property>
  <property name="meta.media.0.codec.name">mp3float</property>
  <property name="meta.media.0.codec.long_name">MP3 (MPEG audio layer 3)</property>
  <property name="meta.media.0.codec.bit_rate">112000</property>
  <property name="seekable">1</property>
  <property name="audio_index">0</property>
  <property name="video_index">-1</property>
  <property name="mute_on_pause">1</property>
  <property name="mlt_service">avformat</property>
  <property name="kdenlive:clipname"/>
  <property name="kdenlive:folderid">14</property>
  <property name="kdenlive:id">54</property>
  <property name="kdenlive:file_size">3633738</property>
  <property name="kdenlive:file_hash">b947c3699395342c75aa829b58fd6119</property>
  <property name="kdenlive:audio_max0">241</property>
 </producer>
 <producer id="producer50" in="00:00:00.000" out="00:04:13.833">
  <property name="length">7616</property>
  <property name="eof">pause</property>
  <property name="resource">/opt/vlog/musica/bensound/bensound-india.mp3</property>
  <property name="meta.media.nb_streams">1</property>
  <property name="meta.media.0.stream.type">audio</property>
  <property name="meta.media.0.codec.sample_fmt">fltp</property>
  <property name="meta.media.0.codec.sample_rate">44100</property>
  <property name="meta.media.0.codec.channels">2</property>
  <property name="meta.media.0.codec.name">mp3float</property>
  <property name="meta.media.0.codec.long_name">MP3 (MPEG audio layer 3)</property>
  <property name="meta.media.0.codec.bit_rate">112000</property>
  <property name="seekable">1</property>
  <property name="audio_index">0</property>
  <property name="video_index">-1</property>
  <property name="mute_on_pause">1</property>
  <property name="mlt_service">avformat</property>
  <property name="kdenlive:clipname"/>
  <property name="kdenlive:folderid">14</property>
  <property name="kdenlive:id">55</property>
  <property name="kdenlive:file_size">3554013</property>
  <property name="kdenlive:file_hash">01b6b7bc88d27c67fee5e645bf9093de</property>
  <property name="kdenlive:audio_max0">231</property>
 </producer>
 <producer id="producer51" in="00:00:00.000" out="00:03:24.067">
  <property name="length">6123</property>
  <property name="eof">pause</property>
  <property name="resource">/opt/vlog/musica/bensound/bensound-instinct.mp3</property>
  <property name="meta.media.nb_streams">1</property>
  <property name="meta.media.0.stream.type">audio</property>
  <property name="meta.media.0.codec.sample_fmt">fltp</property>
  <property name="meta.media.0.codec.sample_rate">44100</property>
  <property name="meta.media.0.codec.channels">2</property>
  <property name="meta.media.0.codec.name">mp3float</property>
  <property name="meta.media.0.codec.long_name">MP3 (MPEG audio layer 3)</property>
  <property name="meta.media.0.codec.bit_rate">112000</property>
  <property name="seekable">1</property>
  <property name="audio_index">0</property>
  <property name="video_index">-1</property>
  <property name="mute_on_pause">1</property>
  <property name="mlt_service">avformat</property>
  <property name="kdenlive:clipname"/>
  <property name="kdenlive:folderid">14</property>
  <property name="kdenlive:id">56</property>
  <property name="kdenlive:file_size">2857326</property>
  <property name="kdenlive:file_hash">8021829295040b70aafa9228cd6ec43a</property>
  <property name="kdenlive:audio_max0">230</property>
 </producer>
 <producer id="producer52" in="00:00:00.000" out="00:03:13.933">
  <property name="length">5819</property>
  <property name="eof">pause</property>
  <property name="resource">/opt/vlog/musica/bensound/bensound-jazzcomedy.mp3</property>
  <property name="meta.media.nb_streams">1</property>
  <property name="meta.media.0.stream.type">audio</property>
  <property name="meta.media.0.codec.sample_fmt">fltp</property>
  <property name="meta.media.0.codec.sample_rate">44100</property>
  <property name="meta.media.0.codec.channels">2</property>
  <property name="meta.media.0.codec.name">mp3float</property>
  <property name="meta.media.0.codec.long_name">MP3 (MPEG audio layer 3)</property>
  <property name="meta.media.0.codec.bit_rate">112000</property>
  <property name="seekable">1</property>
  <property name="audio_index">0</property>
  <property name="video_index">-1</property>
  <property name="mute_on_pause">1</property>
  <property name="mlt_service">avformat</property>
  <property name="kdenlive:clipname"/>
  <property name="kdenlive:folderid">14</property>
  <property name="kdenlive:id">57</property>
  <property name="kdenlive:file_size">2715430</property>
  <property name="kdenlive:file_hash">6c62af2fd5fb64ddb8cf829b6953ad15</property>
  <property name="kdenlive:audio_max0">224</property>
 </producer>
 <producer id="producer53" in="00:00:00.000" out="00:01:44.767">
  <property name="length">3144</property>
  <property name="eof">pause</property>
  <property name="resource">/opt/vlog/musica/bensound/bensound-jazzyfrenchy.mp3</property>
  <property name="meta.media.nb_streams">1</property>
  <property name="meta.media.0.stream.type">audio</property>
  <property name="meta.media.0.codec.sample_fmt">fltp</property>
  <property name="meta.media.0.codec.sample_rate">44100</property>
  <property name="meta.media.0.codec.channels">2</property>
  <property name="meta.media.0.codec.name">mp3float</property>
  <property name="meta.media.0.codec.long_name">MP3 (MPEG audio layer 3)</property>
  <property name="meta.media.0.codec.bit_rate">112000</property>
  <property name="seekable">1</property>
  <property name="audio_index">0</property>
  <property name="video_index">-1</property>
  <property name="mute_on_pause">1</property>
  <property name="mlt_service">avformat</property>
  <property name="kdenlive:clipname"/>
  <property name="kdenlive:folderid">14</property>
  <property name="kdenlive:id">58</property>
  <property name="kdenlive:file_size">1467246</property>
  <property name="kdenlive:file_hash">c2e5fc2fc119231c8e8467632a3b9481</property>
  <property name="kdenlive:audio_max0">231</property>
 </producer>
 <producer id="producer54" in="00:00:00.000" out="00:02:49.267">
  <property name="length">5079</property>
  <property name="eof">pause</property>
  <property name="resource">/opt/vlog/musica/bensound/bensound-littleidea.mp3</property>
  <property name="meta.media.nb_streams">1</property>
  <property name="meta.media.0.stream.type">audio</property>
  <property name="meta.media.0.codec.sample_fmt">fltp</property>
  <property name="meta.media.0.codec.sample_rate">44100</property>
  <property name="meta.media.0.codec.channels">2</property>
  <property name="meta.media.0.codec.name">mp3float</property>
  <property name="meta.media.0.codec.long_name">MP3 (MPEG audio layer 3)</property>
  <property name="meta.media.0.codec.bit_rate">112000</property>
  <property name="seekable">1</property>
  <property name="audio_index">0</property>
  <property name="video_index">-1</property>
  <property name="mute_on_pause">1</property>
  <property name="mlt_service">avformat</property>
  <property name="kdenlive:clipname"/>
  <property name="kdenlive:folderid">14</property>
  <property name="kdenlive:id">59</property>
  <property name="kdenlive:file_size">2370194</property>
  <property name="kdenlive:file_hash">76818ef174fdc05b5cc283eadb774254</property>
  <property name="kdenlive:audio_max0">236</property>
 </producer>
 <producer id="producer55" in="00:00:00.000" out="00:06:36.767">
  <property name="length">11904</property>
  <property name="eof">pause</property>
  <property name="resource">/opt/vlog/musica/bensound/bensound-littleplanet.mp3</property>
  <property name="meta.media.nb_streams">1</property>
  <property name="meta.media.0.stream.type">audio</property>
  <property name="meta.media.0.codec.sample_fmt">fltp</property>
  <property name="meta.media.0.codec.sample_rate">44100</property>
  <property name="meta.media.0.codec.channels">2</property>
  <property name="meta.media.0.codec.name">mp3float</property>
  <property name="meta.media.0.codec.long_name">MP3 (MPEG audio layer 3)</property>
  <property name="meta.media.0.codec.bit_rate">112000</property>
  <property name="seekable">1</property>
  <property name="audio_index">0</property>
  <property name="video_index">-1</property>
  <property name="mute_on_pause">1</property>
  <property name="mlt_service">avformat</property>
  <property name="kdenlive:clipname"/>
  <property name="kdenlive:folderid">14</property>
  <property name="kdenlive:id">60</property>
  <property name="kdenlive:file_size">5555201</property>
  <property name="kdenlive:file_hash">bc2dabb9b399b8f18e8b31b0a821f8cb</property>
  <property name="kdenlive:audio_max0">204</property>
 </producer>
 <producer id="producer56" in="00:00:00.000" out="00:05:36.000">
  <property name="length">10081</property>
  <property name="eof">pause</property>
  <property name="resource">/opt/vlog/musica/bensound/bensound-love.mp3</property>
  <property name="meta.media.nb_streams">1</property>
  <property name="meta.media.0.stream.type">audio</property>
  <property name="meta.media.0.codec.sample_fmt">fltp</property>
  <property name="meta.media.0.codec.sample_rate">44100</property>
  <property name="meta.media.0.codec.channels">2</property>
  <property name="meta.media.0.codec.name">mp3float</property>
  <property name="meta.media.0.codec.long_name">MP3 (MPEG audio layer 3)</property>
  <property name="meta.media.0.codec.bit_rate">112000</property>
  <property name="meta.attr.title.markup">Loveable</property>
  <property name="meta.attr.artist.markup">Bensound</property>
  <property name="meta.attr.comment.markup">www.bensound.com</property>
  <property name="meta.attr.genre.markup">Abstract</property>
  <property name="seekable">1</property>
  <property name="audio_index">0</property>
  <property name="video_index">-1</property>
  <property name="mute_on_pause">1</property>
  <property name="mlt_service">avformat</property>
  <property name="kdenlive:clipname"/>
  <property name="kdenlive:folderid">14</property>
  <property name="kdenlive:id">61</property>
  <property name="kdenlive:file_size">4704432</property>
  <property name="kdenlive:file_hash">41ef561c7d9ba7de2a1c7b8ab7fd9a2a</property>
  <property name="kdenlive:audio_max0">225</property>
 </producer>
 <producer id="producer57" in="00:00:00.000" out="00:03:50.267">
  <property name="length">6909</property>
  <property name="eof">pause</property>
  <property name="resource">/opt/vlog/musica/bensound/bensound-memories.mp3</property>
  <property name="meta.media.nb_streams">1</property>
  <property name="meta.media.0.stream.type">audio</property>
  <property name="meta.media.0.codec.sample_fmt">fltp</property>
  <property name="meta.media.0.codec.sample_rate">44100</property>
  <property name="meta.media.0.codec.channels">2</property>
  <property name="meta.media.0.codec.name">mp3float</property>
  <property name="meta.media.0.codec.long_name">MP3 (MPEG audio layer 3)</property>
  <property name="meta.media.0.codec.bit_rate">112000</property>
  <property name="seekable">1</property>
  <property name="audio_index">0</property>
  <property name="video_index">-1</property>
  <property name="mute_on_pause">1</property>
  <property name="mlt_service">avformat</property>
  <property name="kdenlive:clipname"/>
  <property name="kdenlive:folderid">14</property>
  <property name="kdenlive:id">62</property>
  <property name="kdenlive:file_size">3224137</property>
  <property name="kdenlive:file_hash">050f6c0265034dac236a20505418f99a</property>
  <property name="kdenlive:audio_max0">240</property>
 </producer>
 <producer id="producer58" in="00:00:00.000" out="00:02:40.700">
  <property name="length">4822</property>
  <property name="eof">pause</property>
  <property name="resource">/opt/vlog/musica/bensound/bensound-moose.mp3</property>
  <property name="meta.media.nb_streams">1</property>
  <property name="meta.media.0.stream.type">audio</property>
  <property name="meta.media.0.codec.sample_fmt">fltp</property>
  <property name="meta.media.0.codec.sample_rate">44100</property>
  <property name="meta.media.0.codec.channels">2</property>
  <property name="meta.media.0.codec.name">mp3float</property>
  <property name="meta.media.0.codec.long_name">MP3 (MPEG audio layer 3)</property>
  <property name="meta.media.0.codec.bit_rate">112000</property>
  <property name="seekable">1</property>
  <property name="audio_index">0</property>
  <property name="video_index">-1</property>
  <property name="mute_on_pause">1</property>
  <property name="mlt_service">avformat</property>
  <property name="kdenlive:clipname"/>
  <property name="kdenlive:folderid">14</property>
  <property name="kdenlive:id">63</property>
  <property name="kdenlive:file_size">2250240</property>
  <property name="kdenlive:file_hash">1859766a9ec64e14ddfe5d42a769e97a</property>
  <property name="kdenlive:audio_max0">251</property>
 </producer>
 <producer id="producer59" in="00:00:00.000" out="00:05:13.433">
  <property name="length">9404</property>
  <property name="eof">pause</property>
  <property name="resource">/opt/vlog/musica/bensound/bensound-newdawn.mp3</property>
  <property name="meta.media.nb_streams">1</property>
  <property name="meta.media.0.stream.type">audio</property>
  <property name="meta.media.0.codec.sample_fmt">fltp</property>
  <property name="meta.media.0.codec.sample_rate">44100</property>
  <property name="meta.media.0.codec.channels">2</property>
  <property name="meta.media.0.codec.name">mp3float</property>
  <property name="meta.media.0.codec.long_name">MP3 (MPEG audio layer 3)</property>
  <property name="meta.media.0.codec.bit_rate">112000</property>
  <property name="meta.attr.comment.markup">Made with Sony ACID Pro 6.0</property>
  <property name="meta.attr.genre.markup">Abstract</property>
  <property name="seekable">1</property>
  <property name="audio_index">0</property>
  <property name="video_index">-1</property>
  <property name="mute_on_pause">1</property>
  <property name="mlt_service">avformat</property>
  <property name="kdenlive:clipname"/>
  <property name="kdenlive:folderid">14</property>
  <property name="kdenlive:id">64</property>
  <property name="kdenlive:file_size">4388785</property>
  <property name="kdenlive:file_hash">0bbc2b9e1b089b7fc3cd4ccc94ecf756</property>
  <property name="kdenlive:audio_max0">204</property>
 </producer>
 <producer id="producer60" in="00:00:00.000" out="00:03:32.033">
  <property name="length">6362</property>
  <property name="eof">pause</property>
  <property name="resource">/opt/vlog/musica/bensound/bensound-november.mp3</property>
  <property name="meta.media.nb_streams">1</property>
  <property name="meta.media.0.stream.type">audio</property>
  <property name="meta.media.0.codec.sample_fmt">fltp</property>
  <property name="meta.media.0.codec.sample_rate">44100</property>
  <property name="meta.media.0.codec.channels">2</property>
  <property name="meta.media.0.codec.name">mp3float</property>
  <property name="meta.media.0.codec.long_name">MP3 (MPEG audio layer 3)</property>
  <property name="meta.media.0.codec.bit_rate">112000</property>
  <property name="seekable">1</property>
  <property name="audio_index">0</property>
  <property name="video_index">-1</property>
  <property name="mute_on_pause">1</property>
  <property name="mlt_service">avformat</property>
  <property name="kdenlive:clipname"/>
  <property name="kdenlive:folderid">14</property>
  <property name="kdenlive:id">65</property>
  <property name="kdenlive:file_size">2968870</property>
  <property name="kdenlive:file_hash">9736ef00327fcb86a9651e6354289b1d</property>
  <property name="kdenlive:audio_max0">190</property>
 </producer>
 <producer id="producer61" in="00:00:00.000" out="00:04:58.733">
  <property name="length">8963</property>
  <property name="eof">pause</property>
  <property name="resource">/opt/vlog/musica/bensound/bensound-ofeliasdream.mp3</property>
  <property name="meta.media.nb_streams">1</property>
  <property name="meta.media.0.stream.type">audio</property>
  <property name="meta.media.0.codec.sample_fmt">fltp</property>
  <property name="meta.media.0.codec.sample_rate">44100</property>
  <property name="meta.media.0.codec.channels">2</property>
  <property name="meta.media.0.codec.name">mp3float</property>
  <property name="meta.media.0.codec.long_name">MP3 (MPEG audio layer 3)</property>
  <property name="meta.media.0.codec.bit_rate">112000</property>
  <property name="seekable">1</property>
  <property name="audio_index">0</property>
  <property name="video_index">-1</property>
  <property name="mute_on_pause">1</property>
  <property name="mlt_service">avformat</property>
  <property name="kdenlive:clipname"/>
  <property name="kdenlive:folderid">14</property>
  <property name="kdenlive:id">66</property>
  <property name="kdenlive:file_size">4182676</property>
  <property name="kdenlive:file_hash">93731780e8a9be5214d75636b455b52b</property>
  <property name="kdenlive:audio_max0">213</property>
 </producer>
 <producer id="producer62" in="00:00:00.000" out="00:03:51.600">
  <property name="length">6949</property>
  <property name="eof">pause</property>
  <property name="resource">/opt/vlog/musica/bensound/bensound-onceagain.mp3</property>
  <property name="meta.media.nb_streams">1</property>
  <property name="meta.media.0.stream.type">audio</property>
  <property name="meta.media.0.codec.sample_fmt">fltp</property>
  <property name="meta.media.0.codec.sample_rate">44100</property>
  <property name="meta.media.0.codec.channels">2</property>
  <property name="meta.media.0.codec.name">mp3float</property>
  <property name="meta.media.0.codec.long_name">MP3 (MPEG audio layer 3)</property>
  <property name="meta.media.0.codec.bit_rate">192000</property>
  <property name="seekable">1</property>
  <property name="audio_index">0</property>
  <property name="video_index">-1</property>
  <property name="mute_on_pause">1</property>
  <property name="mlt_service">avformat</property>
  <property name="kdenlive:clipname"/>
  <property name="kdenlive:folderid">14</property>
  <property name="kdenlive:id">67</property>
  <property name="kdenlive:file_size">5559066</property>
  <property name="kdenlive:file_hash">cba8c21d3cef4ca1f78cf8a3a86a621a</property>
  <property name="kdenlive:audio_max0">219</property>
 </producer>
 <producer id="producer63" in="00:00:00.000" out="00:02:42.233">
  <property name="length">4868</property>
  <property name="eof">pause</property>
  <property name="resource">/opt/vlog/musica/bensound/bensound-perception.mp3</property>
  <property name="meta.media.nb_streams">1</property>
  <property name="meta.media.0.stream.type">audio</property>
  <property name="meta.media.0.codec.sample_fmt">fltp</property>
  <property name="meta.media.0.codec.sample_rate">44100</property>
  <property name="meta.media.0.codec.channels">2</property>
  <property name="meta.media.0.codec.name">mp3float</property>
  <property name="meta.media.0.codec.long_name">MP3 (MPEG audio layer 3)</property>
  <property name="meta.media.0.codec.bit_rate">192000</property>
  <property name="seekable">1</property>
  <property name="audio_index">0</property>
  <property name="video_index">-1</property>
  <property name="mute_on_pause">1</property>
  <property name="mlt_service">avformat</property>
  <property name="kdenlive:clipname"/>
  <property name="kdenlive:folderid">14</property>
  <property name="kdenlive:id">68</property>
  <property name="kdenlive:file_size">3894543</property>
  <property name="kdenlive:file_hash">b709ada5dd1bf4723d43e8c6099a9824</property>
  <property name="kdenlive:audio_max0">241</property>
 </producer>
 <producer id="producer64" in="00:00:00.000" out="00:03:16.267">
  <property name="length">5889</property>
  <property name="eof">pause</property>
  <property name="resource">/opt/vlog/musica/bensound/bensound-photoalbum.mp3</property>
  <property name="meta.media.nb_streams">1</property>
  <property name="meta.media.0.stream.type">audio</property>
  <property name="meta.media.0.codec.sample_fmt">fltp</property>
  <property name="meta.media.0.codec.sample_rate">44100</property>
  <property name="meta.media.0.codec.channels">2</property>
  <property name="meta.media.0.codec.name">mp3float</property>
  <property name="meta.media.0.codec.long_name">MP3 (MPEG audio layer 3)</property>
  <property name="meta.media.0.codec.bit_rate">192000</property>
  <property name="seekable">1</property>
  <property name="audio_index">0</property>
  <property name="video_index">-1</property>
  <property name="mute_on_pause">1</property>
  <property name="mlt_service">avformat</property>
  <property name="kdenlive:clipname"/>
  <property name="kdenlive:folderid">14</property>
  <property name="kdenlive:id">69</property>
  <property name="kdenlive:file_size">4710818</property>
  <property name="kdenlive:file_hash">96b036d293536f3f1385bb875201eba5</property>
  <property name="kdenlive:audio_max0">241</property>
 </producer>
 <producer id="producer65" in="00:00:00.000" out="00:01:50.133">
  <property name="length">3305</property>
  <property name="eof">pause</property>
  <property name="resource">/opt/vlog/musica/bensound/bensound-pianomoment.mp3</property>
  <property name="meta.media.nb_streams">1</property>
  <property name="meta.media.0.stream.type">audio</property>
  <property name="meta.media.0.codec.sample_fmt">fltp</property>
  <property name="meta.media.0.codec.sample_rate">44100</property>
  <property name="meta.media.0.codec.channels">2</property>
  <property name="meta.media.0.codec.name">mp3float</property>
  <property name="meta.media.0.codec.long_name">MP3 (MPEG audio layer 3)</property>
  <property name="meta.media.0.codec.bit_rate">112000</property>
  <property name="seekable">1</property>
  <property name="audio_index">0</property>
  <property name="video_index">-1</property>
  <property name="mute_on_pause">1</property>
  <property name="mlt_service">avformat</property>
  <property name="kdenlive:clipname"/>
  <property name="kdenlive:folderid">14</property>
  <property name="kdenlive:id">70</property>
  <property name="kdenlive:file_size">1542217</property>
  <property name="kdenlive:file_hash">291a76b3ca0c7685d629f636c6ff9c21</property>
  <property name="kdenlive:audio_max0">218</property>
 </producer>
 <producer id="producer66" in="00:00:00.000" out="00:02:42.033">
  <property name="length">4862</property>
  <property name="eof">pause</property>
  <property name="resource">/opt/vlog/musica/bensound/bensound-popdance.mp3</property>
  <property name="meta.media.nb_streams">1</property>
  <property name="meta.media.0.stream.type">audio</property>
  <property name="meta.media.0.codec.sample_fmt">fltp</property>
  <property name="meta.media.0.codec.sample_rate">44100</property>
  <property name="meta.media.0.codec.channels">2</property>
  <property name="meta.media.0.codec.name">mp3float</property>
  <property name="meta.media.0.codec.long_name">MP3 (MPEG audio layer 3)</property>
  <property name="meta.media.0.codec.bit_rate">112000</property>
  <property name="seekable">1</property>
  <property name="audio_index">0</property>
  <property name="video_index">-1</property>
  <property name="mute_on_pause">1</property>
  <property name="mlt_service">avformat</property>
  <property name="kdenlive:clipname"/>
  <property name="kdenlive:folderid">14</property>
  <property name="kdenlive:id">71</property>
  <property name="kdenlive:file_size">2268893</property>
  <property name="kdenlive:file_hash">691d9d3950118e96399b3d8b6e20d368</property>
  <property name="kdenlive:audio_max0">235</property>
 </producer>
 <producer id="producer67" in="00:00:00.000" out="00:02:56.933">
  <property name="length">5309</property>
  <property name="eof">pause</property>
  <property name="resource">/opt/vlog/musica/bensound/bensound-psychedelic.mp3</property>
  <property name="meta.media.nb_streams">1</property>
  <property name="meta.media.0.stream.type">audio</property>
  <property name="meta.media.0.codec.sample_fmt">fltp</property>
  <property name="meta.media.0.codec.sample_rate">44100</property>
  <property name="meta.media.0.codec.channels">2</property>
  <property name="meta.media.0.codec.name">mp3float</property>
  <property name="meta.media.0.codec.long_name">MP3 (MPEG audio layer 3)</property>
  <property name="meta.media.0.codec.bit_rate">112000</property>
  <property name="seekable">1</property>
  <property name="audio_index">0</property>
  <property name="video_index">-1</property>
  <property name="mute_on_pause">1</property>
  <property name="mlt_service">avformat</property>
  <property name="kdenlive:clipname"/>
  <property name="kdenlive:folderid">14</property>
  <property name="kdenlive:id">72</property>
  <property name="kdenlive:file_size">2477714</property>
  <property name="kdenlive:file_hash">d4348c536be6007a5f6f0c8d906fb83d</property>
  <property name="kdenlive:audio_max0">218</property>
 </producer>
 <producer id="producer68" in="00:00:00.000" out="00:02:05.733">
  <property name="length">3773</property>
  <property name="eof">pause</property>
  <property name="resource">/opt/vlog/musica/bensound/bensound-punky.mp3</property>
  <property name="meta.media.nb_streams">1</property>
  <property name="meta.media.0.stream.type">audio</property>
  <property name="meta.media.0.codec.sample_fmt">fltp</property>
  <property name="meta.media.0.codec.sample_rate">44100</property>
  <property name="meta.media.0.codec.channels">2</property>
  <property name="meta.media.0.codec.name">mp3float</property>
  <property name="meta.media.0.codec.long_name">MP3 (MPEG audio layer 3)</property>
  <property name="meta.media.0.codec.bit_rate">192000</property>
  <property name="seekable">1</property>
  <property name="audio_index">0</property>
  <property name="video_index">-1</property>
  <property name="mute_on_pause">1</property>
  <property name="mlt_service">avformat</property>
  <property name="kdenlive:clipname"/>
  <property name="kdenlive:folderid">14</property>
  <property name="kdenlive:id">73</property>
  <property name="kdenlive:file_size">3018083</property>
  <property name="kdenlive:file_hash">d1f5e0c9e9a0ab12fe99d3bbeede8954</property>
  <property name="kdenlive:audio_max0">243</property>
 </producer>
 <producer id="producer69" in="00:00:00.000" out="00:04:48.033">
  <property name="length">8642</property>
  <property name="eof">pause</property>
  <property name="resource">/opt/vlog/musica/bensound/bensound-relaxing.mp3</property>
  <property name="meta.media.nb_streams">1</property>
  <property name="meta.media.0.stream.type">audio</property>
  <property name="meta.media.0.codec.sample_fmt">fltp</property>
  <property name="meta.media.0.codec.sample_rate">44100</property>
  <property name="meta.media.0.codec.channels">2</property>
  <property name="meta.media.0.codec.name">mp3float</property>
  <property name="meta.media.0.codec.long_name">MP3 (MPEG audio layer 3)</property>
  <property name="meta.media.0.codec.bit_rate">112000</property>
  <property name="seekable">1</property>
  <property name="audio_index">0</property>
  <property name="video_index">-1</property>
  <property name="mute_on_pause">1</property>
  <property name="mlt_service">avformat</property>
  <property name="kdenlive:clipname"/>
  <property name="kdenlive:folderid">14</property>
  <property name="kdenlive:id">74</property>
  <property name="kdenlive:file_size">4033097</property>
  <property name="kdenlive:file_hash">32882ad5fa17a8ada6c20dfd862c1cd0</property>
  <property name="kdenlive:audio_max0">203</property>
 </producer>
 <producer id="producer70" in="00:00:00.000" out="00:03:36.467">
  <property name="length">6495</property>
  <property name="eof">pause</property>
  <property name="resource">/opt/vlog/musica/bensound/bensound-retrosoul.mp3</property>
  <property name="meta.media.nb_streams">1</property>
  <property name="meta.media.0.stream.type">audio</property>
  <property name="meta.media.0.codec.sample_fmt">fltp</property>
  <property name="meta.media.0.codec.sample_rate">44100</property>
  <property name="meta.media.0.codec.channels">2</property>
  <property name="meta.media.0.codec.name">mp3float</property>
  <property name="meta.media.0.codec.long_name">MP3 (MPEG audio layer 3)</property>
  <property name="meta.media.0.codec.bit_rate">112000</property>
  <property name="seekable">1</property>
  <property name="audio_index">0</property>
  <property name="video_index">-1</property>
  <property name="mute_on_pause">1</property>
  <property name="mlt_service">avformat</property>
  <property name="kdenlive:clipname"/>
  <property name="kdenlive:folderid">14</property>
  <property name="kdenlive:id">75</property>
  <property name="kdenlive:file_size">3031040</property>
  <property name="kdenlive:file_hash">7621e16031b8e45b432a3e1c134ffcea</property>
  <property name="kdenlive:audio_max0">250</property>
 </producer>
 <producer id="producer71" in="00:00:00.000" out="00:03:56.567">
  <property name="length">7098</property>
  <property name="eof">pause</property>
  <property name="resource">/opt/vlog/musica/bensound/bensound-romantic.mp3</property>
  <property name="meta.media.nb_streams">1</property>
  <property name="meta.media.0.stream.type">audio</property>
  <property name="meta.media.0.codec.sample_fmt">fltp</property>
  <property name="meta.media.0.codec.sample_rate">44100</property>
  <property name="meta.media.0.codec.channels">2</property>
  <property name="meta.media.0.codec.name">mp3float</property>
  <property name="meta.media.0.codec.long_name">MP3 (MPEG audio layer 3)</property>
  <property name="meta.media.0.codec.bit_rate">128000</property>
  <property name="meta.attr.artist.markup">Bensound</property>
  <property name="meta.attr.genre.markup">Abstract</property>
  <property name="seekable">1</property>
  <property name="audio_index">0</property>
  <property name="video_index">-1</property>
  <property name="mute_on_pause">1</property>
  <property name="mlt_service">avformat</property>
  <property name="kdenlive:clipname"/>
  <property name="kdenlive:folderid">14</property>
  <property name="kdenlive:id">76</property>
  <property name="kdenlive:file_size">3785625</property>
  <property name="kdenlive:file_hash">60c87c3f3f89c364bd4c592c01006a69</property>
  <property name="kdenlive:audio_max0">227</property>
 </producer>
 <producer id="producer72" in="00:00:00.000" out="00:02:34.733">
  <property name="length">4643</property>
  <property name="eof">pause</property>
  <property name="resource">/opt/vlog/musica/bensound/bensound-rumble.mp3</property>
  <property name="meta.media.nb_streams">1</property>
  <property name="meta.media.0.stream.type">audio</property>
  <property name="meta.media.0.codec.sample_fmt">fltp</property>
  <property name="meta.media.0.codec.sample_rate">44100</property>
  <property name="meta.media.0.codec.channels">2</property>
  <property name="meta.media.0.codec.name">mp3float</property>
  <property name="meta.media.0.codec.long_name">MP3 (MPEG audio layer 3)</property>
  <property name="meta.media.0.codec.bit_rate">112000</property>
  <property name="seekable">1</property>
  <property name="audio_index">0</property>
  <property name="video_index">-1</property>
  <property name="mute_on_pause">1</property>
  <property name="mlt_service">avformat</property>
  <property name="kdenlive:clipname"/>
  <property name="kdenlive:folderid">14</property>
  <property name="kdenlive:id">77</property>
  <property name="kdenlive:file_size">2166858</property>
  <property name="kdenlive:file_hash">d717bcc2e0bdb1f82f47866de73b84f2</property>
  <property name="kdenlive:audio_max0">237</property>
 </producer>
 <producer id="producer73" in="00:00:00.000" out="00:02:28.667">
  <property name="length">4461</property>
  <property name="eof">pause</property>
  <property name="resource">/opt/vlog/musica/bensound/bensound-sadday.mp3</property>
  <property name="meta.media.nb_streams">1</property>
  <property name="meta.media.0.stream.type">audio</property>
  <property name="meta.media.0.codec.sample_fmt">fltp</property>
  <property name="meta.media.0.codec.sample_rate">44100</property>
  <property name="meta.media.0.codec.channels">2</property>
  <property name="meta.media.0.codec.name">mp3float</property>
  <property name="meta.media.0.codec.long_name">MP3 (MPEG audio layer 3)</property>
  <property name="meta.media.0.codec.bit_rate">112000</property>
  <property name="seekable">1</property>
  <property name="audio_index">0</property>
  <property name="video_index">-1</property>
  <property name="mute_on_pause">1</property>
  <property name="mlt_service">avformat</property>
  <property name="kdenlive:clipname"/>
  <property name="kdenlive:folderid">14</property>
  <property name="kdenlive:id">78</property>
  <property name="kdenlive:file_size">2081646</property>
  <property name="kdenlive:file_hash">f0a06c1851b185ffae2c344b9b3c843d</property>
  <property name="kdenlive:audio_max0">208</property>
 </producer>
 <producer id="producer74" in="00:00:00.000" out="00:04:44.900">
  <property name="length">8548</property>
  <property name="eof">pause</property>
  <property name="resource">/opt/vlog/musica/bensound/bensound-scifi.mp3</property>
  <property name="meta.media.nb_streams">1</property>
  <property name="meta.media.0.stream.type">audio</property>
  <property name="meta.media.0.codec.sample_fmt">fltp</property>
  <property name="meta.media.0.codec.sample_rate">44100</property>
  <property name="meta.media.0.codec.channels">2</property>
  <property name="meta.media.0.codec.name">mp3float</property>
  <property name="meta.media.0.codec.long_name">MP3 (MPEG audio layer 3)</property>
  <property name="meta.media.0.codec.bit_rate">112000</property>
  <property name="seekable">1</property>
  <property name="audio_index">0</property>
  <property name="video_index">-1</property>
  <property name="mute_on_pause">1</property>
  <property name="mlt_service">avformat</property>
  <property name="kdenlive:clipname"/>
  <property name="kdenlive:folderid">14</property>
  <property name="kdenlive:id">79</property>
  <property name="kdenlive:file_size">3989956</property>
  <property name="kdenlive:file_hash">e1220b492acb07a2393327a3e47fbf23</property>
  <property name="kdenlive:audio_max0">247</property>
 </producer>
 <producer id="producer75" in="00:00:00.000" out="00:02:53.767">
  <property name="length">5214</property>
  <property name="eof">pause</property>
  <property name="resource">/opt/vlog/musica/bensound/bensound-sexy.mp3</property>
  <property name="meta.media.nb_streams">1</property>
  <property name="meta.media.0.stream.type">audio</property>
  <property name="meta.media.0.codec.sample_fmt">fltp</property>
  <property name="meta.media.0.codec.sample_rate">44100</property>
  <property name="meta.media.0.codec.channels">2</property>
  <property name="meta.media.0.codec.name">mp3float</property>
  <property name="meta.media.0.codec.long_name">MP3 (MPEG audio layer 3)</property>
  <property name="meta.media.0.codec.bit_rate">112000</property>
  <property name="meta.attr.genre.markup">Abstract</property>
  <property name="seekable">1</property>
  <property name="audio_index">0</property>
  <property name="video_index">-1</property>
  <property name="mute_on_pause">1</property>
  <property name="mlt_service">avformat</property>
  <property name="kdenlive:clipname"/>
  <property name="kdenlive:folderid">14</property>
  <property name="kdenlive:id">80</property>
  <property name="kdenlive:file_size">2433592</property>
  <property name="kdenlive:file_hash">50403185179e175c77d9ba5b65b00ac3</property>
  <property name="kdenlive:audio_max0">246</property>
 </producer>
 <producer id="producer76" in="00:00:00.000" out="00:03:26.967">
  <property name="length">6210</property>
  <property name="eof">pause</property>
  <property name="resource">/opt/vlog/musica/bensound/bensound-slowmotion.mp3</property>
  <property name="meta.media.nb_streams">1</property>
  <property name="meta.media.0.stream.type">audio</property>
  <property name="meta.media.0.codec.sample_fmt">fltp</property>
  <property name="meta.media.0.codec.sample_rate">44100</property>
  <property name="meta.media.0.codec.channels">2</property>
  <property name="meta.media.0.codec.name">mp3float</property>
  <property name="meta.media.0.codec.long_name">MP3 (MPEG audio layer 3)</property>
  <property name="meta.media.0.codec.bit_rate">112000</property>
  <property name="seekable">1</property>
  <property name="audio_index">0</property>
  <property name="video_index">-1</property>
  <property name="mute_on_pause">1</property>
  <property name="mlt_service">avformat</property>
  <property name="kdenlive:clipname"/>
  <property name="kdenlive:folderid">14</property>
  <property name="kdenlive:id">81</property>
  <property name="kdenlive:file_size">2897920</property>
  <property name="kdenlive:file_hash">f9f3b520d00f45947638dab838bca8cc</property>
  <property name="kdenlive:audio_max0">228</property>
 </producer>
 <producer id="producer77" in="00:00:00.000" out="00:03:22.933">
  <property name="length">6089</property>
  <property name="eof">pause</property>
  <property name="resource">/opt/vlog/musica/bensound/bensound-smallguitar.mp3</property>
  <property name="meta.media.nb_streams">1</property>
  <property name="meta.media.0.stream.type">audio</property>
  <property name="meta.media.0.codec.sample_fmt">fltp</property>
  <property name="meta.media.0.codec.sample_rate">44100</property>
  <property name="meta.media.0.codec.channels">2</property>
  <property name="meta.media.0.codec.name">mp3float</property>
  <property name="meta.media.0.codec.long_name">MP3 (MPEG audio layer 3)</property>
  <property name="meta.media.0.codec.bit_rate">192000</property>
  <property name="seekable">1</property>
  <property name="audio_index">0</property>
  <property name="video_index">-1</property>
  <property name="mute_on_pause">1</property>
  <property name="mlt_service">avformat</property>
  <property name="kdenlive:clipname"/>
  <property name="kdenlive:folderid">14</property>
  <property name="kdenlive:id">82</property>
  <property name="kdenlive:file_size">4871314</property>
  <property name="kdenlive:file_hash">7c8e5c849c76ca3f0ec10ca2e291535f</property>
  <property name="kdenlive:audio_max0">229</property>
 </producer>
 <producer id="producer78" in="00:00:00.000" out="00:03:03.500">
  <property name="length">5506</property>
  <property name="eof">pause</property>
  <property name="resource">/opt/vlog/musica/bensound/bensound-smile.mp3</property>
  <property name="meta.media.nb_streams">1</property>
  <property name="meta.media.0.stream.type">audio</property>
  <property name="meta.media.0.codec.sample_fmt">fltp</property>
  <property name="meta.media.0.codec.sample_rate">44100</property>
  <property name="meta.media.0.codec.channels">2</property>
  <property name="meta.media.0.codec.name">mp3float</property>
  <property name="meta.media.0.codec.long_name">MP3 (MPEG audio layer 3)</property>
  <property name="meta.media.0.codec.bit_rate">192000</property>
  <property name="seekable">1</property>
  <property name="audio_index">0</property>
  <property name="video_index">-1</property>
  <property name="mute_on_pause">1</property>
  <property name="mlt_service">avformat</property>
  <property name="kdenlive:clipname"/>
  <property name="kdenlive:folderid">14</property>
  <property name="kdenlive:id">83</property>
  <property name="kdenlive:file_size">4404871</property>
  <property name="kdenlive:file_hash">d5b08b2b42ae8abc2ea9ec87c3dd60b9</property>
  <property name="kdenlive:audio_max0">244</property>
 </producer>
 <producer id="producer79" in="00:00:00.000" out="00:04:13.033">
  <property name="length">7592</property>
  <property name="eof">pause</property>
  <property name="resource">/opt/vlog/musica/bensound/bensound-straight.mp3</property>
  <property name="meta.media.nb_streams">1</property>
  <property name="meta.media.0.stream.type">audio</property>
  <property name="meta.media.0.codec.sample_fmt">fltp</property>
  <property name="meta.media.0.codec.sample_rate">44100</property>
  <property name="meta.media.0.codec.channels">2</property>
  <property name="meta.media.0.codec.name">mp3float</property>
  <property name="meta.media.0.codec.long_name">MP3 (MPEG audio layer 3)</property>
  <property name="meta.media.0.codec.bit_rate">192000</property>
  <property name="seekable">1</property>
  <property name="audio_index">0</property>
  <property name="video_index">-1</property>
  <property name="mute_on_pause">1</property>
  <property name="mlt_service">avformat</property>
  <property name="kdenlive:clipname"/>
  <property name="kdenlive:folderid">14</property>
  <property name="kdenlive:id">84</property>
  <property name="kdenlive:file_size">6073782</property>
  <property name="kdenlive:file_hash">9958ddeeb66dc4e290c6e4f64e38eea8</property>
  <property name="kdenlive:audio_max0">226</property>
 </producer>
 <producer id="producer80" in="00:00:00.000" out="00:03:37.400">
  <property name="length">6523</property>
  <property name="eof">pause</property>
  <property name="resource">/opt/vlog/musica/bensound/bensound-summer.mp3</property>
  <property name="meta.media.nb_streams">1</property>
  <property name="meta.media.0.stream.type">audio</property>
  <property name="meta.media.0.codec.sample_fmt">fltp</property>
  <property name="meta.media.0.codec.sample_rate">44100</property>
  <property name="meta.media.0.codec.channels">2</property>
  <property name="meta.media.0.codec.name">mp3float</property>
  <property name="meta.media.0.codec.long_name">MP3 (MPEG audio layer 3)</property>
  <property name="meta.media.0.codec.bit_rate">160000</property>
  <property name="meta.attr.genre.markup">Abstract</property>
  <property name="seekable">1</property>
  <property name="audio_index">0</property>
  <property name="video_index">-1</property>
  <property name="mute_on_pause">1</property>
  <property name="mlt_service">avformat</property>
  <property name="kdenlive:clipname"/>
  <property name="kdenlive:folderid">14</property>
  <property name="kdenlive:id">85</property>
  <property name="kdenlive:file_size">4349086</property>
  <property name="kdenlive:file_hash">74259650835e9a0a4bb28d7ecab36973</property>
  <property name="kdenlive:audio_max0">250</property>
 </producer>
 <producer id="producer81" in="00:00:00.000" out="00:02:20.000">
  <property name="length">4201</property>
  <property name="eof">pause</property>
  <property name="resource">/opt/vlog/musica/bensound/bensound-sunny.mp3</property>
  <property name="meta.media.nb_streams">1</property>
  <property name="meta.media.0.stream.type">audio</property>
  <property name="meta.media.0.codec.sample_fmt">fltp</property>
  <property name="meta.media.0.codec.sample_rate">44100</property>
  <property name="meta.media.0.codec.channels">2</property>
  <property name="meta.media.0.codec.name">mp3float</property>
  <property name="meta.media.0.codec.long_name">MP3 (MPEG audio layer 3)</property>
  <property name="meta.media.0.codec.bit_rate">112000</property>
  <property name="seekable">1</property>
  <property name="audio_index">0</property>
  <property name="video_index">-1</property>
  <property name="mute_on_pause">1</property>
  <property name="mlt_service">avformat</property>
  <property name="kdenlive:clipname"/>
  <property name="kdenlive:folderid">14</property>
  <property name="kdenlive:id">86</property>
  <property name="kdenlive:file_size">1960596</property>
  <property name="kdenlive:file_hash">22e6eacfc0cd7394b3e2b3e58f5ae816</property>
  <property name="kdenlive:audio_max0">227</property>
 </producer>
 <producer id="producer82" in="00:00:00.000" out="00:05:07.633">
  <property name="length">9230</property>
  <property name="eof">pause</property>
  <property name="resource">/opt/vlog/musica/bensound/bensound-sweet.mp3</property>
  <property name="meta.media.nb_streams">1</property>
  <property name="meta.media.0.stream.type">audio</property>
  <property name="meta.media.0.codec.sample_fmt">fltp</property>
  <property name="meta.media.0.codec.sample_rate">44100</property>
  <property name="meta.media.0.codec.channels">2</property>
  <property name="meta.media.0.codec.name">mp3float</property>
  <property name="meta.media.0.codec.long_name">MP3 (MPEG audio layer 3)</property>
  <property name="meta.media.0.codec.bit_rate">112000</property>
  <property name="meta.attr.title.markup">Sweet</property>
  <property name="meta.attr.artist.markup">Bensound</property>
  <property name="meta.attr.comment.markup">www.bensound.com</property>
  <property name="meta.attr.genre.markup">Abstract</property>
  <property name="seekable">1</property>
  <property name="audio_index">0</property>
  <property name="video_index">-1</property>
  <property name="mute_on_pause">1</property>
  <property name="mlt_service">avformat</property>
  <property name="kdenlive:clipname"/>
  <property name="kdenlive:folderid">14</property>
  <property name="kdenlive:id">87</property>
  <property name="kdenlive:file_size">4307626</property>
  <property name="kdenlive:file_hash">5a06acc684f9dd9b76d448832a8ddd9e</property>
  <property name="kdenlive:audio_max0">241</property>
 </producer>
 <producer id="producer83" in="00:00:00.000" out="00:02:03.800">
  <property name="length">3715</property>
  <property name="eof">pause</property>
  <property name="resource">/opt/vlog/musica/bensound/bensound-tenderness.mp3</property>
  <property name="meta.media.nb_streams">1</property>
  <property name="meta.media.0.stream.type">audio</property>
  <property name="meta.media.0.codec.sample_fmt">fltp</property>
  <property name="meta.media.0.codec.sample_rate">44100</property>
  <property name="meta.media.0.codec.channels">2</property>
  <property name="meta.media.0.codec.name">mp3float</property>
  <property name="meta.media.0.codec.long_name">MP3 (MPEG audio layer 3)</property>
  <property name="meta.media.0.codec.bit_rate">112000</property>
  <property name="seekable">1</property>
  <property name="audio_index">0</property>
  <property name="video_index">-1</property>
  <property name="mute_on_pause">1</property>
  <property name="mlt_service">avformat</property>
  <property name="kdenlive:clipname"/>
  <property name="kdenlive:folderid">14</property>
  <property name="kdenlive:id">88</property>
  <property name="kdenlive:file_size">1733486</property>
  <property name="kdenlive:file_hash">04ff7ff51622432b9c4f8810ec7cfe43</property>
  <property name="kdenlive:audio_max0">231</property>
 </producer>
 <producer id="producer84" in="00:00:00.000" out="00:01:58.267">
  <property name="length">3549</property>
  <property name="eof">pause</property>
  <property name="resource">/opt/vlog/musica/bensound/bensound-theduel.mp3</property>
  <property name="meta.media.nb_streams">1</property>
  <property name="meta.media.0.stream.type">audio</property>
  <property name="meta.media.0.codec.sample_fmt">fltp</property>
  <property name="meta.media.0.codec.sample_rate">44100</property>
  <property name="meta.media.0.codec.channels">2</property>
  <property name="meta.media.0.codec.name">mp3float</property>
  <property name="meta.media.0.codec.long_name">MP3 (MPEG audio layer 3)</property>
  <property name="meta.media.0.codec.bit_rate">112000</property>
  <property name="seekable">1</property>
  <property name="audio_index">0</property>
  <property name="video_index">-1</property>
  <property name="mute_on_pause">1</property>
  <property name="mlt_service">avformat</property>
  <property name="kdenlive:clipname"/>
  <property name="kdenlive:folderid">14</property>
  <property name="kdenlive:id">89</property>
  <property name="kdenlive:file_size">1656321</property>
  <property name="kdenlive:file_hash">edffdfd256f51bcf44559247a31aff7e</property>
  <property name="kdenlive:audio_max0">234</property>
 </producer>
 <producer id="producer85" in="00:00:00.000" out="00:04:14.800">
  <property name="length">7645</property>
  <property name="eof">pause</property>
  <property name="resource">/opt/vlog/musica/bensound/bensound-theelevatorbossanova.mp3</property>
  <property name="meta.media.nb_streams">1</property>
  <property name="meta.media.0.stream.type">audio</property>
  <property name="meta.media.0.codec.sample_fmt">fltp</property>
  <property name="meta.media.0.codec.sample_rate">44100</property>
  <property name="meta.media.0.codec.channels">2</property>
  <property name="meta.media.0.codec.name">mp3float</property>
  <property name="meta.media.0.codec.long_name">MP3 (MPEG audio layer 3)</property>
  <property name="meta.media.0.codec.bit_rate">192000</property>
  <property name="seekable">1</property>
  <property name="audio_index">0</property>
  <property name="video_index">-1</property>
  <property name="mute_on_pause">1</property>
  <property name="mlt_service">avformat</property>
  <property name="kdenlive:clipname"/>
  <property name="kdenlive:folderid">14</property>
  <property name="kdenlive:id">90</property>
  <property name="kdenlive:file_size">6115787</property>
  <property name="kdenlive:file_hash">bb835fb56bd17c534abb298935106500</property>
  <property name="kdenlive:audio_max0">236</property>
 </producer>
 <producer id="producer86" in="00:00:00.000" out="00:02:40.467">
  <property name="length">4815</property>
  <property name="eof">pause</property>
  <property name="resource">/opt/vlog/musica/bensound/bensound-thejazzpiano.mp3</property>
  <property name="meta.media.nb_streams">1</property>
  <property name="meta.media.0.stream.type">audio</property>
  <property name="meta.media.0.codec.sample_fmt">fltp</property>
  <property name="meta.media.0.codec.sample_rate">44100</property>
  <property name="meta.media.0.codec.channels">2</property>
  <property name="meta.media.0.codec.name">mp3float</property>
  <property name="meta.media.0.codec.long_name">MP3 (MPEG audio layer 3)</property>
  <property name="meta.media.0.codec.bit_rate">112000</property>
  <property name="meta.attr.title.markup">The Jazz Piano</property>
  <property name="meta.attr.artist.markup">Bensound</property>
  <property name="meta.attr.comment.markup">www.bensound.com</property>
  <property name="meta.attr.genre.markup">Abstract</property>
  <property name="seekable">1</property>
  <property name="audio_index">0</property>
  <property name="video_index">-1</property>
  <property name="mute_on_pause">1</property>
  <property name="mlt_service">avformat</property>
  <property name="kdenlive:clipname"/>
  <property name="kdenlive:folderid">14</property>
  <property name="kdenlive:id">91</property>
  <property name="kdenlive:file_size">2247210</property>
  <property name="kdenlive:file_hash">3b055ba7bbce21e97a7fa20cf157a6a5</property>
  <property name="kdenlive:audio_max0">228</property>
 </producer>
 <producer id="producer87" in="00:00:00.000" out="00:04:16.033">
  <property name="length">7682</property>
  <property name="eof">pause</property>
  <property name="resource">/opt/vlog/musica/bensound/bensound-thelounge.mp3</property>
  <property name="meta.media.nb_streams">1</property>
  <property name="meta.media.0.stream.type">audio</property>
  <property name="meta.media.0.codec.sample_fmt">fltp</property>
  <property name="meta.media.0.codec.sample_rate">44100</property>
  <property name="meta.media.0.codec.channels">2</property>
  <property name="meta.media.0.codec.name">mp3float</property>
  <property name="meta.media.0.codec.long_name">MP3 (MPEG audio layer 3)</property>
  <property name="meta.media.0.codec.bit_rate">112000</property>
  <property name="seekable">1</property>
  <property name="audio_index">0</property>
  <property name="video_index">-1</property>
  <property name="mute_on_pause">1</property>
  <property name="mlt_service">avformat</property>
  <property name="kdenlive:clipname"/>
  <property name="kdenlive:folderid">14</property>
  <property name="kdenlive:id">92</property>
  <property name="kdenlive:file_size">3585097</property>
  <property name="kdenlive:file_hash">e538a4fe5811f3ef4de9b507cfb507b8</property>
  <property name="kdenlive:audio_max0">214</property>
 </producer>
 <producer id="producer88" in="00:00:00.000" out="00:04:54.800">
  <property name="length">8845</property>
  <property name="eof">pause</property>
  <property name="resource">/opt/vlog/musica/bensound/bensound-tomorrow.mp3</property>
  <property name="meta.media.nb_streams">1</property>
  <property name="meta.media.0.stream.type">audio</property>
  <property name="meta.media.0.codec.sample_fmt">fltp</property>
  <property name="meta.media.0.codec.sample_rate">44100</property>
  <property name="meta.media.0.codec.channels">2</property>
  <property name="meta.media.0.codec.name">mp3float</property>
  <property name="meta.media.0.codec.long_name">MP3 (MPEG audio layer 3)</property>
  <property name="meta.media.0.codec.bit_rate">112000</property>
  <property name="seekable">1</property>
  <property name="audio_index">0</property>
  <property name="video_index">-1</property>
  <property name="mute_on_pause">1</property>
  <property name="mlt_service">avformat</property>
  <property name="kdenlive:clipname"/>
  <property name="kdenlive:folderid">14</property>
  <property name="kdenlive:id">93</property>
  <property name="kdenlive:file_size">4127453</property>
  <property name="kdenlive:file_hash">86fdaa5cd6cff82adc66577e38054c6a</property>
  <property name="kdenlive:audio_max0">208</property>
 </producer>
 <producer id="producer89" in="00:00:00.000" out="00:02:26.400">
  <property name="length">4393</property>
  <property name="eof">pause</property>
  <property name="resource">/opt/vlog/musica/bensound/bensound-ukulele.mp3</property>
  <property name="meta.media.nb_streams">1</property>
  <property name="meta.media.0.stream.type">audio</property>
  <property name="meta.media.0.codec.sample_fmt">fltp</property>
  <property name="meta.media.0.codec.sample_rate">44100</property>
  <property name="meta.media.0.codec.channels">2</property>
  <property name="meta.media.0.codec.name">mp3float</property>
  <property name="meta.media.0.codec.long_name">MP3 (MPEG audio layer 3)</property>
  <property name="meta.media.0.codec.bit_rate">112000</property>
  <property name="seekable">1</property>
  <property name="audio_index">0</property>
  <property name="video_index">-1</property>
  <property name="mute_on_pause">1</property>
  <property name="mlt_service">avformat</property>
  <property name="kdenlive:clipname"/>
  <property name="kdenlive:folderid">14</property>
  <property name="kdenlive:id">94</property>
  <property name="kdenlive:file_size">2050194</property>
  <property name="kdenlive:file_hash">4ea2968f526c64b9b97a77ce79f88b76</property>
  <property name="kdenlive:audio_max0">235</property>
 </producer>
 <playlist id="main_bin">
  <property name="kdenlive:folder.-1.2">videos</property>
  <property name="kdenlive:docproperties.activeTrack">0</property>
  <property name="kdenlive:docproperties.audioChannels">2</property>
  <property name="kdenlive:docproperties.audioTarget">1</property>
  <property name="kdenlive:docproperties.disablepreview">0</property>
  <property name="kdenlive:docproperties.documentid">1668192077024</property>
  <property name="kdenlive:docproperties.enableTimelineZone">0</property>
  <property name="kdenlive:docproperties.enableexternalproxy">0</property>
  <property name="kdenlive:docproperties.enableproxy">0</property>
  <property name="kdenlive:docproperties.externalproxyparams"/>
  <property name="kdenlive:docproperties.generateimageproxy">0</property>
  <property name="kdenlive:docproperties.generateproxy">0</property>
  <property name="kdenlive:docproperties.groups">[
    {
        "children": [
            {
                "data": "1:1317",
                "leaf": "clip",
                "type": "Leaf"
            },
            {
                "data": "2:1317",
                "leaf": "clip",
                "type": "Leaf"
            }
        ],
        "type": "AVSplit"
    },
    {
        "children": [
            {
                "data": "1:1372",
                "leaf": "clip",
                "type": "Leaf"
            },
            {
                "data": "2:1372",
                "leaf": "clip",
                "type": "Leaf"
            }
        ],
        "type": "AVSplit"
    },
    {
        "children": [
            {
                "data": "1:7779",
                "leaf": "clip",
                "type": "Leaf"
            },
            {
                "data": "2:7779",
                "leaf": "clip",
                "type": "Leaf"
            }
        ],
        "type": "AVSplit"
    },
    {
        "children": [
            {
                "data": "1:2752",
                "leaf": "clip",
                "type": "Leaf"
            },
            {
                "data": "2:2752",
                "leaf": "clip",
                "type": "Leaf"
            }
        ],
        "type": "AVSplit"
    },
    {
        "children": [
            {
                "data": "2:10",
                "leaf": "clip",
                "type": "Leaf"
            },
            {
                "data": "1:10",
                "leaf": "clip",
                "type": "Leaf"
            }
        ],
        "type": "AVSplit"
    },
    {
        "children": [
            {
                "data": "1:1507",
                "leaf": "clip",
                "type": "Leaf"
            },
            {
                "data": "2:1507",
                "leaf": "clip",
                "type": "Leaf"
            }
        ],
        "type": "AVSplit"
    },
    {
        "children": [
            {
                "data": "1:3048",
                "leaf": "clip",
                "type": "Leaf"
            },
            {
                "data": "2:3048",
                "leaf": "clip",
                "type": "Leaf"
            }
        ],
        "type": "AVSplit"
    },
    {
        "children": [
            {
                "data": "2:1073",
                "leaf": "clip",
                "type": "Leaf"
            },
            {
                "data": "1:1073",
                "leaf": "clip",
                "type": "Leaf"
            }
        ],
        "type": "AVSplit"
    },
    {
        "children": [
            {
                "data": "2:8316",
                "leaf": "clip",
                "type": "Leaf"
            },
            {
                "data": "1:8316",
                "leaf": "clip",
                "type": "Leaf"
            }
        ],
        "type": "AVSplit"
    },
    {
        "children": [
            {
                "data": "2:2560",
                "leaf": "clip",
                "type": "Leaf"
            },
            {
                "data": "1:2560",
                "leaf": "clip",
                "type": "Leaf"
            }
        ],
        "type": "AVSplit"
    },
    {
        "children": [
            {
                "data": "1:6379",
                "leaf": "clip",
                "type": "Leaf"
            },
            {
                "data": "2:6379",
                "leaf": "clip",
                "type": "Leaf"
            }
        ],
        "type": "AVSplit"
    },
    {
        "children": [
            {
                "data": "2:1354",
                "leaf": "clip",
                "type": "Leaf"
            },
            {
                "data": "1:1354",
                "leaf": "clip",
                "type": "Leaf"
            }
        ],
        "type": "AVSplit"
    },
    {
        "children": [
            {
                "data": "2:3504",
                "leaf": "clip",
                "type": "Leaf"
            },
            {
                "data": "1:3504",
                "leaf": "clip",
                "type": "Leaf"
            }
        ],
        "type": "AVSplit"
    },
    {
        "children": [
            {
                "data": "2:1199",
                "leaf": "clip",
                "type": "Leaf"
            },
            {
                "data": "1:1199",
                "leaf": "clip",
                "type": "Leaf"
            }
        ],
        "type": "AVSplit"
    }
]
</property>
  <property name="kdenlive:docproperties.kdenliveversion">21.12.3</property>
  <property name="kdenlive:docproperties.position">8531</property>
  <property name="kdenlive:docproperties.previewextension"/>
  <property name="kdenlive:docproperties.previewparameters"/>
  <property name="kdenlive:docproperties.profile">atsc_1080p_30</property>
  <property name="kdenlive:docproperties.proxyextension"/>
  <property name="kdenlive:docproperties.proxyimageminsize">2000</property>
  <property name="kdenlive:docproperties.proxyimagesize">800</property>
  <property name="kdenlive:docproperties.proxyminsize">1000</property>
  <property name="kdenlive:docproperties.proxyparams"/>
  <property name="kdenlive:docproperties.proxyresize">640</property>
  <property name="kdenlive:docproperties.scrollPos">1293</property>
  <property name="kdenlive:docproperties.seekOffset">30000</property>
  <property name="kdenlive:docproperties.version">1.04</property>
  <property name="kdenlive:docproperties.verticalzoom">1</property>
  <property name="kdenlive:docproperties.videoTarget">-1</property>
  <property name="kdenlive:docproperties.zonein">0</property>
  <property name="kdenlive:docproperties.zoneout">75</property>
  <property name="kdenlive:docproperties.zoom">11</property>
  <property name="kdenlive:expandedFolders">14</property>
  <property name="kdenlive:documentnotes"/>
  <property name="kdenlive:docproperties.renderaudioquality">256</property>
  <property name="kdenlive:docproperties.rendercategory">Ultra-High Definition (4K)</property>
  <property name="kdenlive:docproperties.renderendguide">-1</property>
  <property name="kdenlive:docproperties.renderexportaudio">0</property>
  <property name="kdenlive:docproperties.renderfield">0</property>
  <property name="kdenlive:docproperties.renderguide">0</property>
  <property name="kdenlive:docproperties.renderplay">0</property>
  <property name="kdenlive:docproperties.renderprofile">MP4-H265 (HEVC)</property>
  <property name="kdenlive:docproperties.renderquality">15</property>
  <property name="kdenlive:docproperties.renderratio">1</property>
  <property name="kdenlive:docproperties.renderrescale">0</property>
  <property name="kdenlive:docproperties.renderrescaleheight">540</property>
  <property name="kdenlive:docproperties.renderrescalewidth">960</property>
  <property name="kdenlive:docproperties.renderscanning">0</property>
  <property name="kdenlive:docproperties.renderspeed">2</property>
  <property name="kdenlive:docproperties.renderstartguide">-1</property>
  <property name="kdenlive:docproperties.rendertcoverlay">0</property>
  <property name="kdenlive:docproperties.rendertctype">0</property>
  <property name="kdenlive:docproperties.rendertwopass">0</property>
  <property name="kdenlive:docproperties.renderurl">tirando-sin-ver.mp4</property>
  <property name="kdenlive:docproperties.renderzone">0</property>
  <property name="kdenlive:folder.-1.12">titles</property>
  <property name="kdenlive:folder.-1.14">music</property>
  <property name="xml_retain">1</property>
  <entry producer="producer3" in="00:00:00.000" out="00:00:55.867"/>
  <entry producer="producer0" in="00:00:00.000" out="00:00:14.967"/>
  <entry producer="producer1" in="00:00:00.000" out="00:00:39.067"/>
  <entry producer="producer2" in="00:00:00.000" out="00:00:06.367"/>
  <entry producer="producer4" in="00:00:00.000" out="00:00:32.700"/>
  <entry producer="producer5" in="00:00:00.000" out="00:01:41.667"/>
  <entry producer="producer6" in="00:00:00.000" out="00:00:47.333"/>
  <entry producer="producer7" in="00:00:00.000" out="00:00:47.733"/>
  <entry producer="producer8" in="00:00:00.000" out="00:00:48.667"/>
  <entry producer="producer9" in="00:00:00.000" out="00:00:39.300"/>
  <entry producer="producer10" in="00:00:00.000" out="00:02:37.167"/>
  <entry producer="producer11" in="00:00:00.000" out="00:02:02.767"/>
  <entry producer="producer12" in="00:00:00.000" out="00:03:15.300"/>
  <entry producer="producer13" in="00:00:00.000" out="00:03:07.067"/>
  <entry producer="producer14" in="00:00:00.000" out="00:02:25.500"/>
  <entry producer="producer15" in="00:00:00.000" out="00:02:34.967"/>
  <entry producer="producer16" in="00:00:00.000" out="00:01:49.067"/>
  <entry producer="producer17" in="00:00:00.000" out="00:02:33.800"/>
  <entry producer="producer18" in="00:00:00.000" out="00:03:06.700"/>
  <entry producer="producer19" in="00:00:00.000" out="00:03:49.200"/>
  <entry producer="producer20" in="00:00:00.000" out="00:04:00.767"/>
  <entry producer="producer21" in="00:00:00.000" out="00:02:02.100"/>
  <entry producer="producer22" in="00:00:00.000" out="00:02:56.767"/>
  <entry producer="producer23" in="00:00:00.000" out="00:01:29.800"/>
  <entry producer="producer24" in="00:00:00.000" out="00:03:27.133"/>
  <entry producer="producer25" in="00:00:00.000" out="00:02:27.233"/>
  <entry producer="producer26" in="00:00:00.000" out="00:03:36.900"/>
  <entry producer="producer27" in="00:00:00.000" out="00:03:14.133"/>
  <entry producer="producer28" in="00:00:00.000" out="00:02:57.233"/>
  <entry producer="producer29" in="00:00:00.000" out="00:04:48.033"/>
  <entry producer="producer30" in="00:00:00.000" out="00:03:02.367"/>
  <entry producer="producer31" in="00:00:00.000" out="00:03:30.400"/>
  <entry producer="producer32" in="00:00:00.000" out="00:03:00.767"/>
  <entry producer="producer33" in="00:00:00.000" out="00:02:59.533"/>
  <entry producer="producer34" in="00:00:00.000" out="00:02:27.200"/>
  <entry producer="producer35" in="00:00:00.000" out="00:02:58.533"/>
  <entry producer="producer36" in="00:00:00.000" out="00:04:40.667"/>
  <entry producer="producer37" in="00:00:00.000" out="00:08:03.367"/>
  <entry producer="producer38" in="00:00:00.000" out="00:03:13.333"/>
  <entry producer="producer39" in="00:00:00.000" out="00:03:09.000"/>
  <entry producer="producer40" in="00:00:00.000" out="00:04:27.467"/>
  <entry producer="producer41" in="00:00:00.000" out="00:03:07.100"/>
  <entry producer="producer42" in="00:00:00.000" out="00:04:04.500"/>
  <entry producer="producer43" in="00:00:00.000" out="00:04:00.533"/>
  <entry producer="producer44" in="00:00:00.000" out="00:04:21.567"/>
  <entry producer="producer45" in="00:00:00.000" out="00:01:45.800"/>
  <entry producer="producer46" in="00:00:00.000" out="00:02:51.600"/>
  <entry producer="producer47" in="00:00:00.000" out="00:02:35.033"/>
  <entry producer="producer48" in="00:00:00.000" out="00:02:43.900"/>
  <entry producer="producer49" in="00:00:00.000" out="00:04:19.533"/>
  <entry producer="producer50" in="00:00:00.000" out="00:04:13.833"/>
  <entry producer="producer51" in="00:00:00.000" out="00:03:24.067"/>
  <entry producer="producer52" in="00:00:00.000" out="00:03:13.933"/>
  <entry producer="producer53" in="00:00:00.000" out="00:01:44.767"/>
  <entry producer="producer54" in="00:00:00.000" out="00:02:49.267"/>
  <entry producer="producer55" in="00:00:00.000" out="00:06:36.767"/>
  <entry producer="producer56" in="00:00:00.000" out="00:05:36.000"/>
  <entry producer="producer57" in="00:00:00.000" out="00:03:50.267"/>
  <entry producer="producer58" in="00:00:00.000" out="00:02:40.700"/>
  <entry producer="producer59" in="00:00:00.000" out="00:05:13.433"/>
  <entry producer="producer60" in="00:00:00.000" out="00:03:32.033"/>
  <entry producer="producer61" in="00:00:00.000" out="00:04:58.733"/>
  <entry producer="producer62" in="00:00:00.000" out="00:03:51.600"/>
  <entry producer="producer63" in="00:00:00.000" out="00:02:42.233"/>
  <entry producer="producer64" in="00:00:00.000" out="00:03:16.267"/>
  <entry producer="producer65" in="00:00:00.000" out="00:01:50.133"/>
  <entry producer="producer66" in="00:00:00.000" out="00:02:42.033"/>
  <entry producer="producer67" in="00:00:00.000" out="00:02:56.933"/>
  <entry producer="producer68" in="00:00:00.000" out="00:02:05.733"/>
  <entry producer="producer69" in="00:00:00.000" out="00:04:48.033"/>
  <entry producer="producer70" in="00:00:00.000" out="00:03:36.467"/>
  <entry producer="producer71" in="00:00:00.000" out="00:03:56.567"/>
  <entry producer="producer72" in="00:00:00.000" out="00:02:34.733"/>
  <entry producer="producer73" in="00:00:00.000" out="00:02:28.667"/>
  <entry producer="producer74" in="00:00:00.000" out="00:04:44.900"/>
  <entry producer="producer75" in="00:00:00.000" out="00:02:53.767"/>
  <entry producer="producer76" in="00:00:00.000" out="00:03:26.967"/>
  <entry producer="producer77" in="00:00:00.000" out="00:03:22.933"/>
  <entry producer="producer78" in="00:00:00.000" out="00:03:03.500"/>
  <entry producer="producer79" in="00:00:00.000" out="00:04:13.033"/>
  <entry producer="producer80" in="00:00:00.000" out="00:03:37.400"/>
  <entry producer="producer81" in="00:00:00.000" out="00:02:20.000"/>
  <entry producer="producer82" in="00:00:00.000" out="00:05:07.633"/>
  <entry producer="producer83" in="00:00:00.000" out="00:02:03.800"/>
  <entry producer="producer84" in="00:00:00.000" out="00:01:58.267"/>
  <entry producer="producer85" in="00:00:00.000" out="00:04:14.800"/>
  <entry producer="producer86" in="00:00:00.000" out="00:02:40.467"/>
  <entry producer="producer87" in="00:00:00.000" out="00:04:16.033"/>
  <entry producer="producer88" in="00:00:00.000" out="00:04:54.800"/>
  <entry producer="producer89" in="00:00:00.000" out="00:02:26.400"/>
 </playlist>
 <producer id="black_track" in="00:00:00.000" out="00:22:26.800">
  <property name="length">2147483647</property>
  <property name="eof">continue</property>
  <property name="resource">black</property>
  <property name="aspect_ratio">1</property>
  <property name="mlt_service">color</property>
  <property name="mlt_image_format">rgba</property>
  <property name="set.test_audio">0</property>
 </producer>
 <producer id="producer90" in="00:00:00.000" out="00:03:07.100">
  <property name="length">5614</property>
  <property name="eof">pause</property>
  <property name="resource">/opt/vlog/musica/bensound/bensound-funnysong.mp3</property>
  <property name="meta.media.nb_streams">1</property>
  <property name="meta.media.0.stream.type">audio</property>
  <property name="meta.media.0.codec.sample_fmt">fltp</property>
  <property name="meta.media.0.codec.sample_rate">44100</property>
  <property name="meta.media.0.codec.channels">2</property>
  <property name="meta.media.0.codec.name">mp3float</property>
  <property name="meta.media.0.codec.long_name">MP3 (MPEG audio layer 3)</property>
  <property name="meta.media.0.codec.bit_rate">112000</property>
  <property name="seekable">1</property>
  <property name="audio_index">0</property>
  <property name="video_index">-1</property>
  <property name="mute_on_pause">0</property>
  <property name="mlt_service">avformat-novalidate</property>
  <property name="kdenlive:clipname"/>
  <property name="kdenlive:folderid">14</property>
  <property name="kdenlive:id">46</property>
  <property name="kdenlive:file_size">2619977</property>
  <property name="kdenlive:file_hash">8f73a76062bae05de585cf33c993510c</property>
  <property name="kdenlive:audio_max0">249</property>
  <property name="xml">was here</property>
  <property name="set.test_audio">0</property>
  <property name="set.test_image">1</property>
 </producer>
 <producer id="producer91" in="00:00:00.000" out="00:02:02.100">
  <property name="length">3664</property>
  <property name="eof">pause</property>
  <property name="resource">/opt/vlog/musica/bensound/bensound-buddy.mp3</property>
  <property name="meta.media.nb_streams">1</property>
  <property name="meta.media.0.stream.type">audio</property>
  <property name="meta.media.0.codec.sample_fmt">fltp</property>
  <property name="meta.media.0.codec.sample_rate">44100</property>
  <property name="meta.media.0.codec.channels">2</property>
  <property name="meta.media.0.codec.name">mp3float</property>
  <property name="meta.media.0.codec.long_name">MP3 (MPEG audio layer 3)</property>
  <property name="meta.media.0.codec.bit_rate">112000</property>
  <property name="seekable">1</property>
  <property name="audio_index">0</property>
  <property name="video_index">-1</property>
  <property name="mute_on_pause">0</property>
  <property name="mlt_service">avformat-novalidate</property>
  <property name="kdenlive:clipname"/>
  <property name="kdenlive:folderid">14</property>
  <property name="kdenlive:id">26</property>
  <property name="kdenlive:file_size">1710080</property>
  <property name="kdenlive:file_hash">c7537cc5ce01f0956099702537615ee2</property>
  <property name="kdenlive:audio_max0">229</property>
  <property name="xml">was here</property>
  <property name="set.test_audio">0</property>
  <property name="set.test_image">1</property>
 </producer>
 <playlist id="playlist0">
  <entry producer="producer90" in="00:00:00.000" out="00:00:43.867">
   <property name="kdenlive:id">46</property>
   <property name="kdenlive:activeeffect">0</property>
   <filter id="filter0">
    <property name="window">75</property>
    <property name="max_gain">20dB</property>
    <property name="level">00:00:00.000=-21.3414;00:00:02.967=-21.3414;00:00:05.533=-30</property>
    <property name="mlt_service">volume</property>
    <property name="kdenlive_id">volume</property>
    <property name="kdenlive:collapsed">0</property>
   </filter>
   <filter id="filter1" in="00:00:39.933" out="00:00:43.867">
    <property name="window">75</property>
    <property name="max_gain">20dB</property>
    <property name="mlt_service">volume</property>
    <property name="kdenlive_id">fadeout</property>
    <property name="gain">1</property>
    <property name="end">0</property>
    <property name="kdenlive:collapsed">0</property>
   </filter>
  </entry>
  <blank length="00:03:39.167"/>
  <entry producer="producer91" in="00:00:00.000" out="00:01:10.400">
   <property name="kdenlive:id">26</property>
   <property name="kdenlive:activeeffect">0</property>
   <filter id="filter2">
    <property name="window">75</property>
    <property name="max_gain">20dB</property>
    <property name="level">00:00:00.000=-30;00:01:01.667=-29.1258;00:01:01.733=-10</property>
    <property name="mlt_service">volume</property>
    <property name="kdenlive_id">volume</property>
    <property name="kdenlive:collapsed">0</property>
   </filter>
   <filter id="filter3" out="00:00:03.567">
    <property name="window">75</property>
    <property name="max_gain">20dB</property>
    <property name="mlt_service">volume</property>
    <property name="kdenlive_id">fadein</property>
    <property name="gain">0</property>
    <property name="end">1</property>
    <property name="kdenlive:collapsed">0</property>
   </filter>
  </entry>
  <entry producer="producer91" in="00:01:48.833" out="00:02:02.100">
   <property name="kdenlive:id">26</property>
   <property name="kdenlive:activeeffect">0</property>
   <filter id="filter4">
    <property name="window">75</property>
    <property name="max_gain">20dB</property>
    <property name="level">00:01:48.833=-10</property>
    <property name="mlt_service">volume</property>
    <property name="kdenlive_id">volume</property>
    <property name="kdenlive:collapsed">0</property>
   </filter>
  </entry>
 </playlist>
 <playlist id="playlist1"/>
 <tractor id="tractor0" in="00:00:00.000" out="00:05:46.767">
  <property name="kdenlive:audio_track">1</property>
  <property name="kdenlive:trackheight">69</property>
  <property name="kdenlive:timeline_active">1</property>
  <track hide="video" producer="playlist0"/>
  <track hide="video" producer="playlist1"/>
  <filter id="filter5">
   <property name="window">75</property>
   <property name="max_gain">20dB</property>
   <property name="mlt_service">volume</property>
   <property name="internal_added">237</property>
   <property name="disable">1</property>
  </filter>
  <filter id="filter6">
   <property name="channel">-1</property>
   <property name="mlt_service">panner</property>
   <property name="internal_added">237</property>
   <property name="start">0.5</property>
   <property name="disable">1</property>
  </filter>
  <filter id="filter7">
   <property name="iec_scale">0</property>
   <property name="mlt_service">audiolevel</property>
   <property name="disable">1</property>
  </filter>
 </tractor>
 <producer id="producer92" in="00:00:00.000" out="00:00:55.867">
  <property name="length">1677</property>
  <property name="eof">pause</property>
  <property name="resource">videos/PXL_20221105_100449433.TS.mp4</property>
  <property name="audio_index">1</property>
  <property name="video_index">2</property>
  <property name="mute_on_pause">0</property>
  <property name="mlt_service">avformat-novalidate</property>
  <property name="seekable">1</property>
  <property name="aspect_ratio">1</property>
  <property name="kdenlive:clipname"/>
  <property name="kdenlive:folderid">2</property>
  <property name="kdenlive:id">3</property>
  <property name="kdenlive:file_size">138526280</property>
  <property name="kdenlive:file_hash">7da31f3d4e3aabab141703c469b5abf7</property>
  <property name="kdenlive:audio_max1">214</property>
  <property name="xml">was here</property>
  <property name="meta.media.nb_streams">4</property>
  <property name="meta.media.1.stream.type">audio</property>
  <property name="meta.media.1.codec.sample_fmt">fltp</property>
  <property name="meta.media.1.codec.sample_rate">48000</property>
  <property name="meta.media.1.codec.channels">2</property>
  <property name="meta.media.1.codec.name">aac</property>
  <property name="meta.media.1.codec.long_name">AAC (Advanced Audio Coding)</property>
  <property name="meta.media.1.codec.bit_rate">191995</property>
  <property name="meta.attr.1.stream.creation_time.markup">2022-11-05T10:05:46.000000Z</property>
  <property name="meta.attr.1.stream.language.markup">eng</property>
  <property name="meta.attr.1.stream.handler_name.markup">SoundHandle</property>
  <property name="meta.attr.1.stream.vendor_id.markup">[0][0][0][0]</property>
  <property name="meta.media.2.stream.type">video</property>
  <property name="meta.media.2.stream.frame_rate">30.0133</property>
  <property name="meta.media.2.stream.sample_aspect_ratio">1</property>
  <property name="meta.media.2.codec.width">1920</property>
  <property name="meta.media.2.codec.height">1080</property>
  <property name="meta.media.2.codec.rotate">0</property>
  <property name="meta.media.2.codec.pix_fmt">yuvj420p</property>
  <property name="meta.media.2.codec.sample_aspect_ratio">0</property>
  <property name="meta.media.2.codec.colorspace">709</property>
  <property name="meta.media.2.codec.color_trc">1</property>
  <property name="meta.media.2.codec.name">hevc</property>
  <property name="meta.media.2.codec.long_name">HEVC (High Efficiency Video Coding)</property>
  <property name="meta.media.2.codec.bit_rate">19596363</property>
  <property name="meta.attr.2.stream.creation_time.markup">2022-11-05T10:05:46.000000Z</property>
  <property name="meta.attr.2.stream.language.markup">eng</property>
  <property name="meta.attr.2.stream.handler_name.markup">VideoHandle</property>
  <property name="meta.attr.2.stream.vendor_id.markup">[0][0][0][0]</property>
  <property name="meta.attr.major_brand.markup">isom</property>
  <property name="meta.attr.minor_version.markup">131072</property>
  <property name="meta.attr.compatible_brands.markup">isomiso2mp41</property>
  <property name="meta.attr.creation_time.markup">2022-11-05T10:05:46.000000Z</property>
  <property name="meta.attr.location.markup">+51.4525+7.3582/</property>
  <property name="meta.attr.location-eng.markup">+51.4525+7.3582/</property>
  <property name="meta.attr.com.android.capture.fps.markup">30.000000</property>
  <property name="meta.media.sample_aspect_num">1</property>
  <property name="meta.media.sample_aspect_den">1</property>
  <property name="meta.media.frame_rate_num">37755000</property>
  <property name="meta.media.frame_rate_den">1257943</property>
  <property name="meta.media.colorspace">709</property>
  <property name="meta.media.color_trc">1</property>
  <property name="meta.media.has_b_frames">0</property>
  <property name="meta.media.width">1920</property>
  <property name="meta.media.height">1080</property>
  <property name="meta.media.color_range">full</property>
  <property name="meta.media.variable_frame_rate">1</property>
  <property name="meta.media.top_field_first">0</property>
  <property name="meta.media.progressive">1</property>
  <property name="set.test_audio">0</property>
  <property name="set.test_image">1</property>
 </producer>
 <producer id="producer93" in="00:00:00.000" out="00:00:14.967">
  <property name="length">450</property>
  <property name="eof">pause</property>
  <property name="resource">videos/PXL_20221105_100619303.TS.mp4</property>
  <property name="audio_index">1</property>
  <property name="video_index">2</property>
  <property name="mute_on_pause">0</property>
  <property name="mlt_service">avformat-novalidate</property>
  <property name="seekable">1</property>
  <property name="aspect_ratio">1</property>
  <property name="kdenlive:clipname"/>
  <property name="kdenlive:folderid">2</property>
  <property name="kdenlive:id">4</property>
  <property name="kdenlive:file_size">37396143</property>
  <property name="kdenlive:file_hash">1e66f1f89251565d5722edbb35c0b48e</property>
  <property name="kdenlive:audio_max1">217</property>
  <property name="xml">was here</property>
  <property name="meta.media.nb_streams">4</property>
  <property name="meta.media.1.stream.type">audio</property>
  <property name="meta.media.1.codec.sample_fmt">fltp</property>
  <property name="meta.media.1.codec.sample_rate">48000</property>
  <property name="meta.media.1.codec.channels">2</property>
  <property name="meta.media.1.codec.name">aac</property>
  <property name="meta.media.1.codec.long_name">AAC (Advanced Audio Coding)</property>
  <property name="meta.media.1.codec.bit_rate">191865</property>
  <property name="meta.attr.1.stream.creation_time.markup">2022-11-05T10:06:35.000000Z</property>
  <property name="meta.attr.1.stream.language.markup">eng</property>
  <property name="meta.attr.1.stream.handler_name.markup">SoundHandle</property>
  <property name="meta.attr.1.stream.vendor_id.markup">[0][0][0][0]</property>
  <property name="meta.media.2.stream.type">video</property>
  <property name="meta.media.2.stream.frame_rate">29.9971</property>
  <property name="meta.media.2.stream.sample_aspect_ratio">1</property>
  <property name="meta.media.2.codec.width">1920</property>
  <property name="meta.media.2.codec.height">1080</property>
  <property name="meta.media.2.codec.rotate">0</property>
  <property name="meta.media.2.codec.pix_fmt">yuvj420p</property>
  <property name="meta.media.2.codec.sample_aspect_ratio">0</property>
  <property name="meta.media.2.codec.colorspace">709</property>
  <property name="meta.media.2.codec.color_trc">1</property>
  <property name="meta.media.2.codec.name">hevc</property>
  <property name="meta.media.2.codec.long_name">HEVC (High Efficiency Video Coding)</property>
  <property name="meta.media.2.codec.bit_rate">19690961</property>
  <property name="meta.attr.2.stream.creation_time.markup">2022-11-05T10:06:35.000000Z</property>
  <property name="meta.attr.2.stream.language.markup">eng</property>
  <property name="meta.attr.2.stream.handler_name.markup">VideoHandle</property>
  <property name="meta.attr.2.stream.vendor_id.markup">[0][0][0][0]</property>
  <property name="meta.attr.major_brand.markup">isom</property>
  <property name="meta.attr.minor_version.markup">131072</property>
  <property name="meta.attr.compatible_brands.markup">isomiso2mp41</property>
  <property name="meta.attr.creation_time.markup">2022-11-05T10:06:35.000000Z</property>
  <property name="meta.attr.location.markup">+51.4515+7.3604/</property>
  <property name="meta.attr.location-eng.markup">+51.4515+7.3604/</property>
  <property name="meta.attr.com.android.capture.fps.markup">30.000000</property>
  <property name="meta.media.sample_aspect_num">1</property>
  <property name="meta.media.sample_aspect_den">1</property>
  <property name="meta.media.frame_rate_num">40500000</property>
  <property name="meta.media.frame_rate_den">1350131</property>
  <property name="meta.media.colorspace">709</property>
  <property name="meta.media.color_trc">1</property>
  <property name="meta.media.has_b_frames">0</property>
  <property name="meta.media.width">1920</property>
  <property name="meta.media.height">1080</property>
  <property name="meta.media.color_range">full</property>
  <property name="meta.media.variable_frame_rate">1</property>
  <property name="meta.media.top_field_first">0</property>
  <property name="meta.media.progressive">1</property>
  <property name="set.test_audio">0</property>
  <property name="set.test_image">1</property>
 </producer>
 <producer id="producer94" in="00:00:00.000" out="00:00:39.067">
  <property name="length">1173</property>
  <property name="eof">pause</property>
  <property name="resource">videos/PXL_20221105_100658755.TS.mp4</property>
  <property name="audio_index">1</property>
  <property name="video_index">2</property>
  <property name="mute_on_pause">0</property>
  <property name="mlt_service">avformat-novalidate</property>
  <property name="seekable">1</property>
  <property name="aspect_ratio">1</property>
  <property name="kdenlive:clipname"/>
  <property name="kdenlive:folderid">2</property>
  <property name="kdenlive:id">5</property>
  <property name="kdenlive:file_size">97249082</property>
  <property name="kdenlive:file_hash">1c3e3ddc12447aa54d6277a6d4f01019</property>
  <property name="kdenlive:audio_max1">202</property>
  <property name="xml">was here</property>
  <property name="meta.media.nb_streams">4</property>
  <property name="meta.media.1.stream.type">audio</property>
  <property name="meta.media.1.codec.sample_fmt">fltp</property>
  <property name="meta.media.1.codec.sample_rate">48000</property>
  <property name="meta.media.1.codec.channels">2</property>
  <property name="meta.media.1.codec.name">aac</property>
  <property name="meta.media.1.codec.long_name">AAC (Advanced Audio Coding)</property>
  <property name="meta.media.1.codec.bit_rate">191843</property>
  <property name="meta.attr.1.stream.creation_time.markup">2022-11-05T10:07:39.000000Z</property>
  <property name="meta.attr.1.stream.language.markup">eng</property>
  <property name="meta.attr.1.stream.handler_name.markup">SoundHandle</property>
  <property name="meta.attr.1.stream.vendor_id.markup">[0][0][0][0]</property>
  <property name="meta.media.2.stream.type">video</property>
  <property name="meta.media.2.stream.frame_rate">29.9971</property>
  <property name="meta.media.2.stream.sample_aspect_ratio">1</property>
  <property name="meta.media.2.codec.width">1920</property>
  <property name="meta.media.2.codec.height">1080</property>
  <property name="meta.media.2.codec.rotate">0</property>
  <property name="meta.media.2.codec.pix_fmt">yuvj420p</property>
  <property name="meta.media.2.codec.sample_aspect_ratio">0</property>
  <property name="meta.media.2.codec.colorspace">709</property>
  <property name="meta.media.2.codec.color_trc">1</property>
  <property name="meta.media.2.codec.name">hevc</property>
  <property name="meta.media.2.codec.long_name">HEVC (High Efficiency Video Coding)</property>
  <property name="meta.media.2.codec.bit_rate">19644505</property>
  <property name="meta.attr.2.stream.creation_time.markup">2022-11-05T10:07:39.000000Z</property>
  <property name="meta.attr.2.stream.language.markup">eng</property>
  <property name="meta.attr.2.stream.handler_name.markup">VideoHandle</property>
  <property name="meta.attr.2.stream.vendor_id.markup">[0][0][0][0]</property>
  <property name="meta.attr.major_brand.markup">isom</property>
  <property name="meta.attr.minor_version.markup">131072</property>
  <property name="meta.attr.compatible_brands.markup">isomiso2mp41</property>
  <property name="meta.attr.creation_time.markup">2022-11-05T10:07:39.000000Z</property>
  <property name="meta.attr.location.markup">+51.4515+7.3604/</property>
  <property name="meta.attr.location-eng.markup">+51.4515+7.3604/</property>
  <property name="meta.attr.com.android.capture.fps.markup">30.000000</property>
  <property name="meta.media.sample_aspect_num">1</property>
  <property name="meta.media.sample_aspect_den">1</property>
  <property name="meta.media.frame_rate_num">306000</property>
  <property name="meta.media.frame_rate_den">10201</property>
  <property name="meta.media.colorspace">709</property>
  <property name="meta.media.color_trc">1</property>
  <property name="meta.media.has_b_frames">0</property>
  <property name="meta.media.width">1920</property>
  <property name="meta.media.height">1080</property>
  <property name="meta.media.color_range">full</property>
  <property name="meta.media.variable_frame_rate">1</property>
  <property name="meta.media.top_field_first">0</property>
  <property name="meta.media.progressive">1</property>
  <property name="set.test_audio">0</property>
  <property name="set.test_image">1</property>
 </producer>
 <producer id="producer95" in="00:00:00.000" out="00:00:06.367">
  <property name="length">192</property>
  <property name="eof">pause</property>
  <property name="resource">videos/PXL_20221105_100742409.TS.mp4</property>
  <property name="audio_index">1</property>
  <property name="video_index">2</property>
  <property name="mute_on_pause">0</property>
  <property name="mlt_service">avformat-novalidate</property>
  <property name="seekable">1</property>
  <property name="aspect_ratio">1</property>
  <property name="kdenlive:clipname"/>
  <property name="kdenlive:folderid">2</property>
  <property name="kdenlive:id">6</property>
  <property name="kdenlive:file_size">16019219</property>
  <property name="kdenlive:file_hash">5202d3aa4b09c490654ce1bd2ba8908a</property>
  <property name="kdenlive:audio_max1">205</property>
  <property name="xml">was here</property>
  <property name="meta.media.nb_streams">4</property>
  <property name="meta.media.1.stream.type">audio</property>
  <property name="meta.media.1.codec.sample_fmt">fltp</property>
  <property name="meta.media.1.codec.sample_rate">48000</property>
  <property name="meta.media.1.codec.channels">2</property>
  <property name="meta.media.1.codec.name">aac</property>
  <property name="meta.media.1.codec.long_name">AAC (Advanced Audio Coding)</property>
  <property name="meta.media.1.codec.bit_rate">191435</property>
  <property name="meta.attr.1.stream.creation_time.markup">2022-11-05T10:07:50.000000Z</property>
  <property name="meta.attr.1.stream.language.markup">eng</property>
  <property name="meta.attr.1.stream.handler_name.markup">SoundHandle</property>
  <property name="meta.attr.1.stream.vendor_id.markup">[0][0][0][0]</property>
  <property name="meta.media.2.stream.type">video</property>
  <property name="meta.media.2.stream.frame_rate">30.0132</property>
  <property name="meta.media.2.stream.sample_aspect_ratio">1</property>
  <property name="meta.media.2.codec.width">1920</property>
  <property name="meta.media.2.codec.height">1080</property>
  <property name="meta.media.2.codec.rotate">0</property>
  <property name="meta.media.2.codec.pix_fmt">yuvj420p</property>
  <property name="meta.media.2.codec.sample_aspect_ratio">0</property>
  <property name="meta.media.2.codec.colorspace">709</property>
  <property name="meta.media.2.codec.color_trc">1</property>
  <property name="meta.media.2.codec.name">hevc</property>
  <property name="meta.media.2.codec.long_name">HEVC (High Efficiency Video Coding)</property>
  <property name="meta.media.2.codec.bit_rate">19810133</property>
  <property name="meta.attr.2.stream.creation_time.markup">2022-11-05T10:07:50.000000Z</property>
  <property name="meta.attr.2.stream.language.markup">eng</property>
  <property name="meta.attr.2.stream.handler_name.markup">VideoHandle</property>
  <property name="meta.attr.2.stream.vendor_id.markup">[0][0][0][0]</property>
  <property name="meta.attr.major_brand.markup">isom</property>
  <property name="meta.attr.minor_version.markup">131072</property>
  <property name="meta.attr.compatible_brands.markup">isomiso2mp41</property>
  <property name="meta.attr.creation_time.markup">2022-11-05T10:07:50.000000Z</property>
  <property name="meta.attr.location.markup">+51.4515+7.3604/</property>
  <property name="meta.attr.location-eng.markup">+51.4515+7.3604/</property>
  <property name="meta.attr.com.android.capture.fps.markup">30.000000</property>
  <property name="meta.media.sample_aspect_num">1</property>
  <property name="meta.media.sample_aspect_den">1</property>
  <property name="meta.media.frame_rate_num">17280000</property>
  <property name="meta.media.frame_rate_den">575747</property>
  <property name="meta.media.colorspace">709</property>
  <property name="meta.media.color_trc">1</property>
  <property name="meta.media.has_b_frames">0</property>
  <property name="meta.media.width">1920</property>
  <property name="meta.media.height">1080</property>
  <property name="meta.media.color_range">full</property>
  <property name="meta.media.variable_frame_rate">1</property>
  <property name="meta.media.top_field_first">0</property>
  <property name="meta.media.progressive">1</property>
  <property name="set.test_audio">0</property>
  <property name="set.test_image">1</property>
 </producer>
 <producer id="producer96" in="00:00:00.000" out="00:00:32.700">
  <property name="length">982</property>
  <property name="eof">pause</property>
  <property name="resource">videos/PXL_20221105_100751953.TS.mp4</property>
  <property name="audio_index">1</property>
  <property name="video_index">2</property>
  <property name="mute_on_pause">0</property>
  <property name="mlt_service">avformat-novalidate</property>
  <property name="seekable">1</property>
  <property name="aspect_ratio">1</property>
  <property name="kdenlive:clipname"/>
  <property name="kdenlive:folderid">2</property>
  <property name="kdenlive:id">7</property>
  <property name="kdenlive:file_size">81350257</property>
  <property name="kdenlive:file_hash">cc484de6b9c1bcee858852f056591aa1</property>
  <property name="kdenlive:audio_max1">219</property>
  <property name="xml">was here</property>
  <property name="meta.media.nb_streams">4</property>
  <property name="meta.media.1.stream.type">audio</property>
  <property name="meta.media.1.codec.sample_fmt">fltp</property>
  <property name="meta.media.1.codec.sample_rate">48000</property>
  <property name="meta.media.1.codec.channels">2</property>
  <property name="meta.media.1.codec.name">aac</property>
  <property name="meta.media.1.codec.long_name">AAC (Advanced Audio Coding)</property>
  <property name="meta.media.1.codec.bit_rate">191906</property>
  <property name="meta.attr.1.stream.creation_time.markup">2022-11-05T10:08:26.000000Z</property>
  <property name="meta.attr.1.stream.language.markup">eng</property>
  <property name="meta.attr.1.stream.handler_name.markup">SoundHandle</property>
  <property name="meta.attr.1.stream.vendor_id.markup">[0][0][0][0]</property>
  <property name="meta.media.2.stream.type">video</property>
  <property name="meta.media.2.stream.frame_rate">29.9375</property>
  <property name="meta.media.2.stream.sample_aspect_ratio">1</property>
  <property name="meta.media.2.codec.width">1920</property>
  <property name="meta.media.2.codec.height">1080</property>
  <property name="meta.media.2.codec.rotate">0</property>
  <property name="meta.media.2.codec.pix_fmt">yuvj420p</property>
  <property name="meta.media.2.codec.sample_aspect_ratio">0</property>
  <property name="meta.media.2.codec.colorspace">709</property>
  <property name="meta.media.2.codec.color_trc">1</property>
  <property name="meta.media.2.codec.name">hevc</property>
  <property name="meta.media.2.codec.long_name">HEVC (High Efficiency Video Coding)</property>
  <property name="meta.media.2.codec.bit_rate">19636094</property>
  <property name="meta.attr.2.stream.creation_time.markup">2022-11-05T10:08:26.000000Z</property>
  <property name="meta.attr.2.stream.language.markup">eng</property>
  <property name="meta.attr.2.stream.handler_name.markup">VideoHandle</property>
  <property name="meta.attr.2.stream.vendor_id.markup">[0][0][0][0]</property>
  <property name="meta.attr.major_brand.markup">isom</property>
  <property name="meta.attr.minor_version.markup">131072</property>
  <property name="meta.attr.compatible_brands.markup">isomiso2mp41</property>
  <property name="meta.attr.creation_time.markup">2022-11-05T10:08:26.000000Z</property>
  <property name="meta.attr.location.markup">+51.4515+7.3604/</property>
  <property name="meta.attr.location-eng.markup">+51.4515+7.3604/</property>
  <property name="meta.attr.com.android.capture.fps.markup">30.000000</property>
  <property name="meta.media.sample_aspect_num">1</property>
  <property name="meta.media.sample_aspect_den">1</property>
  <property name="meta.media.frame_rate_num">12600000</property>
  <property name="meta.media.frame_rate_den">420877</property>
  <property name="meta.media.colorspace">709</property>
  <property name="meta.media.color_trc">1</property>
  <property name="meta.media.has_b_frames">0</property>
  <property name="meta.media.width">1920</property>
  <property name="meta.media.height">1080</property>
  <property name="meta.media.color_range">full</property>
  <property name="meta.media.variable_frame_rate">1</property>
  <property name="meta.media.top_field_first">0</property>
  <property name="meta.media.progressive">1</property>
  <property name="set.test_audio">0</property>
  <property name="set.test_image">1</property>
 </producer>
 <producer id="producer97" in="00:00:00.000" out="00:01:41.667">
  <property name="length">3051</property>
  <property name="eof">pause</property>
  <property name="resource">videos/PXL_20221105_100939196.TS.mp4</property>
  <property name="audio_index">1</property>
  <property name="video_index">2</property>
  <property name="mute_on_pause">0</property>
  <property name="mlt_service">avformat-novalidate</property>
  <property name="seekable">1</property>
  <property name="aspect_ratio">1</property>
  <property name="kdenlive:clipname"/>
  <property name="kdenlive:folderid">2</property>
  <property name="kdenlive:id">8</property>
  <property name="kdenlive:file_size">251230507</property>
  <property name="kdenlive:file_hash">2f091963639d5b5c6aa5af490314d23a</property>
  <property name="kdenlive:audio_max1">231</property>
  <property name="xml">was here</property>
  <property name="meta.media.nb_streams">4</property>
  <property name="meta.media.1.stream.type">audio</property>
  <property name="meta.media.1.codec.sample_fmt">fltp</property>
  <property name="meta.media.1.codec.sample_rate">48000</property>
  <property name="meta.media.1.codec.channels">2</property>
  <property name="meta.media.1.codec.name">aac</property>
  <property name="meta.media.1.codec.long_name">AAC (Advanced Audio Coding)</property>
  <property name="meta.media.1.codec.bit_rate">191996</property>
  <property name="meta.attr.1.stream.creation_time.markup">2022-11-05T10:11:22.000000Z</property>
  <property name="meta.attr.1.stream.language.markup">eng</property>
  <property name="meta.attr.1.stream.handler_name.markup">SoundHandle</property>
  <property name="meta.attr.1.stream.vendor_id.markup">[0][0][0][0]</property>
  <property name="meta.media.2.stream.type">video</property>
  <property name="meta.media.2.stream.frame_rate">29.8463</property>
  <property name="meta.media.2.stream.sample_aspect_ratio">1</property>
  <property name="meta.media.2.codec.width">1920</property>
  <property name="meta.media.2.codec.height">1080</property>
  <property name="meta.media.2.codec.rotate">0</property>
  <property name="meta.media.2.codec.pix_fmt">yuvj420p</property>
  <property name="meta.media.2.codec.sample_aspect_ratio">0</property>
  <property name="meta.media.2.codec.colorspace">709</property>
  <property name="meta.media.2.codec.color_trc">1</property>
  <property name="meta.media.2.codec.name">hevc</property>
  <property name="meta.media.2.codec.long_name">HEVC (High Efficiency Video Coding)</property>
  <property name="meta.media.2.codec.bit_rate">19538998</property>
  <property name="meta.attr.2.stream.creation_time.markup">2022-11-05T10:11:22.000000Z</property>
  <property name="meta.attr.2.stream.language.markup">eng</property>
  <property name="meta.attr.2.stream.handler_name.markup">VideoHandle</property>
  <property name="meta.attr.2.stream.vendor_id.markup">[0][0][0][0]</property>
  <property name="meta.attr.major_brand.markup">isom</property>
  <property name="meta.attr.minor_version.markup">131072</property>
  <property name="meta.attr.compatible_brands.markup">isomiso2mp41</property>
  <property name="meta.attr.creation_time.markup">2022-11-05T10:11:22.000000Z</property>
  <property name="meta.attr.location.markup">+51.4516+7.3603/</property>
  <property name="meta.attr.location-eng.markup">+51.4516+7.3603/</property>
  <property name="meta.attr.com.android.capture.fps.markup">30.000000</property>
  <property name="meta.media.sample_aspect_num">1</property>
  <property name="meta.media.sample_aspect_den">1</property>
  <property name="meta.media.frame_rate_num">91050000</property>
  <property name="meta.media.frame_rate_den">3050629</property>
  <property name="meta.media.colorspace">709</property>
  <property name="meta.media.color_trc">1</property>
  <property name="meta.media.has_b_frames">0</property>
  <property name="meta.media.width">1920</property>
  <property name="meta.media.height">1080</property>
  <property name="meta.media.color_range">full</property>
  <property name="meta.media.variable_frame_rate">1</property>
  <property name="meta.media.top_field_first">0</property>
  <property name="meta.media.progressive">1</property>
  <property name="set.test_audio">0</property>
  <property name="set.test_image">1</property>
 </producer>
 <producer id="producer98" in="00:00:00.000" out="00:00:47.333">
  <property name="length">1421</property>
  <property name="eof">pause</property>
  <property name="resource">videos/PXL_20221105_101152835.TS.mp4</property>
  <property name="audio_index">1</property>
  <property name="video_index">2</property>
  <property name="mute_on_pause">0</property>
  <property name="mlt_service">avformat-novalidate</property>
  <property name="seekable">1</property>
  <property name="aspect_ratio">1</property>
  <property name="kdenlive:clipname"/>
  <property name="kdenlive:folderid">2</property>
  <property name="kdenlive:id">9</property>
  <property name="kdenlive:file_size">118332242</property>
  <property name="kdenlive:file_hash">0bfa558262f68c9042bade178ea2f206</property>
  <property name="kdenlive:audio_max1">217</property>
  <property name="xml">was here</property>
  <property name="meta.media.nb_streams">4</property>
  <property name="meta.media.1.stream.type">audio</property>
  <property name="meta.media.1.codec.sample_fmt">fltp</property>
  <property name="meta.media.1.codec.sample_rate">48000</property>
  <property name="meta.media.1.codec.channels">2</property>
  <property name="meta.media.1.codec.name">aac</property>
  <property name="meta.media.1.codec.long_name">AAC (Advanced Audio Coding)</property>
  <property name="meta.media.1.codec.bit_rate">191856</property>
  <property name="meta.attr.1.stream.creation_time.markup">2022-11-05T10:12:41.000000Z</property>
  <property name="meta.attr.1.stream.language.markup">eng</property>
  <property name="meta.attr.1.stream.handler_name.markup">SoundHandle</property>
  <property name="meta.attr.1.stream.vendor_id.markup">[0][0][0][0]</property>
  <property name="meta.media.2.stream.type">video</property>
  <property name="meta.media.2.stream.frame_rate">29.7775</property>
  <property name="meta.media.2.stream.sample_aspect_ratio">1</property>
  <property name="meta.media.2.codec.width">1920</property>
  <property name="meta.media.2.codec.height">1080</property>
  <property name="meta.media.2.codec.rotate">0</property>
  <property name="meta.media.2.codec.pix_fmt">yuvj420p</property>
  <property name="meta.media.2.codec.sample_aspect_ratio">0</property>
  <property name="meta.media.2.codec.colorspace">709</property>
  <property name="meta.media.2.codec.color_trc">1</property>
  <property name="meta.media.2.codec.name">hevc</property>
  <property name="meta.media.2.codec.long_name">HEVC (High Efficiency Video Coding)</property>
  <property name="meta.media.2.codec.bit_rate">19766874</property>
  <property name="meta.attr.2.stream.creation_time.markup">2022-11-05T10:12:41.000000Z</property>
  <property name="meta.attr.2.stream.language.markup">eng</property>
  <property name="meta.attr.2.stream.handler_name.markup">VideoHandle</property>
  <property name="meta.attr.2.stream.vendor_id.markup">[0][0][0][0]</property>
  <property name="meta.attr.major_brand.markup">isom</property>
  <property name="meta.attr.minor_version.markup">131072</property>
  <property name="meta.attr.compatible_brands.markup">isomiso2mp41</property>
  <property name="meta.attr.creation_time.markup">2022-11-05T10:12:41.000000Z</property>
  <property name="meta.attr.location.markup">+51.4516+7.3603/</property>
  <property name="meta.attr.location-eng.markup">+51.4516+7.3603/</property>
  <property name="meta.attr.com.android.capture.fps.markup">30.000000</property>
  <property name="meta.media.sample_aspect_num">1</property>
  <property name="meta.media.sample_aspect_den">1</property>
  <property name="meta.media.frame_rate_num">12690000</property>
  <property name="meta.media.frame_rate_den">426161</property>
  <property name="meta.media.colorspace">709</property>
  <property name="meta.media.color_trc">1</property>
  <property name="meta.media.has_b_frames">0</property>
  <property name="meta.media.width">1920</property>
  <property name="meta.media.height">1080</property>
  <property name="meta.media.color_range">full</property>
  <property name="meta.media.variable_frame_rate">1</property>
  <property name="meta.media.top_field_first">0</property>
  <property name="meta.media.progressive">1</property>
  <property name="set.test_audio">0</property>
  <property name="set.test_image">1</property>
 </producer>
 <producer id="producer99" in="00:00:00.000" out="00:00:47.733">
  <property name="length">1433</property>
  <property name="eof">pause</property>
  <property name="resource">videos/PXL_20221105_101305666.TS.mp4</property>
  <property name="audio_index">1</property>
  <property name="video_index">2</property>
  <property name="mute_on_pause">0</property>
  <property name="mlt_service">avformat-novalidate</property>
  <property name="seekable">1</property>
  <property name="aspect_ratio">1</property>
  <property name="kdenlive:clipname"/>
  <property name="kdenlive:file_size">118192405</property>
  <property name="kdenlive:folderid">2</property>
  <property name="kdenlive:id">10</property>
  <property name="kdenlive:file_hash">d231e80d7de1efc4d718c16279a84078</property>
  <property name="kdenlive:audio_max1">223</property>
  <property name="xml">was here</property>
  <property name="meta.media.nb_streams">4</property>
  <property name="meta.media.1.stream.type">audio</property>
  <property name="meta.media.1.codec.sample_fmt">fltp</property>
  <property name="meta.media.1.codec.sample_rate">48000</property>
  <property name="meta.media.1.codec.channels">2</property>
  <property name="meta.media.1.codec.name">aac</property>
  <property name="meta.media.1.codec.long_name">AAC (Advanced Audio Coding)</property>
  <property name="meta.media.1.codec.bit_rate">191929</property>
  <property name="meta.attr.1.stream.creation_time.markup">2022-11-05T10:13:54.000000Z</property>
  <property name="meta.attr.1.stream.language.markup">eng</property>
  <property name="meta.attr.1.stream.handler_name.markup">SoundHandle</property>
  <property name="meta.attr.1.stream.vendor_id.markup">[0][0][0][0]</property>
  <property name="meta.media.2.stream.type">video</property>
  <property name="meta.media.2.stream.frame_rate">29.8523</property>
  <property name="meta.media.2.stream.sample_aspect_ratio">1</property>
  <property name="meta.media.2.codec.width">1920</property>
  <property name="meta.media.2.codec.height">1080</property>
  <property name="meta.media.2.codec.rotate">0</property>
  <property name="meta.media.2.codec.pix_fmt">yuvj420p</property>
  <property name="meta.media.2.codec.sample_aspect_ratio">0</property>
  <property name="meta.media.2.codec.colorspace">709</property>
  <property name="meta.media.2.codec.color_trc">1</property>
  <property name="meta.media.2.codec.name">hevc</property>
  <property name="meta.media.2.codec.long_name">HEVC (High Efficiency Video Coding)</property>
  <property name="meta.media.2.codec.bit_rate">19572069</property>
  <property name="meta.attr.2.stream.creation_time.markup">2022-11-05T10:13:54.000000Z</property>
  <property name="meta.attr.2.stream.language.markup">eng</property>
  <property name="meta.attr.2.stream.handler_name.markup">VideoHandle</property>
  <property name="meta.attr.2.stream.vendor_id.markup">[0][0][0][0]</property>
  <property name="meta.attr.major_brand.markup">isom</property>
  <property name="meta.attr.minor_version.markup">131072</property>
  <property name="meta.attr.compatible_brands.markup">isomiso2mp41</property>
  <property name="meta.attr.creation_time.markup">2022-11-05T10:13:54.000000Z</property>
  <property name="meta.attr.location.markup">+51.4516+7.3603/</property>
  <property name="meta.attr.location-eng.markup">+51.4516+7.3603/</property>
  <property name="meta.attr.com.android.capture.fps.markup">30.000000</property>
  <property name="meta.media.sample_aspect_num">1</property>
  <property name="meta.media.sample_aspect_den">1</property>
  <property name="meta.media.frame_rate_num">139500</property>
  <property name="meta.media.frame_rate_den">4673</property>
  <property name="meta.media.colorspace">709</property>
  <property name="meta.media.color_trc">1</property>
  <property name="meta.media.has_b_frames">0</property>
  <property name="meta.media.width">1920</property>
  <property name="meta.media.height">1080</property>
  <property name="meta.media.color_range">full</property>
  <property name="meta.media.variable_frame_rate">1</property>
  <property name="meta.media.top_field_first">0</property>
  <property name="meta.media.progressive">1</property>
  <property name="set.test_audio">0</property>
  <property name="set.test_image">1</property>
 </producer>
 <producer id="producer100" in="00:00:00.000" out="00:00:48.667">
  <property name="length">1461</property>
  <property name="eof">pause</property>
  <property name="resource">videos/PXL_20221105_101358902.TS.mp4</property>
  <property name="audio_index">1</property>
  <property name="video_index">2</property>
  <property name="mute_on_pause">0</property>
  <property name="mlt_service">avformat-novalidate</property>
  <property name="seekable">1</property>
  <property name="aspect_ratio">1</property>
  <property name="kdenlive:clipname"/>
  <property name="kdenlive:file_size">121023567</property>
  <property name="kdenlive:folderid">2</property>
  <property name="kdenlive:id">11</property>
  <property name="kdenlive:file_hash">812faf4f0e13779e61e7f125c18d6167</property>
  <property name="kdenlive:audio_max1">220</property>
  <property name="xml">was here</property>
  <property name="meta.media.nb_streams">4</property>
  <property name="meta.media.1.stream.type">audio</property>
  <property name="meta.media.1.codec.sample_fmt">fltp</property>
  <property name="meta.media.1.codec.sample_rate">48000</property>
  <property name="meta.media.1.codec.channels">2</property>
  <property name="meta.media.1.codec.name">aac</property>
  <property name="meta.media.1.codec.long_name">AAC (Advanced Audio Coding)</property>
  <property name="meta.media.1.codec.bit_rate">191913</property>
  <property name="meta.attr.1.stream.creation_time.markup">2022-11-05T10:14:49.000000Z</property>
  <property name="meta.attr.1.stream.language.markup">eng</property>
  <property name="meta.attr.1.stream.handler_name.markup">SoundHandle</property>
  <property name="meta.attr.1.stream.vendor_id.markup">[0][0][0][0]</property>
  <property name="meta.media.2.stream.type">video</property>
  <property name="meta.media.2.stream.frame_rate">30.0133</property>
  <property name="meta.media.2.stream.sample_aspect_ratio">1</property>
  <property name="meta.media.2.codec.width">1920</property>
  <property name="meta.media.2.codec.height">1080</property>
  <property name="meta.media.2.codec.rotate">0</property>
  <property name="meta.media.2.codec.pix_fmt">yuvj420p</property>
  <property name="meta.media.2.codec.sample_aspect_ratio">0</property>
  <property name="meta.media.2.codec.colorspace">709</property>
  <property name="meta.media.2.codec.color_trc">1</property>
  <property name="meta.media.2.codec.name">hevc</property>
  <property name="meta.media.2.codec.long_name">HEVC (High Efficiency Video Coding)</property>
  <property name="meta.media.2.codec.bit_rate">19650230</property>
  <property name="meta.attr.2.stream.creation_time.markup">2022-11-05T10:14:49.000000Z</property>
  <property name="meta.attr.2.stream.language.markup">eng</property>
  <property name="meta.attr.2.stream.handler_name.markup">VideoHandle</property>
  <property name="meta.attr.2.stream.vendor_id.markup">[0][0][0][0]</property>
  <property name="meta.attr.major_brand.markup">isom</property>
  <property name="meta.attr.minor_version.markup">131072</property>
  <property name="meta.attr.compatible_brands.markup">isomiso2mp41</property>
  <property name="meta.attr.creation_time.markup">2022-11-05T10:14:49.000000Z</property>
  <property name="meta.attr.location.markup">+51.4516+7.3603/</property>
  <property name="meta.attr.location-eng.markup">+51.4516+7.3603/</property>
  <property name="meta.attr.com.android.capture.fps.markup">30.000000</property>
  <property name="meta.media.sample_aspect_num">1</property>
  <property name="meta.media.sample_aspect_den">1</property>
  <property name="meta.media.frame_rate_num">14620000</property>
  <property name="meta.media.frame_rate_den">487117</property>
  <property name="meta.media.colorspace">709</property>
  <property name="meta.media.color_trc">1</property>
  <property name="meta.media.has_b_frames">0</property>
  <property name="meta.media.width">1920</property>
  <property name="meta.media.height">1080</property>
  <property name="meta.media.color_range">full</property>
  <property name="meta.media.variable_frame_rate">1</property>
  <property name="meta.media.top_field_first">0</property>
  <property name="meta.media.progressive">1</property>
  <property name="set.test_audio">0</property>
  <property name="set.test_image">1</property>
 </producer>
 <playlist id="playlist2">
  <property name="kdenlive:audio_track">1</property>
  <blank length="00:00:00.333"/>
  <entry producer="producer92" in="00:00:02.800" out="00:00:38.200">
   <property name="kdenlive:id">3</property>
   <property name="kdenlive:activeeffect">-1</property>
   <filter id="filter8" in="00:00:02.800" out="00:00:02.833">
    <property name="window">75</property>
    <property name="max_gain">20dB</property>
    <property name="mlt_service">volume</property>
    <property name="kdenlive_id">fadein</property>
    <property name="gain">0</property>
    <property name="end">1</property>
   </filter>
  </entry>
  <entry producer="producer92" in="00:00:39.067" out="00:00:43.233">
   <property name="kdenlive:id">3</property>
  </entry>
  <entry producer="producer92" in="00:00:44.600" out="00:00:48.500">
   <property name="kdenlive:id">3</property>
  </entry>
  <entry producer="producer93" in="00:00:05.233" out="00:00:06.433">
   <property name="kdenlive:id">4</property>
  </entry>
  <entry producer="producer93" in="00:00:06.467" out="00:00:07.033">
   <property name="kdenlive:id">4</property>
  </entry>
  <entry producer="producer93" in="00:00:07.067" out="00:00:11.533">
   <property name="kdenlive:id">4</property>
  </entry>
  <entry producer="producer94" in="00:00:03.033" out="00:00:38.100">
   <property name="kdenlive:id">5</property>
   <property name="kdenlive:activeeffect">0</property>
   <filter id="filter9">
    <property name="window">75</property>
    <property name="max_gain">20dB</property>
    <property name="level">00:00:03.033=0;00:00:05.933=0.296927;00:00:06.233=15;00:00:09.400=15;00:00:09.733=0.695661;00:00:10.700=2.34356;00:00:10.833=15;00:00:19.433=15;00:00:19.800=0.296927;00:00:27.600=0.695661;00:00:27.733=15;00:00:29.033=14.6244;00:00:29.433=0.695661;00:00:33.533=0.695661;00:00:33.767=16.1549;00:00:36.000=16.1313;00:00:36.267=-0.0475826</property>
    <property name="mlt_service">volume</property>
    <property name="kdenlive_id">volume</property>
    <property name="kdenlive:collapsed">0</property>
   </filter>
  </entry>
  <entry producer="producer95" in="00:00:00.000" out="00:00:06.367">
   <property name="kdenlive:id">6</property>
  </entry>
  <entry producer="producer96" in="00:00:00.000" out="00:00:09.833">
   <property name="kdenlive:id">7</property>
   <property name="kdenlive:activeeffect">0</property>
   <filter id="filter10">
    <property name="window">75</property>
    <property name="max_gain">20dB</property>
    <property name="level">00:00:00.000=0;00:00:04.300=0.695661;00:00:04.467=14.5563;00:00:06.200=14.6244;00:00:06.367=0.0475826</property>
    <property name="mlt_service">volume</property>
    <property name="kdenlive_id">volume</property>
    <property name="kdenlive:collapsed">0</property>
   </filter>
  </entry>
  <entry producer="producer96" in="00:00:14.000" out="00:00:29.167">
   <property name="kdenlive:id">7</property>
  </entry>
  <entry producer="producer97" in="00:00:02.167" out="00:01:37.967">
   <property name="kdenlive:id">8</property>
   <property name="kdenlive:activeeffect">0</property>
   <filter id="filter11">
    <property name="window">75</property>
    <property name="max_gain">20dB</property>
    <property name="level">00:00:02.167=0;00:00:13.933=0.629755;00:00:14.367=16.1549;00:00:25.300=16.1549;00:00:25.700=-0.695661</property>
    <property name="mlt_service">volume</property>
    <property name="kdenlive_id">volume</property>
    <property name="kdenlive:collapsed">0</property>
   </filter>
  </entry>
  <entry producer="producer98" in="00:00:00.700" out="00:00:47.333">
   <property name="kdenlive:id">9</property>
   <property name="kdenlive:activeeffect">0</property>
   <filter id="filter12">
    <property name="window">75</property>
    <property name="max_gain">20dB</property>
    <property name="level">00:00:00.700=0;00:00:45.600=-0.695661;00:00:45.833=14.5563</property>
    <property name="mlt_service">volume</property>
    <property name="kdenlive_id">volume</property>
    <property name="kdenlive:collapsed">0</property>
   </filter>
  </entry>
  <entry producer="producer99" in="00:00:21.500" out="00:00:35.300">
   <property name="kdenlive:id">10</property>
  </entry>
  <entry producer="producer99" in="00:00:42.233" out="00:00:46.067">
   <property name="kdenlive:id">10</property>
   <filter id="filter13" in="00:00:45.700" out="00:00:46.067">
    <property name="window">75</property>
    <property name="max_gain">20dB</property>
    <property name="mlt_service">volume</property>
    <property name="kdenlive_id">fadeout</property>
    <property name="gain">1</property>
    <property name="end">0</property>
    <property name="kdenlive:collapsed">0</property>
   </filter>
  </entry>
  <blank length="00:00:00.200"/>
  <entry producer="producer100" in="00:00:00.500" out="00:00:48.000">
   <property name="kdenlive:id">11</property>
  </entry>
 </playlist>
 <playlist id="playlist3">
  <property name="kdenlive:audio_track">1</property>
 </playlist>
 <tractor id="tractor1" in="00:00:00.000" out="00:05:24.700">
  <property name="kdenlive:audio_track">1</property>
  <property name="kdenlive:trackheight">69</property>
  <property name="kdenlive:timeline_active">1</property>
  <property name="kdenlive:collapsed">0</property>
  <property name="kdenlive:thumbs_format"/>
  <property name="kdenlive:audio_rec"/>
  <track hide="video" producer="playlist2"/>
  <track hide="video" producer="playlist3"/>
  <filter id="filter14">
   <property name="window">75</property>
   <property name="max_gain">20dB</property>
   <property name="mlt_service">volume</property>
   <property name="internal_added">237</property>
   <property name="disable">1</property>
  </filter>
  <filter id="filter15">
   <property name="channel">-1</property>
   <property name="mlt_service">panner</property>
   <property name="internal_added">237</property>
   <property name="start">0.5</property>
   <property name="disable">1</property>
  </filter>
  <filter id="filter16">
   <property name="iec_scale">0</property>
   <property name="mlt_service">audiolevel</property>
   <property name="disable">1</property>
  </filter>
 </tractor>
 <producer id="producer101" in="00:00:00.000" out="00:00:55.867">
  <property name="length">1677</property>
  <property name="eof">pause</property>
  <property name="resource">videos/PXL_20221105_100449433.TS.mp4</property>
  <property name="audio_index">1</property>
  <property name="video_index">2</property>
  <property name="mute_on_pause">0</property>
  <property name="mlt_service">avformat-novalidate</property>
  <property name="seekable">1</property>
  <property name="aspect_ratio">1</property>
  <property name="kdenlive:clipname"/>
  <property name="kdenlive:folderid">2</property>
  <property name="kdenlive:id">3</property>
  <property name="kdenlive:file_size">138526280</property>
  <property name="kdenlive:file_hash">7da31f3d4e3aabab141703c469b5abf7</property>
  <property name="kdenlive:audio_max1">214</property>
  <property name="xml">was here</property>
  <property name="meta.media.nb_streams">4</property>
  <property name="meta.media.1.stream.type">audio</property>
  <property name="meta.media.1.codec.sample_fmt">fltp</property>
  <property name="meta.media.1.codec.sample_rate">48000</property>
  <property name="meta.media.1.codec.channels">2</property>
  <property name="meta.media.1.codec.name">aac</property>
  <property name="meta.media.1.codec.long_name">AAC (Advanced Audio Coding)</property>
  <property name="meta.media.1.codec.bit_rate">191995</property>
  <property name="meta.attr.1.stream.creation_time.markup">2022-11-05T10:05:46.000000Z</property>
  <property name="meta.attr.1.stream.language.markup">eng</property>
  <property name="meta.attr.1.stream.handler_name.markup">SoundHandle</property>
  <property name="meta.attr.1.stream.vendor_id.markup">[0][0][0][0]</property>
  <property name="meta.media.2.stream.type">video</property>
  <property name="meta.media.2.stream.frame_rate">30.0133</property>
  <property name="meta.media.2.stream.sample_aspect_ratio">1</property>
  <property name="meta.media.2.codec.width">1920</property>
  <property name="meta.media.2.codec.height">1080</property>
  <property name="meta.media.2.codec.rotate">0</property>
  <property name="meta.media.2.codec.pix_fmt">yuvj420p</property>
  <property name="meta.media.2.codec.sample_aspect_ratio">0</property>
  <property name="meta.media.2.codec.colorspace">709</property>
  <property name="meta.media.2.codec.color_trc">1</property>
  <property name="meta.media.2.codec.name">hevc</property>
  <property name="meta.media.2.codec.long_name">HEVC (High Efficiency Video Coding)</property>
  <property name="meta.media.2.codec.bit_rate">19596363</property>
  <property name="meta.attr.2.stream.creation_time.markup">2022-11-05T10:05:46.000000Z</property>
  <property name="meta.attr.2.stream.language.markup">eng</property>
  <property name="meta.attr.2.stream.handler_name.markup">VideoHandle</property>
  <property name="meta.attr.2.stream.vendor_id.markup">[0][0][0][0]</property>
  <property name="meta.attr.major_brand.markup">isom</property>
  <property name="meta.attr.minor_version.markup">131072</property>
  <property name="meta.attr.compatible_brands.markup">isomiso2mp41</property>
  <property name="meta.attr.creation_time.markup">2022-11-05T10:05:46.000000Z</property>
  <property name="meta.attr.location.markup">+51.4525+7.3582/</property>
  <property name="meta.attr.location-eng.markup">+51.4525+7.3582/</property>
  <property name="meta.attr.com.android.capture.fps.markup">30.000000</property>
  <property name="meta.media.sample_aspect_num">1</property>
  <property name="meta.media.sample_aspect_den">1</property>
  <property name="meta.media.frame_rate_num">37755000</property>
  <property name="meta.media.frame_rate_den">1257943</property>
  <property name="meta.media.colorspace">709</property>
  <property name="meta.media.color_trc">1</property>
  <property name="meta.media.has_b_frames">0</property>
  <property name="meta.media.width">1920</property>
  <property name="meta.media.height">1080</property>
  <property name="meta.media.color_range">full</property>
  <property name="meta.media.variable_frame_rate">1</property>
  <property name="meta.media.top_field_first">0</property>
  <property name="meta.media.progressive">1</property>
  <property name="set.test_audio">1</property>
  <property name="set.test_image">0</property>
 </producer>
 <producer id="producer102" in="00:00:00.000" out="00:00:14.967">
  <property name="length">450</property>
  <property name="eof">pause</property>
  <property name="resource">videos/PXL_20221105_100619303.TS.mp4</property>
  <property name="audio_index">1</property>
  <property name="video_index">2</property>
  <property name="mute_on_pause">0</property>
  <property name="mlt_service">avformat-novalidate</property>
  <property name="seekable">1</property>
  <property name="aspect_ratio">1</property>
  <property name="kdenlive:clipname"/>
  <property name="kdenlive:folderid">2</property>
  <property name="kdenlive:id">4</property>
  <property name="kdenlive:file_size">37396143</property>
  <property name="kdenlive:file_hash">1e66f1f89251565d5722edbb35c0b48e</property>
  <property name="kdenlive:audio_max1">217</property>
  <property name="xml">was here</property>
  <property name="meta.media.nb_streams">4</property>
  <property name="meta.media.1.stream.type">audio</property>
  <property name="meta.media.1.codec.sample_fmt">fltp</property>
  <property name="meta.media.1.codec.sample_rate">48000</property>
  <property name="meta.media.1.codec.channels">2</property>
  <property name="meta.media.1.codec.name">aac</property>
  <property name="meta.media.1.codec.long_name">AAC (Advanced Audio Coding)</property>
  <property name="meta.media.1.codec.bit_rate">191865</property>
  <property name="meta.attr.1.stream.creation_time.markup">2022-11-05T10:06:35.000000Z</property>
  <property name="meta.attr.1.stream.language.markup">eng</property>
  <property name="meta.attr.1.stream.handler_name.markup">SoundHandle</property>
  <property name="meta.attr.1.stream.vendor_id.markup">[0][0][0][0]</property>
  <property name="meta.media.2.stream.type">video</property>
  <property name="meta.media.2.stream.frame_rate">29.9971</property>
  <property name="meta.media.2.stream.sample_aspect_ratio">1</property>
  <property name="meta.media.2.codec.width">1920</property>
  <property name="meta.media.2.codec.height">1080</property>
  <property name="meta.media.2.codec.rotate">0</property>
  <property name="meta.media.2.codec.pix_fmt">yuvj420p</property>
  <property name="meta.media.2.codec.sample_aspect_ratio">0</property>
  <property name="meta.media.2.codec.colorspace">709</property>
  <property name="meta.media.2.codec.color_trc">1</property>
  <property name="meta.media.2.codec.name">hevc</property>
  <property name="meta.media.2.codec.long_name">HEVC (High Efficiency Video Coding)</property>
  <property name="meta.media.2.codec.bit_rate">19690961</property>
  <property name="meta.attr.2.stream.creation_time.markup">2022-11-05T10:06:35.000000Z</property>
  <property name="meta.attr.2.stream.language.markup">eng</property>
  <property name="meta.attr.2.stream.handler_name.markup">VideoHandle</property>
  <property name="meta.attr.2.stream.vendor_id.markup">[0][0][0][0]</property>
  <property name="meta.attr.major_brand.markup">isom</property>
  <property name="meta.attr.minor_version.markup">131072</property>
  <property name="meta.attr.compatible_brands.markup">isomiso2mp41</property>
  <property name="meta.attr.creation_time.markup">2022-11-05T10:06:35.000000Z</property>
  <property name="meta.attr.location.markup">+51.4515+7.3604/</property>
  <property name="meta.attr.location-eng.markup">+51.4515+7.3604/</property>
  <property name="meta.attr.com.android.capture.fps.markup">30.000000</property>
  <property name="meta.media.sample_aspect_num">1</property>
  <property name="meta.media.sample_aspect_den">1</property>
  <property name="meta.media.frame_rate_num">40500000</property>
  <property name="meta.media.frame_rate_den">1350131</property>
  <property name="meta.media.colorspace">709</property>
  <property name="meta.media.color_trc">1</property>
  <property name="meta.media.has_b_frames">0</property>
  <property name="meta.media.width">1920</property>
  <property name="meta.media.height">1080</property>
  <property name="meta.media.color_range">full</property>
  <property name="meta.media.variable_frame_rate">1</property>
  <property name="meta.media.top_field_first">0</property>
  <property name="meta.media.progressive">1</property>
  <property name="set.test_audio">1</property>
  <property name="set.test_image">0</property>
 </producer>
 <producer id="producer103" in="00:00:00.000" out="00:00:39.067">
  <property name="length">1173</property>
  <property name="eof">pause</property>
  <property name="resource">videos/PXL_20221105_100658755.TS.mp4</property>
  <property name="audio_index">1</property>
  <property name="video_index">2</property>
  <property name="mute_on_pause">0</property>
  <property name="mlt_service">avformat-novalidate</property>
  <property name="seekable">1</property>
  <property name="aspect_ratio">1</property>
  <property name="kdenlive:clipname"/>
  <property name="kdenlive:folderid">2</property>
  <property name="kdenlive:id">5</property>
  <property name="kdenlive:file_size">97249082</property>
  <property name="kdenlive:file_hash">1c3e3ddc12447aa54d6277a6d4f01019</property>
  <property name="kdenlive:audio_max1">202</property>
  <property name="xml">was here</property>
  <property name="meta.media.nb_streams">4</property>
  <property name="meta.media.1.stream.type">audio</property>
  <property name="meta.media.1.codec.sample_fmt">fltp</property>
  <property name="meta.media.1.codec.sample_rate">48000</property>
  <property name="meta.media.1.codec.channels">2</property>
  <property name="meta.media.1.codec.name">aac</property>
  <property name="meta.media.1.codec.long_name">AAC (Advanced Audio Coding)</property>
  <property name="meta.media.1.codec.bit_rate">191843</property>
  <property name="meta.attr.1.stream.creation_time.markup">2022-11-05T10:07:39.000000Z</property>
  <property name="meta.attr.1.stream.language.markup">eng</property>
  <property name="meta.attr.1.stream.handler_name.markup">SoundHandle</property>
  <property name="meta.attr.1.stream.vendor_id.markup">[0][0][0][0]</property>
  <property name="meta.media.2.stream.type">video</property>
  <property name="meta.media.2.stream.frame_rate">29.9971</property>
  <property name="meta.media.2.stream.sample_aspect_ratio">1</property>
  <property name="meta.media.2.codec.width">1920</property>
  <property name="meta.media.2.codec.height">1080</property>
  <property name="meta.media.2.codec.rotate">0</property>
  <property name="meta.media.2.codec.pix_fmt">yuvj420p</property>
  <property name="meta.media.2.codec.sample_aspect_ratio">0</property>
  <property name="meta.media.2.codec.colorspace">709</property>
  <property name="meta.media.2.codec.color_trc">1</property>
  <property name="meta.media.2.codec.name">hevc</property>
  <property name="meta.media.2.codec.long_name">HEVC (High Efficiency Video Coding)</property>
  <property name="meta.media.2.codec.bit_rate">19644505</property>
  <property name="meta.attr.2.stream.creation_time.markup">2022-11-05T10:07:39.000000Z</property>
  <property name="meta.attr.2.stream.language.markup">eng</property>
  <property name="meta.attr.2.stream.handler_name.markup">VideoHandle</property>
  <property name="meta.attr.2.stream.vendor_id.markup">[0][0][0][0]</property>
  <property name="meta.attr.major_brand.markup">isom</property>
  <property name="meta.attr.minor_version.markup">131072</property>
  <property name="meta.attr.compatible_brands.markup">isomiso2mp41</property>
  <property name="meta.attr.creation_time.markup">2022-11-05T10:07:39.000000Z</property>
  <property name="meta.attr.location.markup">+51.4515+7.3604/</property>
  <property name="meta.attr.location-eng.markup">+51.4515+7.3604/</property>
  <property name="meta.attr.com.android.capture.fps.markup">30.000000</property>
  <property name="meta.media.sample_aspect_num">1</property>
  <property name="meta.media.sample_aspect_den">1</property>
  <property name="meta.media.frame_rate_num">306000</property>
  <property name="meta.media.frame_rate_den">10201</property>
  <property name="meta.media.colorspace">709</property>
  <property name="meta.media.color_trc">1</property>
  <property name="meta.media.has_b_frames">0</property>
  <property name="meta.media.width">1920</property>
  <property name="meta.media.height">1080</property>
  <property name="meta.media.color_range">full</property>
  <property name="meta.media.variable_frame_rate">1</property>
  <property name="meta.media.top_field_first">0</property>
  <property name="meta.media.progressive">1</property>
  <property name="set.test_audio">1</property>
  <property name="set.test_image">0</property>
 </producer>
 <producer id="producer104" in="00:00:00.000" out="00:00:06.367">
  <property name="length">192</property>
  <property name="eof">pause</property>
  <property name="resource">videos/PXL_20221105_100742409.TS.mp4</property>
  <property name="audio_index">1</property>
  <property name="video_index">2</property>
  <property name="mute_on_pause">0</property>
  <property name="mlt_service">avformat-novalidate</property>
  <property name="seekable">1</property>
  <property name="aspect_ratio">1</property>
  <property name="kdenlive:clipname"/>
  <property name="kdenlive:folderid">2</property>
  <property name="kdenlive:id">6</property>
  <property name="kdenlive:file_size">16019219</property>
  <property name="kdenlive:file_hash">5202d3aa4b09c490654ce1bd2ba8908a</property>
  <property name="kdenlive:audio_max1">205</property>
  <property name="xml">was here</property>
  <property name="meta.media.nb_streams">4</property>
  <property name="meta.media.1.stream.type">audio</property>
  <property name="meta.media.1.codec.sample_fmt">fltp</property>
  <property name="meta.media.1.codec.sample_rate">48000</property>
  <property name="meta.media.1.codec.channels">2</property>
  <property name="meta.media.1.codec.name">aac</property>
  <property name="meta.media.1.codec.long_name">AAC (Advanced Audio Coding)</property>
  <property name="meta.media.1.codec.bit_rate">191435</property>
  <property name="meta.attr.1.stream.creation_time.markup">2022-11-05T10:07:50.000000Z</property>
  <property name="meta.attr.1.stream.language.markup">eng</property>
  <property name="meta.attr.1.stream.handler_name.markup">SoundHandle</property>
  <property name="meta.attr.1.stream.vendor_id.markup">[0][0][0][0]</property>
  <property name="meta.media.2.stream.type">video</property>
  <property name="meta.media.2.stream.frame_rate">30.0132</property>
  <property name="meta.media.2.stream.sample_aspect_ratio">1</property>
  <property name="meta.media.2.codec.width">1920</property>
  <property name="meta.media.2.codec.height">1080</property>
  <property name="meta.media.2.codec.rotate">0</property>
  <property name="meta.media.2.codec.pix_fmt">yuvj420p</property>
  <property name="meta.media.2.codec.sample_aspect_ratio">0</property>
  <property name="meta.media.2.codec.colorspace">709</property>
  <property name="meta.media.2.codec.color_trc">1</property>
  <property name="meta.media.2.codec.name">hevc</property>
  <property name="meta.media.2.codec.long_name">HEVC (High Efficiency Video Coding)</property>
  <property name="meta.media.2.codec.bit_rate">19810133</property>
  <property name="meta.attr.2.stream.creation_time.markup">2022-11-05T10:07:50.000000Z</property>
  <property name="meta.attr.2.stream.language.markup">eng</property>
  <property name="meta.attr.2.stream.handler_name.markup">VideoHandle</property>
  <property name="meta.attr.2.stream.vendor_id.markup">[0][0][0][0]</property>
  <property name="meta.attr.major_brand.markup">isom</property>
  <property name="meta.attr.minor_version.markup">131072</property>
  <property name="meta.attr.compatible_brands.markup">isomiso2mp41</property>
  <property name="meta.attr.creation_time.markup">2022-11-05T10:07:50.000000Z</property>
  <property name="meta.attr.location.markup">+51.4515+7.3604/</property>
  <property name="meta.attr.location-eng.markup">+51.4515+7.3604/</property>
  <property name="meta.attr.com.android.capture.fps.markup">30.000000</property>
  <property name="meta.media.sample_aspect_num">1</property>
  <property name="meta.media.sample_aspect_den">1</property>
  <property name="meta.media.frame_rate_num">17280000</property>
  <property name="meta.media.frame_rate_den">575747</property>
  <property name="meta.media.colorspace">709</property>
  <property name="meta.media.color_trc">1</property>
  <property name="meta.media.has_b_frames">0</property>
  <property name="meta.media.width">1920</property>
  <property name="meta.media.height">1080</property>
  <property name="meta.media.color_range">full</property>
  <property name="meta.media.variable_frame_rate">1</property>
  <property name="meta.media.top_field_first">0</property>
  <property name="meta.media.progressive">1</property>
  <property name="set.test_audio">1</property>
  <property name="set.test_image">0</property>
 </producer>
 <producer id="producer105" in="00:00:00.000" out="00:00:32.700">
  <property name="length">982</property>
  <property name="eof">pause</property>
  <property name="resource">videos/PXL_20221105_100751953.TS.mp4</property>
  <property name="audio_index">1</property>
  <property name="video_index">2</property>
  <property name="mute_on_pause">0</property>
  <property name="mlt_service">avformat-novalidate</property>
  <property name="seekable">1</property>
  <property name="aspect_ratio">1</property>
  <property name="kdenlive:clipname"/>
  <property name="kdenlive:folderid">2</property>
  <property name="kdenlive:id">7</property>
  <property name="kdenlive:file_size">81350257</property>
  <property name="kdenlive:file_hash">cc484de6b9c1bcee858852f056591aa1</property>
  <property name="kdenlive:audio_max1">219</property>
  <property name="xml">was here</property>
  <property name="meta.media.nb_streams">4</property>
  <property name="meta.media.1.stream.type">audio</property>
  <property name="meta.media.1.codec.sample_fmt">fltp</property>
  <property name="meta.media.1.codec.sample_rate">48000</property>
  <property name="meta.media.1.codec.channels">2</property>
  <property name="meta.media.1.codec.name">aac</property>
  <property name="meta.media.1.codec.long_name">AAC (Advanced Audio Coding)</property>
  <property name="meta.media.1.codec.bit_rate">191906</property>
  <property name="meta.attr.1.stream.creation_time.markup">2022-11-05T10:08:26.000000Z</property>
  <property name="meta.attr.1.stream.language.markup">eng</property>
  <property name="meta.attr.1.stream.handler_name.markup">SoundHandle</property>
  <property name="meta.attr.1.stream.vendor_id.markup">[0][0][0][0]</property>
  <property name="meta.media.2.stream.type">video</property>
  <property name="meta.media.2.stream.frame_rate">29.9375</property>
  <property name="meta.media.2.stream.sample_aspect_ratio">1</property>
  <property name="meta.media.2.codec.width">1920</property>
  <property name="meta.media.2.codec.height">1080</property>
  <property name="meta.media.2.codec.rotate">0</property>
  <property name="meta.media.2.codec.pix_fmt">yuvj420p</property>
  <property name="meta.media.2.codec.sample_aspect_ratio">0</property>
  <property name="meta.media.2.codec.colorspace">709</property>
  <property name="meta.media.2.codec.color_trc">1</property>
  <property name="meta.media.2.codec.name">hevc</property>
  <property name="meta.media.2.codec.long_name">HEVC (High Efficiency Video Coding)</property>
  <property name="meta.media.2.codec.bit_rate">19636094</property>
  <property name="meta.attr.2.stream.creation_time.markup">2022-11-05T10:08:26.000000Z</property>
  <property name="meta.attr.2.stream.language.markup">eng</property>
  <property name="meta.attr.2.stream.handler_name.markup">VideoHandle</property>
  <property name="meta.attr.2.stream.vendor_id.markup">[0][0][0][0]</property>
  <property name="meta.attr.major_brand.markup">isom</property>
  <property name="meta.attr.minor_version.markup">131072</property>
  <property name="meta.attr.compatible_brands.markup">isomiso2mp41</property>
  <property name="meta.attr.creation_time.markup">2022-11-05T10:08:26.000000Z</property>
  <property name="meta.attr.location.markup">+51.4515+7.3604/</property>
  <property name="meta.attr.location-eng.markup">+51.4515+7.3604/</property>
  <property name="meta.attr.com.android.capture.fps.markup">30.000000</property>
  <property name="meta.media.sample_aspect_num">1</property>
  <property name="meta.media.sample_aspect_den">1</property>
  <property name="meta.media.frame_rate_num">12600000</property>
  <property name="meta.media.frame_rate_den">420877</property>
  <property name="meta.media.colorspace">709</property>
  <property name="meta.media.color_trc">1</property>
  <property name="meta.media.has_b_frames">0</property>
  <property name="meta.media.width">1920</property>
  <property name="meta.media.height">1080</property>
  <property name="meta.media.color_range">full</property>
  <property name="meta.media.variable_frame_rate">1</property>
  <property name="meta.media.top_field_first">0</property>
  <property name="meta.media.progressive">1</property>
  <property name="set.test_audio">1</property>
  <property name="set.test_image">0</property>
 </producer>
 <producer id="producer106" in="00:00:00.000" out="00:01:41.667">
  <property name="length">3051</property>
  <property name="eof">pause</property>
  <property name="resource">videos/PXL_20221105_100939196.TS.mp4</property>
  <property name="audio_index">1</property>
  <property name="video_index">2</property>
  <property name="mute_on_pause">0</property>
  <property name="mlt_service">avformat-novalidate</property>
  <property name="seekable">1</property>
  <property name="aspect_ratio">1</property>
  <property name="kdenlive:clipname"/>
  <property name="kdenlive:folderid">2</property>
  <property name="kdenlive:id">8</property>
  <property name="kdenlive:file_size">251230507</property>
  <property name="kdenlive:file_hash">2f091963639d5b5c6aa5af490314d23a</property>
  <property name="kdenlive:audio_max1">231</property>
  <property name="xml">was here</property>
  <property name="meta.media.nb_streams">4</property>
  <property name="meta.media.1.stream.type">audio</property>
  <property name="meta.media.1.codec.sample_fmt">fltp</property>
  <property name="meta.media.1.codec.sample_rate">48000</property>
  <property name="meta.media.1.codec.channels">2</property>
  <property name="meta.media.1.codec.name">aac</property>
  <property name="meta.media.1.codec.long_name">AAC (Advanced Audio Coding)</property>
  <property name="meta.media.1.codec.bit_rate">191996</property>
  <property name="meta.attr.1.stream.creation_time.markup">2022-11-05T10:11:22.000000Z</property>
  <property name="meta.attr.1.stream.language.markup">eng</property>
  <property name="meta.attr.1.stream.handler_name.markup">SoundHandle</property>
  <property name="meta.attr.1.stream.vendor_id.markup">[0][0][0][0]</property>
  <property name="meta.media.2.stream.type">video</property>
  <property name="meta.media.2.stream.frame_rate">29.8463</property>
  <property name="meta.media.2.stream.sample_aspect_ratio">1</property>
  <property name="meta.media.2.codec.width">1920</property>
  <property name="meta.media.2.codec.height">1080</property>
  <property name="meta.media.2.codec.rotate">0</property>
  <property name="meta.media.2.codec.pix_fmt">yuvj420p</property>
  <property name="meta.media.2.codec.sample_aspect_ratio">0</property>
  <property name="meta.media.2.codec.colorspace">709</property>
  <property name="meta.media.2.codec.color_trc">1</property>
  <property name="meta.media.2.codec.name">hevc</property>
  <property name="meta.media.2.codec.long_name">HEVC (High Efficiency Video Coding)</property>
  <property name="meta.media.2.codec.bit_rate">19538998</property>
  <property name="meta.attr.2.stream.creation_time.markup">2022-11-05T10:11:22.000000Z</property>
  <property name="meta.attr.2.stream.language.markup">eng</property>
  <property name="meta.attr.2.stream.handler_name.markup">VideoHandle</property>
  <property name="meta.attr.2.stream.vendor_id.markup">[0][0][0][0]</property>
  <property name="meta.attr.major_brand.markup">isom</property>
  <property name="meta.attr.minor_version.markup">131072</property>
  <property name="meta.attr.compatible_brands.markup">isomiso2mp41</property>
  <property name="meta.attr.creation_time.markup">2022-11-05T10:11:22.000000Z</property>
  <property name="meta.attr.location.markup">+51.4516+7.3603/</property>
  <property name="meta.attr.location-eng.markup">+51.4516+7.3603/</property>
  <property name="meta.attr.com.android.capture.fps.markup">30.000000</property>
  <property name="meta.media.sample_aspect_num">1</property>
  <property name="meta.media.sample_aspect_den">1</property>
  <property name="meta.media.frame_rate_num">91050000</property>
  <property name="meta.media.frame_rate_den">3050629</property>
  <property name="meta.media.colorspace">709</property>
  <property name="meta.media.color_trc">1</property>
  <property name="meta.media.has_b_frames">0</property>
  <property name="meta.media.width">1920</property>
  <property name="meta.media.height">1080</property>
  <property name="meta.media.color_range">full</property>
  <property name="meta.media.variable_frame_rate">1</property>
  <property name="meta.media.top_field_first">0</property>
  <property name="meta.media.progressive">1</property>
  <property name="set.test_audio">1</property>
  <property name="set.test_image">0</property>
 </producer>
 <producer id="producer107" in="00:00:00.000" out="00:00:47.333">
  <property name="length">1421</property>
  <property name="eof">pause</property>
  <property name="resource">videos/PXL_20221105_101152835.TS.mp4</property>
  <property name="audio_index">1</property>
  <property name="video_index">2</property>
  <property name="mute_on_pause">0</property>
  <property name="mlt_service">avformat-novalidate</property>
  <property name="seekable">1</property>
  <property name="aspect_ratio">1</property>
  <property name="kdenlive:clipname"/>
  <property name="kdenlive:folderid">2</property>
  <property name="kdenlive:id">9</property>
  <property name="kdenlive:file_size">118332242</property>
  <property name="kdenlive:file_hash">0bfa558262f68c9042bade178ea2f206</property>
  <property name="kdenlive:audio_max1">217</property>
  <property name="xml">was here</property>
  <property name="meta.media.nb_streams">4</property>
  <property name="meta.media.1.stream.type">audio</property>
  <property name="meta.media.1.codec.sample_fmt">fltp</property>
  <property name="meta.media.1.codec.sample_rate">48000</property>
  <property name="meta.media.1.codec.channels">2</property>
  <property name="meta.media.1.codec.name">aac</property>
  <property name="meta.media.1.codec.long_name">AAC (Advanced Audio Coding)</property>
  <property name="meta.media.1.codec.bit_rate">191856</property>
  <property name="meta.attr.1.stream.creation_time.markup">2022-11-05T10:12:41.000000Z</property>
  <property name="meta.attr.1.stream.language.markup">eng</property>
  <property name="meta.attr.1.stream.handler_name.markup">SoundHandle</property>
  <property name="meta.attr.1.stream.vendor_id.markup">[0][0][0][0]</property>
  <property name="meta.media.2.stream.type">video</property>
  <property name="meta.media.2.stream.frame_rate">29.7775</property>
  <property name="meta.media.2.stream.sample_aspect_ratio">1</property>
  <property name="meta.media.2.codec.width">1920</property>
  <property name="meta.media.2.codec.height">1080</property>
  <property name="meta.media.2.codec.rotate">0</property>
  <property name="meta.media.2.codec.pix_fmt">yuvj420p</property>
  <property name="meta.media.2.codec.sample_aspect_ratio">0</property>
  <property name="meta.media.2.codec.colorspace">709</property>
  <property name="meta.media.2.codec.color_trc">1</property>
  <property name="meta.media.2.codec.name">hevc</property>
  <property name="meta.media.2.codec.long_name">HEVC (High Efficiency Video Coding)</property>
  <property name="meta.media.2.codec.bit_rate">19766874</property>
  <property name="meta.attr.2.stream.creation_time.markup">2022-11-05T10:12:41.000000Z</property>
  <property name="meta.attr.2.stream.language.markup">eng</property>
  <property name="meta.attr.2.stream.handler_name.markup">VideoHandle</property>
  <property name="meta.attr.2.stream.vendor_id.markup">[0][0][0][0]</property>
  <property name="meta.attr.major_brand.markup">isom</property>
  <property name="meta.attr.minor_version.markup">131072</property>
  <property name="meta.attr.compatible_brands.markup">isomiso2mp41</property>
  <property name="meta.attr.creation_time.markup">2022-11-05T10:12:41.000000Z</property>
  <property name="meta.attr.location.markup">+51.4516+7.3603/</property>
  <property name="meta.attr.location-eng.markup">+51.4516+7.3603/</property>
  <property name="meta.attr.com.android.capture.fps.markup">30.000000</property>
  <property name="meta.media.sample_aspect_num">1</property>
  <property name="meta.media.sample_aspect_den">1</property>
  <property name="meta.media.frame_rate_num">12690000</property>
  <property name="meta.media.frame_rate_den">426161</property>
  <property name="meta.media.colorspace">709</property>
  <property name="meta.media.color_trc">1</property>
  <property name="meta.media.has_b_frames">0</property>
  <property name="meta.media.width">1920</property>
  <property name="meta.media.height">1080</property>
  <property name="meta.media.color_range">full</property>
  <property name="meta.media.variable_frame_rate">1</property>
  <property name="meta.media.top_field_first">0</property>
  <property name="meta.media.progressive">1</property>
  <property name="set.test_audio">1</property>
  <property name="set.test_image">0</property>
 </producer>
 <producer id="producer108" in="00:00:00.000" out="00:00:47.733">
  <property name="length">1433</property>
  <property name="eof">pause</property>
  <property name="resource">videos/PXL_20221105_101305666.TS.mp4</property>
  <property name="audio_index">1</property>
  <property name="video_index">2</property>
  <property name="mute_on_pause">0</property>
  <property name="mlt_service">avformat-novalidate</property>
  <property name="seekable">1</property>
  <property name="aspect_ratio">1</property>
  <property name="kdenlive:clipname"/>
  <property name="kdenlive:file_size">118192405</property>
  <property name="kdenlive:folderid">2</property>
  <property name="kdenlive:id">10</property>
  <property name="kdenlive:file_hash">d231e80d7de1efc4d718c16279a84078</property>
  <property name="kdenlive:audio_max1">223</property>
  <property name="xml">was here</property>
  <property name="meta.media.nb_streams">4</property>
  <property name="meta.media.1.stream.type">audio</property>
  <property name="meta.media.1.codec.sample_fmt">fltp</property>
  <property name="meta.media.1.codec.sample_rate">48000</property>
  <property name="meta.media.1.codec.channels">2</property>
  <property name="meta.media.1.codec.name">aac</property>
  <property name="meta.media.1.codec.long_name">AAC (Advanced Audio Coding)</property>
  <property name="meta.media.1.codec.bit_rate">191929</property>
  <property name="meta.attr.1.stream.creation_time.markup">2022-11-05T10:13:54.000000Z</property>
  <property name="meta.attr.1.stream.language.markup">eng</property>
  <property name="meta.attr.1.stream.handler_name.markup">SoundHandle</property>
  <property name="meta.attr.1.stream.vendor_id.markup">[0][0][0][0]</property>
  <property name="meta.media.2.stream.type">video</property>
  <property name="meta.media.2.stream.frame_rate">29.8523</property>
  <property name="meta.media.2.stream.sample_aspect_ratio">1</property>
  <property name="meta.media.2.codec.width">1920</property>
  <property name="meta.media.2.codec.height">1080</property>
  <property name="meta.media.2.codec.rotate">0</property>
  <property name="meta.media.2.codec.pix_fmt">yuvj420p</property>
  <property name="meta.media.2.codec.sample_aspect_ratio">0</property>
  <property name="meta.media.2.codec.colorspace">709</property>
  <property name="meta.media.2.codec.color_trc">1</property>
  <property name="meta.media.2.codec.name">hevc</property>
  <property name="meta.media.2.codec.long_name">HEVC (High Efficiency Video Coding)</property>
  <property name="meta.media.2.codec.bit_rate">19572069</property>
  <property name="meta.attr.2.stream.creation_time.markup">2022-11-05T10:13:54.000000Z</property>
  <property name="meta.attr.2.stream.language.markup">eng</property>
  <property name="meta.attr.2.stream.handler_name.markup">VideoHandle</property>
  <property name="meta.attr.2.stream.vendor_id.markup">[0][0][0][0]</property>
  <property name="meta.attr.major_brand.markup">isom</property>
  <property name="meta.attr.minor_version.markup">131072</property>
  <property name="meta.attr.compatible_brands.markup">isomiso2mp41</property>
  <property name="meta.attr.creation_time.markup">2022-11-05T10:13:54.000000Z</property>
  <property name="meta.attr.location.markup">+51.4516+7.3603/</property>
  <property name="meta.attr.location-eng.markup">+51.4516+7.3603/</property>
  <property name="meta.attr.com.android.capture.fps.markup">30.000000</property>
  <property name="meta.media.sample_aspect_num">1</property>
  <property name="meta.media.sample_aspect_den">1</property>
  <property name="meta.media.frame_rate_num">139500</property>
  <property name="meta.media.frame_rate_den">4673</property>
  <property name="meta.media.colorspace">709</property>
  <property name="meta.media.color_trc">1</property>
  <property name="meta.media.has_b_frames">0</property>
  <property name="meta.media.width">1920</property>
  <property name="meta.media.height">1080</property>
  <property name="meta.media.color_range">full</property>
  <property name="meta.media.variable_frame_rate">1</property>
  <property name="meta.media.top_field_first">0</property>
  <property name="meta.media.progressive">1</property>
  <property name="set.test_audio">1</property>
  <property name="set.test_image">0</property>
 </producer>
 <producer id="producer109" in="00:00:00.000" out="00:00:48.667">
  <property name="length">1461</property>
  <property name="eof">pause</property>
  <property name="resource">videos/PXL_20221105_101358902.TS.mp4</property>
  <property name="audio_index">1</property>
  <property name="video_index">2</property>
  <property name="mute_on_pause">0</property>
  <property name="mlt_service">avformat-novalidate</property>
  <property name="seekable">1</property>
  <property name="aspect_ratio">1</property>
  <property name="kdenlive:clipname"/>
  <property name="kdenlive:file_size">121023567</property>
  <property name="kdenlive:folderid">2</property>
  <property name="kdenlive:id">11</property>
  <property name="kdenlive:file_hash">812faf4f0e13779e61e7f125c18d6167</property>
  <property name="kdenlive:audio_max1">220</property>
  <property name="xml">was here</property>
  <property name="meta.media.nb_streams">4</property>
  <property name="meta.media.1.stream.type">audio</property>
  <property name="meta.media.1.codec.sample_fmt">fltp</property>
  <property name="meta.media.1.codec.sample_rate">48000</property>
  <property name="meta.media.1.codec.channels">2</property>
  <property name="meta.media.1.codec.name">aac</property>
  <property name="meta.media.1.codec.long_name">AAC (Advanced Audio Coding)</property>
  <property name="meta.media.1.codec.bit_rate">191913</property>
  <property name="meta.attr.1.stream.creation_time.markup">2022-11-05T10:14:49.000000Z</property>
  <property name="meta.attr.1.stream.language.markup">eng</property>
  <property name="meta.attr.1.stream.handler_name.markup">SoundHandle</property>
  <property name="meta.attr.1.stream.vendor_id.markup">[0][0][0][0]</property>
  <property name="meta.media.2.stream.type">video</property>
  <property name="meta.media.2.stream.frame_rate">30.0133</property>
  <property name="meta.media.2.stream.sample_aspect_ratio">1</property>
  <property name="meta.media.2.codec.width">1920</property>
  <property name="meta.media.2.codec.height">1080</property>
  <property name="meta.media.2.codec.rotate">0</property>
  <property name="meta.media.2.codec.pix_fmt">yuvj420p</property>
  <property name="meta.media.2.codec.sample_aspect_ratio">0</property>
  <property name="meta.media.2.codec.colorspace">709</property>
  <property name="meta.media.2.codec.color_trc">1</property>
  <property name="meta.media.2.codec.name">hevc</property>
  <property name="meta.media.2.codec.long_name">HEVC (High Efficiency Video Coding)</property>
  <property name="meta.media.2.codec.bit_rate">19650230</property>
  <property name="meta.attr.2.stream.creation_time.markup">2022-11-05T10:14:49.000000Z</property>
  <property name="meta.attr.2.stream.language.markup">eng</property>
  <property name="meta.attr.2.stream.handler_name.markup">VideoHandle</property>
  <property name="meta.attr.2.stream.vendor_id.markup">[0][0][0][0]</property>
  <property name="meta.attr.major_brand.markup">isom</property>
  <property name="meta.attr.minor_version.markup">131072</property>
  <property name="meta.attr.compatible_brands.markup">isomiso2mp41</property>
  <property name="meta.attr.creation_time.markup">2022-11-05T10:14:49.000000Z</property>
  <property name="meta.attr.location.markup">+51.4516+7.3603/</property>
  <property name="meta.attr.location-eng.markup">+51.4516+7.3603/</property>
  <property name="meta.attr.com.android.capture.fps.markup">30.000000</property>
  <property name="meta.media.sample_aspect_num">1</property>
  <property name="meta.media.sample_aspect_den">1</property>
  <property name="meta.media.frame_rate_num">14620000</property>
  <property name="meta.media.frame_rate_den">487117</property>
  <property name="meta.media.colorspace">709</property>
  <property name="meta.media.color_trc">1</property>
  <property name="meta.media.has_b_frames">0</property>
  <property name="meta.media.width">1920</property>
  <property name="meta.media.height">1080</property>
  <property name="meta.media.color_range">full</property>
  <property name="meta.media.variable_frame_rate">1</property>
  <property name="meta.media.top_field_first">0</property>
  <property name="meta.media.progressive">1</property>
  <property name="set.test_audio">1</property>
  <property name="set.test_image">0</property>
 </producer>
 <playlist id="playlist4">
  <blank length="00:00:00.333"/>
  <entry producer="producer101" in="00:00:02.800" out="00:00:38.200">
   <property name="kdenlive:id">3</property>
   <property name="kdenlive:activeeffect">-1</property>
   <filter id="filter17" in="00:00:02.800" out="00:00:02.833">
    <property name="start">1</property>
    <property name="level">1</property>
    <property name="mlt_service">brightness</property>
    <property name="kdenlive_id">fade_from_black</property>
    <property name="alpha">00:00:00.000=0;00:00:00.033=1</property>
   </filter>
  </entry>
  <entry producer="producer101" in="00:00:39.067" out="00:00:43.233">
   <property name="kdenlive:id">3</property>
  </entry>
  <entry producer="producer101" in="00:00:44.600" out="00:00:48.500">
   <property name="kdenlive:id">3</property>
  </entry>
  <entry producer="producer102" in="00:00:05.233" out="00:00:06.433">
   <property name="kdenlive:id">4</property>
  </entry>
  <entry producer="producer102" in="00:00:06.467" out="00:00:07.033">
   <property name="kdenlive:id">4</property>
  </entry>
  <entry producer="producer102" in="00:00:07.067" out="00:00:11.533">
   <property name="kdenlive:id">4</property>
  </entry>
  <entry producer="producer103" in="00:00:03.033" out="00:00:38.100">
   <property name="kdenlive:id">5</property>
  </entry>
  <entry producer="producer104" in="00:00:00.000" out="00:00:06.367">
   <property name="kdenlive:id">6</property>
  </entry>
  <entry producer="producer105" in="00:00:00.000" out="00:00:09.833">
   <property name="kdenlive:id">7</property>
  </entry>
  <entry producer="producer105" in="00:00:14.000" out="00:00:29.167">
   <property name="kdenlive:id">7</property>
   <property name="kdenlive:activeeffect">-1</property>
  </entry>
  <entry producer="producer106" in="00:00:02.167" out="00:01:37.967">
   <property name="kdenlive:id">8</property>
  </entry>
  <entry producer="producer107" in="00:00:00.700" out="00:00:47.333">
   <property name="kdenlive:id">9</property>
  </entry>
  <entry producer="producer108" in="00:00:21.500" out="00:00:35.300">
   <property name="kdenlive:id">10</property>
  </entry>
  <entry producer="producer108" in="00:00:42.233" out="00:00:46.267">
   <property name="kdenlive:id">10</property>
  </entry>
  <entry producer="producer109" in="00:00:00.500" out="00:00:48.000">
   <property name="kdenlive:id">11</property>
  </entry>
 </playlist>
 <playlist id="playlist5"/>
 <tractor id="tractor2" in="00:00:00.000" out="00:05:24.700">
  <property name="kdenlive:trackheight">69</property>
  <property name="kdenlive:timeline_active">1</property>
  <property name="kdenlive:collapsed">0</property>
  <property name="kdenlive:thumbs_format"/>
  <property name="kdenlive:audio_rec"/>
  <track hide="audio" producer="playlist4"/>
  <track hide="audio" producer="playlist5"/>
 </tractor>
 <playlist id="playlist6">
  <blank length="00:05:24.733"/>
  <entry producer="producer9" in="00:00:00.000" out="00:00:20.167">
   <property name="kdenlive:id">13</property>
   <filter id="filter18" out="00:00:00.400">
    <property name="start">1</property>
    <property name="level">1</property>
    <property name="mlt_service">brightness</property>
    <property name="kdenlive_id">fade_from_black</property>
    <property name="alpha">00:00:00.000=0;00:00:00.400=1</property>
    <property name="kdenlive:collapsed">0</property>
   </filter>
   <filter id="filter19" in="00:00:20.000" out="00:00:20.200">
    <property name="start">1</property>
    <property name="level">1</property>
    <property name="mlt_service">brightness</property>
    <property name="kdenlive_id">fade_to_black</property>
    <property name="alpha">00:00:00.000=1;00:00:00.200=0</property>
    <property name="kdenlive:collapsed">0</property>
   </filter>
  </entry>
 </playlist>
 <playlist id="playlist7"/>
 <tractor id="tractor3" in="00:00:00.000" out="00:05:44.900">
  <property name="kdenlive:trackheight">69</property>
  <property name="kdenlive:timeline_active">1</property>
  <property name="kdenlive:collapsed">0</property>
  <property name="kdenlive:thumbs_format"/>
  <property name="kdenlive:audio_rec"/>
  <track hide="audio" producer="playlist6"/>
  <track hide="audio" producer="playlist7"/>
 </tractor>
 <tractor id="tractor4" in="00:00:00.000" out="00:22:26.800">
  <track producer="black_track"/>
  <track producer="tractor0"/>
  <track producer="tractor1"/>
  <track producer="tractor2"/>
  <track producer="tractor3"/>
  <transition id="transition0">
   <property name="a_track">0</property>
   <property name="b_track">1</property>
   <property name="mlt_service">mix</property>
   <property name="kdenlive_id">mix</property>
   <property name="internal_added">237</property>
   <property name="always_active">1</property>
   <property name="accepts_blanks">1</property>
   <property name="sum">1</property>
  </transition>
  <transition id="transition1">
   <property name="a_track">0</property>
   <property name="b_track">2</property>
   <property name="mlt_service">mix</property>
   <property name="kdenlive_id">mix</property>
   <property name="internal_added">237</property>
   <property name="always_active">1</property>
   <property name="accepts_blanks">1</property>
   <property name="sum">1</property>
  </transition>
  <transition id="transition2">
   <property name="a_track">0</property>
   <property name="b_track">3</property>
   <property name="version">0.9</property>
   <property name="mlt_service">frei0r.cairoblend</property>
   <property name="kdenlive_id">frei0r.cairoblend</property>
   <property name="internal_added">237</property>
   <property name="always_active">1</property>
  </transition>
  <transition id="transition3">
   <property name="a_track">0</property>
   <property name="b_track">4</property>
   <property name="version">0.9</property>
   <property name="mlt_service">frei0r.cairoblend</property>
   <property name="kdenlive_id">frei0r.cairoblend</property>
   <property name="internal_added">237</property>
   <property name="always_active">1</property>
  </transition>
  <filter id="filter20">
   <property name="window">75</property>
   <property name="max_gain">20dB</property>
   <property name="mlt_service">volume</property>
   <property name="internal_added">237</property>
   <property name="disable">1</property>
  </filter>
  <filter id="filter21">
   <property name="channel">-1</property>
   <property name="mlt_service">panner</property>
   <property name="internal_added">237</property>
   <property name="start">0.5</property>
   <property name="disable">1</property>
  </filter>
  <filter id="filter22">
   <property name="iec_scale">0</property>
   <property name="mlt_service">audiolevel</property>
   <property name="disable">1</property>
  </filter>
 </tractor>
</mlt>
