<?xml version='1.0' encoding='utf-8'?>
<mlt LC_NUMERIC="C" producer="main_bin" version="6.25.0" root="/opt/vlog/pintando-discos/_-2-plasticos">
 <profile frame_rate_num="25" sample_aspect_num="1" display_aspect_den="9" colorspace="709" progressive="1" description="HD 1080p 25 fps" display_aspect_num="16" frame_rate_den="1" width="1920" height="1080" sample_aspect_den="1"/>
 <producer id="producer0" in="00:00:00.000" out="00:09:13.200">
  <property name="length">13831</property>
  <property name="eof">pause</property>
  <property name="resource">videos/PXL_20210209_195049381.mp4</property>
  <property name="audio_index">0</property>
  <property name="video_index">1</property>
  <property name="mute_on_pause">0</property>
  <property name="mlt_service">avformat-novalidate</property>
  <property name="meta.media.nb_streams">2</property>
  <property name="meta.media.0.stream.type">audio</property>
  <property name="meta.media.0.codec.sample_fmt">fltp</property>
  <property name="meta.media.0.codec.sample_rate">48000</property>
  <property name="meta.media.0.codec.channels">2</property>
  <property name="meta.media.0.codec.name">aac</property>
  <property name="meta.media.0.codec.long_name">AAC (Advanced Audio Coding)</property>
  <property name="meta.media.0.codec.bit_rate">191986</property>
  <property name="meta.attr.0.stream.creation_time.markup">2021-02-09T20:00:03.000000Z</property>
  <property name="meta.attr.0.stream.language.markup">eng</property>
  <property name="meta.attr.0.stream.handler_name.markup">SoundHandle</property>
  <property name="meta.media.1.stream.type">video</property>
  <property name="meta.media.1.stream.frame_rate">30.012</property>
  <property name="meta.media.1.stream.sample_aspect_ratio">1</property>
  <property name="meta.media.1.codec.width">1920</property>
  <property name="meta.media.1.codec.height">1080</property>
  <property name="meta.media.1.codec.rotate">0</property>
  <property name="meta.media.1.codec.frame_rate">90000</property>
  <property name="meta.media.1.codec.pix_fmt">yuvj420p</property>
  <property name="meta.media.1.codec.sample_aspect_ratio">0</property>
  <property name="meta.media.1.codec.colorspace">601</property>
  <property name="meta.media.1.codec.color_trc">6</property>
  <property name="meta.media.1.codec.name">h264</property>
  <property name="meta.media.1.codec.long_name">H.264 / AVC / MPEG-4 AVC / MPEG-4 part 10</property>
  <property name="meta.media.1.codec.bit_rate">21998771</property>
  <property name="meta.attr.1.stream.creation_time.markup">2021-02-09T20:00:03.000000Z</property>
  <property name="meta.attr.1.stream.language.markup">eng</property>
  <property name="meta.attr.1.stream.handler_name.markup">VideoHandle</property>
  <property name="meta.attr.major_brand.markup">mp42</property>
  <property name="meta.attr.minor_version.markup">0</property>
  <property name="meta.attr.compatible_brands.markup">isommp42</property>
  <property name="meta.attr.creation_time.markup">2021-02-09T20:00:03.000000Z</property>
  <property name="meta.attr.location.markup">+51.4483+7.0266/</property>
  <property name="meta.attr.location-eng.markup">+51.4483+7.0266/</property>
  <property name="meta.attr.com.android.capture.fps.markup">30.000000</property>
  <property name="seekable">1</property>
  <property name="meta.media.sample_aspect_num">1</property>
  <property name="meta.media.sample_aspect_den">1</property>
  <property name="aspect_ratio">1</property>
  <property name="kdenlive:clipname"/>
  <property name="meta.media.frame_rate_num">59774400</property>
  <property name="meta.media.frame_rate_den">1991681</property>
  <property name="meta.media.colorspace">601</property>
  <property name="meta.media.color_trc">6</property>
  <property name="meta.media.width">1920</property>
  <property name="meta.media.height">1080</property>
  <property name="meta.media.color_range">full</property>
  <property name="meta.media.variable_frame_rate">1</property>
  <property name="meta.media.top_field_first">0</property>
  <property name="meta.media.progressive">1</property>
  <property name="kdenlive:folderid">-1</property>
  <property name="kdenlive:id">2</property>
  <property name="kdenlive:file_size">1534868171</property>
  <property name="kdenlive:file_hash">79b5296d3e5f03df9db0210a7f522090</property>
  <property name="kdenlive:audio_max">2</property>
  <property name="global_feed">1</property>
 </producer>
 <producer id="producer1" in="00:00:00.000" out="00:00:05.960">
  <property name="length">150</property>
  <property name="eof">pause</property>
  <property name="resource">/opt/vlog/graficas/ThunderGuanaco.kdenlivetitle</property>
  <property name="progressive">1</property>
  <property name="aspect_ratio">1</property>
  <property name="seekable">1</property>
  <property name="mlt_service">kdenlivetitle</property>
  <property name="kdenlive:duration">150</property>
  <property name="kdenlive:clipname"/>
  <property name="kdenlive:folderid">4</property>
  <property name="kdenlive:id">3</property>
  <property name="kdenlive:file_hash">5b23d34e1e02b6ee0d48862a10f343dd</property>
  <property name="force_reload">0</property>
  <property name="meta.media.width">1920</property>
  <property name="meta.media.height">1080</property>
 </producer>
 <producer title="Anonymous Submission" id="tractor0" in="00:00:00.000" out="00:00:04.000">
  <property name="length">125</property>
  <property name="eof">pause</property>
  <property name="resource">/opt/vlog/graficas/white_noise_2.mlt</property>
  <property name="mlt_service">xml</property>
  <property name="global_feed">1</property>
  <property name="xml">was here</property>
  <property name="seekable">1</property>
  <property name="kdenlive:clipname"/>
  <property name="kdenlive:folderid">4</property>
  <property name="kdenlive:id">5</property>
  <property name="kdenlive:file_size">811</property>
  <property name="kdenlive:file_hash">a19107eb9b6fdb81044bbb74253f14b0</property>
 </producer>
 <producer id="producer2" in="00:00:00.000" out="00:00:05.000">
  <property name="length">126</property>
  <property name="eof">pause</property>
  <property name="resource"/>
  <property name="progressive">1</property>
  <property name="aspect_ratio">1</property>
  <property name="seekable">1</property>
  <property name="mlt_service">kdenlivetitle</property>
  <property name="kdenlive:duration">125</property>
  <property name="kdenlive:clipname">* Dicho de f...</property>
  <property name="xmldata">&lt;kdenlivetitle duration="125" LC_NUMERIC="C" width="1920" height="1080" out="124">
 &lt;item type="QGraphicsTextItem" z-index="0">
  &lt;position x="60" y="960">
   &lt;transform>1,0,0,0,1,0,0,0,1&lt;/transform>
  &lt;/position>
  &lt;content shadow="0;#64000000;3;3;3" font-underline="0" box-height="59" font-outline-color="0,0,0,255" font="DejaVu Sans" letter-spacing="0" font-pixel-size="50" font-italic="0" alignment="2" font-weight="75" font-outline="2.1" box-width="724.656" font-color="255,255,255,255">* Dicho de forma correcta&lt;/content>
 &lt;/item>
 &lt;startviewport rect="0,0,1920,1080"/>
 &lt;endviewport rect="0,0,1920,1080"/>
 &lt;background color="0,0,0,0"/>
&lt;/kdenlivetitle>
</property>
  <property name="kdenlive:folderid">4</property>
  <property name="kdenlive:id">6</property>
  <property name="kdenlive:file_hash">cc97e4b285dc54f2ed81e36ec2c8e708</property>
  <property name="force_reload">0</property>
  <property name="meta.media.width">1920</property>
  <property name="meta.media.height">1080</property>
 </producer>
 <producer id="producer3" in="00:00:00.000" out="00:00:22.520">
  <property name="length">564</property>
  <property name="eof">pause</property>
  <property name="resource"/>
  <property name="progressive">1</property>
  <property name="aspect_ratio">1</property>
  <property name="seekable">1</property>
  <property name="mlt_service">kdenlivetitle</property>
  <property name="kdenlive:duration">125</property>
  <property name="kdenlive:clipname">BASE</property>
  <property name="xmldata">&lt;kdenlivetitle duration="125" LC_NUMERIC="C" width="1920" height="1080" out="124">
 &lt;item type="QGraphicsTextItem" z-index="0">
  &lt;position x="30" y="40">
   &lt;transform>1,0,0,0,1,0,0,0,1&lt;/transform>
  &lt;/position>
  &lt;content line-spacing="0" shadow="0;#64000000;3;3;3" font-underline="0" box-height="88" font-outline-color="0,0,0,255" font="DejaVu Sans" letter-spacing="0" font-pixel-size="75" font-italic="0" alignment="2" font-weight="75" font-outline="2.1" box-width="633.938" font-color="255,255,255,255">PlÃ¡sticos base:&lt;/content>
 &lt;/item>
 &lt;startviewport rect="0,0,1920,1080"/>
 &lt;endviewport rect="0,0,1920,1080"/>
 &lt;background color="0,0,0,0"/>
&lt;/kdenlivetitle>
</property>
  <property name="kdenlive:folderid">7</property>
  <property name="kdenlive:id">9</property>
  <property name="kdenlive:file_hash">534906727adb5b61f3980925da73b872</property>
  <property name="force_reload">0</property>
  <property name="meta.media.width">1920</property>
  <property name="meta.media.height">1080</property>
  <property name="global_feed">1</property>
 </producer>
 <producer id="producer4" in="00:00:00.000" out="00:00:04.960">
  <property name="length">125</property>
  <property name="eof">pause</property>
  <property name="resource"/>
  <property name="progressive">1</property>
  <property name="aspect_ratio">1</property>
  <property name="seekable">1</property>
  <property name="mlt_service">kdenlivetitle</property>
  <property name="kdenlive:duration">125</property>
  <property name="kdenlive:clipname">1 innova base</property>
  <property name="xmldata">&lt;kdenlivetitle duration="125" LC_NUMERIC="C" width="1920" height="1080" out="124">
 &lt;item type="QGraphicsTextItem" z-index="0">
  &lt;position x="70" y="130">
   &lt;transform>1,0,0,0,1,0,0,0,1&lt;/transform>
  &lt;/position>
  &lt;content line-spacing="0" shadow="0;#64000000;3;3;3" font-underline="0" box-height="59" font-outline-color="0,0,0,255" font="DejaVu Sans" letter-spacing="0" font-pixel-size="50" font-italic="0" alignment="2" font-weight="75" font-outline="2.1" box-width="376.078" font-color="255,255,255,255">â¸ DX (Innova)&lt;/content>
 &lt;/item>
 &lt;startviewport rect="0,0,1920,1080"/>
 &lt;endviewport rect="0,0,1920,1080"/>
 &lt;background color="0,0,0,0"/>
&lt;/kdenlivetitle>
</property>
  <property name="kdenlive:folderid">7</property>
  <property name="kdenlive:id">10</property>
  <property name="kdenlive:file_hash">534906727adb5b61f3980925da73b872</property>
  <property name="force_reload">0</property>
  <property name="global_feed">1</property>
  <property name="meta.media.width">1920</property>
  <property name="meta.media.height">1080</property>
 </producer>
 <producer id="producer5" in="00:00:00.000" out="00:00:04.960">
  <property name="length">125</property>
  <property name="eof">pause</property>
  <property name="resource"/>
  <property name="progressive">1</property>
  <property name="aspect_ratio">1</property>
  <property name="seekable">1</property>
  <property name="mlt_service">kdenlivetitle</property>
  <property name="kdenlive:duration">125</property>
  <property name="kdenlive:clipname">2 discmania base</property>
  <property name="xmldata">&lt;kdenlivetitle duration="125" LC_NUMERIC="C" width="1920" height="1080" out="124">
 &lt;item type="QGraphicsTextItem" z-index="0">
  &lt;position x="70" y="130">
   &lt;transform>1,0,0,0,1,0,0,0,1&lt;/transform>
  &lt;/position>
  &lt;content line-spacing="0" shadow="0;#64000000;3;3;3" font-underline="0" box-height="116" font-outline-color="0,0,0,255" font="DejaVu Sans" letter-spacing="0" font-pixel-size="50" font-italic="0" alignment="1" font-weight="75" font-outline="2.1" box-width="577.531" font-color="255,255,255,255">â¸ DX (Innova)
â¸ D-Line (Discmania)&lt;/content>
 &lt;/item>
 &lt;startviewport rect="0,0,1920,1080"/>
 &lt;endviewport rect="0,0,1920,1080"/>
 &lt;background color="0,0,0,0"/>
&lt;/kdenlivetitle>
</property>
  <property name="kdenlive:folderid">7</property>
  <property name="kdenlive:id">11</property>
  <property name="kdenlive:file_hash">5a2693d0c967b1876de420793fbf7ec4</property>
  <property name="force_reload">0</property>
  <property name="global_feed">1</property>
  <property name="meta.media.width">1920</property>
  <property name="meta.media.height">1080</property>
 </producer>
 <producer id="producer6" in="00:00:00.000" out="00:00:06.160">
  <property name="length">155</property>
  <property name="eof">pause</property>
  <property name="resource"/>
  <property name="progressive">1</property>
  <property name="aspect_ratio">1</property>
  <property name="seekable">1</property>
  <property name="mlt_service">kdenlivetitle</property>
  <property name="kdenlive:duration">125</property>
  <property name="kdenlive:clipname">4 mvp base</property>
  <property name="xmldata">&lt;kdenlivetitle duration="125" LC_NUMERIC="C" width="1920" height="1080" out="124">
 &lt;item type="QGraphicsTextItem" z-index="0">
  &lt;position x="70" y="130">
   &lt;transform>1,0,0,0,1,0,0,0,1&lt;/transform>
  &lt;/position>
  &lt;content line-spacing="0" shadow="0;#64000000;3;3;3" font-underline="0" box-height="174" font-outline-color="0,0,0,255" font="DejaVu Sans" letter-spacing="0" font-pixel-size="50" font-italic="0" alignment="1" font-weight="75" font-outline="2.1" box-width="577.531" font-color="255,255,255,255">â¸ DX (Innova)
â¸ D-Line (Discmania)
â¸ Electron (MVP)&lt;/content>
 &lt;/item>
 &lt;startviewport rect="0,0,1920,1080"/>
 &lt;endviewport rect="0,0,1920,1080"/>
 &lt;background color="0,0,0,0"/>
&lt;/kdenlivetitle>
</property>
  <property name="kdenlive:folderid">7</property>
  <property name="kdenlive:id">12</property>
  <property name="kdenlive:file_hash">3cc6a46ec463e8ed27ef5e7713587f82</property>
  <property name="force_reload">0</property>
  <property name="global_feed">1</property>
  <property name="meta.media.width">1920</property>
  <property name="meta.media.height">1080</property>
 </producer>
 <producer id="producer7" in="00:00:00.000" out="00:00:05.240">
  <property name="length">132</property>
  <property name="eof">pause</property>
  <property name="resource"/>
  <property name="progressive">1</property>
  <property name="aspect_ratio">1</property>
  <property name="seekable">1</property>
  <property name="mlt_service">kdenlivetitle</property>
  <property name="kdenlive:duration">125</property>
  <property name="kdenlive:clipname">3 dynamic base</property>
  <property name="xmldata">&lt;kdenlivetitle duration="125" LC_NUMERIC="C" width="1920" height="1080" out="124">
 &lt;item type="QGraphicsTextItem" z-index="0">
  &lt;position x="70" y="130">
   &lt;transform>1,0,0,0,1,0,0,0,1&lt;/transform>
  &lt;/position>
  &lt;content line-spacing="0" shadow="0;#64000000;3;3;3" font-underline="0" box-height="232" font-outline-color="0,0,0,255" font="DejaVu Sans" letter-spacing="0" font-pixel-size="50" font-italic="0" alignment="1" font-weight="75" font-outline="2.1" box-width="577.531" font-color="255,255,255,255">â¸ DX (Innova)
â¸ D-Line (Discmania)
â¸ Electron (MVP)
â¸ Prime/Classic (DD)&lt;/content>
 &lt;/item>
 &lt;startviewport rect="0,0,1920,1080"/>
 &lt;endviewport rect="0,0,1920,1080"/>
 &lt;background color="0,0,0,0"/>
&lt;/kdenlivetitle>
</property>
  <property name="kdenlive:folderid">7</property>
  <property name="kdenlive:id">13</property>
  <property name="kdenlive:file_hash">a2116bccfce3902e528110f5f02f7289</property>
  <property name="force_reload">0</property>
  <property name="global_feed">1</property>
  <property name="meta.media.width">1920</property>
  <property name="meta.media.height">1080</property>
 </producer>
 <producer id="producer8" in="00:00:00.000" out="00:00:12.600">
  <property name="length">316</property>
  <property name="eof">pause</property>
  <property name="resource"/>
  <property name="progressive">1</property>
  <property name="aspect_ratio">1</property>
  <property name="seekable">1</property>
  <property name="mlt_service">kdenlivetitle</property>
  <property name="kdenlive:duration">125</property>
  <property name="kdenlive:clipname">5 etc base</property>
  <property name="xmldata">&lt;kdenlivetitle duration="125" LC_NUMERIC="C" width="1920" height="1080" out="124">
 &lt;item type="QGraphicsTextItem" z-index="0">
  &lt;position x="70" y="130">
   &lt;transform>1,0,0,0,1,0,0,0,1&lt;/transform>
  &lt;/position>
  &lt;content line-spacing="0" shadow="0;#64000000;3;3;3" font-underline="0" box-height="522" font-outline-color="0,0,0,255" font="DejaVu Sans" letter-spacing="0" font-pixel-size="50" font-italic="0" alignment="1" font-weight="75" font-outline="2.1" box-width="577.531" font-color="255,255,255,255">â¸ DX (Innova)
â¸ D-Line (Discmania)
â¸ Electron (MVP)
â¸ Prime/Classic (DD)
â¸ Origio/BT (WD)
â¸ Retro/Zero (L64)
â¸ Pro D (Discraft)
â¸ 200 (Prodigy)
â¸ â¦&lt;/content>
 &lt;/item>
 &lt;startviewport rect="0,0,1920,1080"/>
 &lt;endviewport rect="0,0,1920,1080"/>
 &lt;background color="0,0,0,0"/>
&lt;/kdenlivetitle>
</property>
  <property name="kdenlive:folderid">7</property>
  <property name="kdenlive:id">14</property>
  <property name="kdenlive:file_hash">d5f3ca449504be9bb6b2ce6ba7ff01a5</property>
  <property name="force_reload">0</property>
  <property name="global_feed">1</property>
  <property name="meta.media.width">1920</property>
  <property name="meta.media.height">1080</property>
 </producer>
 <producer id="producer9" in="00:00:00.000" out="00:00:41.520">
  <property name="length">1039</property>
  <property name="eof">pause</property>
  <property name="resource"/>
  <property name="progressive">1</property>
  <property name="aspect_ratio">1</property>
  <property name="seekable">1</property>
  <property name="mlt_service">kdenlivetitle</property>
  <property name="kdenlive:duration">125</property>
  <property name="kdenlive:clipname">PREMIUM</property>
  <property name="xmldata">&lt;kdenlivetitle duration="125" LC_NUMERIC="C" width="1920" height="1080" out="124">
 &lt;item type="QGraphicsTextItem" z-index="0">
  &lt;position x="1080" y="40">
   &lt;transform>1,0,0,0,1,0,0,0,1&lt;/transform>
  &lt;/position>
  &lt;content line-spacing="0" shadow="0;#64000000;3;3;3" font-underline="0" box-height="88" font-outline-color="0,0,0,255" font="DejaVu Sans" letter-spacing="0" font-pixel-size="75" font-italic="0" alignment="2" font-weight="75" font-outline="2.1" box-width="811.047" font-color="255,255,255,255">PlÃ¡sticos premium:&lt;/content>
 &lt;/item>
 &lt;startviewport rect="0,0,1920,1080"/>
 &lt;endviewport rect="0,0,1920,1080"/>
 &lt;background color="0,0,0,0"/>
&lt;/kdenlivetitle>
</property>
  <property name="kdenlive:folderid">8</property>
  <property name="kdenlive:id">15</property>
  <property name="kdenlive:file_hash">5a7678002e0bf1a7acba95d712eb85c8</property>
  <property name="force_reload">0</property>
  <property name="global_feed">1</property>
  <property name="meta.media.width">1920</property>
  <property name="meta.media.height">1080</property>
 </producer>
 <producer id="producer10" in="00:00:00.000" out="00:00:04.960">
  <property name="length">125</property>
  <property name="eof">pause</property>
  <property name="resource"/>
  <property name="progressive">1</property>
  <property name="aspect_ratio">1</property>
  <property name="seekable">1</property>
  <property name="mlt_service">kdenlivetitle</property>
  <property name="kdenlive:duration">125</property>
  <property name="kdenlive:clipname">1 innova premium</property>
  <property name="xmldata">&lt;kdenlivetitle duration="125" LC_NUMERIC="C" width="1920" height="1080" out="124">
 &lt;item type="QGraphicsTextItem" z-index="0">
  &lt;position x="1200" y="130">
   &lt;transform>1,0,0,0,1,0,0,0,1&lt;/transform>
  &lt;/position>
  &lt;content line-spacing="0" shadow="0;#64000000;3;3;3" font-underline="0" box-height="59" font-outline-color="0,0,0,255" font="DejaVu Sans" letter-spacing="0" font-pixel-size="50" font-italic="0" alignment="2" font-weight="75" font-outline="2.1" box-width="713.516" font-color="255,255,255,255">â¸ Champion/Star (Innova)&lt;/content>
 &lt;/item>
 &lt;startviewport rect="0,0,1920,1080"/>
 &lt;endviewport rect="0,0,1920,1080"/>
 &lt;background color="0,0,0,0"/>
&lt;/kdenlivetitle>
</property>
  <property name="kdenlive:folderid">8</property>
  <property name="kdenlive:id">16</property>
  <property name="kdenlive:file_hash">5a2693d0c967b1876de420793fbf7ec4</property>
  <property name="force_reload">0</property>
  <property name="global_feed">1</property>
  <property name="meta.media.width">1920</property>
  <property name="meta.media.height">1080</property>
 </producer>
 <producer id="producer11" in="00:00:00.000" out="00:00:04.960">
  <property name="length">125</property>
  <property name="eof">pause</property>
  <property name="resource"/>
  <property name="progressive">1</property>
  <property name="aspect_ratio">1</property>
  <property name="seekable">1</property>
  <property name="mlt_service">kdenlivetitle</property>
  <property name="kdenlive:duration">125</property>
  <property name="kdenlive:clipname">2 discmania premium</property>
  <property name="xmldata">&lt;kdenlivetitle duration="125" LC_NUMERIC="C" width="1920" height="1080" out="124">
 &lt;item type="QGraphicsTextItem" z-index="0">
  &lt;position x="1200" y="130">
   &lt;transform>1,0,0,0,1,0,0,0,1&lt;/transform>
  &lt;/position>
  &lt;content line-spacing="0" shadow="0;#64000000;3;3;3" font-underline="0" box-height="116" font-outline-color="0,0,0,255" font="DejaVu Sans" letter-spacing="0" font-pixel-size="50" font-italic="0" alignment="1" font-weight="75" font-outline="2.1" box-width="713.516" font-color="255,255,255,255">â¸ Champion/Star (Innova)
â¸ C/S-Line (Discmania)&lt;/content>
 &lt;/item>
 &lt;startviewport rect="0,0,1920,1080"/>
 &lt;endviewport rect="0,0,1920,1080"/>
 &lt;background color="0,0,0,0"/>
&lt;/kdenlivetitle>
</property>
  <property name="kdenlive:folderid">8</property>
  <property name="kdenlive:id">17</property>
  <property name="kdenlive:file_hash">0d599c5d5e2d52abea0f156438849241</property>
  <property name="force_reload">0</property>
  <property name="global_feed">1</property>
  <property name="meta.media.width">1920</property>
  <property name="meta.media.height">1080</property>
 </producer>
 <producer id="producer12" in="00:00:00.000" out="00:00:04.960">
  <property name="length">125</property>
  <property name="eof">pause</property>
  <property name="resource"/>
  <property name="progressive">1</property>
  <property name="aspect_ratio">1</property>
  <property name="seekable">1</property>
  <property name="mlt_service">kdenlivetitle</property>
  <property name="kdenlive:duration">125</property>
  <property name="kdenlive:clipname">3 latitude 64 premium</property>
  <property name="xmldata">&lt;kdenlivetitle duration="125" LC_NUMERIC="C" width="1920" height="1080" out="124">
 &lt;item type="QGraphicsTextItem" z-index="0">
  &lt;position x="1200" y="130">
   &lt;transform>1,0,0,0,1,0,0,0,1&lt;/transform>
  &lt;/position>
  &lt;content line-spacing="0" shadow="0;#64000000;3;3;3" font-underline="0" box-height="348" font-outline-color="0,0,0,255" font="DejaVu Sans" letter-spacing="0" font-pixel-size="50" font-italic="0" alignment="1" font-weight="75" font-outline="2.1" box-width="713.516" font-color="255,255,255,255">â¸ Champion/Star (Innova)
â¸ C/S-Line (Discmania)



â¸ Opto/Gold (Latitude 64)&lt;/content>
 &lt;/item>
 &lt;startviewport rect="0,0,1920,1080"/>
 &lt;endviewport rect="0,0,1920,1080"/>
 &lt;background color="0,0,0,0"/>
&lt;/kdenlivetitle>
</property>
  <property name="kdenlive:folderid">8</property>
  <property name="kdenlive:id">18</property>
  <property name="kdenlive:file_hash">6153c8d9d720722632ab20d627352707</property>
  <property name="force_reload">0</property>
  <property name="global_feed">1</property>
  <property name="meta.media.width">1920</property>
  <property name="meta.media.height">1080</property>
 </producer>
 <producer id="producer13" in="00:00:00.000" out="00:00:05.160">
  <property name="length">130</property>
  <property name="eof">pause</property>
  <property name="resource"/>
  <property name="progressive">1</property>
  <property name="aspect_ratio">1</property>
  <property name="seekable">1</property>
  <property name="mlt_service">kdenlivetitle</property>
  <property name="kdenlive:duration">125</property>
  <property name="kdenlive:clipname">4 mvp premium</property>
  <property name="xmldata">&lt;kdenlivetitle duration="125" LC_NUMERIC="C" width="1920" height="1080" out="124">
 &lt;item type="QGraphicsTextItem" z-index="0">
  &lt;position x="1200" y="130">
   &lt;transform>1,0,0,0,1,0,0,0,1&lt;/transform>
  &lt;/position>
  &lt;content line-spacing="0" shadow="0;#64000000;3;3;3" font-underline="0" box-height="406" font-outline-color="0,0,0,255" font="DejaVu Sans" letter-spacing="0" font-pixel-size="50" font-italic="0" alignment="1" font-weight="75" font-outline="2.1" box-width="713.516" font-color="255,255,255,255">â¸ Champion/Star (Innova)
â¸ C/S-Line (Discmania)
â¸ Proton/Neutron (MVP)


â¸ Opto/Gold (Latitude 64)
&lt;/content>
 &lt;/item>
 &lt;startviewport rect="0,0,1920,1080"/>
 &lt;endviewport rect="0,0,1920,1080"/>
 &lt;background color="0,0,0,0"/>
&lt;/kdenlivetitle>
</property>
  <property name="kdenlive:folderid">8</property>
  <property name="kdenlive:id">19</property>
  <property name="kdenlive:file_hash">97d114b858c2b0e1ef062d98e7a228d1</property>
  <property name="force_reload">0</property>
  <property name="global_feed">1</property>
  <property name="meta.media.width">1920</property>
  <property name="meta.media.height">1080</property>
 </producer>
 <producer id="producer14" in="00:00:00.000" out="00:00:05.160">
  <property name="length">130</property>
  <property name="eof">pause</property>
  <property name="resource"/>
  <property name="progressive">1</property>
  <property name="aspect_ratio">1</property>
  <property name="seekable">1</property>
  <property name="mlt_service">kdenlivetitle</property>
  <property name="kdenlive:duration">125</property>
  <property name="kdenlive:clipname">5 dynamic premium</property>
  <property name="xmldata">&lt;kdenlivetitle duration="125" LC_NUMERIC="C" width="1920" height="1080" out="124">
 &lt;item type="QGraphicsTextItem" z-index="0">
  &lt;position x="1200" y="130">
   &lt;transform>1,0,0,0,1,0,0,0,1&lt;/transform>
  &lt;/position>
  &lt;content line-spacing="0" shadow="0;#64000000;3;3;3" font-underline="0" box-height="406" font-outline-color="0,0,0,255" font="DejaVu Sans" letter-spacing="0" font-pixel-size="50" font-italic="0" alignment="1" font-weight="75" font-outline="2.1" box-width="713.516" font-color="255,255,255,255">â¸ Champion/Star (Innova)
â¸ C/S-Line (Discmania)
â¸ Proton/Neutron (MVP)
â¸ Lucid/Fuzion (DD)

â¸ Opto/Gold (Latitude 64)
&lt;/content>
 &lt;/item>
 &lt;startviewport rect="0,0,1920,1080"/>
 &lt;endviewport rect="0,0,1920,1080"/>
 &lt;background color="0,0,0,0"/>
&lt;/kdenlivetitle>
</property>
  <property name="kdenlive:folderid">8</property>
  <property name="kdenlive:id">20</property>
  <property name="kdenlive:file_hash">78f785a62d22feedc6ad968cffa75fa7</property>
  <property name="force_reload">0</property>
  <property name="global_feed">1</property>
  <property name="meta.media.width">1920</property>
  <property name="meta.media.height">1080</property>
 </producer>
 <producer id="producer15" in="00:00:00.000" out="00:00:32.520">
  <property name="length">814</property>
  <property name="eof">pause</property>
  <property name="resource"/>
  <property name="progressive">1</property>
  <property name="aspect_ratio">1</property>
  <property name="seekable">1</property>
  <property name="mlt_service">kdenlivetitle</property>
  <property name="kdenlive:duration">125</property>
  <property name="kdenlive:clipname">6 etc premium</property>
  <property name="xmldata">&lt;kdenlivetitle duration="125" LC_NUMERIC="C" width="1920" height="1080" out="124">
 &lt;item type="QGraphicsTextItem" z-index="0">
  &lt;position x="1200" y="130">
   &lt;transform>1,0,0,0,1,0,0,0,1&lt;/transform>
  &lt;/position>
  &lt;content line-spacing="0" shadow="0;#64000000;3;3;3" font-underline="0" box-height="522" font-outline-color="0,0,0,255" font="DejaVu Sans" letter-spacing="0" font-pixel-size="50" font-italic="0" alignment="1" font-weight="75" font-outline="2.1" box-width="713.516" font-color="255,255,255,255">â¸ Champion/Star (Innova)
â¸ C/S-Line (Discmania)
â¸ Proton/Neutron (MVP)
â¸ Lucid/Fuzion (DD)
â¸ VIP/Tournament (WD)
â¸ Opto/Gold (Latitude 64)
â¸ Elite Z/ESP (Discraft)
â¸ 400â¦750 (Prodigy)
â¸ â¦&lt;/content>
 &lt;/item>
 &lt;startviewport rect="0,0,1920,1080"/>
 &lt;endviewport rect="0,0,1920,1080"/>
 &lt;background color="0,0,0,0"/>
&lt;/kdenlivetitle>
</property>
  <property name="kdenlive:folderid">8</property>
  <property name="kdenlive:id">21</property>
  <property name="kdenlive:file_hash">af564a7c99ce2aea71bf76101359d322</property>
  <property name="force_reload">0</property>
  <property name="global_feed">1</property>
  <property name="meta.media.width">1920</property>
  <property name="meta.media.height">1080</property>
 </producer>
 <playlist id="main_bin">
  <property name="kdenlive:folder.-1.4">titles</property>
  <property name="kdenlive:folder.4.7">base</property>
  <property name="kdenlive:folder.4.8">premium</property>
  <property name="kdenlive:docproperties.activeTrack">3</property>
  <property name="kdenlive:docproperties.audioChannels">2</property>
  <property name="kdenlive:docproperties.audioTarget">-1</property>
  <property name="kdenlive:docproperties.disablepreview">0</property>
  <property name="kdenlive:docproperties.documentid">1612901246721</property>
  <property name="kdenlive:docproperties.enableTimelineZone">0</property>
  <property name="kdenlive:docproperties.enableexternalproxy">0</property>
  <property name="kdenlive:docproperties.enableproxy">0</property>
  <property name="kdenlive:docproperties.externalproxyparams"/>
  <property name="kdenlive:docproperties.generateimageproxy">0</property>
  <property name="kdenlive:docproperties.generateproxy">0</property>
  <property name="kdenlive:docproperties.groups">[
    {
        "children": [
            {
                "data": "0:431",
                "leaf": "clip",
                "type": "Leaf"
            },
            {
                "data": "3:431",
                "leaf": "clip",
                "type": "Leaf"
            }
        ],
        "type": "AVSplit"
    },
    {
        "children": [
            {
                "data": "1:5491",
                "leaf": "clip",
                "type": "Leaf"
            },
            {
                "data": "2:5491",
                "leaf": "clip",
                "type": "Leaf"
            }
        ],
        "type": "AVSplit"
    },
    {
        "children": [
            {
                "data": "1:4339",
                "leaf": "clip",
                "type": "Leaf"
            },
            {
                "data": "2:4339",
                "leaf": "clip",
                "type": "Leaf"
            }
        ],
        "type": "AVSplit"
    },
    {
        "children": [
            {
                "data": "1:4276",
                "leaf": "clip",
                "type": "Leaf"
            },
            {
                "data": "2:4276",
                "leaf": "clip",
                "type": "Leaf"
            }
        ],
        "type": "AVSplit"
    },
    {
        "children": [
            {
                "data": "2:3940",
                "leaf": "clip",
                "type": "Leaf"
            },
            {
                "data": "1:3940",
                "leaf": "clip",
                "type": "Leaf"
            }
        ],
        "type": "AVSplit"
    },
    {
        "children": [
            {
                "data": "1:485",
                "leaf": "clip",
                "type": "Leaf"
            },
            {
                "data": "2:485",
                "leaf": "clip",
                "type": "Leaf"
            }
        ],
        "type": "AVSplit"
    },
    {
        "children": [
            {
                "data": "1:826",
                "leaf": "clip",
                "type": "Leaf"
            },
            {
                "data": "2:826",
                "leaf": "clip",
                "type": "Leaf"
            }
        ],
        "type": "AVSplit"
    },
    {
        "children": [
            {
                "data": "0:299",
                "leaf": "clip",
                "type": "Leaf"
            },
            {
                "data": "3:299",
                "leaf": "clip",
                "type": "Leaf"
            }
        ],
        "type": "AVSplit"
    },
    {
        "children": [
            {
                "data": "2:1711",
                "leaf": "clip",
                "type": "Leaf"
            },
            {
                "data": "1:1711",
                "leaf": "clip",
                "type": "Leaf"
            }
        ],
        "type": "AVSplit"
    },
    {
        "children": [
            {
                "data": "1:309",
                "leaf": "clip",
                "type": "Leaf"
            },
            {
                "data": "2:309",
                "leaf": "clip",
                "type": "Leaf"
            }
        ],
        "type": "AVSplit"
    },
    {
        "children": [
            {
                "data": "1:4482",
                "leaf": "clip",
                "type": "Leaf"
            },
            {
                "data": "2:4482",
                "leaf": "clip",
                "type": "Leaf"
            }
        ],
        "type": "AVSplit"
    },
    {
        "children": [
            {
                "data": "1:5902",
                "leaf": "clip",
                "type": "Leaf"
            },
            {
                "data": "2:5902",
                "leaf": "clip",
                "type": "Leaf"
            }
        ],
        "type": "AVSplit"
    },
    {
        "children": [
            {
                "data": "1:2663",
                "leaf": "clip",
                "type": "Leaf"
            },
            {
                "data": "2:2663",
                "leaf": "clip",
                "type": "Leaf"
            }
        ],
        "type": "AVSplit"
    },
    {
        "children": [
            {
                "data": "1:3841",
                "leaf": "clip",
                "type": "Leaf"
            },
            {
                "data": "2:3841",
                "leaf": "clip",
                "type": "Leaf"
            }
        ],
        "type": "AVSplit"
    },
    {
        "children": [
            {
                "data": "1:616",
                "leaf": "clip",
                "type": "Leaf"
            },
            {
                "data": "2:616",
                "leaf": "clip",
                "type": "Leaf"
            }
        ],
        "type": "AVSplit"
    },
    {
        "children": [
            {
                "data": "1:1360",
                "leaf": "clip",
                "type": "Leaf"
            },
            {
                "data": "2:1360",
                "leaf": "clip",
                "type": "Leaf"
            }
        ],
        "type": "AVSplit"
    },
    {
        "children": [
            {
                "data": "1:0",
                "leaf": "clip",
                "type": "Leaf"
            },
            {
                "data": "2:0",
                "leaf": "clip",
                "type": "Leaf"
            }
        ],
        "type": "AVSplit"
    },
    {
        "children": [
            {
                "data": "1:2956",
                "leaf": "clip",
                "type": "Leaf"
            },
            {
                "data": "2:2956",
                "leaf": "clip",
                "type": "Leaf"
            }
        ],
        "type": "AVSplit"
    },
    {
        "children": [
            {
                "data": "1:441",
                "leaf": "clip",
                "type": "Leaf"
            },
            {
                "data": "2:441",
                "leaf": "clip",
                "type": "Leaf"
            }
        ],
        "type": "AVSplit"
    },
    {
        "children": [
            {
                "data": "2:5592",
                "leaf": "clip",
                "type": "Leaf"
            },
            {
                "data": "1:5592",
                "leaf": "clip",
                "type": "Leaf"
            }
        ],
        "type": "AVSplit"
    }
]
</property>
  <property name="kdenlive:docproperties.kdenliveversion">20.12.2</property>
  <property name="kdenlive:docproperties.position">6085</property>
  <property name="kdenlive:docproperties.previewextension"/>
  <property name="kdenlive:docproperties.previewparameters"/>
  <property name="kdenlive:docproperties.profile">atsc_1080p_25</property>
  <property name="kdenlive:docproperties.proxyextension"/>
  <property name="kdenlive:docproperties.proxyimageminsize">2000</property>
  <property name="kdenlive:docproperties.proxyimagesize">800</property>
  <property name="kdenlive:docproperties.proxyminsize">1000</property>
  <property name="kdenlive:docproperties.proxyparams"/>
  <property name="kdenlive:docproperties.renderaudioquality">192</property>
  <property name="kdenlive:docproperties.rendercategory">Ultra-High Definition (4K)</property>
  <property name="kdenlive:docproperties.renderendguide">-1</property>
  <property name="kdenlive:docproperties.renderexportaudio">0</property>
  <property name="kdenlive:docproperties.renderfield">0</property>
  <property name="kdenlive:docproperties.renderguide">0</property>
  <property name="kdenlive:docproperties.renderplay">0</property>
  <property name="kdenlive:docproperties.renderprofile">MP4-H265 (HEVC)</property>
  <property name="kdenlive:docproperties.renderquality">15</property>
  <property name="kdenlive:docproperties.renderratio">1</property>
  <property name="kdenlive:docproperties.renderrescale">0</property>
  <property name="kdenlive:docproperties.renderrescaleheight">540</property>
  <property name="kdenlive:docproperties.renderrescalewidth">960</property>
  <property name="kdenlive:docproperties.renderscanning">0</property>
  <property name="kdenlive:docproperties.renderspeed">2</property>
  <property name="kdenlive:docproperties.renderstartguide">-1</property>
  <property name="kdenlive:docproperties.rendertcoverlay">0</property>
  <property name="kdenlive:docproperties.rendertctype">0</property>
  <property name="kdenlive:docproperties.rendertwopass">0</property>
  <property name="kdenlive:docproperties.renderurl">plasticos.mp4</property>
  <property name="kdenlive:docproperties.renderzone">0</property>
  <property name="kdenlive:docproperties.scrollPos">9986</property>
  <property name="kdenlive:docproperties.seekOffset">30000</property>
  <property name="kdenlive:docproperties.version">1</property>
  <property name="kdenlive:docproperties.verticalzoom">1</property>
  <property name="kdenlive:docproperties.videoTarget">-1</property>
  <property name="kdenlive:docproperties.zonein">0</property>
  <property name="kdenlive:docproperties.zoneout">75</property>
  <property name="kdenlive:docproperties.zoom">6</property>
  <property name="kdenlive:expandedFolders">4;7;8</property>
  <property name="kdenlive:documentnotes"/>
  <property name="xml_retain">1</property>
  <entry producer="producer0" in="00:00:00.000" out="00:09:13.200"/>
  <entry producer="producer1" in="00:00:00.000" out="00:00:05.960"/>
  <entry producer="tractor0" in="00:00:00.000" out="00:00:04.000"/>
  <entry producer="producer2" in="00:00:00.000" out="00:00:05.000"/>
  <entry producer="producer3" in="00:00:00.000" out="00:00:22.520"/>
  <entry producer="producer4" in="00:00:00.000" out="00:00:04.960"/>
  <entry producer="producer5" in="00:00:00.000" out="00:00:04.960"/>
  <entry producer="producer6" in="00:00:00.000" out="00:00:06.160"/>
  <entry producer="producer7" in="00:00:00.000" out="00:00:05.240"/>
  <entry producer="producer8" in="00:00:00.000" out="00:00:12.600"/>
  <entry producer="producer9" in="00:00:00.000" out="00:00:41.520"/>
  <entry producer="producer10" in="00:00:00.000" out="00:00:04.960"/>
  <entry producer="producer11" in="00:00:00.000" out="00:00:04.960"/>
  <entry producer="producer12" in="00:00:00.000" out="00:00:04.960"/>
  <entry producer="producer13" in="00:00:00.000" out="00:00:05.160"/>
  <entry producer="producer14" in="00:00:00.000" out="00:00:05.160"/>
  <entry producer="producer15" in="00:00:00.000" out="00:00:32.520"/>
 </playlist>
 <producer id="black_track" in="00:00:00.000" out="00:24:08.720">
  <property name="length">2147483647</property>
  <property name="eof">continue</property>
  <property name="resource">black</property>
  <property name="aspect_ratio">1</property>
  <property name="mlt_service">color</property>
  <property name="mlt_image_format">rgb24a</property>
  <property name="set.test_audio">0</property>
 </producer>
 <producer title="Anonymous Submission" id="producer16" in="00:00:00.000" out="00:00:04.000">
  <property name="length">125</property>
  <property name="eof">pause</property>
  <property name="resource">/opt/vlog/graficas/white_noise_2.mlt</property>
  <property name="mlt_service">xml</property>
  <property name="global_feed">1</property>
  <property name="xml">was here</property>
  <property name="seekable">1</property>
  <property name="kdenlive:clipname"/>
  <property name="kdenlive:folderid">4</property>
  <property name="kdenlive:id">5</property>
  <property name="kdenlive:file_size">811</property>
  <property name="kdenlive:file_hash">a19107eb9b6fdb81044bbb74253f14b0</property>
  <property name="set.test_audio">0</property>
  <property name="set.test_image">1</property>
  <property name="audio_index">0</property>
 </producer>
 <playlist id="playlist0">
  <property name="kdenlive:audio_track">1</property>
  <blank length="00:00:11.960"/>
  <entry producer="producer16" in="00:00:00.000" out="00:00:00.360">
   <property name="kdenlive:id">5</property>
   <filter id="filter0">
    <property name="window">75</property>
    <property name="max_gain">20dB</property>
    <property name="level">00:00:00.000=-15</property>
    <property name="mlt_service">volume</property>
    <property name="kdenlive_id">volume</property>
    <property name="kdenlive:collapsed">0</property>
   </filter>
  </entry>
  <blank length="00:00:04.880"/>
  <entry producer="producer16" in="00:00:00.000" out="00:00:00.360">
   <property name="kdenlive:id">5</property>
   <filter id="filter1">
    <property name="window">75</property>
    <property name="max_gain">20dB</property>
    <property name="level">00:00:00.000=-15</property>
    <property name="mlt_service">volume</property>
    <property name="kdenlive_id">volume</property>
   </filter>
  </entry>
 </playlist>
 <playlist id="playlist1"/>
 <tractor id="tractor1" in="00:00:00.000" out="00:00:17.600">
  <property name="kdenlive:audio_track">1</property>
  <property name="kdenlive:trackheight">65</property>
  <property name="kdenlive:timeline_active">1</property>
  <property name="kdenlive:collapsed">0</property>
  <property name="kdenlive:thumbs_format"/>
  <property name="kdenlive:audio_rec"/>
  <track hide="video" producer="playlist0"/>
  <track hide="video" producer="playlist1"/>
  <filter id="filter2">
   <property name="window">75</property>
   <property name="max_gain">20dB</property>
   <property name="mlt_service">volume</property>
   <property name="internal_added">237</property>
   <property name="disable">1</property>
  </filter>
  <filter id="filter3">
   <property name="channel">-1</property>
   <property name="mlt_service">panner</property>
   <property name="internal_added">237</property>
   <property name="start">0.5</property>
   <property name="disable">1</property>
  </filter>
  <filter id="filter4">
   <property name="iec_scale">0</property>
   <property name="mlt_service">audiolevel</property>
   <property name="disable">1</property>
  </filter>
 </tractor>
 <producer id="producer17" in="00:00:00.000" out="00:09:13.200">
  <property name="length">13831</property>
  <property name="eof">pause</property>
  <property name="resource">videos/PXL_20210209_195049381.mp4</property>
  <property name="audio_index">0</property>
  <property name="video_index">1</property>
  <property name="mute_on_pause">0</property>
  <property name="mlt_service">avformat-novalidate</property>
  <property name="seekable">1</property>
  <property name="aspect_ratio">1</property>
  <property name="kdenlive:clipname"/>
  <property name="kdenlive:folderid">-1</property>
  <property name="kdenlive:id">2</property>
  <property name="kdenlive:file_size">1534868171</property>
  <property name="kdenlive:file_hash">79b5296d3e5f03df9db0210a7f522090</property>
  <property name="kdenlive:audio_max">2</property>
  <property name="global_feed">1</property>
  <property name="xml">was here</property>
  <property name="meta.media.nb_streams">2</property>
  <property name="meta.media.0.stream.type">audio</property>
  <property name="meta.media.0.codec.sample_fmt">fltp</property>
  <property name="meta.media.0.codec.sample_rate">48000</property>
  <property name="meta.media.0.codec.channels">2</property>
  <property name="meta.media.0.codec.name">aac</property>
  <property name="meta.media.0.codec.long_name">AAC (Advanced Audio Coding)</property>
  <property name="meta.media.0.codec.bit_rate">191986</property>
  <property name="meta.attr.0.stream.creation_time.markup">2021-02-09T20:00:03.000000Z</property>
  <property name="meta.attr.0.stream.language.markup">eng</property>
  <property name="meta.attr.0.stream.handler_name.markup">SoundHandle</property>
  <property name="meta.media.1.stream.type">video</property>
  <property name="meta.media.1.stream.frame_rate">30.012</property>
  <property name="meta.media.1.stream.sample_aspect_ratio">1</property>
  <property name="meta.media.1.codec.width">1920</property>
  <property name="meta.media.1.codec.height">1080</property>
  <property name="meta.media.1.codec.rotate">0</property>
  <property name="meta.media.1.codec.frame_rate">90000</property>
  <property name="meta.media.1.codec.pix_fmt">yuvj420p</property>
  <property name="meta.media.1.codec.sample_aspect_ratio">0</property>
  <property name="meta.media.1.codec.colorspace">601</property>
  <property name="meta.media.1.codec.color_trc">6</property>
  <property name="meta.media.1.codec.name">h264</property>
  <property name="meta.media.1.codec.long_name">H.264 / AVC / MPEG-4 AVC / MPEG-4 part 10</property>
  <property name="meta.media.1.codec.bit_rate">21998771</property>
  <property name="meta.attr.1.stream.creation_time.markup">2021-02-09T20:00:03.000000Z</property>
  <property name="meta.attr.1.stream.language.markup">eng</property>
  <property name="meta.attr.1.stream.handler_name.markup">VideoHandle</property>
  <property name="meta.attr.major_brand.markup">mp42</property>
  <property name="meta.attr.minor_version.markup">0</property>
  <property name="meta.attr.compatible_brands.markup">isommp42</property>
  <property name="meta.attr.creation_time.markup">2021-02-09T20:00:03.000000Z</property>
  <property name="meta.attr.location.markup">+51.4483+7.0266/</property>
  <property name="meta.attr.location-eng.markup">+51.4483+7.0266/</property>
  <property name="meta.attr.com.android.capture.fps.markup">30.000000</property>
  <property name="meta.media.sample_aspect_num">1</property>
  <property name="meta.media.sample_aspect_den">1</property>
  <property name="meta.media.frame_rate_num">59774400</property>
  <property name="meta.media.frame_rate_den">1991681</property>
  <property name="meta.media.colorspace">601</property>
  <property name="meta.media.color_trc">6</property>
  <property name="meta.media.width">1920</property>
  <property name="meta.media.height">1080</property>
  <property name="meta.media.color_range">full</property>
  <property name="meta.media.variable_frame_rate">1</property>
  <property name="meta.media.top_field_first">0</property>
  <property name="meta.media.progressive">1</property>
  <property name="set.test_audio">0</property>
  <property name="set.test_image">1</property>
 </producer>
 <playlist id="playlist2">
  <property name="kdenlive:audio_track">1</property>
  <entry producer="producer17" in="00:00:23.720" out="00:00:35.640">
   <property name="kdenlive:id">2</property>
  </entry>
  <blank length="00:00:00.400"/>
  <entry producer="producer17" in="00:00:38.360" out="00:00:43.200">
   <property name="kdenlive:id">2</property>
  </entry>
  <blank length="00:00:00.400"/>
  <entry producer="producer17" in="00:00:44.160" out="00:00:45.880">
   <property name="kdenlive:id">2</property>
  </entry>
  <entry producer="producer17" in="00:01:54.040" out="00:01:59.240">
   <property name="kdenlive:id">2</property>
  </entry>
  <entry producer="producer17" in="00:02:52.720" out="00:03:01.080">
   <property name="kdenlive:id">2</property>
  </entry>
  <entry producer="producer17" in="00:03:05.640" out="00:03:26.960">
   <property name="kdenlive:id">2</property>
  </entry>
  <entry producer="producer17" in="00:03:37.960" out="00:03:51.960">
   <property name="kdenlive:id">2</property>
  </entry>
  <entry producer="producer17" in="00:03:54.520" out="00:04:32.560">
   <property name="kdenlive:id">2</property>
  </entry>
  <entry producer="producer17" in="00:04:53.240" out="00:05:04.920">
   <property name="kdenlive:id">2</property>
  </entry>
  <entry producer="producer17" in="00:05:26.160" out="00:06:01.520">
   <property name="kdenlive:id">2</property>
  </entry>
  <entry producer="producer17" in="00:06:05.560" out="00:06:09.480">
   <property name="kdenlive:id">2</property>
  </entry>
  <entry producer="producer17" in="00:06:14.080" out="00:06:27.480">
   <property name="kdenlive:id">2</property>
  </entry>
  <entry producer="producer17" in="00:06:27.520" out="00:06:30.000">
   <property name="kdenlive:id">2</property>
  </entry>
  <entry producer="producer17" in="00:06:37.480" out="00:06:43.160">
   <property name="kdenlive:id">2</property>
  </entry>
  <entry producer="producer17" in="00:06:49.040" out="00:07:29.360">
   <property name="kdenlive:id">2</property>
  </entry>
  <entry producer="producer17" in="00:07:29.400" out="00:07:33.400">
   <property name="kdenlive:id">2</property>
  </entry>
  <entry producer="producer17" in="00:08:03.480" out="00:08:15.840">
   <property name="kdenlive:id">2</property>
  </entry>
  <entry producer="producer17" in="00:08:16.320" out="00:08:22.920">
   <property name="kdenlive:id">2</property>
  </entry>
 </playlist>
 <playlist id="playlist3"/>
 <tractor id="tractor2" in="00:00:00.000" out="00:04:02.680">
  <property name="kdenlive:audio_track">1</property>
  <property name="kdenlive:trackheight">60</property>
  <property name="kdenlive:timeline_active">1</property>
  <property name="kdenlive:collapsed">0</property>
  <property name="kdenlive:thumbs_format"/>
  <property name="kdenlive:audio_rec"/>
  <track hide="video" producer="playlist2"/>
  <track hide="video" producer="playlist3"/>
  <filter id="filter6">
   <property name="window">75</property>
   <property name="max_gain">20dB</property>
   <property name="mlt_service">volume</property>
   <property name="internal_added">237</property>
   <property name="disable">1</property>
  </filter>
  <filter id="filter7">
   <property name="channel">-1</property>
   <property name="mlt_service">panner</property>
   <property name="internal_added">237</property>
   <property name="start">0.5</property>
   <property name="disable">1</property>
  </filter>
  <filter id="filter8" out="00:04:02.720">
   <property name="window">75</property>
   <property name="max_gain">20dB</property>
   <property name="level">00:00:23.720=15</property>
   <property name="mlt_service">volume</property>
   <property name="kdenlive_id">volume</property>
   <property name="kdenlive:collapsed">0</property>
  </filter>
  <filter id="filter5">
   <property name="iec_scale">0</property>
   <property name="mlt_service">audiolevel</property>
   <property name="disable">1</property>
  </filter>
 </tractor>
 <producer id="producer18" in="00:00:00.000" out="00:09:13.200">
  <property name="length">13831</property>
  <property name="eof">pause</property>
  <property name="resource">videos/PXL_20210209_195049381.mp4</property>
  <property name="audio_index">0</property>
  <property name="video_index">1</property>
  <property name="mute_on_pause">0</property>
  <property name="mlt_service">avformat-novalidate</property>
  <property name="seekable">1</property>
  <property name="aspect_ratio">1</property>
  <property name="kdenlive:clipname"/>
  <property name="kdenlive:folderid">-1</property>
  <property name="kdenlive:id">2</property>
  <property name="kdenlive:file_size">1534868171</property>
  <property name="kdenlive:file_hash">79b5296d3e5f03df9db0210a7f522090</property>
  <property name="kdenlive:audio_max">2</property>
  <property name="global_feed">1</property>
  <property name="xml">was here</property>
  <property name="meta.media.nb_streams">2</property>
  <property name="meta.media.0.stream.type">audio</property>
  <property name="meta.media.0.codec.sample_fmt">fltp</property>
  <property name="meta.media.0.codec.sample_rate">48000</property>
  <property name="meta.media.0.codec.channels">2</property>
  <property name="meta.media.0.codec.name">aac</property>
  <property name="meta.media.0.codec.long_name">AAC (Advanced Audio Coding)</property>
  <property name="meta.media.0.codec.bit_rate">191986</property>
  <property name="meta.attr.0.stream.creation_time.markup">2021-02-09T20:00:03.000000Z</property>
  <property name="meta.attr.0.stream.language.markup">eng</property>
  <property name="meta.attr.0.stream.handler_name.markup">SoundHandle</property>
  <property name="meta.media.1.stream.type">video</property>
  <property name="meta.media.1.stream.frame_rate">30.012</property>
  <property name="meta.media.1.stream.sample_aspect_ratio">1</property>
  <property name="meta.media.1.codec.width">1920</property>
  <property name="meta.media.1.codec.height">1080</property>
  <property name="meta.media.1.codec.rotate">0</property>
  <property name="meta.media.1.codec.frame_rate">90000</property>
  <property name="meta.media.1.codec.pix_fmt">yuvj420p</property>
  <property name="meta.media.1.codec.sample_aspect_ratio">0</property>
  <property name="meta.media.1.codec.colorspace">601</property>
  <property name="meta.media.1.codec.color_trc">6</property>
  <property name="meta.media.1.codec.name">h264</property>
  <property name="meta.media.1.codec.long_name">H.264 / AVC / MPEG-4 AVC / MPEG-4 part 10</property>
  <property name="meta.media.1.codec.bit_rate">21998771</property>
  <property name="meta.attr.1.stream.creation_time.markup">2021-02-09T20:00:03.000000Z</property>
  <property name="meta.attr.1.stream.language.markup">eng</property>
  <property name="meta.attr.1.stream.handler_name.markup">VideoHandle</property>
  <property name="meta.attr.major_brand.markup">mp42</property>
  <property name="meta.attr.minor_version.markup">0</property>
  <property name="meta.attr.compatible_brands.markup">isommp42</property>
  <property name="meta.attr.creation_time.markup">2021-02-09T20:00:03.000000Z</property>
  <property name="meta.attr.location.markup">+51.4483+7.0266/</property>
  <property name="meta.attr.location-eng.markup">+51.4483+7.0266/</property>
  <property name="meta.attr.com.android.capture.fps.markup">30.000000</property>
  <property name="meta.media.sample_aspect_num">1</property>
  <property name="meta.media.sample_aspect_den">1</property>
  <property name="meta.media.frame_rate_num">59774400</property>
  <property name="meta.media.frame_rate_den">1991681</property>
  <property name="meta.media.colorspace">601</property>
  <property name="meta.media.color_trc">6</property>
  <property name="meta.media.width">1920</property>
  <property name="meta.media.height">1080</property>
  <property name="meta.media.color_range">full</property>
  <property name="meta.media.variable_frame_rate">1</property>
  <property name="meta.media.top_field_first">0</property>
  <property name="meta.media.progressive">1</property>
  <property name="set.test_audio">1</property>
  <property name="set.test_image">0</property>
 </producer>
 <playlist id="playlist4">
  <entry producer="producer18" in="00:00:23.720" out="00:00:35.640">
   <property name="kdenlive:id">2</property>
   <filter id="filter10" in="00:00:23.720" out="00:00:24.040">
    <property name="start">0</property>
    <property name="mlt_service">brightness</property>
    <property name="kdenlive_id">fade_from_black</property>
    <property name="end">1</property>
    <property name="alpha">-1</property>
    <property name="kdenlive:collapsed">0</property>
   </filter>
  </entry>
  <blank length="00:00:00.400"/>
  <entry producer="producer18" in="00:00:38.360" out="00:00:43.200">
   <property name="kdenlive:id">2</property>
   <filter id="filter11">
    <property name="version">0.3</property>
    <property name="mlt_service">frei0r.saturat0r</property>
    <property name="kdenlive_id">frei0r.saturat0r</property>
    <property name="Saturation">00:00:38.360=0.02</property>
    <property name="kdenlive:collapsed">0</property>
   </filter>
  </entry>
  <blank length="00:00:00.400"/>
  <entry producer="producer18" in="00:00:44.160" out="00:00:45.880">
   <property name="kdenlive:id">2</property>
  </entry>
  <entry producer="producer18" in="00:01:54.040" out="00:01:59.240">
   <property name="kdenlive:id">2</property>
  </entry>
  <entry producer="producer18" in="00:02:52.720" out="00:03:01.080">
   <property name="kdenlive:id">2</property>
  </entry>
  <entry producer="producer18" in="00:03:05.640" out="00:03:26.960">
   <property name="kdenlive:id">2</property>
  </entry>
  <entry producer="producer18" in="00:03:37.960" out="00:03:51.960">
   <property name="kdenlive:id">2</property>
  </entry>
  <entry producer="producer18" in="00:03:54.520" out="00:04:32.560">
   <property name="kdenlive:id">2</property>
  </entry>
  <entry producer="producer18" in="00:04:53.240" out="00:05:04.920">
   <property name="kdenlive:id">2</property>
  </entry>
  <entry producer="producer18" in="00:05:26.160" out="00:06:01.520">
   <property name="kdenlive:id">2</property>
  </entry>
  <entry producer="producer18" in="00:06:05.560" out="00:06:09.480">
   <property name="kdenlive:id">2</property>
  </entry>
  <entry producer="producer18" in="00:06:14.080" out="00:06:27.480">
   <property name="kdenlive:id">2</property>
  </entry>
  <entry producer="producer18" in="00:06:27.520" out="00:06:30.000">
   <property name="kdenlive:id">2</property>
  </entry>
  <entry producer="producer18" in="00:06:37.480" out="00:06:43.160">
   <property name="kdenlive:id">2</property>
  </entry>
  <entry producer="producer18" in="00:06:49.040" out="00:07:29.360">
   <property name="kdenlive:id">2</property>
  </entry>
  <entry producer="producer18" in="00:07:29.400" out="00:07:33.400">
   <property name="kdenlive:id">2</property>
  </entry>
  <entry producer="producer18" in="00:08:03.480" out="00:08:15.840">
   <property name="kdenlive:id">2</property>
  </entry>
  <entry producer="producer18" in="00:08:16.320" out="00:08:22.920">
   <property name="kdenlive:id">2</property>
   <property name="kdenlive:activeeffect">0</property>
   <filter id="filter9" in="00:08:22.840" out="00:08:22.920">
    <property name="start">1</property>
    <property name="mlt_service">brightness</property>
    <property name="kdenlive_id">fade_to_black</property>
    <property name="end">0</property>
    <property name="alpha">-1</property>
   </filter>
  </entry>
 </playlist>
 <playlist id="playlist5"/>
 <tractor id="tractor3" in="00:00:00.000" out="00:04:02.680">
  <property name="kdenlive:trackheight">60</property>
  <property name="kdenlive:timeline_active">0</property>
  <property name="kdenlive:collapsed">0</property>
  <property name="kdenlive:thumbs_format"/>
  <property name="kdenlive:audio_rec"/>
  <track hide="audio" producer="playlist4"/>
  <track producer="playlist5"/>
 </tractor>
 <producer title="Anonymous Submission" id="producer19" in="00:00:00.000" out="00:00:04.000">
  <property name="length">125</property>
  <property name="eof">pause</property>
  <property name="resource">/opt/vlog/graficas/white_noise_2.mlt</property>
  <property name="mlt_service">xml</property>
  <property name="global_feed">1</property>
  <property name="xml">was here</property>
  <property name="seekable">1</property>
  <property name="kdenlive:clipname"/>
  <property name="kdenlive:folderid">4</property>
  <property name="kdenlive:id">5</property>
  <property name="kdenlive:file_size">811</property>
  <property name="kdenlive:file_hash">a19107eb9b6fdb81044bbb74253f14b0</property>
  <property name="set.test_audio">1</property>
  <property name="set.test_image">0</property>
 </producer>
 <playlist id="playlist6">
  <blank length="00:00:11.960"/>
  <entry producer="producer19" in="00:00:00.000" out="00:00:00.360">
   <property name="kdenlive:id">5</property>
  </entry>
  <entry producer="producer2" in="00:00:00.000" out="00:00:04.840">
   <property name="kdenlive:id">6</property>
  </entry>
  <entry producer="producer19" in="00:00:00.000" out="00:00:00.360">
   <property name="kdenlive:id">5</property>
  </entry>
  <blank length="00:00:16.440"/>
  <entry producer="producer3" in="00:00:00.000" out="00:00:20.280">
   <property name="kdenlive:id">9</property>
  </entry>
  <blank length="00:00:10.560"/>
  <entry producer="producer9" in="00:00:00.000" out="00:00:41.520">
   <property name="kdenlive:id">15</property>
  </entry>
  <blank length="00:02:16.200"/>
  <entry producer="producer1" in="00:00:00.000" out="00:00:05.960">
   <property name="kdenlive:id">3</property>
   <property name="kdenlive:activeeffect">0</property>
   <filter id="filter14" out="00:00:00.040">
    <property name="start">0</property>
    <property name="mlt_service">brightness</property>
    <property name="kdenlive_id">fade_from_black</property>
    <property name="end">1</property>
    <property name="alpha">-1</property>
    <property name="kdenlive:collapsed">0</property>
   </filter>
  </entry>
 </playlist>
 <playlist id="playlist7"/>
 <tractor id="tractor4" in="00:00:00.000" out="00:04:08.680">
  <property name="kdenlive:trackheight">65</property>
  <property name="kdenlive:timeline_active">0</property>
  <property name="kdenlive:collapsed">0</property>
  <property name="kdenlive:thumbs_format"/>
  <property name="kdenlive:audio_rec"/>
  <track hide="audio" producer="playlist6"/>
  <track producer="playlist7"/>
 </tractor>
 <playlist id="playlist8">
  <blank length="00:00:37.480"/>
  <entry producer="producer4" in="00:00:00.000" out="00:00:01.640">
   <property name="kdenlive:id">10</property>
  </entry>
  <entry producer="producer5" in="00:00:00.000" out="00:00:04.200">
   <property name="kdenlive:id">11</property>
  </entry>
  <entry producer="producer6" in="00:00:00.000" out="00:00:05.240">
   <property name="kdenlive:id">12</property>
  </entry>
  <entry producer="producer7" in="00:00:00.000" out="00:00:00.880">
   <property name="kdenlive:id">13</property>
  </entry>
  <entry producer="producer8" in="00:00:00.000" out="00:00:04.760">
   <property name="kdenlive:id">14</property>
  </entry>
  <blank length="00:00:12.520"/>
  <entry producer="producer10" in="00:00:00.000" out="00:00:00.840">
   <property name="kdenlive:id">16</property>
  </entry>
  <entry producer="producer11" in="00:00:00.000" out="00:00:01.560">
   <property name="kdenlive:id">17</property>
  </entry>
  <entry producer="producer12" in="00:00:00.000" out="00:00:00.680">
   <property name="kdenlive:id">18</property>
  </entry>
  <entry producer="producer13" in="00:00:00.000" out="00:00:02.120">
   <property name="kdenlive:id">19</property>
  </entry>
  <entry producer="producer14" in="00:00:00.000" out="00:00:01.640">
   <property name="kdenlive:id">20</property>
  </entry>
  <entry producer="producer15" in="00:00:00.000" out="00:00:32.520">
   <property name="kdenlive:id">21</property>
  </entry>
 </playlist>
 <playlist id="playlist9"/>
 <tractor id="tractor5" in="00:00:00.000" out="00:01:46.480">
  <property name="kdenlive:trackheight">65</property>
  <property name="kdenlive:timeline_active">1</property>
  <property name="kdenlive:collapsed">0</property>
  <property name="kdenlive:thumbs_format"/>
  <property name="kdenlive:audio_rec"/>
  <track hide="audio" producer="playlist8"/>
  <track producer="playlist9"/>
 </tractor>
 <playlist id="playlist10">
  <blank length="00:01:33.880"/>
  <entry producer="producer3" in="00:00:00.000" out="00:00:12.600">
   <property name="kdenlive:id">9</property>
  </entry>
 </playlist>
 <playlist id="playlist11"/>
 <tractor id="tractor6" in="00:00:00.000" out="00:01:46.480">
  <property name="kdenlive:trackheight">65</property>
  <property name="kdenlive:timeline_active">1</property>
  <property name="kdenlive:collapsed">0</property>
  <property name="kdenlive:thumbs_format"/>
  <property name="kdenlive:audio_rec"/>
  <track hide="audio" producer="playlist10"/>
  <track producer="playlist11"/>
 </tractor>
 <playlist id="playlist12">
  <blank length="00:01:33.880"/>
  <entry producer="producer8" in="00:00:00.000" out="00:00:12.600">
   <property name="kdenlive:id">14</property>
  </entry>
 </playlist>
 <playlist id="playlist13"/>
 <tractor id="tractor7" in="00:00:00.000" out="00:01:46.480">
  <property name="kdenlive:trackheight">65</property>
  <property name="kdenlive:timeline_active">1</property>
  <property name="kdenlive:collapsed">0</property>
  <property name="kdenlive:thumbs_format"/>
  <property name="kdenlive:audio_rec"/>
  <track hide="audio" producer="playlist12"/>
  <track producer="playlist13"/>
 </tractor>
 <tractor id="tractor8" global_feed="1" in="00:00:00.000" out="00:24:08.720">
  <track producer="black_track"/>
  <track producer="tractor1"/>
  <track producer="tractor2"/>
  <track producer="tractor3"/>
  <track producer="tractor4"/>
  <track producer="tractor5"/>
  <track producer="tractor6"/>
  <track producer="tractor7"/>
  <transition id="transition0">
   <property name="a_track">0</property>
   <property name="b_track">1</property>
   <property name="mlt_service">mix</property>
   <property name="kdenlive_id">mix</property>
   <property name="internal_added">237</property>
   <property name="always_active">1</property>
   <property name="accepts_blanks">1</property>
   <property name="sum">1</property>
  </transition>
  <transition id="transition1">
   <property name="a_track">0</property>
   <property name="b_track">2</property>
   <property name="mlt_service">mix</property>
   <property name="kdenlive_id">mix</property>
   <property name="internal_added">237</property>
   <property name="always_active">1</property>
   <property name="accepts_blanks">1</property>
   <property name="sum">1</property>
  </transition>
  <transition id="transition2">
   <property name="a_track">0</property>
   <property name="b_track">3</property>
   <property name="compositing">0</property>
   <property name="distort">0</property>
   <property name="rotate_center">0</property>
   <property name="mlt_service">qtblend</property>
   <property name="kdenlive_id">qtblend</property>
   <property name="internal_added">237</property>
   <property name="always_active">1</property>
  </transition>
  <transition id="transition3">
   <property name="a_track">0</property>
   <property name="b_track">4</property>
   <property name="compositing">0</property>
   <property name="distort">0</property>
   <property name="rotate_center">0</property>
   <property name="mlt_service">qtblend</property>
   <property name="kdenlive_id">qtblend</property>
   <property name="internal_added">237</property>
   <property name="always_active">1</property>
  </transition>
  <transition id="transition4">
   <property name="a_track">0</property>
   <property name="b_track">5</property>
   <property name="compositing">0</property>
   <property name="distort">0</property>
   <property name="rotate_center">0</property>
   <property name="mlt_service">qtblend</property>
   <property name="kdenlive_id">qtblend</property>
   <property name="internal_added">237</property>
   <property name="always_active">1</property>
  </transition>
  <transition id="transition5">
   <property name="a_track">0</property>
   <property name="b_track">6</property>
   <property name="compositing">0</property>
   <property name="distort">0</property>
   <property name="rotate_center">0</property>
   <property name="mlt_service">qtblend</property>
   <property name="kdenlive_id">qtblend</property>
   <property name="internal_added">237</property>
   <property name="always_active">1</property>
  </transition>
  <transition id="transition6">
   <property name="a_track">0</property>
   <property name="b_track">7</property>
   <property name="compositing">0</property>
   <property name="distort">0</property>
   <property name="rotate_center">0</property>
   <property name="mlt_service">qtblend</property>
   <property name="kdenlive_id">qtblend</property>
   <property name="internal_added">237</property>
   <property name="always_active">1</property>
  </transition>
  <filter id="filter15">
   <property name="window">75</property>
   <property name="max_gain">20dB</property>
   <property name="mlt_service">volume</property>
   <property name="internal_added">237</property>
   <property name="disable">1</property>
  </filter>
  <filter id="filter16">
   <property name="channel">-1</property>
   <property name="mlt_service">panner</property>
   <property name="internal_added">237</property>
   <property name="start">0.5</property>
   <property name="disable">1</property>
  </filter>
  <filter id="filter12">
   <property name="iec_scale">0</property>
   <property name="mlt_service">audiolevel</property>
   <property name="disable">1</property>
  </filter>
 </tractor>
</mlt>
