<?xml version='1.0' encoding='utf-8'?>
<mlt LC_NUMERIC="C" producer="main_bin" version="7.4.0" root="/opt/vlog/vlogs/edgc/1 entrenamiento + viaje">
 <profile frame_rate_num="30" sample_aspect_num="1" display_aspect_den="1080" colorspace="601" progressive="1" description="1920x1080 30.00fps" display_aspect_num="1920" frame_rate_den="1" width="1920" height="1080" sample_aspect_den="1"/>
 <producer id="producer0" in="00:00:00.000" out="00:00:23.500">
  <property name="length">706</property>
  <property name="eof">pause</property>
  <property name="resource">manolo/PXL_20210809_181415651.mp4</property>
  <property name="audio_index">0</property>
  <property name="video_index">1</property>
  <property name="mute_on_pause">0</property>
  <property name="mlt_service">avformat-novalidate</property>
  <property name="seekable">1</property>
  <property name="aspect_ratio">1</property>
  <property name="kdenlive:clipname"/>
  <property name="kdenlive:folderid">2</property>
  <property name="kdenlive:id">3</property>
  <property name="kdenlive:file_size">30260045</property>
  <property name="kdenlive:file_hash">87fa4d1d4cd61e52cdb6f0044943b3e7</property>
  <property name="kdenlive:audio_max0">222</property>
  <property name="meta.media.nb_streams">2</property>
  <property name="meta.media.0.stream.type">audio</property>
  <property name="meta.media.0.codec.sample_fmt">fltp</property>
  <property name="meta.media.0.codec.sample_rate">48000</property>
  <property name="meta.media.0.codec.channels">2</property>
  <property name="meta.media.0.codec.name">aac</property>
  <property name="meta.media.0.codec.long_name">AAC (Advanced Audio Coding)</property>
  <property name="meta.media.0.codec.bit_rate">191783</property>
  <property name="meta.attr.0.stream.creation_time.markup">2021-08-09T18:14:40.000000Z</property>
  <property name="meta.attr.0.stream.language.markup">eng</property>
  <property name="meta.attr.0.stream.handler_name.markup">SoundHandle</property>
  <property name="meta.media.1.stream.type">video</property>
  <property name="meta.media.1.stream.frame_rate">30.0308</property>
  <property name="meta.media.1.stream.sample_aspect_ratio">1</property>
  <property name="meta.media.1.codec.width">1920</property>
  <property name="meta.media.1.codec.height">1080</property>
  <property name="meta.media.1.codec.rotate">0</property>
  <property name="meta.media.1.codec.pix_fmt">yuvj420p</property>
  <property name="meta.media.1.codec.sample_aspect_ratio">0</property>
  <property name="meta.media.1.codec.colorspace">601</property>
  <property name="meta.media.1.codec.color_trc">6</property>
  <property name="meta.media.1.codec.name">h264</property>
  <property name="meta.media.1.codec.long_name">H.264 / AVC / MPEG-4 AVC / MPEG-4 part 10</property>
  <property name="meta.media.1.codec.bit_rate">10087348</property>
  <property name="meta.attr.1.stream.creation_time.markup">2021-08-09T18:14:40.000000Z</property>
  <property name="meta.attr.1.stream.language.markup">eng</property>
  <property name="meta.attr.1.stream.handler_name.markup">VideoHandle</property>
  <property name="meta.attr.major_brand.markup">mp42</property>
  <property name="meta.attr.minor_version.markup">0</property>
  <property name="meta.attr.compatible_brands.markup">isommp42</property>
  <property name="meta.attr.creation_time.markup">2021-08-09T18:14:40.000000Z</property>
  <property name="meta.attr.location.markup">+49.7759+14.6758/</property>
  <property name="meta.attr.location-eng.markup">+49.7759+14.6758/</property>
  <property name="meta.attr.com.android.capture.fps.markup">30.000000</property>
  <property name="meta.media.sample_aspect_num">1</property>
  <property name="meta.media.sample_aspect_den">1</property>
  <property name="meta.media.frame_rate_num">5302500</property>
  <property name="meta.media.frame_rate_den">176569</property>
  <property name="meta.media.colorspace">601</property>
  <property name="meta.media.color_trc">6</property>
  <property name="meta.media.has_b_frames">0</property>
  <property name="meta.media.width">1920</property>
  <property name="meta.media.height">1080</property>
  <property name="meta.media.color_range">full</property>
  <property name="meta.media.variable_frame_rate">1</property>
  <property name="meta.media.top_field_first">0</property>
  <property name="meta.media.progressive">1</property>
 </producer>
 <producer id="producer1" in="00:00:00.000" out="00:00:23.000">
  <property name="length">691</property>
  <property name="eof">pause</property>
  <property name="resource">manolo/PXL_20210809_155017608.mp4</property>
  <property name="audio_index">0</property>
  <property name="video_index">1</property>
  <property name="mute_on_pause">0</property>
  <property name="mlt_service">avformat-novalidate</property>
  <property name="seekable">1</property>
  <property name="aspect_ratio">1</property>
  <property name="kdenlive:clipname"/>
  <property name="kdenlive:folderid">2</property>
  <property name="kdenlive:id">4</property>
  <property name="kdenlive:file_size">33132473</property>
  <property name="kdenlive:file_hash">6eec955ca486530c3550125a7cc6c482</property>
  <property name="kdenlive:audio_max0">217</property>
  <property name="meta.media.nb_streams">2</property>
  <property name="meta.media.0.stream.type">audio</property>
  <property name="meta.media.0.codec.sample_fmt">fltp</property>
  <property name="meta.media.0.codec.sample_rate">48000</property>
  <property name="meta.media.0.codec.channels">2</property>
  <property name="meta.media.0.codec.name">aac</property>
  <property name="meta.media.0.codec.long_name">AAC (Advanced Audio Coding)</property>
  <property name="meta.media.0.codec.bit_rate">192118</property>
  <property name="meta.attr.0.stream.creation_time.markup">2021-08-09T15:50:41.000000Z</property>
  <property name="meta.attr.0.stream.language.markup">eng</property>
  <property name="meta.attr.0.stream.handler_name.markup">SoundHandle</property>
  <property name="meta.media.1.stream.type">video</property>
  <property name="meta.media.1.stream.frame_rate">60.0411</property>
  <property name="meta.media.1.stream.sample_aspect_ratio">1</property>
  <property name="meta.media.1.codec.width">1920</property>
  <property name="meta.media.1.codec.height">1080</property>
  <property name="meta.media.1.codec.rotate">0</property>
  <property name="meta.media.1.codec.pix_fmt">yuvj420p</property>
  <property name="meta.media.1.codec.sample_aspect_ratio">0</property>
  <property name="meta.media.1.codec.colorspace">601</property>
  <property name="meta.media.1.codec.color_trc">6</property>
  <property name="meta.media.1.codec.name">h264</property>
  <property name="meta.media.1.codec.long_name">H.264 / AVC / MPEG-4 AVC / MPEG-4 part 10</property>
  <property name="meta.media.1.codec.bit_rate">11307969</property>
  <property name="meta.attr.1.stream.creation_time.markup">2021-08-09T15:50:41.000000Z</property>
  <property name="meta.attr.1.stream.language.markup">eng</property>
  <property name="meta.attr.1.stream.handler_name.markup">VideoHandle</property>
  <property name="meta.attr.major_brand.markup">mp42</property>
  <property name="meta.attr.minor_version.markup">0</property>
  <property name="meta.attr.compatible_brands.markup">isommp42</property>
  <property name="meta.attr.creation_time.markup">2021-08-09T15:50:41.000000Z</property>
  <property name="meta.attr.location.markup">+51.0558+13.5336/</property>
  <property name="meta.attr.location-eng.markup">+51.0558+13.5336/</property>
  <property name="meta.attr.com.android.capture.fps.markup">30.000000</property>
  <property name="meta.media.sample_aspect_num">1</property>
  <property name="meta.media.sample_aspect_den">1</property>
  <property name="meta.media.frame_rate_num">41490000</property>
  <property name="meta.media.frame_rate_den">691027</property>
  <property name="meta.media.colorspace">601</property>
  <property name="meta.media.color_trc">6</property>
  <property name="meta.media.has_b_frames">0</property>
  <property name="meta.media.width">1920</property>
  <property name="meta.media.height">1080</property>
  <property name="meta.media.color_range">full</property>
  <property name="meta.media.variable_frame_rate">1</property>
  <property name="meta.media.top_field_first">0</property>
  <property name="meta.media.progressive">1</property>
 </producer>
 <producer id="producer2" in="00:00:00.000" out="00:00:26.467">
  <property name="length">795</property>
  <property name="eof">pause</property>
  <property name="resource">manolo/PXL_20210809_154755651.mp4</property>
  <property name="audio_index">0</property>
  <property name="video_index">1</property>
  <property name="mute_on_pause">0</property>
  <property name="mlt_service">avformat-novalidate</property>
  <property name="seekable">1</property>
  <property name="aspect_ratio">1</property>
  <property name="kdenlive:clipname"/>
  <property name="kdenlive:folderid">2</property>
  <property name="kdenlive:id">5</property>
  <property name="kdenlive:file_size">69686604</property>
  <property name="kdenlive:file_hash">5ac8f960f915f4eeec356de50b1c6c21</property>
  <property name="meta.media.nb_streams">2</property>
  <property name="meta.media.0.stream.type">audio</property>
  <property name="meta.media.0.codec.sample_fmt">fltp</property>
  <property name="meta.media.0.codec.sample_rate">48000</property>
  <property name="meta.media.0.codec.channels">2</property>
  <property name="meta.media.0.codec.name">aac</property>
  <property name="meta.media.0.codec.long_name">AAC (Advanced Audio Coding)</property>
  <property name="meta.media.0.codec.bit_rate">189095</property>
  <property name="meta.attr.0.stream.creation_time.markup">2021-08-09T15:48:22.000000Z</property>
  <property name="meta.attr.0.stream.language.markup">eng</property>
  <property name="meta.attr.0.stream.handler_name.markup">SoundHandle</property>
  <property name="meta.media.1.stream.type">video</property>
  <property name="meta.media.1.stream.frame_rate">29.4725</property>
  <property name="meta.media.1.stream.sample_aspect_ratio">1</property>
  <property name="meta.media.1.codec.width">1920</property>
  <property name="meta.media.1.codec.height">1080</property>
  <property name="meta.media.1.codec.rotate">0</property>
  <property name="meta.media.1.codec.pix_fmt">yuvj420p</property>
  <property name="meta.media.1.codec.sample_aspect_ratio">0</property>
  <property name="meta.media.1.codec.colorspace">601</property>
  <property name="meta.media.1.codec.color_trc">6</property>
  <property name="meta.media.1.codec.name">h264</property>
  <property name="meta.media.1.codec.long_name">H.264 / AVC / MPEG-4 AVC / MPEG-4 part 10</property>
  <property name="meta.media.1.codec.bit_rate">20844527</property>
  <property name="meta.attr.1.stream.creation_time.markup">2021-08-09T15:48:22.000000Z</property>
  <property name="meta.attr.1.stream.language.markup">eng</property>
  <property name="meta.attr.1.stream.handler_name.markup">VideoHandle</property>
  <property name="meta.attr.major_brand.markup">mp42</property>
  <property name="meta.attr.minor_version.markup">0</property>
  <property name="meta.attr.compatible_brands.markup">isommp42</property>
  <property name="meta.attr.creation_time.markup">2021-08-09T15:48:22.000000Z</property>
  <property name="meta.attr.location.markup">+51.0559+13.5336/</property>
  <property name="meta.attr.location-eng.markup">+51.0559+13.5336/</property>
  <property name="meta.attr.com.android.capture.fps.markup">30.000000</property>
  <property name="meta.media.sample_aspect_num">1</property>
  <property name="meta.media.sample_aspect_den">1</property>
  <property name="meta.media.frame_rate_num">14058000</property>
  <property name="meta.media.frame_rate_den">476987</property>
  <property name="meta.media.colorspace">601</property>
  <property name="meta.media.color_trc">6</property>
  <property name="meta.media.has_b_frames">0</property>
  <property name="meta.media.width">1920</property>
  <property name="meta.media.height">1080</property>
  <property name="meta.media.color_range">full</property>
  <property name="kdenlive:audio_max0">208</property>
 </producer>
 <producer id="producer3" in="00:00:00.000" out="00:00:02.433">
  <property name="length">74</property>
  <property name="eof">pause</property>
  <property name="resource">manolo/PXL_20210809_154751888.mp4</property>
  <property name="audio_index">0</property>
  <property name="video_index">1</property>
  <property name="mute_on_pause">0</property>
  <property name="mlt_service">avformat-novalidate</property>
  <property name="seekable">1</property>
  <property name="aspect_ratio">1</property>
  <property name="kdenlive:clipname"/>
  <property name="kdenlive:folderid">2</property>
  <property name="kdenlive:id">6</property>
  <property name="kdenlive:file_size">6882121</property>
  <property name="kdenlive:file_hash">ccd4564a4a0779ba686def9ba205409a</property>
  <property name="meta.media.nb_streams">2</property>
  <property name="meta.media.0.stream.type">audio</property>
  <property name="meta.media.0.codec.sample_fmt">fltp</property>
  <property name="meta.media.0.codec.sample_rate">48000</property>
  <property name="meta.media.0.codec.channels">2</property>
  <property name="meta.media.0.codec.name">aac</property>
  <property name="meta.media.0.codec.long_name">AAC (Advanced Audio Coding)</property>
  <property name="meta.media.0.codec.bit_rate">189895</property>
  <property name="meta.attr.0.stream.creation_time.markup">2021-08-09T15:47:55.000000Z</property>
  <property name="meta.attr.0.stream.language.markup">eng</property>
  <property name="meta.attr.0.stream.handler_name.markup">SoundHandle</property>
  <property name="meta.media.1.stream.type">video</property>
  <property name="meta.media.1.stream.frame_rate">30.0334</property>
  <property name="meta.media.1.stream.sample_aspect_ratio">1</property>
  <property name="meta.media.1.codec.width">1920</property>
  <property name="meta.media.1.codec.height">1080</property>
  <property name="meta.media.1.codec.rotate">0</property>
  <property name="meta.media.1.codec.pix_fmt">yuvj420p</property>
  <property name="meta.media.1.codec.sample_aspect_ratio">0</property>
  <property name="meta.media.1.codec.colorspace">601</property>
  <property name="meta.media.1.codec.color_trc">6</property>
  <property name="meta.media.1.codec.name">h264</property>
  <property name="meta.media.1.codec.long_name">H.264 / AVC / MPEG-4 AVC / MPEG-4 part 10</property>
  <property name="meta.media.1.codec.bit_rate">22149634</property>
  <property name="meta.attr.1.stream.creation_time.markup">2021-08-09T15:47:55.000000Z</property>
  <property name="meta.attr.1.stream.language.markup">eng</property>
  <property name="meta.attr.1.stream.handler_name.markup">VideoHandle</property>
  <property name="meta.attr.major_brand.markup">mp42</property>
  <property name="meta.attr.minor_version.markup">0</property>
  <property name="meta.attr.compatible_brands.markup">isommp42</property>
  <property name="meta.attr.creation_time.markup">2021-08-09T15:47:55.000000Z</property>
  <property name="meta.attr.location.markup">+51.0559+13.5336/</property>
  <property name="meta.attr.location-eng.markup">+51.0559+13.5336/</property>
  <property name="meta.attr.com.android.capture.fps.markup">30.000000</property>
  <property name="meta.media.sample_aspect_num">1</property>
  <property name="meta.media.sample_aspect_den">1</property>
  <property name="meta.media.frame_rate_num">6660000</property>
  <property name="meta.media.frame_rate_den">221753</property>
  <property name="meta.media.colorspace">601</property>
  <property name="meta.media.color_trc">6</property>
  <property name="meta.media.has_b_frames">0</property>
  <property name="meta.media.width">1920</property>
  <property name="meta.media.height">1080</property>
  <property name="meta.media.color_range">full</property>
  <property name="meta.media.variable_frame_rate">1</property>
  <property name="meta.media.top_field_first">0</property>
  <property name="meta.media.progressive">1</property>
 </producer>
 <producer id="producer5" in="00:00:00.000" out="00:01:16.700">
  <property name="length">2302</property>
  <property name="eof">pause</property>
  <property name="resource">manolo/PXL_20210809_154628244.mp4</property>
  <property name="audio_index">0</property>
  <property name="video_index">1</property>
  <property name="mute_on_pause">0</property>
  <property name="mlt_service">avformat-novalidate</property>
  <property name="meta.media.nb_streams">2</property>
  <property name="meta.media.0.stream.type">audio</property>
  <property name="meta.media.0.codec.sample_fmt">fltp</property>
  <property name="meta.media.0.codec.sample_rate">48000</property>
  <property name="meta.media.0.codec.channels">2</property>
  <property name="meta.media.0.codec.name">aac</property>
  <property name="meta.media.0.codec.long_name">AAC (Advanced Audio Coding)</property>
  <property name="meta.media.0.codec.bit_rate">191976</property>
  <property name="meta.attr.0.stream.creation_time.markup">2021-08-09T15:47:49.000000Z</property>
  <property name="meta.attr.0.stream.language.markup">eng</property>
  <property name="meta.attr.0.stream.handler_name.markup">SoundHandle</property>
  <property name="meta.media.1.stream.type">video</property>
  <property name="meta.media.1.stream.frame_rate">59.9756</property>
  <property name="meta.media.1.stream.sample_aspect_ratio">1</property>
  <property name="meta.media.1.codec.width">1920</property>
  <property name="meta.media.1.codec.height">1080</property>
  <property name="meta.media.1.codec.rotate">0</property>
  <property name="meta.media.1.codec.pix_fmt">yuvj420p</property>
  <property name="meta.media.1.codec.sample_aspect_ratio">0</property>
  <property name="meta.media.1.codec.colorspace">601</property>
  <property name="meta.media.1.codec.color_trc">6</property>
  <property name="meta.media.1.codec.name">h264</property>
  <property name="meta.media.1.codec.long_name">H.264 / AVC / MPEG-4 AVC / MPEG-4 part 10</property>
  <property name="meta.media.1.codec.bit_rate">16000131</property>
  <property name="meta.attr.1.stream.creation_time.markup">2021-08-09T15:47:49.000000Z</property>
  <property name="meta.attr.1.stream.language.markup">eng</property>
  <property name="meta.attr.1.stream.handler_name.markup">VideoHandle</property>
  <property name="meta.attr.major_brand.markup">mp42</property>
  <property name="meta.attr.minor_version.markup">0</property>
  <property name="meta.attr.compatible_brands.markup">isommp42</property>
  <property name="meta.attr.creation_time.markup">2021-08-09T15:47:49.000000Z</property>
  <property name="meta.attr.location.markup">+51.0559+13.5336/</property>
  <property name="meta.attr.location-eng.markup">+51.0559+13.5336/</property>
  <property name="meta.attr.com.android.capture.fps.markup">30.000000</property>
  <property name="seekable">1</property>
  <property name="meta.media.sample_aspect_num">1</property>
  <property name="meta.media.sample_aspect_den">1</property>
  <property name="aspect_ratio">1</property>
  <property name="kdenlive:clipname"/>
  <property name="kdenlive:folderid">2</property>
  <property name="meta.media.frame_rate_num">69030000</property>
  <property name="meta.media.frame_rate_den">1150969</property>
  <property name="meta.media.colorspace">601</property>
  <property name="meta.media.color_trc">6</property>
  <property name="meta.media.has_b_frames">0</property>
  <property name="meta.media.width">1920</property>
  <property name="meta.media.height">1080</property>
  <property name="meta.media.color_range">full</property>
  <property name="kdenlive:id">7</property>
  <property name="kdenlive:file_size">155362580</property>
  <property name="kdenlive:file_hash">2b4c137eca09b4dc585c36aa70b66fdf</property>
  <property name="meta.media.variable_frame_rate">1</property>
  <property name="meta.media.top_field_first">0</property>
  <property name="meta.media.progressive">1</property>
  <property name="kdenlive:audio_max0">212</property>
 </producer>
 <producer id="producer4" in="00:00:00.000" out="00:00:28.967">
  <property name="length">870</property>
  <property name="eof">pause</property>
  <property name="resource">manolo/PXL_20210809_154423910.mp4</property>
  <property name="audio_index">0</property>
  <property name="video_index">1</property>
  <property name="mute_on_pause">0</property>
  <property name="mlt_service">avformat-novalidate</property>
  <property name="meta.media.nb_streams">2</property>
  <property name="meta.media.0.stream.type">audio</property>
  <property name="meta.media.0.codec.sample_fmt">fltp</property>
  <property name="meta.media.0.codec.sample_rate">48000</property>
  <property name="meta.media.0.codec.channels">2</property>
  <property name="meta.media.0.codec.name">aac</property>
  <property name="meta.media.0.codec.long_name">AAC (Advanced Audio Coding)</property>
  <property name="meta.media.0.codec.bit_rate">191940</property>
  <property name="meta.attr.0.stream.rotate.markup">180</property>
  <property name="meta.attr.0.stream.creation_time.markup">2021-08-09T15:44:54.000000Z</property>
  <property name="meta.attr.0.stream.language.markup">eng</property>
  <property name="meta.attr.0.stream.handler_name.markup">SoundHandle</property>
  <property name="meta.media.1.stream.type">video</property>
  <property name="meta.media.1.stream.frame_rate">59.8671</property>
  <property name="meta.media.1.stream.sample_aspect_ratio">1</property>
  <property name="meta.media.1.codec.width">1920</property>
  <property name="meta.media.1.codec.height">1080</property>
  <property name="meta.media.1.codec.rotate">180</property>
  <property name="meta.media.1.codec.pix_fmt">yuvj420p</property>
  <property name="meta.media.1.codec.sample_aspect_ratio">0</property>
  <property name="meta.media.1.codec.colorspace">601</property>
  <property name="meta.media.1.codec.color_trc">6</property>
  <property name="meta.media.1.codec.name">h264</property>
  <property name="meta.media.1.codec.long_name">H.264 / AVC / MPEG-4 AVC / MPEG-4 part 10</property>
  <property name="meta.media.1.codec.bit_rate">13015011</property>
  <property name="meta.attr.1.stream.rotate.markup">180</property>
  <property name="meta.attr.1.stream.creation_time.markup">2021-08-09T15:44:54.000000Z</property>
  <property name="meta.attr.1.stream.language.markup">eng</property>
  <property name="meta.attr.1.stream.handler_name.markup">VideoHandle</property>
  <property name="meta.attr.major_brand.markup">mp42</property>
  <property name="meta.attr.minor_version.markup">0</property>
  <property name="meta.attr.compatible_brands.markup">isommp42</property>
  <property name="meta.attr.creation_time.markup">2021-08-09T15:44:54.000000Z</property>
  <property name="meta.attr.location.markup">+51.0558+13.5335/</property>
  <property name="meta.attr.location-eng.markup">+51.0558+13.5335/</property>
  <property name="meta.attr.com.android.capture.fps.markup">30.000000</property>
  <property name="seekable">1</property>
  <property name="meta.media.sample_aspect_num">1</property>
  <property name="meta.media.sample_aspect_den">1</property>
  <property name="aspect_ratio">1</property>
  <property name="kdenlive:clipname"/>
  <property name="kdenlive:folderid">2</property>
  <property name="meta.media.frame_rate_num">156330000</property>
  <property name="meta.media.frame_rate_den">2611283</property>
  <property name="meta.media.colorspace">601</property>
  <property name="meta.media.color_trc">6</property>
  <property name="meta.media.has_b_frames">0</property>
  <property name="meta.media.width">1920</property>
  <property name="meta.media.height">1080</property>
  <property name="meta.media.color_range">full</property>
  <property name="kdenlive:id">8</property>
  <property name="kdenlive:file_size">47920511</property>
  <property name="kdenlive:file_hash">872ad59dacc6434684fba5d9f7fda343</property>
  <property name="kdenlive:audio_max0">201</property>
  <property name="meta.media.variable_frame_rate">1</property>
  <property name="meta.media.top_field_first">0</property>
  <property name="meta.media.progressive">1</property>
 </producer>
 <producer id="producer7" in="00:00:00.000" out="00:00:28.033">
  <property name="length">842</property>
  <property name="eof">pause</property>
  <property name="resource">manolo/PXL_20210809_154349125.mp4</property>
  <property name="audio_index">0</property>
  <property name="video_index">1</property>
  <property name="mute_on_pause">0</property>
  <property name="mlt_service">avformat-novalidate</property>
  <property name="meta.media.nb_streams">2</property>
  <property name="meta.media.0.stream.type">audio</property>
  <property name="meta.media.0.codec.sample_fmt">fltp</property>
  <property name="meta.media.0.codec.sample_rate">48000</property>
  <property name="meta.media.0.codec.channels">2</property>
  <property name="meta.media.0.codec.name">aac</property>
  <property name="meta.media.0.codec.long_name">AAC (Advanced Audio Coding)</property>
  <property name="meta.media.0.codec.bit_rate">191957</property>
  <property name="meta.attr.0.stream.rotate.markup">180</property>
  <property name="meta.attr.0.stream.creation_time.markup">2021-08-09T15:44:18.000000Z</property>
  <property name="meta.attr.0.stream.language.markup">eng</property>
  <property name="meta.attr.0.stream.handler_name.markup">SoundHandle</property>
  <property name="meta.media.1.stream.type">video</property>
  <property name="meta.media.1.stream.frame_rate">60.0107</property>
  <property name="meta.media.1.stream.sample_aspect_ratio">1</property>
  <property name="meta.media.1.codec.width">1920</property>
  <property name="meta.media.1.codec.height">1080</property>
  <property name="meta.media.1.codec.rotate">180</property>
  <property name="meta.media.1.codec.pix_fmt">yuvj420p</property>
  <property name="meta.media.1.codec.sample_aspect_ratio">0</property>
  <property name="meta.media.1.codec.colorspace">601</property>
  <property name="meta.media.1.codec.color_trc">6</property>
  <property name="meta.media.1.codec.name">h264</property>
  <property name="meta.media.1.codec.long_name">H.264 / AVC / MPEG-4 AVC / MPEG-4 part 10</property>
  <property name="meta.media.1.codec.bit_rate">11117085</property>
  <property name="meta.attr.1.stream.rotate.markup">180</property>
  <property name="meta.attr.1.stream.creation_time.markup">2021-08-09T15:44:18.000000Z</property>
  <property name="meta.attr.1.stream.language.markup">eng</property>
  <property name="meta.attr.1.stream.handler_name.markup">VideoHandle</property>
  <property name="meta.attr.major_brand.markup">mp42</property>
  <property name="meta.attr.minor_version.markup">0</property>
  <property name="meta.attr.compatible_brands.markup">isommp42</property>
  <property name="meta.attr.creation_time.markup">2021-08-09T15:44:18.000000Z</property>
  <property name="meta.attr.location.markup">+51.0558+13.5335/</property>
  <property name="meta.attr.location-eng.markup">+51.0558+13.5335/</property>
  <property name="meta.attr.com.android.capture.fps.markup">30.000000</property>
  <property name="seekable">1</property>
  <property name="meta.media.sample_aspect_num">1</property>
  <property name="meta.media.sample_aspect_den">1</property>
  <property name="aspect_ratio">1</property>
  <property name="kdenlive:clipname"/>
  <property name="kdenlive:folderid">2</property>
  <property name="meta.media.frame_rate_num">18956250</property>
  <property name="meta.media.frame_rate_den">315881</property>
  <property name="meta.media.colorspace">601</property>
  <property name="meta.media.color_trc">6</property>
  <property name="meta.media.has_b_frames">0</property>
  <property name="meta.media.width">1920</property>
  <property name="meta.media.height">1080</property>
  <property name="meta.media.color_range">full</property>
  <property name="kdenlive:id">9</property>
  <property name="kdenlive:file_size">39713077</property>
  <property name="kdenlive:file_hash">db0156721cef49e23e31307ed4970a24</property>
  <property name="kdenlive:audio_max0">217</property>
 </producer>
 <producer id="producer6" in="00:00:00.000" out="00:00:39.033">
  <property name="length">1172</property>
  <property name="eof">pause</property>
  <property name="resource">manolo/PXL_20210809_154238167.mp4</property>
  <property name="audio_index">0</property>
  <property name="video_index">1</property>
  <property name="mute_on_pause">0</property>
  <property name="mlt_service">avformat-novalidate</property>
  <property name="meta.media.nb_streams">2</property>
  <property name="meta.media.0.stream.type">audio</property>
  <property name="meta.media.0.codec.sample_fmt">fltp</property>
  <property name="meta.media.0.codec.sample_rate">48000</property>
  <property name="meta.media.0.codec.channels">2</property>
  <property name="meta.media.0.codec.name">aac</property>
  <property name="meta.media.0.codec.long_name">AAC (Advanced Audio Coding)</property>
  <property name="meta.media.0.codec.bit_rate">191950</property>
  <property name="meta.attr.0.stream.rotate.markup">180</property>
  <property name="meta.attr.0.stream.creation_time.markup">2021-08-09T15:43:18.000000Z</property>
  <property name="meta.attr.0.stream.language.markup">eng</property>
  <property name="meta.attr.0.stream.handler_name.markup">SoundHandle</property>
  <property name="meta.media.1.stream.type">video</property>
  <property name="meta.media.1.stream.frame_rate">30.0225</property>
  <property name="meta.media.1.stream.sample_aspect_ratio">1</property>
  <property name="meta.media.1.codec.width">1920</property>
  <property name="meta.media.1.codec.height">1080</property>
  <property name="meta.media.1.codec.rotate">180</property>
  <property name="meta.media.1.codec.pix_fmt">yuvj420p</property>
  <property name="meta.media.1.codec.sample_aspect_ratio">0</property>
  <property name="meta.media.1.codec.colorspace">601</property>
  <property name="meta.media.1.codec.color_trc">6</property>
  <property name="meta.media.1.codec.name">h264</property>
  <property name="meta.media.1.codec.long_name">H.264 / AVC / MPEG-4 AVC / MPEG-4 part 10</property>
  <property name="meta.media.1.codec.bit_rate">17532974</property>
  <property name="meta.attr.1.stream.rotate.markup">180</property>
  <property name="meta.attr.1.stream.creation_time.markup">2021-08-09T15:43:18.000000Z</property>
  <property name="meta.attr.1.stream.language.markup">eng</property>
  <property name="meta.attr.1.stream.handler_name.markup">VideoHandle</property>
  <property name="meta.attr.major_brand.markup">mp42</property>
  <property name="meta.attr.minor_version.markup">0</property>
  <property name="meta.attr.compatible_brands.markup">isommp42</property>
  <property name="meta.attr.creation_time.markup">2021-08-09T15:43:18.000000Z</property>
  <property name="meta.attr.location.markup">+51.0560+13.5335/</property>
  <property name="meta.attr.location-eng.markup">+51.0560+13.5335/</property>
  <property name="meta.attr.com.android.capture.fps.markup">30.000000</property>
  <property name="seekable">1</property>
  <property name="meta.media.sample_aspect_num">1</property>
  <property name="meta.media.sample_aspect_den">1</property>
  <property name="aspect_ratio">1</property>
  <property name="kdenlive:clipname"/>
  <property name="kdenlive:folderid">2</property>
  <property name="meta.media.frame_rate_num">6598125</property>
  <property name="meta.media.frame_rate_den">219773</property>
  <property name="meta.media.colorspace">601</property>
  <property name="meta.media.color_trc">6</property>
  <property name="meta.media.has_b_frames">0</property>
  <property name="meta.media.width">1920</property>
  <property name="meta.media.height">1080</property>
  <property name="meta.media.color_range">full</property>
  <property name="kdenlive:id">10</property>
  <property name="kdenlive:file_size">86586788</property>
  <property name="kdenlive:file_hash">a6f0289988c2765f668893e73f81e66e</property>
  <property name="kdenlive:audio_max0">214</property>
 </producer>
 <producer id="producer8" in="00:00:00.000" out="00:00:40.767">
  <property name="length">1224</property>
  <property name="eof">pause</property>
  <property name="resource">manolo/PXL_20210809_120836312.mp4</property>
  <property name="audio_index">0</property>
  <property name="video_index">1</property>
  <property name="mute_on_pause">0</property>
  <property name="mlt_service">avformat-novalidate</property>
  <property name="meta.media.nb_streams">2</property>
  <property name="meta.media.0.stream.type">audio</property>
  <property name="meta.media.0.codec.sample_fmt">fltp</property>
  <property name="meta.media.0.codec.sample_rate">48000</property>
  <property name="meta.media.0.codec.channels">2</property>
  <property name="meta.media.0.codec.name">aac</property>
  <property name="meta.media.0.codec.long_name">AAC (Advanced Audio Coding)</property>
  <property name="meta.media.0.codec.bit_rate">191951</property>
  <property name="meta.attr.0.stream.creation_time.markup">2021-08-09T12:09:18.000000Z</property>
  <property name="meta.attr.0.stream.language.markup">eng</property>
  <property name="meta.attr.0.stream.handler_name.markup">SoundHandle</property>
  <property name="meta.media.1.stream.type">video</property>
  <property name="meta.media.1.stream.frame_rate">30.0323</property>
  <property name="meta.media.1.stream.sample_aspect_ratio">1</property>
  <property name="meta.media.1.codec.width">1920</property>
  <property name="meta.media.1.codec.height">1080</property>
  <property name="meta.media.1.codec.rotate">0</property>
  <property name="meta.media.1.codec.pix_fmt">yuvj420p</property>
  <property name="meta.media.1.codec.sample_aspect_ratio">0</property>
  <property name="meta.media.1.codec.colorspace">601</property>
  <property name="meta.media.1.codec.color_trc">6</property>
  <property name="meta.media.1.codec.name">h264</property>
  <property name="meta.media.1.codec.long_name">H.264 / AVC / MPEG-4 AVC / MPEG-4 part 10</property>
  <property name="meta.media.1.codec.bit_rate">17840280</property>
  <property name="meta.attr.1.stream.creation_time.markup">2021-08-09T12:09:18.000000Z</property>
  <property name="meta.attr.1.stream.language.markup">eng</property>
  <property name="meta.attr.1.stream.handler_name.markup">VideoHandle</property>
  <property name="meta.attr.major_brand.markup">mp42</property>
  <property name="meta.attr.minor_version.markup">0</property>
  <property name="meta.attr.compatible_brands.markup">isommp42</property>
  <property name="meta.attr.creation_time.markup">2021-08-09T12:09:18.000000Z</property>
  <property name="meta.attr.location.markup">+52.2624+10.2170/</property>
  <property name="meta.attr.location-eng.markup">+52.2624+10.2170/</property>
  <property name="meta.attr.com.android.capture.fps.markup">30.000000</property>
  <property name="seekable">1</property>
  <property name="meta.media.sample_aspect_num">1</property>
  <property name="meta.media.sample_aspect_den">1</property>
  <property name="aspect_ratio">1</property>
  <property name="kdenlive:clipname"/>
  <property name="kdenlive:folderid">2</property>
  <property name="meta.media.frame_rate_num">110250000</property>
  <property name="meta.media.frame_rate_den">3671053</property>
  <property name="meta.media.colorspace">601</property>
  <property name="meta.media.color_trc">6</property>
  <property name="meta.media.has_b_frames">0</property>
  <property name="meta.media.width">1920</property>
  <property name="meta.media.height">1080</property>
  <property name="meta.media.color_range">full</property>
  <property name="kdenlive:id">11</property>
  <property name="kdenlive:file_size">91963512</property>
  <property name="kdenlive:file_hash">a1b466a66e962b13dfaf6edc63ad428d</property>
  <property name="kdenlive:audio_max0">235</property>
 </producer>
 <producer id="producer9" in="00:00:00.000" out="00:00:14.700">
  <property name="length">442</property>
  <property name="eof">pause</property>
  <property name="resource">manolo/PXL_20210809_120659395.mp4</property>
  <property name="audio_index">0</property>
  <property name="video_index">1</property>
  <property name="mute_on_pause">0</property>
  <property name="mlt_service">avformat-novalidate</property>
  <property name="meta.media.nb_streams">2</property>
  <property name="meta.media.0.stream.type">audio</property>
  <property name="meta.media.0.codec.sample_fmt">fltp</property>
  <property name="meta.media.0.codec.sample_rate">48000</property>
  <property name="meta.media.0.codec.channels">2</property>
  <property name="meta.media.0.codec.name">aac</property>
  <property name="meta.media.0.codec.long_name">AAC (Advanced Audio Coding)</property>
  <property name="meta.media.0.codec.bit_rate">191968</property>
  <property name="meta.attr.0.stream.creation_time.markup">2021-08-09T12:07:15.000000Z</property>
  <property name="meta.attr.0.stream.language.markup">eng</property>
  <property name="meta.attr.0.stream.handler_name.markup">SoundHandle</property>
  <property name="meta.media.1.stream.type">video</property>
  <property name="meta.media.1.stream.frame_rate">60.0377</property>
  <property name="meta.media.1.stream.sample_aspect_ratio">1</property>
  <property name="meta.media.1.codec.width">1920</property>
  <property name="meta.media.1.codec.height">1080</property>
  <property name="meta.media.1.codec.rotate">0</property>
  <property name="meta.media.1.codec.pix_fmt">yuvj420p</property>
  <property name="meta.media.1.codec.sample_aspect_ratio">0</property>
  <property name="meta.media.1.codec.colorspace">601</property>
  <property name="meta.media.1.codec.color_trc">6</property>
  <property name="meta.media.1.codec.name">h264</property>
  <property name="meta.media.1.codec.long_name">H.264 / AVC / MPEG-4 AVC / MPEG-4 part 10</property>
  <property name="meta.media.1.codec.bit_rate">18438665</property>
  <property name="meta.attr.1.stream.creation_time.markup">2021-08-09T12:07:15.000000Z</property>
  <property name="meta.attr.1.stream.language.markup">eng</property>
  <property name="meta.attr.1.stream.handler_name.markup">VideoHandle</property>
  <property name="meta.attr.major_brand.markup">mp42</property>
  <property name="meta.attr.minor_version.markup">0</property>
  <property name="meta.attr.compatible_brands.markup">isommp42</property>
  <property name="meta.attr.creation_time.markup">2021-08-09T12:07:15.000000Z</property>
  <property name="meta.attr.location.markup">+52.2620+10.2186/</property>
  <property name="meta.attr.location-eng.markup">+52.2620+10.2186/</property>
  <property name="meta.attr.com.android.capture.fps.markup">30.000000</property>
  <property name="seekable">1</property>
  <property name="meta.media.sample_aspect_num">1</property>
  <property name="meta.media.sample_aspect_den">1</property>
  <property name="aspect_ratio">1</property>
  <property name="kdenlive:clipname"/>
  <property name="kdenlive:folderid">2</property>
  <property name="meta.media.frame_rate_num">4680000</property>
  <property name="meta.media.frame_rate_den">77951</property>
  <property name="meta.media.colorspace">601</property>
  <property name="meta.media.color_trc">6</property>
  <property name="meta.media.has_b_frames">0</property>
  <property name="meta.media.width">1920</property>
  <property name="meta.media.height">1080</property>
  <property name="meta.media.color_range">full</property>
  <property name="kdenlive:id">12</property>
  <property name="kdenlive:file_size">34301976</property>
  <property name="kdenlive:file_hash">55d7df80221eecc4c7a6f7359276aef5</property>
  <property name="kdenlive:audio_max0">205</property>
 </producer>
 <producer id="producer10" in="00:00:00.000" out="00:00:08.133">
  <property name="length">245</property>
  <property name="eof">pause</property>
  <property name="resource">manolo/PXL_20210809_120352569.mp4</property>
  <property name="audio_index">0</property>
  <property name="video_index">1</property>
  <property name="mute_on_pause">0</property>
  <property name="mlt_service">avformat-novalidate</property>
  <property name="meta.media.nb_streams">2</property>
  <property name="meta.media.0.stream.type">audio</property>
  <property name="meta.media.0.codec.sample_fmt">fltp</property>
  <property name="meta.media.0.codec.sample_rate">48000</property>
  <property name="meta.media.0.codec.channels">2</property>
  <property name="meta.media.0.codec.name">aac</property>
  <property name="meta.media.0.codec.long_name">AAC (Advanced Audio Coding)</property>
  <property name="meta.media.0.codec.bit_rate">191173</property>
  <property name="meta.attr.0.stream.creation_time.markup">2021-08-09T12:04:01.000000Z</property>
  <property name="meta.attr.0.stream.language.markup">eng</property>
  <property name="meta.attr.0.stream.handler_name.markup">SoundHandle</property>
  <property name="meta.media.1.stream.type">video</property>
  <property name="meta.media.1.stream.frame_rate">30.0261</property>
  <property name="meta.media.1.stream.sample_aspect_ratio">1</property>
  <property name="meta.media.1.codec.width">1920</property>
  <property name="meta.media.1.codec.height">1080</property>
  <property name="meta.media.1.codec.rotate">0</property>
  <property name="meta.media.1.codec.pix_fmt">yuvj420p</property>
  <property name="meta.media.1.codec.sample_aspect_ratio">0</property>
  <property name="meta.media.1.codec.colorspace">601</property>
  <property name="meta.media.1.codec.color_trc">6</property>
  <property name="meta.media.1.codec.name">h264</property>
  <property name="meta.media.1.codec.long_name">H.264 / AVC / MPEG-4 AVC / MPEG-4 part 10</property>
  <property name="meta.media.1.codec.bit_rate">21977557</property>
  <property name="meta.attr.1.stream.creation_time.markup">2021-08-09T12:04:01.000000Z</property>
  <property name="meta.attr.1.stream.language.markup">eng</property>
  <property name="meta.attr.1.stream.handler_name.markup">VideoHandle</property>
  <property name="meta.attr.major_brand.markup">mp42</property>
  <property name="meta.attr.minor_version.markup">0</property>
  <property name="meta.attr.compatible_brands.markup">isommp42</property>
  <property name="meta.attr.creation_time.markup">2021-08-09T12:04:01.000000Z</property>
  <property name="meta.attr.location.markup">+52.2625+10.2164/</property>
  <property name="meta.attr.location-eng.markup">+52.2625+10.2164/</property>
  <property name="meta.attr.com.android.capture.fps.markup">30.000000</property>
  <property name="seekable">1</property>
  <property name="meta.media.sample_aspect_num">1</property>
  <property name="meta.media.sample_aspect_den">1</property>
  <property name="aspect_ratio">1</property>
  <property name="kdenlive:clipname"/>
  <property name="kdenlive:folderid">2</property>
  <property name="meta.media.frame_rate_num">551250</property>
  <property name="meta.media.frame_rate_den">18359</property>
  <property name="meta.media.colorspace">601</property>
  <property name="meta.media.color_trc">6</property>
  <property name="meta.media.has_b_frames">0</property>
  <property name="meta.media.width">1920</property>
  <property name="meta.media.height">1080</property>
  <property name="meta.media.color_range">full</property>
  <property name="kdenlive:id">13</property>
  <property name="kdenlive:file_size">22615938</property>
  <property name="kdenlive:file_hash">9e0c499c77bfe2f5bd3f5e7143645606</property>
  <property name="kdenlive:audio_max0">206</property>
 </producer>
 <producer id="producer27" in="00:00:00.000" out="00:00:26.700">
  <property name="length">802</property>
  <property name="eof">pause</property>
  <property name="resource">manolo/PXL_20210809_120031802.mp4</property>
  <property name="audio_index">0</property>
  <property name="video_index">1</property>
  <property name="mute_on_pause">0</property>
  <property name="mlt_service">avformat-novalidate</property>
  <property name="meta.media.nb_streams">2</property>
  <property name="meta.media.0.stream.type">audio</property>
  <property name="meta.media.0.codec.sample_fmt">fltp</property>
  <property name="meta.media.0.codec.sample_rate">48000</property>
  <property name="meta.media.0.codec.channels">2</property>
  <property name="meta.media.0.codec.name">aac</property>
  <property name="meta.media.0.codec.long_name">AAC (Advanced Audio Coding)</property>
  <property name="meta.media.0.codec.bit_rate">191895</property>
  <property name="meta.attr.0.stream.rotate.markup">180</property>
  <property name="meta.attr.0.stream.creation_time.markup">2021-08-09T12:00:59.000000Z</property>
  <property name="meta.attr.0.stream.language.markup">eng</property>
  <property name="meta.attr.0.stream.handler_name.markup">SoundHandle</property>
  <property name="meta.media.1.stream.type">video</property>
  <property name="meta.media.1.stream.frame_rate">30.028</property>
  <property name="meta.media.1.stream.sample_aspect_ratio">1</property>
  <property name="meta.media.1.codec.width">1920</property>
  <property name="meta.media.1.codec.height">1080</property>
  <property name="meta.media.1.codec.rotate">180</property>
  <property name="meta.media.1.codec.pix_fmt">yuvj420p</property>
  <property name="meta.media.1.codec.sample_aspect_ratio">0</property>
  <property name="meta.media.1.codec.colorspace">601</property>
  <property name="meta.media.1.codec.color_trc">6</property>
  <property name="meta.media.1.codec.name">h264</property>
  <property name="meta.media.1.codec.long_name">H.264 / AVC / MPEG-4 AVC / MPEG-4 part 10</property>
  <property name="meta.media.1.codec.bit_rate">21976709</property>
  <property name="meta.attr.1.stream.rotate.markup">180</property>
  <property name="meta.attr.1.stream.creation_time.markup">2021-08-09T12:00:59.000000Z</property>
  <property name="meta.attr.1.stream.language.markup">eng</property>
  <property name="meta.attr.1.stream.handler_name.markup">VideoHandle</property>
  <property name="meta.attr.major_brand.markup">mp42</property>
  <property name="meta.attr.minor_version.markup">0</property>
  <property name="meta.attr.compatible_brands.markup">isommp42</property>
  <property name="meta.attr.creation_time.markup">2021-08-09T12:00:59.000000Z</property>
  <property name="meta.attr.location.markup">+52.2589+10.2215/</property>
  <property name="meta.attr.location-eng.markup">+52.2589+10.2215/</property>
  <property name="meta.attr.com.android.capture.fps.markup">30.000000</property>
  <property name="seekable">1</property>
  <property name="meta.media.sample_aspect_num">1</property>
  <property name="meta.media.sample_aspect_den">1</property>
  <property name="aspect_ratio">1</property>
  <property name="kdenlive:clipname"/>
  <property name="kdenlive:folderid">2</property>
  <property name="meta.media.frame_rate_num">4516875</property>
  <property name="meta.media.frame_rate_den">150422</property>
  <property name="meta.media.colorspace">601</property>
  <property name="meta.media.color_trc">6</property>
  <property name="meta.media.has_b_frames">0</property>
  <property name="meta.media.width">1920</property>
  <property name="meta.media.height">1080</property>
  <property name="meta.media.color_range">full</property>
  <property name="kdenlive:id">14</property>
  <property name="kdenlive:file_size">74118219</property>
  <property name="kdenlive:file_hash">b29c432c427027d27f6a12fb437d597d</property>
  <property name="meta.media.variable_frame_rate">1</property>
  <property name="meta.media.top_field_first">0</property>
  <property name="meta.media.progressive">1</property>
  <property name="kdenlive:audio_max0">236</property>
 </producer>
 <producer id="producer26" in="00:00:00.000" out="00:00:08.667">
  <property name="length">261</property>
  <property name="eof">pause</property>
  <property name="resource">manolo/PXL_20210809_120018344.mp4</property>
  <property name="audio_index">0</property>
  <property name="video_index">1</property>
  <property name="mute_on_pause">0</property>
  <property name="mlt_service">avformat-novalidate</property>
  <property name="meta.media.nb_streams">2</property>
  <property name="meta.media.0.stream.type">audio</property>
  <property name="meta.media.0.codec.sample_fmt">fltp</property>
  <property name="meta.media.0.codec.sample_rate">48000</property>
  <property name="meta.media.0.codec.channels">2</property>
  <property name="meta.media.0.codec.name">aac</property>
  <property name="meta.media.0.codec.long_name">AAC (Advanced Audio Coding)</property>
  <property name="meta.media.0.codec.bit_rate">191617</property>
  <property name="meta.attr.0.stream.rotate.markup">180</property>
  <property name="meta.attr.0.stream.creation_time.markup">2021-08-09T12:00:29.000000Z</property>
  <property name="meta.attr.0.stream.language.markup">eng</property>
  <property name="meta.attr.0.stream.handler_name.markup">SoundHandle</property>
  <property name="meta.media.1.stream.type">video</property>
  <property name="meta.media.1.stream.frame_rate">59.7408</property>
  <property name="meta.media.1.stream.sample_aspect_ratio">1</property>
  <property name="meta.media.1.codec.width">1920</property>
  <property name="meta.media.1.codec.height">1080</property>
  <property name="meta.media.1.codec.rotate">180</property>
  <property name="meta.media.1.codec.pix_fmt">yuvj420p</property>
  <property name="meta.media.1.codec.sample_aspect_ratio">0</property>
  <property name="meta.media.1.codec.colorspace">601</property>
  <property name="meta.media.1.codec.color_trc">6</property>
  <property name="meta.media.1.codec.name">h264</property>
  <property name="meta.media.1.codec.long_name">H.264 / AVC / MPEG-4 AVC / MPEG-4 part 10</property>
  <property name="meta.media.1.codec.bit_rate">33124210</property>
  <property name="meta.attr.1.stream.rotate.markup">180</property>
  <property name="meta.attr.1.stream.creation_time.markup">2021-08-09T12:00:29.000000Z</property>
  <property name="meta.attr.1.stream.language.markup">eng</property>
  <property name="meta.attr.1.stream.handler_name.markup">VideoHandle</property>
  <property name="meta.attr.major_brand.markup">mp42</property>
  <property name="meta.attr.minor_version.markup">0</property>
  <property name="meta.attr.compatible_brands.markup">isommp42</property>
  <property name="meta.attr.creation_time.markup">2021-08-09T12:00:29.000000Z</property>
  <property name="meta.attr.location.markup">+52.2612+10.2159/</property>
  <property name="meta.attr.location-eng.markup">+52.2612+10.2159/</property>
  <property name="meta.attr.com.android.capture.fps.markup">30.000000</property>
  <property name="seekable">1</property>
  <property name="meta.media.sample_aspect_num">1</property>
  <property name="meta.media.sample_aspect_den">1</property>
  <property name="aspect_ratio">1</property>
  <property name="kdenlive:clipname"/>
  <property name="kdenlive:folderid">2</property>
  <property name="meta.media.frame_rate_num">7785000</property>
  <property name="meta.media.frame_rate_den">130313</property>
  <property name="meta.media.colorspace">601</property>
  <property name="meta.media.color_trc">6</property>
  <property name="meta.media.has_b_frames">0</property>
  <property name="meta.media.width">1920</property>
  <property name="meta.media.height">1080</property>
  <property name="meta.media.color_range">full</property>
  <property name="kdenlive:id">15</property>
  <property name="kdenlive:file_size">36186053</property>
  <property name="kdenlive:file_hash">e4578fef4aaaeee4f1f31aff4626ed4d</property>
  <property name="kdenlive:audio_max0">203</property>
 </producer>
 <producer id="producer25" in="00:00:00.000" out="00:00:09.967">
  <property name="length">300</property>
  <property name="eof">pause</property>
  <property name="resource">manolo/PXL_20210809_115540652.mp4</property>
  <property name="audio_index">0</property>
  <property name="video_index">1</property>
  <property name="mute_on_pause">0</property>
  <property name="mlt_service">avformat-novalidate</property>
  <property name="meta.media.nb_streams">2</property>
  <property name="meta.media.0.stream.type">audio</property>
  <property name="meta.media.0.codec.sample_fmt">fltp</property>
  <property name="meta.media.0.codec.sample_rate">48000</property>
  <property name="meta.media.0.codec.channels">2</property>
  <property name="meta.media.0.codec.name">aac</property>
  <property name="meta.media.0.codec.long_name">AAC (Advanced Audio Coding)</property>
  <property name="meta.media.0.codec.bit_rate">191900</property>
  <property name="meta.attr.0.stream.creation_time.markup">2021-08-09T11:55:53.000000Z</property>
  <property name="meta.attr.0.stream.language.markup">eng</property>
  <property name="meta.attr.0.stream.handler_name.markup">SoundHandle</property>
  <property name="meta.media.1.stream.type">video</property>
  <property name="meta.media.1.stream.frame_rate">59.4397</property>
  <property name="meta.media.1.stream.sample_aspect_ratio">1</property>
  <property name="meta.media.1.codec.width">1920</property>
  <property name="meta.media.1.codec.height">1080</property>
  <property name="meta.media.1.codec.rotate">0</property>
  <property name="meta.media.1.codec.pix_fmt">yuvj420p</property>
  <property name="meta.media.1.codec.sample_aspect_ratio">0</property>
  <property name="meta.media.1.codec.colorspace">601</property>
  <property name="meta.media.1.codec.color_trc">6</property>
  <property name="meta.media.1.codec.name">h264</property>
  <property name="meta.media.1.codec.long_name">H.264 / AVC / MPEG-4 AVC / MPEG-4 part 10</property>
  <property name="meta.media.1.codec.bit_rate">29325642</property>
  <property name="meta.attr.1.stream.creation_time.markup">2021-08-09T11:55:53.000000Z</property>
  <property name="meta.attr.1.stream.language.markup">eng</property>
  <property name="meta.attr.1.stream.handler_name.markup">VideoHandle</property>
  <property name="meta.attr.major_brand.markup">mp42</property>
  <property name="meta.attr.minor_version.markup">0</property>
  <property name="meta.attr.compatible_brands.markup">isommp42</property>
  <property name="meta.attr.creation_time.markup">2021-08-09T11:55:53.000000Z</property>
  <property name="meta.attr.location.markup">+52.2605+10.2163/</property>
  <property name="meta.attr.location-eng.markup">+52.2605+10.2163/</property>
  <property name="meta.attr.com.android.capture.fps.markup">30.000000</property>
  <property name="seekable">1</property>
  <property name="meta.media.sample_aspect_num">1</property>
  <property name="meta.media.sample_aspect_den">1</property>
  <property name="aspect_ratio">1</property>
  <property name="kdenlive:clipname"/>
  <property name="kdenlive:folderid">2</property>
  <property name="meta.media.frame_rate_num">53550000</property>
  <property name="meta.media.frame_rate_den">900913</property>
  <property name="meta.media.colorspace">601</property>
  <property name="meta.media.color_trc">6</property>
  <property name="meta.media.has_b_frames">0</property>
  <property name="meta.media.width">1920</property>
  <property name="meta.media.height">1080</property>
  <property name="meta.media.color_range">full</property>
  <property name="kdenlive:id">16</property>
  <property name="kdenlive:file_size">36942329</property>
  <property name="kdenlive:file_hash">477dd25f69e2e826f826a2cf233e09bb</property>
  <property name="kdenlive:audio_max0">222</property>
 </producer>
 <producer id="producer24" in="00:00:00.000" out="00:00:14.300">
  <property name="length">430</property>
  <property name="eof">pause</property>
  <property name="resource">manolo/PXL_20210809_114822938.mp4</property>
  <property name="audio_index">0</property>
  <property name="video_index">1</property>
  <property name="mute_on_pause">0</property>
  <property name="mlt_service">avformat-novalidate</property>
  <property name="meta.media.nb_streams">2</property>
  <property name="meta.media.0.stream.type">audio</property>
  <property name="meta.media.0.codec.sample_fmt">fltp</property>
  <property name="meta.media.0.codec.sample_rate">48000</property>
  <property name="meta.media.0.codec.channels">2</property>
  <property name="meta.media.0.codec.name">aac</property>
  <property name="meta.media.0.codec.long_name">AAC (Advanced Audio Coding)</property>
  <property name="meta.media.0.codec.bit_rate">191924</property>
  <property name="meta.attr.0.stream.creation_time.markup">2021-08-09T11:48:38.000000Z</property>
  <property name="meta.attr.0.stream.language.markup">eng</property>
  <property name="meta.attr.0.stream.handler_name.markup">SoundHandle</property>
  <property name="meta.media.1.stream.type">video</property>
  <property name="meta.media.1.stream.frame_rate">60.0411</property>
  <property name="meta.media.1.stream.sample_aspect_ratio">1</property>
  <property name="meta.media.1.codec.width">1920</property>
  <property name="meta.media.1.codec.height">1080</property>
  <property name="meta.media.1.codec.rotate">0</property>
  <property name="meta.media.1.codec.pix_fmt">yuvj420p</property>
  <property name="meta.media.1.codec.sample_aspect_ratio">0</property>
  <property name="meta.media.1.codec.colorspace">601</property>
  <property name="meta.media.1.codec.color_trc">6</property>
  <property name="meta.media.1.codec.name">h264</property>
  <property name="meta.media.1.codec.long_name">H.264 / AVC / MPEG-4 AVC / MPEG-4 part 10</property>
  <property name="meta.media.1.codec.bit_rate">16413586</property>
  <property name="meta.attr.1.stream.creation_time.markup">2021-08-09T11:48:38.000000Z</property>
  <property name="meta.attr.1.stream.language.markup">eng</property>
  <property name="meta.attr.1.stream.handler_name.markup">VideoHandle</property>
  <property name="meta.attr.major_brand.markup">mp42</property>
  <property name="meta.attr.minor_version.markup">0</property>
  <property name="meta.attr.compatible_brands.markup">isommp42</property>
  <property name="meta.attr.creation_time.markup">2021-08-09T11:48:38.000000Z</property>
  <property name="meta.attr.location.markup">+52.2680+10.2240/</property>
  <property name="meta.attr.location-eng.markup">+52.2680+10.2240/</property>
  <property name="meta.attr.com.android.capture.fps.markup">30.000000</property>
  <property name="seekable">1</property>
  <property name="meta.media.sample_aspect_num">1</property>
  <property name="meta.media.sample_aspect_den">1</property>
  <property name="aspect_ratio">1</property>
  <property name="kdenlive:clipname"/>
  <property name="kdenlive:folderid">2</property>
  <property name="meta.media.frame_rate_num">5166000</property>
  <property name="meta.media.frame_rate_den">86041</property>
  <property name="meta.media.colorspace">601</property>
  <property name="meta.media.color_trc">6</property>
  <property name="meta.media.has_b_frames">0</property>
  <property name="meta.media.width">1920</property>
  <property name="meta.media.height">1080</property>
  <property name="meta.media.color_range">full</property>
  <property name="kdenlive:id">17</property>
  <property name="kdenlive:file_size">29774963</property>
  <property name="kdenlive:file_hash">6192bac4f649053a9f86857799354b0a</property>
  <property name="kdenlive:audio_max0">210</property>
 </producer>
 <producer id="producer23" in="00:00:00.000" out="00:01:10.033">
  <property name="length">2102</property>
  <property name="eof">pause</property>
  <property name="resource">manolo/PXL_20210809_114703889.mp4</property>
  <property name="audio_index">0</property>
  <property name="video_index">1</property>
  <property name="mute_on_pause">0</property>
  <property name="mlt_service">avformat-novalidate</property>
  <property name="meta.media.nb_streams">2</property>
  <property name="meta.media.0.stream.type">audio</property>
  <property name="meta.media.0.codec.sample_fmt">fltp</property>
  <property name="meta.media.0.codec.sample_rate">48000</property>
  <property name="meta.media.0.codec.channels">2</property>
  <property name="meta.media.0.codec.name">aac</property>
  <property name="meta.media.0.codec.long_name">AAC (Advanced Audio Coding)</property>
  <property name="meta.media.0.codec.bit_rate">191984</property>
  <property name="meta.attr.0.stream.creation_time.markup">2021-08-09T11:48:15.000000Z</property>
  <property name="meta.attr.0.stream.language.markup">eng</property>
  <property name="meta.attr.0.stream.handler_name.markup">SoundHandle</property>
  <property name="meta.media.1.stream.type">video</property>
  <property name="meta.media.1.stream.frame_rate">43.3149</property>
  <property name="meta.media.1.stream.sample_aspect_ratio">1</property>
  <property name="meta.media.1.codec.width">1920</property>
  <property name="meta.media.1.codec.height">1080</property>
  <property name="meta.media.1.codec.rotate">0</property>
  <property name="meta.media.1.codec.pix_fmt">yuvj420p</property>
  <property name="meta.media.1.codec.sample_aspect_ratio">0</property>
  <property name="meta.media.1.codec.colorspace">601</property>
  <property name="meta.media.1.codec.color_trc">6</property>
  <property name="meta.media.1.codec.name">h264</property>
  <property name="meta.media.1.codec.long_name">H.264 / AVC / MPEG-4 AVC / MPEG-4 part 10</property>
  <property name="meta.media.1.codec.bit_rate">22467756</property>
  <property name="meta.attr.1.stream.creation_time.markup">2021-08-09T11:48:15.000000Z</property>
  <property name="meta.attr.1.stream.language.markup">eng</property>
  <property name="meta.attr.1.stream.handler_name.markup">VideoHandle</property>
  <property name="meta.attr.major_brand.markup">mp42</property>
  <property name="meta.attr.minor_version.markup">0</property>
  <property name="meta.attr.compatible_brands.markup">isommp42</property>
  <property name="meta.attr.creation_time.markup">2021-08-09T11:48:15.000000Z</property>
  <property name="meta.attr.location.markup">+52.2595+10.2145/</property>
  <property name="meta.attr.location-eng.markup">+52.2595+10.2145/</property>
  <property name="meta.attr.com.android.capture.fps.markup">30.000000</property>
  <property name="seekable">1</property>
  <property name="meta.media.sample_aspect_num">1</property>
  <property name="meta.media.sample_aspect_den">1</property>
  <property name="aspect_ratio">1</property>
  <property name="kdenlive:clipname"/>
  <property name="kdenlive:folderid">2</property>
  <property name="meta.media.frame_rate_num">5690625</property>
  <property name="meta.media.frame_rate_den">131378</property>
  <property name="meta.media.colorspace">601</property>
  <property name="meta.media.color_trc">6</property>
  <property name="meta.media.has_b_frames">0</property>
  <property name="meta.media.width">1920</property>
  <property name="meta.media.height">1080</property>
  <property name="meta.media.color_range">full</property>
  <property name="kdenlive:id">18</property>
  <property name="kdenlive:file_size">198501402</property>
  <property name="kdenlive:file_hash">6618394cd7523344e850ebcc823e278c</property>
  <property name="kdenlive:audio_max0">231</property>
 </producer>
 <producer id="producer22" in="00:00:00.000" out="00:00:16.467">
  <property name="length">495</property>
  <property name="eof">pause</property>
  <property name="resource">manolo/PXL_20210809_114638280.mp4</property>
  <property name="audio_index">0</property>
  <property name="video_index">1</property>
  <property name="mute_on_pause">0</property>
  <property name="mlt_service">avformat-novalidate</property>
  <property name="meta.media.nb_streams">2</property>
  <property name="meta.media.0.stream.type">audio</property>
  <property name="meta.media.0.codec.sample_fmt">fltp</property>
  <property name="meta.media.0.codec.sample_rate">48000</property>
  <property name="meta.media.0.codec.channels">2</property>
  <property name="meta.media.0.codec.name">aac</property>
  <property name="meta.media.0.codec.long_name">AAC (Advanced Audio Coding)</property>
  <property name="meta.media.0.codec.bit_rate">191993</property>
  <property name="meta.attr.0.stream.creation_time.markup">2021-08-09T11:46:56.000000Z</property>
  <property name="meta.attr.0.stream.language.markup">eng</property>
  <property name="meta.attr.0.stream.handler_name.markup">SoundHandle</property>
  <property name="meta.media.1.stream.type">video</property>
  <property name="meta.media.1.stream.frame_rate">54.9765</property>
  <property name="meta.media.1.stream.sample_aspect_ratio">1</property>
  <property name="meta.media.1.codec.width">1920</property>
  <property name="meta.media.1.codec.height">1080</property>
  <property name="meta.media.1.codec.rotate">0</property>
  <property name="meta.media.1.codec.pix_fmt">yuvj420p</property>
  <property name="meta.media.1.codec.sample_aspect_ratio">0</property>
  <property name="meta.media.1.codec.colorspace">601</property>
  <property name="meta.media.1.codec.color_trc">6</property>
  <property name="meta.media.1.codec.name">h264</property>
  <property name="meta.media.1.codec.long_name">H.264 / AVC / MPEG-4 AVC / MPEG-4 part 10</property>
  <property name="meta.media.1.codec.bit_rate">24752732</property>
  <property name="meta.attr.1.stream.creation_time.markup">2021-08-09T11:46:56.000000Z</property>
  <property name="meta.attr.1.stream.language.markup">eng</property>
  <property name="meta.attr.1.stream.handler_name.markup">VideoHandle</property>
  <property name="meta.attr.major_brand.markup">mp42</property>
  <property name="meta.attr.minor_version.markup">0</property>
  <property name="meta.attr.compatible_brands.markup">isommp42</property>
  <property name="meta.attr.creation_time.markup">2021-08-09T11:46:56.000000Z</property>
  <property name="meta.attr.location.markup">+52.2596+10.2150/</property>
  <property name="meta.attr.location-eng.markup">+52.2596+10.2150/</property>
  <property name="meta.attr.com.android.capture.fps.markup">30.000000</property>
  <property name="seekable">1</property>
  <property name="meta.media.sample_aspect_num">1</property>
  <property name="meta.media.sample_aspect_den">1</property>
  <property name="aspect_ratio">1</property>
  <property name="kdenlive:clipname"/>
  <property name="kdenlive:folderid">2</property>
  <property name="meta.media.frame_rate_num">81720000</property>
  <property name="meta.media.frame_rate_den">1486453</property>
  <property name="meta.media.colorspace">601</property>
  <property name="meta.media.color_trc">6</property>
  <property name="meta.media.has_b_frames">0</property>
  <property name="meta.media.width">1920</property>
  <property name="meta.media.height">1080</property>
  <property name="meta.media.color_range">full</property>
  <property name="kdenlive:id">19</property>
  <property name="kdenlive:file_size">51509160</property>
  <property name="kdenlive:file_hash">bb1b6e81e88f18522384864161107709</property>
  <property name="kdenlive:audio_max0">216</property>
 </producer>
 <producer id="producer21" in="00:00:00.000" out="00:00:09.033">
  <property name="length">272</property>
  <property name="eof">pause</property>
  <property name="resource">manolo/PXL_20210809_114201873.mp4</property>
  <property name="audio_index">0</property>
  <property name="video_index">1</property>
  <property name="mute_on_pause">0</property>
  <property name="mlt_service">avformat-novalidate</property>
  <property name="meta.media.nb_streams">2</property>
  <property name="meta.media.0.stream.type">audio</property>
  <property name="meta.media.0.codec.sample_fmt">fltp</property>
  <property name="meta.media.0.codec.sample_rate">48000</property>
  <property name="meta.media.0.codec.channels">2</property>
  <property name="meta.media.0.codec.name">aac</property>
  <property name="meta.media.0.codec.long_name">AAC (Advanced Audio Coding)</property>
  <property name="meta.media.0.codec.bit_rate">192022</property>
  <property name="meta.attr.0.stream.creation_time.markup">2021-08-09T11:42:12.000000Z</property>
  <property name="meta.attr.0.stream.language.markup">eng</property>
  <property name="meta.attr.0.stream.handler_name.markup">SoundHandle</property>
  <property name="meta.media.1.stream.type">video</property>
  <property name="meta.media.1.stream.frame_rate">60.0389</property>
  <property name="meta.media.1.stream.sample_aspect_ratio">1</property>
  <property name="meta.media.1.codec.width">1920</property>
  <property name="meta.media.1.codec.height">1080</property>
  <property name="meta.media.1.codec.rotate">0</property>
  <property name="meta.media.1.codec.pix_fmt">yuvj420p</property>
  <property name="meta.media.1.codec.sample_aspect_ratio">0</property>
  <property name="meta.media.1.codec.colorspace">601</property>
  <property name="meta.media.1.codec.color_trc">6</property>
  <property name="meta.media.1.codec.name">h264</property>
  <property name="meta.media.1.codec.long_name">H.264 / AVC / MPEG-4 AVC / MPEG-4 part 10</property>
  <property name="meta.media.1.codec.bit_rate">16967239</property>
  <property name="meta.attr.1.stream.creation_time.markup">2021-08-09T11:42:12.000000Z</property>
  <property name="meta.attr.1.stream.language.markup">eng</property>
  <property name="meta.attr.1.stream.handler_name.markup">VideoHandle</property>
  <property name="meta.attr.major_brand.markup">mp42</property>
  <property name="meta.attr.minor_version.markup">0</property>
  <property name="meta.attr.compatible_brands.markup">isommp42</property>
  <property name="meta.attr.creation_time.markup">2021-08-09T11:42:12.000000Z</property>
  <property name="meta.attr.location.markup">+52.2589+10.2215/</property>
  <property name="meta.attr.location-eng.markup">+52.2589+10.2215/</property>
  <property name="meta.attr.com.android.capture.fps.markup">30.000000</property>
  <property name="seekable">1</property>
  <property name="meta.media.sample_aspect_num">1</property>
  <property name="meta.media.sample_aspect_den">1</property>
  <property name="aspect_ratio">1</property>
  <property name="kdenlive:clipname"/>
  <property name="kdenlive:folderid">2</property>
  <property name="meta.media.frame_rate_num">48960000</property>
  <property name="meta.media.frame_rate_den">815471</property>
  <property name="meta.media.colorspace">601</property>
  <property name="meta.media.color_trc">6</property>
  <property name="meta.media.has_b_frames">0</property>
  <property name="meta.media.width">1920</property>
  <property name="meta.media.height">1080</property>
  <property name="meta.media.color_range">full</property>
  <property name="kdenlive:id">20</property>
  <property name="kdenlive:file_size">19440917</property>
  <property name="kdenlive:file_hash">d77c45ed5bcc7b92ab48f446ddc878a1</property>
  <property name="kdenlive:audio_max0">222</property>
 </producer>
 <producer id="producer20" in="00:00:00.000" out="00:00:07.200">
  <property name="length">217</property>
  <property name="eof">pause</property>
  <property name="resource">manolo/PXL_20210809_114152414.mp4</property>
  <property name="audio_index">0</property>
  <property name="video_index">1</property>
  <property name="mute_on_pause">0</property>
  <property name="mlt_service">avformat-novalidate</property>
  <property name="meta.media.nb_streams">2</property>
  <property name="meta.media.0.stream.type">audio</property>
  <property name="meta.media.0.codec.sample_fmt">fltp</property>
  <property name="meta.media.0.codec.sample_rate">48000</property>
  <property name="meta.media.0.codec.channels">2</property>
  <property name="meta.media.0.codec.name">aac</property>
  <property name="meta.media.0.codec.long_name">AAC (Advanced Audio Coding)</property>
  <property name="meta.media.0.codec.bit_rate">192086</property>
  <property name="meta.attr.0.stream.creation_time.markup">2021-08-09T11:42:00.000000Z</property>
  <property name="meta.attr.0.stream.language.markup">eng</property>
  <property name="meta.attr.0.stream.handler_name.markup">SoundHandle</property>
  <property name="meta.media.1.stream.type">video</property>
  <property name="meta.media.1.stream.frame_rate">59.3489</property>
  <property name="meta.media.1.stream.sample_aspect_ratio">1</property>
  <property name="meta.media.1.codec.width">1920</property>
  <property name="meta.media.1.codec.height">1080</property>
  <property name="meta.media.1.codec.rotate">0</property>
  <property name="meta.media.1.codec.pix_fmt">yuvj420p</property>
  <property name="meta.media.1.codec.sample_aspect_ratio">0</property>
  <property name="meta.media.1.codec.colorspace">601</property>
  <property name="meta.media.1.codec.color_trc">6</property>
  <property name="meta.media.1.codec.name">h264</property>
  <property name="meta.media.1.codec.long_name">H.264 / AVC / MPEG-4 AVC / MPEG-4 part 10</property>
  <property name="meta.media.1.codec.bit_rate">18349221</property>
  <property name="meta.attr.1.stream.creation_time.markup">2021-08-09T11:42:00.000000Z</property>
  <property name="meta.attr.1.stream.language.markup">eng</property>
  <property name="meta.attr.1.stream.handler_name.markup">VideoHandle</property>
  <property name="meta.attr.major_brand.markup">mp42</property>
  <property name="meta.attr.minor_version.markup">0</property>
  <property name="meta.attr.compatible_brands.markup">isommp42</property>
  <property name="meta.attr.creation_time.markup">2021-08-09T11:42:00.000000Z</property>
  <property name="meta.attr.location.markup">+52.2589+10.2215/</property>
  <property name="meta.attr.location-eng.markup">+52.2589+10.2215/</property>
  <property name="meta.attr.com.android.capture.fps.markup">30.000000</property>
  <property name="seekable">1</property>
  <property name="meta.media.sample_aspect_num">1</property>
  <property name="meta.media.sample_aspect_den">1</property>
  <property name="aspect_ratio">1</property>
  <property name="kdenlive:clipname"/>
  <property name="kdenlive:folderid">2</property>
  <property name="meta.media.frame_rate_num">9675000</property>
  <property name="meta.media.frame_rate_den">163019</property>
  <property name="meta.media.colorspace">601</property>
  <property name="meta.media.color_trc">6</property>
  <property name="meta.media.has_b_frames">0</property>
  <property name="meta.media.width">1920</property>
  <property name="meta.media.height">1080</property>
  <property name="meta.media.color_range">full</property>
  <property name="kdenlive:id">21</property>
  <property name="kdenlive:file_size">16797369</property>
  <property name="kdenlive:file_hash">56a1152c518115047a1c6f43847794bd</property>
  <property name="kdenlive:audio_max0">222</property>
 </producer>
 <producer id="producer19" in="00:00:00.000" out="00:00:14.867">
  <property name="length">447</property>
  <property name="eof">pause</property>
  <property name="resource">manolo/PXL_20210809_114132248.mp4</property>
  <property name="audio_index">0</property>
  <property name="video_index">1</property>
  <property name="mute_on_pause">0</property>
  <property name="mlt_service">avformat-novalidate</property>
  <property name="meta.media.nb_streams">2</property>
  <property name="meta.media.0.stream.type">audio</property>
  <property name="meta.media.0.codec.sample_fmt">fltp</property>
  <property name="meta.media.0.codec.sample_rate">48000</property>
  <property name="meta.media.0.codec.channels">2</property>
  <property name="meta.media.0.codec.name">aac</property>
  <property name="meta.media.0.codec.long_name">AAC (Advanced Audio Coding)</property>
  <property name="meta.media.0.codec.bit_rate">192034</property>
  <property name="meta.attr.0.stream.creation_time.markup">2021-08-09T11:41:48.000000Z</property>
  <property name="meta.attr.0.stream.language.markup">eng</property>
  <property name="meta.attr.0.stream.handler_name.markup">SoundHandle</property>
  <property name="meta.media.1.stream.type">video</property>
  <property name="meta.media.1.stream.frame_rate">60.0404</property>
  <property name="meta.media.1.stream.sample_aspect_ratio">1</property>
  <property name="meta.media.1.codec.width">1920</property>
  <property name="meta.media.1.codec.height">1080</property>
  <property name="meta.media.1.codec.rotate">0</property>
  <property name="meta.media.1.codec.pix_fmt">yuvj420p</property>
  <property name="meta.media.1.codec.sample_aspect_ratio">0</property>
  <property name="meta.media.1.codec.colorspace">601</property>
  <property name="meta.media.1.codec.color_trc">6</property>
  <property name="meta.media.1.codec.name">h264</property>
  <property name="meta.media.1.codec.long_name">H.264 / AVC / MPEG-4 AVC / MPEG-4 part 10</property>
  <property name="meta.media.1.codec.bit_rate">14778514</property>
  <property name="meta.attr.1.stream.creation_time.markup">2021-08-09T11:41:48.000000Z</property>
  <property name="meta.attr.1.stream.language.markup">eng</property>
  <property name="meta.attr.1.stream.handler_name.markup">VideoHandle</property>
  <property name="meta.attr.major_brand.markup">mp42</property>
  <property name="meta.attr.minor_version.markup">0</property>
  <property name="meta.attr.compatible_brands.markup">isommp42</property>
  <property name="meta.attr.creation_time.markup">2021-08-09T11:41:48.000000Z</property>
  <property name="meta.attr.location.markup">+52.2599+10.2146/</property>
  <property name="meta.attr.location-eng.markup">+52.2599+10.2146/</property>
  <property name="meta.attr.com.android.capture.fps.markup">30.000000</property>
  <property name="seekable">1</property>
  <property name="meta.media.sample_aspect_num">1</property>
  <property name="meta.media.sample_aspect_den">1</property>
  <property name="aspect_ratio">1</property>
  <property name="kdenlive:clipname"/>
  <property name="kdenlive:folderid">2</property>
  <property name="meta.media.frame_rate_num">26820000</property>
  <property name="meta.media.frame_rate_den">446699</property>
  <property name="meta.media.colorspace">601</property>
  <property name="meta.media.color_trc">6</property>
  <property name="meta.media.has_b_frames">0</property>
  <property name="meta.media.width">1920</property>
  <property name="meta.media.height">1080</property>
  <property name="meta.media.color_range">full</property>
  <property name="kdenlive:id">22</property>
  <property name="kdenlive:file_size">27873058</property>
  <property name="kdenlive:file_hash">3df21b2bd0e3b1498a9f32bb5c1713c0</property>
  <property name="kdenlive:audio_max0">230</property>
  <property name="meta.media.variable_frame_rate">1</property>
  <property name="meta.media.top_field_first">0</property>
  <property name="meta.media.progressive">1</property>
 </producer>
 <producer id="producer18" in="00:00:00.000" out="00:00:12.633">
  <property name="length">380</property>
  <property name="eof">pause</property>
  <property name="resource">manolo/PXL_20210809_110357655.mp4</property>
  <property name="audio_index">0</property>
  <property name="video_index">1</property>
  <property name="mute_on_pause">0</property>
  <property name="mlt_service">avformat-novalidate</property>
  <property name="meta.media.nb_streams">2</property>
  <property name="meta.media.0.stream.type">audio</property>
  <property name="meta.media.0.codec.sample_fmt">fltp</property>
  <property name="meta.media.0.codec.sample_rate">48000</property>
  <property name="meta.media.0.codec.channels">2</property>
  <property name="meta.media.0.codec.name">aac</property>
  <property name="meta.media.0.codec.long_name">AAC (Advanced Audio Coding)</property>
  <property name="meta.media.0.codec.bit_rate">192013</property>
  <property name="meta.attr.0.stream.creation_time.markup">2021-08-09T11:04:11.000000Z</property>
  <property name="meta.attr.0.stream.language.markup">eng</property>
  <property name="meta.attr.0.stream.handler_name.markup">SoundHandle</property>
  <property name="meta.media.1.stream.type">video</property>
  <property name="meta.media.1.stream.frame_rate">54.2579</property>
  <property name="meta.media.1.stream.sample_aspect_ratio">1</property>
  <property name="meta.media.1.codec.width">1920</property>
  <property name="meta.media.1.codec.height">1080</property>
  <property name="meta.media.1.codec.rotate">0</property>
  <property name="meta.media.1.codec.pix_fmt">yuvj420p</property>
  <property name="meta.media.1.codec.sample_aspect_ratio">0</property>
  <property name="meta.media.1.codec.colorspace">601</property>
  <property name="meta.media.1.codec.color_trc">6</property>
  <property name="meta.media.1.codec.name">h264</property>
  <property name="meta.media.1.codec.long_name">H.264 / AVC / MPEG-4 AVC / MPEG-4 part 10</property>
  <property name="meta.media.1.codec.bit_rate">19904849</property>
  <property name="meta.attr.1.stream.creation_time.markup">2021-08-09T11:04:11.000000Z</property>
  <property name="meta.attr.1.stream.language.markup">eng</property>
  <property name="meta.attr.1.stream.handler_name.markup">VideoHandle</property>
  <property name="meta.attr.major_brand.markup">mp42</property>
  <property name="meta.attr.minor_version.markup">0</property>
  <property name="meta.attr.compatible_brands.markup">isommp42</property>
  <property name="meta.attr.creation_time.markup">2021-08-09T11:04:11.000000Z</property>
  <property name="meta.attr.location.markup">+52.2606+10.2177/</property>
  <property name="meta.attr.location-eng.markup">+52.2606+10.2177/</property>
  <property name="meta.attr.com.android.capture.fps.markup">30.000000</property>
  <property name="seekable">1</property>
  <property name="meta.media.sample_aspect_num">1</property>
  <property name="meta.media.sample_aspect_den">1</property>
  <property name="aspect_ratio">1</property>
  <property name="kdenlive:clipname"/>
  <property name="kdenlive:folderid">2</property>
  <property name="meta.media.frame_rate_num">30915000</property>
  <property name="meta.media.frame_rate_den">569779</property>
  <property name="meta.media.colorspace">601</property>
  <property name="meta.media.color_trc">6</property>
  <property name="meta.media.has_b_frames">0</property>
  <property name="meta.media.width">1920</property>
  <property name="meta.media.height">1080</property>
  <property name="meta.media.color_range">full</property>
  <property name="kdenlive:id">23</property>
  <property name="kdenlive:file_size">31816715</property>
  <property name="kdenlive:file_hash">ad405c268cd60f6a483be1d3a5c8e469</property>
  <property name="kdenlive:audio_max0">212</property>
  <property name="meta.media.top_field_first">0</property>
  <property name="meta.media.progressive">1</property>
 </producer>
 <producer id="producer17" in="00:00:00.000" out="00:00:39.067">
  <property name="length">1173</property>
  <property name="eof">pause</property>
  <property name="resource">manolo/PXL_20210809_105847667.mp4</property>
  <property name="audio_index">0</property>
  <property name="video_index">1</property>
  <property name="mute_on_pause">0</property>
  <property name="mlt_service">avformat-novalidate</property>
  <property name="meta.media.nb_streams">2</property>
  <property name="meta.media.0.stream.type">audio</property>
  <property name="meta.media.0.codec.sample_fmt">fltp</property>
  <property name="meta.media.0.codec.sample_rate">48000</property>
  <property name="meta.media.0.codec.channels">2</property>
  <property name="meta.media.0.codec.name">aac</property>
  <property name="meta.media.0.codec.long_name">AAC (Advanced Audio Coding)</property>
  <property name="meta.media.0.codec.bit_rate">191945</property>
  <property name="meta.attr.0.stream.creation_time.markup">2021-08-09T10:59:27.000000Z</property>
  <property name="meta.attr.0.stream.language.markup">eng</property>
  <property name="meta.attr.0.stream.handler_name.markup">SoundHandle</property>
  <property name="meta.media.1.stream.type">video</property>
  <property name="meta.media.1.stream.frame_rate">60.0325</property>
  <property name="meta.media.1.stream.sample_aspect_ratio">1</property>
  <property name="meta.media.1.codec.width">1920</property>
  <property name="meta.media.1.codec.height">1080</property>
  <property name="meta.media.1.codec.rotate">0</property>
  <property name="meta.media.1.codec.pix_fmt">yuvj420p</property>
  <property name="meta.media.1.codec.sample_aspect_ratio">0</property>
  <property name="meta.media.1.codec.colorspace">601</property>
  <property name="meta.media.1.codec.color_trc">6</property>
  <property name="meta.media.1.codec.name">h264</property>
  <property name="meta.media.1.codec.long_name">H.264 / AVC / MPEG-4 AVC / MPEG-4 part 10</property>
  <property name="meta.media.1.codec.bit_rate">24456702</property>
  <property name="meta.attr.1.stream.creation_time.markup">2021-08-09T10:59:27.000000Z</property>
  <property name="meta.attr.1.stream.language.markup">eng</property>
  <property name="meta.attr.1.stream.handler_name.markup">VideoHandle</property>
  <property name="meta.attr.major_brand.markup">mp42</property>
  <property name="meta.attr.minor_version.markup">0</property>
  <property name="meta.attr.compatible_brands.markup">isommp42</property>
  <property name="meta.attr.creation_time.markup">2021-08-09T10:59:27.000000Z</property>
  <property name="meta.attr.location.markup">+52.2612+10.2175/</property>
  <property name="meta.attr.location-eng.markup">+52.2612+10.2175/</property>
  <property name="meta.attr.com.android.capture.fps.markup">30.000000</property>
  <property name="seekable">1</property>
  <property name="meta.media.sample_aspect_num">1</property>
  <property name="meta.media.sample_aspect_den">1</property>
  <property name="aspect_ratio">1</property>
  <property name="kdenlive:clipname"/>
  <property name="kdenlive:folderid">2</property>
  <property name="meta.media.frame_rate_num">105660000</property>
  <property name="meta.media.frame_rate_den">1760047</property>
  <property name="meta.media.colorspace">601</property>
  <property name="meta.media.color_trc">6</property>
  <property name="meta.media.has_b_frames">0</property>
  <property name="meta.media.width">1920</property>
  <property name="meta.media.height">1080</property>
  <property name="meta.media.color_range">full</property>
  <property name="kdenlive:id">24</property>
  <property name="kdenlive:file_size">120536563</property>
  <property name="kdenlive:file_hash">6a39705e8e5a0c91a5f9752e33efe463</property>
  <property name="kdenlive:audio_max0">189</property>
 </producer>
 <producer id="producer16" in="00:00:00.000" out="00:00:14.833">
  <property name="length">446</property>
  <property name="eof">pause</property>
  <property name="resource">manolo/PXL_20210809_105422745.mp4</property>
  <property name="audio_index">0</property>
  <property name="video_index">1</property>
  <property name="mute_on_pause">0</property>
  <property name="mlt_service">avformat-novalidate</property>
  <property name="meta.media.nb_streams">2</property>
  <property name="meta.media.0.stream.type">audio</property>
  <property name="meta.media.0.codec.sample_fmt">fltp</property>
  <property name="meta.media.0.codec.sample_rate">48000</property>
  <property name="meta.media.0.codec.channels">2</property>
  <property name="meta.media.0.codec.name">aac</property>
  <property name="meta.media.0.codec.long_name">AAC (Advanced Audio Coding)</property>
  <property name="meta.media.0.codec.bit_rate">192207</property>
  <property name="meta.attr.0.stream.creation_time.markup">2021-08-09T10:54:38.000000Z</property>
  <property name="meta.attr.0.stream.language.markup">eng</property>
  <property name="meta.attr.0.stream.handler_name.markup">SoundHandle</property>
  <property name="meta.media.1.stream.type">video</property>
  <property name="meta.media.1.stream.frame_rate">60.0399</property>
  <property name="meta.media.1.stream.sample_aspect_ratio">1</property>
  <property name="meta.media.1.codec.width">1920</property>
  <property name="meta.media.1.codec.height">1080</property>
  <property name="meta.media.1.codec.rotate">0</property>
  <property name="meta.media.1.codec.pix_fmt">yuvj420p</property>
  <property name="meta.media.1.codec.sample_aspect_ratio">0</property>
  <property name="meta.media.1.codec.colorspace">601</property>
  <property name="meta.media.1.codec.color_trc">6</property>
  <property name="meta.media.1.codec.name">h264</property>
  <property name="meta.media.1.codec.long_name">H.264 / AVC / MPEG-4 AVC / MPEG-4 part 10</property>
  <property name="meta.media.1.codec.bit_rate">14148521</property>
  <property name="meta.attr.1.stream.creation_time.markup">2021-08-09T10:54:38.000000Z</property>
  <property name="meta.attr.1.stream.language.markup">eng</property>
  <property name="meta.attr.1.stream.handler_name.markup">VideoHandle</property>
  <property name="meta.attr.major_brand.markup">mp42</property>
  <property name="meta.attr.minor_version.markup">0</property>
  <property name="meta.attr.compatible_brands.markup">isommp42</property>
  <property name="meta.attr.creation_time.markup">2021-08-09T10:54:38.000000Z</property>
  <property name="meta.attr.location.markup">+52.2600+10.2167/</property>
  <property name="meta.attr.location-eng.markup">+52.2600+10.2167/</property>
  <property name="meta.attr.com.android.capture.fps.markup">30.000000</property>
  <property name="seekable">1</property>
  <property name="meta.media.sample_aspect_num">1</property>
  <property name="meta.media.sample_aspect_den">1</property>
  <property name="aspect_ratio">1</property>
  <property name="kdenlive:clipname"/>
  <property name="kdenlive:folderid">2</property>
  <property name="meta.media.frame_rate_num">8037000</property>
  <property name="meta.media.frame_rate_den">133861</property>
  <property name="meta.media.colorspace">601</property>
  <property name="meta.media.color_trc">6</property>
  <property name="meta.media.has_b_frames">0</property>
  <property name="meta.media.width">1920</property>
  <property name="meta.media.height">1080</property>
  <property name="meta.media.color_range">full</property>
  <property name="kdenlive:id">25</property>
  <property name="kdenlive:file_size">26671836</property>
  <property name="kdenlive:file_hash">63ec2896ac120e8736a076e75db38d21</property>
  <property name="kdenlive:audio_max0">156</property>
 </producer>
 <producer id="producer15" in="00:00:00.000" out="00:00:11.000">
  <property name="length">331</property>
  <property name="eof">pause</property>
  <property name="resource">manolo/PXL_20210809_105014183.mp4</property>
  <property name="audio_index">0</property>
  <property name="video_index">1</property>
  <property name="mute_on_pause">0</property>
  <property name="mlt_service">avformat-novalidate</property>
  <property name="meta.media.nb_streams">2</property>
  <property name="meta.media.0.stream.type">audio</property>
  <property name="meta.media.0.codec.sample_fmt">fltp</property>
  <property name="meta.media.0.codec.sample_rate">48000</property>
  <property name="meta.media.0.codec.channels">2</property>
  <property name="meta.media.0.codec.name">aac</property>
  <property name="meta.media.0.codec.long_name">AAC (Advanced Audio Coding)</property>
  <property name="meta.media.0.codec.bit_rate">191908</property>
  <property name="meta.attr.0.stream.creation_time.markup">2021-08-09T10:50:29.000000Z</property>
  <property name="meta.attr.0.stream.language.markup">eng</property>
  <property name="meta.attr.0.stream.handler_name.markup">SoundHandle</property>
  <property name="meta.media.1.stream.type">video</property>
  <property name="meta.media.1.stream.frame_rate">59.4143</property>
  <property name="meta.media.1.stream.sample_aspect_ratio">1</property>
  <property name="meta.media.1.codec.width">1920</property>
  <property name="meta.media.1.codec.height">1080</property>
  <property name="meta.media.1.codec.rotate">0</property>
  <property name="meta.media.1.codec.pix_fmt">yuvj420p</property>
  <property name="meta.media.1.codec.sample_aspect_ratio">0</property>
  <property name="meta.media.1.codec.colorspace">601</property>
  <property name="meta.media.1.codec.color_trc">6</property>
  <property name="meta.media.1.codec.name">h264</property>
  <property name="meta.media.1.codec.long_name">H.264 / AVC / MPEG-4 AVC / MPEG-4 part 10</property>
  <property name="meta.media.1.codec.bit_rate">21598574</property>
  <property name="meta.attr.1.stream.creation_time.markup">2021-08-09T10:50:29.000000Z</property>
  <property name="meta.attr.1.stream.language.markup">eng</property>
  <property name="meta.attr.1.stream.handler_name.markup">VideoHandle</property>
  <property name="meta.attr.major_brand.markup">mp42</property>
  <property name="meta.attr.minor_version.markup">0</property>
  <property name="meta.attr.compatible_brands.markup">isommp42</property>
  <property name="meta.attr.creation_time.markup">2021-08-09T10:50:29.000000Z</property>
  <property name="meta.attr.location.markup">+52.2606+10.2168/</property>
  <property name="meta.attr.location-eng.markup">+52.2606+10.2168/</property>
  <property name="meta.attr.com.android.capture.fps.markup">30.000000</property>
  <property name="seekable">1</property>
  <property name="meta.media.sample_aspect_num">1</property>
  <property name="meta.media.sample_aspect_den">1</property>
  <property name="aspect_ratio">1</property>
  <property name="kdenlive:clipname"/>
  <property name="kdenlive:folderid">2</property>
  <property name="meta.media.frame_rate_num">29475000</property>
  <property name="meta.media.frame_rate_den">496093</property>
  <property name="meta.media.colorspace">601</property>
  <property name="meta.media.color_trc">6</property>
  <property name="meta.media.has_b_frames">0</property>
  <property name="meta.media.width">1920</property>
  <property name="meta.media.height">1080</property>
  <property name="meta.media.color_range">full</property>
  <property name="kdenlive:id">26</property>
  <property name="kdenlive:file_size">30036471</property>
  <property name="kdenlive:file_hash">d06540186b1b5e81fe502b39c0ac96ad</property>
  <property name="kdenlive:audio_max0">200</property>
  <property name="kdenlive:rating">0</property>
  <property name="meta.media.variable_frame_rate">1</property>
  <property name="meta.media.top_field_first">0</property>
  <property name="meta.media.progressive">1</property>
 </producer>
 <producer id="producer14" in="00:00:00.000" out="00:01:30.633">
  <property name="length">2720</property>
  <property name="eof">pause</property>
  <property name="resource">manolo/PXL_20210809_104208652.mp4</property>
  <property name="audio_index">0</property>
  <property name="video_index">1</property>
  <property name="mute_on_pause">0</property>
  <property name="mlt_service">avformat-novalidate</property>
  <property name="meta.media.nb_streams">2</property>
  <property name="meta.media.0.stream.type">audio</property>
  <property name="meta.media.0.codec.sample_fmt">fltp</property>
  <property name="meta.media.0.codec.sample_rate">48000</property>
  <property name="meta.media.0.codec.channels">2</property>
  <property name="meta.media.0.codec.name">aac</property>
  <property name="meta.media.0.codec.long_name">AAC (Advanced Audio Coding)</property>
  <property name="meta.media.0.codec.bit_rate">192006</property>
  <property name="meta.attr.0.stream.creation_time.markup">2021-08-09T10:43:40.000000Z</property>
  <property name="meta.attr.0.stream.language.markup">eng</property>
  <property name="meta.attr.0.stream.handler_name.markup">SoundHandle</property>
  <property name="meta.media.1.stream.type">video</property>
  <property name="meta.media.1.stream.frame_rate">49.5514</property>
  <property name="meta.media.1.stream.sample_aspect_ratio">1</property>
  <property name="meta.media.1.codec.width">1920</property>
  <property name="meta.media.1.codec.height">1080</property>
  <property name="meta.media.1.codec.rotate">0</property>
  <property name="meta.media.1.codec.pix_fmt">yuvj420p</property>
  <property name="meta.media.1.codec.sample_aspect_ratio">0</property>
  <property name="meta.media.1.codec.colorspace">601</property>
  <property name="meta.media.1.codec.color_trc">6</property>
  <property name="meta.media.1.codec.name">h264</property>
  <property name="meta.media.1.codec.long_name">H.264 / AVC / MPEG-4 AVC / MPEG-4 part 10</property>
  <property name="meta.media.1.codec.bit_rate">24759656</property>
  <property name="meta.attr.1.stream.creation_time.markup">2021-08-09T10:43:40.000000Z</property>
  <property name="meta.attr.1.stream.language.markup">eng</property>
  <property name="meta.attr.1.stream.handler_name.markup">VideoHandle</property>
  <property name="meta.attr.major_brand.markup">mp42</property>
  <property name="meta.attr.minor_version.markup">0</property>
  <property name="meta.attr.compatible_brands.markup">isommp42</property>
  <property name="meta.attr.creation_time.markup">2021-08-09T10:43:40.000000Z</property>
  <property name="meta.attr.location.markup">+52.2619+10.2167/</property>
  <property name="meta.attr.location-eng.markup">+52.2619+10.2167/</property>
  <property name="meta.attr.com.android.capture.fps.markup">30.000000</property>
  <property name="seekable">1</property>
  <property name="meta.media.sample_aspect_num">1</property>
  <property name="meta.media.sample_aspect_den">1</property>
  <property name="aspect_ratio">1</property>
  <property name="kdenlive:clipname"/>
  <property name="kdenlive:folderid">2</property>
  <property name="meta.media.frame_rate_num">67395000</property>
  <property name="meta.media.frame_rate_den">1360103</property>
  <property name="meta.media.colorspace">601</property>
  <property name="meta.media.color_trc">6</property>
  <property name="meta.media.has_b_frames">0</property>
  <property name="meta.media.width">1920</property>
  <property name="meta.media.height">1080</property>
  <property name="meta.media.color_range">full</property>
  <property name="kdenlive:id">27</property>
  <property name="kdenlive:file_size">282867682</property>
  <property name="kdenlive:file_hash">c12b491ff29267742e2eb59e9a138ed3</property>
  <property name="kdenlive:audio_max0">228</property>
 </producer>
 <producer id="producer13" in="00:00:00.000" out="00:00:18.733">
  <property name="length">563</property>
  <property name="eof">pause</property>
  <property name="resource">manolo/PXL_20210809_104136249.mp4</property>
  <property name="audio_index">0</property>
  <property name="video_index">1</property>
  <property name="mute_on_pause">0</property>
  <property name="mlt_service">avformat-novalidate</property>
  <property name="meta.media.nb_streams">2</property>
  <property name="meta.media.0.stream.type">audio</property>
  <property name="meta.media.0.codec.sample_fmt">fltp</property>
  <property name="meta.media.0.codec.sample_rate">48000</property>
  <property name="meta.media.0.codec.channels">2</property>
  <property name="meta.media.0.codec.name">aac</property>
  <property name="meta.media.0.codec.long_name">AAC (Advanced Audio Coding)</property>
  <property name="meta.media.0.codec.bit_rate">191805</property>
  <property name="meta.attr.0.stream.creation_time.markup">2021-08-09T10:41:56.000000Z</property>
  <property name="meta.attr.0.stream.language.markup">eng</property>
  <property name="meta.attr.0.stream.handler_name.markup">SoundHandle</property>
  <property name="meta.media.1.stream.type">video</property>
  <property name="meta.media.1.stream.frame_rate">59.9833</property>
  <property name="meta.media.1.stream.sample_aspect_ratio">1</property>
  <property name="meta.media.1.codec.width">1920</property>
  <property name="meta.media.1.codec.height">1080</property>
  <property name="meta.media.1.codec.rotate">0</property>
  <property name="meta.media.1.codec.pix_fmt">yuvj420p</property>
  <property name="meta.media.1.codec.sample_aspect_ratio">0</property>
  <property name="meta.media.1.codec.colorspace">601</property>
  <property name="meta.media.1.codec.color_trc">6</property>
  <property name="meta.media.1.codec.name">h264</property>
  <property name="meta.media.1.codec.long_name">H.264 / AVC / MPEG-4 AVC / MPEG-4 part 10</property>
  <property name="meta.media.1.codec.bit_rate">32196649</property>
  <property name="meta.attr.1.stream.creation_time.markup">2021-08-09T10:41:56.000000Z</property>
  <property name="meta.attr.1.stream.language.markup">eng</property>
  <property name="meta.attr.1.stream.handler_name.markup">VideoHandle</property>
  <property name="meta.attr.major_brand.markup">mp42</property>
  <property name="meta.attr.minor_version.markup">0</property>
  <property name="meta.attr.compatible_brands.markup">isommp42</property>
  <property name="meta.attr.creation_time.markup">2021-08-09T10:41:56.000000Z</property>
  <property name="meta.attr.location.markup">+52.2620+10.2166/</property>
  <property name="meta.attr.location-eng.markup">+52.2620+10.2166/</property>
  <property name="meta.attr.com.android.capture.fps.markup">30.000000</property>
  <property name="seekable">1</property>
  <property name="meta.media.sample_aspect_num">1</property>
  <property name="meta.media.sample_aspect_den">1</property>
  <property name="aspect_ratio">1</property>
  <property name="kdenlive:clipname"/>
  <property name="kdenlive:folderid">2</property>
  <property name="meta.media.frame_rate_num">10134000</property>
  <property name="meta.media.frame_rate_den">168947</property>
  <property name="meta.media.colorspace">601</property>
  <property name="meta.media.color_trc">6</property>
  <property name="meta.media.has_b_frames">0</property>
  <property name="meta.media.width">1920</property>
  <property name="meta.media.height">1080</property>
  <property name="meta.media.color_range">full</property>
  <property name="kdenlive:id">28</property>
  <property name="kdenlive:file_size">76014473</property>
  <property name="kdenlive:file_hash">b9b8942f264646570c04214df79ab06d</property>
  <property name="kdenlive:audio_max0">202</property>
  <property name="meta.media.variable_frame_rate">1</property>
  <property name="meta.media.top_field_first">0</property>
  <property name="meta.media.progressive">1</property>
 </producer>
 <producer id="producer12" in="00:00:00.000" out="00:00:18.300">
  <property name="length">550</property>
  <property name="eof">pause</property>
  <property name="resource">manolo/PXL_20210809_104115096.mp4</property>
  <property name="audio_index">0</property>
  <property name="video_index">1</property>
  <property name="mute_on_pause">0</property>
  <property name="mlt_service">avformat-novalidate</property>
  <property name="meta.media.nb_streams">2</property>
  <property name="meta.media.0.stream.type">audio</property>
  <property name="meta.media.0.codec.sample_fmt">fltp</property>
  <property name="meta.media.0.codec.sample_rate">48000</property>
  <property name="meta.media.0.codec.channels">2</property>
  <property name="meta.media.0.codec.name">aac</property>
  <property name="meta.media.0.codec.long_name">AAC (Advanced Audio Coding)</property>
  <property name="meta.media.0.codec.bit_rate">187700</property>
  <property name="meta.attr.0.stream.creation_time.markup">2021-08-09T10:41:33.000000Z</property>
  <property name="meta.attr.0.stream.language.markup">eng</property>
  <property name="meta.attr.0.stream.handler_name.markup">SoundHandle</property>
  <property name="meta.media.1.stream.type">video</property>
  <property name="meta.media.1.stream.frame_rate">29.2132</property>
  <property name="meta.media.1.stream.sample_aspect_ratio">1</property>
  <property name="meta.media.1.codec.width">1920</property>
  <property name="meta.media.1.codec.height">1080</property>
  <property name="meta.media.1.codec.rotate">0</property>
  <property name="meta.media.1.codec.pix_fmt">yuvj420p</property>
  <property name="meta.media.1.codec.sample_aspect_ratio">0</property>
  <property name="meta.media.1.codec.colorspace">601</property>
  <property name="meta.media.1.codec.color_trc">6</property>
  <property name="meta.media.1.codec.name">h264</property>
  <property name="meta.media.1.codec.long_name">H.264 / AVC / MPEG-4 AVC / MPEG-4 part 10</property>
  <property name="meta.media.1.codec.bit_rate">21326288</property>
  <property name="meta.attr.1.stream.creation_time.markup">2021-08-09T10:41:33.000000Z</property>
  <property name="meta.attr.1.stream.language.markup">eng</property>
  <property name="meta.attr.1.stream.handler_name.markup">VideoHandle</property>
  <property name="meta.attr.major_brand.markup">mp42</property>
  <property name="meta.attr.minor_version.markup">0</property>
  <property name="meta.attr.compatible_brands.markup">isommp42</property>
  <property name="meta.attr.creation_time.markup">2021-08-09T10:41:33.000000Z</property>
  <property name="meta.attr.location.markup">+52.2619+10.2166/</property>
  <property name="meta.attr.location-eng.markup">+52.2619+10.2166/</property>
  <property name="meta.attr.com.android.capture.fps.markup">30.000000</property>
  <property name="seekable">1</property>
  <property name="meta.media.sample_aspect_num">1</property>
  <property name="meta.media.sample_aspect_den">1</property>
  <property name="aspect_ratio">1</property>
  <property name="kdenlive:clipname"/>
  <property name="kdenlive:folderid">2</property>
  <property name="meta.media.frame_rate_num">4020000</property>
  <property name="meta.media.frame_rate_den">137609</property>
  <property name="meta.media.colorspace">601</property>
  <property name="meta.media.color_trc">6</property>
  <property name="meta.media.has_b_frames">0</property>
  <property name="meta.media.width">1920</property>
  <property name="meta.media.height">1080</property>
  <property name="meta.media.color_range">full</property>
  <property name="kdenlive:id">29</property>
  <property name="kdenlive:file_size">49352093</property>
  <property name="kdenlive:file_hash">608a1658a646d07fa7a6abaead1d98c1</property>
  <property name="kdenlive:audio_max0">208</property>
  <property name="meta.media.variable_frame_rate">1</property>
  <property name="meta.media.top_field_first">0</property>
  <property name="meta.media.progressive">1</property>
 </producer>
 <producer id="producer11" in="00:00:00.000" out="00:06:02.367">
  <property name="length">10872</property>
  <property name="eof">pause</property>
  <property name="resource">manolo/PXL_20210809_063647560.mp4</property>
  <property name="audio_index">0</property>
  <property name="video_index">1</property>
  <property name="mute_on_pause">0</property>
  <property name="mlt_service">avformat-novalidate</property>
  <property name="meta.media.nb_streams">2</property>
  <property name="meta.media.0.stream.type">audio</property>
  <property name="meta.media.0.codec.sample_fmt">fltp</property>
  <property name="meta.media.0.codec.sample_rate">48000</property>
  <property name="meta.media.0.codec.channels">2</property>
  <property name="meta.media.0.codec.name">aac</property>
  <property name="meta.media.0.codec.long_name">AAC (Advanced Audio Coding)</property>
  <property name="meta.media.0.codec.bit_rate">191984</property>
  <property name="meta.attr.0.stream.creation_time.markup">2021-08-09T06:43:33.000000Z</property>
  <property name="meta.attr.0.stream.language.markup">eng</property>
  <property name="meta.attr.0.stream.handler_name.markup">SoundHandle</property>
  <property name="meta.media.1.stream.type">video</property>
  <property name="meta.media.1.stream.frame_rate">30.0307</property>
  <property name="meta.media.1.stream.sample_aspect_ratio">1</property>
  <property name="meta.media.1.codec.width">1920</property>
  <property name="meta.media.1.codec.height">1080</property>
  <property name="meta.media.1.codec.rotate">0</property>
  <property name="meta.media.1.codec.pix_fmt">yuvj420p</property>
  <property name="meta.media.1.codec.sample_aspect_ratio">0</property>
  <property name="meta.media.1.codec.colorspace">601</property>
  <property name="meta.media.1.codec.color_trc">6</property>
  <property name="meta.media.1.codec.name">h264</property>
  <property name="meta.media.1.codec.long_name">H.264 / AVC / MPEG-4 AVC / MPEG-4 part 10</property>
  <property name="meta.media.1.codec.bit_rate">15607389</property>
  <property name="meta.attr.1.stream.creation_time.markup">2021-08-09T06:43:33.000000Z</property>
  <property name="meta.attr.1.stream.language.markup">eng</property>
  <property name="meta.attr.1.stream.handler_name.markup">VideoHandle</property>
  <property name="meta.attr.major_brand.markup">mp42</property>
  <property name="meta.attr.minor_version.markup">0</property>
  <property name="meta.attr.compatible_brands.markup">isommp42</property>
  <property name="meta.attr.creation_time.markup">2021-08-09T06:43:33.000000Z</property>
  <property name="meta.attr.location.markup">+53.4980+7.0654/</property>
  <property name="meta.attr.location-eng.markup">+53.4980+7.0654/</property>
  <property name="meta.attr.com.android.capture.fps.markup">30.000000</property>
  <property name="seekable">1</property>
  <property name="meta.media.sample_aspect_num">1</property>
  <property name="meta.media.sample_aspect_den">1</property>
  <property name="aspect_ratio">1</property>
  <property name="kdenlive:clipname"/>
  <property name="kdenlive:folderid">2</property>
  <property name="meta.media.frame_rate_num">97947000</property>
  <property name="meta.media.frame_rate_den">3261557</property>
  <property name="meta.media.colorspace">601</property>
  <property name="meta.media.color_trc">6</property>
  <property name="meta.media.has_b_frames">0</property>
  <property name="meta.media.width">1920</property>
  <property name="meta.media.height">1080</property>
  <property name="meta.media.color_range">full</property>
  <property name="kdenlive:id">30</property>
  <property name="kdenlive:file_size">715863728</property>
  <property name="kdenlive:file_hash">5ec9ca0e4a7a511d50ab8858fcbfaf87</property>
  <property name="meta.media.variable_frame_rate">1</property>
  <property name="meta.media.top_field_first">0</property>
  <property name="meta.media.progressive">1</property>
  <property name="kdenlive:audio_max0">233</property>
 </producer>
 <producer id="producer28" in="00:00:00.000" out="00:01:32.333">
  <property name="length">2771</property>
  <property name="eof">pause</property>
  <property name="resource">fede/PXL_20210807_042348733.mp4</property>
  <property name="audio_index">1</property>
  <property name="video_index">0</property>
  <property name="mute_on_pause">0</property>
  <property name="mlt_service">avformat-novalidate</property>
  <property name="seekable">1</property>
  <property name="aspect_ratio">1</property>
  <property name="kdenlive:clipname"/>
  <property name="kdenlive:folderid">31</property>
  <property name="kdenlive:id">32</property>
  <property name="kdenlive:file_size">87343634</property>
  <property name="kdenlive:file_hash">2fdc4f1a87e0695875de3beb4c6118e3</property>
  <property name="kdenlive:audio_max1">209</property>
  <property name="kdenlive:rating">0</property>
  <property name="meta.media.nb_streams">2</property>
  <property name="meta.media.0.stream.type">video</property>
  <property name="meta.media.0.stream.frame_rate">30</property>
  <property name="meta.media.0.stream.sample_aspect_ratio">0</property>
  <property name="meta.media.0.codec.width">1920</property>
  <property name="meta.media.0.codec.height">1080</property>
  <property name="meta.media.0.codec.rotate">0</property>
  <property name="meta.media.0.codec.pix_fmt">yuv420p</property>
  <property name="meta.media.0.codec.sample_aspect_ratio">1</property>
  <property name="meta.media.0.codec.colorspace">601</property>
  <property name="meta.media.0.codec.color_trc">1</property>
  <property name="meta.media.0.codec.name">h264</property>
  <property name="meta.media.0.codec.long_name">H.264 / AVC / MPEG-4 AVC / MPEG-4 part 10</property>
  <property name="meta.media.0.codec.bit_rate">7439692</property>
  <property name="meta.attr.0.stream.creation_time.markup">1970-01-01T00:00:00.000000Z</property>
  <property name="meta.attr.0.stream.handler_name.markup">ISO Media file produced by Google Inc.</property>
  <property name="meta.media.1.stream.type">audio</property>
  <property name="meta.media.1.codec.sample_fmt">fltp</property>
  <property name="meta.media.1.codec.sample_rate">44100</property>
  <property name="meta.media.1.codec.channels">2</property>
  <property name="meta.media.1.codec.name">aac</property>
  <property name="meta.media.1.codec.long_name">AAC (Advanced Audio Coding)</property>
  <property name="meta.media.1.codec.bit_rate">127999</property>
  <property name="meta.attr.1.stream.creation_time.markup">1970-01-01T00:00:00.000000Z</property>
  <property name="meta.attr.1.stream.language.markup">eng</property>
  <property name="meta.attr.1.stream.handler_name.markup">ISO Media file produced by Google Inc.</property>
  <property name="meta.attr.major_brand.markup">mp42</property>
  <property name="meta.attr.minor_version.markup">0</property>
  <property name="meta.attr.compatible_brands.markup">isommp42</property>
  <property name="meta.attr.creation_time.markup">2021-08-07T04:25:25.000000Z</property>
  <property name="meta.attr.location.markup">+51.4474+7.0200/</property>
  <property name="meta.media.sample_aspect_num">1</property>
  <property name="meta.media.sample_aspect_den">1</property>
  <property name="meta.media.frame_rate_num">30</property>
  <property name="meta.media.frame_rate_den">1</property>
  <property name="meta.media.colorspace">601</property>
  <property name="meta.media.color_trc">1</property>
  <property name="meta.media.has_b_frames">0</property>
  <property name="meta.media.width">1920</property>
  <property name="meta.media.height">1080</property>
  <property name="meta.media.color_range">mpeg</property>
 </producer>
 <producer id="producer29" in="00:00:00.000" out="00:00:14.533">
  <property name="length">437</property>
  <property name="eof">pause</property>
  <property name="resource">fede/PXL_20210808_113203030.mp4</property>
  <property name="audio_index">1</property>
  <property name="video_index">0</property>
  <property name="mute_on_pause">0</property>
  <property name="mlt_service">avformat-novalidate</property>
  <property name="seekable">1</property>
  <property name="aspect_ratio">1</property>
  <property name="kdenlive:clipname"/>
  <property name="kdenlive:folderid">31</property>
  <property name="kdenlive:id">33</property>
  <property name="kdenlive:file_size">15369206</property>
  <property name="kdenlive:file_hash">37312a72bc3e58f63721c2a0b7deebb1</property>
  <property name="kdenlive:audio_max1">72</property>
  <property name="meta.media.nb_streams">2</property>
  <property name="meta.media.0.stream.type">video</property>
  <property name="meta.media.0.stream.frame_rate">60</property>
  <property name="meta.media.0.stream.sample_aspect_ratio">0</property>
  <property name="meta.media.0.codec.width">1920</property>
  <property name="meta.media.0.codec.height">1080</property>
  <property name="meta.media.0.codec.rotate">0</property>
  <property name="meta.media.0.codec.pix_fmt">yuv420p</property>
  <property name="meta.media.0.codec.sample_aspect_ratio">1</property>
  <property name="meta.media.0.codec.colorspace">601</property>
  <property name="meta.media.0.codec.color_trc">1</property>
  <property name="meta.media.0.codec.name">h264</property>
  <property name="meta.media.0.codec.long_name">H.264 / AVC / MPEG-4 AVC / MPEG-4 part 10</property>
  <property name="meta.media.0.codec.bit_rate">8337058</property>
  <property name="meta.attr.0.stream.creation_time.markup">1970-01-01T00:00:00.000000Z</property>
  <property name="meta.attr.0.stream.handler_name.markup">ISO Media file produced by Google Inc.</property>
  <property name="meta.media.1.stream.type">audio</property>
  <property name="meta.media.1.codec.sample_fmt">fltp</property>
  <property name="meta.media.1.codec.sample_rate">44100</property>
  <property name="meta.media.1.codec.channels">2</property>
  <property name="meta.media.1.codec.name">aac</property>
  <property name="meta.media.1.codec.long_name">AAC (Advanced Audio Coding)</property>
  <property name="meta.media.1.codec.bit_rate">127999</property>
  <property name="meta.attr.1.stream.creation_time.markup">1970-01-01T00:00:00.000000Z</property>
  <property name="meta.attr.1.stream.language.markup">eng</property>
  <property name="meta.attr.1.stream.handler_name.markup">ISO Media file produced by Google Inc.</property>
  <property name="meta.attr.major_brand.markup">mp42</property>
  <property name="meta.attr.minor_version.markup">0</property>
  <property name="meta.attr.compatible_brands.markup">isommp42</property>
  <property name="meta.attr.creation_time.markup">2021-08-08T11:32:18.000000Z</property>
  <property name="meta.attr.location.markup">+49.7802+14.6673/</property>
  <property name="meta.media.sample_aspect_num">1</property>
  <property name="meta.media.sample_aspect_den">1</property>
  <property name="meta.media.frame_rate_num">60</property>
  <property name="meta.media.frame_rate_den">1</property>
  <property name="meta.media.colorspace">601</property>
  <property name="meta.media.color_trc">1</property>
  <property name="meta.media.has_b_frames">0</property>
  <property name="meta.media.width">1920</property>
  <property name="meta.media.height">1080</property>
  <property name="meta.media.color_range">mpeg</property>
 </producer>
 <producer id="producer30" in="00:00:00.000" out="00:00:14.233">
  <property name="length">428</property>
  <property name="eof">pause</property>
  <property name="resource">fede/PXL_20210808_084702009.mp4</property>
  <property name="audio_index">1</property>
  <property name="video_index">0</property>
  <property name="mute_on_pause">0</property>
  <property name="mlt_service">avformat-novalidate</property>
  <property name="seekable">1</property>
  <property name="aspect_ratio">1</property>
  <property name="kdenlive:clipname"/>
  <property name="kdenlive:folderid">31</property>
  <property name="kdenlive:id">34</property>
  <property name="kdenlive:file_size">8078746</property>
  <property name="kdenlive:file_hash">975052315ecd3117b8cbb32bde9867bf</property>
  <property name="kdenlive:audio_max1">189</property>
  <property name="meta.media.nb_streams">2</property>
  <property name="meta.media.0.stream.type">video</property>
  <property name="meta.media.0.stream.frame_rate">46.107</property>
  <property name="meta.media.0.stream.sample_aspect_ratio">0</property>
  <property name="meta.media.0.codec.width">1920</property>
  <property name="meta.media.0.codec.height">1080</property>
  <property name="meta.media.0.codec.rotate">0</property>
  <property name="meta.media.0.codec.pix_fmt">yuv420p</property>
  <property name="meta.media.0.codec.sample_aspect_ratio">1</property>
  <property name="meta.media.0.codec.colorspace">601</property>
  <property name="meta.media.0.codec.color_trc">1</property>
  <property name="meta.media.0.codec.name">h264</property>
  <property name="meta.media.0.codec.long_name">H.264 / AVC / MPEG-4 AVC / MPEG-4 part 10</property>
  <property name="meta.media.0.codec.bit_rate">4417227</property>
  <property name="meta.attr.0.stream.creation_time.markup">1970-01-01T00:00:00.000000Z</property>
  <property name="meta.attr.0.stream.handler_name.markup">ISO Media file produced by Google Inc.</property>
  <property name="meta.media.1.stream.type">audio</property>
  <property name="meta.media.1.codec.sample_fmt">fltp</property>
  <property name="meta.media.1.codec.sample_rate">44100</property>
  <property name="meta.media.1.codec.channels">2</property>
  <property name="meta.media.1.codec.name">aac</property>
  <property name="meta.media.1.codec.long_name">AAC (Advanced Audio Coding)</property>
  <property name="meta.media.1.codec.bit_rate">128011</property>
  <property name="meta.attr.1.stream.creation_time.markup">1970-01-01T00:00:00.000000Z</property>
  <property name="meta.attr.1.stream.language.markup">eng</property>
  <property name="meta.attr.1.stream.handler_name.markup">ISO Media file produced by Google Inc.</property>
  <property name="meta.attr.major_brand.markup">mp42</property>
  <property name="meta.attr.minor_version.markup">0</property>
  <property name="meta.attr.compatible_brands.markup">isommp42</property>
  <property name="meta.attr.creation_time.markup">2021-08-08T08:47:17.000000Z</property>
  <property name="meta.attr.location.markup">+49.7798+14.6590/</property>
  <property name="meta.media.sample_aspect_num">1</property>
  <property name="meta.media.sample_aspect_den">1</property>
  <property name="meta.media.frame_rate_num">23699</property>
  <property name="meta.media.frame_rate_den">514</property>
  <property name="meta.media.colorspace">601</property>
  <property name="meta.media.color_trc">1</property>
  <property name="meta.media.has_b_frames">0</property>
  <property name="meta.media.width">1920</property>
  <property name="meta.media.height">1080</property>
  <property name="meta.media.color_range">mpeg</property>
 </producer>
 <producer id="producer31" in="00:00:00.000" out="00:00:20.833">
  <property name="length">626</property>
  <property name="eof">pause</property>
  <property name="resource">fede/PXL_20210807_124738964.mp4</property>
  <property name="audio_index">1</property>
  <property name="video_index">0</property>
  <property name="mute_on_pause">0</property>
  <property name="mlt_service">avformat-novalidate</property>
  <property name="seekable">1</property>
  <property name="aspect_ratio">1</property>
  <property name="kdenlive:clipname"/>
  <property name="kdenlive:folderid">31</property>
  <property name="kdenlive:id">35</property>
  <property name="kdenlive:file_size">16732754</property>
  <property name="kdenlive:file_hash">7862e782b7a94720ffb495630deced7a</property>
  <property name="kdenlive:audio_max1">212</property>
  <property name="meta.media.nb_streams">2</property>
  <property name="meta.media.0.stream.type">video</property>
  <property name="meta.media.0.stream.frame_rate">30</property>
  <property name="meta.media.0.stream.sample_aspect_ratio">0</property>
  <property name="meta.media.0.codec.width">1920</property>
  <property name="meta.media.0.codec.height">1080</property>
  <property name="meta.media.0.codec.rotate">0</property>
  <property name="meta.media.0.codec.pix_fmt">yuv420p</property>
  <property name="meta.media.0.codec.sample_aspect_ratio">1</property>
  <property name="meta.media.0.codec.colorspace">601</property>
  <property name="meta.media.0.codec.color_trc">1</property>
  <property name="meta.media.0.codec.name">h264</property>
  <property name="meta.media.0.codec.long_name">H.264 / AVC / MPEG-4 AVC / MPEG-4 part 10</property>
  <property name="meta.media.0.codec.bit_rate">6304353</property>
  <property name="meta.attr.0.stream.creation_time.markup">1970-01-01T00:00:00.000000Z</property>
  <property name="meta.attr.0.stream.handler_name.markup">ISO Media file produced by Google Inc.</property>
  <property name="meta.media.1.stream.type">audio</property>
  <property name="meta.media.1.codec.sample_fmt">fltp</property>
  <property name="meta.media.1.codec.sample_rate">44100</property>
  <property name="meta.media.1.codec.channels">2</property>
  <property name="meta.media.1.codec.name">aac</property>
  <property name="meta.media.1.codec.long_name">AAC (Advanced Audio Coding)</property>
  <property name="meta.media.1.codec.bit_rate">127999</property>
  <property name="meta.attr.1.stream.creation_time.markup">1970-01-01T00:00:00.000000Z</property>
  <property name="meta.attr.1.stream.language.markup">eng</property>
  <property name="meta.attr.1.stream.handler_name.markup">ISO Media file produced by Google Inc.</property>
  <property name="meta.attr.major_brand.markup">mp42</property>
  <property name="meta.attr.minor_version.markup">0</property>
  <property name="meta.attr.compatible_brands.markup">isommp42</property>
  <property name="meta.attr.creation_time.markup">2021-08-07T12:48:01.000000Z</property>
  <property name="meta.attr.location.markup">+50.4807+14.0820/</property>
  <property name="meta.media.sample_aspect_num">1</property>
  <property name="meta.media.sample_aspect_den">1</property>
  <property name="meta.media.frame_rate_num">30</property>
  <property name="meta.media.frame_rate_den">1</property>
  <property name="meta.media.colorspace">601</property>
  <property name="meta.media.color_trc">1</property>
  <property name="meta.media.has_b_frames">0</property>
  <property name="meta.media.width">1920</property>
  <property name="meta.media.height">1080</property>
  <property name="meta.media.color_range">mpeg</property>
 </producer>
 <producer id="producer32" in="00:00:00.000" out="00:00:37.800">
  <property name="length">1135</property>
  <property name="eof">pause</property>
  <property name="resource">fede/PXL_20210808_072448191.mp4</property>
  <property name="audio_index">1</property>
  <property name="video_index">0</property>
  <property name="mute_on_pause">0</property>
  <property name="mlt_service">avformat-novalidate</property>
  <property name="seekable">1</property>
  <property name="aspect_ratio">1</property>
  <property name="kdenlive:clipname"/>
  <property name="kdenlive:folderid">31</property>
  <property name="kdenlive:id">36</property>
  <property name="kdenlive:file_size">58119218</property>
  <property name="kdenlive:file_hash">22624c8e3281b0b7a1c33c4dbe5949a1</property>
  <property name="kdenlive:audio_max1">170</property>
  <property name="meta.media.nb_streams">2</property>
  <property name="meta.media.0.stream.type">video</property>
  <property name="meta.media.0.stream.frame_rate">30</property>
  <property name="meta.media.0.stream.sample_aspect_ratio">0</property>
  <property name="meta.media.0.codec.width">1920</property>
  <property name="meta.media.0.codec.height">1080</property>
  <property name="meta.media.0.codec.rotate">0</property>
  <property name="meta.media.0.codec.pix_fmt">yuv420p</property>
  <property name="meta.media.0.codec.sample_aspect_ratio">1</property>
  <property name="meta.media.0.codec.colorspace">601</property>
  <property name="meta.media.0.codec.color_trc">1</property>
  <property name="meta.media.0.codec.name">h264</property>
  <property name="meta.media.0.codec.long_name">H.264 / AVC / MPEG-4 AVC / MPEG-4 part 10</property>
  <property name="meta.media.0.codec.bit_rate">12180238</property>
  <property name="meta.attr.0.stream.creation_time.markup">1970-01-01T00:00:00.000000Z</property>
  <property name="meta.attr.0.stream.handler_name.markup">ISO Media file produced by Google Inc.</property>
  <property name="meta.media.1.stream.type">audio</property>
  <property name="meta.media.1.codec.sample_fmt">fltp</property>
  <property name="meta.media.1.codec.sample_rate">44100</property>
  <property name="meta.media.1.codec.channels">2</property>
  <property name="meta.media.1.codec.name">aac</property>
  <property name="meta.media.1.codec.long_name">AAC (Advanced Audio Coding)</property>
  <property name="meta.media.1.codec.bit_rate">127999</property>
  <property name="meta.attr.1.stream.creation_time.markup">1970-01-01T00:00:00.000000Z</property>
  <property name="meta.attr.1.stream.language.markup">eng</property>
  <property name="meta.attr.1.stream.handler_name.markup">ISO Media file produced by Google Inc.</property>
  <property name="meta.attr.major_brand.markup">mp42</property>
  <property name="meta.attr.minor_version.markup">0</property>
  <property name="meta.attr.compatible_brands.markup">isommp42</property>
  <property name="meta.attr.creation_time.markup">2021-08-08T07:25:27.000000Z</property>
  <property name="meta.attr.location.markup">+49.7780+14.6723/</property>
  <property name="meta.media.sample_aspect_num">1</property>
  <property name="meta.media.sample_aspect_den">1</property>
  <property name="meta.media.frame_rate_num">30</property>
  <property name="meta.media.frame_rate_den">1</property>
  <property name="meta.media.colorspace">601</property>
  <property name="meta.media.color_trc">1</property>
  <property name="meta.media.has_b_frames">0</property>
  <property name="meta.media.width">1920</property>
  <property name="meta.media.height">1080</property>
  <property name="meta.media.color_range">mpeg</property>
 </producer>
 <producer id="producer33" in="00:00:00.000" out="00:00:02.633">
  <property name="length">80</property>
  <property name="eof">pause</property>
  <property name="resource">ambos/PXL_20210809_185517881.mp4</property>
  <property name="audio_index">0</property>
  <property name="video_index">1</property>
  <property name="mute_on_pause">0</property>
  <property name="mlt_service">avformat-novalidate</property>
  <property name="meta.media.nb_streams">2</property>
  <property name="meta.media.0.stream.type">audio</property>
  <property name="meta.media.0.codec.sample_fmt">fltp</property>
  <property name="meta.media.0.codec.sample_rate">48000</property>
  <property name="meta.media.0.codec.channels">2</property>
  <property name="meta.media.0.codec.name">aac</property>
  <property name="meta.media.0.codec.long_name">AAC (Advanced Audio Coding)</property>
  <property name="meta.media.0.codec.bit_rate">190923</property>
  <property name="meta.attr.0.stream.creation_time.markup">2021-08-09T18:55:21.000000Z</property>
  <property name="meta.attr.0.stream.language.markup">eng</property>
  <property name="meta.attr.0.stream.handler_name.markup">SoundHandle</property>
  <property name="meta.media.1.stream.type">video</property>
  <property name="meta.media.1.stream.frame_rate">29.9813</property>
  <property name="meta.media.1.stream.sample_aspect_ratio">1</property>
  <property name="meta.media.1.codec.width">1920</property>
  <property name="meta.media.1.codec.height">1080</property>
  <property name="meta.media.1.codec.rotate">0</property>
  <property name="meta.media.1.codec.pix_fmt">yuvj420p</property>
  <property name="meta.media.1.codec.sample_aspect_ratio">0</property>
  <property name="meta.media.1.codec.colorspace">601</property>
  <property name="meta.media.1.codec.color_trc">6</property>
  <property name="meta.media.1.codec.name">h264</property>
  <property name="meta.media.1.codec.long_name">H.264 / AVC / MPEG-4 AVC / MPEG-4 part 10</property>
  <property name="meta.media.1.codec.bit_rate">21000938</property>
  <property name="meta.attr.1.stream.creation_time.markup">2021-08-09T18:55:21.000000Z</property>
  <property name="meta.attr.1.stream.language.markup">eng</property>
  <property name="meta.attr.1.stream.handler_name.markup">VideoHandle</property>
  <property name="meta.attr.major_brand.markup">mp42</property>
  <property name="meta.attr.minor_version.markup">0</property>
  <property name="meta.attr.compatible_brands.markup">isommp42</property>
  <property name="meta.attr.creation_time.markup">2021-08-09T18:55:21.000000Z</property>
  <property name="meta.attr.location.markup">+49.7771+14.6750/</property>
  <property name="meta.attr.location-eng.markup">+49.7771+14.6750/</property>
  <property name="meta.attr.com.android.capture.fps.markup">30.000000</property>
  <property name="seekable">1</property>
  <property name="meta.media.sample_aspect_num">1</property>
  <property name="meta.media.sample_aspect_den">1</property>
  <property name="aspect_ratio">1</property>
  <property name="kdenlive:clipname"/>
  <property name="kdenlive:folderid">43</property>
  <property name="meta.media.frame_rate_num">48000</property>
  <property name="meta.media.frame_rate_den">1601</property>
  <property name="meta.media.colorspace">601</property>
  <property name="meta.media.color_trc">6</property>
  <property name="meta.media.has_b_frames">0</property>
  <property name="meta.media.width">1920</property>
  <property name="meta.media.height">1080</property>
  <property name="meta.media.color_range">full</property>
  <property name="kdenlive:id">37</property>
  <property name="kdenlive:file_size">7070150</property>
  <property name="kdenlive:file_hash">9cf305d5d77076217589e051dddbebeb</property>
  <property name="meta.media.top_field_first">0</property>
  <property name="meta.media.progressive">1</property>
  <property name="kdenlive:audio_max0">199</property>
 </producer>
 <producer id="producer34" in="00:00:00.000" out="00:00:21.200">
  <property name="length">637</property>
  <property name="eof">pause</property>
  <property name="resource">ambos/PXL_20210809_185445601.mp4</property>
  <property name="audio_index">0</property>
  <property name="video_index">1</property>
  <property name="mute_on_pause">0</property>
  <property name="mlt_service">avformat-novalidate</property>
  <property name="meta.media.nb_streams">2</property>
  <property name="meta.media.0.stream.type">audio</property>
  <property name="meta.media.0.codec.sample_fmt">fltp</property>
  <property name="meta.media.0.codec.sample_rate">48000</property>
  <property name="meta.media.0.codec.channels">2</property>
  <property name="meta.media.0.codec.name">aac</property>
  <property name="meta.media.0.codec.long_name">AAC (Advanced Audio Coding)</property>
  <property name="meta.media.0.codec.bit_rate">191779</property>
  <property name="meta.attr.0.stream.creation_time.markup">2021-08-09T18:55:08.000000Z</property>
  <property name="meta.attr.0.stream.language.markup">eng</property>
  <property name="meta.attr.0.stream.handler_name.markup">SoundHandle</property>
  <property name="meta.media.1.stream.type">video</property>
  <property name="meta.media.1.stream.frame_rate">24.5788</property>
  <property name="meta.media.1.stream.sample_aspect_ratio">1</property>
  <property name="meta.media.1.codec.width">1920</property>
  <property name="meta.media.1.codec.height">1080</property>
  <property name="meta.media.1.codec.rotate">0</property>
  <property name="meta.media.1.codec.pix_fmt">yuvj420p</property>
  <property name="meta.media.1.codec.sample_aspect_ratio">0</property>
  <property name="meta.media.1.codec.colorspace">601</property>
  <property name="meta.media.1.codec.color_trc">6</property>
  <property name="meta.media.1.codec.name">h264</property>
  <property name="meta.media.1.codec.long_name">H.264 / AVC / MPEG-4 AVC / MPEG-4 part 10</property>
  <property name="meta.media.1.codec.bit_rate">17103044</property>
  <property name="meta.attr.1.stream.creation_time.markup">2021-08-09T18:55:08.000000Z</property>
  <property name="meta.attr.1.stream.language.markup">eng</property>
  <property name="meta.attr.1.stream.handler_name.markup">VideoHandle</property>
  <property name="meta.attr.major_brand.markup">mp42</property>
  <property name="meta.attr.minor_version.markup">0</property>
  <property name="meta.attr.compatible_brands.markup">isommp42</property>
  <property name="meta.attr.creation_time.markup">2021-08-09T18:55:08.000000Z</property>
  <property name="meta.attr.location.markup">+49.7771+14.6750/</property>
  <property name="meta.attr.location-eng.markup">+49.7771+14.6750/</property>
  <property name="meta.attr.com.android.capture.fps.markup">30.000000</property>
  <property name="seekable">1</property>
  <property name="meta.media.sample_aspect_num">1</property>
  <property name="meta.media.sample_aspect_den">1</property>
  <property name="aspect_ratio">1</property>
  <property name="kdenlive:clipname"/>
  <property name="kdenlive:folderid">43</property>
  <property name="meta.media.frame_rate_num">3132000</property>
  <property name="meta.media.frame_rate_den">127427</property>
  <property name="meta.media.colorspace">601</property>
  <property name="meta.media.color_trc">6</property>
  <property name="meta.media.has_b_frames">0</property>
  <property name="meta.media.width">1920</property>
  <property name="meta.media.height">1080</property>
  <property name="meta.media.color_range">full</property>
  <property name="kdenlive:id">38</property>
  <property name="kdenlive:file_size">45922673</property>
  <property name="kdenlive:file_hash">8372eb756f224688158f68fbe468ad9b</property>
  <property name="kdenlive:audio_max0">211</property>
 </producer>
 <producer id="producer35" in="00:00:00.000" out="00:00:35.300">
  <property name="length">1060</property>
  <property name="eof">pause</property>
  <property name="resource">ambos/PXL_20210809_185358901.mp4</property>
  <property name="audio_index">0</property>
  <property name="video_index">1</property>
  <property name="mute_on_pause">0</property>
  <property name="mlt_service">avformat-novalidate</property>
  <property name="meta.media.nb_streams">2</property>
  <property name="meta.media.0.stream.type">audio</property>
  <property name="meta.media.0.codec.sample_fmt">fltp</property>
  <property name="meta.media.0.codec.sample_rate">48000</property>
  <property name="meta.media.0.codec.channels">2</property>
  <property name="meta.media.0.codec.name">aac</property>
  <property name="meta.media.0.codec.long_name">AAC (Advanced Audio Coding)</property>
  <property name="meta.media.0.codec.bit_rate">191908</property>
  <property name="meta.attr.0.stream.creation_time.markup">2021-08-09T18:54:35.000000Z</property>
  <property name="meta.attr.0.stream.language.markup">eng</property>
  <property name="meta.attr.0.stream.handler_name.markup">SoundHandle</property>
  <property name="meta.media.1.stream.type">video</property>
  <property name="meta.media.1.stream.frame_rate">24.4313</property>
  <property name="meta.media.1.stream.sample_aspect_ratio">1</property>
  <property name="meta.media.1.codec.width">1920</property>
  <property name="meta.media.1.codec.height">1080</property>
  <property name="meta.media.1.codec.rotate">0</property>
  <property name="meta.media.1.codec.pix_fmt">yuvj420p</property>
  <property name="meta.media.1.codec.sample_aspect_ratio">0</property>
  <property name="meta.media.1.codec.colorspace">601</property>
  <property name="meta.media.1.codec.color_trc">6</property>
  <property name="meta.media.1.codec.name">h264</property>
  <property name="meta.media.1.codec.long_name">H.264 / AVC / MPEG-4 AVC / MPEG-4 part 10</property>
  <property name="meta.media.1.codec.bit_rate">21982355</property>
  <property name="meta.attr.1.stream.creation_time.markup">2021-08-09T18:54:35.000000Z</property>
  <property name="meta.attr.1.stream.language.markup">eng</property>
  <property name="meta.attr.1.stream.handler_name.markup">VideoHandle</property>
  <property name="meta.attr.major_brand.markup">mp42</property>
  <property name="meta.attr.minor_version.markup">0</property>
  <property name="meta.attr.compatible_brands.markup">isommp42</property>
  <property name="meta.attr.creation_time.markup">2021-08-09T18:54:35.000000Z</property>
  <property name="meta.attr.location.markup">+49.7771+14.6750/</property>
  <property name="meta.attr.location-eng.markup">+49.7771+14.6750/</property>
  <property name="meta.attr.com.android.capture.fps.markup">30.000000</property>
  <property name="seekable">1</property>
  <property name="meta.media.sample_aspect_num">1</property>
  <property name="meta.media.sample_aspect_den">1</property>
  <property name="aspect_ratio">1</property>
  <property name="kdenlive:clipname"/>
  <property name="kdenlive:folderid">43</property>
  <property name="meta.media.frame_rate_num">77670000</property>
  <property name="meta.media.frame_rate_den">3179117</property>
  <property name="meta.media.colorspace">601</property>
  <property name="meta.media.color_trc">6</property>
  <property name="meta.media.has_b_frames">0</property>
  <property name="meta.media.width">1920</property>
  <property name="meta.media.height">1080</property>
  <property name="meta.media.color_range">full</property>
  <property name="kdenlive:id">39</property>
  <property name="kdenlive:file_size">97924365</property>
  <property name="kdenlive:file_hash">7529cdb102002909cb4edd5d3460910b</property>
  <property name="meta.media.variable_frame_rate">1</property>
  <property name="meta.media.top_field_first">0</property>
  <property name="meta.media.progressive">1</property>
  <property name="kdenlive:audio_max0">210</property>
 </producer>
 <producer id="producer36" in="00:00:00.000" out="00:00:24.767">
  <property name="length">744</property>
  <property name="eof">pause</property>
  <property name="resource">ambos/PXL_20210809_185329305.mp4</property>
  <property name="audio_index">0</property>
  <property name="video_index">1</property>
  <property name="mute_on_pause">0</property>
  <property name="mlt_service">avformat-novalidate</property>
  <property name="meta.media.nb_streams">2</property>
  <property name="meta.media.0.stream.type">audio</property>
  <property name="meta.media.0.codec.sample_fmt">fltp</property>
  <property name="meta.media.0.codec.sample_rate">48000</property>
  <property name="meta.media.0.codec.channels">2</property>
  <property name="meta.media.0.codec.name">aac</property>
  <property name="meta.media.0.codec.long_name">AAC (Advanced Audio Coding)</property>
  <property name="meta.media.0.codec.bit_rate">191850</property>
  <property name="meta.attr.0.stream.creation_time.markup">2021-08-09T18:53:55.000000Z</property>
  <property name="meta.attr.0.stream.language.markup">eng</property>
  <property name="meta.attr.0.stream.handler_name.markup">SoundHandle</property>
  <property name="meta.media.1.stream.type">video</property>
  <property name="meta.media.1.stream.frame_rate">24.2262</property>
  <property name="meta.media.1.stream.sample_aspect_ratio">1</property>
  <property name="meta.media.1.codec.width">1920</property>
  <property name="meta.media.1.codec.height">1080</property>
  <property name="meta.media.1.codec.rotate">0</property>
  <property name="meta.media.1.codec.pix_fmt">yuvj420p</property>
  <property name="meta.media.1.codec.sample_aspect_ratio">0</property>
  <property name="meta.media.1.codec.colorspace">601</property>
  <property name="meta.media.1.codec.color_trc">6</property>
  <property name="meta.media.1.codec.name">h264</property>
  <property name="meta.media.1.codec.long_name">H.264 / AVC / MPEG-4 AVC / MPEG-4 part 10</property>
  <property name="meta.media.1.codec.bit_rate">21951152</property>
  <property name="meta.attr.1.stream.creation_time.markup">2021-08-09T18:53:55.000000Z</property>
  <property name="meta.attr.1.stream.language.markup">eng</property>
  <property name="meta.attr.1.stream.handler_name.markup">VideoHandle</property>
  <property name="meta.attr.major_brand.markup">mp42</property>
  <property name="meta.attr.minor_version.markup">0</property>
  <property name="meta.attr.compatible_brands.markup">isommp42</property>
  <property name="meta.attr.creation_time.markup">2021-08-09T18:53:55.000000Z</property>
  <property name="meta.attr.location.markup">+49.7771+14.6750/</property>
  <property name="meta.attr.location-eng.markup">+49.7771+14.6750/</property>
  <property name="meta.attr.com.android.capture.fps.markup">30.000000</property>
  <property name="seekable">1</property>
  <property name="meta.media.sample_aspect_num">1</property>
  <property name="meta.media.sample_aspect_den">1</property>
  <property name="aspect_ratio">1</property>
  <property name="kdenlive:clipname"/>
  <property name="kdenlive:folderid">43</property>
  <property name="meta.media.frame_rate_num">27045000</property>
  <property name="meta.media.frame_rate_den">1116353</property>
  <property name="meta.media.colorspace">601</property>
  <property name="meta.media.color_trc">6</property>
  <property name="meta.media.has_b_frames">0</property>
  <property name="meta.media.width">1920</property>
  <property name="meta.media.height">1080</property>
  <property name="meta.media.color_range">full</property>
  <property name="kdenlive:id">40</property>
  <property name="kdenlive:file_size">68676923</property>
  <property name="kdenlive:file_hash">a9ff35bdad68f6753f73ab68c921c617</property>
  <property name="meta.media.top_field_first">0</property>
  <property name="meta.media.progressive">1</property>
  <property name="kdenlive:audio_max0">211</property>
 </producer>
 <producer id="producer37" in="00:00:00.000" out="00:00:36.333">
  <property name="length">1091</property>
  <property name="eof">pause</property>
  <property name="resource">ambos/PXL_20210809_182951192.mp4</property>
  <property name="audio_index">0</property>
  <property name="video_index">1</property>
  <property name="mute_on_pause">0</property>
  <property name="mlt_service">avformat-novalidate</property>
  <property name="meta.media.nb_streams">2</property>
  <property name="meta.media.0.stream.type">audio</property>
  <property name="meta.media.0.codec.sample_fmt">fltp</property>
  <property name="meta.media.0.codec.sample_rate">48000</property>
  <property name="meta.media.0.codec.channels">2</property>
  <property name="meta.media.0.codec.name">aac</property>
  <property name="meta.media.0.codec.long_name">AAC (Advanced Audio Coding)</property>
  <property name="meta.media.0.codec.bit_rate">189837</property>
  <property name="meta.attr.0.stream.rotate.markup">180</property>
  <property name="meta.attr.0.stream.creation_time.markup">2021-08-09T18:30:28.000000Z</property>
  <property name="meta.attr.0.stream.language.markup">eng</property>
  <property name="meta.attr.0.stream.handler_name.markup">SoundHandle</property>
  <property name="meta.media.1.stream.type">video</property>
  <property name="meta.media.1.stream.frame_rate">29.6732</property>
  <property name="meta.media.1.stream.sample_aspect_ratio">1</property>
  <property name="meta.media.1.codec.width">1920</property>
  <property name="meta.media.1.codec.height">1080</property>
  <property name="meta.media.1.codec.rotate">180</property>
  <property name="meta.media.1.codec.pix_fmt">yuvj420p</property>
  <property name="meta.media.1.codec.sample_aspect_ratio">0</property>
  <property name="meta.media.1.codec.colorspace">601</property>
  <property name="meta.media.1.codec.color_trc">6</property>
  <property name="meta.media.1.codec.name">h264</property>
  <property name="meta.media.1.codec.long_name">H.264 / AVC / MPEG-4 AVC / MPEG-4 part 10</property>
  <property name="meta.media.1.codec.bit_rate">15429360</property>
  <property name="meta.attr.1.stream.rotate.markup">180</property>
  <property name="meta.attr.1.stream.creation_time.markup">2021-08-09T18:30:28.000000Z</property>
  <property name="meta.attr.1.stream.language.markup">eng</property>
  <property name="meta.attr.1.stream.handler_name.markup">VideoHandle</property>
  <property name="meta.attr.major_brand.markup">mp42</property>
  <property name="meta.attr.minor_version.markup">0</property>
  <property name="meta.attr.compatible_brands.markup">isommp42</property>
  <property name="meta.attr.creation_time.markup">2021-08-09T18:30:28.000000Z</property>
  <property name="meta.attr.location.markup">+49.7760+14.6761/</property>
  <property name="meta.attr.location-eng.markup">+49.7760+14.6761/</property>
  <property name="meta.attr.com.android.capture.fps.markup">30.000000</property>
  <property name="seekable">1</property>
  <property name="meta.media.sample_aspect_num">1</property>
  <property name="meta.media.sample_aspect_den">1</property>
  <property name="aspect_ratio">1</property>
  <property name="kdenlive:clipname"/>
  <property name="kdenlive:folderid">43</property>
  <property name="meta.media.frame_rate_num">19422000</property>
  <property name="meta.media.frame_rate_den">654529</property>
  <property name="meta.media.colorspace">601</property>
  <property name="meta.media.color_trc">6</property>
  <property name="meta.media.has_b_frames">0</property>
  <property name="meta.media.width">1920</property>
  <property name="meta.media.height">1080</property>
  <property name="meta.media.color_range">full</property>
  <property name="kdenlive:id">41</property>
  <property name="kdenlive:file_size">71010584</property>
  <property name="kdenlive:file_hash">b54680353acd7a0d6ff80350a92d353f</property>
  <property name="meta.media.variable_frame_rate">1</property>
  <property name="meta.media.top_field_first">0</property>
  <property name="meta.media.progressive">1</property>
  <property name="kdenlive:audio_max0">213</property>
 </producer>
 <producer id="producer39" in="00:00:00.000" out="00:00:03.733">
  <property name="length">113</property>
  <property name="eof">pause</property>
  <property name="resource">ambos/PXL_20210809_182946125.mp4</property>
  <property name="audio_index">0</property>
  <property name="video_index">1</property>
  <property name="mute_on_pause">0</property>
  <property name="mlt_service">avformat-novalidate</property>
  <property name="meta.media.nb_streams">2</property>
  <property name="meta.media.0.stream.type">audio</property>
  <property name="meta.media.0.codec.sample_fmt">fltp</property>
  <property name="meta.media.0.codec.sample_rate">48000</property>
  <property name="meta.media.0.codec.channels">2</property>
  <property name="meta.media.0.codec.name">aac</property>
  <property name="meta.media.0.codec.long_name">AAC (Advanced Audio Coding)</property>
  <property name="meta.media.0.codec.bit_rate">190427</property>
  <property name="meta.attr.0.stream.rotate.markup">180</property>
  <property name="meta.attr.0.stream.creation_time.markup">2021-08-09T18:29:51.000000Z</property>
  <property name="meta.attr.0.stream.language.markup">eng</property>
  <property name="meta.attr.0.stream.handler_name.markup">SoundHandle</property>
  <property name="meta.media.1.stream.type">video</property>
  <property name="meta.media.1.stream.frame_rate">30.1108</property>
  <property name="meta.media.1.stream.sample_aspect_ratio">1</property>
  <property name="meta.media.1.codec.width">1920</property>
  <property name="meta.media.1.codec.height">1080</property>
  <property name="meta.media.1.codec.rotate">180</property>
  <property name="meta.media.1.codec.pix_fmt">yuvj420p</property>
  <property name="meta.media.1.codec.sample_aspect_ratio">0</property>
  <property name="meta.media.1.codec.colorspace">601</property>
  <property name="meta.media.1.codec.color_trc">6</property>
  <property name="meta.media.1.codec.name">h264</property>
  <property name="meta.media.1.codec.long_name">H.264 / AVC / MPEG-4 AVC / MPEG-4 part 10</property>
  <property name="meta.media.1.codec.bit_rate">16152721</property>
  <property name="meta.attr.1.stream.rotate.markup">180</property>
  <property name="meta.attr.1.stream.creation_time.markup">2021-08-09T18:29:51.000000Z</property>
  <property name="meta.attr.1.stream.language.markup">eng</property>
  <property name="meta.attr.1.stream.handler_name.markup">VideoHandle</property>
  <property name="meta.attr.major_brand.markup">mp42</property>
  <property name="meta.attr.minor_version.markup">0</property>
  <property name="meta.attr.compatible_brands.markup">isommp42</property>
  <property name="meta.attr.creation_time.markup">2021-08-09T18:29:51.000000Z</property>
  <property name="meta.attr.location.markup">+49.7760+14.6761/</property>
  <property name="meta.attr.location-eng.markup">+49.7760+14.6761/</property>
  <property name="meta.attr.com.android.capture.fps.markup">30.000000</property>
  <property name="seekable">1</property>
  <property name="meta.media.sample_aspect_num">1</property>
  <property name="meta.media.sample_aspect_den">1</property>
  <property name="aspect_ratio">1</property>
  <property name="kdenlive:clipname"/>
  <property name="kdenlive:folderid">43</property>
  <property name="meta.media.frame_rate_num">10170000</property>
  <property name="meta.media.frame_rate_den">337753</property>
  <property name="meta.media.colorspace">601</property>
  <property name="meta.media.color_trc">6</property>
  <property name="meta.media.has_b_frames">0</property>
  <property name="meta.media.width">1920</property>
  <property name="meta.media.height">1080</property>
  <property name="meta.media.color_range">full</property>
  <property name="kdenlive:id">42</property>
  <property name="kdenlive:file_size">7668961</property>
  <property name="kdenlive:file_hash">852cff074eda285b782627be7f341a63</property>
  <property name="kdenlive:audio_max0">205</property>
  <property name="meta.media.variable_frame_rate">1</property>
  <property name="meta.media.top_field_first">0</property>
  <property name="meta.media.progressive">1</property>
 </producer>
 <producer id="producer38" in="00:00:00.000" out="00:00:16.200">
  <property name="length">487</property>
  <property name="eof">pause</property>
  <property name="resource">ambos/PXL_20210809_182914096.mp4</property>
  <property name="audio_index">0</property>
  <property name="video_index">1</property>
  <property name="mute_on_pause">0</property>
  <property name="mlt_service">avformat-novalidate</property>
  <property name="meta.media.nb_streams">2</property>
  <property name="meta.media.0.stream.type">audio</property>
  <property name="meta.media.0.codec.sample_fmt">fltp</property>
  <property name="meta.media.0.codec.sample_rate">48000</property>
  <property name="meta.media.0.codec.channels">2</property>
  <property name="meta.media.0.codec.name">aac</property>
  <property name="meta.media.0.codec.long_name">AAC (Advanced Audio Coding)</property>
  <property name="meta.media.0.codec.bit_rate">191804</property>
  <property name="meta.attr.0.stream.creation_time.markup">2021-08-09T18:29:31.000000Z</property>
  <property name="meta.attr.0.stream.language.markup">eng</property>
  <property name="meta.attr.0.stream.handler_name.markup">SoundHandle</property>
  <property name="meta.media.1.stream.type">video</property>
  <property name="meta.media.1.stream.frame_rate">30.0312</property>
  <property name="meta.media.1.stream.sample_aspect_ratio">1</property>
  <property name="meta.media.1.codec.width">1920</property>
  <property name="meta.media.1.codec.height">1080</property>
  <property name="meta.media.1.codec.rotate">0</property>
  <property name="meta.media.1.codec.pix_fmt">yuvj420p</property>
  <property name="meta.media.1.codec.sample_aspect_ratio">0</property>
  <property name="meta.media.1.codec.colorspace">601</property>
  <property name="meta.media.1.codec.color_trc">6</property>
  <property name="meta.media.1.codec.name">h264</property>
  <property name="meta.media.1.codec.long_name">H.264 / AVC / MPEG-4 AVC / MPEG-4 part 10</property>
  <property name="meta.media.1.codec.bit_rate">15257769</property>
  <property name="meta.attr.1.stream.creation_time.markup">2021-08-09T18:29:31.000000Z</property>
  <property name="meta.attr.1.stream.language.markup">eng</property>
  <property name="meta.attr.1.stream.handler_name.markup">VideoHandle</property>
  <property name="meta.attr.major_brand.markup">mp42</property>
  <property name="meta.attr.minor_version.markup">0</property>
  <property name="meta.attr.compatible_brands.markup">isommp42</property>
  <property name="meta.attr.creation_time.markup">2021-08-09T18:29:31.000000Z</property>
  <property name="meta.attr.location.markup">+49.7760+14.6761/</property>
  <property name="meta.attr.location-eng.markup">+49.7760+14.6761/</property>
  <property name="meta.attr.com.android.capture.fps.markup">30.000000</property>
  <property name="seekable">1</property>
  <property name="meta.media.sample_aspect_num">1</property>
  <property name="meta.media.sample_aspect_den">1</property>
  <property name="aspect_ratio">1</property>
  <property name="kdenlive:clipname"/>
  <property name="kdenlive:folderid">43</property>
  <property name="meta.media.frame_rate_num">43920000</property>
  <property name="meta.media.frame_rate_den">1462477</property>
  <property name="meta.media.colorspace">601</property>
  <property name="meta.media.color_trc">6</property>
  <property name="meta.media.has_b_frames">0</property>
  <property name="meta.media.width">1920</property>
  <property name="meta.media.height">1080</property>
  <property name="meta.media.color_range">full</property>
  <property name="kdenlive:id">44</property>
  <property name="kdenlive:file_size">31388833</property>
  <property name="kdenlive:file_hash">0e53352419628b0cab363f9caaa45bab</property>
  <property name="meta.media.variable_frame_rate">1</property>
  <property name="meta.media.top_field_first">0</property>
  <property name="meta.media.progressive">1</property>
  <property name="kdenlive:audio_max0">206</property>
 </producer>
 <producer id="producer40" in="00:00:00.000" out="00:00:04.967">
  <property name="length">150</property>
  <property name="eof">pause</property>
  <property name="resource">/opt/vlog/graficas/white_noise.mlt</property>
  <property name="aspect_ratio">1</property>
  <property name="mlt_service">consumer</property>
  <property name="kdenlive:clipname"/>
  <property name="kdenlive:folderid">45</property>
  <property name="kdenlive:id">46</property>
  <property name="kdenlive:file_size">809</property>
  <property name="kdenlive:file_hash">f18145093b3723f72c07dc807d65bb84</property>
  <property name="kdenlive:audio_max0">234</property>
 </producer>
 <producer id="producer41" in="00:00:00.000" out="00:00:04.900">
  <property name="length">148</property>
  <property name="eof">pause</property>
  <property name="resource">/opt/vlog/graficas/ThunderGuanacoArriba.kdenlivetitle</property>
  <property name="progressive">1</property>
  <property name="aspect_ratio">1</property>
  <property name="seekable">1</property>
  <property name="mlt_service">kdenlivetitle</property>
  <property name="kdenlive:duration">148</property>
  <property name="kdenlive:clipname"/>
  <property name="kdenlive:folderid">45</property>
  <property name="kdenlive:id">47</property>
  <property name="kdenlive:file_hash">8cfe0a21e71c0376848577edd24e7d24</property>
 </producer>
 <producer id="producer42" in="00:00:00.000" out="00:00:04.967">
  <property name="length">150</property>
  <property name="eof">pause</property>
  <property name="resource">/opt/vlog/graficas/ThunderGuanaco.kdenlivetitle</property>
  <property name="progressive">1</property>
  <property name="aspect_ratio">1</property>
  <property name="seekable">1</property>
  <property name="mlt_service">kdenlivetitle</property>
  <property name="kdenlive:duration">150</property>
  <property name="kdenlive:clipname"/>
  <property name="kdenlive:folderid">45</property>
  <property name="kdenlive:id">48</property>
  <property name="kdenlive:file_hash">5b23d34e1e02b6ee0d48862a10f343dd</property>
 </producer>
 <playlist id="main_bin">
  <property name="kdenlive:folder.-1.2">Manolo</property>
  <property name="kdenlive:folder.-1.31">Fede</property>
  <property name="kdenlive:folder.-1.43">Ambos</property>
  <property name="kdenlive:folder.-1.45">titles</property>
  <property name="kdenlive:docproperties.activeTrack">2</property>
  <property name="kdenlive:docproperties.audioChannels">2</property>
  <property name="kdenlive:docproperties.audioTarget">-1</property>
  <property name="kdenlive:docproperties.disablepreview">0</property>
  <property name="kdenlive:docproperties.documentid">1641722622894</property>
  <property name="kdenlive:docproperties.enableTimelineZone">0</property>
  <property name="kdenlive:docproperties.enableexternalproxy">0</property>
  <property name="kdenlive:docproperties.enableproxy">0</property>
  <property name="kdenlive:docproperties.externalproxyparams"/>
  <property name="kdenlive:docproperties.generateimageproxy">0</property>
  <property name="kdenlive:docproperties.generateproxy">0</property>
  <property name="kdenlive:docproperties.groups">[
    {
        "children": [
            {
                "data": "4:1983",
                "leaf": "clip",
                "type": "Leaf"
            },
            {
                "data": "5:1983",
                "leaf": "clip",
                "type": "Leaf"
            }
        ],
        "type": "AVSplit"
    },
    {
        "children": [
            {
                "data": "0:2037",
                "leaf": "clip",
                "type": "Leaf"
            },
            {
                "data": "1:2037",
                "leaf": "clip",
                "type": "Leaf"
            }
        ],
        "type": "AVSplit"
    },
    {
        "children": [
            {
                "data": "5:18127",
                "leaf": "clip",
                "type": "Leaf"
            },
            {
                "data": "4:18127",
                "leaf": "clip",
                "type": "Leaf"
            }
        ],
        "type": "AVSplit"
    },
    {
        "children": [
            {
                "data": "5:13754",
                "leaf": "clip",
                "type": "Leaf"
            },
            {
                "data": "4:13754",
                "leaf": "clip",
                "type": "Leaf"
            },
            {
                "data": "4:13693",
                "leaf": "clip",
                "type": "Leaf"
            },
            {
                "data": "5:13416",
                "leaf": "clip",
                "type": "Leaf"
            },
            {
                "data": "4:13716",
                "leaf": "clip",
                "type": "Leaf"
            },
            {
                "data": "4:13416",
                "leaf": "clip",
                "type": "Leaf"
            }
        ],
        "type": "Normal"
    },
    {
        "children": [
            {
                "data": "5:13884",
                "leaf": "clip",
                "type": "Leaf"
            },
            {
                "data": "4:13884",
                "leaf": "clip",
                "type": "Leaf"
            }
        ],
        "type": "AVSplit"
    },
    {
        "children": [
            {
                "data": "5:15574",
                "leaf": "clip",
                "type": "Leaf"
            },
            {
                "data": "4:15574",
                "leaf": "clip",
                "type": "Leaf"
            }
        ],
        "type": "AVSplit"
    },
    {
        "children": [
            {
                "data": "5:17152",
                "leaf": "clip",
                "type": "Leaf"
            },
            {
                "data": "4:17152",
                "leaf": "clip",
                "type": "Leaf"
            }
        ],
        "type": "AVSplit"
    },
    {
        "children": [
            {
                "data": "5:17601",
                "leaf": "clip",
                "type": "Leaf"
            },
            {
                "data": "4:17601",
                "leaf": "clip",
                "type": "Leaf"
            }
        ],
        "type": "AVSplit"
    },
    {
        "children": [
            {
                "data": "5:18764",
                "leaf": "clip",
                "type": "Leaf"
            },
            {
                "data": "4:18764",
                "leaf": "clip",
                "type": "Leaf"
            }
        ],
        "type": "AVSplit"
    },
    {
        "children": [
            {
                "data": "5:16061",
                "leaf": "clip",
                "type": "Leaf"
            },
            {
                "data": "4:16061",
                "leaf": "clip",
                "type": "Leaf"
            }
        ],
        "type": "AVSplit"
    },
    {
        "children": [
            {
                "data": "4:4622",
                "leaf": "clip",
                "type": "Leaf"
            },
            {
                "data": "5:4622",
                "leaf": "clip",
                "type": "Leaf"
            }
        ],
        "type": "AVSplit"
    },
    {
        "children": [
            {
                "data": "5:4866",
                "leaf": "clip",
                "type": "Leaf"
            },
            {
                "data": "4:4866",
                "leaf": "clip",
                "type": "Leaf"
            }
        ],
        "type": "AVSplit"
    },
    {
        "children": [
            {
                "data": "0:2435",
                "leaf": "clip",
                "type": "Leaf"
            },
            {
                "data": "1:2435",
                "leaf": "clip",
                "type": "Leaf"
            }
        ],
        "type": "AVSplit"
    },
    {
        "children": [
            {
                "data": "5:13028",
                "leaf": "clip",
                "type": "Leaf"
            },
            {
                "data": "4:13028",
                "leaf": "clip",
                "type": "Leaf"
            }
        ],
        "type": "AVSplit"
    },
    {
        "children": [
            {
                "data": "1:2717",
                "leaf": "clip",
                "type": "Leaf"
            },
            {
                "data": "0:2717",
                "leaf": "clip",
                "type": "Leaf"
            }
        ],
        "type": "AVSplit"
    },
    {
        "children": [
            {
                "data": "4:13236",
                "leaf": "clip",
                "type": "Leaf"
            },
            {
                "data": "5:13236",
                "leaf": "clip",
                "type": "Leaf"
            }
        ],
        "type": "AVSplit"
    },
    {
        "children": [
            {
                "data": "4:5123",
                "leaf": "clip",
                "type": "Leaf"
            },
            {
                "data": "5:5123",
                "leaf": "clip",
                "type": "Leaf"
            }
        ],
        "type": "AVSplit"
    },
    {
        "children": [
            {
                "data": "5:3988",
                "leaf": "clip",
                "type": "Leaf"
            },
            {
                "data": "4:3988",
                "leaf": "clip",
                "type": "Leaf"
            }
        ],
        "type": "AVSplit"
    },
    {
        "children": [
            {
                "data": "5:4193",
                "leaf": "clip",
                "type": "Leaf"
            },
            {
                "data": "4:4193",
                "leaf": "clip",
                "type": "Leaf"
            }
        ],
        "type": "AVSplit"
    },
    {
        "children": [
            {
                "data": "1:2383",
                "leaf": "clip",
                "type": "Leaf"
            },
            {
                "data": "0:2383",
                "leaf": "clip",
                "type": "Leaf"
            }
        ],
        "type": "AVSplit"
    },
    {
        "children": [
            {
                "data": "0:10217",
                "leaf": "clip",
                "type": "Leaf"
            },
            {
                "data": "1:10217",
                "leaf": "clip",
                "type": "Leaf"
            }
        ],
        "type": "AVSplit"
    },
    {
        "children": [
            {
                "data": "5:3321",
                "leaf": "clip",
                "type": "Leaf"
            },
            {
                "data": "4:3321",
                "leaf": "clip",
                "type": "Leaf"
            }
        ],
        "type": "AVSplit"
    },
    {
        "children": [
            {
                "data": "5:3792",
                "leaf": "clip",
                "type": "Leaf"
            },
            {
                "data": "4:3792",
                "leaf": "clip",
                "type": "Leaf"
            }
        ],
        "type": "AVSplit"
    },
    {
        "children": [
            {
                "data": "1:2665",
                "leaf": "clip",
                "type": "Leaf"
            },
            {
                "data": "0:2665",
                "leaf": "clip",
                "type": "Leaf"
            }
        ],
        "type": "AVSplit"
    },
    {
        "children": [
            {
                "data": "5:869",
                "leaf": "clip",
                "type": "Leaf"
            },
            {
                "data": "4:1292",
                "leaf": "clip",
                "type": "Leaf"
            },
            {
                "data": "5:963",
                "leaf": "clip",
                "type": "Leaf"
            },
            {
                "data": "4:1466",
                "leaf": "clip",
                "type": "Leaf"
            },
            {
                "data": "4:1087",
                "leaf": "clip",
                "type": "Leaf"
            },
            {
                "data": "5:588",
                "leaf": "clip",
                "type": "Leaf"
            },
            {
                "data": "4:588",
                "leaf": "clip",
                "type": "Leaf"
            },
            {
                "data": "4:404",
                "leaf": "clip",
                "type": "Leaf"
            },
            {
                "data": "5:1861",
                "leaf": "clip",
                "type": "Leaf"
            },
            {
                "data": "5:1292",
                "leaf": "clip",
                "type": "Leaf"
            },
            {
                "data": "5:404",
                "leaf": "clip",
                "type": "Leaf"
            },
            {
                "data": "4:963",
                "leaf": "clip",
                "type": "Leaf"
            },
            {
                "data": "4:869",
                "leaf": "clip",
                "type": "Leaf"
            },
            {
                "data": "5:0",
                "leaf": "clip",
                "type": "Leaf"
            },
            {
                "data": "5:1466",
                "leaf": "clip",
                "type": "Leaf"
            },
            {
                "data": "4:0",
                "leaf": "clip",
                "type": "Leaf"
            },
            {
                "data": "4:1861",
                "leaf": "clip",
                "type": "Leaf"
            },
            {
                "data": "5:1087",
                "leaf": "clip",
                "type": "Leaf"
            }
        ],
        "type": "Normal"
    },
    {
        "children": [
            {
                "data": "4:3906",
                "leaf": "clip",
                "type": "Leaf"
            },
            {
                "data": "5:3906",
                "leaf": "clip",
                "type": "Leaf"
            }
        ],
        "type": "AVSplit"
    },
    {
        "children": [
            {
                "data": "1:8656",
                "leaf": "clip",
                "type": "Leaf"
            },
            {
                "data": "0:8656",
                "leaf": "clip",
                "type": "Leaf"
            }
        ],
        "type": "AVSplit"
    },
    {
        "children": [
            {
                "data": "1:8074",
                "leaf": "clip",
                "type": "Leaf"
            },
            {
                "data": "0:8074",
                "leaf": "clip",
                "type": "Leaf"
            }
        ],
        "type": "AVSplit"
    },
    {
        "children": [
            {
                "data": "1:9790",
                "leaf": "clip",
                "type": "Leaf"
            },
            {
                "data": "0:9790",
                "leaf": "clip",
                "type": "Leaf"
            }
        ],
        "type": "AVSplit"
    }
]
</property>
  <property name="kdenlive:docproperties.kdenliveversion">21.12.2</property>
  <property name="kdenlive:docproperties.position">5261</property>
  <property name="kdenlive:docproperties.previewextension"/>
  <property name="kdenlive:docproperties.previewparameters"/>
  <property name="kdenlive:docproperties.profile">/home/manolo/.local/share/kdenlive/profiles/customprofile0</property>
  <property name="kdenlive:docproperties.proxyextension"/>
  <property name="kdenlive:docproperties.proxyimageminsize">2000</property>
  <property name="kdenlive:docproperties.proxyimagesize">800</property>
  <property name="kdenlive:docproperties.proxyminsize">1000</property>
  <property name="kdenlive:docproperties.proxyparams"/>
  <property name="kdenlive:docproperties.proxyresize">640</property>
  <property name="kdenlive:docproperties.scrollPos">293451</property>
  <property name="kdenlive:docproperties.seekOffset">30000</property>
  <property name="kdenlive:docproperties.version">1.04</property>
  <property name="kdenlive:docproperties.verticalzoom">1</property>
  <property name="kdenlive:docproperties.videoTarget">-1</property>
  <property name="kdenlive:docproperties.zonein">0</property>
  <property name="kdenlive:docproperties.zoneout">2039</property>
  <property name="kdenlive:docproperties.zoom">0</property>
  <property name="kdenlive:expandedFolders">45</property>
  <property name="kdenlive:documentnotes">&lt;!DOCTYPE HTML PUBLIC "-//W3C//DTD HTML 4.0//EN" "http://www.w3.org/TR/REC-html40/strict.dtd">
&lt;html>&lt;head>&lt;meta name="qrichtext" content="1" />&lt;style type="text/css">
p, li { white-space: pre-wrap; }
&lt;/style>&lt;/head>&lt;body style=" font-family:'Ubuntu'; font-size:11pt; font-weight:400; font-style:normal;">
&lt;p style=" margin-top:0px; margin-bottom:0px; margin-left:0px; margin-right:0px; -qt-block-indent:0; text-indent:0px;">Errors found when opening project file (Mi. Feb. 9 15:06:38 2022)&lt;br />&lt;a href="20374?6">&lt;span style=" text-decoration: underline; color:#2980b9;">V3 00:11:19:04&lt;/span>&lt;/a> Composition was not applied on expected track, manually enforce the track.&lt;/p>&lt;/body>&lt;/html></property>
  <property name="xml_retain">1</property>
  <entry producer="producer0" in="00:00:00.000" out="00:00:23.500"/>
  <entry producer="producer1" in="00:00:00.000" out="00:00:23.000"/>
  <entry producer="producer2" in="00:00:00.000" out="00:00:26.467"/>
  <entry producer="producer3" in="00:00:00.000" out="00:00:02.433"/>
  <entry producer="producer5" in="00:00:00.000" out="00:01:16.700"/>
  <entry producer="producer4" in="00:00:00.000" out="00:00:28.967"/>
  <entry producer="producer7" in="00:00:00.000" out="00:00:28.033"/>
  <entry producer="producer6" in="00:00:00.000" out="00:00:39.033"/>
  <entry producer="producer8" in="00:00:00.000" out="00:00:40.767"/>
  <entry producer="producer9" in="00:00:00.000" out="00:00:14.700"/>
  <entry producer="producer10" in="00:00:00.000" out="00:00:08.133"/>
  <entry producer="producer27" in="00:00:00.000" out="00:00:26.700"/>
  <entry producer="producer26" in="00:00:00.000" out="00:00:08.667"/>
  <entry producer="producer25" in="00:00:00.000" out="00:00:09.967"/>
  <entry producer="producer24" in="00:00:00.000" out="00:00:14.300"/>
  <entry producer="producer23" in="00:00:00.000" out="00:01:10.033"/>
  <entry producer="producer22" in="00:00:00.000" out="00:00:16.467"/>
  <entry producer="producer21" in="00:00:00.000" out="00:00:09.033"/>
  <entry producer="producer20" in="00:00:00.000" out="00:00:07.200"/>
  <entry producer="producer19" in="00:00:00.000" out="00:00:14.867"/>
  <entry producer="producer18" in="00:00:00.000" out="00:00:12.633"/>
  <entry producer="producer17" in="00:00:00.000" out="00:00:39.067"/>
  <entry producer="producer16" in="00:00:00.000" out="00:00:14.833"/>
  <entry producer="producer15" in="00:00:00.000" out="00:00:11.000"/>
  <entry producer="producer14" in="00:00:00.000" out="00:01:30.633"/>
  <entry producer="producer13" in="00:00:00.000" out="00:00:18.733"/>
  <entry producer="producer12" in="00:00:00.000" out="00:00:18.300"/>
  <entry producer="producer11" in="00:00:00.000" out="00:06:02.367"/>
  <entry producer="producer28" in="00:00:00.000" out="00:01:32.333"/>
  <entry producer="producer29" in="00:00:00.000" out="00:00:14.533"/>
  <entry producer="producer30" in="00:00:00.000" out="00:00:14.233"/>
  <entry producer="producer31" in="00:00:00.000" out="00:00:20.833"/>
  <entry producer="producer32" in="00:00:00.000" out="00:00:37.800"/>
  <entry producer="producer33" in="00:00:00.000" out="00:00:02.633"/>
  <entry producer="producer34" in="00:00:00.000" out="00:00:21.200"/>
  <entry producer="producer35" in="00:00:00.000" out="00:00:35.300"/>
  <entry producer="producer36" in="00:00:00.000" out="00:00:24.767"/>
  <entry producer="producer37" in="00:00:00.000" out="00:00:36.333"/>
  <entry producer="producer39" in="00:00:00.000" out="00:00:03.733"/>
  <entry producer="producer38" in="00:00:00.000" out="00:00:16.200"/>
  <entry producer="producer40" in="00:00:00.000" out="00:00:04.967"/>
  <entry producer="producer41" in="00:00:00.000" out="00:00:04.900"/>
  <entry producer="producer42" in="00:00:00.000" out="00:00:04.967"/>
 </playlist>
 <producer id="black_track" in="00:00:00.000" out="00:27:08.133">
  <property name="length">2147483647</property>
  <property name="eof">continue</property>
  <property name="resource">black</property>
  <property name="aspect_ratio">1</property>
  <property name="mlt_service">color</property>
  <property name="mlt_image_format">rgba</property>
  <property name="set.test_audio">0</property>
 </producer>
 <producer id="producer43" in="00:00:00.000" out="00:01:32.333">
  <property name="length">2771</property>
  <property name="eof">pause</property>
  <property name="resource">fede/PXL_20210807_042348733.mp4</property>
  <property name="audio_index">1</property>
  <property name="video_index">0</property>
  <property name="mute_on_pause">0</property>
  <property name="mlt_service">avformat-novalidate</property>
  <property name="seekable">1</property>
  <property name="aspect_ratio">1</property>
  <property name="kdenlive:clipname"/>
  <property name="kdenlive:folderid">31</property>
  <property name="kdenlive:id">32</property>
  <property name="kdenlive:file_size">87343634</property>
  <property name="kdenlive:file_hash">2fdc4f1a87e0695875de3beb4c6118e3</property>
  <property name="kdenlive:audio_max1">209</property>
  <property name="kdenlive:rating">0</property>
  <property name="xml">was here</property>
  <property name="meta.media.nb_streams">2</property>
  <property name="meta.media.0.stream.type">video</property>
  <property name="meta.media.0.stream.frame_rate">30</property>
  <property name="meta.media.0.stream.sample_aspect_ratio">0</property>
  <property name="meta.media.0.codec.width">1920</property>
  <property name="meta.media.0.codec.height">1080</property>
  <property name="meta.media.0.codec.rotate">0</property>
  <property name="meta.media.0.codec.pix_fmt">yuv420p</property>
  <property name="meta.media.0.codec.sample_aspect_ratio">1</property>
  <property name="meta.media.0.codec.colorspace">601</property>
  <property name="meta.media.0.codec.color_trc">1</property>
  <property name="meta.media.0.codec.name">h264</property>
  <property name="meta.media.0.codec.long_name">H.264 / AVC / MPEG-4 AVC / MPEG-4 part 10</property>
  <property name="meta.media.0.codec.bit_rate">7439692</property>
  <property name="meta.attr.0.stream.creation_time.markup">1970-01-01T00:00:00.000000Z</property>
  <property name="meta.attr.0.stream.handler_name.markup">ISO Media file produced by Google Inc.</property>
  <property name="meta.media.1.stream.type">audio</property>
  <property name="meta.media.1.codec.sample_fmt">fltp</property>
  <property name="meta.media.1.codec.sample_rate">44100</property>
  <property name="meta.media.1.codec.channels">2</property>
  <property name="meta.media.1.codec.name">aac</property>
  <property name="meta.media.1.codec.long_name">AAC (Advanced Audio Coding)</property>
  <property name="meta.media.1.codec.bit_rate">127999</property>
  <property name="meta.attr.1.stream.creation_time.markup">1970-01-01T00:00:00.000000Z</property>
  <property name="meta.attr.1.stream.language.markup">eng</property>
  <property name="meta.attr.1.stream.handler_name.markup">ISO Media file produced by Google Inc.</property>
  <property name="meta.attr.major_brand.markup">mp42</property>
  <property name="meta.attr.minor_version.markup">0</property>
  <property name="meta.attr.compatible_brands.markup">isommp42</property>
  <property name="meta.attr.creation_time.markup">2021-08-07T04:25:25.000000Z</property>
  <property name="meta.attr.location.markup">+51.4474+7.0200/</property>
  <property name="meta.media.sample_aspect_num">1</property>
  <property name="meta.media.sample_aspect_den">1</property>
  <property name="meta.media.frame_rate_num">30</property>
  <property name="meta.media.frame_rate_den">1</property>
  <property name="meta.media.colorspace">601</property>
  <property name="meta.media.color_trc">1</property>
  <property name="meta.media.has_b_frames">0</property>
  <property name="meta.media.width">1920</property>
  <property name="meta.media.height">1080</property>
  <property name="meta.media.color_range">mpeg</property>
  <property name="set.test_audio">0</property>
  <property name="set.test_image">1</property>
 </producer>
 <producer id="producer44" in="00:00:00.000" out="00:00:20.833">
  <property name="length">626</property>
  <property name="eof">pause</property>
  <property name="resource">fede/PXL_20210807_124738964.mp4</property>
  <property name="audio_index">1</property>
  <property name="video_index">0</property>
  <property name="mute_on_pause">0</property>
  <property name="mlt_service">avformat-novalidate</property>
  <property name="seekable">1</property>
  <property name="aspect_ratio">1</property>
  <property name="kdenlive:clipname"/>
  <property name="kdenlive:folderid">31</property>
  <property name="kdenlive:id">35</property>
  <property name="kdenlive:file_size">16732754</property>
  <property name="kdenlive:file_hash">7862e782b7a94720ffb495630deced7a</property>
  <property name="kdenlive:audio_max1">212</property>
  <property name="xml">was here</property>
  <property name="meta.media.nb_streams">2</property>
  <property name="meta.media.0.stream.type">video</property>
  <property name="meta.media.0.stream.frame_rate">30</property>
  <property name="meta.media.0.stream.sample_aspect_ratio">0</property>
  <property name="meta.media.0.codec.width">1920</property>
  <property name="meta.media.0.codec.height">1080</property>
  <property name="meta.media.0.codec.rotate">0</property>
  <property name="meta.media.0.codec.pix_fmt">yuv420p</property>
  <property name="meta.media.0.codec.sample_aspect_ratio">1</property>
  <property name="meta.media.0.codec.colorspace">601</property>
  <property name="meta.media.0.codec.color_trc">1</property>
  <property name="meta.media.0.codec.name">h264</property>
  <property name="meta.media.0.codec.long_name">H.264 / AVC / MPEG-4 AVC / MPEG-4 part 10</property>
  <property name="meta.media.0.codec.bit_rate">6304353</property>
  <property name="meta.attr.0.stream.creation_time.markup">1970-01-01T00:00:00.000000Z</property>
  <property name="meta.attr.0.stream.handler_name.markup">ISO Media file produced by Google Inc.</property>
  <property name="meta.media.1.stream.type">audio</property>
  <property name="meta.media.1.codec.sample_fmt">fltp</property>
  <property name="meta.media.1.codec.sample_rate">44100</property>
  <property name="meta.media.1.codec.channels">2</property>
  <property name="meta.media.1.codec.name">aac</property>
  <property name="meta.media.1.codec.long_name">AAC (Advanced Audio Coding)</property>
  <property name="meta.media.1.codec.bit_rate">127999</property>
  <property name="meta.attr.1.stream.creation_time.markup">1970-01-01T00:00:00.000000Z</property>
  <property name="meta.attr.1.stream.language.markup">eng</property>
  <property name="meta.attr.1.stream.handler_name.markup">ISO Media file produced by Google Inc.</property>
  <property name="meta.attr.major_brand.markup">mp42</property>
  <property name="meta.attr.minor_version.markup">0</property>
  <property name="meta.attr.compatible_brands.markup">isommp42</property>
  <property name="meta.attr.creation_time.markup">2021-08-07T12:48:01.000000Z</property>
  <property name="meta.attr.location.markup">+50.4807+14.0820/</property>
  <property name="meta.media.sample_aspect_num">1</property>
  <property name="meta.media.sample_aspect_den">1</property>
  <property name="meta.media.frame_rate_num">30</property>
  <property name="meta.media.frame_rate_den">1</property>
  <property name="meta.media.colorspace">601</property>
  <property name="meta.media.color_trc">1</property>
  <property name="meta.media.has_b_frames">0</property>
  <property name="meta.media.width">1920</property>
  <property name="meta.media.height">1080</property>
  <property name="meta.media.color_range">mpeg</property>
  <property name="set.test_audio">0</property>
  <property name="set.test_image">1</property>
 </producer>
 <producer id="producer45" in="00:00:00.000" out="00:00:37.800">
  <property name="length">1135</property>
  <property name="eof">pause</property>
  <property name="resource">fede/PXL_20210808_072448191.mp4</property>
  <property name="audio_index">1</property>
  <property name="video_index">0</property>
  <property name="mute_on_pause">0</property>
  <property name="mlt_service">avformat-novalidate</property>
  <property name="seekable">1</property>
  <property name="aspect_ratio">1</property>
  <property name="kdenlive:clipname"/>
  <property name="kdenlive:folderid">31</property>
  <property name="kdenlive:id">36</property>
  <property name="kdenlive:file_size">58119218</property>
  <property name="kdenlive:file_hash">22624c8e3281b0b7a1c33c4dbe5949a1</property>
  <property name="kdenlive:audio_max1">170</property>
  <property name="xml">was here</property>
  <property name="meta.media.nb_streams">2</property>
  <property name="meta.media.0.stream.type">video</property>
  <property name="meta.media.0.stream.frame_rate">30</property>
  <property name="meta.media.0.stream.sample_aspect_ratio">0</property>
  <property name="meta.media.0.codec.width">1920</property>
  <property name="meta.media.0.codec.height">1080</property>
  <property name="meta.media.0.codec.rotate">0</property>
  <property name="meta.media.0.codec.pix_fmt">yuv420p</property>
  <property name="meta.media.0.codec.sample_aspect_ratio">1</property>
  <property name="meta.media.0.codec.colorspace">601</property>
  <property name="meta.media.0.codec.color_trc">1</property>
  <property name="meta.media.0.codec.name">h264</property>
  <property name="meta.media.0.codec.long_name">H.264 / AVC / MPEG-4 AVC / MPEG-4 part 10</property>
  <property name="meta.media.0.codec.bit_rate">12180238</property>
  <property name="meta.attr.0.stream.creation_time.markup">1970-01-01T00:00:00.000000Z</property>
  <property name="meta.attr.0.stream.handler_name.markup">ISO Media file produced by Google Inc.</property>
  <property name="meta.media.1.stream.type">audio</property>
  <property name="meta.media.1.codec.sample_fmt">fltp</property>
  <property name="meta.media.1.codec.sample_rate">44100</property>
  <property name="meta.media.1.codec.channels">2</property>
  <property name="meta.media.1.codec.name">aac</property>
  <property name="meta.media.1.codec.long_name">AAC (Advanced Audio Coding)</property>
  <property name="meta.media.1.codec.bit_rate">127999</property>
  <property name="meta.attr.1.stream.creation_time.markup">1970-01-01T00:00:00.000000Z</property>
  <property name="meta.attr.1.stream.language.markup">eng</property>
  <property name="meta.attr.1.stream.handler_name.markup">ISO Media file produced by Google Inc.</property>
  <property name="meta.attr.major_brand.markup">mp42</property>
  <property name="meta.attr.minor_version.markup">0</property>
  <property name="meta.attr.compatible_brands.markup">isommp42</property>
  <property name="meta.attr.creation_time.markup">2021-08-08T07:25:27.000000Z</property>
  <property name="meta.attr.location.markup">+49.7780+14.6723/</property>
  <property name="meta.media.sample_aspect_num">1</property>
  <property name="meta.media.sample_aspect_den">1</property>
  <property name="meta.media.frame_rate_num">30</property>
  <property name="meta.media.frame_rate_den">1</property>
  <property name="meta.media.colorspace">601</property>
  <property name="meta.media.color_trc">1</property>
  <property name="meta.media.has_b_frames">0</property>
  <property name="meta.media.width">1920</property>
  <property name="meta.media.height">1080</property>
  <property name="meta.media.color_range">mpeg</property>
  <property name="set.test_audio">0</property>
  <property name="set.test_image">1</property>
 </producer>
 <producer id="producer46" in="00:00:00.000" out="00:00:14.233">
  <property name="length">428</property>
  <property name="eof">pause</property>
  <property name="resource">fede/PXL_20210808_084702009.mp4</property>
  <property name="audio_index">1</property>
  <property name="video_index">0</property>
  <property name="mute_on_pause">0</property>
  <property name="mlt_service">avformat-novalidate</property>
  <property name="seekable">1</property>
  <property name="aspect_ratio">1</property>
  <property name="kdenlive:clipname"/>
  <property name="kdenlive:folderid">31</property>
  <property name="kdenlive:id">34</property>
  <property name="kdenlive:file_size">8078746</property>
  <property name="kdenlive:file_hash">975052315ecd3117b8cbb32bde9867bf</property>
  <property name="kdenlive:audio_max1">189</property>
  <property name="xml">was here</property>
  <property name="meta.media.nb_streams">2</property>
  <property name="meta.media.0.stream.type">video</property>
  <property name="meta.media.0.stream.frame_rate">46.107</property>
  <property name="meta.media.0.stream.sample_aspect_ratio">0</property>
  <property name="meta.media.0.codec.width">1920</property>
  <property name="meta.media.0.codec.height">1080</property>
  <property name="meta.media.0.codec.rotate">0</property>
  <property name="meta.media.0.codec.pix_fmt">yuv420p</property>
  <property name="meta.media.0.codec.sample_aspect_ratio">1</property>
  <property name="meta.media.0.codec.colorspace">601</property>
  <property name="meta.media.0.codec.color_trc">1</property>
  <property name="meta.media.0.codec.name">h264</property>
  <property name="meta.media.0.codec.long_name">H.264 / AVC / MPEG-4 AVC / MPEG-4 part 10</property>
  <property name="meta.media.0.codec.bit_rate">4417227</property>
  <property name="meta.attr.0.stream.creation_time.markup">1970-01-01T00:00:00.000000Z</property>
  <property name="meta.attr.0.stream.handler_name.markup">ISO Media file produced by Google Inc.</property>
  <property name="meta.media.1.stream.type">audio</property>
  <property name="meta.media.1.codec.sample_fmt">fltp</property>
  <property name="meta.media.1.codec.sample_rate">44100</property>
  <property name="meta.media.1.codec.channels">2</property>
  <property name="meta.media.1.codec.name">aac</property>
  <property name="meta.media.1.codec.long_name">AAC (Advanced Audio Coding)</property>
  <property name="meta.media.1.codec.bit_rate">128011</property>
  <property name="meta.attr.1.stream.creation_time.markup">1970-01-01T00:00:00.000000Z</property>
  <property name="meta.attr.1.stream.language.markup">eng</property>
  <property name="meta.attr.1.stream.handler_name.markup">ISO Media file produced by Google Inc.</property>
  <property name="meta.attr.major_brand.markup">mp42</property>
  <property name="meta.attr.minor_version.markup">0</property>
  <property name="meta.attr.compatible_brands.markup">isommp42</property>
  <property name="meta.attr.creation_time.markup">2021-08-08T08:47:17.000000Z</property>
  <property name="meta.attr.location.markup">+49.7798+14.6590/</property>
  <property name="meta.media.sample_aspect_num">1</property>
  <property name="meta.media.sample_aspect_den">1</property>
  <property name="meta.media.frame_rate_num">23699</property>
  <property name="meta.media.frame_rate_den">514</property>
  <property name="meta.media.colorspace">601</property>
  <property name="meta.media.color_trc">1</property>
  <property name="meta.media.has_b_frames">0</property>
  <property name="meta.media.width">1920</property>
  <property name="meta.media.height">1080</property>
  <property name="meta.media.color_range">mpeg</property>
  <property name="set.test_audio">0</property>
  <property name="set.test_image">1</property>
 </producer>
 <producer id="producer47" in="00:00:00.000" out="00:00:14.533">
  <property name="length">437</property>
  <property name="eof">pause</property>
  <property name="resource">fede/PXL_20210808_113203030.mp4</property>
  <property name="audio_index">1</property>
  <property name="video_index">0</property>
  <property name="mute_on_pause">0</property>
  <property name="mlt_service">avformat-novalidate</property>
  <property name="seekable">1</property>
  <property name="aspect_ratio">1</property>
  <property name="kdenlive:clipname"/>
  <property name="kdenlive:folderid">31</property>
  <property name="kdenlive:id">33</property>
  <property name="kdenlive:file_size">15369206</property>
  <property name="kdenlive:file_hash">37312a72bc3e58f63721c2a0b7deebb1</property>
  <property name="kdenlive:audio_max1">72</property>
  <property name="xml">was here</property>
  <property name="meta.media.nb_streams">2</property>
  <property name="meta.media.0.stream.type">video</property>
  <property name="meta.media.0.stream.frame_rate">60</property>
  <property name="meta.media.0.stream.sample_aspect_ratio">0</property>
  <property name="meta.media.0.codec.width">1920</property>
  <property name="meta.media.0.codec.height">1080</property>
  <property name="meta.media.0.codec.rotate">0</property>
  <property name="meta.media.0.codec.pix_fmt">yuv420p</property>
  <property name="meta.media.0.codec.sample_aspect_ratio">1</property>
  <property name="meta.media.0.codec.colorspace">601</property>
  <property name="meta.media.0.codec.color_trc">1</property>
  <property name="meta.media.0.codec.name">h264</property>
  <property name="meta.media.0.codec.long_name">H.264 / AVC / MPEG-4 AVC / MPEG-4 part 10</property>
  <property name="meta.media.0.codec.bit_rate">8337058</property>
  <property name="meta.attr.0.stream.creation_time.markup">1970-01-01T00:00:00.000000Z</property>
  <property name="meta.attr.0.stream.handler_name.markup">ISO Media file produced by Google Inc.</property>
  <property name="meta.media.1.stream.type">audio</property>
  <property name="meta.media.1.codec.sample_fmt">fltp</property>
  <property name="meta.media.1.codec.sample_rate">44100</property>
  <property name="meta.media.1.codec.channels">2</property>
  <property name="meta.media.1.codec.name">aac</property>
  <property name="meta.media.1.codec.long_name">AAC (Advanced Audio Coding)</property>
  <property name="meta.media.1.codec.bit_rate">127999</property>
  <property name="meta.attr.1.stream.creation_time.markup">1970-01-01T00:00:00.000000Z</property>
  <property name="meta.attr.1.stream.language.markup">eng</property>
  <property name="meta.attr.1.stream.handler_name.markup">ISO Media file produced by Google Inc.</property>
  <property name="meta.attr.major_brand.markup">mp42</property>
  <property name="meta.attr.minor_version.markup">0</property>
  <property name="meta.attr.compatible_brands.markup">isommp42</property>
  <property name="meta.attr.creation_time.markup">2021-08-08T11:32:18.000000Z</property>
  <property name="meta.attr.location.markup">+49.7802+14.6673/</property>
  <property name="meta.media.sample_aspect_num">1</property>
  <property name="meta.media.sample_aspect_den">1</property>
  <property name="meta.media.frame_rate_num">60</property>
  <property name="meta.media.frame_rate_den">1</property>
  <property name="meta.media.colorspace">601</property>
  <property name="meta.media.color_trc">1</property>
  <property name="meta.media.has_b_frames">0</property>
  <property name="meta.media.width">1920</property>
  <property name="meta.media.height">1080</property>
  <property name="meta.media.color_range">mpeg</property>
  <property name="set.test_audio">0</property>
  <property name="set.test_image">1</property>
 </producer>
 <playlist id="playlist0">
  <property name="kdenlive:audio_track">1</property>
  <blank length="00:01:07.900"/>
  <entry producer="producer43" in="00:00:07.633" out="00:00:19.133">
   <property name="kdenlive:id">32</property>
  </entry>
  <entry producer="producer43" in="00:01:09.733" out="00:01:11.433">
   <property name="kdenlive:id">32</property>
  </entry>
  <entry producer="producer43" in="00:00:58.767" out="00:01:06.400">
   <property name="kdenlive:id">32</property>
  </entry>
  <entry producer="producer43" in="00:01:09.733" out="00:01:11.433">
   <property name="kdenlive:id">32</property>
  </entry>
  <entry producer="producer43" in="00:01:11.467" out="00:01:31.233">
   <property name="kdenlive:id">32</property>
  </entry>
  <blank length="00:02:38.767"/>
  <entry producer="producer44" in="00:00:00.833" out="00:00:20.200">
   <property name="kdenlive:id">35</property>
  </entry>
  <entry producer="producer45" in="00:00:00.000" out="00:00:37.767">
   <property name="kdenlive:id">36</property>
  </entry>
  <entry producer="producer46" in="00:00:00.000" out="00:00:14.200">
   <property name="kdenlive:id">34</property>
  </entry>
  <entry producer="producer47" in="00:00:03.300" out="00:00:14.533">
   <property name="kdenlive:id">33</property>
  </entry>
 </playlist>
 <playlist id="playlist1">
  <property name="kdenlive:audio_track">1</property>
 </playlist>
 <tractor id="tractor0" in="00:00:00.000" out="00:05:51.800">
  <property name="kdenlive:audio_track">1</property>
  <property name="kdenlive:trackheight">60</property>
  <property name="kdenlive:timeline_active">1</property>
  <property name="kdenlive:collapsed">0</property>
  <property name="kdenlive:track_name">Fede</property>
  <property name="kdenlive:thumbs_format"/>
  <property name="kdenlive:audio_rec"/>
  <track hide="video" producer="playlist0"/>
  <track hide="video" producer="playlist1"/>
  <filter id="filter0">
   <property name="window">75</property>
   <property name="max_gain">20dB</property>
   <property name="mlt_service">volume</property>
   <property name="internal_added">237</property>
   <property name="disable">1</property>
  </filter>
  <filter id="filter1">
   <property name="channel">-1</property>
   <property name="mlt_service">panner</property>
   <property name="internal_added">237</property>
   <property name="start">0.5</property>
   <property name="disable">1</property>
  </filter>
  <filter id="filter2">
   <property name="iec_scale">0</property>
   <property name="mlt_service">audiolevel</property>
   <property name="disable">1</property>
  </filter>
 </tractor>
 <producer id="producer75" in="00:00:00.000" out="00:01:32.333">
  <property name="length">2771</property>
  <property name="eof">pause</property>
  <property name="resource">fede/PXL_20210807_042348733.mp4</property>
  <property name="audio_index">1</property>
  <property name="video_index">0</property>
  <property name="mute_on_pause">0</property>
  <property name="mlt_service">avformat-novalidate</property>
  <property name="seekable">1</property>
  <property name="aspect_ratio">1</property>
  <property name="kdenlive:clipname"/>
  <property name="kdenlive:folderid">31</property>
  <property name="kdenlive:id">32</property>
  <property name="kdenlive:file_size">87343634</property>
  <property name="kdenlive:file_hash">2fdc4f1a87e0695875de3beb4c6118e3</property>
  <property name="kdenlive:audio_max1">209</property>
  <property name="kdenlive:rating">0</property>
  <property name="xml">was here</property>
  <property name="meta.media.nb_streams">2</property>
  <property name="meta.media.0.stream.type">video</property>
  <property name="meta.media.0.stream.frame_rate">30</property>
  <property name="meta.media.0.stream.sample_aspect_ratio">0</property>
  <property name="meta.media.0.codec.width">1920</property>
  <property name="meta.media.0.codec.height">1080</property>
  <property name="meta.media.0.codec.rotate">0</property>
  <property name="meta.media.0.codec.pix_fmt">yuv420p</property>
  <property name="meta.media.0.codec.sample_aspect_ratio">1</property>
  <property name="meta.media.0.codec.colorspace">601</property>
  <property name="meta.media.0.codec.color_trc">1</property>
  <property name="meta.media.0.codec.name">h264</property>
  <property name="meta.media.0.codec.long_name">H.264 / AVC / MPEG-4 AVC / MPEG-4 part 10</property>
  <property name="meta.media.0.codec.bit_rate">7439692</property>
  <property name="meta.attr.0.stream.creation_time.markup">1970-01-01T00:00:00.000000Z</property>
  <property name="meta.attr.0.stream.handler_name.markup">ISO Media file produced by Google Inc.</property>
  <property name="meta.media.1.stream.type">audio</property>
  <property name="meta.media.1.codec.sample_fmt">fltp</property>
  <property name="meta.media.1.codec.sample_rate">44100</property>
  <property name="meta.media.1.codec.channels">2</property>
  <property name="meta.media.1.codec.name">aac</property>
  <property name="meta.media.1.codec.long_name">AAC (Advanced Audio Coding)</property>
  <property name="meta.media.1.codec.bit_rate">127999</property>
  <property name="meta.attr.1.stream.creation_time.markup">1970-01-01T00:00:00.000000Z</property>
  <property name="meta.attr.1.stream.language.markup">eng</property>
  <property name="meta.attr.1.stream.handler_name.markup">ISO Media file produced by Google Inc.</property>
  <property name="meta.attr.major_brand.markup">mp42</property>
  <property name="meta.attr.minor_version.markup">0</property>
  <property name="meta.attr.compatible_brands.markup">isommp42</property>
  <property name="meta.attr.creation_time.markup">2021-08-07T04:25:25.000000Z</property>
  <property name="meta.attr.location.markup">+51.4474+7.0200/</property>
  <property name="meta.media.sample_aspect_num">1</property>
  <property name="meta.media.sample_aspect_den">1</property>
  <property name="meta.media.frame_rate_num">30</property>
  <property name="meta.media.frame_rate_den">1</property>
  <property name="meta.media.colorspace">601</property>
  <property name="meta.media.color_trc">1</property>
  <property name="meta.media.has_b_frames">0</property>
  <property name="meta.media.width">1920</property>
  <property name="meta.media.height">1080</property>
  <property name="meta.media.color_range">mpeg</property>
  <property name="set.test_audio">1</property>
  <property name="set.test_image">0</property>
  <property name="meta.media.top_field_first">0</property>
  <property name="meta.media.progressive">1</property>
 </producer>
 <producer id="producer76" in="00:00:00.000" out="00:00:20.833">
  <property name="length">626</property>
  <property name="eof">pause</property>
  <property name="resource">fede/PXL_20210807_124738964.mp4</property>
  <property name="audio_index">1</property>
  <property name="video_index">0</property>
  <property name="mute_on_pause">0</property>
  <property name="mlt_service">avformat-novalidate</property>
  <property name="seekable">1</property>
  <property name="aspect_ratio">1</property>
  <property name="kdenlive:clipname"/>
  <property name="kdenlive:folderid">31</property>
  <property name="kdenlive:id">35</property>
  <property name="kdenlive:file_size">16732754</property>
  <property name="kdenlive:file_hash">7862e782b7a94720ffb495630deced7a</property>
  <property name="kdenlive:audio_max1">212</property>
  <property name="xml">was here</property>
  <property name="meta.media.nb_streams">2</property>
  <property name="meta.media.0.stream.type">video</property>
  <property name="meta.media.0.stream.frame_rate">30</property>
  <property name="meta.media.0.stream.sample_aspect_ratio">0</property>
  <property name="meta.media.0.codec.width">1920</property>
  <property name="meta.media.0.codec.height">1080</property>
  <property name="meta.media.0.codec.rotate">0</property>
  <property name="meta.media.0.codec.pix_fmt">yuv420p</property>
  <property name="meta.media.0.codec.sample_aspect_ratio">1</property>
  <property name="meta.media.0.codec.colorspace">601</property>
  <property name="meta.media.0.codec.color_trc">1</property>
  <property name="meta.media.0.codec.name">h264</property>
  <property name="meta.media.0.codec.long_name">H.264 / AVC / MPEG-4 AVC / MPEG-4 part 10</property>
  <property name="meta.media.0.codec.bit_rate">6304353</property>
  <property name="meta.attr.0.stream.creation_time.markup">1970-01-01T00:00:00.000000Z</property>
  <property name="meta.attr.0.stream.handler_name.markup">ISO Media file produced by Google Inc.</property>
  <property name="meta.media.1.stream.type">audio</property>
  <property name="meta.media.1.codec.sample_fmt">fltp</property>
  <property name="meta.media.1.codec.sample_rate">44100</property>
  <property name="meta.media.1.codec.channels">2</property>
  <property name="meta.media.1.codec.name">aac</property>
  <property name="meta.media.1.codec.long_name">AAC (Advanced Audio Coding)</property>
  <property name="meta.media.1.codec.bit_rate">127999</property>
  <property name="meta.attr.1.stream.creation_time.markup">1970-01-01T00:00:00.000000Z</property>
  <property name="meta.attr.1.stream.language.markup">eng</property>
  <property name="meta.attr.1.stream.handler_name.markup">ISO Media file produced by Google Inc.</property>
  <property name="meta.attr.major_brand.markup">mp42</property>
  <property name="meta.attr.minor_version.markup">0</property>
  <property name="meta.attr.compatible_brands.markup">isommp42</property>
  <property name="meta.attr.creation_time.markup">2021-08-07T12:48:01.000000Z</property>
  <property name="meta.attr.location.markup">+50.4807+14.0820/</property>
  <property name="meta.media.sample_aspect_num">1</property>
  <property name="meta.media.sample_aspect_den">1</property>
  <property name="meta.media.frame_rate_num">30</property>
  <property name="meta.media.frame_rate_den">1</property>
  <property name="meta.media.colorspace">601</property>
  <property name="meta.media.color_trc">1</property>
  <property name="meta.media.has_b_frames">0</property>
  <property name="meta.media.width">1920</property>
  <property name="meta.media.height">1080</property>
  <property name="meta.media.color_range">mpeg</property>
  <property name="set.test_audio">1</property>
  <property name="set.test_image">0</property>
  <property name="meta.media.top_field_first">0</property>
  <property name="meta.media.progressive">1</property>
 </producer>
 <producer id="producer77" in="00:00:00.000" out="00:00:37.800">
  <property name="length">1135</property>
  <property name="eof">pause</property>
  <property name="resource">fede/PXL_20210808_072448191.mp4</property>
  <property name="audio_index">1</property>
  <property name="video_index">0</property>
  <property name="mute_on_pause">0</property>
  <property name="mlt_service">avformat-novalidate</property>
  <property name="seekable">1</property>
  <property name="aspect_ratio">1</property>
  <property name="kdenlive:clipname"/>
  <property name="kdenlive:folderid">31</property>
  <property name="kdenlive:id">36</property>
  <property name="kdenlive:file_size">58119218</property>
  <property name="kdenlive:file_hash">22624c8e3281b0b7a1c33c4dbe5949a1</property>
  <property name="kdenlive:audio_max1">170</property>
  <property name="xml">was here</property>
  <property name="meta.media.nb_streams">2</property>
  <property name="meta.media.0.stream.type">video</property>
  <property name="meta.media.0.stream.frame_rate">30</property>
  <property name="meta.media.0.stream.sample_aspect_ratio">0</property>
  <property name="meta.media.0.codec.width">1920</property>
  <property name="meta.media.0.codec.height">1080</property>
  <property name="meta.media.0.codec.rotate">0</property>
  <property name="meta.media.0.codec.pix_fmt">yuv420p</property>
  <property name="meta.media.0.codec.sample_aspect_ratio">1</property>
  <property name="meta.media.0.codec.colorspace">601</property>
  <property name="meta.media.0.codec.color_trc">1</property>
  <property name="meta.media.0.codec.name">h264</property>
  <property name="meta.media.0.codec.long_name">H.264 / AVC / MPEG-4 AVC / MPEG-4 part 10</property>
  <property name="meta.media.0.codec.bit_rate">12180238</property>
  <property name="meta.attr.0.stream.creation_time.markup">1970-01-01T00:00:00.000000Z</property>
  <property name="meta.attr.0.stream.handler_name.markup">ISO Media file produced by Google Inc.</property>
  <property name="meta.media.1.stream.type">audio</property>
  <property name="meta.media.1.codec.sample_fmt">fltp</property>
  <property name="meta.media.1.codec.sample_rate">44100</property>
  <property name="meta.media.1.codec.channels">2</property>
  <property name="meta.media.1.codec.name">aac</property>
  <property name="meta.media.1.codec.long_name">AAC (Advanced Audio Coding)</property>
  <property name="meta.media.1.codec.bit_rate">127999</property>
  <property name="meta.attr.1.stream.creation_time.markup">1970-01-01T00:00:00.000000Z</property>
  <property name="meta.attr.1.stream.language.markup">eng</property>
  <property name="meta.attr.1.stream.handler_name.markup">ISO Media file produced by Google Inc.</property>
  <property name="meta.attr.major_brand.markup">mp42</property>
  <property name="meta.attr.minor_version.markup">0</property>
  <property name="meta.attr.compatible_brands.markup">isommp42</property>
  <property name="meta.attr.creation_time.markup">2021-08-08T07:25:27.000000Z</property>
  <property name="meta.attr.location.markup">+49.7780+14.6723/</property>
  <property name="meta.media.sample_aspect_num">1</property>
  <property name="meta.media.sample_aspect_den">1</property>
  <property name="meta.media.frame_rate_num">30</property>
  <property name="meta.media.frame_rate_den">1</property>
  <property name="meta.media.colorspace">601</property>
  <property name="meta.media.color_trc">1</property>
  <property name="meta.media.has_b_frames">0</property>
  <property name="meta.media.width">1920</property>
  <property name="meta.media.height">1080</property>
  <property name="meta.media.color_range">mpeg</property>
  <property name="set.test_audio">1</property>
  <property name="set.test_image">0</property>
 </producer>
 <producer id="producer78" in="00:00:00.000" out="00:00:14.233">
  <property name="length">428</property>
  <property name="eof">pause</property>
  <property name="resource">fede/PXL_20210808_084702009.mp4</property>
  <property name="audio_index">1</property>
  <property name="video_index">0</property>
  <property name="mute_on_pause">0</property>
  <property name="mlt_service">avformat-novalidate</property>
  <property name="seekable">1</property>
  <property name="aspect_ratio">1</property>
  <property name="kdenlive:clipname"/>
  <property name="kdenlive:folderid">31</property>
  <property name="kdenlive:id">34</property>
  <property name="kdenlive:file_size">8078746</property>
  <property name="kdenlive:file_hash">975052315ecd3117b8cbb32bde9867bf</property>
  <property name="kdenlive:audio_max1">189</property>
  <property name="xml">was here</property>
  <property name="meta.media.nb_streams">2</property>
  <property name="meta.media.0.stream.type">video</property>
  <property name="meta.media.0.stream.frame_rate">46.107</property>
  <property name="meta.media.0.stream.sample_aspect_ratio">0</property>
  <property name="meta.media.0.codec.width">1920</property>
  <property name="meta.media.0.codec.height">1080</property>
  <property name="meta.media.0.codec.rotate">0</property>
  <property name="meta.media.0.codec.pix_fmt">yuv420p</property>
  <property name="meta.media.0.codec.sample_aspect_ratio">1</property>
  <property name="meta.media.0.codec.colorspace">601</property>
  <property name="meta.media.0.codec.color_trc">1</property>
  <property name="meta.media.0.codec.name">h264</property>
  <property name="meta.media.0.codec.long_name">H.264 / AVC / MPEG-4 AVC / MPEG-4 part 10</property>
  <property name="meta.media.0.codec.bit_rate">4417227</property>
  <property name="meta.attr.0.stream.creation_time.markup">1970-01-01T00:00:00.000000Z</property>
  <property name="meta.attr.0.stream.handler_name.markup">ISO Media file produced by Google Inc.</property>
  <property name="meta.media.1.stream.type">audio</property>
  <property name="meta.media.1.codec.sample_fmt">fltp</property>
  <property name="meta.media.1.codec.sample_rate">44100</property>
  <property name="meta.media.1.codec.channels">2</property>
  <property name="meta.media.1.codec.name">aac</property>
  <property name="meta.media.1.codec.long_name">AAC (Advanced Audio Coding)</property>
  <property name="meta.media.1.codec.bit_rate">128011</property>
  <property name="meta.attr.1.stream.creation_time.markup">1970-01-01T00:00:00.000000Z</property>
  <property name="meta.attr.1.stream.language.markup">eng</property>
  <property name="meta.attr.1.stream.handler_name.markup">ISO Media file produced by Google Inc.</property>
  <property name="meta.attr.major_brand.markup">mp42</property>
  <property name="meta.attr.minor_version.markup">0</property>
  <property name="meta.attr.compatible_brands.markup">isommp42</property>
  <property name="meta.attr.creation_time.markup">2021-08-08T08:47:17.000000Z</property>
  <property name="meta.attr.location.markup">+49.7798+14.6590/</property>
  <property name="meta.media.sample_aspect_num">1</property>
  <property name="meta.media.sample_aspect_den">1</property>
  <property name="meta.media.frame_rate_num">23699</property>
  <property name="meta.media.frame_rate_den">514</property>
  <property name="meta.media.colorspace">601</property>
  <property name="meta.media.color_trc">1</property>
  <property name="meta.media.has_b_frames">0</property>
  <property name="meta.media.width">1920</property>
  <property name="meta.media.height">1080</property>
  <property name="meta.media.color_range">mpeg</property>
  <property name="set.test_audio">1</property>
  <property name="set.test_image">0</property>
 </producer>
 <producer id="producer79" in="00:00:00.000" out="00:00:14.533">
  <property name="length">437</property>
  <property name="eof">pause</property>
  <property name="resource">fede/PXL_20210808_113203030.mp4</property>
  <property name="audio_index">1</property>
  <property name="video_index">0</property>
  <property name="mute_on_pause">0</property>
  <property name="mlt_service">avformat-novalidate</property>
  <property name="seekable">1</property>
  <property name="aspect_ratio">1</property>
  <property name="kdenlive:clipname"/>
  <property name="kdenlive:folderid">31</property>
  <property name="kdenlive:id">33</property>
  <property name="kdenlive:file_size">15369206</property>
  <property name="kdenlive:file_hash">37312a72bc3e58f63721c2a0b7deebb1</property>
  <property name="kdenlive:audio_max1">72</property>
  <property name="xml">was here</property>
  <property name="meta.media.nb_streams">2</property>
  <property name="meta.media.0.stream.type">video</property>
  <property name="meta.media.0.stream.frame_rate">60</property>
  <property name="meta.media.0.stream.sample_aspect_ratio">0</property>
  <property name="meta.media.0.codec.width">1920</property>
  <property name="meta.media.0.codec.height">1080</property>
  <property name="meta.media.0.codec.rotate">0</property>
  <property name="meta.media.0.codec.pix_fmt">yuv420p</property>
  <property name="meta.media.0.codec.sample_aspect_ratio">1</property>
  <property name="meta.media.0.codec.colorspace">601</property>
  <property name="meta.media.0.codec.color_trc">1</property>
  <property name="meta.media.0.codec.name">h264</property>
  <property name="meta.media.0.codec.long_name">H.264 / AVC / MPEG-4 AVC / MPEG-4 part 10</property>
  <property name="meta.media.0.codec.bit_rate">8337058</property>
  <property name="meta.attr.0.stream.creation_time.markup">1970-01-01T00:00:00.000000Z</property>
  <property name="meta.attr.0.stream.handler_name.markup">ISO Media file produced by Google Inc.</property>
  <property name="meta.media.1.stream.type">audio</property>
  <property name="meta.media.1.codec.sample_fmt">fltp</property>
  <property name="meta.media.1.codec.sample_rate">44100</property>
  <property name="meta.media.1.codec.channels">2</property>
  <property name="meta.media.1.codec.name">aac</property>
  <property name="meta.media.1.codec.long_name">AAC (Advanced Audio Coding)</property>
  <property name="meta.media.1.codec.bit_rate">127999</property>
  <property name="meta.attr.1.stream.creation_time.markup">1970-01-01T00:00:00.000000Z</property>
  <property name="meta.attr.1.stream.language.markup">eng</property>
  <property name="meta.attr.1.stream.handler_name.markup">ISO Media file produced by Google Inc.</property>
  <property name="meta.attr.major_brand.markup">mp42</property>
  <property name="meta.attr.minor_version.markup">0</property>
  <property name="meta.attr.compatible_brands.markup">isommp42</property>
  <property name="meta.attr.creation_time.markup">2021-08-08T11:32:18.000000Z</property>
  <property name="meta.attr.location.markup">+49.7802+14.6673/</property>
  <property name="meta.media.sample_aspect_num">1</property>
  <property name="meta.media.sample_aspect_den">1</property>
  <property name="meta.media.frame_rate_num">60</property>
  <property name="meta.media.frame_rate_den">1</property>
  <property name="meta.media.colorspace">601</property>
  <property name="meta.media.color_trc">1</property>
  <property name="meta.media.has_b_frames">0</property>
  <property name="meta.media.width">1920</property>
  <property name="meta.media.height">1080</property>
  <property name="meta.media.color_range">mpeg</property>
  <property name="set.test_audio">1</property>
  <property name="set.test_image">0</property>
 </producer>
 <playlist id="playlist2">
  <blank length="00:01:07.900"/>
  <entry producer="producer75" in="00:00:07.633" out="00:00:19.133">
   <property name="kdenlive:id">32</property>
  </entry>
  <entry producer="producer75" in="00:01:09.733" out="00:01:11.433">
   <property name="kdenlive:id">32</property>
  </entry>
  <entry producer="producer75" in="00:00:58.767" out="00:01:06.400">
   <property name="kdenlive:id">32</property>
  </entry>
  <entry producer="producer75" in="00:01:09.733" out="00:01:11.433">
   <property name="kdenlive:id">32</property>
  </entry>
  <entry producer="producer75" in="00:01:11.467" out="00:01:31.233">
   <property name="kdenlive:id">32</property>
  </entry>
  <blank length="00:02:38.767"/>
  <entry producer="producer76" in="00:00:00.833" out="00:00:20.200">
   <property name="kdenlive:id">35</property>
  </entry>
  <entry producer="producer77" in="00:00:00.000" out="00:00:37.767">
   <property name="kdenlive:id">36</property>
  </entry>
  <entry producer="producer78" in="00:00:00.000" out="00:00:14.200">
   <property name="kdenlive:id">34</property>
  </entry>
  <entry producer="producer79" in="00:00:03.300" out="00:00:14.533">
   <property name="kdenlive:id">33</property>
  </entry>
 </playlist>
 <playlist id="playlist3"/>
 <tractor id="tractor1" in="00:00:00.000" out="00:05:51.800">
  <property name="kdenlive:trackheight">69</property>
  <property name="kdenlive:timeline_active">1</property>
  <property name="kdenlive:collapsed">0</property>
  <property name="kdenlive:track_name">Fede</property>
  <property name="kdenlive:thumbs_format"/>
  <property name="kdenlive:audio_rec"/>
  <track hide="audio" producer="playlist2"/>
  <track hide="audio" producer="playlist3"/>
 </tractor>
 <producer id="producer80" in="00:00:00.000" out="00:00:04.967">
  <property name="length">150</property>
  <property name="eof">pause</property>
  <property name="resource">/opt/vlog/graficas/white_noise.mlt</property>
  <property name="aspect_ratio">1</property>
  <property name="mlt_service">consumer</property>
  <property name="kdenlive:clipname"/>
  <property name="kdenlive:folderid">45</property>
  <property name="kdenlive:id">46</property>
  <property name="kdenlive:file_size">809</property>
  <property name="kdenlive:file_hash">f18145093b3723f72c07dc807d65bb84</property>
  <property name="kdenlive:audio_max0">234</property>
  <property name="xml">was here</property>
  <property name="seekable">1</property>
  <property name="set.test_audio">1</property>
  <property name="set.test_image">0</property>
 </producer>
 <playlist id="playlist4">
  <blank length="00:01:07.567"/>
  <entry producer="producer80" in="00:00:00.000" out="00:00:00.300">
   <property name="kdenlive:id">46</property>
  </entry>
  <blank length="00:00:42.467"/>
  <entry producer="producer80" in="00:00:00.000" out="00:00:00.300">
   <property name="kdenlive:id">46</property>
  </entry>
 </playlist>
 <playlist id="playlist5"/>
 <tractor id="tractor2" in="00:00:00.000" out="00:01:50.667">
  <property name="kdenlive:trackheight">69</property>
  <property name="kdenlive:timeline_active">1</property>
  <property name="kdenlive:collapsed">0</property>
  <property name="kdenlive:track_name">white noise</property>
  <property name="kdenlive:thumbs_format"/>
  <property name="kdenlive:audio_rec"/>
  <track hide="audio" producer="playlist4"/>
  <track hide="audio" producer="playlist5"/>
 </tractor>
 <producer id="producer81" in="00:00:00.000" out="00:00:04.967">
  <property name="length">150</property>
  <property name="eof">pause</property>
  <property name="resource">/opt/vlog/graficas/white_noise.mlt</property>
  <property name="aspect_ratio">1</property>
  <property name="mlt_service">consumer</property>
  <property name="kdenlive:clipname"/>
  <property name="kdenlive:folderid">45</property>
  <property name="kdenlive:id">46</property>
  <property name="kdenlive:file_size">809</property>
  <property name="kdenlive:file_hash">f18145093b3723f72c07dc807d65bb84</property>
  <property name="kdenlive:audio_max0">234</property>
  <property name="xml">was here</property>
  <property name="seekable">1</property>
  <property name="set.test_audio">0</property>
  <property name="set.test_image">1</property>
  <property name="audio_index">0</property>
 </producer>
 <playlist id="playlist6">
  <property name="kdenlive:audio_track">1</property>
  <blank length="00:01:07.567"/>
  <entry producer="producer81" in="00:00:00.000" out="00:00:00.300">
   <property name="kdenlive:id">46</property>
  </entry>
  <blank length="00:00:42.467"/>
  <entry producer="producer81" in="00:00:00.000" out="00:00:00.300">
   <property name="kdenlive:id">46</property>
  </entry>
  <blank length="00:01:04.667"/>
  <entry producer="producer81" in="00:00:00.000" out="00:00:00.300">
   <property name="kdenlive:id">46</property>
  </entry>
 </playlist>
 <playlist id="playlist7">
  <property name="kdenlive:audio_track">1</property>
 </playlist>
 <tractor id="tractor3" in="00:00:00.000" out="00:02:55.667">
  <property name="kdenlive:audio_track">1</property>
  <property name="kdenlive:trackheight">69</property>
  <property name="kdenlive:timeline_active">1</property>
  <property name="kdenlive:collapsed">0</property>
  <property name="kdenlive:track_name">white noise</property>
  <property name="kdenlive:thumbs_format"/>
  <property name="kdenlive:audio_rec"/>
  <track hide="video" producer="playlist6"/>
  <track hide="video" producer="playlist7"/>
  <filter id="filter3">
   <property name="window">75</property>
   <property name="max_gain">20dB</property>
   <property name="mlt_service">volume</property>
   <property name="internal_added">237</property>
   <property name="disable">1</property>
  </filter>
  <filter id="filter4">
   <property name="channel">-1</property>
   <property name="mlt_service">panner</property>
   <property name="internal_added">237</property>
   <property name="start">0.5</property>
   <property name="disable">1</property>
  </filter>
  <filter id="filter6" out="00:02:55.700">
   <property name="window">75</property>
   <property name="max_gain">20dB</property>
   <property name="level">00:00:00.000=-20</property>
   <property name="mlt_service">volume</property>
   <property name="kdenlive_id">volume</property>
   <property name="kdenlive:collapsed">0</property>
   <property name="disable">0</property>
  </filter>
  <filter id="filter5">
   <property name="iec_scale">0</property>
   <property name="mlt_service">audiolevel</property>
   <property name="disable">1</property>
  </filter>
 </tractor>
 <producer id="producer82" in="00:00:00.000" out="00:06:02.367">
  <property name="length">10872</property>
  <property name="eof">pause</property>
  <property name="resource">manolo/PXL_20210809_063647560.mp4</property>
  <property name="audio_index">0</property>
  <property name="video_index">1</property>
  <property name="mute_on_pause">0</property>
  <property name="mlt_service">avformat-novalidate</property>
  <property name="seekable">1</property>
  <property name="aspect_ratio">1</property>
  <property name="kdenlive:clipname"/>
  <property name="kdenlive:folderid">2</property>
  <property name="kdenlive:id">30</property>
  <property name="kdenlive:file_size">715863728</property>
  <property name="kdenlive:file_hash">5ec9ca0e4a7a511d50ab8858fcbfaf87</property>
  <property name="kdenlive:audio_max0">233</property>
  <property name="xml">was here</property>
  <property name="meta.media.nb_streams">2</property>
  <property name="meta.media.0.stream.type">audio</property>
  <property name="meta.media.0.codec.sample_fmt">fltp</property>
  <property name="meta.media.0.codec.sample_rate">48000</property>
  <property name="meta.media.0.codec.channels">2</property>
  <property name="meta.media.0.codec.name">aac</property>
  <property name="meta.media.0.codec.long_name">AAC (Advanced Audio Coding)</property>
  <property name="meta.media.0.codec.bit_rate">191984</property>
  <property name="meta.attr.0.stream.creation_time.markup">2021-08-09T06:43:33.000000Z</property>
  <property name="meta.attr.0.stream.language.markup">eng</property>
  <property name="meta.attr.0.stream.handler_name.markup">SoundHandle</property>
  <property name="meta.media.1.stream.type">video</property>
  <property name="meta.media.1.stream.frame_rate">30.0307</property>
  <property name="meta.media.1.stream.sample_aspect_ratio">1</property>
  <property name="meta.media.1.codec.width">1920</property>
  <property name="meta.media.1.codec.height">1080</property>
  <property name="meta.media.1.codec.rotate">0</property>
  <property name="meta.media.1.codec.pix_fmt">yuvj420p</property>
  <property name="meta.media.1.codec.sample_aspect_ratio">0</property>
  <property name="meta.media.1.codec.colorspace">601</property>
  <property name="meta.media.1.codec.color_trc">6</property>
  <property name="meta.media.1.codec.name">h264</property>
  <property name="meta.media.1.codec.long_name">H.264 / AVC / MPEG-4 AVC / MPEG-4 part 10</property>
  <property name="meta.media.1.codec.bit_rate">15607389</property>
  <property name="meta.attr.1.stream.creation_time.markup">2021-08-09T06:43:33.000000Z</property>
  <property name="meta.attr.1.stream.language.markup">eng</property>
  <property name="meta.attr.1.stream.handler_name.markup">VideoHandle</property>
  <property name="meta.attr.major_brand.markup">mp42</property>
  <property name="meta.attr.minor_version.markup">0</property>
  <property name="meta.attr.compatible_brands.markup">isommp42</property>
  <property name="meta.attr.creation_time.markup">2021-08-09T06:43:33.000000Z</property>
  <property name="meta.attr.location.markup">+53.4980+7.0654/</property>
  <property name="meta.attr.location-eng.markup">+53.4980+7.0654/</property>
  <property name="meta.attr.com.android.capture.fps.markup">30.000000</property>
  <property name="meta.media.sample_aspect_num">1</property>
  <property name="meta.media.sample_aspect_den">1</property>
  <property name="meta.media.frame_rate_num">97947000</property>
  <property name="meta.media.frame_rate_den">3261557</property>
  <property name="meta.media.colorspace">601</property>
  <property name="meta.media.color_trc">6</property>
  <property name="meta.media.has_b_frames">0</property>
  <property name="meta.media.width">1920</property>
  <property name="meta.media.height">1080</property>
  <property name="meta.media.color_range">full</property>
  <property name="meta.media.variable_frame_rate">1</property>
  <property name="meta.media.top_field_first">0</property>
  <property name="meta.media.progressive">1</property>
  <property name="set.test_audio">0</property>
  <property name="set.test_image">1</property>
 </producer>
 <producer id="producer48" in="00:00:00.000" out="00:00:18.300">
  <property name="length">550</property>
  <property name="eof">pause</property>
  <property name="resource">manolo/PXL_20210809_104115096.mp4</property>
  <property name="audio_index">0</property>
  <property name="video_index">1</property>
  <property name="mute_on_pause">0</property>
  <property name="mlt_service">avformat-novalidate</property>
  <property name="seekable">1</property>
  <property name="aspect_ratio">1</property>
  <property name="kdenlive:clipname"/>
  <property name="kdenlive:folderid">2</property>
  <property name="kdenlive:id">29</property>
  <property name="kdenlive:file_size">49352093</property>
  <property name="kdenlive:file_hash">608a1658a646d07fa7a6abaead1d98c1</property>
  <property name="kdenlive:audio_max0">208</property>
  <property name="xml">was here</property>
  <property name="meta.media.nb_streams">2</property>
  <property name="meta.media.0.stream.type">audio</property>
  <property name="meta.media.0.codec.sample_fmt">fltp</property>
  <property name="meta.media.0.codec.sample_rate">48000</property>
  <property name="meta.media.0.codec.channels">2</property>
  <property name="meta.media.0.codec.name">aac</property>
  <property name="meta.media.0.codec.long_name">AAC (Advanced Audio Coding)</property>
  <property name="meta.media.0.codec.bit_rate">187700</property>
  <property name="meta.attr.0.stream.creation_time.markup">2021-08-09T10:41:33.000000Z</property>
  <property name="meta.attr.0.stream.language.markup">eng</property>
  <property name="meta.attr.0.stream.handler_name.markup">SoundHandle</property>
  <property name="meta.media.1.stream.type">video</property>
  <property name="meta.media.1.stream.frame_rate">29.2132</property>
  <property name="meta.media.1.stream.sample_aspect_ratio">1</property>
  <property name="meta.media.1.codec.width">1920</property>
  <property name="meta.media.1.codec.height">1080</property>
  <property name="meta.media.1.codec.rotate">0</property>
  <property name="meta.media.1.codec.pix_fmt">yuvj420p</property>
  <property name="meta.media.1.codec.sample_aspect_ratio">0</property>
  <property name="meta.media.1.codec.colorspace">601</property>
  <property name="meta.media.1.codec.color_trc">6</property>
  <property name="meta.media.1.codec.name">h264</property>
  <property name="meta.media.1.codec.long_name">H.264 / AVC / MPEG-4 AVC / MPEG-4 part 10</property>
  <property name="meta.media.1.codec.bit_rate">21326288</property>
  <property name="meta.attr.1.stream.creation_time.markup">2021-08-09T10:41:33.000000Z</property>
  <property name="meta.attr.1.stream.language.markup">eng</property>
  <property name="meta.attr.1.stream.handler_name.markup">VideoHandle</property>
  <property name="meta.attr.major_brand.markup">mp42</property>
  <property name="meta.attr.minor_version.markup">0</property>
  <property name="meta.attr.compatible_brands.markup">isommp42</property>
  <property name="meta.attr.creation_time.markup">2021-08-09T10:41:33.000000Z</property>
  <property name="meta.attr.location.markup">+52.2619+10.2166/</property>
  <property name="meta.attr.location-eng.markup">+52.2619+10.2166/</property>
  <property name="meta.attr.com.android.capture.fps.markup">30.000000</property>
  <property name="meta.media.sample_aspect_num">1</property>
  <property name="meta.media.sample_aspect_den">1</property>
  <property name="meta.media.frame_rate_num">4020000</property>
  <property name="meta.media.frame_rate_den">137609</property>
  <property name="meta.media.colorspace">601</property>
  <property name="meta.media.color_trc">6</property>
  <property name="meta.media.has_b_frames">0</property>
  <property name="meta.media.width">1920</property>
  <property name="meta.media.height">1080</property>
  <property name="meta.media.color_range">full</property>
  <property name="meta.media.variable_frame_rate">1</property>
  <property name="meta.media.top_field_first">0</property>
  <property name="meta.media.progressive">1</property>
  <property name="set.test_audio">0</property>
  <property name="set.test_image">1</property>
 </producer>
 <producer id="producer49" in="00:00:00.000" out="00:00:18.733">
  <property name="length">563</property>
  <property name="eof">pause</property>
  <property name="resource">manolo/PXL_20210809_104136249.mp4</property>
  <property name="audio_index">0</property>
  <property name="video_index">1</property>
  <property name="mute_on_pause">0</property>
  <property name="mlt_service">avformat-novalidate</property>
  <property name="seekable">1</property>
  <property name="aspect_ratio">1</property>
  <property name="kdenlive:clipname"/>
  <property name="kdenlive:folderid">2</property>
  <property name="kdenlive:id">28</property>
  <property name="kdenlive:file_size">76014473</property>
  <property name="kdenlive:file_hash">b9b8942f264646570c04214df79ab06d</property>
  <property name="kdenlive:audio_max0">202</property>
  <property name="xml">was here</property>
  <property name="meta.media.nb_streams">2</property>
  <property name="meta.media.0.stream.type">audio</property>
  <property name="meta.media.0.codec.sample_fmt">fltp</property>
  <property name="meta.media.0.codec.sample_rate">48000</property>
  <property name="meta.media.0.codec.channels">2</property>
  <property name="meta.media.0.codec.name">aac</property>
  <property name="meta.media.0.codec.long_name">AAC (Advanced Audio Coding)</property>
  <property name="meta.media.0.codec.bit_rate">191805</property>
  <property name="meta.attr.0.stream.creation_time.markup">2021-08-09T10:41:56.000000Z</property>
  <property name="meta.attr.0.stream.language.markup">eng</property>
  <property name="meta.attr.0.stream.handler_name.markup">SoundHandle</property>
  <property name="meta.media.1.stream.type">video</property>
  <property name="meta.media.1.stream.frame_rate">59.9833</property>
  <property name="meta.media.1.stream.sample_aspect_ratio">1</property>
  <property name="meta.media.1.codec.width">1920</property>
  <property name="meta.media.1.codec.height">1080</property>
  <property name="meta.media.1.codec.rotate">0</property>
  <property name="meta.media.1.codec.pix_fmt">yuvj420p</property>
  <property name="meta.media.1.codec.sample_aspect_ratio">0</property>
  <property name="meta.media.1.codec.colorspace">601</property>
  <property name="meta.media.1.codec.color_trc">6</property>
  <property name="meta.media.1.codec.name">h264</property>
  <property name="meta.media.1.codec.long_name">H.264 / AVC / MPEG-4 AVC / MPEG-4 part 10</property>
  <property name="meta.media.1.codec.bit_rate">32196649</property>
  <property name="meta.attr.1.stream.creation_time.markup">2021-08-09T10:41:56.000000Z</property>
  <property name="meta.attr.1.stream.language.markup">eng</property>
  <property name="meta.attr.1.stream.handler_name.markup">VideoHandle</property>
  <property name="meta.attr.major_brand.markup">mp42</property>
  <property name="meta.attr.minor_version.markup">0</property>
  <property name="meta.attr.compatible_brands.markup">isommp42</property>
  <property name="meta.attr.creation_time.markup">2021-08-09T10:41:56.000000Z</property>
  <property name="meta.attr.location.markup">+52.2620+10.2166/</property>
  <property name="meta.attr.location-eng.markup">+52.2620+10.2166/</property>
  <property name="meta.attr.com.android.capture.fps.markup">30.000000</property>
  <property name="meta.media.sample_aspect_num">1</property>
  <property name="meta.media.sample_aspect_den">1</property>
  <property name="meta.media.frame_rate_num">10134000</property>
  <property name="meta.media.frame_rate_den">168947</property>
  <property name="meta.media.colorspace">601</property>
  <property name="meta.media.color_trc">6</property>
  <property name="meta.media.has_b_frames">0</property>
  <property name="meta.media.width">1920</property>
  <property name="meta.media.height">1080</property>
  <property name="meta.media.color_range">full</property>
  <property name="meta.media.variable_frame_rate">1</property>
  <property name="meta.media.top_field_first">0</property>
  <property name="meta.media.progressive">1</property>
  <property name="set.test_audio">0</property>
  <property name="set.test_image">1</property>
 </producer>
 <producer id="producer50" in="00:00:00.000" out="00:01:30.633">
  <property name="length">2720</property>
  <property name="eof">pause</property>
  <property name="resource">manolo/PXL_20210809_104208652.mp4</property>
  <property name="audio_index">0</property>
  <property name="video_index">1</property>
  <property name="mute_on_pause">0</property>
  <property name="mlt_service">avformat-novalidate</property>
  <property name="seekable">1</property>
  <property name="aspect_ratio">1</property>
  <property name="kdenlive:clipname"/>
  <property name="kdenlive:folderid">2</property>
  <property name="kdenlive:id">27</property>
  <property name="kdenlive:file_size">282867682</property>
  <property name="kdenlive:file_hash">c12b491ff29267742e2eb59e9a138ed3</property>
  <property name="kdenlive:audio_max0">228</property>
  <property name="xml">was here</property>
  <property name="meta.media.nb_streams">2</property>
  <property name="meta.media.0.stream.type">audio</property>
  <property name="meta.media.0.codec.sample_fmt">fltp</property>
  <property name="meta.media.0.codec.sample_rate">48000</property>
  <property name="meta.media.0.codec.channels">2</property>
  <property name="meta.media.0.codec.name">aac</property>
  <property name="meta.media.0.codec.long_name">AAC (Advanced Audio Coding)</property>
  <property name="meta.media.0.codec.bit_rate">192006</property>
  <property name="meta.attr.0.stream.creation_time.markup">2021-08-09T10:43:40.000000Z</property>
  <property name="meta.attr.0.stream.language.markup">eng</property>
  <property name="meta.attr.0.stream.handler_name.markup">SoundHandle</property>
  <property name="meta.media.1.stream.type">video</property>
  <property name="meta.media.1.stream.frame_rate">49.5514</property>
  <property name="meta.media.1.stream.sample_aspect_ratio">1</property>
  <property name="meta.media.1.codec.width">1920</property>
  <property name="meta.media.1.codec.height">1080</property>
  <property name="meta.media.1.codec.rotate">0</property>
  <property name="meta.media.1.codec.pix_fmt">yuvj420p</property>
  <property name="meta.media.1.codec.sample_aspect_ratio">0</property>
  <property name="meta.media.1.codec.colorspace">601</property>
  <property name="meta.media.1.codec.color_trc">6</property>
  <property name="meta.media.1.codec.name">h264</property>
  <property name="meta.media.1.codec.long_name">H.264 / AVC / MPEG-4 AVC / MPEG-4 part 10</property>
  <property name="meta.media.1.codec.bit_rate">24759656</property>
  <property name="meta.attr.1.stream.creation_time.markup">2021-08-09T10:43:40.000000Z</property>
  <property name="meta.attr.1.stream.language.markup">eng</property>
  <property name="meta.attr.1.stream.handler_name.markup">VideoHandle</property>
  <property name="meta.attr.major_brand.markup">mp42</property>
  <property name="meta.attr.minor_version.markup">0</property>
  <property name="meta.attr.compatible_brands.markup">isommp42</property>
  <property name="meta.attr.creation_time.markup">2021-08-09T10:43:40.000000Z</property>
  <property name="meta.attr.location.markup">+52.2619+10.2167/</property>
  <property name="meta.attr.location-eng.markup">+52.2619+10.2167/</property>
  <property name="meta.attr.com.android.capture.fps.markup">30.000000</property>
  <property name="meta.media.sample_aspect_num">1</property>
  <property name="meta.media.sample_aspect_den">1</property>
  <property name="meta.media.frame_rate_num">67395000</property>
  <property name="meta.media.frame_rate_den">1360103</property>
  <property name="meta.media.colorspace">601</property>
  <property name="meta.media.color_trc">6</property>
  <property name="meta.media.has_b_frames">0</property>
  <property name="meta.media.width">1920</property>
  <property name="meta.media.height">1080</property>
  <property name="meta.media.color_range">full</property>
  <property name="set.test_audio">0</property>
  <property name="set.test_image">1</property>
  <property name="meta.media.variable_frame_rate">1</property>
 </producer>
 <producer id="producer51" in="00:00:00.000" out="00:00:14.300">
  <property name="length">430</property>
  <property name="eof">pause</property>
  <property name="resource">manolo/PXL_20210809_114822938.mp4</property>
  <property name="audio_index">0</property>
  <property name="video_index">1</property>
  <property name="mute_on_pause">0</property>
  <property name="mlt_service">avformat-novalidate</property>
  <property name="seekable">1</property>
  <property name="aspect_ratio">1</property>
  <property name="kdenlive:clipname"/>
  <property name="kdenlive:folderid">2</property>
  <property name="kdenlive:id">17</property>
  <property name="kdenlive:file_size">29774963</property>
  <property name="kdenlive:file_hash">6192bac4f649053a9f86857799354b0a</property>
  <property name="kdenlive:audio_max0">210</property>
  <property name="xml">was here</property>
  <property name="meta.media.nb_streams">2</property>
  <property name="meta.media.0.stream.type">audio</property>
  <property name="meta.media.0.codec.sample_fmt">fltp</property>
  <property name="meta.media.0.codec.sample_rate">48000</property>
  <property name="meta.media.0.codec.channels">2</property>
  <property name="meta.media.0.codec.name">aac</property>
  <property name="meta.media.0.codec.long_name">AAC (Advanced Audio Coding)</property>
  <property name="meta.media.0.codec.bit_rate">191924</property>
  <property name="meta.attr.0.stream.creation_time.markup">2021-08-09T11:48:38.000000Z</property>
  <property name="meta.attr.0.stream.language.markup">eng</property>
  <property name="meta.attr.0.stream.handler_name.markup">SoundHandle</property>
  <property name="meta.media.1.stream.type">video</property>
  <property name="meta.media.1.stream.frame_rate">60.0411</property>
  <property name="meta.media.1.stream.sample_aspect_ratio">1</property>
  <property name="meta.media.1.codec.width">1920</property>
  <property name="meta.media.1.codec.height">1080</property>
  <property name="meta.media.1.codec.rotate">0</property>
  <property name="meta.media.1.codec.pix_fmt">yuvj420p</property>
  <property name="meta.media.1.codec.sample_aspect_ratio">0</property>
  <property name="meta.media.1.codec.colorspace">601</property>
  <property name="meta.media.1.codec.color_trc">6</property>
  <property name="meta.media.1.codec.name">h264</property>
  <property name="meta.media.1.codec.long_name">H.264 / AVC / MPEG-4 AVC / MPEG-4 part 10</property>
  <property name="meta.media.1.codec.bit_rate">16413586</property>
  <property name="meta.attr.1.stream.creation_time.markup">2021-08-09T11:48:38.000000Z</property>
  <property name="meta.attr.1.stream.language.markup">eng</property>
  <property name="meta.attr.1.stream.handler_name.markup">VideoHandle</property>
  <property name="meta.attr.major_brand.markup">mp42</property>
  <property name="meta.attr.minor_version.markup">0</property>
  <property name="meta.attr.compatible_brands.markup">isommp42</property>
  <property name="meta.attr.creation_time.markup">2021-08-09T11:48:38.000000Z</property>
  <property name="meta.attr.location.markup">+52.2680+10.2240/</property>
  <property name="meta.attr.location-eng.markup">+52.2680+10.2240/</property>
  <property name="meta.attr.com.android.capture.fps.markup">30.000000</property>
  <property name="meta.media.sample_aspect_num">1</property>
  <property name="meta.media.sample_aspect_den">1</property>
  <property name="meta.media.frame_rate_num">5166000</property>
  <property name="meta.media.frame_rate_den">86041</property>
  <property name="meta.media.colorspace">601</property>
  <property name="meta.media.color_trc">6</property>
  <property name="meta.media.has_b_frames">0</property>
  <property name="meta.media.width">1920</property>
  <property name="meta.media.height">1080</property>
  <property name="meta.media.color_range">full</property>
  <property name="set.test_audio">0</property>
  <property name="set.test_image">1</property>
 </producer>
 <producer id="producer52" in="00:00:00.000" out="00:00:16.467">
  <property name="length">495</property>
  <property name="eof">pause</property>
  <property name="resource">manolo/PXL_20210809_114638280.mp4</property>
  <property name="audio_index">0</property>
  <property name="video_index">1</property>
  <property name="mute_on_pause">0</property>
  <property name="mlt_service">avformat-novalidate</property>
  <property name="seekable">1</property>
  <property name="aspect_ratio">1</property>
  <property name="kdenlive:clipname"/>
  <property name="kdenlive:folderid">2</property>
  <property name="kdenlive:id">19</property>
  <property name="kdenlive:file_size">51509160</property>
  <property name="kdenlive:file_hash">bb1b6e81e88f18522384864161107709</property>
  <property name="kdenlive:audio_max0">216</property>
  <property name="xml">was here</property>
  <property name="meta.media.nb_streams">2</property>
  <property name="meta.media.0.stream.type">audio</property>
  <property name="meta.media.0.codec.sample_fmt">fltp</property>
  <property name="meta.media.0.codec.sample_rate">48000</property>
  <property name="meta.media.0.codec.channels">2</property>
  <property name="meta.media.0.codec.name">aac</property>
  <property name="meta.media.0.codec.long_name">AAC (Advanced Audio Coding)</property>
  <property name="meta.media.0.codec.bit_rate">191993</property>
  <property name="meta.attr.0.stream.creation_time.markup">2021-08-09T11:46:56.000000Z</property>
  <property name="meta.attr.0.stream.language.markup">eng</property>
  <property name="meta.attr.0.stream.handler_name.markup">SoundHandle</property>
  <property name="meta.media.1.stream.type">video</property>
  <property name="meta.media.1.stream.frame_rate">54.9765</property>
  <property name="meta.media.1.stream.sample_aspect_ratio">1</property>
  <property name="meta.media.1.codec.width">1920</property>
  <property name="meta.media.1.codec.height">1080</property>
  <property name="meta.media.1.codec.rotate">0</property>
  <property name="meta.media.1.codec.pix_fmt">yuvj420p</property>
  <property name="meta.media.1.codec.sample_aspect_ratio">0</property>
  <property name="meta.media.1.codec.colorspace">601</property>
  <property name="meta.media.1.codec.color_trc">6</property>
  <property name="meta.media.1.codec.name">h264</property>
  <property name="meta.media.1.codec.long_name">H.264 / AVC / MPEG-4 AVC / MPEG-4 part 10</property>
  <property name="meta.media.1.codec.bit_rate">24752732</property>
  <property name="meta.attr.1.stream.creation_time.markup">2021-08-09T11:46:56.000000Z</property>
  <property name="meta.attr.1.stream.language.markup">eng</property>
  <property name="meta.attr.1.stream.handler_name.markup">VideoHandle</property>
  <property name="meta.attr.major_brand.markup">mp42</property>
  <property name="meta.attr.minor_version.markup">0</property>
  <property name="meta.attr.compatible_brands.markup">isommp42</property>
  <property name="meta.attr.creation_time.markup">2021-08-09T11:46:56.000000Z</property>
  <property name="meta.attr.location.markup">+52.2596+10.2150/</property>
  <property name="meta.attr.location-eng.markup">+52.2596+10.2150/</property>
  <property name="meta.attr.com.android.capture.fps.markup">30.000000</property>
  <property name="meta.media.sample_aspect_num">1</property>
  <property name="meta.media.sample_aspect_den">1</property>
  <property name="meta.media.frame_rate_num">81720000</property>
  <property name="meta.media.frame_rate_den">1486453</property>
  <property name="meta.media.colorspace">601</property>
  <property name="meta.media.color_trc">6</property>
  <property name="meta.media.has_b_frames">0</property>
  <property name="meta.media.width">1920</property>
  <property name="meta.media.height">1080</property>
  <property name="meta.media.color_range">full</property>
  <property name="set.test_audio">0</property>
  <property name="set.test_image">1</property>
 </producer>
 <producer id="producer53" in="00:00:00.000" out="00:01:10.033">
  <property name="length">2102</property>
  <property name="eof">pause</property>
  <property name="resource">manolo/PXL_20210809_114703889.mp4</property>
  <property name="audio_index">0</property>
  <property name="video_index">1</property>
  <property name="mute_on_pause">0</property>
  <property name="mlt_service">avformat-novalidate</property>
  <property name="seekable">1</property>
  <property name="aspect_ratio">1</property>
  <property name="kdenlive:clipname"/>
  <property name="kdenlive:folderid">2</property>
  <property name="kdenlive:id">18</property>
  <property name="kdenlive:file_size">198501402</property>
  <property name="kdenlive:file_hash">6618394cd7523344e850ebcc823e278c</property>
  <property name="kdenlive:audio_max0">231</property>
  <property name="xml">was here</property>
  <property name="meta.media.nb_streams">2</property>
  <property name="meta.media.0.stream.type">audio</property>
  <property name="meta.media.0.codec.sample_fmt">fltp</property>
  <property name="meta.media.0.codec.sample_rate">48000</property>
  <property name="meta.media.0.codec.channels">2</property>
  <property name="meta.media.0.codec.name">aac</property>
  <property name="meta.media.0.codec.long_name">AAC (Advanced Audio Coding)</property>
  <property name="meta.media.0.codec.bit_rate">191984</property>
  <property name="meta.attr.0.stream.creation_time.markup">2021-08-09T11:48:15.000000Z</property>
  <property name="meta.attr.0.stream.language.markup">eng</property>
  <property name="meta.attr.0.stream.handler_name.markup">SoundHandle</property>
  <property name="meta.media.1.stream.type">video</property>
  <property name="meta.media.1.stream.frame_rate">43.3149</property>
  <property name="meta.media.1.stream.sample_aspect_ratio">1</property>
  <property name="meta.media.1.codec.width">1920</property>
  <property name="meta.media.1.codec.height">1080</property>
  <property name="meta.media.1.codec.rotate">0</property>
  <property name="meta.media.1.codec.pix_fmt">yuvj420p</property>
  <property name="meta.media.1.codec.sample_aspect_ratio">0</property>
  <property name="meta.media.1.codec.colorspace">601</property>
  <property name="meta.media.1.codec.color_trc">6</property>
  <property name="meta.media.1.codec.name">h264</property>
  <property name="meta.media.1.codec.long_name">H.264 / AVC / MPEG-4 AVC / MPEG-4 part 10</property>
  <property name="meta.media.1.codec.bit_rate">22467756</property>
  <property name="meta.attr.1.stream.creation_time.markup">2021-08-09T11:48:15.000000Z</property>
  <property name="meta.attr.1.stream.language.markup">eng</property>
  <property name="meta.attr.1.stream.handler_name.markup">VideoHandle</property>
  <property name="meta.attr.major_brand.markup">mp42</property>
  <property name="meta.attr.minor_version.markup">0</property>
  <property name="meta.attr.compatible_brands.markup">isommp42</property>
  <property name="meta.attr.creation_time.markup">2021-08-09T11:48:15.000000Z</property>
  <property name="meta.attr.location.markup">+52.2595+10.2145/</property>
  <property name="meta.attr.location-eng.markup">+52.2595+10.2145/</property>
  <property name="meta.attr.com.android.capture.fps.markup">30.000000</property>
  <property name="meta.media.sample_aspect_num">1</property>
  <property name="meta.media.sample_aspect_den">1</property>
  <property name="meta.media.frame_rate_num">5690625</property>
  <property name="meta.media.frame_rate_den">131378</property>
  <property name="meta.media.colorspace">601</property>
  <property name="meta.media.color_trc">6</property>
  <property name="meta.media.has_b_frames">0</property>
  <property name="meta.media.width">1920</property>
  <property name="meta.media.height">1080</property>
  <property name="meta.media.color_range">full</property>
  <property name="set.test_audio">0</property>
  <property name="set.test_image">1</property>
  <property name="meta.media.variable_frame_rate">1</property>
 </producer>
 <producer id="producer54" in="00:00:00.000" out="00:00:08.667">
  <property name="length">261</property>
  <property name="eof">pause</property>
  <property name="resource">manolo/PXL_20210809_120018344.mp4</property>
  <property name="audio_index">0</property>
  <property name="video_index">1</property>
  <property name="mute_on_pause">0</property>
  <property name="mlt_service">avformat-novalidate</property>
  <property name="seekable">1</property>
  <property name="aspect_ratio">1</property>
  <property name="kdenlive:clipname"/>
  <property name="kdenlive:folderid">2</property>
  <property name="kdenlive:id">15</property>
  <property name="kdenlive:file_size">36186053</property>
  <property name="kdenlive:file_hash">e4578fef4aaaeee4f1f31aff4626ed4d</property>
  <property name="kdenlive:audio_max0">203</property>
  <property name="xml">was here</property>
  <property name="meta.media.nb_streams">2</property>
  <property name="meta.media.0.stream.type">audio</property>
  <property name="meta.media.0.codec.sample_fmt">fltp</property>
  <property name="meta.media.0.codec.sample_rate">48000</property>
  <property name="meta.media.0.codec.channels">2</property>
  <property name="meta.media.0.codec.name">aac</property>
  <property name="meta.media.0.codec.long_name">AAC (Advanced Audio Coding)</property>
  <property name="meta.media.0.codec.bit_rate">191617</property>
  <property name="meta.attr.0.stream.rotate.markup">180</property>
  <property name="meta.attr.0.stream.creation_time.markup">2021-08-09T12:00:29.000000Z</property>
  <property name="meta.attr.0.stream.language.markup">eng</property>
  <property name="meta.attr.0.stream.handler_name.markup">SoundHandle</property>
  <property name="meta.media.1.stream.type">video</property>
  <property name="meta.media.1.stream.frame_rate">59.7408</property>
  <property name="meta.media.1.stream.sample_aspect_ratio">1</property>
  <property name="meta.media.1.codec.width">1920</property>
  <property name="meta.media.1.codec.height">1080</property>
  <property name="meta.media.1.codec.rotate">180</property>
  <property name="meta.media.1.codec.pix_fmt">yuvj420p</property>
  <property name="meta.media.1.codec.sample_aspect_ratio">0</property>
  <property name="meta.media.1.codec.colorspace">601</property>
  <property name="meta.media.1.codec.color_trc">6</property>
  <property name="meta.media.1.codec.name">h264</property>
  <property name="meta.media.1.codec.long_name">H.264 / AVC / MPEG-4 AVC / MPEG-4 part 10</property>
  <property name="meta.media.1.codec.bit_rate">33124210</property>
  <property name="meta.attr.1.stream.rotate.markup">180</property>
  <property name="meta.attr.1.stream.creation_time.markup">2021-08-09T12:00:29.000000Z</property>
  <property name="meta.attr.1.stream.language.markup">eng</property>
  <property name="meta.attr.1.stream.handler_name.markup">VideoHandle</property>
  <property name="meta.attr.major_brand.markup">mp42</property>
  <property name="meta.attr.minor_version.markup">0</property>
  <property name="meta.attr.compatible_brands.markup">isommp42</property>
  <property name="meta.attr.creation_time.markup">2021-08-09T12:00:29.000000Z</property>
  <property name="meta.attr.location.markup">+52.2612+10.2159/</property>
  <property name="meta.attr.location-eng.markup">+52.2612+10.2159/</property>
  <property name="meta.attr.com.android.capture.fps.markup">30.000000</property>
  <property name="meta.media.sample_aspect_num">1</property>
  <property name="meta.media.sample_aspect_den">1</property>
  <property name="meta.media.frame_rate_num">7785000</property>
  <property name="meta.media.frame_rate_den">130313</property>
  <property name="meta.media.colorspace">601</property>
  <property name="meta.media.color_trc">6</property>
  <property name="meta.media.has_b_frames">0</property>
  <property name="meta.media.width">1920</property>
  <property name="meta.media.height">1080</property>
  <property name="meta.media.color_range">full</property>
  <property name="set.test_audio">0</property>
  <property name="set.test_image">1</property>
  <property name="meta.media.variable_frame_rate">1</property>
 </producer>
 <producer id="producer55" in="00:00:00.000" out="00:00:28.033">
  <property name="length">842</property>
  <property name="eof">pause</property>
  <property name="resource">manolo/PXL_20210809_154349125.mp4</property>
  <property name="audio_index">0</property>
  <property name="video_index">1</property>
  <property name="mute_on_pause">0</property>
  <property name="mlt_service">avformat-novalidate</property>
  <property name="seekable">1</property>
  <property name="aspect_ratio">1</property>
  <property name="kdenlive:clipname"/>
  <property name="kdenlive:folderid">2</property>
  <property name="kdenlive:id">9</property>
  <property name="kdenlive:file_size">39713077</property>
  <property name="kdenlive:file_hash">db0156721cef49e23e31307ed4970a24</property>
  <property name="kdenlive:audio_max0">217</property>
  <property name="xml">was here</property>
  <property name="meta.media.nb_streams">2</property>
  <property name="meta.media.0.stream.type">audio</property>
  <property name="meta.media.0.codec.sample_fmt">fltp</property>
  <property name="meta.media.0.codec.sample_rate">48000</property>
  <property name="meta.media.0.codec.channels">2</property>
  <property name="meta.media.0.codec.name">aac</property>
  <property name="meta.media.0.codec.long_name">AAC (Advanced Audio Coding)</property>
  <property name="meta.media.0.codec.bit_rate">191957</property>
  <property name="meta.attr.0.stream.rotate.markup">180</property>
  <property name="meta.attr.0.stream.creation_time.markup">2021-08-09T15:44:18.000000Z</property>
  <property name="meta.attr.0.stream.language.markup">eng</property>
  <property name="meta.attr.0.stream.handler_name.markup">SoundHandle</property>
  <property name="meta.media.1.stream.type">video</property>
  <property name="meta.media.1.stream.frame_rate">60.0107</property>
  <property name="meta.media.1.stream.sample_aspect_ratio">1</property>
  <property name="meta.media.1.codec.width">1920</property>
  <property name="meta.media.1.codec.height">1080</property>
  <property name="meta.media.1.codec.rotate">180</property>
  <property name="meta.media.1.codec.pix_fmt">yuvj420p</property>
  <property name="meta.media.1.codec.sample_aspect_ratio">0</property>
  <property name="meta.media.1.codec.colorspace">601</property>
  <property name="meta.media.1.codec.color_trc">6</property>
  <property name="meta.media.1.codec.name">h264</property>
  <property name="meta.media.1.codec.long_name">H.264 / AVC / MPEG-4 AVC / MPEG-4 part 10</property>
  <property name="meta.media.1.codec.bit_rate">11117085</property>
  <property name="meta.attr.1.stream.rotate.markup">180</property>
  <property name="meta.attr.1.stream.creation_time.markup">2021-08-09T15:44:18.000000Z</property>
  <property name="meta.attr.1.stream.language.markup">eng</property>
  <property name="meta.attr.1.stream.handler_name.markup">VideoHandle</property>
  <property name="meta.attr.major_brand.markup">mp42</property>
  <property name="meta.attr.minor_version.markup">0</property>
  <property name="meta.attr.compatible_brands.markup">isommp42</property>
  <property name="meta.attr.creation_time.markup">2021-08-09T15:44:18.000000Z</property>
  <property name="meta.attr.location.markup">+51.0558+13.5335/</property>
  <property name="meta.attr.location-eng.markup">+51.0558+13.5335/</property>
  <property name="meta.attr.com.android.capture.fps.markup">30.000000</property>
  <property name="meta.media.sample_aspect_num">1</property>
  <property name="meta.media.sample_aspect_den">1</property>
  <property name="meta.media.frame_rate_num">18956250</property>
  <property name="meta.media.frame_rate_den">315881</property>
  <property name="meta.media.colorspace">601</property>
  <property name="meta.media.color_trc">6</property>
  <property name="meta.media.has_b_frames">0</property>
  <property name="meta.media.width">1920</property>
  <property name="meta.media.height">1080</property>
  <property name="meta.media.color_range">full</property>
  <property name="set.test_audio">0</property>
  <property name="set.test_image">1</property>
  <property name="meta.media.variable_frame_rate">1</property>
 </producer>
 <producer id="producer56" in="00:00:00.000" out="00:00:28.967">
  <property name="length">870</property>
  <property name="eof">pause</property>
  <property name="resource">manolo/PXL_20210809_154423910.mp4</property>
  <property name="audio_index">0</property>
  <property name="video_index">1</property>
  <property name="mute_on_pause">0</property>
  <property name="mlt_service">avformat-novalidate</property>
  <property name="seekable">1</property>
  <property name="aspect_ratio">1</property>
  <property name="kdenlive:clipname"/>
  <property name="kdenlive:folderid">2</property>
  <property name="kdenlive:id">8</property>
  <property name="kdenlive:file_size">47920511</property>
  <property name="kdenlive:file_hash">872ad59dacc6434684fba5d9f7fda343</property>
  <property name="kdenlive:audio_max0">201</property>
  <property name="xml">was here</property>
  <property name="meta.media.nb_streams">2</property>
  <property name="meta.media.0.stream.type">audio</property>
  <property name="meta.media.0.codec.sample_fmt">fltp</property>
  <property name="meta.media.0.codec.sample_rate">48000</property>
  <property name="meta.media.0.codec.channels">2</property>
  <property name="meta.media.0.codec.name">aac</property>
  <property name="meta.media.0.codec.long_name">AAC (Advanced Audio Coding)</property>
  <property name="meta.media.0.codec.bit_rate">191940</property>
  <property name="meta.attr.0.stream.rotate.markup">180</property>
  <property name="meta.attr.0.stream.creation_time.markup">2021-08-09T15:44:54.000000Z</property>
  <property name="meta.attr.0.stream.language.markup">eng</property>
  <property name="meta.attr.0.stream.handler_name.markup">SoundHandle</property>
  <property name="meta.media.1.stream.type">video</property>
  <property name="meta.media.1.stream.frame_rate">59.8671</property>
  <property name="meta.media.1.stream.sample_aspect_ratio">1</property>
  <property name="meta.media.1.codec.width">1920</property>
  <property name="meta.media.1.codec.height">1080</property>
  <property name="meta.media.1.codec.rotate">180</property>
  <property name="meta.media.1.codec.pix_fmt">yuvj420p</property>
  <property name="meta.media.1.codec.sample_aspect_ratio">0</property>
  <property name="meta.media.1.codec.colorspace">601</property>
  <property name="meta.media.1.codec.color_trc">6</property>
  <property name="meta.media.1.codec.name">h264</property>
  <property name="meta.media.1.codec.long_name">H.264 / AVC / MPEG-4 AVC / MPEG-4 part 10</property>
  <property name="meta.media.1.codec.bit_rate">13015011</property>
  <property name="meta.attr.1.stream.rotate.markup">180</property>
  <property name="meta.attr.1.stream.creation_time.markup">2021-08-09T15:44:54.000000Z</property>
  <property name="meta.attr.1.stream.language.markup">eng</property>
  <property name="meta.attr.1.stream.handler_name.markup">VideoHandle</property>
  <property name="meta.attr.major_brand.markup">mp42</property>
  <property name="meta.attr.minor_version.markup">0</property>
  <property name="meta.attr.compatible_brands.markup">isommp42</property>
  <property name="meta.attr.creation_time.markup">2021-08-09T15:44:54.000000Z</property>
  <property name="meta.attr.location.markup">+51.0558+13.5335/</property>
  <property name="meta.attr.location-eng.markup">+51.0558+13.5335/</property>
  <property name="meta.attr.com.android.capture.fps.markup">30.000000</property>
  <property name="meta.media.sample_aspect_num">1</property>
  <property name="meta.media.sample_aspect_den">1</property>
  <property name="meta.media.frame_rate_num">156330000</property>
  <property name="meta.media.frame_rate_den">2611283</property>
  <property name="meta.media.colorspace">601</property>
  <property name="meta.media.color_trc">6</property>
  <property name="meta.media.has_b_frames">0</property>
  <property name="meta.media.width">1920</property>
  <property name="meta.media.height">1080</property>
  <property name="meta.media.color_range">full</property>
  <property name="meta.media.variable_frame_rate">1</property>
  <property name="meta.media.top_field_first">0</property>
  <property name="meta.media.progressive">1</property>
  <property name="set.test_audio">0</property>
  <property name="set.test_image">1</property>
 </producer>
 <producer id="producer57" in="00:00:00.000" out="00:01:16.700">
  <property name="length">2302</property>
  <property name="eof">pause</property>
  <property name="resource">manolo/PXL_20210809_154628244.mp4</property>
  <property name="audio_index">0</property>
  <property name="video_index">1</property>
  <property name="mute_on_pause">0</property>
  <property name="mlt_service">avformat-novalidate</property>
  <property name="seekable">1</property>
  <property name="aspect_ratio">1</property>
  <property name="kdenlive:clipname"/>
  <property name="kdenlive:folderid">2</property>
  <property name="kdenlive:id">7</property>
  <property name="kdenlive:file_size">155362580</property>
  <property name="kdenlive:file_hash">2b4c137eca09b4dc585c36aa70b66fdf</property>
  <property name="kdenlive:audio_max0">212</property>
  <property name="xml">was here</property>
  <property name="meta.media.nb_streams">2</property>
  <property name="meta.media.0.stream.type">audio</property>
  <property name="meta.media.0.codec.sample_fmt">fltp</property>
  <property name="meta.media.0.codec.sample_rate">48000</property>
  <property name="meta.media.0.codec.channels">2</property>
  <property name="meta.media.0.codec.name">aac</property>
  <property name="meta.media.0.codec.long_name">AAC (Advanced Audio Coding)</property>
  <property name="meta.media.0.codec.bit_rate">191976</property>
  <property name="meta.attr.0.stream.creation_time.markup">2021-08-09T15:47:49.000000Z</property>
  <property name="meta.attr.0.stream.language.markup">eng</property>
  <property name="meta.attr.0.stream.handler_name.markup">SoundHandle</property>
  <property name="meta.media.1.stream.type">video</property>
  <property name="meta.media.1.stream.frame_rate">59.9756</property>
  <property name="meta.media.1.stream.sample_aspect_ratio">1</property>
  <property name="meta.media.1.codec.width">1920</property>
  <property name="meta.media.1.codec.height">1080</property>
  <property name="meta.media.1.codec.rotate">0</property>
  <property name="meta.media.1.codec.pix_fmt">yuvj420p</property>
  <property name="meta.media.1.codec.sample_aspect_ratio">0</property>
  <property name="meta.media.1.codec.colorspace">601</property>
  <property name="meta.media.1.codec.color_trc">6</property>
  <property name="meta.media.1.codec.name">h264</property>
  <property name="meta.media.1.codec.long_name">H.264 / AVC / MPEG-4 AVC / MPEG-4 part 10</property>
  <property name="meta.media.1.codec.bit_rate">16000131</property>
  <property name="meta.attr.1.stream.creation_time.markup">2021-08-09T15:47:49.000000Z</property>
  <property name="meta.attr.1.stream.language.markup">eng</property>
  <property name="meta.attr.1.stream.handler_name.markup">VideoHandle</property>
  <property name="meta.attr.major_brand.markup">mp42</property>
  <property name="meta.attr.minor_version.markup">0</property>
  <property name="meta.attr.compatible_brands.markup">isommp42</property>
  <property name="meta.attr.creation_time.markup">2021-08-09T15:47:49.000000Z</property>
  <property name="meta.attr.location.markup">+51.0559+13.5336/</property>
  <property name="meta.attr.location-eng.markup">+51.0559+13.5336/</property>
  <property name="meta.attr.com.android.capture.fps.markup">30.000000</property>
  <property name="meta.media.sample_aspect_num">1</property>
  <property name="meta.media.sample_aspect_den">1</property>
  <property name="meta.media.frame_rate_num">69030000</property>
  <property name="meta.media.frame_rate_den">1150969</property>
  <property name="meta.media.colorspace">601</property>
  <property name="meta.media.color_trc">6</property>
  <property name="meta.media.has_b_frames">0</property>
  <property name="meta.media.width">1920</property>
  <property name="meta.media.height">1080</property>
  <property name="meta.media.color_range">full</property>
  <property name="meta.media.variable_frame_rate">1</property>
  <property name="meta.media.top_field_first">0</property>
  <property name="meta.media.progressive">1</property>
  <property name="set.test_audio">0</property>
  <property name="set.test_image">1</property>
 </producer>
 <producer id="producer58" in="00:00:00.000" out="00:00:26.467">
  <property name="length">795</property>
  <property name="eof">pause</property>
  <property name="resource">manolo/PXL_20210809_154755651.mp4</property>
  <property name="audio_index">0</property>
  <property name="video_index">1</property>
  <property name="mute_on_pause">0</property>
  <property name="mlt_service">avformat-novalidate</property>
  <property name="seekable">1</property>
  <property name="aspect_ratio">1</property>
  <property name="kdenlive:clipname"/>
  <property name="kdenlive:folderid">2</property>
  <property name="kdenlive:id">5</property>
  <property name="kdenlive:file_size">69686604</property>
  <property name="kdenlive:file_hash">5ac8f960f915f4eeec356de50b1c6c21</property>
  <property name="kdenlive:audio_max0">208</property>
  <property name="xml">was here</property>
  <property name="meta.media.nb_streams">2</property>
  <property name="meta.media.0.stream.type">audio</property>
  <property name="meta.media.0.codec.sample_fmt">fltp</property>
  <property name="meta.media.0.codec.sample_rate">48000</property>
  <property name="meta.media.0.codec.channels">2</property>
  <property name="meta.media.0.codec.name">aac</property>
  <property name="meta.media.0.codec.long_name">AAC (Advanced Audio Coding)</property>
  <property name="meta.media.0.codec.bit_rate">189095</property>
  <property name="meta.attr.0.stream.creation_time.markup">2021-08-09T15:48:22.000000Z</property>
  <property name="meta.attr.0.stream.language.markup">eng</property>
  <property name="meta.attr.0.stream.handler_name.markup">SoundHandle</property>
  <property name="meta.media.1.stream.type">video</property>
  <property name="meta.media.1.stream.frame_rate">29.4725</property>
  <property name="meta.media.1.stream.sample_aspect_ratio">1</property>
  <property name="meta.media.1.codec.width">1920</property>
  <property name="meta.media.1.codec.height">1080</property>
  <property name="meta.media.1.codec.rotate">0</property>
  <property name="meta.media.1.codec.pix_fmt">yuvj420p</property>
  <property name="meta.media.1.codec.sample_aspect_ratio">0</property>
  <property name="meta.media.1.codec.colorspace">601</property>
  <property name="meta.media.1.codec.color_trc">6</property>
  <property name="meta.media.1.codec.name">h264</property>
  <property name="meta.media.1.codec.long_name">H.264 / AVC / MPEG-4 AVC / MPEG-4 part 10</property>
  <property name="meta.media.1.codec.bit_rate">20844527</property>
  <property name="meta.attr.1.stream.creation_time.markup">2021-08-09T15:48:22.000000Z</property>
  <property name="meta.attr.1.stream.language.markup">eng</property>
  <property name="meta.attr.1.stream.handler_name.markup">VideoHandle</property>
  <property name="meta.attr.major_brand.markup">mp42</property>
  <property name="meta.attr.minor_version.markup">0</property>
  <property name="meta.attr.compatible_brands.markup">isommp42</property>
  <property name="meta.attr.creation_time.markup">2021-08-09T15:48:22.000000Z</property>
  <property name="meta.attr.location.markup">+51.0559+13.5336/</property>
  <property name="meta.attr.location-eng.markup">+51.0559+13.5336/</property>
  <property name="meta.attr.com.android.capture.fps.markup">30.000000</property>
  <property name="meta.media.sample_aspect_num">1</property>
  <property name="meta.media.sample_aspect_den">1</property>
  <property name="meta.media.frame_rate_num">14058000</property>
  <property name="meta.media.frame_rate_den">476987</property>
  <property name="meta.media.colorspace">601</property>
  <property name="meta.media.color_trc">6</property>
  <property name="meta.media.has_b_frames">0</property>
  <property name="meta.media.width">1920</property>
  <property name="meta.media.height">1080</property>
  <property name="meta.media.color_range">full</property>
  <property name="set.test_audio">0</property>
  <property name="set.test_image">1</property>
  <property name="meta.media.variable_frame_rate">1</property>
 </producer>
 <producer id="producer59" in="00:00:00.000" out="00:00:16.200">
  <property name="length">487</property>
  <property name="eof">pause</property>
  <property name="resource">ambos/PXL_20210809_182914096.mp4</property>
  <property name="audio_index">0</property>
  <property name="video_index">1</property>
  <property name="mute_on_pause">0</property>
  <property name="mlt_service">avformat-novalidate</property>
  <property name="seekable">1</property>
  <property name="aspect_ratio">1</property>
  <property name="kdenlive:clipname"/>
  <property name="kdenlive:folderid">43</property>
  <property name="kdenlive:id">44</property>
  <property name="kdenlive:file_size">31388833</property>
  <property name="kdenlive:file_hash">0e53352419628b0cab363f9caaa45bab</property>
  <property name="kdenlive:audio_max0">206</property>
  <property name="xml">was here</property>
  <property name="meta.media.nb_streams">2</property>
  <property name="meta.media.0.stream.type">audio</property>
  <property name="meta.media.0.codec.sample_fmt">fltp</property>
  <property name="meta.media.0.codec.sample_rate">48000</property>
  <property name="meta.media.0.codec.channels">2</property>
  <property name="meta.media.0.codec.name">aac</property>
  <property name="meta.media.0.codec.long_name">AAC (Advanced Audio Coding)</property>
  <property name="meta.media.0.codec.bit_rate">191804</property>
  <property name="meta.attr.0.stream.creation_time.markup">2021-08-09T18:29:31.000000Z</property>
  <property name="meta.attr.0.stream.language.markup">eng</property>
  <property name="meta.attr.0.stream.handler_name.markup">SoundHandle</property>
  <property name="meta.media.1.stream.type">video</property>
  <property name="meta.media.1.stream.frame_rate">30.0312</property>
  <property name="meta.media.1.stream.sample_aspect_ratio">1</property>
  <property name="meta.media.1.codec.width">1920</property>
  <property name="meta.media.1.codec.height">1080</property>
  <property name="meta.media.1.codec.rotate">0</property>
  <property name="meta.media.1.codec.pix_fmt">yuvj420p</property>
  <property name="meta.media.1.codec.sample_aspect_ratio">0</property>
  <property name="meta.media.1.codec.colorspace">601</property>
  <property name="meta.media.1.codec.color_trc">6</property>
  <property name="meta.media.1.codec.name">h264</property>
  <property name="meta.media.1.codec.long_name">H.264 / AVC / MPEG-4 AVC / MPEG-4 part 10</property>
  <property name="meta.media.1.codec.bit_rate">15257769</property>
  <property name="meta.attr.1.stream.creation_time.markup">2021-08-09T18:29:31.000000Z</property>
  <property name="meta.attr.1.stream.language.markup">eng</property>
  <property name="meta.attr.1.stream.handler_name.markup">VideoHandle</property>
  <property name="meta.attr.major_brand.markup">mp42</property>
  <property name="meta.attr.minor_version.markup">0</property>
  <property name="meta.attr.compatible_brands.markup">isommp42</property>
  <property name="meta.attr.creation_time.markup">2021-08-09T18:29:31.000000Z</property>
  <property name="meta.attr.location.markup">+49.7760+14.6761/</property>
  <property name="meta.attr.location-eng.markup">+49.7760+14.6761/</property>
  <property name="meta.attr.com.android.capture.fps.markup">30.000000</property>
  <property name="meta.media.sample_aspect_num">1</property>
  <property name="meta.media.sample_aspect_den">1</property>
  <property name="meta.media.frame_rate_num">43920000</property>
  <property name="meta.media.frame_rate_den">1462477</property>
  <property name="meta.media.colorspace">601</property>
  <property name="meta.media.color_trc">6</property>
  <property name="meta.media.has_b_frames">0</property>
  <property name="meta.media.width">1920</property>
  <property name="meta.media.height">1080</property>
  <property name="meta.media.color_range">full</property>
  <property name="meta.media.variable_frame_rate">1</property>
  <property name="meta.media.top_field_first">0</property>
  <property name="meta.media.progressive">1</property>
  <property name="set.test_audio">0</property>
  <property name="set.test_image">1</property>
 </producer>
 <producer id="producer60" in="00:00:00.000" out="00:00:36.333">
  <property name="length">1091</property>
  <property name="eof">pause</property>
  <property name="resource">ambos/PXL_20210809_182951192.mp4</property>
  <property name="audio_index">0</property>
  <property name="video_index">1</property>
  <property name="mute_on_pause">0</property>
  <property name="mlt_service">avformat-novalidate</property>
  <property name="seekable">1</property>
  <property name="aspect_ratio">1</property>
  <property name="kdenlive:clipname"/>
  <property name="kdenlive:folderid">43</property>
  <property name="kdenlive:id">41</property>
  <property name="kdenlive:file_size">71010584</property>
  <property name="kdenlive:file_hash">b54680353acd7a0d6ff80350a92d353f</property>
  <property name="kdenlive:audio_max0">213</property>
  <property name="xml">was here</property>
  <property name="meta.media.nb_streams">2</property>
  <property name="meta.media.0.stream.type">audio</property>
  <property name="meta.media.0.codec.sample_fmt">fltp</property>
  <property name="meta.media.0.codec.sample_rate">48000</property>
  <property name="meta.media.0.codec.channels">2</property>
  <property name="meta.media.0.codec.name">aac</property>
  <property name="meta.media.0.codec.long_name">AAC (Advanced Audio Coding)</property>
  <property name="meta.media.0.codec.bit_rate">189837</property>
  <property name="meta.attr.0.stream.rotate.markup">180</property>
  <property name="meta.attr.0.stream.creation_time.markup">2021-08-09T18:30:28.000000Z</property>
  <property name="meta.attr.0.stream.language.markup">eng</property>
  <property name="meta.attr.0.stream.handler_name.markup">SoundHandle</property>
  <property name="meta.media.1.stream.type">video</property>
  <property name="meta.media.1.stream.frame_rate">29.6732</property>
  <property name="meta.media.1.stream.sample_aspect_ratio">1</property>
  <property name="meta.media.1.codec.width">1920</property>
  <property name="meta.media.1.codec.height">1080</property>
  <property name="meta.media.1.codec.rotate">180</property>
  <property name="meta.media.1.codec.pix_fmt">yuvj420p</property>
  <property name="meta.media.1.codec.sample_aspect_ratio">0</property>
  <property name="meta.media.1.codec.colorspace">601</property>
  <property name="meta.media.1.codec.color_trc">6</property>
  <property name="meta.media.1.codec.name">h264</property>
  <property name="meta.media.1.codec.long_name">H.264 / AVC / MPEG-4 AVC / MPEG-4 part 10</property>
  <property name="meta.media.1.codec.bit_rate">15429360</property>
  <property name="meta.attr.1.stream.rotate.markup">180</property>
  <property name="meta.attr.1.stream.creation_time.markup">2021-08-09T18:30:28.000000Z</property>
  <property name="meta.attr.1.stream.language.markup">eng</property>
  <property name="meta.attr.1.stream.handler_name.markup">VideoHandle</property>
  <property name="meta.attr.major_brand.markup">mp42</property>
  <property name="meta.attr.minor_version.markup">0</property>
  <property name="meta.attr.compatible_brands.markup">isommp42</property>
  <property name="meta.attr.creation_time.markup">2021-08-09T18:30:28.000000Z</property>
  <property name="meta.attr.location.markup">+49.7760+14.6761/</property>
  <property name="meta.attr.location-eng.markup">+49.7760+14.6761/</property>
  <property name="meta.attr.com.android.capture.fps.markup">30.000000</property>
  <property name="meta.media.sample_aspect_num">1</property>
  <property name="meta.media.sample_aspect_den">1</property>
  <property name="meta.media.frame_rate_num">19422000</property>
  <property name="meta.media.frame_rate_den">654529</property>
  <property name="meta.media.colorspace">601</property>
  <property name="meta.media.color_trc">6</property>
  <property name="meta.media.has_b_frames">0</property>
  <property name="meta.media.width">1920</property>
  <property name="meta.media.height">1080</property>
  <property name="meta.media.color_range">full</property>
  <property name="meta.media.variable_frame_rate">1</property>
  <property name="meta.media.top_field_first">0</property>
  <property name="meta.media.progressive">1</property>
  <property name="set.test_audio">0</property>
  <property name="set.test_image">1</property>
 </producer>
 <producer id="producer61" in="00:00:00.000" out="00:00:24.767">
  <property name="length">744</property>
  <property name="eof">pause</property>
  <property name="resource">ambos/PXL_20210809_185329305.mp4</property>
  <property name="audio_index">0</property>
  <property name="video_index">1</property>
  <property name="mute_on_pause">0</property>
  <property name="mlt_service">avformat-novalidate</property>
  <property name="seekable">1</property>
  <property name="aspect_ratio">1</property>
  <property name="kdenlive:clipname"/>
  <property name="kdenlive:folderid">43</property>
  <property name="kdenlive:id">40</property>
  <property name="kdenlive:file_size">68676923</property>
  <property name="kdenlive:file_hash">a9ff35bdad68f6753f73ab68c921c617</property>
  <property name="kdenlive:audio_max0">211</property>
  <property name="xml">was here</property>
  <property name="meta.media.nb_streams">2</property>
  <property name="meta.media.0.stream.type">audio</property>
  <property name="meta.media.0.codec.sample_fmt">fltp</property>
  <property name="meta.media.0.codec.sample_rate">48000</property>
  <property name="meta.media.0.codec.channels">2</property>
  <property name="meta.media.0.codec.name">aac</property>
  <property name="meta.media.0.codec.long_name">AAC (Advanced Audio Coding)</property>
  <property name="meta.media.0.codec.bit_rate">191850</property>
  <property name="meta.attr.0.stream.creation_time.markup">2021-08-09T18:53:55.000000Z</property>
  <property name="meta.attr.0.stream.language.markup">eng</property>
  <property name="meta.attr.0.stream.handler_name.markup">SoundHandle</property>
  <property name="meta.media.1.stream.type">video</property>
  <property name="meta.media.1.stream.frame_rate">24.2262</property>
  <property name="meta.media.1.stream.sample_aspect_ratio">1</property>
  <property name="meta.media.1.codec.width">1920</property>
  <property name="meta.media.1.codec.height">1080</property>
  <property name="meta.media.1.codec.rotate">0</property>
  <property name="meta.media.1.codec.pix_fmt">yuvj420p</property>
  <property name="meta.media.1.codec.sample_aspect_ratio">0</property>
  <property name="meta.media.1.codec.colorspace">601</property>
  <property name="meta.media.1.codec.color_trc">6</property>
  <property name="meta.media.1.codec.name">h264</property>
  <property name="meta.media.1.codec.long_name">H.264 / AVC / MPEG-4 AVC / MPEG-4 part 10</property>
  <property name="meta.media.1.codec.bit_rate">21951152</property>
  <property name="meta.attr.1.stream.creation_time.markup">2021-08-09T18:53:55.000000Z</property>
  <property name="meta.attr.1.stream.language.markup">eng</property>
  <property name="meta.attr.1.stream.handler_name.markup">VideoHandle</property>
  <property name="meta.attr.major_brand.markup">mp42</property>
  <property name="meta.attr.minor_version.markup">0</property>
  <property name="meta.attr.compatible_brands.markup">isommp42</property>
  <property name="meta.attr.creation_time.markup">2021-08-09T18:53:55.000000Z</property>
  <property name="meta.attr.location.markup">+49.7771+14.6750/</property>
  <property name="meta.attr.location-eng.markup">+49.7771+14.6750/</property>
  <property name="meta.attr.com.android.capture.fps.markup">30.000000</property>
  <property name="meta.media.sample_aspect_num">1</property>
  <property name="meta.media.sample_aspect_den">1</property>
  <property name="meta.media.frame_rate_num">27045000</property>
  <property name="meta.media.frame_rate_den">1116353</property>
  <property name="meta.media.colorspace">601</property>
  <property name="meta.media.color_trc">6</property>
  <property name="meta.media.has_b_frames">0</property>
  <property name="meta.media.width">1920</property>
  <property name="meta.media.height">1080</property>
  <property name="meta.media.color_range">full</property>
  <property name="meta.media.top_field_first">0</property>
  <property name="meta.media.progressive">1</property>
  <property name="set.test_audio">0</property>
  <property name="set.test_image">1</property>
 </producer>
 <producer id="producer62" in="00:00:00.000" out="00:00:35.300">
  <property name="length">1060</property>
  <property name="eof">pause</property>
  <property name="resource">ambos/PXL_20210809_185358901.mp4</property>
  <property name="audio_index">0</property>
  <property name="video_index">1</property>
  <property name="mute_on_pause">0</property>
  <property name="mlt_service">avformat-novalidate</property>
  <property name="seekable">1</property>
  <property name="aspect_ratio">1</property>
  <property name="kdenlive:clipname"/>
  <property name="kdenlive:folderid">43</property>
  <property name="kdenlive:id">39</property>
  <property name="kdenlive:file_size">97924365</property>
  <property name="kdenlive:file_hash">7529cdb102002909cb4edd5d3460910b</property>
  <property name="kdenlive:audio_max0">210</property>
  <property name="xml">was here</property>
  <property name="meta.media.nb_streams">2</property>
  <property name="meta.media.0.stream.type">audio</property>
  <property name="meta.media.0.codec.sample_fmt">fltp</property>
  <property name="meta.media.0.codec.sample_rate">48000</property>
  <property name="meta.media.0.codec.channels">2</property>
  <property name="meta.media.0.codec.name">aac</property>
  <property name="meta.media.0.codec.long_name">AAC (Advanced Audio Coding)</property>
  <property name="meta.media.0.codec.bit_rate">191908</property>
  <property name="meta.attr.0.stream.creation_time.markup">2021-08-09T18:54:35.000000Z</property>
  <property name="meta.attr.0.stream.language.markup">eng</property>
  <property name="meta.attr.0.stream.handler_name.markup">SoundHandle</property>
  <property name="meta.media.1.stream.type">video</property>
  <property name="meta.media.1.stream.frame_rate">24.4313</property>
  <property name="meta.media.1.stream.sample_aspect_ratio">1</property>
  <property name="meta.media.1.codec.width">1920</property>
  <property name="meta.media.1.codec.height">1080</property>
  <property name="meta.media.1.codec.rotate">0</property>
  <property name="meta.media.1.codec.pix_fmt">yuvj420p</property>
  <property name="meta.media.1.codec.sample_aspect_ratio">0</property>
  <property name="meta.media.1.codec.colorspace">601</property>
  <property name="meta.media.1.codec.color_trc">6</property>
  <property name="meta.media.1.codec.name">h264</property>
  <property name="meta.media.1.codec.long_name">H.264 / AVC / MPEG-4 AVC / MPEG-4 part 10</property>
  <property name="meta.media.1.codec.bit_rate">21982355</property>
  <property name="meta.attr.1.stream.creation_time.markup">2021-08-09T18:54:35.000000Z</property>
  <property name="meta.attr.1.stream.language.markup">eng</property>
  <property name="meta.attr.1.stream.handler_name.markup">VideoHandle</property>
  <property name="meta.attr.major_brand.markup">mp42</property>
  <property name="meta.attr.minor_version.markup">0</property>
  <property name="meta.attr.compatible_brands.markup">isommp42</property>
  <property name="meta.attr.creation_time.markup">2021-08-09T18:54:35.000000Z</property>
  <property name="meta.attr.location.markup">+49.7771+14.6750/</property>
  <property name="meta.attr.location-eng.markup">+49.7771+14.6750/</property>
  <property name="meta.attr.com.android.capture.fps.markup">30.000000</property>
  <property name="meta.media.sample_aspect_num">1</property>
  <property name="meta.media.sample_aspect_den">1</property>
  <property name="meta.media.frame_rate_num">77670000</property>
  <property name="meta.media.frame_rate_den">3179117</property>
  <property name="meta.media.colorspace">601</property>
  <property name="meta.media.color_trc">6</property>
  <property name="meta.media.has_b_frames">0</property>
  <property name="meta.media.width">1920</property>
  <property name="meta.media.height">1080</property>
  <property name="meta.media.color_range">full</property>
  <property name="meta.media.variable_frame_rate">1</property>
  <property name="meta.media.top_field_first">0</property>
  <property name="meta.media.progressive">1</property>
  <property name="set.test_audio">0</property>
  <property name="set.test_image">1</property>
 </producer>
 <producer id="producer63" in="00:00:00.000" out="00:00:21.200">
  <property name="length">637</property>
  <property name="eof">pause</property>
  <property name="resource">ambos/PXL_20210809_185445601.mp4</property>
  <property name="audio_index">0</property>
  <property name="video_index">1</property>
  <property name="mute_on_pause">0</property>
  <property name="mlt_service">avformat-novalidate</property>
  <property name="seekable">1</property>
  <property name="aspect_ratio">1</property>
  <property name="kdenlive:clipname"/>
  <property name="kdenlive:folderid">43</property>
  <property name="kdenlive:id">38</property>
  <property name="kdenlive:file_size">45922673</property>
  <property name="kdenlive:file_hash">8372eb756f224688158f68fbe468ad9b</property>
  <property name="kdenlive:audio_max0">211</property>
  <property name="xml">was here</property>
  <property name="meta.media.nb_streams">2</property>
  <property name="meta.media.0.stream.type">audio</property>
  <property name="meta.media.0.codec.sample_fmt">fltp</property>
  <property name="meta.media.0.codec.sample_rate">48000</property>
  <property name="meta.media.0.codec.channels">2</property>
  <property name="meta.media.0.codec.name">aac</property>
  <property name="meta.media.0.codec.long_name">AAC (Advanced Audio Coding)</property>
  <property name="meta.media.0.codec.bit_rate">191779</property>
  <property name="meta.attr.0.stream.creation_time.markup">2021-08-09T18:55:08.000000Z</property>
  <property name="meta.attr.0.stream.language.markup">eng</property>
  <property name="meta.attr.0.stream.handler_name.markup">SoundHandle</property>
  <property name="meta.media.1.stream.type">video</property>
  <property name="meta.media.1.stream.frame_rate">24.5788</property>
  <property name="meta.media.1.stream.sample_aspect_ratio">1</property>
  <property name="meta.media.1.codec.width">1920</property>
  <property name="meta.media.1.codec.height">1080</property>
  <property name="meta.media.1.codec.rotate">0</property>
  <property name="meta.media.1.codec.pix_fmt">yuvj420p</property>
  <property name="meta.media.1.codec.sample_aspect_ratio">0</property>
  <property name="meta.media.1.codec.colorspace">601</property>
  <property name="meta.media.1.codec.color_trc">6</property>
  <property name="meta.media.1.codec.name">h264</property>
  <property name="meta.media.1.codec.long_name">H.264 / AVC / MPEG-4 AVC / MPEG-4 part 10</property>
  <property name="meta.media.1.codec.bit_rate">17103044</property>
  <property name="meta.attr.1.stream.creation_time.markup">2021-08-09T18:55:08.000000Z</property>
  <property name="meta.attr.1.stream.language.markup">eng</property>
  <property name="meta.attr.1.stream.handler_name.markup">VideoHandle</property>
  <property name="meta.attr.major_brand.markup">mp42</property>
  <property name="meta.attr.minor_version.markup">0</property>
  <property name="meta.attr.compatible_brands.markup">isommp42</property>
  <property name="meta.attr.creation_time.markup">2021-08-09T18:55:08.000000Z</property>
  <property name="meta.attr.location.markup">+49.7771+14.6750/</property>
  <property name="meta.attr.location-eng.markup">+49.7771+14.6750/</property>
  <property name="meta.attr.com.android.capture.fps.markup">30.000000</property>
  <property name="meta.media.sample_aspect_num">1</property>
  <property name="meta.media.sample_aspect_den">1</property>
  <property name="meta.media.frame_rate_num">3132000</property>
  <property name="meta.media.frame_rate_den">127427</property>
  <property name="meta.media.colorspace">601</property>
  <property name="meta.media.color_trc">6</property>
  <property name="meta.media.has_b_frames">0</property>
  <property name="meta.media.width">1920</property>
  <property name="meta.media.height">1080</property>
  <property name="meta.media.color_range">full</property>
  <property name="set.test_audio">0</property>
  <property name="set.test_image">1</property>
 </producer>
 <producer id="producer64" in="00:00:00.000" out="00:00:02.633">
  <property name="length">80</property>
  <property name="eof">pause</property>
  <property name="resource">ambos/PXL_20210809_185517881.mp4</property>
  <property name="audio_index">0</property>
  <property name="video_index">1</property>
  <property name="mute_on_pause">0</property>
  <property name="mlt_service">avformat-novalidate</property>
  <property name="seekable">1</property>
  <property name="aspect_ratio">1</property>
  <property name="kdenlive:clipname"/>
  <property name="kdenlive:folderid">43</property>
  <property name="kdenlive:id">37</property>
  <property name="kdenlive:file_size">7070150</property>
  <property name="kdenlive:file_hash">9cf305d5d77076217589e051dddbebeb</property>
  <property name="kdenlive:audio_max0">199</property>
  <property name="xml">was here</property>
  <property name="meta.media.nb_streams">2</property>
  <property name="meta.media.0.stream.type">audio</property>
  <property name="meta.media.0.codec.sample_fmt">fltp</property>
  <property name="meta.media.0.codec.sample_rate">48000</property>
  <property name="meta.media.0.codec.channels">2</property>
  <property name="meta.media.0.codec.name">aac</property>
  <property name="meta.media.0.codec.long_name">AAC (Advanced Audio Coding)</property>
  <property name="meta.media.0.codec.bit_rate">190923</property>
  <property name="meta.attr.0.stream.creation_time.markup">2021-08-09T18:55:21.000000Z</property>
  <property name="meta.attr.0.stream.language.markup">eng</property>
  <property name="meta.attr.0.stream.handler_name.markup">SoundHandle</property>
  <property name="meta.media.1.stream.type">video</property>
  <property name="meta.media.1.stream.frame_rate">29.9813</property>
  <property name="meta.media.1.stream.sample_aspect_ratio">1</property>
  <property name="meta.media.1.codec.width">1920</property>
  <property name="meta.media.1.codec.height">1080</property>
  <property name="meta.media.1.codec.rotate">0</property>
  <property name="meta.media.1.codec.pix_fmt">yuvj420p</property>
  <property name="meta.media.1.codec.sample_aspect_ratio">0</property>
  <property name="meta.media.1.codec.colorspace">601</property>
  <property name="meta.media.1.codec.color_trc">6</property>
  <property name="meta.media.1.codec.name">h264</property>
  <property name="meta.media.1.codec.long_name">H.264 / AVC / MPEG-4 AVC / MPEG-4 part 10</property>
  <property name="meta.media.1.codec.bit_rate">21000938</property>
  <property name="meta.attr.1.stream.creation_time.markup">2021-08-09T18:55:21.000000Z</property>
  <property name="meta.attr.1.stream.language.markup">eng</property>
  <property name="meta.attr.1.stream.handler_name.markup">VideoHandle</property>
  <property name="meta.attr.major_brand.markup">mp42</property>
  <property name="meta.attr.minor_version.markup">0</property>
  <property name="meta.attr.compatible_brands.markup">isommp42</property>
  <property name="meta.attr.creation_time.markup">2021-08-09T18:55:21.000000Z</property>
  <property name="meta.attr.location.markup">+49.7771+14.6750/</property>
  <property name="meta.attr.location-eng.markup">+49.7771+14.6750/</property>
  <property name="meta.attr.com.android.capture.fps.markup">30.000000</property>
  <property name="meta.media.sample_aspect_num">1</property>
  <property name="meta.media.sample_aspect_den">1</property>
  <property name="meta.media.frame_rate_num">48000</property>
  <property name="meta.media.frame_rate_den">1601</property>
  <property name="meta.media.colorspace">601</property>
  <property name="meta.media.color_trc">6</property>
  <property name="meta.media.has_b_frames">0</property>
  <property name="meta.media.width">1920</property>
  <property name="meta.media.height">1080</property>
  <property name="meta.media.color_range">full</property>
  <property name="meta.media.top_field_first">0</property>
  <property name="meta.media.progressive">1</property>
  <property name="set.test_audio">0</property>
  <property name="set.test_image">1</property>
 </producer>
 <playlist id="playlist8">
  <property name="kdenlive:audio_track">1</property>
  <entry producer="producer82" in="00:00:39.133" out="00:00:52.567">
   <property name="kdenlive:id">30</property>
  </entry>
  <entry producer="producer82" in="00:01:25.333" out="00:01:31.433">
   <property name="kdenlive:id">30</property>
  </entry>
  <entry producer="producer82" in="00:02:24.933" out="00:02:34.267">
   <property name="kdenlive:id">30</property>
  </entry>
  <entry producer="producer82" in="00:04:45.800" out="00:04:48.900">
   <property name="kdenlive:id">30</property>
  </entry>
  <entry producer="producer82" in="00:04:53.433" out="00:04:57.533">
   <property name="kdenlive:id">30</property>
  </entry>
  <entry producer="producer82" in="00:05:11.800" out="00:05:18.600">
   <property name="kdenlive:id">30</property>
  </entry>
  <entry producer="producer82" in="00:05:20.133" out="00:05:25.900">
   <property name="kdenlive:id">30</property>
  </entry>
  <entry producer="producer82" in="00:05:28.967" out="00:05:42.100">
   <property name="kdenlive:id">30</property>
  </entry>
  <entry producer="producer82" in="00:05:47.600" out="00:05:51.633">
   <property name="kdenlive:id">30</property>
  </entry>
  <entry producer="producer82" in="00:05:53.333" out="00:05:54.767">
   <property name="kdenlive:id">30</property>
  </entry>
  <blank length="00:00:43.133"/>
  <entry producer="producer48" in="00:00:00.000" out="00:00:15.667">
   <property name="kdenlive:id">29</property>
  </entry>
  <entry producer="producer49" in="00:00:13.633" out="00:00:17.400">
   <property name="kdenlive:id">28</property>
  </entry>
  <entry producer="producer50" in="00:01:18.667" out="00:01:21.367">
   <property name="kdenlive:id">27</property>
  </entry>
  <entry producer="producer51" in="00:00:07.500" out="00:00:14.300">
   <property name="kdenlive:id">17</property>
  </entry>
  <entry producer="producer52" in="00:00:00.000" out="00:00:14.267">
   <property name="kdenlive:id">19</property>
  </entry>
  <entry producer="producer53" in="00:00:27.167" out="00:00:35.267">
   <property name="kdenlive:id">18</property>
  </entry>
  <entry producer="producer53" in="00:00:59.167" out="00:01:07.700">
   <property name="kdenlive:id">18</property>
  </entry>
  <entry producer="producer54" in="00:00:00.000" out="00:00:04.567">
   <property name="kdenlive:id">15</property>
  </entry>
  <blank length="00:04:18.900"/>
  <entry producer="producer55" in="00:00:00.000" out="00:00:06.900">
   <property name="kdenlive:id">9</property>
  </entry>
  <entry producer="producer56" in="00:00:08.633" out="00:00:14.600">
   <property name="kdenlive:id">8</property>
  </entry>
  <entry producer="producer57" in="00:00:42.833" out="00:00:52.033">
   <property name="kdenlive:id">7</property>
  </entry>
  <entry producer="producer57" in="00:00:52.467" out="00:00:53.200">
   <property name="kdenlive:id">7</property>
  </entry>
  <entry producer="producer57" in="00:00:54.467" out="00:00:55.700">
   <property name="kdenlive:id">7</property>
  </entry>
  <entry producer="producer57" in="00:01:01.000" out="00:01:05.300">
   <property name="kdenlive:id">7</property>
  </entry>
  <entry producer="producer58" in="00:00:12.033" out="00:00:25.000">
   <property name="kdenlive:id">5</property>
  </entry>
  <blank length="00:00:43.333"/>
  <entry producer="producer59" in="00:00:00.000" out="00:00:16.200">
   <property name="kdenlive:id">44</property>
  </entry>
  <entry producer="producer60" in="00:00:00.000" out="00:00:36.333">
   <property name="kdenlive:id">41</property>
  </entry>
  <entry producer="producer61" in="00:00:00.000" out="00:00:14.933">
   <property name="kdenlive:id">40</property>
  </entry>
  <entry producer="producer62" in="00:00:17.800" out="00:00:35.300">
   <property name="kdenlive:id">39</property>
  </entry>
  <entry producer="producer63" in="00:00:00.000" out="00:00:21.200">
   <property name="kdenlive:id">38</property>
  </entry>
  <entry producer="producer64" in="00:00:00.000" out="00:00:02.633">
   <property name="kdenlive:id">37</property>
  </entry>
 </playlist>
 <playlist id="playlist9">
  <property name="kdenlive:audio_track">1</property>
 </playlist>
 <tractor id="tractor4" in="00:00:00.000" out="00:10:28.100">
  <property name="kdenlive:audio_track">1</property>
  <property name="kdenlive:trackheight">69</property>
  <property name="kdenlive:timeline_active">1</property>
  <property name="kdenlive:collapsed">0</property>
  <property name="kdenlive:track_name">Manolo</property>
  <property name="kdenlive:thumbs_format"/>
  <property name="kdenlive:audio_rec"/>
  <track hide="video" producer="playlist8"/>
  <track hide="video" producer="playlist9"/>
  <filter id="filter7">
   <property name="window">75</property>
   <property name="max_gain">20dB</property>
   <property name="mlt_service">volume</property>
   <property name="internal_added">237</property>
   <property name="disable">1</property>
  </filter>
  <filter id="filter8">
   <property name="channel">-1</property>
   <property name="mlt_service">panner</property>
   <property name="internal_added">237</property>
   <property name="start">0.5</property>
   <property name="disable">1</property>
  </filter>
  <filter id="filter10" out="00:10:28.133">
   <property name="window">75</property>
   <property name="max_gain">20dB</property>
   <property name="level">00:00:00.000=-5</property>
   <property name="mlt_service">volume</property>
   <property name="kdenlive_id">volume</property>
   <property name="kdenlive:collapsed">0</property>
  </filter>
  <filter id="filter9">
   <property name="iec_scale">0</property>
   <property name="mlt_service">audiolevel</property>
   <property name="disable">1</property>
  </filter>
 </tractor>
 <producer id="producer83" in="00:00:00.000" out="00:06:02.367">
  <property name="length">10872</property>
  <property name="eof">pause</property>
  <property name="resource">manolo/PXL_20210809_063647560.mp4</property>
  <property name="audio_index">0</property>
  <property name="video_index">1</property>
  <property name="mute_on_pause">0</property>
  <property name="mlt_service">avformat-novalidate</property>
  <property name="seekable">1</property>
  <property name="aspect_ratio">1</property>
  <property name="kdenlive:clipname"/>
  <property name="kdenlive:folderid">2</property>
  <property name="kdenlive:id">30</property>
  <property name="kdenlive:file_size">715863728</property>
  <property name="kdenlive:file_hash">5ec9ca0e4a7a511d50ab8858fcbfaf87</property>
  <property name="kdenlive:audio_max0">233</property>
  <property name="xml">was here</property>
  <property name="meta.media.nb_streams">2</property>
  <property name="meta.media.0.stream.type">audio</property>
  <property name="meta.media.0.codec.sample_fmt">fltp</property>
  <property name="meta.media.0.codec.sample_rate">48000</property>
  <property name="meta.media.0.codec.channels">2</property>
  <property name="meta.media.0.codec.name">aac</property>
  <property name="meta.media.0.codec.long_name">AAC (Advanced Audio Coding)</property>
  <property name="meta.media.0.codec.bit_rate">191984</property>
  <property name="meta.attr.0.stream.creation_time.markup">2021-08-09T06:43:33.000000Z</property>
  <property name="meta.attr.0.stream.language.markup">eng</property>
  <property name="meta.attr.0.stream.handler_name.markup">SoundHandle</property>
  <property name="meta.media.1.stream.type">video</property>
  <property name="meta.media.1.stream.frame_rate">30.0307</property>
  <property name="meta.media.1.stream.sample_aspect_ratio">1</property>
  <property name="meta.media.1.codec.width">1920</property>
  <property name="meta.media.1.codec.height">1080</property>
  <property name="meta.media.1.codec.rotate">0</property>
  <property name="meta.media.1.codec.pix_fmt">yuvj420p</property>
  <property name="meta.media.1.codec.sample_aspect_ratio">0</property>
  <property name="meta.media.1.codec.colorspace">601</property>
  <property name="meta.media.1.codec.color_trc">6</property>
  <property name="meta.media.1.codec.name">h264</property>
  <property name="meta.media.1.codec.long_name">H.264 / AVC / MPEG-4 AVC / MPEG-4 part 10</property>
  <property name="meta.media.1.codec.bit_rate">15607389</property>
  <property name="meta.attr.1.stream.creation_time.markup">2021-08-09T06:43:33.000000Z</property>
  <property name="meta.attr.1.stream.language.markup">eng</property>
  <property name="meta.attr.1.stream.handler_name.markup">VideoHandle</property>
  <property name="meta.attr.major_brand.markup">mp42</property>
  <property name="meta.attr.minor_version.markup">0</property>
  <property name="meta.attr.compatible_brands.markup">isommp42</property>
  <property name="meta.attr.creation_time.markup">2021-08-09T06:43:33.000000Z</property>
  <property name="meta.attr.location.markup">+53.4980+7.0654/</property>
  <property name="meta.attr.location-eng.markup">+53.4980+7.0654/</property>
  <property name="meta.attr.com.android.capture.fps.markup">30.000000</property>
  <property name="meta.media.sample_aspect_num">1</property>
  <property name="meta.media.sample_aspect_den">1</property>
  <property name="meta.media.frame_rate_num">97947000</property>
  <property name="meta.media.frame_rate_den">3261557</property>
  <property name="meta.media.colorspace">601</property>
  <property name="meta.media.color_trc">6</property>
  <property name="meta.media.has_b_frames">0</property>
  <property name="meta.media.width">1920</property>
  <property name="meta.media.height">1080</property>
  <property name="meta.media.color_range">full</property>
  <property name="meta.media.variable_frame_rate">1</property>
  <property name="meta.media.top_field_first">0</property>
  <property name="meta.media.progressive">1</property>
  <property name="set.test_audio">1</property>
  <property name="set.test_image">0</property>
 </producer>
 <producer id="producer84" in="00:00:00.000" out="00:00:18.300">
  <property name="length">550</property>
  <property name="eof">pause</property>
  <property name="resource">manolo/PXL_20210809_104115096.mp4</property>
  <property name="audio_index">0</property>
  <property name="video_index">1</property>
  <property name="mute_on_pause">0</property>
  <property name="mlt_service">avformat-novalidate</property>
  <property name="seekable">1</property>
  <property name="aspect_ratio">1</property>
  <property name="kdenlive:clipname"/>
  <property name="kdenlive:folderid">2</property>
  <property name="kdenlive:id">29</property>
  <property name="kdenlive:file_size">49352093</property>
  <property name="kdenlive:file_hash">608a1658a646d07fa7a6abaead1d98c1</property>
  <property name="kdenlive:audio_max0">208</property>
  <property name="xml">was here</property>
  <property name="meta.media.nb_streams">2</property>
  <property name="meta.media.0.stream.type">audio</property>
  <property name="meta.media.0.codec.sample_fmt">fltp</property>
  <property name="meta.media.0.codec.sample_rate">48000</property>
  <property name="meta.media.0.codec.channels">2</property>
  <property name="meta.media.0.codec.name">aac</property>
  <property name="meta.media.0.codec.long_name">AAC (Advanced Audio Coding)</property>
  <property name="meta.media.0.codec.bit_rate">187700</property>
  <property name="meta.attr.0.stream.creation_time.markup">2021-08-09T10:41:33.000000Z</property>
  <property name="meta.attr.0.stream.language.markup">eng</property>
  <property name="meta.attr.0.stream.handler_name.markup">SoundHandle</property>
  <property name="meta.media.1.stream.type">video</property>
  <property name="meta.media.1.stream.frame_rate">29.2132</property>
  <property name="meta.media.1.stream.sample_aspect_ratio">1</property>
  <property name="meta.media.1.codec.width">1920</property>
  <property name="meta.media.1.codec.height">1080</property>
  <property name="meta.media.1.codec.rotate">0</property>
  <property name="meta.media.1.codec.pix_fmt">yuvj420p</property>
  <property name="meta.media.1.codec.sample_aspect_ratio">0</property>
  <property name="meta.media.1.codec.colorspace">601</property>
  <property name="meta.media.1.codec.color_trc">6</property>
  <property name="meta.media.1.codec.name">h264</property>
  <property name="meta.media.1.codec.long_name">H.264 / AVC / MPEG-4 AVC / MPEG-4 part 10</property>
  <property name="meta.media.1.codec.bit_rate">21326288</property>
  <property name="meta.attr.1.stream.creation_time.markup">2021-08-09T10:41:33.000000Z</property>
  <property name="meta.attr.1.stream.language.markup">eng</property>
  <property name="meta.attr.1.stream.handler_name.markup">VideoHandle</property>
  <property name="meta.attr.major_brand.markup">mp42</property>
  <property name="meta.attr.minor_version.markup">0</property>
  <property name="meta.attr.compatible_brands.markup">isommp42</property>
  <property name="meta.attr.creation_time.markup">2021-08-09T10:41:33.000000Z</property>
  <property name="meta.attr.location.markup">+52.2619+10.2166/</property>
  <property name="meta.attr.location-eng.markup">+52.2619+10.2166/</property>
  <property name="meta.attr.com.android.capture.fps.markup">30.000000</property>
  <property name="meta.media.sample_aspect_num">1</property>
  <property name="meta.media.sample_aspect_den">1</property>
  <property name="meta.media.frame_rate_num">4020000</property>
  <property name="meta.media.frame_rate_den">137609</property>
  <property name="meta.media.colorspace">601</property>
  <property name="meta.media.color_trc">6</property>
  <property name="meta.media.has_b_frames">0</property>
  <property name="meta.media.width">1920</property>
  <property name="meta.media.height">1080</property>
  <property name="meta.media.color_range">full</property>
  <property name="meta.media.variable_frame_rate">1</property>
  <property name="meta.media.top_field_first">0</property>
  <property name="meta.media.progressive">1</property>
  <property name="set.test_audio">1</property>
  <property name="set.test_image">0</property>
 </producer>
 <producer id="producer85" in="00:00:00.000" out="00:00:18.733">
  <property name="length">563</property>
  <property name="eof">pause</property>
  <property name="resource">manolo/PXL_20210809_104136249.mp4</property>
  <property name="audio_index">0</property>
  <property name="video_index">1</property>
  <property name="mute_on_pause">0</property>
  <property name="mlt_service">avformat-novalidate</property>
  <property name="seekable">1</property>
  <property name="aspect_ratio">1</property>
  <property name="kdenlive:clipname"/>
  <property name="kdenlive:folderid">2</property>
  <property name="kdenlive:id">28</property>
  <property name="kdenlive:file_size">76014473</property>
  <property name="kdenlive:file_hash">b9b8942f264646570c04214df79ab06d</property>
  <property name="kdenlive:audio_max0">202</property>
  <property name="xml">was here</property>
  <property name="meta.media.nb_streams">2</property>
  <property name="meta.media.0.stream.type">audio</property>
  <property name="meta.media.0.codec.sample_fmt">fltp</property>
  <property name="meta.media.0.codec.sample_rate">48000</property>
  <property name="meta.media.0.codec.channels">2</property>
  <property name="meta.media.0.codec.name">aac</property>
  <property name="meta.media.0.codec.long_name">AAC (Advanced Audio Coding)</property>
  <property name="meta.media.0.codec.bit_rate">191805</property>
  <property name="meta.attr.0.stream.creation_time.markup">2021-08-09T10:41:56.000000Z</property>
  <property name="meta.attr.0.stream.language.markup">eng</property>
  <property name="meta.attr.0.stream.handler_name.markup">SoundHandle</property>
  <property name="meta.media.1.stream.type">video</property>
  <property name="meta.media.1.stream.frame_rate">59.9833</property>
  <property name="meta.media.1.stream.sample_aspect_ratio">1</property>
  <property name="meta.media.1.codec.width">1920</property>
  <property name="meta.media.1.codec.height">1080</property>
  <property name="meta.media.1.codec.rotate">0</property>
  <property name="meta.media.1.codec.pix_fmt">yuvj420p</property>
  <property name="meta.media.1.codec.sample_aspect_ratio">0</property>
  <property name="meta.media.1.codec.colorspace">601</property>
  <property name="meta.media.1.codec.color_trc">6</property>
  <property name="meta.media.1.codec.name">h264</property>
  <property name="meta.media.1.codec.long_name">H.264 / AVC / MPEG-4 AVC / MPEG-4 part 10</property>
  <property name="meta.media.1.codec.bit_rate">32196649</property>
  <property name="meta.attr.1.stream.creation_time.markup">2021-08-09T10:41:56.000000Z</property>
  <property name="meta.attr.1.stream.language.markup">eng</property>
  <property name="meta.attr.1.stream.handler_name.markup">VideoHandle</property>
  <property name="meta.attr.major_brand.markup">mp42</property>
  <property name="meta.attr.minor_version.markup">0</property>
  <property name="meta.attr.compatible_brands.markup">isommp42</property>
  <property name="meta.attr.creation_time.markup">2021-08-09T10:41:56.000000Z</property>
  <property name="meta.attr.location.markup">+52.2620+10.2166/</property>
  <property name="meta.attr.location-eng.markup">+52.2620+10.2166/</property>
  <property name="meta.attr.com.android.capture.fps.markup">30.000000</property>
  <property name="meta.media.sample_aspect_num">1</property>
  <property name="meta.media.sample_aspect_den">1</property>
  <property name="meta.media.frame_rate_num">10134000</property>
  <property name="meta.media.frame_rate_den">168947</property>
  <property name="meta.media.colorspace">601</property>
  <property name="meta.media.color_trc">6</property>
  <property name="meta.media.has_b_frames">0</property>
  <property name="meta.media.width">1920</property>
  <property name="meta.media.height">1080</property>
  <property name="meta.media.color_range">full</property>
  <property name="meta.media.variable_frame_rate">1</property>
  <property name="meta.media.top_field_first">0</property>
  <property name="meta.media.progressive">1</property>
  <property name="set.test_audio">1</property>
  <property name="set.test_image">0</property>
 </producer>
 <producer id="producer86" in="00:00:00.000" out="00:01:30.633">
  <property name="length">2720</property>
  <property name="eof">pause</property>
  <property name="resource">manolo/PXL_20210809_104208652.mp4</property>
  <property name="audio_index">0</property>
  <property name="video_index">1</property>
  <property name="mute_on_pause">0</property>
  <property name="mlt_service">avformat-novalidate</property>
  <property name="seekable">1</property>
  <property name="aspect_ratio">1</property>
  <property name="kdenlive:clipname"/>
  <property name="kdenlive:folderid">2</property>
  <property name="kdenlive:id">27</property>
  <property name="kdenlive:file_size">282867682</property>
  <property name="kdenlive:file_hash">c12b491ff29267742e2eb59e9a138ed3</property>
  <property name="kdenlive:audio_max0">228</property>
  <property name="xml">was here</property>
  <property name="meta.media.nb_streams">2</property>
  <property name="meta.media.0.stream.type">audio</property>
  <property name="meta.media.0.codec.sample_fmt">fltp</property>
  <property name="meta.media.0.codec.sample_rate">48000</property>
  <property name="meta.media.0.codec.channels">2</property>
  <property name="meta.media.0.codec.name">aac</property>
  <property name="meta.media.0.codec.long_name">AAC (Advanced Audio Coding)</property>
  <property name="meta.media.0.codec.bit_rate">192006</property>
  <property name="meta.attr.0.stream.creation_time.markup">2021-08-09T10:43:40.000000Z</property>
  <property name="meta.attr.0.stream.language.markup">eng</property>
  <property name="meta.attr.0.stream.handler_name.markup">SoundHandle</property>
  <property name="meta.media.1.stream.type">video</property>
  <property name="meta.media.1.stream.frame_rate">49.5514</property>
  <property name="meta.media.1.stream.sample_aspect_ratio">1</property>
  <property name="meta.media.1.codec.width">1920</property>
  <property name="meta.media.1.codec.height">1080</property>
  <property name="meta.media.1.codec.rotate">0</property>
  <property name="meta.media.1.codec.pix_fmt">yuvj420p</property>
  <property name="meta.media.1.codec.sample_aspect_ratio">0</property>
  <property name="meta.media.1.codec.colorspace">601</property>
  <property name="meta.media.1.codec.color_trc">6</property>
  <property name="meta.media.1.codec.name">h264</property>
  <property name="meta.media.1.codec.long_name">H.264 / AVC / MPEG-4 AVC / MPEG-4 part 10</property>
  <property name="meta.media.1.codec.bit_rate">24759656</property>
  <property name="meta.attr.1.stream.creation_time.markup">2021-08-09T10:43:40.000000Z</property>
  <property name="meta.attr.1.stream.language.markup">eng</property>
  <property name="meta.attr.1.stream.handler_name.markup">VideoHandle</property>
  <property name="meta.attr.major_brand.markup">mp42</property>
  <property name="meta.attr.minor_version.markup">0</property>
  <property name="meta.attr.compatible_brands.markup">isommp42</property>
  <property name="meta.attr.creation_time.markup">2021-08-09T10:43:40.000000Z</property>
  <property name="meta.attr.location.markup">+52.2619+10.2167/</property>
  <property name="meta.attr.location-eng.markup">+52.2619+10.2167/</property>
  <property name="meta.attr.com.android.capture.fps.markup">30.000000</property>
  <property name="meta.media.sample_aspect_num">1</property>
  <property name="meta.media.sample_aspect_den">1</property>
  <property name="meta.media.frame_rate_num">67395000</property>
  <property name="meta.media.frame_rate_den">1360103</property>
  <property name="meta.media.colorspace">601</property>
  <property name="meta.media.color_trc">6</property>
  <property name="meta.media.has_b_frames">0</property>
  <property name="meta.media.width">1920</property>
  <property name="meta.media.height">1080</property>
  <property name="meta.media.color_range">full</property>
  <property name="set.test_audio">1</property>
  <property name="set.test_image">0</property>
  <property name="meta.media.variable_frame_rate">1</property>
  <property name="meta.media.top_field_first">0</property>
  <property name="meta.media.progressive">1</property>
 </producer>
 <producer id="producer96" in="00:00:00.000" out="00:00:14.300">
  <property name="length">430</property>
  <property name="eof">pause</property>
  <property name="resource">manolo/PXL_20210809_114822938.mp4</property>
  <property name="audio_index">0</property>
  <property name="video_index">1</property>
  <property name="mute_on_pause">0</property>
  <property name="mlt_service">avformat-novalidate</property>
  <property name="seekable">1</property>
  <property name="aspect_ratio">1</property>
  <property name="kdenlive:clipname"/>
  <property name="kdenlive:folderid">2</property>
  <property name="kdenlive:id">17</property>
  <property name="kdenlive:file_size">29774963</property>
  <property name="kdenlive:file_hash">6192bac4f649053a9f86857799354b0a</property>
  <property name="kdenlive:audio_max0">210</property>
  <property name="xml">was here</property>
  <property name="meta.media.nb_streams">2</property>
  <property name="meta.media.0.stream.type">audio</property>
  <property name="meta.media.0.codec.sample_fmt">fltp</property>
  <property name="meta.media.0.codec.sample_rate">48000</property>
  <property name="meta.media.0.codec.channels">2</property>
  <property name="meta.media.0.codec.name">aac</property>
  <property name="meta.media.0.codec.long_name">AAC (Advanced Audio Coding)</property>
  <property name="meta.media.0.codec.bit_rate">191924</property>
  <property name="meta.attr.0.stream.creation_time.markup">2021-08-09T11:48:38.000000Z</property>
  <property name="meta.attr.0.stream.language.markup">eng</property>
  <property name="meta.attr.0.stream.handler_name.markup">SoundHandle</property>
  <property name="meta.media.1.stream.type">video</property>
  <property name="meta.media.1.stream.frame_rate">60.0411</property>
  <property name="meta.media.1.stream.sample_aspect_ratio">1</property>
  <property name="meta.media.1.codec.width">1920</property>
  <property name="meta.media.1.codec.height">1080</property>
  <property name="meta.media.1.codec.rotate">0</property>
  <property name="meta.media.1.codec.pix_fmt">yuvj420p</property>
  <property name="meta.media.1.codec.sample_aspect_ratio">0</property>
  <property name="meta.media.1.codec.colorspace">601</property>
  <property name="meta.media.1.codec.color_trc">6</property>
  <property name="meta.media.1.codec.name">h264</property>
  <property name="meta.media.1.codec.long_name">H.264 / AVC / MPEG-4 AVC / MPEG-4 part 10</property>
  <property name="meta.media.1.codec.bit_rate">16413586</property>
  <property name="meta.attr.1.stream.creation_time.markup">2021-08-09T11:48:38.000000Z</property>
  <property name="meta.attr.1.stream.language.markup">eng</property>
  <property name="meta.attr.1.stream.handler_name.markup">VideoHandle</property>
  <property name="meta.attr.major_brand.markup">mp42</property>
  <property name="meta.attr.minor_version.markup">0</property>
  <property name="meta.attr.compatible_brands.markup">isommp42</property>
  <property name="meta.attr.creation_time.markup">2021-08-09T11:48:38.000000Z</property>
  <property name="meta.attr.location.markup">+52.2680+10.2240/</property>
  <property name="meta.attr.location-eng.markup">+52.2680+10.2240/</property>
  <property name="meta.attr.com.android.capture.fps.markup">30.000000</property>
  <property name="meta.media.sample_aspect_num">1</property>
  <property name="meta.media.sample_aspect_den">1</property>
  <property name="meta.media.frame_rate_num">5166000</property>
  <property name="meta.media.frame_rate_den">86041</property>
  <property name="meta.media.colorspace">601</property>
  <property name="meta.media.color_trc">6</property>
  <property name="meta.media.has_b_frames">0</property>
  <property name="meta.media.width">1920</property>
  <property name="meta.media.height">1080</property>
  <property name="meta.media.color_range">full</property>
  <property name="set.test_audio">1</property>
  <property name="set.test_image">0</property>
  <property name="meta.media.top_field_first">0</property>
  <property name="meta.media.progressive">1</property>
 </producer>
 <producer id="producer94" in="00:00:00.000" out="00:00:16.467">
  <property name="length">495</property>
  <property name="eof">pause</property>
  <property name="resource">manolo/PXL_20210809_114638280.mp4</property>
  <property name="audio_index">0</property>
  <property name="video_index">1</property>
  <property name="mute_on_pause">0</property>
  <property name="mlt_service">avformat-novalidate</property>
  <property name="seekable">1</property>
  <property name="aspect_ratio">1</property>
  <property name="kdenlive:clipname"/>
  <property name="kdenlive:folderid">2</property>
  <property name="kdenlive:id">19</property>
  <property name="kdenlive:file_size">51509160</property>
  <property name="kdenlive:file_hash">bb1b6e81e88f18522384864161107709</property>
  <property name="kdenlive:audio_max0">216</property>
  <property name="xml">was here</property>
  <property name="meta.media.nb_streams">2</property>
  <property name="meta.media.0.stream.type">audio</property>
  <property name="meta.media.0.codec.sample_fmt">fltp</property>
  <property name="meta.media.0.codec.sample_rate">48000</property>
  <property name="meta.media.0.codec.channels">2</property>
  <property name="meta.media.0.codec.name">aac</property>
  <property name="meta.media.0.codec.long_name">AAC (Advanced Audio Coding)</property>
  <property name="meta.media.0.codec.bit_rate">191993</property>
  <property name="meta.attr.0.stream.creation_time.markup">2021-08-09T11:46:56.000000Z</property>
  <property name="meta.attr.0.stream.language.markup">eng</property>
  <property name="meta.attr.0.stream.handler_name.markup">SoundHandle</property>
  <property name="meta.media.1.stream.type">video</property>
  <property name="meta.media.1.stream.frame_rate">54.9765</property>
  <property name="meta.media.1.stream.sample_aspect_ratio">1</property>
  <property name="meta.media.1.codec.width">1920</property>
  <property name="meta.media.1.codec.height">1080</property>
  <property name="meta.media.1.codec.rotate">0</property>
  <property name="meta.media.1.codec.pix_fmt">yuvj420p</property>
  <property name="meta.media.1.codec.sample_aspect_ratio">0</property>
  <property name="meta.media.1.codec.colorspace">601</property>
  <property name="meta.media.1.codec.color_trc">6</property>
  <property name="meta.media.1.codec.name">h264</property>
  <property name="meta.media.1.codec.long_name">H.264 / AVC / MPEG-4 AVC / MPEG-4 part 10</property>
  <property name="meta.media.1.codec.bit_rate">24752732</property>
  <property name="meta.attr.1.stream.creation_time.markup">2021-08-09T11:46:56.000000Z</property>
  <property name="meta.attr.1.stream.language.markup">eng</property>
  <property name="meta.attr.1.stream.handler_name.markup">VideoHandle</property>
  <property name="meta.attr.major_brand.markup">mp42</property>
  <property name="meta.attr.minor_version.markup">0</property>
  <property name="meta.attr.compatible_brands.markup">isommp42</property>
  <property name="meta.attr.creation_time.markup">2021-08-09T11:46:56.000000Z</property>
  <property name="meta.attr.location.markup">+52.2596+10.2150/</property>
  <property name="meta.attr.location-eng.markup">+52.2596+10.2150/</property>
  <property name="meta.attr.com.android.capture.fps.markup">30.000000</property>
  <property name="meta.media.sample_aspect_num">1</property>
  <property name="meta.media.sample_aspect_den">1</property>
  <property name="meta.media.frame_rate_num">81720000</property>
  <property name="meta.media.frame_rate_den">1486453</property>
  <property name="meta.media.colorspace">601</property>
  <property name="meta.media.color_trc">6</property>
  <property name="meta.media.has_b_frames">0</property>
  <property name="meta.media.width">1920</property>
  <property name="meta.media.height">1080</property>
  <property name="meta.media.color_range">full</property>
  <property name="set.test_audio">1</property>
  <property name="set.test_image">0</property>
  <property name="meta.media.top_field_first">0</property>
  <property name="meta.media.progressive">1</property>
 </producer>
 <producer id="producer95" in="00:00:00.000" out="00:01:10.033">
  <property name="length">2102</property>
  <property name="eof">pause</property>
  <property name="resource">manolo/PXL_20210809_114703889.mp4</property>
  <property name="audio_index">0</property>
  <property name="video_index">1</property>
  <property name="mute_on_pause">0</property>
  <property name="mlt_service">avformat-novalidate</property>
  <property name="seekable">1</property>
  <property name="aspect_ratio">1</property>
  <property name="kdenlive:clipname"/>
  <property name="kdenlive:folderid">2</property>
  <property name="kdenlive:id">18</property>
  <property name="kdenlive:file_size">198501402</property>
  <property name="kdenlive:file_hash">6618394cd7523344e850ebcc823e278c</property>
  <property name="kdenlive:audio_max0">231</property>
  <property name="xml">was here</property>
  <property name="meta.media.nb_streams">2</property>
  <property name="meta.media.0.stream.type">audio</property>
  <property name="meta.media.0.codec.sample_fmt">fltp</property>
  <property name="meta.media.0.codec.sample_rate">48000</property>
  <property name="meta.media.0.codec.channels">2</property>
  <property name="meta.media.0.codec.name">aac</property>
  <property name="meta.media.0.codec.long_name">AAC (Advanced Audio Coding)</property>
  <property name="meta.media.0.codec.bit_rate">191984</property>
  <property name="meta.attr.0.stream.creation_time.markup">2021-08-09T11:48:15.000000Z</property>
  <property name="meta.attr.0.stream.language.markup">eng</property>
  <property name="meta.attr.0.stream.handler_name.markup">SoundHandle</property>
  <property name="meta.media.1.stream.type">video</property>
  <property name="meta.media.1.stream.frame_rate">43.3149</property>
  <property name="meta.media.1.stream.sample_aspect_ratio">1</property>
  <property name="meta.media.1.codec.width">1920</property>
  <property name="meta.media.1.codec.height">1080</property>
  <property name="meta.media.1.codec.rotate">0</property>
  <property name="meta.media.1.codec.pix_fmt">yuvj420p</property>
  <property name="meta.media.1.codec.sample_aspect_ratio">0</property>
  <property name="meta.media.1.codec.colorspace">601</property>
  <property name="meta.media.1.codec.color_trc">6</property>
  <property name="meta.media.1.codec.name">h264</property>
  <property name="meta.media.1.codec.long_name">H.264 / AVC / MPEG-4 AVC / MPEG-4 part 10</property>
  <property name="meta.media.1.codec.bit_rate">22467756</property>
  <property name="meta.attr.1.stream.creation_time.markup">2021-08-09T11:48:15.000000Z</property>
  <property name="meta.attr.1.stream.language.markup">eng</property>
  <property name="meta.attr.1.stream.handler_name.markup">VideoHandle</property>
  <property name="meta.attr.major_brand.markup">mp42</property>
  <property name="meta.attr.minor_version.markup">0</property>
  <property name="meta.attr.compatible_brands.markup">isommp42</property>
  <property name="meta.attr.creation_time.markup">2021-08-09T11:48:15.000000Z</property>
  <property name="meta.attr.location.markup">+52.2595+10.2145/</property>
  <property name="meta.attr.location-eng.markup">+52.2595+10.2145/</property>
  <property name="meta.attr.com.android.capture.fps.markup">30.000000</property>
  <property name="meta.media.sample_aspect_num">1</property>
  <property name="meta.media.sample_aspect_den">1</property>
  <property name="meta.media.frame_rate_num">5690625</property>
  <property name="meta.media.frame_rate_den">131378</property>
  <property name="meta.media.colorspace">601</property>
  <property name="meta.media.color_trc">6</property>
  <property name="meta.media.has_b_frames">0</property>
  <property name="meta.media.width">1920</property>
  <property name="meta.media.height">1080</property>
  <property name="meta.media.color_range">full</property>
  <property name="set.test_audio">1</property>
  <property name="set.test_image">0</property>
  <property name="meta.media.variable_frame_rate">1</property>
  <property name="meta.media.top_field_first">0</property>
  <property name="meta.media.progressive">1</property>
 </producer>
 <producer id="producer98" in="00:00:00.000" out="00:00:08.667">
  <property name="length">261</property>
  <property name="eof">pause</property>
  <property name="resource">manolo/PXL_20210809_120018344.mp4</property>
  <property name="audio_index">0</property>
  <property name="video_index">1</property>
  <property name="mute_on_pause">0</property>
  <property name="mlt_service">avformat-novalidate</property>
  <property name="seekable">1</property>
  <property name="aspect_ratio">1</property>
  <property name="kdenlive:clipname"/>
  <property name="kdenlive:folderid">2</property>
  <property name="kdenlive:id">15</property>
  <property name="kdenlive:file_size">36186053</property>
  <property name="kdenlive:file_hash">e4578fef4aaaeee4f1f31aff4626ed4d</property>
  <property name="kdenlive:audio_max0">203</property>
  <property name="xml">was here</property>
  <property name="meta.media.nb_streams">2</property>
  <property name="meta.media.0.stream.type">audio</property>
  <property name="meta.media.0.codec.sample_fmt">fltp</property>
  <property name="meta.media.0.codec.sample_rate">48000</property>
  <property name="meta.media.0.codec.channels">2</property>
  <property name="meta.media.0.codec.name">aac</property>
  <property name="meta.media.0.codec.long_name">AAC (Advanced Audio Coding)</property>
  <property name="meta.media.0.codec.bit_rate">191617</property>
  <property name="meta.attr.0.stream.rotate.markup">180</property>
  <property name="meta.attr.0.stream.creation_time.markup">2021-08-09T12:00:29.000000Z</property>
  <property name="meta.attr.0.stream.language.markup">eng</property>
  <property name="meta.attr.0.stream.handler_name.markup">SoundHandle</property>
  <property name="meta.media.1.stream.type">video</property>
  <property name="meta.media.1.stream.frame_rate">59.7408</property>
  <property name="meta.media.1.stream.sample_aspect_ratio">1</property>
  <property name="meta.media.1.codec.width">1920</property>
  <property name="meta.media.1.codec.height">1080</property>
  <property name="meta.media.1.codec.rotate">180</property>
  <property name="meta.media.1.codec.pix_fmt">yuvj420p</property>
  <property name="meta.media.1.codec.sample_aspect_ratio">0</property>
  <property name="meta.media.1.codec.colorspace">601</property>
  <property name="meta.media.1.codec.color_trc">6</property>
  <property name="meta.media.1.codec.name">h264</property>
  <property name="meta.media.1.codec.long_name">H.264 / AVC / MPEG-4 AVC / MPEG-4 part 10</property>
  <property name="meta.media.1.codec.bit_rate">33124210</property>
  <property name="meta.attr.1.stream.rotate.markup">180</property>
  <property name="meta.attr.1.stream.creation_time.markup">2021-08-09T12:00:29.000000Z</property>
  <property name="meta.attr.1.stream.language.markup">eng</property>
  <property name="meta.attr.1.stream.handler_name.markup">VideoHandle</property>
  <property name="meta.attr.major_brand.markup">mp42</property>
  <property name="meta.attr.minor_version.markup">0</property>
  <property name="meta.attr.compatible_brands.markup">isommp42</property>
  <property name="meta.attr.creation_time.markup">2021-08-09T12:00:29.000000Z</property>
  <property name="meta.attr.location.markup">+52.2612+10.2159/</property>
  <property name="meta.attr.location-eng.markup">+52.2612+10.2159/</property>
  <property name="meta.attr.com.android.capture.fps.markup">30.000000</property>
  <property name="meta.media.sample_aspect_num">1</property>
  <property name="meta.media.sample_aspect_den">1</property>
  <property name="meta.media.frame_rate_num">7785000</property>
  <property name="meta.media.frame_rate_den">130313</property>
  <property name="meta.media.colorspace">601</property>
  <property name="meta.media.color_trc">6</property>
  <property name="meta.media.has_b_frames">0</property>
  <property name="meta.media.width">1920</property>
  <property name="meta.media.height">1080</property>
  <property name="meta.media.color_range">full</property>
  <property name="set.test_audio">1</property>
  <property name="set.test_image">0</property>
  <property name="meta.media.variable_frame_rate">1</property>
  <property name="meta.media.top_field_first">0</property>
  <property name="meta.media.progressive">1</property>
 </producer>
 <producer id="producer100" in="00:00:00.000" out="00:00:28.033">
  <property name="length">842</property>
  <property name="eof">pause</property>
  <property name="resource">manolo/PXL_20210809_154349125.mp4</property>
  <property name="audio_index">0</property>
  <property name="video_index">1</property>
  <property name="mute_on_pause">0</property>
  <property name="mlt_service">avformat-novalidate</property>
  <property name="seekable">1</property>
  <property name="aspect_ratio">1</property>
  <property name="kdenlive:clipname"/>
  <property name="kdenlive:folderid">2</property>
  <property name="kdenlive:id">9</property>
  <property name="kdenlive:file_size">39713077</property>
  <property name="kdenlive:file_hash">db0156721cef49e23e31307ed4970a24</property>
  <property name="kdenlive:audio_max0">217</property>
  <property name="xml">was here</property>
  <property name="meta.media.nb_streams">2</property>
  <property name="meta.media.0.stream.type">audio</property>
  <property name="meta.media.0.codec.sample_fmt">fltp</property>
  <property name="meta.media.0.codec.sample_rate">48000</property>
  <property name="meta.media.0.codec.channels">2</property>
  <property name="meta.media.0.codec.name">aac</property>
  <property name="meta.media.0.codec.long_name">AAC (Advanced Audio Coding)</property>
  <property name="meta.media.0.codec.bit_rate">191957</property>
  <property name="meta.attr.0.stream.rotate.markup">180</property>
  <property name="meta.attr.0.stream.creation_time.markup">2021-08-09T15:44:18.000000Z</property>
  <property name="meta.attr.0.stream.language.markup">eng</property>
  <property name="meta.attr.0.stream.handler_name.markup">SoundHandle</property>
  <property name="meta.media.1.stream.type">video</property>
  <property name="meta.media.1.stream.frame_rate">60.0107</property>
  <property name="meta.media.1.stream.sample_aspect_ratio">1</property>
  <property name="meta.media.1.codec.width">1920</property>
  <property name="meta.media.1.codec.height">1080</property>
  <property name="meta.media.1.codec.rotate">180</property>
  <property name="meta.media.1.codec.pix_fmt">yuvj420p</property>
  <property name="meta.media.1.codec.sample_aspect_ratio">0</property>
  <property name="meta.media.1.codec.colorspace">601</property>
  <property name="meta.media.1.codec.color_trc">6</property>
  <property name="meta.media.1.codec.name">h264</property>
  <property name="meta.media.1.codec.long_name">H.264 / AVC / MPEG-4 AVC / MPEG-4 part 10</property>
  <property name="meta.media.1.codec.bit_rate">11117085</property>
  <property name="meta.attr.1.stream.rotate.markup">180</property>
  <property name="meta.attr.1.stream.creation_time.markup">2021-08-09T15:44:18.000000Z</property>
  <property name="meta.attr.1.stream.language.markup">eng</property>
  <property name="meta.attr.1.stream.handler_name.markup">VideoHandle</property>
  <property name="meta.attr.major_brand.markup">mp42</property>
  <property name="meta.attr.minor_version.markup">0</property>
  <property name="meta.attr.compatible_brands.markup">isommp42</property>
  <property name="meta.attr.creation_time.markup">2021-08-09T15:44:18.000000Z</property>
  <property name="meta.attr.location.markup">+51.0558+13.5335/</property>
  <property name="meta.attr.location-eng.markup">+51.0558+13.5335/</property>
  <property name="meta.attr.com.android.capture.fps.markup">30.000000</property>
  <property name="meta.media.sample_aspect_num">1</property>
  <property name="meta.media.sample_aspect_den">1</property>
  <property name="meta.media.frame_rate_num">18956250</property>
  <property name="meta.media.frame_rate_den">315881</property>
  <property name="meta.media.colorspace">601</property>
  <property name="meta.media.color_trc">6</property>
  <property name="meta.media.has_b_frames">0</property>
  <property name="meta.media.width">1920</property>
  <property name="meta.media.height">1080</property>
  <property name="meta.media.color_range">full</property>
  <property name="set.test_audio">1</property>
  <property name="set.test_image">0</property>
  <property name="meta.media.variable_frame_rate">1</property>
  <property name="meta.media.top_field_first">0</property>
  <property name="meta.media.progressive">1</property>
 </producer>
 <producer id="producer101" in="00:00:00.000" out="00:00:28.967">
  <property name="length">870</property>
  <property name="eof">pause</property>
  <property name="resource">manolo/PXL_20210809_154423910.mp4</property>
  <property name="audio_index">0</property>
  <property name="video_index">1</property>
  <property name="mute_on_pause">0</property>
  <property name="mlt_service">avformat-novalidate</property>
  <property name="seekable">1</property>
  <property name="aspect_ratio">1</property>
  <property name="kdenlive:clipname"/>
  <property name="kdenlive:folderid">2</property>
  <property name="kdenlive:id">8</property>
  <property name="kdenlive:file_size">47920511</property>
  <property name="kdenlive:file_hash">872ad59dacc6434684fba5d9f7fda343</property>
  <property name="kdenlive:audio_max0">201</property>
  <property name="xml">was here</property>
  <property name="meta.media.nb_streams">2</property>
  <property name="meta.media.0.stream.type">audio</property>
  <property name="meta.media.0.codec.sample_fmt">fltp</property>
  <property name="meta.media.0.codec.sample_rate">48000</property>
  <property name="meta.media.0.codec.channels">2</property>
  <property name="meta.media.0.codec.name">aac</property>
  <property name="meta.media.0.codec.long_name">AAC (Advanced Audio Coding)</property>
  <property name="meta.media.0.codec.bit_rate">191940</property>
  <property name="meta.attr.0.stream.rotate.markup">180</property>
  <property name="meta.attr.0.stream.creation_time.markup">2021-08-09T15:44:54.000000Z</property>
  <property name="meta.attr.0.stream.language.markup">eng</property>
  <property name="meta.attr.0.stream.handler_name.markup">SoundHandle</property>
  <property name="meta.media.1.stream.type">video</property>
  <property name="meta.media.1.stream.frame_rate">59.8671</property>
  <property name="meta.media.1.stream.sample_aspect_ratio">1</property>
  <property name="meta.media.1.codec.width">1920</property>
  <property name="meta.media.1.codec.height">1080</property>
  <property name="meta.media.1.codec.rotate">180</property>
  <property name="meta.media.1.codec.pix_fmt">yuvj420p</property>
  <property name="meta.media.1.codec.sample_aspect_ratio">0</property>
  <property name="meta.media.1.codec.colorspace">601</property>
  <property name="meta.media.1.codec.color_trc">6</property>
  <property name="meta.media.1.codec.name">h264</property>
  <property name="meta.media.1.codec.long_name">H.264 / AVC / MPEG-4 AVC / MPEG-4 part 10</property>
  <property name="meta.media.1.codec.bit_rate">13015011</property>
  <property name="meta.attr.1.stream.rotate.markup">180</property>
  <property name="meta.attr.1.stream.creation_time.markup">2021-08-09T15:44:54.000000Z</property>
  <property name="meta.attr.1.stream.language.markup">eng</property>
  <property name="meta.attr.1.stream.handler_name.markup">VideoHandle</property>
  <property name="meta.attr.major_brand.markup">mp42</property>
  <property name="meta.attr.minor_version.markup">0</property>
  <property name="meta.attr.compatible_brands.markup">isommp42</property>
  <property name="meta.attr.creation_time.markup">2021-08-09T15:44:54.000000Z</property>
  <property name="meta.attr.location.markup">+51.0558+13.5335/</property>
  <property name="meta.attr.location-eng.markup">+51.0558+13.5335/</property>
  <property name="meta.attr.com.android.capture.fps.markup">30.000000</property>
  <property name="meta.media.sample_aspect_num">1</property>
  <property name="meta.media.sample_aspect_den">1</property>
  <property name="meta.media.frame_rate_num">156330000</property>
  <property name="meta.media.frame_rate_den">2611283</property>
  <property name="meta.media.colorspace">601</property>
  <property name="meta.media.color_trc">6</property>
  <property name="meta.media.has_b_frames">0</property>
  <property name="meta.media.width">1920</property>
  <property name="meta.media.height">1080</property>
  <property name="meta.media.color_range">full</property>
  <property name="meta.media.variable_frame_rate">1</property>
  <property name="meta.media.top_field_first">0</property>
  <property name="meta.media.progressive">1</property>
  <property name="set.test_audio">1</property>
  <property name="set.test_image">0</property>
 </producer>
 <producer id="producer102" in="00:00:00.000" out="00:01:16.700">
  <property name="length">2302</property>
  <property name="eof">pause</property>
  <property name="resource">manolo/PXL_20210809_154628244.mp4</property>
  <property name="audio_index">0</property>
  <property name="video_index">1</property>
  <property name="mute_on_pause">0</property>
  <property name="mlt_service">avformat-novalidate</property>
  <property name="seekable">1</property>
  <property name="aspect_ratio">1</property>
  <property name="kdenlive:clipname"/>
  <property name="kdenlive:folderid">2</property>
  <property name="kdenlive:id">7</property>
  <property name="kdenlive:file_size">155362580</property>
  <property name="kdenlive:file_hash">2b4c137eca09b4dc585c36aa70b66fdf</property>
  <property name="kdenlive:audio_max0">212</property>
  <property name="xml">was here</property>
  <property name="meta.media.nb_streams">2</property>
  <property name="meta.media.0.stream.type">audio</property>
  <property name="meta.media.0.codec.sample_fmt">fltp</property>
  <property name="meta.media.0.codec.sample_rate">48000</property>
  <property name="meta.media.0.codec.channels">2</property>
  <property name="meta.media.0.codec.name">aac</property>
  <property name="meta.media.0.codec.long_name">AAC (Advanced Audio Coding)</property>
  <property name="meta.media.0.codec.bit_rate">191976</property>
  <property name="meta.attr.0.stream.creation_time.markup">2021-08-09T15:47:49.000000Z</property>
  <property name="meta.attr.0.stream.language.markup">eng</property>
  <property name="meta.attr.0.stream.handler_name.markup">SoundHandle</property>
  <property name="meta.media.1.stream.type">video</property>
  <property name="meta.media.1.stream.frame_rate">59.9756</property>
  <property name="meta.media.1.stream.sample_aspect_ratio">1</property>
  <property name="meta.media.1.codec.width">1920</property>
  <property name="meta.media.1.codec.height">1080</property>
  <property name="meta.media.1.codec.rotate">0</property>
  <property name="meta.media.1.codec.pix_fmt">yuvj420p</property>
  <property name="meta.media.1.codec.sample_aspect_ratio">0</property>
  <property name="meta.media.1.codec.colorspace">601</property>
  <property name="meta.media.1.codec.color_trc">6</property>
  <property name="meta.media.1.codec.name">h264</property>
  <property name="meta.media.1.codec.long_name">H.264 / AVC / MPEG-4 AVC / MPEG-4 part 10</property>
  <property name="meta.media.1.codec.bit_rate">16000131</property>
  <property name="meta.attr.1.stream.creation_time.markup">2021-08-09T15:47:49.000000Z</property>
  <property name="meta.attr.1.stream.language.markup">eng</property>
  <property name="meta.attr.1.stream.handler_name.markup">VideoHandle</property>
  <property name="meta.attr.major_brand.markup">mp42</property>
  <property name="meta.attr.minor_version.markup">0</property>
  <property name="meta.attr.compatible_brands.markup">isommp42</property>
  <property name="meta.attr.creation_time.markup">2021-08-09T15:47:49.000000Z</property>
  <property name="meta.attr.location.markup">+51.0559+13.5336/</property>
  <property name="meta.attr.location-eng.markup">+51.0559+13.5336/</property>
  <property name="meta.attr.com.android.capture.fps.markup">30.000000</property>
  <property name="meta.media.sample_aspect_num">1</property>
  <property name="meta.media.sample_aspect_den">1</property>
  <property name="meta.media.frame_rate_num">69030000</property>
  <property name="meta.media.frame_rate_den">1150969</property>
  <property name="meta.media.colorspace">601</property>
  <property name="meta.media.color_trc">6</property>
  <property name="meta.media.has_b_frames">0</property>
  <property name="meta.media.width">1920</property>
  <property name="meta.media.height">1080</property>
  <property name="meta.media.color_range">full</property>
  <property name="meta.media.variable_frame_rate">1</property>
  <property name="meta.media.top_field_first">0</property>
  <property name="meta.media.progressive">1</property>
  <property name="set.test_audio">1</property>
  <property name="set.test_image">0</property>
 </producer>
 <producer id="producer103" in="00:00:00.000" out="00:00:26.467">
  <property name="length">795</property>
  <property name="eof">pause</property>
  <property name="resource">manolo/PXL_20210809_154755651.mp4</property>
  <property name="audio_index">0</property>
  <property name="video_index">1</property>
  <property name="mute_on_pause">0</property>
  <property name="mlt_service">avformat-novalidate</property>
  <property name="seekable">1</property>
  <property name="aspect_ratio">1</property>
  <property name="kdenlive:clipname"/>
  <property name="kdenlive:folderid">2</property>
  <property name="kdenlive:id">5</property>
  <property name="kdenlive:file_size">69686604</property>
  <property name="kdenlive:file_hash">5ac8f960f915f4eeec356de50b1c6c21</property>
  <property name="xml">was here</property>
  <property name="meta.media.nb_streams">2</property>
  <property name="meta.media.0.stream.type">audio</property>
  <property name="meta.media.0.codec.sample_fmt">fltp</property>
  <property name="meta.media.0.codec.sample_rate">48000</property>
  <property name="meta.media.0.codec.channels">2</property>
  <property name="meta.media.0.codec.name">aac</property>
  <property name="meta.media.0.codec.long_name">AAC (Advanced Audio Coding)</property>
  <property name="meta.media.0.codec.bit_rate">189095</property>
  <property name="meta.attr.0.stream.creation_time.markup">2021-08-09T15:48:22.000000Z</property>
  <property name="meta.attr.0.stream.language.markup">eng</property>
  <property name="meta.attr.0.stream.handler_name.markup">SoundHandle</property>
  <property name="meta.media.1.stream.type">video</property>
  <property name="meta.media.1.stream.frame_rate">29.4725</property>
  <property name="meta.media.1.stream.sample_aspect_ratio">1</property>
  <property name="meta.media.1.codec.width">1920</property>
  <property name="meta.media.1.codec.height">1080</property>
  <property name="meta.media.1.codec.rotate">0</property>
  <property name="meta.media.1.codec.pix_fmt">yuvj420p</property>
  <property name="meta.media.1.codec.sample_aspect_ratio">0</property>
  <property name="meta.media.1.codec.colorspace">601</property>
  <property name="meta.media.1.codec.color_trc">6</property>
  <property name="meta.media.1.codec.name">h264</property>
  <property name="meta.media.1.codec.long_name">H.264 / AVC / MPEG-4 AVC / MPEG-4 part 10</property>
  <property name="meta.media.1.codec.bit_rate">20844527</property>
  <property name="meta.attr.1.stream.creation_time.markup">2021-08-09T15:48:22.000000Z</property>
  <property name="meta.attr.1.stream.language.markup">eng</property>
  <property name="meta.attr.1.stream.handler_name.markup">VideoHandle</property>
  <property name="meta.attr.major_brand.markup">mp42</property>
  <property name="meta.attr.minor_version.markup">0</property>
  <property name="meta.attr.compatible_brands.markup">isommp42</property>
  <property name="meta.attr.creation_time.markup">2021-08-09T15:48:22.000000Z</property>
  <property name="meta.attr.location.markup">+51.0559+13.5336/</property>
  <property name="meta.attr.location-eng.markup">+51.0559+13.5336/</property>
  <property name="meta.attr.com.android.capture.fps.markup">30.000000</property>
  <property name="meta.media.sample_aspect_num">1</property>
  <property name="meta.media.sample_aspect_den">1</property>
  <property name="meta.media.frame_rate_num">14058000</property>
  <property name="meta.media.frame_rate_den">476987</property>
  <property name="meta.media.colorspace">601</property>
  <property name="meta.media.color_trc">6</property>
  <property name="meta.media.has_b_frames">0</property>
  <property name="meta.media.width">1920</property>
  <property name="meta.media.height">1080</property>
  <property name="meta.media.color_range">full</property>
  <property name="set.test_audio">1</property>
  <property name="set.test_image">0</property>
  <property name="meta.media.variable_frame_rate">1</property>
  <property name="meta.media.top_field_first">0</property>
  <property name="meta.media.progressive">1</property>
 </producer>
 <producer id="producer105" in="00:00:00.000" out="00:00:16.200">
  <property name="length">487</property>
  <property name="eof">pause</property>
  <property name="resource">ambos/PXL_20210809_182914096.mp4</property>
  <property name="audio_index">0</property>
  <property name="video_index">1</property>
  <property name="mute_on_pause">0</property>
  <property name="mlt_service">avformat-novalidate</property>
  <property name="seekable">1</property>
  <property name="aspect_ratio">1</property>
  <property name="kdenlive:clipname"/>
  <property name="kdenlive:folderid">43</property>
  <property name="kdenlive:id">44</property>
  <property name="kdenlive:file_size">31388833</property>
  <property name="kdenlive:file_hash">0e53352419628b0cab363f9caaa45bab</property>
  <property name="kdenlive:audio_max0">206</property>
  <property name="xml">was here</property>
  <property name="meta.media.nb_streams">2</property>
  <property name="meta.media.0.stream.type">audio</property>
  <property name="meta.media.0.codec.sample_fmt">fltp</property>
  <property name="meta.media.0.codec.sample_rate">48000</property>
  <property name="meta.media.0.codec.channels">2</property>
  <property name="meta.media.0.codec.name">aac</property>
  <property name="meta.media.0.codec.long_name">AAC (Advanced Audio Coding)</property>
  <property name="meta.media.0.codec.bit_rate">191804</property>
  <property name="meta.attr.0.stream.creation_time.markup">2021-08-09T18:29:31.000000Z</property>
  <property name="meta.attr.0.stream.language.markup">eng</property>
  <property name="meta.attr.0.stream.handler_name.markup">SoundHandle</property>
  <property name="meta.media.1.stream.type">video</property>
  <property name="meta.media.1.stream.frame_rate">30.0312</property>
  <property name="meta.media.1.stream.sample_aspect_ratio">1</property>
  <property name="meta.media.1.codec.width">1920</property>
  <property name="meta.media.1.codec.height">1080</property>
  <property name="meta.media.1.codec.rotate">0</property>
  <property name="meta.media.1.codec.pix_fmt">yuvj420p</property>
  <property name="meta.media.1.codec.sample_aspect_ratio">0</property>
  <property name="meta.media.1.codec.colorspace">601</property>
  <property name="meta.media.1.codec.color_trc">6</property>
  <property name="meta.media.1.codec.name">h264</property>
  <property name="meta.media.1.codec.long_name">H.264 / AVC / MPEG-4 AVC / MPEG-4 part 10</property>
  <property name="meta.media.1.codec.bit_rate">15257769</property>
  <property name="meta.attr.1.stream.creation_time.markup">2021-08-09T18:29:31.000000Z</property>
  <property name="meta.attr.1.stream.language.markup">eng</property>
  <property name="meta.attr.1.stream.handler_name.markup">VideoHandle</property>
  <property name="meta.attr.major_brand.markup">mp42</property>
  <property name="meta.attr.minor_version.markup">0</property>
  <property name="meta.attr.compatible_brands.markup">isommp42</property>
  <property name="meta.attr.creation_time.markup">2021-08-09T18:29:31.000000Z</property>
  <property name="meta.attr.location.markup">+49.7760+14.6761/</property>
  <property name="meta.attr.location-eng.markup">+49.7760+14.6761/</property>
  <property name="meta.attr.com.android.capture.fps.markup">30.000000</property>
  <property name="meta.media.sample_aspect_num">1</property>
  <property name="meta.media.sample_aspect_den">1</property>
  <property name="meta.media.frame_rate_num">43920000</property>
  <property name="meta.media.frame_rate_den">1462477</property>
  <property name="meta.media.colorspace">601</property>
  <property name="meta.media.color_trc">6</property>
  <property name="meta.media.has_b_frames">0</property>
  <property name="meta.media.width">1920</property>
  <property name="meta.media.height">1080</property>
  <property name="meta.media.color_range">full</property>
  <property name="meta.media.variable_frame_rate">1</property>
  <property name="meta.media.top_field_first">0</property>
  <property name="meta.media.progressive">1</property>
  <property name="set.test_audio">1</property>
  <property name="set.test_image">0</property>
 </producer>
 <producer id="producer106" in="00:00:00.000" out="00:00:36.333">
  <property name="length">1091</property>
  <property name="eof">pause</property>
  <property name="resource">ambos/PXL_20210809_182951192.mp4</property>
  <property name="audio_index">0</property>
  <property name="video_index">1</property>
  <property name="mute_on_pause">0</property>
  <property name="mlt_service">avformat-novalidate</property>
  <property name="seekable">1</property>
  <property name="aspect_ratio">1</property>
  <property name="kdenlive:clipname"/>
  <property name="kdenlive:folderid">43</property>
  <property name="kdenlive:id">41</property>
  <property name="kdenlive:file_size">71010584</property>
  <property name="kdenlive:file_hash">b54680353acd7a0d6ff80350a92d353f</property>
  <property name="kdenlive:audio_max0">213</property>
  <property name="xml">was here</property>
  <property name="meta.media.nb_streams">2</property>
  <property name="meta.media.0.stream.type">audio</property>
  <property name="meta.media.0.codec.sample_fmt">fltp</property>
  <property name="meta.media.0.codec.sample_rate">48000</property>
  <property name="meta.media.0.codec.channels">2</property>
  <property name="meta.media.0.codec.name">aac</property>
  <property name="meta.media.0.codec.long_name">AAC (Advanced Audio Coding)</property>
  <property name="meta.media.0.codec.bit_rate">189837</property>
  <property name="meta.attr.0.stream.rotate.markup">180</property>
  <property name="meta.attr.0.stream.creation_time.markup">2021-08-09T18:30:28.000000Z</property>
  <property name="meta.attr.0.stream.language.markup">eng</property>
  <property name="meta.attr.0.stream.handler_name.markup">SoundHandle</property>
  <property name="meta.media.1.stream.type">video</property>
  <property name="meta.media.1.stream.frame_rate">29.6732</property>
  <property name="meta.media.1.stream.sample_aspect_ratio">1</property>
  <property name="meta.media.1.codec.width">1920</property>
  <property name="meta.media.1.codec.height">1080</property>
  <property name="meta.media.1.codec.rotate">180</property>
  <property name="meta.media.1.codec.pix_fmt">yuvj420p</property>
  <property name="meta.media.1.codec.sample_aspect_ratio">0</property>
  <property name="meta.media.1.codec.colorspace">601</property>
  <property name="meta.media.1.codec.color_trc">6</property>
  <property name="meta.media.1.codec.name">h264</property>
  <property name="meta.media.1.codec.long_name">H.264 / AVC / MPEG-4 AVC / MPEG-4 part 10</property>
  <property name="meta.media.1.codec.bit_rate">15429360</property>
  <property name="meta.attr.1.stream.rotate.markup">180</property>
  <property name="meta.attr.1.stream.creation_time.markup">2021-08-09T18:30:28.000000Z</property>
  <property name="meta.attr.1.stream.language.markup">eng</property>
  <property name="meta.attr.1.stream.handler_name.markup">VideoHandle</property>
  <property name="meta.attr.major_brand.markup">mp42</property>
  <property name="meta.attr.minor_version.markup">0</property>
  <property name="meta.attr.compatible_brands.markup">isommp42</property>
  <property name="meta.attr.creation_time.markup">2021-08-09T18:30:28.000000Z</property>
  <property name="meta.attr.location.markup">+49.7760+14.6761/</property>
  <property name="meta.attr.location-eng.markup">+49.7760+14.6761/</property>
  <property name="meta.attr.com.android.capture.fps.markup">30.000000</property>
  <property name="meta.media.sample_aspect_num">1</property>
  <property name="meta.media.sample_aspect_den">1</property>
  <property name="meta.media.frame_rate_num">19422000</property>
  <property name="meta.media.frame_rate_den">654529</property>
  <property name="meta.media.colorspace">601</property>
  <property name="meta.media.color_trc">6</property>
  <property name="meta.media.has_b_frames">0</property>
  <property name="meta.media.width">1920</property>
  <property name="meta.media.height">1080</property>
  <property name="meta.media.color_range">full</property>
  <property name="meta.media.variable_frame_rate">1</property>
  <property name="meta.media.top_field_first">0</property>
  <property name="meta.media.progressive">1</property>
  <property name="set.test_audio">1</property>
  <property name="set.test_image">0</property>
 </producer>
 <producer id="producer107" in="00:00:00.000" out="00:00:24.767">
  <property name="length">744</property>
  <property name="eof">pause</property>
  <property name="resource">ambos/PXL_20210809_185329305.mp4</property>
  <property name="audio_index">0</property>
  <property name="video_index">1</property>
  <property name="mute_on_pause">0</property>
  <property name="mlt_service">avformat-novalidate</property>
  <property name="seekable">1</property>
  <property name="aspect_ratio">1</property>
  <property name="kdenlive:clipname"/>
  <property name="kdenlive:folderid">43</property>
  <property name="kdenlive:id">40</property>
  <property name="kdenlive:file_size">68676923</property>
  <property name="kdenlive:file_hash">a9ff35bdad68f6753f73ab68c921c617</property>
  <property name="kdenlive:audio_max0">211</property>
  <property name="xml">was here</property>
  <property name="meta.media.nb_streams">2</property>
  <property name="meta.media.0.stream.type">audio</property>
  <property name="meta.media.0.codec.sample_fmt">fltp</property>
  <property name="meta.media.0.codec.sample_rate">48000</property>
  <property name="meta.media.0.codec.channels">2</property>
  <property name="meta.media.0.codec.name">aac</property>
  <property name="meta.media.0.codec.long_name">AAC (Advanced Audio Coding)</property>
  <property name="meta.media.0.codec.bit_rate">191850</property>
  <property name="meta.attr.0.stream.creation_time.markup">2021-08-09T18:53:55.000000Z</property>
  <property name="meta.attr.0.stream.language.markup">eng</property>
  <property name="meta.attr.0.stream.handler_name.markup">SoundHandle</property>
  <property name="meta.media.1.stream.type">video</property>
  <property name="meta.media.1.stream.frame_rate">24.2262</property>
  <property name="meta.media.1.stream.sample_aspect_ratio">1</property>
  <property name="meta.media.1.codec.width">1920</property>
  <property name="meta.media.1.codec.height">1080</property>
  <property name="meta.media.1.codec.rotate">0</property>
  <property name="meta.media.1.codec.pix_fmt">yuvj420p</property>
  <property name="meta.media.1.codec.sample_aspect_ratio">0</property>
  <property name="meta.media.1.codec.colorspace">601</property>
  <property name="meta.media.1.codec.color_trc">6</property>
  <property name="meta.media.1.codec.name">h264</property>
  <property name="meta.media.1.codec.long_name">H.264 / AVC / MPEG-4 AVC / MPEG-4 part 10</property>
  <property name="meta.media.1.codec.bit_rate">21951152</property>
  <property name="meta.attr.1.stream.creation_time.markup">2021-08-09T18:53:55.000000Z</property>
  <property name="meta.attr.1.stream.language.markup">eng</property>
  <property name="meta.attr.1.stream.handler_name.markup">VideoHandle</property>
  <property name="meta.attr.major_brand.markup">mp42</property>
  <property name="meta.attr.minor_version.markup">0</property>
  <property name="meta.attr.compatible_brands.markup">isommp42</property>
  <property name="meta.attr.creation_time.markup">2021-08-09T18:53:55.000000Z</property>
  <property name="meta.attr.location.markup">+49.7771+14.6750/</property>
  <property name="meta.attr.location-eng.markup">+49.7771+14.6750/</property>
  <property name="meta.attr.com.android.capture.fps.markup">30.000000</property>
  <property name="meta.media.sample_aspect_num">1</property>
  <property name="meta.media.sample_aspect_den">1</property>
  <property name="meta.media.frame_rate_num">27045000</property>
  <property name="meta.media.frame_rate_den">1116353</property>
  <property name="meta.media.colorspace">601</property>
  <property name="meta.media.color_trc">6</property>
  <property name="meta.media.has_b_frames">0</property>
  <property name="meta.media.width">1920</property>
  <property name="meta.media.height">1080</property>
  <property name="meta.media.color_range">full</property>
  <property name="meta.media.top_field_first">0</property>
  <property name="meta.media.progressive">1</property>
  <property name="set.test_audio">1</property>
  <property name="set.test_image">0</property>
 </producer>
 <producer id="producer108" in="00:00:00.000" out="00:00:35.300">
  <property name="length">1060</property>
  <property name="eof">pause</property>
  <property name="resource">ambos/PXL_20210809_185358901.mp4</property>
  <property name="audio_index">0</property>
  <property name="video_index">1</property>
  <property name="mute_on_pause">0</property>
  <property name="mlt_service">avformat-novalidate</property>
  <property name="seekable">1</property>
  <property name="aspect_ratio">1</property>
  <property name="kdenlive:clipname"/>
  <property name="kdenlive:folderid">43</property>
  <property name="kdenlive:id">39</property>
  <property name="kdenlive:file_size">97924365</property>
  <property name="kdenlive:file_hash">7529cdb102002909cb4edd5d3460910b</property>
  <property name="kdenlive:audio_max0">210</property>
  <property name="xml">was here</property>
  <property name="meta.media.nb_streams">2</property>
  <property name="meta.media.0.stream.type">audio</property>
  <property name="meta.media.0.codec.sample_fmt">fltp</property>
  <property name="meta.media.0.codec.sample_rate">48000</property>
  <property name="meta.media.0.codec.channels">2</property>
  <property name="meta.media.0.codec.name">aac</property>
  <property name="meta.media.0.codec.long_name">AAC (Advanced Audio Coding)</property>
  <property name="meta.media.0.codec.bit_rate">191908</property>
  <property name="meta.attr.0.stream.creation_time.markup">2021-08-09T18:54:35.000000Z</property>
  <property name="meta.attr.0.stream.language.markup">eng</property>
  <property name="meta.attr.0.stream.handler_name.markup">SoundHandle</property>
  <property name="meta.media.1.stream.type">video</property>
  <property name="meta.media.1.stream.frame_rate">24.4313</property>
  <property name="meta.media.1.stream.sample_aspect_ratio">1</property>
  <property name="meta.media.1.codec.width">1920</property>
  <property name="meta.media.1.codec.height">1080</property>
  <property name="meta.media.1.codec.rotate">0</property>
  <property name="meta.media.1.codec.pix_fmt">yuvj420p</property>
  <property name="meta.media.1.codec.sample_aspect_ratio">0</property>
  <property name="meta.media.1.codec.colorspace">601</property>
  <property name="meta.media.1.codec.color_trc">6</property>
  <property name="meta.media.1.codec.name">h264</property>
  <property name="meta.media.1.codec.long_name">H.264 / AVC / MPEG-4 AVC / MPEG-4 part 10</property>
  <property name="meta.media.1.codec.bit_rate">21982355</property>
  <property name="meta.attr.1.stream.creation_time.markup">2021-08-09T18:54:35.000000Z</property>
  <property name="meta.attr.1.stream.language.markup">eng</property>
  <property name="meta.attr.1.stream.handler_name.markup">VideoHandle</property>
  <property name="meta.attr.major_brand.markup">mp42</property>
  <property name="meta.attr.minor_version.markup">0</property>
  <property name="meta.attr.compatible_brands.markup">isommp42</property>
  <property name="meta.attr.creation_time.markup">2021-08-09T18:54:35.000000Z</property>
  <property name="meta.attr.location.markup">+49.7771+14.6750/</property>
  <property name="meta.attr.location-eng.markup">+49.7771+14.6750/</property>
  <property name="meta.attr.com.android.capture.fps.markup">30.000000</property>
  <property name="meta.media.sample_aspect_num">1</property>
  <property name="meta.media.sample_aspect_den">1</property>
  <property name="meta.media.frame_rate_num">77670000</property>
  <property name="meta.media.frame_rate_den">3179117</property>
  <property name="meta.media.colorspace">601</property>
  <property name="meta.media.color_trc">6</property>
  <property name="meta.media.has_b_frames">0</property>
  <property name="meta.media.width">1920</property>
  <property name="meta.media.height">1080</property>
  <property name="meta.media.color_range">full</property>
  <property name="meta.media.variable_frame_rate">1</property>
  <property name="meta.media.top_field_first">0</property>
  <property name="meta.media.progressive">1</property>
  <property name="set.test_audio">1</property>
  <property name="set.test_image">0</property>
 </producer>
 <producer id="producer109" in="00:00:00.000" out="00:00:21.200">
  <property name="length">637</property>
  <property name="eof">pause</property>
  <property name="resource">ambos/PXL_20210809_185445601.mp4</property>
  <property name="audio_index">0</property>
  <property name="video_index">1</property>
  <property name="mute_on_pause">0</property>
  <property name="mlt_service">avformat-novalidate</property>
  <property name="seekable">1</property>
  <property name="aspect_ratio">1</property>
  <property name="kdenlive:clipname"/>
  <property name="kdenlive:folderid">43</property>
  <property name="kdenlive:id">38</property>
  <property name="kdenlive:file_size">45922673</property>
  <property name="kdenlive:file_hash">8372eb756f224688158f68fbe468ad9b</property>
  <property name="xml">was here</property>
  <property name="meta.media.nb_streams">2</property>
  <property name="meta.media.0.stream.type">audio</property>
  <property name="meta.media.0.codec.sample_fmt">fltp</property>
  <property name="meta.media.0.codec.sample_rate">48000</property>
  <property name="meta.media.0.codec.channels">2</property>
  <property name="meta.media.0.codec.name">aac</property>
  <property name="meta.media.0.codec.long_name">AAC (Advanced Audio Coding)</property>
  <property name="meta.media.0.codec.bit_rate">191779</property>
  <property name="meta.attr.0.stream.creation_time.markup">2021-08-09T18:55:08.000000Z</property>
  <property name="meta.attr.0.stream.language.markup">eng</property>
  <property name="meta.attr.0.stream.handler_name.markup">SoundHandle</property>
  <property name="meta.media.1.stream.type">video</property>
  <property name="meta.media.1.stream.frame_rate">24.5788</property>
  <property name="meta.media.1.stream.sample_aspect_ratio">1</property>
  <property name="meta.media.1.codec.width">1920</property>
  <property name="meta.media.1.codec.height">1080</property>
  <property name="meta.media.1.codec.rotate">0</property>
  <property name="meta.media.1.codec.pix_fmt">yuvj420p</property>
  <property name="meta.media.1.codec.sample_aspect_ratio">0</property>
  <property name="meta.media.1.codec.colorspace">601</property>
  <property name="meta.media.1.codec.color_trc">6</property>
  <property name="meta.media.1.codec.name">h264</property>
  <property name="meta.media.1.codec.long_name">H.264 / AVC / MPEG-4 AVC / MPEG-4 part 10</property>
  <property name="meta.media.1.codec.bit_rate">17103044</property>
  <property name="meta.attr.1.stream.creation_time.markup">2021-08-09T18:55:08.000000Z</property>
  <property name="meta.attr.1.stream.language.markup">eng</property>
  <property name="meta.attr.1.stream.handler_name.markup">VideoHandle</property>
  <property name="meta.attr.major_brand.markup">mp42</property>
  <property name="meta.attr.minor_version.markup">0</property>
  <property name="meta.attr.compatible_brands.markup">isommp42</property>
  <property name="meta.attr.creation_time.markup">2021-08-09T18:55:08.000000Z</property>
  <property name="meta.attr.location.markup">+49.7771+14.6750/</property>
  <property name="meta.attr.location-eng.markup">+49.7771+14.6750/</property>
  <property name="meta.attr.com.android.capture.fps.markup">30.000000</property>
  <property name="meta.media.sample_aspect_num">1</property>
  <property name="meta.media.sample_aspect_den">1</property>
  <property name="meta.media.frame_rate_num">3132000</property>
  <property name="meta.media.frame_rate_den">127427</property>
  <property name="meta.media.colorspace">601</property>
  <property name="meta.media.color_trc">6</property>
  <property name="meta.media.has_b_frames">0</property>
  <property name="meta.media.width">1920</property>
  <property name="meta.media.height">1080</property>
  <property name="meta.media.color_range">full</property>
  <property name="set.test_audio">1</property>
  <property name="set.test_image">0</property>
  <property name="meta.media.top_field_first">0</property>
  <property name="meta.media.progressive">1</property>
 </producer>
 <producer id="producer110" in="00:00:00.000" out="00:00:02.633">
  <property name="length">80</property>
  <property name="eof">pause</property>
  <property name="resource">ambos/PXL_20210809_185517881.mp4</property>
  <property name="audio_index">0</property>
  <property name="video_index">1</property>
  <property name="mute_on_pause">0</property>
  <property name="mlt_service">avformat-novalidate</property>
  <property name="seekable">1</property>
  <property name="aspect_ratio">1</property>
  <property name="kdenlive:clipname"/>
  <property name="kdenlive:folderid">43</property>
  <property name="kdenlive:id">37</property>
  <property name="kdenlive:file_size">7070150</property>
  <property name="kdenlive:file_hash">9cf305d5d77076217589e051dddbebeb</property>
  <property name="kdenlive:audio_max0">199</property>
  <property name="xml">was here</property>
  <property name="meta.media.nb_streams">2</property>
  <property name="meta.media.0.stream.type">audio</property>
  <property name="meta.media.0.codec.sample_fmt">fltp</property>
  <property name="meta.media.0.codec.sample_rate">48000</property>
  <property name="meta.media.0.codec.channels">2</property>
  <property name="meta.media.0.codec.name">aac</property>
  <property name="meta.media.0.codec.long_name">AAC (Advanced Audio Coding)</property>
  <property name="meta.media.0.codec.bit_rate">190923</property>
  <property name="meta.attr.0.stream.creation_time.markup">2021-08-09T18:55:21.000000Z</property>
  <property name="meta.attr.0.stream.language.markup">eng</property>
  <property name="meta.attr.0.stream.handler_name.markup">SoundHandle</property>
  <property name="meta.media.1.stream.type">video</property>
  <property name="meta.media.1.stream.frame_rate">29.9813</property>
  <property name="meta.media.1.stream.sample_aspect_ratio">1</property>
  <property name="meta.media.1.codec.width">1920</property>
  <property name="meta.media.1.codec.height">1080</property>
  <property name="meta.media.1.codec.rotate">0</property>
  <property name="meta.media.1.codec.pix_fmt">yuvj420p</property>
  <property name="meta.media.1.codec.sample_aspect_ratio">0</property>
  <property name="meta.media.1.codec.colorspace">601</property>
  <property name="meta.media.1.codec.color_trc">6</property>
  <property name="meta.media.1.codec.name">h264</property>
  <property name="meta.media.1.codec.long_name">H.264 / AVC / MPEG-4 AVC / MPEG-4 part 10</property>
  <property name="meta.media.1.codec.bit_rate">21000938</property>
  <property name="meta.attr.1.stream.creation_time.markup">2021-08-09T18:55:21.000000Z</property>
  <property name="meta.attr.1.stream.language.markup">eng</property>
  <property name="meta.attr.1.stream.handler_name.markup">VideoHandle</property>
  <property name="meta.attr.major_brand.markup">mp42</property>
  <property name="meta.attr.minor_version.markup">0</property>
  <property name="meta.attr.compatible_brands.markup">isommp42</property>
  <property name="meta.attr.creation_time.markup">2021-08-09T18:55:21.000000Z</property>
  <property name="meta.attr.location.markup">+49.7771+14.6750/</property>
  <property name="meta.attr.location-eng.markup">+49.7771+14.6750/</property>
  <property name="meta.attr.com.android.capture.fps.markup">30.000000</property>
  <property name="meta.media.sample_aspect_num">1</property>
  <property name="meta.media.sample_aspect_den">1</property>
  <property name="meta.media.frame_rate_num">48000</property>
  <property name="meta.media.frame_rate_den">1601</property>
  <property name="meta.media.colorspace">601</property>
  <property name="meta.media.color_trc">6</property>
  <property name="meta.media.has_b_frames">0</property>
  <property name="meta.media.width">1920</property>
  <property name="meta.media.height">1080</property>
  <property name="meta.media.color_range">full</property>
  <property name="meta.media.top_field_first">0</property>
  <property name="meta.media.progressive">1</property>
  <property name="set.test_audio">1</property>
  <property name="set.test_image">0</property>
 </producer>
 <playlist id="playlist10">
  <entry producer="producer83" in="00:00:39.133" out="00:00:52.567">
   <property name="kdenlive:id">30</property>
  </entry>
  <entry producer="producer83" in="00:01:25.333" out="00:01:31.433">
   <property name="kdenlive:id">30</property>
  </entry>
  <entry producer="producer83" in="00:02:24.933" out="00:02:34.267">
   <property name="kdenlive:id">30</property>
  </entry>
  <entry producer="producer83" in="00:04:45.800" out="00:04:48.900">
   <property name="kdenlive:id">30</property>
  </entry>
  <entry producer="producer83" in="00:04:53.433" out="00:04:57.533">
   <property name="kdenlive:id">30</property>
  </entry>
  <entry producer="producer83" in="00:05:11.800" out="00:05:18.600">
   <property name="kdenlive:id">30</property>
  </entry>
  <entry producer="producer83" in="00:05:20.133" out="00:05:25.900">
   <property name="kdenlive:id">30</property>
  </entry>
  <entry producer="producer83" in="00:05:28.967" out="00:05:42.100">
   <property name="kdenlive:id">30</property>
  </entry>
  <entry producer="producer83" in="00:05:47.600" out="00:05:51.633">
   <property name="kdenlive:id">30</property>
  </entry>
  <entry producer="producer83" in="00:05:53.333" out="00:05:54.767">
   <property name="kdenlive:id">30</property>
  </entry>
  <blank length="00:00:43.133"/>
  <entry producer="producer84" in="00:00:00.000" out="00:00:15.667">
   <property name="kdenlive:id">29</property>
  </entry>
  <entry producer="producer85" in="00:00:13.633" out="00:00:17.400">
   <property name="kdenlive:id">28</property>
  </entry>
  <entry producer="producer86" in="00:01:18.667" out="00:01:21.367">
   <property name="kdenlive:id">27</property>
  </entry>
  <entry producer="producer96" in="00:00:07.500" out="00:00:14.300">
   <property name="kdenlive:id">17</property>
  </entry>
  <entry producer="producer94" in="00:00:00.000" out="00:00:14.267">
   <property name="kdenlive:id">19</property>
  </entry>
  <entry producer="producer95" in="00:00:27.167" out="00:00:35.267">
   <property name="kdenlive:id">18</property>
  </entry>
  <entry producer="producer95" in="00:00:59.167" out="00:01:07.700">
   <property name="kdenlive:id">18</property>
  </entry>
  <entry producer="producer98" in="00:00:00.000" out="00:00:04.567">
   <property name="kdenlive:id">15</property>
  </entry>
  <blank length="00:04:18.900"/>
  <entry producer="producer100" in="00:00:00.000" out="00:00:06.900">
   <property name="kdenlive:id">9</property>
  </entry>
  <entry producer="producer101" in="00:00:08.633" out="00:00:14.600">
   <property name="kdenlive:id">8</property>
  </entry>
  <entry producer="producer102" in="00:00:42.833" out="00:00:54.067">
   <property name="kdenlive:id">7</property>
  </entry>
  <entry producer="producer102" in="00:01:02.333" out="00:01:06.633">
   <property name="kdenlive:id">7</property>
  </entry>
  <entry producer="producer103" in="00:00:12.033" out="00:00:25.000">
   <property name="kdenlive:id">5</property>
  </entry>
  <blank length="00:00:43.333"/>
  <entry producer="producer105" in="00:00:00.000" out="00:00:16.200">
   <property name="kdenlive:id">44</property>
  </entry>
  <entry producer="producer106" in="00:00:00.000" out="00:00:36.333">
   <property name="kdenlive:id">41</property>
  </entry>
  <entry producer="producer107" in="00:00:00.000" out="00:00:14.933">
   <property name="kdenlive:id">40</property>
  </entry>
  <entry producer="producer108" in="00:00:17.800" out="00:00:35.300">
   <property name="kdenlive:id">39</property>
  </entry>
  <entry producer="producer109" in="00:00:00.000" out="00:00:21.200">
   <property name="kdenlive:id">38</property>
  </entry>
  <entry producer="producer110" in="00:00:00.000" out="00:00:02.633">
   <property name="kdenlive:id">37</property>
  </entry>
 </playlist>
 <playlist id="playlist11"/>
 <tractor id="tractor5" in="00:00:00.000" out="00:10:28.100">
  <property name="kdenlive:trackheight">60</property>
  <property name="kdenlive:timeline_active">1</property>
  <property name="kdenlive:collapsed">0</property>
  <property name="kdenlive:track_name">Manolo</property>
  <property name="kdenlive:thumbs_format"/>
  <property name="kdenlive:audio_rec"/>
  <track hide="audio" producer="playlist10"/>
  <track hide="audio" producer="playlist11"/>
 </tractor>
 <tractor id="tractor6" in="00:00:00.000" out="00:27:08.133">
  <track producer="black_track"/>
  <track producer="tractor0"/>
  <track producer="tractor1"/>
  <track producer="tractor2"/>
  <track producer="tractor3"/>
  <track producer="tractor4"/>
  <track producer="tractor5"/>
  <transition id="transition0">
   <property name="a_track">0</property>
   <property name="b_track">1</property>
   <property name="mlt_service">mix</property>
   <property name="kdenlive_id">mix</property>
   <property name="internal_added">237</property>
   <property name="always_active">1</property>
   <property name="accepts_blanks">1</property>
   <property name="sum">1</property>
  </transition>
  <transition id="transition1">
   <property name="a_track">0</property>
   <property name="b_track">2</property>
   <property name="version">0.9</property>
   <property name="mlt_service">frei0r.cairoblend</property>
   <property name="kdenlive_id">frei0r.cairoblend</property>
   <property name="internal_added">237</property>
   <property name="always_active">1</property>
  </transition>
  <transition id="transition2">
   <property name="a_track">0</property>
   <property name="b_track">3</property>
   <property name="version">0.9</property>
   <property name="mlt_service">frei0r.cairoblend</property>
   <property name="kdenlive_id">frei0r.cairoblend</property>
   <property name="internal_added">237</property>
   <property name="always_active">1</property>
  </transition>
  <transition id="transition3">
   <property name="a_track">0</property>
   <property name="b_track">4</property>
   <property name="mlt_service">mix</property>
   <property name="kdenlive_id">mix</property>
   <property name="internal_added">237</property>
   <property name="always_active">1</property>
   <property name="accepts_blanks">1</property>
   <property name="sum">1</property>
  </transition>
  <transition id="transition4">
   <property name="a_track">0</property>
   <property name="b_track">5</property>
   <property name="mlt_service">mix</property>
   <property name="kdenlive_id">mix</property>
   <property name="internal_added">237</property>
   <property name="always_active">1</property>
   <property name="accepts_blanks">1</property>
   <property name="sum">1</property>
  </transition>
  <transition id="transition5">
   <property name="a_track">0</property>
   <property name="b_track">6</property>
   <property name="version">0.9</property>
   <property name="mlt_service">frei0r.cairoblend</property>
   <property name="kdenlive_id">frei0r.cairoblend</property>
   <property name="internal_added">237</property>
   <property name="always_active">1</property>
  </transition>
  <filter id="filter11">
   <property name="window">75</property>
   <property name="max_gain">20dB</property>
   <property name="mlt_service">volume</property>
   <property name="internal_added">237</property>
   <property name="disable">1</property>
  </filter>
  <filter id="filter12">
   <property name="channel">-1</property>
   <property name="mlt_service">panner</property>
   <property name="internal_added">237</property>
   <property name="start">0.5</property>
   <property name="disable">1</property>
  </filter>
  <filter id="filter13">
   <property name="iec_scale">0</property>
   <property name="mlt_service">audiolevel</property>
   <property name="disable">1</property>
  </filter>
 </tractor>
</mlt>
