<?xml version='1.0' encoding='utf-8'?>
<mlt version="6.0.0" root="/home/federico" title="Anonymous Submission" producer="main bin" LC_NUMERIC="de_DE.UTF-8">
 <profile frame_rate_num="30" sample_aspect_den="1" frame_rate_den="1" sample_aspect_num="1" height="1080" display_aspect_den="9" progressive="1" display_aspect_num="16" colorspace="709" description="HD 1080p 30 fps" width="1920"/>
 <producer in="0" title="Anonymous Submission" id="1" out="4715">
  <property name="mlt_type">mlt_producer</property>
  <property name="length">00:02:37:06</property>
  <property name="eof">pause</property>
  <property name="resource">/opt/vlog/musica/bensound-acousticbreeze.mp3</property>
  <property name="audio_index">0</property>
  <property name="video_index">-1</property>
  <property name="mute_on_pause">1</property>
  <property name="mlt_service">avformat-novalidate</property>
  <property name="meta.media.nb_streams">1</property>
  <property name="meta.media.0.stream.type">audio</property>
  <property name="meta.media.0.codec.sample_fmt">s16p</property>
  <property name="meta.media.0.codec.sample_rate">44100</property>
  <property name="meta.media.0.codec.channels">2</property>
  <property name="meta.media.0.codec.name">mp3</property>
  <property name="meta.media.0.codec.long_name">MP3 (MPEG audio layer 3)</property>
  <property name="meta.media.0.codec.bit_rate">112000</property>
  <property name="seekable">1</property>
  <property name="kdenlive:folderid">3</property>
  <property name="kdenlive:file_size">2200869</property>
  <property name="kdenlive:file_hash">56fc390ae97ef062e6d6a777cee974d5</property>
  <property name="global_feed">1</property>
 </producer>
 <producer in="0" title="Anonymous Submission" id="10" out="6876">
  <property name="mlt_type">mlt_producer</property>
  <property name="length">00:03:49:07</property>
  <property name="eof">pause</property>
  <property name="resource">/opt/vlog/musica/bensound-birthofahero.mp3</property>
  <property name="audio_index">0</property>
  <property name="video_index">-1</property>
  <property name="mute_on_pause">1</property>
  <property name="mlt_service">avformat-novalidate</property>
  <property name="meta.media.nb_streams">1</property>
  <property name="meta.media.0.stream.type">audio</property>
  <property name="meta.media.0.codec.sample_fmt">s16p</property>
  <property name="meta.media.0.codec.sample_rate">44100</property>
  <property name="meta.media.0.codec.channels">2</property>
  <property name="meta.media.0.codec.name">mp3</property>
  <property name="meta.media.0.codec.long_name">MP3 (MPEG audio layer 3)</property>
  <property name="meta.media.0.codec.bit_rate">192000</property>
  <property name="seekable">1</property>
  <property name="kdenlive:folderid">3</property>
  <property name="kdenlive:file_size">5501387</property>
  <property name="kdenlive:file_hash">6d1c5c28c4b071083a8fe6b4de3a7a26</property>
  <property name="global_feed">1</property>
 </producer>
 <producer in="0" title="Anonymous Submission" id="100" out="1392">
  <property name="mlt_type">mlt_producer</property>
  <property name="length">00:00:46:13</property>
  <property name="eof">pause</property>
  <property name="resource">/opt/vlog/entrenamiento1/videos/VID_20190202_155425.mp4</property>
  <property name="audio_index">0</property>
  <property name="video_index">1</property>
  <property name="mute_on_pause">1</property>
  <property name="mlt_service">avformat-novalidate</property>
  <property name="meta.media.nb_streams">2</property>
  <property name="meta.media.0.stream.type">audio</property>
  <property name="meta.media.0.codec.sample_fmt">fltp</property>
  <property name="meta.media.0.codec.sample_rate">44100</property>
  <property name="meta.media.0.codec.channels">2</property>
  <property name="meta.media.0.codec.name">aac</property>
  <property name="meta.media.0.codec.long_name">AAC (Advanced Audio Coding)</property>
  <property name="meta.media.0.codec.bit_rate">191917</property>
  <property name="meta.attr.0.stream.creation_time.markup">2019-02-02 14:54:24</property>
  <property name="meta.attr.0.stream.language.markup">eng</property>
  <property name="meta.attr.0.stream.handler_name.markup">SoundHandle</property>
  <property name="meta.media.1.stream.type">video</property>
  <property name="meta.media.1.stream.frame_rate">30,0135</property>
  <property name="meta.media.1.stream.sample_aspect_ratio">1</property>
  <property name="meta.media.1.codec.width">1920</property>
  <property name="meta.media.1.codec.height">1080</property>
  <property name="meta.media.1.codec.rotate">0</property>
  <property name="meta.media.1.codec.frame_rate">90000</property>
  <property name="meta.media.1.codec.pix_fmt">yuvj420p</property>
  <property name="meta.media.1.codec.sample_aspect_ratio">0</property>
  <property name="meta.media.1.codec.colorspace">601</property>
  <property name="meta.media.1.codec.color_trc">6</property>
  <property name="meta.media.1.codec.name">h264</property>
  <property name="meta.media.1.codec.long_name">H.264 / AVC / MPEG-4 AVC / MPEG-4 part 10</property>
  <property name="meta.media.1.codec.bit_rate">22030378</property>
  <property name="meta.attr.1.stream.creation_time.markup">2019-02-02 14:54:24</property>
  <property name="meta.attr.1.stream.language.markup">eng</property>
  <property name="meta.attr.1.stream.handler_name.markup">VideoHandle</property>
  <property name="meta.attr.major_brand.markup">mp42</property>
  <property name="meta.attr.minor_version.markup">0</property>
  <property name="meta.attr.compatible_brands.markup">isommp42</property>
  <property name="meta.attr.creation_time.markup">2019-02-02 14:54:24</property>
  <property name="meta.attr.location.markup">+51.5191+007.4032/</property>
  <property name="meta.attr.location-eng.markup">+51.5191+007.4032/</property>
  <property name="seekable">1</property>
  <property name="meta.media.sample_aspect_num">1</property>
  <property name="meta.media.sample_aspect_den">1</property>
  <property name="aspect_ratio">1</property>
  <property name="kdenlive:folderid">1</property>
  <property name="kdenlive:file_size">129036179</property>
  <property name="kdenlive:file_hash">69ca800a9d3d82793eab98369e56143c</property>
  <property name="global_feed">1</property>
  <property name="meta.media.frame_rate_num">6970000</property>
  <property name="meta.media.frame_rate_den">232229</property>
  <property name="meta.media.colorspace">601</property>
  <property name="meta.media.color_trc">6</property>
  <property name="meta.media.width">1920</property>
  <property name="meta.media.height">1080</property>
  <property name="meta.media.top_field_first">0</property>
  <property name="meta.media.progressive">1</property>
 </producer>
 <producer in="0" title="Anonymous Submission" id="101" out="3103">
  <property name="mlt_type">mlt_producer</property>
  <property name="length">00:01:43:14</property>
  <property name="eof">pause</property>
  <property name="resource">/opt/vlog/entrenamiento1/videos/VID_20190202_155612.mp4</property>
  <property name="audio_index">0</property>
  <property name="video_index">1</property>
  <property name="mute_on_pause">1</property>
  <property name="mlt_service">avformat-novalidate</property>
  <property name="meta.media.nb_streams">2</property>
  <property name="meta.media.0.stream.type">audio</property>
  <property name="meta.media.0.codec.sample_fmt">fltp</property>
  <property name="meta.media.0.codec.sample_rate">44100</property>
  <property name="meta.media.0.codec.channels">2</property>
  <property name="meta.media.0.codec.name">aac</property>
  <property name="meta.media.0.codec.long_name">AAC (Advanced Audio Coding)</property>
  <property name="meta.media.0.codec.bit_rate">192008</property>
  <property name="meta.attr.0.stream.creation_time.markup">2019-02-02 14:56:11</property>
  <property name="meta.attr.0.stream.language.markup">eng</property>
  <property name="meta.attr.0.stream.handler_name.markup">SoundHandle</property>
  <property name="meta.media.1.stream.type">video</property>
  <property name="meta.media.1.stream.frame_rate">30,1015</property>
  <property name="meta.media.1.stream.sample_aspect_ratio">1</property>
  <property name="meta.media.1.codec.width">1920</property>
  <property name="meta.media.1.codec.height">1080</property>
  <property name="meta.media.1.codec.rotate">0</property>
  <property name="meta.media.1.codec.frame_rate">90000</property>
  <property name="meta.media.1.codec.pix_fmt">yuvj420p</property>
  <property name="meta.media.1.codec.sample_aspect_ratio">0</property>
  <property name="meta.media.1.codec.colorspace">601</property>
  <property name="meta.media.1.codec.color_trc">6</property>
  <property name="meta.media.1.codec.name">h264</property>
  <property name="meta.media.1.codec.long_name">H.264 / AVC / MPEG-4 AVC / MPEG-4 part 10</property>
  <property name="meta.media.1.codec.bit_rate">21992681</property>
  <property name="meta.attr.1.stream.creation_time.markup">2019-02-02 14:56:11</property>
  <property name="meta.attr.1.stream.language.markup">eng</property>
  <property name="meta.attr.1.stream.handler_name.markup">VideoHandle</property>
  <property name="meta.attr.major_brand.markup">mp42</property>
  <property name="meta.attr.minor_version.markup">0</property>
  <property name="meta.attr.compatible_brands.markup">isommp42</property>
  <property name="meta.attr.creation_time.markup">2019-02-02 14:56:11</property>
  <property name="meta.attr.location.markup">+51.5191+007.4032/</property>
  <property name="meta.attr.location-eng.markup">+51.5191+007.4032/</property>
  <property name="seekable">1</property>
  <property name="meta.media.sample_aspect_num">1</property>
  <property name="meta.media.sample_aspect_den">1</property>
  <property name="aspect_ratio">1</property>
  <property name="kdenlive:folderid">1</property>
  <property name="kdenlive:file_size">286911159</property>
  <property name="kdenlive:file_hash">e9a0f36765c2a3b902986c0a415dfc15</property>
  <property name="global_feed">1</property>
  <property name="meta.media.frame_rate_num">280260000</property>
  <property name="meta.media.frame_rate_den">9310487</property>
  <property name="meta.media.colorspace">601</property>
  <property name="meta.media.color_trc">6</property>
  <property name="meta.media.width">1920</property>
  <property name="meta.media.height">1080</property>
  <property name="meta.media.top_field_first">0</property>
  <property name="meta.media.progressive">1</property>
 </producer>
 <producer in="0" title="Anonymous Submission" id="11" out="7223">
  <property name="mlt_type">mlt_producer</property>
  <property name="length">00:04:00:24</property>
  <property name="eof">pause</property>
  <property name="resource">/opt/vlog/musica/bensound-brazilsamba.mp3</property>
  <property name="audio_index">0</property>
  <property name="video_index">-1</property>
  <property name="mute_on_pause">1</property>
  <property name="mlt_service">avformat-novalidate</property>
  <property name="meta.media.nb_streams">1</property>
  <property name="meta.media.0.stream.type">audio</property>
  <property name="meta.media.0.codec.sample_fmt">s16p</property>
  <property name="meta.media.0.codec.sample_rate">44100</property>
  <property name="meta.media.0.codec.channels">2</property>
  <property name="meta.media.0.codec.name">mp3</property>
  <property name="meta.media.0.codec.long_name">MP3 (MPEG audio layer 3)</property>
  <property name="meta.media.0.codec.bit_rate">112000</property>
  <property name="meta.attr.title.markup">Brazil Samba</property>
  <property name="meta.attr.artist.markup">Bensound</property>
  <property name="meta.attr.comment.markup">www.bensound.com</property>
  <property name="seekable">1</property>
  <property name="kdenlive:folderid">3</property>
  <property name="kdenlive:file_size">3371412</property>
  <property name="kdenlive:file_hash">1559ab53eb7667dc22d0659d3b747ff2</property>
  <property name="global_feed">1</property>
 </producer>
 <producer in="0" title="Anonymous Submission" id="12" out="3663">
  <property name="mlt_type">mlt_producer</property>
  <property name="length">00:02:02:04</property>
  <property name="eof">pause</property>
  <property name="resource">/opt/vlog/musica/bensound-buddy.mp3</property>
  <property name="audio_index">0</property>
  <property name="video_index">-1</property>
  <property name="mute_on_pause">1</property>
  <property name="mlt_service">avformat-novalidate</property>
  <property name="meta.media.nb_streams">1</property>
  <property name="meta.media.0.stream.type">audio</property>
  <property name="meta.media.0.codec.sample_fmt">s16p</property>
  <property name="meta.media.0.codec.sample_rate">44100</property>
  <property name="meta.media.0.codec.channels">2</property>
  <property name="meta.media.0.codec.name">mp3</property>
  <property name="meta.media.0.codec.long_name">MP3 (MPEG audio layer 3)</property>
  <property name="meta.media.0.codec.bit_rate">112000</property>
  <property name="seekable">1</property>
  <property name="kdenlive:folderid">3</property>
  <property name="kdenlive:file_size">1710080</property>
  <property name="kdenlive:file_hash">c7537cc5ce01f0956099702537615ee2</property>
  <property name="global_feed">1</property>
 </producer>
 <producer in="0" title="Anonymous Submission" id="13" out="5303">
  <property name="mlt_type">mlt_producer</property>
  <property name="length">00:02:56:24</property>
  <property name="eof">pause</property>
  <property name="resource">/opt/vlog/musica/bensound-clapandyell.mp3</property>
  <property name="audio_index">0</property>
  <property name="video_index">-1</property>
  <property name="mute_on_pause">1</property>
  <property name="mlt_service">avformat-novalidate</property>
  <property name="meta.media.nb_streams">1</property>
  <property name="meta.media.0.stream.type">audio</property>
  <property name="meta.media.0.codec.sample_fmt">s16p</property>
  <property name="meta.media.0.codec.sample_rate">44100</property>
  <property name="meta.media.0.codec.channels">2</property>
  <property name="meta.media.0.codec.name">mp3</property>
  <property name="meta.media.0.codec.long_name">MP3 (MPEG audio layer 3)</property>
  <property name="meta.media.0.codec.bit_rate">112000</property>
  <property name="seekable">1</property>
  <property name="kdenlive:folderid">3</property>
  <property name="kdenlive:file_size">2475154</property>
  <property name="kdenlive:file_hash">444bb40003e01379dead64992836faf7</property>
  <property name="global_feed">1</property>
 </producer>
 <producer in="0" title="Anonymous Submission" id="14" out="2694">
  <property name="mlt_type">mlt_producer</property>
  <property name="length">00:01:29:25</property>
  <property name="eof">pause</property>
  <property name="resource">/opt/vlog/musica/bensound-clearday.mp3</property>
  <property name="audio_index">0</property>
  <property name="video_index">-1</property>
  <property name="mute_on_pause">1</property>
  <property name="mlt_service">avformat-novalidate</property>
  <property name="meta.media.nb_streams">1</property>
  <property name="meta.media.0.stream.type">audio</property>
  <property name="meta.media.0.codec.sample_fmt">s16p</property>
  <property name="meta.media.0.codec.sample_rate">44100</property>
  <property name="meta.media.0.codec.channels">2</property>
  <property name="meta.media.0.codec.name">mp3</property>
  <property name="meta.media.0.codec.long_name">MP3 (MPEG audio layer 3)</property>
  <property name="meta.media.0.codec.bit_rate">112000</property>
  <property name="seekable">1</property>
  <property name="kdenlive:folderid">3</property>
  <property name="kdenlive:file_size">1257691</property>
  <property name="kdenlive:file_hash">6f257638bf1fd2ed12f2678e45c2c853</property>
  <property name="global_feed">1</property>
 </producer>
 <producer in="0" title="Anonymous Submission" id="15" out="6214">
  <property name="mlt_type">mlt_producer</property>
  <property name="length">00:03:27:05</property>
  <property name="eof">pause</property>
  <property name="resource">/opt/vlog/musica/bensound-countryboy.mp3</property>
  <property name="audio_index">0</property>
  <property name="video_index">-1</property>
  <property name="mute_on_pause">1</property>
  <property name="mlt_service">avformat-novalidate</property>
  <property name="meta.media.nb_streams">1</property>
  <property name="meta.media.0.stream.type">audio</property>
  <property name="meta.media.0.codec.sample_fmt">s16p</property>
  <property name="meta.media.0.codec.sample_rate">44100</property>
  <property name="meta.media.0.codec.channels">2</property>
  <property name="meta.media.0.codec.name">mp3</property>
  <property name="meta.media.0.codec.long_name">MP3 (MPEG audio layer 3)</property>
  <property name="meta.media.0.codec.bit_rate">112000</property>
  <property name="seekable">1</property>
  <property name="kdenlive:folderid">3</property>
  <property name="kdenlive:file_size">2900114</property>
  <property name="kdenlive:file_hash">9d87158812284c6d6de3740896fff91a</property>
  <property name="global_feed">1</property>
 </producer>
 <producer in="0" title="Anonymous Submission" id="16" out="4417">
  <property name="mlt_type">mlt_producer</property>
  <property name="length">00:02:27:08</property>
  <property name="eof">pause</property>
  <property name="resource">/opt/vlog/musica/bensound-creativeminds.mp3</property>
  <property name="audio_index">0</property>
  <property name="video_index">-1</property>
  <property name="mute_on_pause">1</property>
  <property name="mlt_service">avformat-novalidate</property>
  <property name="meta.media.nb_streams">1</property>
  <property name="meta.media.0.stream.type">audio</property>
  <property name="meta.media.0.codec.sample_fmt">s16p</property>
  <property name="meta.media.0.codec.sample_rate">44100</property>
  <property name="meta.media.0.codec.channels">2</property>
  <property name="meta.media.0.codec.name">mp3</property>
  <property name="meta.media.0.codec.long_name">MP3 (MPEG audio layer 3)</property>
  <property name="meta.media.0.codec.bit_rate">160000</property>
  <property name="seekable">1</property>
  <property name="kdenlive:folderid">3</property>
  <property name="kdenlive:file_size">2945045</property>
  <property name="kdenlive:file_hash">47de3f77f526670952f7abe882c617c3</property>
  <property name="global_feed">1</property>
 </producer>
 <producer in="0" title="Anonymous Submission" id="17" out="6507">
  <property name="mlt_type">mlt_producer</property>
  <property name="length">00:03:36:28</property>
  <property name="eof">pause</property>
  <property name="resource">/opt/vlog/musica/bensound-creepy.mp3</property>
  <property name="audio_index">0</property>
  <property name="video_index">-1</property>
  <property name="mute_on_pause">1</property>
  <property name="mlt_service">avformat-novalidate</property>
  <property name="meta.media.nb_streams">1</property>
  <property name="meta.media.0.stream.type">audio</property>
  <property name="meta.media.0.codec.sample_fmt">s16p</property>
  <property name="meta.media.0.codec.sample_rate">44100</property>
  <property name="meta.media.0.codec.channels">2</property>
  <property name="meta.media.0.codec.name">mp3</property>
  <property name="meta.media.0.codec.long_name">MP3 (MPEG audio layer 3)</property>
  <property name="meta.media.0.codec.bit_rate">112000</property>
  <property name="seekable">1</property>
  <property name="kdenlive:folderid">3</property>
  <property name="kdenlive:file_size">3038001</property>
  <property name="kdenlive:file_hash">512d8fddf1bac997357668d7b6201ad6</property>
  <property name="global_feed">1</property>
 </producer>
 <producer in="0" title="Anonymous Submission" id="18" out="5824">
  <property name="mlt_type">mlt_producer</property>
  <property name="length">00:03:14:05</property>
  <property name="eof">pause</property>
  <property name="resource">/opt/vlog/musica/bensound-cute.mp3</property>
  <property name="audio_index">0</property>
  <property name="video_index">-1</property>
  <property name="mute_on_pause">1</property>
  <property name="mlt_service">avformat-novalidate</property>
  <property name="meta.media.nb_streams">1</property>
  <property name="meta.media.0.stream.type">audio</property>
  <property name="meta.media.0.codec.sample_fmt">s16p</property>
  <property name="meta.media.0.codec.sample_rate">44100</property>
  <property name="meta.media.0.codec.channels">2</property>
  <property name="meta.media.0.codec.name">mp3</property>
  <property name="meta.media.0.codec.long_name">MP3 (MPEG audio layer 3)</property>
  <property name="meta.media.0.codec.bit_rate">112000</property>
  <property name="seekable">1</property>
  <property name="kdenlive:folderid">3</property>
  <property name="kdenlive:file_size">2718354</property>
  <property name="kdenlive:file_hash">b6533960dc310cff1bb3563189aa436e</property>
  <property name="global_feed">1</property>
 </producer>
 <producer in="0" title="Anonymous Submission" id="19" out="5317">
  <property name="mlt_type">mlt_producer</property>
  <property name="length">00:02:57:08</property>
  <property name="eof">pause</property>
  <property name="resource">/opt/vlog/musica/bensound-dance.mp3</property>
  <property name="audio_index">0</property>
  <property name="video_index">-1</property>
  <property name="mute_on_pause">1</property>
  <property name="mlt_service">avformat-novalidate</property>
  <property name="meta.media.nb_streams">1</property>
  <property name="meta.media.0.stream.type">audio</property>
  <property name="meta.media.0.codec.sample_fmt">s16p</property>
  <property name="meta.media.0.codec.sample_rate">44100</property>
  <property name="meta.media.0.codec.channels">2</property>
  <property name="meta.media.0.codec.name">mp3</property>
  <property name="meta.media.0.codec.long_name">MP3 (MPEG audio layer 3)</property>
  <property name="meta.media.0.codec.bit_rate">112000</property>
  <property name="seekable">1</property>
  <property name="kdenlive:folderid">3</property>
  <property name="kdenlive:file_size">2481738</property>
  <property name="kdenlive:file_hash">f1314f4013248a26e1067d2aa7ff9840</property>
  <property name="global_feed">1</property>
 </producer>
 <producer in="0" title="Anonymous Submission" id="2" out="3683">
  <property name="mlt_type">mlt_producer</property>
  <property name="length">00:02:02:24</property>
  <property name="eof">pause</property>
  <property name="resource">/opt/vlog/musica/bensound-actionable.mp3</property>
  <property name="audio_index">0</property>
  <property name="video_index">-1</property>
  <property name="mute_on_pause">1</property>
  <property name="mlt_service">avformat-novalidate</property>
  <property name="meta.media.nb_streams">1</property>
  <property name="meta.media.0.stream.type">audio</property>
  <property name="meta.media.0.codec.sample_fmt">s16p</property>
  <property name="meta.media.0.codec.sample_rate">44100</property>
  <property name="meta.media.0.codec.channels">2</property>
  <property name="meta.media.0.codec.name">mp3</property>
  <property name="meta.media.0.codec.long_name">MP3 (MPEG audio layer 3)</property>
  <property name="meta.media.0.codec.bit_rate">112000</property>
  <property name="meta.attr.title.markup">Actionable</property>
  <property name="meta.attr.artist.markup">Bensound</property>
  <property name="meta.attr.comment.markup">www.bensound.com</property>
  <property name="seekable">1</property>
  <property name="kdenlive:folderid">3</property>
  <property name="kdenlive:file_size">1719476</property>
  <property name="kdenlive:file_hash">0c242a8925b43f930a61fbfa02bee956</property>
  <property name="global_feed">1</property>
 </producer>
 <producer in="0" title="Anonymous Submission" id="20" out="8641">
  <property name="mlt_type">mlt_producer</property>
  <property name="length">00:04:48:02</property>
  <property name="eof">pause</property>
  <property name="resource">/opt/vlog/musica/bensound-deepblue.mp3</property>
  <property name="audio_index">0</property>
  <property name="video_index">-1</property>
  <property name="mute_on_pause">1</property>
  <property name="mlt_service">avformat-novalidate</property>
  <property name="meta.media.nb_streams">1</property>
  <property name="meta.media.0.stream.type">audio</property>
  <property name="meta.media.0.codec.sample_fmt">s16p</property>
  <property name="meta.media.0.codec.sample_rate">44100</property>
  <property name="meta.media.0.codec.channels">2</property>
  <property name="meta.media.0.codec.name">mp3</property>
  <property name="meta.media.0.codec.long_name">MP3 (MPEG audio layer 3)</property>
  <property name="meta.media.0.codec.bit_rate">112000</property>
  <property name="seekable">1</property>
  <property name="kdenlive:folderid">3</property>
  <property name="kdenlive:file_size">4032733</property>
  <property name="kdenlive:file_hash">3f5e95a8149c07e36bd312f958209092</property>
  <property name="global_feed">1</property>
 </producer>
 <producer in="0" title="Anonymous Submission" id="21" out="5471">
  <property name="mlt_type">mlt_producer</property>
  <property name="length">00:03:02:12</property>
  <property name="eof">pause</property>
  <property name="resource">/opt/vlog/musica/bensound-downtown.mp3</property>
  <property name="audio_index">0</property>
  <property name="video_index">-1</property>
  <property name="mute_on_pause">1</property>
  <property name="mlt_service">avformat-novalidate</property>
  <property name="meta.media.nb_streams">1</property>
  <property name="meta.media.0.stream.type">audio</property>
  <property name="meta.media.0.codec.sample_fmt">s16p</property>
  <property name="meta.media.0.codec.sample_rate">44100</property>
  <property name="meta.media.0.codec.channels">2</property>
  <property name="meta.media.0.codec.name">mp3</property>
  <property name="meta.media.0.codec.long_name">MP3 (MPEG audio layer 3)</property>
  <property name="meta.media.0.codec.bit_rate">112000</property>
  <property name="seekable">1</property>
  <property name="kdenlive:folderid">3</property>
  <property name="kdenlive:file_size">2553417</property>
  <property name="kdenlive:file_hash">553a8ead9f23fb7f1448dec56678a6fb</property>
  <property name="global_feed">1</property>
 </producer>
 <producer in="0" title="Anonymous Submission" id="22" out="6312">
  <property name="mlt_type">mlt_producer</property>
  <property name="length">00:03:30:13</property>
  <property name="eof">pause</property>
  <property name="resource">/opt/vlog/musica/bensound-dreams.mp3</property>
  <property name="audio_index">0</property>
  <property name="video_index">-1</property>
  <property name="mute_on_pause">1</property>
  <property name="mlt_service">avformat-novalidate</property>
  <property name="meta.media.nb_streams">1</property>
  <property name="meta.media.0.stream.type">audio</property>
  <property name="meta.media.0.codec.sample_fmt">s16p</property>
  <property name="meta.media.0.codec.sample_rate">44100</property>
  <property name="meta.media.0.codec.channels">2</property>
  <property name="meta.media.0.codec.name">mp3</property>
  <property name="meta.media.0.codec.long_name">MP3 (MPEG audio layer 3)</property>
  <property name="meta.media.0.codec.bit_rate">192000</property>
  <property name="seekable">1</property>
  <property name="kdenlive:folderid">3</property>
  <property name="kdenlive:file_size">5050618</property>
  <property name="kdenlive:file_hash">6c1356ee812ce3a9bd389bb251cb1442</property>
  <property name="global_feed">1</property>
 </producer>
 <producer in="0" title="Anonymous Submission" id="23" out="5423">
  <property name="mlt_type">mlt_producer</property>
  <property name="length">00:03:00:24</property>
  <property name="eof">pause</property>
  <property name="resource">/opt/vlog/musica/bensound-endlessmotion.mp3</property>
  <property name="audio_index">0</property>
  <property name="video_index">-1</property>
  <property name="mute_on_pause">1</property>
  <property name="mlt_service">avformat-novalidate</property>
  <property name="meta.media.nb_streams">1</property>
  <property name="meta.media.0.stream.type">audio</property>
  <property name="meta.media.0.codec.sample_fmt">s16p</property>
  <property name="meta.media.0.codec.sample_rate">44100</property>
  <property name="meta.media.0.codec.channels">2</property>
  <property name="meta.media.0.codec.name">mp3</property>
  <property name="meta.media.0.codec.long_name">MP3 (MPEG audio layer 3)</property>
  <property name="meta.media.0.codec.bit_rate">160000</property>
  <property name="seekable">1</property>
  <property name="kdenlive:folderid">3</property>
  <property name="kdenlive:file_size">3615870</property>
  <property name="kdenlive:file_hash">0172073b7f5fd433030344abd1ff0da1</property>
  <property name="global_feed">1</property>
 </producer>
 <producer in="0" title="Anonymous Submission" id="24" out="5386">
  <property name="mlt_type">mlt_producer</property>
  <property name="length">00:02:59:17</property>
  <property name="eof">pause</property>
  <property name="resource">/opt/vlog/musica/bensound-energy.mp3</property>
  <property name="audio_index">0</property>
  <property name="video_index">-1</property>
  <property name="mute_on_pause">1</property>
  <property name="mlt_service">avformat-novalidate</property>
  <property name="meta.media.nb_streams">1</property>
  <property name="meta.media.0.stream.type">audio</property>
  <property name="meta.media.0.codec.sample_fmt">s16p</property>
  <property name="meta.media.0.codec.sample_rate">44100</property>
  <property name="meta.media.0.codec.channels">2</property>
  <property name="meta.media.0.codec.name">mp3</property>
  <property name="meta.media.0.codec.long_name">MP3 (MPEG audio layer 3)</property>
  <property name="meta.media.0.codec.bit_rate">192000</property>
  <property name="seekable">1</property>
  <property name="kdenlive:folderid">3</property>
  <property name="kdenlive:file_size">4309577</property>
  <property name="kdenlive:file_hash">f1d02aeaee793caa79fc04f15d1285dd</property>
  <property name="global_feed">1</property>
 </producer>
 <producer in="0" title="Anonymous Submission" id="25" out="4416">
  <property name="mlt_type">mlt_producer</property>
  <property name="length">00:02:27:07</property>
  <property name="eof">pause</property>
  <property name="resource">/opt/vlog/musica/bensound-enigmatic.mp3</property>
  <property name="audio_index">0</property>
  <property name="video_index">-1</property>
  <property name="mute_on_pause">1</property>
  <property name="mlt_service">avformat-novalidate</property>
  <property name="meta.media.nb_streams">1</property>
  <property name="meta.media.0.stream.type">audio</property>
  <property name="meta.media.0.codec.sample_fmt">s16p</property>
  <property name="meta.media.0.codec.sample_rate">44100</property>
  <property name="meta.media.0.codec.channels">2</property>
  <property name="meta.media.0.codec.name">mp3</property>
  <property name="meta.media.0.codec.long_name">MP3 (MPEG audio layer 3)</property>
  <property name="meta.media.0.codec.bit_rate">112000</property>
  <property name="seekable">1</property>
  <property name="kdenlive:folderid">3</property>
  <property name="kdenlive:file_size">2061167</property>
  <property name="kdenlive:file_hash">24e62a5f6b9b801500adbf28c9d449f3</property>
  <property name="global_feed">1</property>
 </producer>
 <producer in="0" title="Anonymous Submission" id="26" out="5356">
  <property name="mlt_type">mlt_producer</property>
  <property name="length">00:02:58:17</property>
  <property name="eof">pause</property>
  <property name="resource">/opt/vlog/musica/bensound-epic.mp3</property>
  <property name="audio_index">0</property>
  <property name="video_index">-1</property>
  <property name="mute_on_pause">1</property>
  <property name="mlt_service">avformat-novalidate</property>
  <property name="meta.media.nb_streams">1</property>
  <property name="meta.media.0.stream.type">audio</property>
  <property name="meta.media.0.codec.sample_fmt">s16p</property>
  <property name="meta.media.0.codec.sample_rate">44100</property>
  <property name="meta.media.0.codec.channels">2</property>
  <property name="meta.media.0.codec.name">mp3</property>
  <property name="meta.media.0.codec.long_name">MP3 (MPEG audio layer 3)</property>
  <property name="meta.media.0.codec.bit_rate">112000</property>
  <property name="seekable">1</property>
  <property name="kdenlive:folderid">3</property>
  <property name="kdenlive:file_size">2500023</property>
  <property name="kdenlive:file_hash">d162f7dec87ba7e9851fdd163b836c3e</property>
  <property name="global_feed">1</property>
 </producer>
 <producer in="0" title="Anonymous Submission" id="27" out="8420">
  <property name="mlt_type">mlt_producer</property>
  <property name="length">00:04:40:21</property>
  <property name="eof">pause</property>
  <property name="resource">/opt/vlog/musica/bensound-erf.mp3</property>
  <property name="audio_index">0</property>
  <property name="video_index">-1</property>
  <property name="mute_on_pause">1</property>
  <property name="mlt_service">avformat-novalidate</property>
  <property name="meta.media.nb_streams">1</property>
  <property name="meta.media.0.stream.type">audio</property>
  <property name="meta.media.0.codec.sample_fmt">s16p</property>
  <property name="meta.media.0.codec.sample_rate">44100</property>
  <property name="meta.media.0.codec.channels">2</property>
  <property name="meta.media.0.codec.name">mp3</property>
  <property name="meta.media.0.codec.long_name">MP3 (MPEG audio layer 3)</property>
  <property name="meta.media.0.codec.bit_rate">192000</property>
  <property name="seekable">1</property>
  <property name="kdenlive:folderid">3</property>
  <property name="kdenlive:file_size">6736457</property>
  <property name="kdenlive:file_hash">acf6771dae882ce478526d2597c0ecce</property>
  <property name="global_feed">1</property>
 </producer>
 <producer in="0" title="Anonymous Submission" id="28" out="14501">
  <property name="mlt_type">mlt_producer</property>
  <property name="length">00:08:03:12</property>
  <property name="eof">pause</property>
  <property name="resource">/opt/vlog/musica/bensound-extremeaction.mp3</property>
  <property name="audio_index">0</property>
  <property name="video_index">-1</property>
  <property name="mute_on_pause">1</property>
  <property name="mlt_service">avformat-novalidate</property>
  <property name="meta.media.nb_streams">1</property>
  <property name="meta.media.0.stream.type">audio</property>
  <property name="meta.media.0.codec.sample_fmt">s16p</property>
  <property name="meta.media.0.codec.sample_rate">44100</property>
  <property name="meta.media.0.codec.channels">2</property>
  <property name="meta.media.0.codec.name">mp3</property>
  <property name="meta.media.0.codec.long_name">MP3 (MPEG audio layer 3)</property>
  <property name="meta.media.0.codec.bit_rate">112000</property>
  <property name="meta.attr.title.markup">Extreme Action Sport</property>
  <property name="meta.attr.artist.markup">Bensound</property>
  <property name="meta.attr.comment.markup">www.bensound.com</property>
  <property name="seekable">1</property>
  <property name="kdenlive:folderid">3</property>
  <property name="kdenlive:file_size">6767816</property>
  <property name="kdenlive:file_hash">21cef6a38eb145fb5862ce77b34c877b</property>
  <property name="global_feed">1</property>
 </producer>
 <producer in="0" title="Anonymous Submission" id="29" out="5800">
  <property name="mlt_type">mlt_producer</property>
  <property name="length">00:03:13:11</property>
  <property name="eof">pause</property>
  <property name="resource">/opt/vlog/musica/bensound-funday.mp3</property>
  <property name="audio_index">0</property>
  <property name="video_index">-1</property>
  <property name="mute_on_pause">1</property>
  <property name="mlt_service">avformat-novalidate</property>
  <property name="meta.media.nb_streams">1</property>
  <property name="meta.media.0.stream.type">audio</property>
  <property name="meta.media.0.codec.sample_fmt">s16p</property>
  <property name="meta.media.0.codec.sample_rate">44100</property>
  <property name="meta.media.0.codec.channels">2</property>
  <property name="meta.media.0.codec.name">mp3</property>
  <property name="meta.media.0.codec.long_name">MP3 (MPEG audio layer 3)</property>
  <property name="meta.media.0.codec.bit_rate">192000</property>
  <property name="seekable">1</property>
  <property name="kdenlive:folderid">3</property>
  <property name="kdenlive:file_size">4640600</property>
  <property name="kdenlive:file_hash">289b788badb90c4c8f24b10b54605220</property>
  <property name="global_feed">1</property>
 </producer>
 <producer in="0" title="Anonymous Submission" id="3" out="5859">
  <property name="mlt_type">mlt_producer</property>
  <property name="length">00:03:15:10</property>
  <property name="eof">pause</property>
  <property name="resource">/opt/vlog/musica/bensound-adaytoremember.mp3</property>
  <property name="audio_index">0</property>
  <property name="video_index">-1</property>
  <property name="mute_on_pause">1</property>
  <property name="mlt_service">avformat-novalidate</property>
  <property name="meta.media.nb_streams">1</property>
  <property name="meta.media.0.stream.type">audio</property>
  <property name="meta.media.0.codec.sample_fmt">s16p</property>
  <property name="meta.media.0.codec.sample_rate">44100</property>
  <property name="meta.media.0.codec.channels">2</property>
  <property name="meta.media.0.codec.name">mp3</property>
  <property name="meta.media.0.codec.long_name">MP3 (MPEG audio layer 3)</property>
  <property name="meta.media.0.codec.bit_rate">160000</property>
  <property name="seekable">1</property>
  <property name="kdenlive:folderid">3</property>
  <property name="kdenlive:file_size">3906352</property>
  <property name="kdenlive:file_hash">2f39ef71881b7037fc8ac8b6bbe6e0ac</property>
  <property name="global_feed">1</property>
 </producer>
 <producer in="0" title="Anonymous Submission" id="30" out="5670">
  <property name="mlt_type">mlt_producer</property>
  <property name="length">00:03:09:01</property>
  <property name="eof">pause</property>
  <property name="resource">/opt/vlog/musica/bensound-funkyelement.mp3</property>
  <property name="audio_index">0</property>
  <property name="video_index">-1</property>
  <property name="mute_on_pause">1</property>
  <property name="mlt_service">avformat-novalidate</property>
  <property name="meta.media.nb_streams">1</property>
  <property name="meta.media.0.stream.type">audio</property>
  <property name="meta.media.0.codec.sample_fmt">s16p</property>
  <property name="meta.media.0.codec.sample_rate">44100</property>
  <property name="meta.media.0.codec.channels">2</property>
  <property name="meta.media.0.codec.name">mp3</property>
  <property name="meta.media.0.codec.long_name">MP3 (MPEG audio layer 3)</property>
  <property name="meta.media.0.codec.bit_rate">112000</property>
  <property name="seekable">1</property>
  <property name="kdenlive:folderid">3</property>
  <property name="kdenlive:file_size">2646309</property>
  <property name="kdenlive:file_hash">e2d2713ceecead95de599c4b10e8759b</property>
  <property name="global_feed">1</property>
 </producer>
 <producer in="0" title="Anonymous Submission" id="31" out="8024">
  <property name="mlt_type">mlt_producer</property>
  <property name="length">00:04:27:15</property>
  <property name="eof">pause</property>
  <property name="resource">/opt/vlog/musica/bensound-funkysuspense.mp3</property>
  <property name="audio_index">0</property>
  <property name="video_index">-1</property>
  <property name="mute_on_pause">1</property>
  <property name="mlt_service">avformat-novalidate</property>
  <property name="meta.media.nb_streams">1</property>
  <property name="meta.media.0.stream.type">audio</property>
  <property name="meta.media.0.codec.sample_fmt">s16p</property>
  <property name="meta.media.0.codec.sample_rate">44100</property>
  <property name="meta.media.0.codec.channels">2</property>
  <property name="meta.media.0.codec.name">mp3</property>
  <property name="meta.media.0.codec.long_name">MP3 (MPEG audio layer 3)</property>
  <property name="meta.media.0.codec.bit_rate">112000</property>
  <property name="meta.attr.comment.markup">Made with Sony ACID Pro 6.0</property>
  <property name="seekable">1</property>
  <property name="kdenlive:folderid">3</property>
  <property name="kdenlive:file_size">3745128</property>
  <property name="kdenlive:file_hash">f600ed933dd94458e6cf2886b2278bd1</property>
  <property name="global_feed">1</property>
 </producer>
 <producer in="0" title="Anonymous Submission" id="32" out="5613">
  <property name="mlt_type">mlt_producer</property>
  <property name="length">00:03:07:04</property>
  <property name="eof">pause</property>
  <property name="resource">/opt/vlog/musica/bensound-funnysong.mp3</property>
  <property name="audio_index">0</property>
  <property name="video_index">-1</property>
  <property name="mute_on_pause">1</property>
  <property name="mlt_service">avformat-novalidate</property>
  <property name="meta.media.nb_streams">1</property>
  <property name="meta.media.0.stream.type">audio</property>
  <property name="meta.media.0.codec.sample_fmt">s16p</property>
  <property name="meta.media.0.codec.sample_rate">44100</property>
  <property name="meta.media.0.codec.channels">2</property>
  <property name="meta.media.0.codec.name">mp3</property>
  <property name="meta.media.0.codec.long_name">MP3 (MPEG audio layer 3)</property>
  <property name="meta.media.0.codec.bit_rate">112000</property>
  <property name="seekable">1</property>
  <property name="kdenlive:folderid">3</property>
  <property name="kdenlive:file_size">2619977</property>
  <property name="kdenlive:file_hash">8f73a76062bae05de585cf33c993510c</property>
  <property name="global_feed">1</property>
 </producer>
 <producer in="0" title="Anonymous Submission" id="33" out="7335">
  <property name="mlt_type">mlt_producer</property>
  <property name="length">00:04:04:16</property>
  <property name="eof">pause</property>
  <property name="resource">/opt/vlog/musica/bensound-goinghigher.mp3</property>
  <property name="audio_index">0</property>
  <property name="video_index">-1</property>
  <property name="mute_on_pause">1</property>
  <property name="mlt_service">avformat-novalidate</property>
  <property name="meta.media.nb_streams">1</property>
  <property name="meta.media.0.stream.type">audio</property>
  <property name="meta.media.0.codec.sample_fmt">s16p</property>
  <property name="meta.media.0.codec.sample_rate">44100</property>
  <property name="meta.media.0.codec.channels">2</property>
  <property name="meta.media.0.codec.name">mp3</property>
  <property name="meta.media.0.codec.long_name">MP3 (MPEG audio layer 3)</property>
  <property name="meta.media.0.codec.bit_rate">112000</property>
  <property name="seekable">1</property>
  <property name="kdenlive:folderid">3</property>
  <property name="kdenlive:file_size">3423451</property>
  <property name="kdenlive:file_hash">0607d6fe23345268ae0e18611d215564</property>
  <property name="global_feed">1</property>
 </producer>
 <producer in="0" title="Anonymous Submission" id="34" out="7216">
  <property name="mlt_type">mlt_producer</property>
  <property name="length">00:04:00:17</property>
  <property name="eof">pause</property>
  <property name="resource">/opt/vlog/musica/bensound-groovyhiphop.mp3</property>
  <property name="audio_index">0</property>
  <property name="video_index">-1</property>
  <property name="mute_on_pause">1</property>
  <property name="mlt_service">avformat-novalidate</property>
  <property name="meta.media.nb_streams">1</property>
  <property name="meta.media.0.stream.type">audio</property>
  <property name="meta.media.0.codec.sample_fmt">s16p</property>
  <property name="meta.media.0.codec.sample_rate">44100</property>
  <property name="meta.media.0.codec.channels">2</property>
  <property name="meta.media.0.codec.name">mp3</property>
  <property name="meta.media.0.codec.long_name">MP3 (MPEG audio layer 3)</property>
  <property name="meta.media.0.codec.bit_rate">112000</property>
  <property name="meta.attr.title.markup">Groovy Hip Hop</property>
  <property name="meta.attr.artist.markup">Bensound</property>
  <property name="meta.attr.comment.markup">www.bensound.com</property>
  <property name="seekable">1</property>
  <property name="kdenlive:folderid">3</property>
  <property name="kdenlive:file_size">3368124</property>
  <property name="kdenlive:file_hash">8e5b79d7132f6e958227f5666b0cf4c0</property>
  <property name="global_feed">1</property>
 </producer>
 <producer in="0" title="Anonymous Submission" id="35" out="7847">
  <property name="mlt_type">mlt_producer</property>
  <property name="length">00:04:21:18</property>
  <property name="eof">pause</property>
  <property name="resource">/opt/vlog/musica/bensound-happiness.mp3</property>
  <property name="audio_index">0</property>
  <property name="video_index">-1</property>
  <property name="mute_on_pause">1</property>
  <property name="mlt_service">avformat-novalidate</property>
  <property name="meta.media.nb_streams">1</property>
  <property name="meta.media.0.stream.type">audio</property>
  <property name="meta.media.0.codec.sample_fmt">s16p</property>
  <property name="meta.media.0.codec.sample_rate">44100</property>
  <property name="meta.media.0.codec.channels">2</property>
  <property name="meta.media.0.codec.name">mp3</property>
  <property name="meta.media.0.codec.long_name">MP3 (MPEG audio layer 3)</property>
  <property name="meta.media.0.codec.bit_rate">112000</property>
  <property name="seekable">1</property>
  <property name="kdenlive:folderid">3</property>
  <property name="kdenlive:file_size">3663373</property>
  <property name="kdenlive:file_hash">10124b7e9d7378d174dafd24fdb3b97e</property>
  <property name="global_feed">1</property>
 </producer>
 <producer in="0" title="Anonymous Submission" id="36" out="3174">
  <property name="mlt_type">mlt_producer</property>
  <property name="length">00:01:45:25</property>
  <property name="eof">pause</property>
  <property name="resource">/opt/vlog/musica/bensound-happyrock.mp3</property>
  <property name="audio_index">0</property>
  <property name="video_index">-1</property>
  <property name="mute_on_pause">1</property>
  <property name="mlt_service">avformat-novalidate</property>
  <property name="meta.media.nb_streams">1</property>
  <property name="meta.media.0.stream.type">audio</property>
  <property name="meta.media.0.codec.sample_fmt">s16p</property>
  <property name="meta.media.0.codec.sample_rate">44100</property>
  <property name="meta.media.0.codec.channels">2</property>
  <property name="meta.media.0.codec.name">mp3</property>
  <property name="meta.media.0.codec.long_name">MP3 (MPEG audio layer 3)</property>
  <property name="meta.media.0.codec.bit_rate">112000</property>
  <property name="seekable">1</property>
  <property name="kdenlive:folderid">3</property>
  <property name="kdenlive:file_size">1481874</property>
  <property name="kdenlive:file_hash">86cea71fc112a44cd58919a996a71e66</property>
  <property name="global_feed">1</property>
 </producer>
 <producer in="0" title="Anonymous Submission" id="37" out="5148">
  <property name="mlt_type">mlt_producer</property>
  <property name="length">00:02:51:19</property>
  <property name="eof">pause</property>
  <property name="resource">/opt/vlog/musica/bensound-hey.mp3</property>
  <property name="audio_index">0</property>
  <property name="video_index">-1</property>
  <property name="mute_on_pause">1</property>
  <property name="mlt_service">avformat-novalidate</property>
  <property name="meta.media.nb_streams">1</property>
  <property name="meta.media.0.stream.type">audio</property>
  <property name="meta.media.0.codec.sample_fmt">s16p</property>
  <property name="meta.media.0.codec.sample_rate">44100</property>
  <property name="meta.media.0.codec.channels">2</property>
  <property name="meta.media.0.codec.name">mp3</property>
  <property name="meta.media.0.codec.long_name">MP3 (MPEG audio layer 3)</property>
  <property name="meta.media.0.codec.bit_rate">160000</property>
  <property name="seekable">1</property>
  <property name="kdenlive:folderid">3</property>
  <property name="kdenlive:file_size">3432490</property>
  <property name="kdenlive:file_hash">fb2354b78c4c0592fe202801d5a2cc62</property>
  <property name="global_feed">1</property>
 </producer>
 <producer in="0" title="Anonymous Submission" id="38" out="4651">
  <property name="mlt_type">mlt_producer</property>
  <property name="length">00:02:35:02</property>
  <property name="eof">pause</property>
  <property name="resource">/opt/vlog/musica/bensound-highoctane.mp3</property>
  <property name="audio_index">0</property>
  <property name="video_index">-1</property>
  <property name="mute_on_pause">1</property>
  <property name="mlt_service">avformat-novalidate</property>
  <property name="meta.media.nb_streams">1</property>
  <property name="meta.media.0.stream.type">audio</property>
  <property name="meta.media.0.codec.sample_fmt">s16p</property>
  <property name="meta.media.0.codec.sample_rate">44100</property>
  <property name="meta.media.0.codec.channels">2</property>
  <property name="meta.media.0.codec.name">mp3</property>
  <property name="meta.media.0.codec.long_name">MP3 (MPEG audio layer 3)</property>
  <property name="meta.media.0.codec.bit_rate">160000</property>
  <property name="seekable">1</property>
  <property name="kdenlive:folderid">3</property>
  <property name="kdenlive:file_size">3101258</property>
  <property name="kdenlive:file_hash">cc84dad81f550ce2b375d22cfcfba653</property>
  <property name="global_feed">1</property>
 </producer>
 <producer in="0" title="Anonymous Submission" id="39" out="4917">
  <property name="mlt_type">mlt_producer</property>
  <property name="length">00:02:43:28</property>
  <property name="eof">pause</property>
  <property name="resource">/opt/vlog/musica/bensound-hipjazz.mp3</property>
  <property name="audio_index">0</property>
  <property name="video_index">-1</property>
  <property name="mute_on_pause">1</property>
  <property name="mlt_service">avformat-novalidate</property>
  <property name="meta.media.nb_streams">1</property>
  <property name="meta.media.0.stream.type">audio</property>
  <property name="meta.media.0.codec.sample_fmt">s16p</property>
  <property name="meta.media.0.codec.sample_rate">44100</property>
  <property name="meta.media.0.codec.channels">2</property>
  <property name="meta.media.0.codec.name">mp3</property>
  <property name="meta.media.0.codec.long_name">MP3 (MPEG audio layer 3)</property>
  <property name="meta.media.0.codec.bit_rate">192000</property>
  <property name="seekable">1</property>
  <property name="kdenlive:folderid">3</property>
  <property name="kdenlive:file_size">3934667</property>
  <property name="kdenlive:file_hash">7f3fad3389ccd0d86f6ae878dd26f23c</property>
  <property name="global_feed">1</property>
 </producer>
 <producer in="0" title="Anonymous Submission" id="4" out="5612">
  <property name="mlt_type">mlt_producer</property>
  <property name="length">00:03:07:03</property>
  <property name="eof">pause</property>
  <property name="resource">/opt/vlog/musica/bensound-adventure.mp3</property>
  <property name="audio_index">0</property>
  <property name="video_index">-1</property>
  <property name="mute_on_pause">1</property>
  <property name="mlt_service">avformat-novalidate</property>
  <property name="meta.media.nb_streams">1</property>
  <property name="meta.media.0.stream.type">audio</property>
  <property name="meta.media.0.codec.sample_fmt">s16p</property>
  <property name="meta.media.0.codec.sample_rate">44100</property>
  <property name="meta.media.0.codec.channels">2</property>
  <property name="meta.media.0.codec.name">mp3</property>
  <property name="meta.media.0.codec.long_name">MP3 (MPEG audio layer 3)</property>
  <property name="meta.media.0.codec.bit_rate">192000</property>
  <property name="seekable">1</property>
  <property name="kdenlive:folderid">3</property>
  <property name="kdenlive:file_size">4490762</property>
  <property name="kdenlive:file_hash">3aba89cb28f701439e311c17d2f4dc87</property>
  <property name="global_feed">1</property>
 </producer>
 <producer in="0" title="Anonymous Submission" id="40" out="7786">
  <property name="mlt_type">mlt_producer</property>
  <property name="length">00:04:19:17</property>
  <property name="eof">pause</property>
  <property name="resource">/opt/vlog/musica/bensound-house.mp3</property>
  <property name="audio_index">0</property>
  <property name="video_index">-1</property>
  <property name="mute_on_pause">1</property>
  <property name="mlt_service">avformat-novalidate</property>
  <property name="meta.media.nb_streams">1</property>
  <property name="meta.media.0.stream.type">audio</property>
  <property name="meta.media.0.codec.sample_fmt">s16p</property>
  <property name="meta.media.0.codec.sample_rate">44100</property>
  <property name="meta.media.0.codec.channels">2</property>
  <property name="meta.media.0.codec.name">mp3</property>
  <property name="meta.media.0.codec.long_name">MP3 (MPEG audio layer 3)</property>
  <property name="meta.media.0.codec.bit_rate">112000</property>
  <property name="seekable">1</property>
  <property name="kdenlive:folderid">3</property>
  <property name="kdenlive:file_size">3633738</property>
  <property name="kdenlive:file_hash">b947c3699395342c75aa829b58fd6119</property>
  <property name="global_feed">1</property>
 </producer>
 <producer in="0" title="Anonymous Submission" id="41" out="7615">
  <property name="mlt_type">mlt_producer</property>
  <property name="length">00:04:13:26</property>
  <property name="eof">pause</property>
  <property name="resource">/opt/vlog/musica/bensound-india.mp3</property>
  <property name="audio_index">0</property>
  <property name="video_index">-1</property>
  <property name="mute_on_pause">1</property>
  <property name="mlt_service">avformat-novalidate</property>
  <property name="meta.media.nb_streams">1</property>
  <property name="meta.media.0.stream.type">audio</property>
  <property name="meta.media.0.codec.sample_fmt">s16p</property>
  <property name="meta.media.0.codec.sample_rate">44100</property>
  <property name="meta.media.0.codec.channels">2</property>
  <property name="meta.media.0.codec.name">mp3</property>
  <property name="meta.media.0.codec.long_name">MP3 (MPEG audio layer 3)</property>
  <property name="meta.media.0.codec.bit_rate">112000</property>
  <property name="seekable">1</property>
  <property name="kdenlive:folderid">3</property>
  <property name="kdenlive:file_size">3554013</property>
  <property name="kdenlive:file_hash">01b6b7bc88d27c67fee5e645bf9093de</property>
  <property name="global_feed">1</property>
 </producer>
 <producer in="0" title="Anonymous Submission" id="42" out="6122">
  <property name="mlt_type">mlt_producer</property>
  <property name="length">00:03:24:03</property>
  <property name="eof">pause</property>
  <property name="resource">/opt/vlog/musica/bensound-instinct.mp3</property>
  <property name="audio_index">0</property>
  <property name="video_index">-1</property>
  <property name="mute_on_pause">1</property>
  <property name="mlt_service">avformat-novalidate</property>
  <property name="meta.media.nb_streams">1</property>
  <property name="meta.media.0.stream.type">audio</property>
  <property name="meta.media.0.codec.sample_fmt">s16p</property>
  <property name="meta.media.0.codec.sample_rate">44100</property>
  <property name="meta.media.0.codec.channels">2</property>
  <property name="meta.media.0.codec.name">mp3</property>
  <property name="meta.media.0.codec.long_name">MP3 (MPEG audio layer 3)</property>
  <property name="meta.media.0.codec.bit_rate">112000</property>
  <property name="seekable">1</property>
  <property name="kdenlive:folderid">3</property>
  <property name="kdenlive:file_size">2857326</property>
  <property name="kdenlive:file_hash">8021829295040b70aafa9228cd6ec43a</property>
  <property name="global_feed">1</property>
 </producer>
 <producer in="0" title="Anonymous Submission" id="43" out="5818">
  <property name="mlt_type">mlt_producer</property>
  <property name="length">00:03:13:29</property>
  <property name="eof">pause</property>
  <property name="resource">/opt/vlog/musica/bensound-jazzcomedy.mp3</property>
  <property name="audio_index">0</property>
  <property name="video_index">-1</property>
  <property name="mute_on_pause">1</property>
  <property name="mlt_service">avformat-novalidate</property>
  <property name="meta.media.nb_streams">1</property>
  <property name="meta.media.0.stream.type">audio</property>
  <property name="meta.media.0.codec.sample_fmt">s16p</property>
  <property name="meta.media.0.codec.sample_rate">44100</property>
  <property name="meta.media.0.codec.channels">2</property>
  <property name="meta.media.0.codec.name">mp3</property>
  <property name="meta.media.0.codec.long_name">MP3 (MPEG audio layer 3)</property>
  <property name="meta.media.0.codec.bit_rate">112000</property>
  <property name="seekable">1</property>
  <property name="kdenlive:folderid">3</property>
  <property name="kdenlive:file_size">2715430</property>
  <property name="kdenlive:file_hash">6c62af2fd5fb64ddb8cf829b6953ad15</property>
  <property name="global_feed">1</property>
 </producer>
 <producer in="0" title="Anonymous Submission" id="44" out="3143">
  <property name="mlt_type">mlt_producer</property>
  <property name="length">00:01:44:24</property>
  <property name="eof">pause</property>
  <property name="resource">/opt/vlog/musica/bensound-jazzyfrenchy.mp3</property>
  <property name="audio_index">0</property>
  <property name="video_index">-1</property>
  <property name="mute_on_pause">1</property>
  <property name="mlt_service">avformat-novalidate</property>
  <property name="meta.media.nb_streams">1</property>
  <property name="meta.media.0.stream.type">audio</property>
  <property name="meta.media.0.codec.sample_fmt">s16p</property>
  <property name="meta.media.0.codec.sample_rate">44100</property>
  <property name="meta.media.0.codec.channels">2</property>
  <property name="meta.media.0.codec.name">mp3</property>
  <property name="meta.media.0.codec.long_name">MP3 (MPEG audio layer 3)</property>
  <property name="meta.media.0.codec.bit_rate">112000</property>
  <property name="seekable">1</property>
  <property name="kdenlive:folderid">3</property>
  <property name="kdenlive:file_size">1467246</property>
  <property name="kdenlive:file_hash">c2e5fc2fc119231c8e8467632a3b9481</property>
  <property name="global_feed">1</property>
 </producer>
 <producer in="0" title="Anonymous Submission" id="45" out="5078">
  <property name="mlt_type">mlt_producer</property>
  <property name="length">00:02:49:09</property>
  <property name="eof">pause</property>
  <property name="resource">/opt/vlog/musica/bensound-littleidea.mp3</property>
  <property name="audio_index">0</property>
  <property name="video_index">-1</property>
  <property name="mute_on_pause">1</property>
  <property name="mlt_service">avformat-novalidate</property>
  <property name="meta.media.nb_streams">1</property>
  <property name="meta.media.0.stream.type">audio</property>
  <property name="meta.media.0.codec.sample_fmt">s16p</property>
  <property name="meta.media.0.codec.sample_rate">44100</property>
  <property name="meta.media.0.codec.channels">2</property>
  <property name="meta.media.0.codec.name">mp3</property>
  <property name="meta.media.0.codec.long_name">MP3 (MPEG audio layer 3)</property>
  <property name="meta.media.0.codec.bit_rate">112000</property>
  <property name="seekable">1</property>
  <property name="kdenlive:folderid">3</property>
  <property name="kdenlive:file_size">2370194</property>
  <property name="kdenlive:file_hash">76818ef174fdc05b5cc283eadb774254</property>
  <property name="global_feed">1</property>
 </producer>
 <producer in="0" title="Anonymous Submission" id="46" out="11903">
  <property name="mlt_type">mlt_producer</property>
  <property name="length">00:06:36:24</property>
  <property name="eof">pause</property>
  <property name="resource">/opt/vlog/musica/bensound-littleplanet.mp3</property>
  <property name="audio_index">0</property>
  <property name="video_index">-1</property>
  <property name="mute_on_pause">1</property>
  <property name="mlt_service">avformat-novalidate</property>
  <property name="meta.media.nb_streams">1</property>
  <property name="meta.media.0.stream.type">audio</property>
  <property name="meta.media.0.codec.sample_fmt">s16p</property>
  <property name="meta.media.0.codec.sample_rate">44100</property>
  <property name="meta.media.0.codec.channels">2</property>
  <property name="meta.media.0.codec.name">mp3</property>
  <property name="meta.media.0.codec.long_name">MP3 (MPEG audio layer 3)</property>
  <property name="meta.media.0.codec.bit_rate">112000</property>
  <property name="seekable">1</property>
  <property name="kdenlive:folderid">3</property>
  <property name="kdenlive:file_size">5555201</property>
  <property name="kdenlive:file_hash">bc2dabb9b399b8f18e8b31b0a821f8cb</property>
  <property name="global_feed">1</property>
 </producer>
 <producer in="0" title="Anonymous Submission" id="47" out="10080">
  <property name="mlt_type">mlt_producer</property>
  <property name="length">00:05:36:01</property>
  <property name="eof">pause</property>
  <property name="resource">/opt/vlog/musica/bensound-love.mp3</property>
  <property name="audio_index">0</property>
  <property name="video_index">-1</property>
  <property name="mute_on_pause">1</property>
  <property name="mlt_service">avformat-novalidate</property>
  <property name="meta.media.nb_streams">1</property>
  <property name="meta.media.0.stream.type">audio</property>
  <property name="meta.media.0.codec.sample_fmt">s16p</property>
  <property name="meta.media.0.codec.sample_rate">44100</property>
  <property name="meta.media.0.codec.channels">2</property>
  <property name="meta.media.0.codec.name">mp3</property>
  <property name="meta.media.0.codec.long_name">MP3 (MPEG audio layer 3)</property>
  <property name="meta.media.0.codec.bit_rate">112000</property>
  <property name="meta.attr.title.markup">Loveable</property>
  <property name="meta.attr.artist.markup">Bensound</property>
  <property name="meta.attr.comment.markup">www.bensound.com</property>
  <property name="seekable">1</property>
  <property name="kdenlive:folderid">3</property>
  <property name="kdenlive:file_size">4704432</property>
  <property name="kdenlive:file_hash">41ef561c7d9ba7de2a1c7b8ab7fd9a2a</property>
  <property name="global_feed">1</property>
 </producer>
 <producer in="0" title="Anonymous Submission" id="48" out="6908">
  <property name="mlt_type">mlt_producer</property>
  <property name="length">00:03:50:09</property>
  <property name="eof">pause</property>
  <property name="resource">/opt/vlog/musica/bensound-memories.mp3</property>
  <property name="audio_index">0</property>
  <property name="video_index">-1</property>
  <property name="mute_on_pause">1</property>
  <property name="mlt_service">avformat-novalidate</property>
  <property name="meta.media.nb_streams">1</property>
  <property name="meta.media.0.stream.type">audio</property>
  <property name="meta.media.0.codec.sample_fmt">s16p</property>
  <property name="meta.media.0.codec.sample_rate">44100</property>
  <property name="meta.media.0.codec.channels">2</property>
  <property name="meta.media.0.codec.name">mp3</property>
  <property name="meta.media.0.codec.long_name">MP3 (MPEG audio layer 3)</property>
  <property name="meta.media.0.codec.bit_rate">112000</property>
  <property name="seekable">1</property>
  <property name="kdenlive:folderid">3</property>
  <property name="kdenlive:file_size">3224137</property>
  <property name="kdenlive:file_hash">050f6c0265034dac236a20505418f99a</property>
  <property name="global_feed">1</property>
 </producer>
 <producer in="0" title="Anonymous Submission" id="49" out="4821">
  <property name="mlt_type">mlt_producer</property>
  <property name="length">00:02:40:22</property>
  <property name="eof">pause</property>
  <property name="resource">/opt/vlog/musica/bensound-moose.mp3</property>
  <property name="audio_index">0</property>
  <property name="video_index">-1</property>
  <property name="mute_on_pause">1</property>
  <property name="mlt_service">avformat-novalidate</property>
  <property name="meta.media.nb_streams">1</property>
  <property name="meta.media.0.stream.type">audio</property>
  <property name="meta.media.0.codec.sample_fmt">s16p</property>
  <property name="meta.media.0.codec.sample_rate">44100</property>
  <property name="meta.media.0.codec.channels">2</property>
  <property name="meta.media.0.codec.name">mp3</property>
  <property name="meta.media.0.codec.long_name">MP3 (MPEG audio layer 3)</property>
  <property name="meta.media.0.codec.bit_rate">112000</property>
  <property name="seekable">1</property>
  <property name="kdenlive:folderid">3</property>
  <property name="kdenlive:file_size">2250240</property>
  <property name="kdenlive:file_hash">1859766a9ec64e14ddfe5d42a769e97a</property>
  <property name="global_feed">1</property>
 </producer>
 <producer in="0" title="Anonymous Submission" id="5" out="4365">
  <property name="mlt_type">mlt_producer</property>
  <property name="length">00:02:25:16</property>
  <property name="eof">pause</property>
  <property name="resource">/opt/vlog/musica/bensound-allthat.mp3</property>
  <property name="audio_index">0</property>
  <property name="video_index">-1</property>
  <property name="mute_on_pause">1</property>
  <property name="mlt_service">avformat-novalidate</property>
  <property name="meta.media.nb_streams">1</property>
  <property name="meta.media.0.stream.type">audio</property>
  <property name="meta.media.0.codec.sample_fmt">s16p</property>
  <property name="meta.media.0.codec.sample_rate">44100</property>
  <property name="meta.media.0.codec.channels">2</property>
  <property name="meta.media.0.codec.name">mp3</property>
  <property name="meta.media.0.codec.long_name">MP3 (MPEG audio layer 3)</property>
  <property name="meta.media.0.codec.bit_rate">160000</property>
  <property name="seekable">1</property>
  <property name="kdenlive:folderid">3</property>
  <property name="kdenlive:file_size">2910564</property>
  <property name="kdenlive:file_hash">86d70d828c0bce8b9c22d2a0badc2496</property>
  <property name="global_feed">1</property>
 </producer>
 <producer in="0" title="Anonymous Submission" id="50" out="9403">
  <property name="mlt_type">mlt_producer</property>
  <property name="length">00:05:13:14</property>
  <property name="eof">pause</property>
  <property name="resource">/opt/vlog/musica/bensound-newdawn.mp3</property>
  <property name="audio_index">0</property>
  <property name="video_index">-1</property>
  <property name="mute_on_pause">1</property>
  <property name="mlt_service">avformat-novalidate</property>
  <property name="meta.media.nb_streams">1</property>
  <property name="meta.media.0.stream.type">audio</property>
  <property name="meta.media.0.codec.sample_fmt">s16p</property>
  <property name="meta.media.0.codec.sample_rate">44100</property>
  <property name="meta.media.0.codec.channels">2</property>
  <property name="meta.media.0.codec.name">mp3</property>
  <property name="meta.media.0.codec.long_name">MP3 (MPEG audio layer 3)</property>
  <property name="meta.media.0.codec.bit_rate">112000</property>
  <property name="meta.attr.comment.markup">Made with Sony ACID Pro 6.0</property>
  <property name="seekable">1</property>
  <property name="kdenlive:folderid">3</property>
  <property name="kdenlive:file_size">4388785</property>
  <property name="kdenlive:file_hash">0bbc2b9e1b089b7fc3cd4ccc94ecf756</property>
  <property name="global_feed">1</property>
 </producer>
 <producer in="0" title="Anonymous Submission" id="51" out="6361">
  <property name="mlt_type">mlt_producer</property>
  <property name="length">00:03:32:02</property>
  <property name="eof">pause</property>
  <property name="resource">/opt/vlog/musica/bensound-november.mp3</property>
  <property name="audio_index">0</property>
  <property name="video_index">-1</property>
  <property name="mute_on_pause">1</property>
  <property name="mlt_service">avformat-novalidate</property>
  <property name="meta.media.nb_streams">1</property>
  <property name="meta.media.0.stream.type">audio</property>
  <property name="meta.media.0.codec.sample_fmt">s16p</property>
  <property name="meta.media.0.codec.sample_rate">44100</property>
  <property name="meta.media.0.codec.channels">2</property>
  <property name="meta.media.0.codec.name">mp3</property>
  <property name="meta.media.0.codec.long_name">MP3 (MPEG audio layer 3)</property>
  <property name="meta.media.0.codec.bit_rate">112000</property>
  <property name="seekable">1</property>
  <property name="kdenlive:folderid">3</property>
  <property name="kdenlive:file_size">2968870</property>
  <property name="kdenlive:file_hash">9736ef00327fcb86a9651e6354289b1d</property>
  <property name="global_feed">1</property>
 </producer>
 <producer in="0" title="Anonymous Submission" id="52" out="8962">
  <property name="mlt_type">mlt_producer</property>
  <property name="length">00:04:58:23</property>
  <property name="eof">pause</property>
  <property name="resource">/opt/vlog/musica/bensound-ofeliasdream.mp3</property>
  <property name="audio_index">0</property>
  <property name="video_index">-1</property>
  <property name="mute_on_pause">1</property>
  <property name="mlt_service">avformat-novalidate</property>
  <property name="meta.media.nb_streams">1</property>
  <property name="meta.media.0.stream.type">audio</property>
  <property name="meta.media.0.codec.sample_fmt">s16p</property>
  <property name="meta.media.0.codec.sample_rate">44100</property>
  <property name="meta.media.0.codec.channels">2</property>
  <property name="meta.media.0.codec.name">mp3</property>
  <property name="meta.media.0.codec.long_name">MP3 (MPEG audio layer 3)</property>
  <property name="meta.media.0.codec.bit_rate">112000</property>
  <property name="seekable">1</property>
  <property name="kdenlive:folderid">3</property>
  <property name="kdenlive:file_size">4182676</property>
  <property name="kdenlive:file_hash">93731780e8a9be5214d75636b455b52b</property>
  <property name="global_feed">1</property>
 </producer>
 <producer in="0" title="Anonymous Submission" id="53" out="6948">
  <property name="mlt_type">mlt_producer</property>
  <property name="length">00:03:51:19</property>
  <property name="eof">pause</property>
  <property name="resource">/opt/vlog/musica/bensound-onceagain.mp3</property>
  <property name="audio_index">0</property>
  <property name="video_index">-1</property>
  <property name="mute_on_pause">1</property>
  <property name="mlt_service">avformat-novalidate</property>
  <property name="meta.media.nb_streams">1</property>
  <property name="meta.media.0.stream.type">audio</property>
  <property name="meta.media.0.codec.sample_fmt">s16p</property>
  <property name="meta.media.0.codec.sample_rate">44100</property>
  <property name="meta.media.0.codec.channels">2</property>
  <property name="meta.media.0.codec.name">mp3</property>
  <property name="meta.media.0.codec.long_name">MP3 (MPEG audio layer 3)</property>
  <property name="meta.media.0.codec.bit_rate">192000</property>
  <property name="seekable">1</property>
  <property name="kdenlive:folderid">3</property>
  <property name="kdenlive:file_size">5559066</property>
  <property name="kdenlive:file_hash">cba8c21d3cef4ca1f78cf8a3a86a621a</property>
  <property name="global_feed">1</property>
 </producer>
 <producer in="0" title="Anonymous Submission" id="54" out="4867">
  <property name="mlt_type">mlt_producer</property>
  <property name="length">00:02:42:08</property>
  <property name="eof">pause</property>
  <property name="resource">/opt/vlog/musica/bensound-perception.mp3</property>
  <property name="audio_index">0</property>
  <property name="video_index">-1</property>
  <property name="mute_on_pause">1</property>
  <property name="mlt_service">avformat-novalidate</property>
  <property name="meta.media.nb_streams">1</property>
  <property name="meta.media.0.stream.type">audio</property>
  <property name="meta.media.0.codec.sample_fmt">s16p</property>
  <property name="meta.media.0.codec.sample_rate">44100</property>
  <property name="meta.media.0.codec.channels">2</property>
  <property name="meta.media.0.codec.name">mp3</property>
  <property name="meta.media.0.codec.long_name">MP3 (MPEG audio layer 3)</property>
  <property name="meta.media.0.codec.bit_rate">192000</property>
  <property name="seekable">1</property>
  <property name="kdenlive:folderid">3</property>
  <property name="kdenlive:file_size">3894543</property>
  <property name="kdenlive:file_hash">b709ada5dd1bf4723d43e8c6099a9824</property>
  <property name="global_feed">1</property>
 </producer>
 <producer in="0" title="Anonymous Submission" id="55" out="5888">
  <property name="mlt_type">mlt_producer</property>
  <property name="length">00:03:16:09</property>
  <property name="eof">pause</property>
  <property name="resource">/opt/vlog/musica/bensound-photoalbum.mp3</property>
  <property name="audio_index">0</property>
  <property name="video_index">-1</property>
  <property name="mute_on_pause">1</property>
  <property name="mlt_service">avformat-novalidate</property>
  <property name="meta.media.nb_streams">1</property>
  <property name="meta.media.0.stream.type">audio</property>
  <property name="meta.media.0.codec.sample_fmt">s16p</property>
  <property name="meta.media.0.codec.sample_rate">44100</property>
  <property name="meta.media.0.codec.channels">2</property>
  <property name="meta.media.0.codec.name">mp3</property>
  <property name="meta.media.0.codec.long_name">MP3 (MPEG audio layer 3)</property>
  <property name="meta.media.0.codec.bit_rate">192000</property>
  <property name="seekable">1</property>
  <property name="kdenlive:folderid">3</property>
  <property name="kdenlive:file_size">4710818</property>
  <property name="kdenlive:file_hash">96b036d293536f3f1385bb875201eba5</property>
  <property name="global_feed">1</property>
 </producer>
 <producer in="0" title="Anonymous Submission" id="56" out="3304">
  <property name="mlt_type">mlt_producer</property>
  <property name="length">00:01:50:05</property>
  <property name="eof">pause</property>
  <property name="resource">/opt/vlog/musica/bensound-pianomoment.mp3</property>
  <property name="audio_index">0</property>
  <property name="video_index">-1</property>
  <property name="mute_on_pause">1</property>
  <property name="mlt_service">avformat-novalidate</property>
  <property name="meta.media.nb_streams">1</property>
  <property name="meta.media.0.stream.type">audio</property>
  <property name="meta.media.0.codec.sample_fmt">s16p</property>
  <property name="meta.media.0.codec.sample_rate">44100</property>
  <property name="meta.media.0.codec.channels">2</property>
  <property name="meta.media.0.codec.name">mp3</property>
  <property name="meta.media.0.codec.long_name">MP3 (MPEG audio layer 3)</property>
  <property name="meta.media.0.codec.bit_rate">112000</property>
  <property name="seekable">1</property>
  <property name="kdenlive:folderid">3</property>
  <property name="kdenlive:file_size">1542217</property>
  <property name="kdenlive:file_hash">291a76b3ca0c7685d629f636c6ff9c21</property>
  <property name="global_feed">1</property>
 </producer>
 <producer in="0" title="Anonymous Submission" id="57" out="4861">
  <property name="mlt_type">mlt_producer</property>
  <property name="length">00:02:42:02</property>
  <property name="eof">pause</property>
  <property name="resource">/opt/vlog/musica/bensound-popdance.mp3</property>
  <property name="audio_index">0</property>
  <property name="video_index">-1</property>
  <property name="mute_on_pause">1</property>
  <property name="mlt_service">avformat-novalidate</property>
  <property name="meta.media.nb_streams">1</property>
  <property name="meta.media.0.stream.type">audio</property>
  <property name="meta.media.0.codec.sample_fmt">s16p</property>
  <property name="meta.media.0.codec.sample_rate">44100</property>
  <property name="meta.media.0.codec.channels">2</property>
  <property name="meta.media.0.codec.name">mp3</property>
  <property name="meta.media.0.codec.long_name">MP3 (MPEG audio layer 3)</property>
  <property name="meta.media.0.codec.bit_rate">112000</property>
  <property name="seekable">1</property>
  <property name="kdenlive:folderid">3</property>
  <property name="kdenlive:file_size">2268893</property>
  <property name="kdenlive:file_hash">691d9d3950118e96399b3d8b6e20d368</property>
  <property name="global_feed">1</property>
 </producer>
 <producer in="0" title="Anonymous Submission" id="58" out="5308">
  <property name="mlt_type">mlt_producer</property>
  <property name="length">00:02:56:29</property>
  <property name="eof">pause</property>
  <property name="resource">/opt/vlog/musica/bensound-psychedelic.mp3</property>
  <property name="audio_index">0</property>
  <property name="video_index">-1</property>
  <property name="mute_on_pause">1</property>
  <property name="mlt_service">avformat-novalidate</property>
  <property name="meta.media.nb_streams">1</property>
  <property name="meta.media.0.stream.type">audio</property>
  <property name="meta.media.0.codec.sample_fmt">s16p</property>
  <property name="meta.media.0.codec.sample_rate">44100</property>
  <property name="meta.media.0.codec.channels">2</property>
  <property name="meta.media.0.codec.name">mp3</property>
  <property name="meta.media.0.codec.long_name">MP3 (MPEG audio layer 3)</property>
  <property name="meta.media.0.codec.bit_rate">112000</property>
  <property name="seekable">1</property>
  <property name="kdenlive:folderid">3</property>
  <property name="kdenlive:file_size">2477714</property>
  <property name="kdenlive:file_hash">d4348c536be6007a5f6f0c8d906fb83d</property>
  <property name="global_feed">1</property>
 </producer>
 <producer in="0" title="Anonymous Submission" id="59" out="3772">
  <property name="mlt_type">mlt_producer</property>
  <property name="length">00:02:05:23</property>
  <property name="eof">pause</property>
  <property name="resource">/opt/vlog/musica/bensound-punky.mp3</property>
  <property name="audio_index">0</property>
  <property name="video_index">-1</property>
  <property name="mute_on_pause">1</property>
  <property name="mlt_service">avformat-novalidate</property>
  <property name="meta.media.nb_streams">1</property>
  <property name="meta.media.0.stream.type">audio</property>
  <property name="meta.media.0.codec.sample_fmt">s16p</property>
  <property name="meta.media.0.codec.sample_rate">44100</property>
  <property name="meta.media.0.codec.channels">2</property>
  <property name="meta.media.0.codec.name">mp3</property>
  <property name="meta.media.0.codec.long_name">MP3 (MPEG audio layer 3)</property>
  <property name="meta.media.0.codec.bit_rate">192000</property>
  <property name="seekable">1</property>
  <property name="kdenlive:folderid">3</property>
  <property name="kdenlive:file_size">3018083</property>
  <property name="kdenlive:file_hash">d1f5e0c9e9a0ab12fe99d3bbeede8954</property>
  <property name="global_feed">1</property>
 </producer>
 <producer in="0" title="Anonymous Submission" id="6" out="4649">
  <property name="mlt_type">mlt_producer</property>
  <property name="length">00:02:35:00</property>
  <property name="eof">pause</property>
  <property name="resource">/opt/vlog/musica/bensound-anewbeginning.mp3</property>
  <property name="audio_index">0</property>
  <property name="video_index">-1</property>
  <property name="mute_on_pause">1</property>
  <property name="mlt_service">avformat-novalidate</property>
  <property name="meta.media.nb_streams">1</property>
  <property name="meta.media.0.stream.type">audio</property>
  <property name="meta.media.0.codec.sample_fmt">s16p</property>
  <property name="meta.media.0.codec.sample_rate">44100</property>
  <property name="meta.media.0.codec.channels">2</property>
  <property name="meta.media.0.codec.name">mp3</property>
  <property name="meta.media.0.codec.long_name">MP3 (MPEG audio layer 3)</property>
  <property name="meta.media.0.codec.bit_rate">112000</property>
  <property name="seekable">1</property>
  <property name="kdenlive:folderid">3</property>
  <property name="kdenlive:file_size">2169783</property>
  <property name="kdenlive:file_hash">c9e5ecd0c6f004edbf1280c8a3303222</property>
  <property name="global_feed">1</property>
 </producer>
 <producer in="0" title="Anonymous Submission" id="60" out="8641">
  <property name="mlt_type">mlt_producer</property>
  <property name="length">00:04:48:02</property>
  <property name="eof">pause</property>
  <property name="resource">/opt/vlog/musica/bensound-relaxing.mp3</property>
  <property name="audio_index">0</property>
  <property name="video_index">-1</property>
  <property name="mute_on_pause">1</property>
  <property name="mlt_service">avformat-novalidate</property>
  <property name="meta.media.nb_streams">1</property>
  <property name="meta.media.0.stream.type">audio</property>
  <property name="meta.media.0.codec.sample_fmt">s16p</property>
  <property name="meta.media.0.codec.sample_rate">44100</property>
  <property name="meta.media.0.codec.channels">2</property>
  <property name="meta.media.0.codec.name">mp3</property>
  <property name="meta.media.0.codec.long_name">MP3 (MPEG audio layer 3)</property>
  <property name="meta.media.0.codec.bit_rate">112000</property>
  <property name="seekable">1</property>
  <property name="kdenlive:folderid">3</property>
  <property name="kdenlive:file_size">4033097</property>
  <property name="kdenlive:file_hash">32882ad5fa17a8ada6c20dfd862c1cd0</property>
  <property name="global_feed">1</property>
 </producer>
 <producer in="0" title="Anonymous Submission" id="61" out="6494">
  <property name="mlt_type">mlt_producer</property>
  <property name="length">00:03:36:15</property>
  <property name="eof">pause</property>
  <property name="resource">/opt/vlog/musica/bensound-retrosoul.mp3</property>
  <property name="audio_index">0</property>
  <property name="video_index">-1</property>
  <property name="mute_on_pause">1</property>
  <property name="mlt_service">avformat-novalidate</property>
  <property name="meta.media.nb_streams">1</property>
  <property name="meta.media.0.stream.type">audio</property>
  <property name="meta.media.0.codec.sample_fmt">s16p</property>
  <property name="meta.media.0.codec.sample_rate">44100</property>
  <property name="meta.media.0.codec.channels">2</property>
  <property name="meta.media.0.codec.name">mp3</property>
  <property name="meta.media.0.codec.long_name">MP3 (MPEG audio layer 3)</property>
  <property name="meta.media.0.codec.bit_rate">112000</property>
  <property name="seekable">1</property>
  <property name="kdenlive:folderid">3</property>
  <property name="kdenlive:file_size">3031040</property>
  <property name="kdenlive:file_hash">7621e16031b8e45b432a3e1c134ffcea</property>
  <property name="global_feed">1</property>
 </producer>
 <producer in="0" title="Anonymous Submission" id="62" out="7097">
  <property name="mlt_type">mlt_producer</property>
  <property name="length">00:03:56:18</property>
  <property name="eof">pause</property>
  <property name="resource">/opt/vlog/musica/bensound-romantic.mp3</property>
  <property name="audio_index">0</property>
  <property name="video_index">-1</property>
  <property name="mute_on_pause">1</property>
  <property name="mlt_service">avformat-novalidate</property>
  <property name="meta.media.nb_streams">1</property>
  <property name="meta.media.0.stream.type">audio</property>
  <property name="meta.media.0.codec.sample_fmt">s16p</property>
  <property name="meta.media.0.codec.sample_rate">44100</property>
  <property name="meta.media.0.codec.channels">2</property>
  <property name="meta.media.0.codec.name">mp3</property>
  <property name="meta.media.0.codec.long_name">MP3 (MPEG audio layer 3)</property>
  <property name="meta.media.0.codec.bit_rate">128000</property>
  <property name="meta.attr.artist.markup">Bensound</property>
  <property name="seekable">1</property>
  <property name="kdenlive:folderid">3</property>
  <property name="kdenlive:file_size">3785625</property>
  <property name="kdenlive:file_hash">60c87c3f3f89c364bd4c592c01006a69</property>
  <property name="global_feed">1</property>
 </producer>
 <producer in="0" title="Anonymous Submission" id="63" out="4642">
  <property name="mlt_type">mlt_producer</property>
  <property name="length">00:02:34:23</property>
  <property name="eof">pause</property>
  <property name="resource">/opt/vlog/musica/bensound-rumble.mp3</property>
  <property name="audio_index">0</property>
  <property name="video_index">-1</property>
  <property name="mute_on_pause">1</property>
  <property name="mlt_service">avformat-novalidate</property>
  <property name="meta.media.nb_streams">1</property>
  <property name="meta.media.0.stream.type">audio</property>
  <property name="meta.media.0.codec.sample_fmt">s16p</property>
  <property name="meta.media.0.codec.sample_rate">44100</property>
  <property name="meta.media.0.codec.channels">2</property>
  <property name="meta.media.0.codec.name">mp3</property>
  <property name="meta.media.0.codec.long_name">MP3 (MPEG audio layer 3)</property>
  <property name="meta.media.0.codec.bit_rate">112000</property>
  <property name="seekable">1</property>
  <property name="kdenlive:folderid">3</property>
  <property name="kdenlive:file_size">2166858</property>
  <property name="kdenlive:file_hash">d717bcc2e0bdb1f82f47866de73b84f2</property>
  <property name="global_feed">1</property>
 </producer>
 <producer in="0" title="Anonymous Submission" id="64" out="4460">
  <property name="mlt_type">mlt_producer</property>
  <property name="length">00:02:28:21</property>
  <property name="eof">pause</property>
  <property name="resource">/opt/vlog/musica/bensound-sadday.mp3</property>
  <property name="audio_index">0</property>
  <property name="video_index">-1</property>
  <property name="mute_on_pause">1</property>
  <property name="mlt_service">avformat-novalidate</property>
  <property name="meta.media.nb_streams">1</property>
  <property name="meta.media.0.stream.type">audio</property>
  <property name="meta.media.0.codec.sample_fmt">s16p</property>
  <property name="meta.media.0.codec.sample_rate">44100</property>
  <property name="meta.media.0.codec.channels">2</property>
  <property name="meta.media.0.codec.name">mp3</property>
  <property name="meta.media.0.codec.long_name">MP3 (MPEG audio layer 3)</property>
  <property name="meta.media.0.codec.bit_rate">112000</property>
  <property name="seekable">1</property>
  <property name="kdenlive:folderid">3</property>
  <property name="kdenlive:file_size">2081646</property>
  <property name="kdenlive:file_hash">f0a06c1851b185ffae2c344b9b3c843d</property>
  <property name="global_feed">1</property>
 </producer>
 <producer in="0" title="Anonymous Submission" id="65" out="8547">
  <property name="mlt_type">mlt_producer</property>
  <property name="length">00:04:44:28</property>
  <property name="eof">pause</property>
  <property name="resource">/opt/vlog/musica/bensound-scifi.mp3</property>
  <property name="audio_index">0</property>
  <property name="video_index">-1</property>
  <property name="mute_on_pause">1</property>
  <property name="mlt_service">avformat-novalidate</property>
  <property name="meta.media.nb_streams">1</property>
  <property name="meta.media.0.stream.type">audio</property>
  <property name="meta.media.0.codec.sample_fmt">s16p</property>
  <property name="meta.media.0.codec.sample_rate">44100</property>
  <property name="meta.media.0.codec.channels">2</property>
  <property name="meta.media.0.codec.name">mp3</property>
  <property name="meta.media.0.codec.long_name">MP3 (MPEG audio layer 3)</property>
  <property name="meta.media.0.codec.bit_rate">112000</property>
  <property name="seekable">1</property>
  <property name="kdenlive:folderid">3</property>
  <property name="kdenlive:file_size">3989956</property>
  <property name="kdenlive:file_hash">e1220b492acb07a2393327a3e47fbf23</property>
  <property name="global_feed">1</property>
 </producer>
 <producer in="0" title="Anonymous Submission" id="66" out="5213">
  <property name="mlt_type">mlt_producer</property>
  <property name="length">00:02:53:24</property>
  <property name="eof">pause</property>
  <property name="resource">/opt/vlog/musica/bensound-sexy.mp3</property>
  <property name="audio_index">0</property>
  <property name="video_index">-1</property>
  <property name="mute_on_pause">1</property>
  <property name="mlt_service">avformat-novalidate</property>
  <property name="meta.media.nb_streams">1</property>
  <property name="meta.media.0.stream.type">audio</property>
  <property name="meta.media.0.codec.sample_fmt">s16p</property>
  <property name="meta.media.0.codec.sample_rate">44100</property>
  <property name="meta.media.0.codec.channels">2</property>
  <property name="meta.media.0.codec.name">mp3</property>
  <property name="meta.media.0.codec.long_name">MP3 (MPEG audio layer 3)</property>
  <property name="meta.media.0.codec.bit_rate">112000</property>
  <property name="seekable">1</property>
  <property name="kdenlive:folderid">3</property>
  <property name="kdenlive:file_size">2433592</property>
  <property name="kdenlive:file_hash">50403185179e175c77d9ba5b65b00ac3</property>
  <property name="global_feed">1</property>
 </producer>
 <producer in="0" title="Anonymous Submission" id="67" out="6209">
  <property name="mlt_type">mlt_producer</property>
  <property name="length">00:03:27:00</property>
  <property name="eof">pause</property>
  <property name="resource">/opt/vlog/musica/bensound-slowmotion.mp3</property>
  <property name="audio_index">0</property>
  <property name="video_index">-1</property>
  <property name="mute_on_pause">1</property>
  <property name="mlt_service">avformat-novalidate</property>
  <property name="meta.media.nb_streams">1</property>
  <property name="meta.media.0.stream.type">audio</property>
  <property name="meta.media.0.codec.sample_fmt">s16p</property>
  <property name="meta.media.0.codec.sample_rate">44100</property>
  <property name="meta.media.0.codec.channels">2</property>
  <property name="meta.media.0.codec.name">mp3</property>
  <property name="meta.media.0.codec.long_name">MP3 (MPEG audio layer 3)</property>
  <property name="meta.media.0.codec.bit_rate">112000</property>
  <property name="seekable">1</property>
  <property name="kdenlive:folderid">3</property>
  <property name="kdenlive:file_size">2897920</property>
  <property name="kdenlive:file_hash">f9f3b520d00f45947638dab838bca8cc</property>
  <property name="global_feed">1</property>
 </producer>
 <producer in="0" title="Anonymous Submission" id="68" out="6088">
  <property name="mlt_type">mlt_producer</property>
  <property name="length">00:03:22:29</property>
  <property name="eof">pause</property>
  <property name="resource">/opt/vlog/musica/bensound-smallguitar.mp3</property>
  <property name="audio_index">0</property>
  <property name="video_index">-1</property>
  <property name="mute_on_pause">1</property>
  <property name="mlt_service">avformat-novalidate</property>
  <property name="meta.media.nb_streams">1</property>
  <property name="meta.media.0.stream.type">audio</property>
  <property name="meta.media.0.codec.sample_fmt">s16p</property>
  <property name="meta.media.0.codec.sample_rate">44100</property>
  <property name="meta.media.0.codec.channels">2</property>
  <property name="meta.media.0.codec.name">mp3</property>
  <property name="meta.media.0.codec.long_name">MP3 (MPEG audio layer 3)</property>
  <property name="meta.media.0.codec.bit_rate">192000</property>
  <property name="seekable">1</property>
  <property name="kdenlive:folderid">3</property>
  <property name="kdenlive:file_size">4871314</property>
  <property name="kdenlive:file_hash">7c8e5c849c76ca3f0ec10ca2e291535f</property>
  <property name="global_feed">1</property>
 </producer>
 <producer in="0" title="Anonymous Submission" id="69" out="5505">
  <property name="mlt_type">mlt_producer</property>
  <property name="length">00:03:03:16</property>
  <property name="eof">pause</property>
  <property name="resource">/opt/vlog/musica/bensound-smile.mp3</property>
  <property name="audio_index">0</property>
  <property name="video_index">-1</property>
  <property name="mute_on_pause">1</property>
  <property name="mlt_service">avformat-novalidate</property>
  <property name="meta.media.nb_streams">1</property>
  <property name="meta.media.0.stream.type">audio</property>
  <property name="meta.media.0.codec.sample_fmt">s16p</property>
  <property name="meta.media.0.codec.sample_rate">44100</property>
  <property name="meta.media.0.codec.channels">2</property>
  <property name="meta.media.0.codec.name">mp3</property>
  <property name="meta.media.0.codec.long_name">MP3 (MPEG audio layer 3)</property>
  <property name="meta.media.0.codec.bit_rate">192000</property>
  <property name="seekable">1</property>
  <property name="kdenlive:folderid">3</property>
  <property name="kdenlive:file_size">4404871</property>
  <property name="kdenlive:file_hash">d5b08b2b42ae8abc2ea9ec87c3dd60b9</property>
  <property name="global_feed">1</property>
 </producer>
 <producer in="0" title="Anonymous Submission" id="7" out="3272">
  <property name="mlt_type">mlt_producer</property>
  <property name="length">00:01:49:03</property>
  <property name="eof">pause</property>
  <property name="resource">/opt/vlog/musica/bensound-badass.mp3</property>
  <property name="audio_index">0</property>
  <property name="video_index">-1</property>
  <property name="mute_on_pause">1</property>
  <property name="mlt_service">avformat-novalidate</property>
  <property name="meta.media.nb_streams">1</property>
  <property name="meta.media.0.stream.type">audio</property>
  <property name="meta.media.0.codec.sample_fmt">s16p</property>
  <property name="meta.media.0.codec.sample_rate">44100</property>
  <property name="meta.media.0.codec.channels">2</property>
  <property name="meta.media.0.codec.name">mp3</property>
  <property name="meta.media.0.codec.long_name">MP3 (MPEG audio layer 3)</property>
  <property name="meta.media.0.codec.bit_rate">112000</property>
  <property name="seekable">1</property>
  <property name="kdenlive:folderid">3</property>
  <property name="kdenlive:file_size">1527223</property>
  <property name="kdenlive:file_hash">66131e7e8714e069e7f64ab778620eb7</property>
  <property name="global_feed">1</property>
 </producer>
 <producer in="0" title="Anonymous Submission" id="70" out="7591">
  <property name="mlt_type">mlt_producer</property>
  <property name="length">00:04:13:02</property>
  <property name="eof">pause</property>
  <property name="resource">/opt/vlog/musica/bensound-straight.mp3</property>
  <property name="audio_index">0</property>
  <property name="video_index">-1</property>
  <property name="mute_on_pause">1</property>
  <property name="mlt_service">avformat-novalidate</property>
  <property name="meta.media.nb_streams">1</property>
  <property name="meta.media.0.stream.type">audio</property>
  <property name="meta.media.0.codec.sample_fmt">s16p</property>
  <property name="meta.media.0.codec.sample_rate">44100</property>
  <property name="meta.media.0.codec.channels">2</property>
  <property name="meta.media.0.codec.name">mp3</property>
  <property name="meta.media.0.codec.long_name">MP3 (MPEG audio layer 3)</property>
  <property name="meta.media.0.codec.bit_rate">192000</property>
  <property name="seekable">1</property>
  <property name="kdenlive:folderid">3</property>
  <property name="kdenlive:file_size">6073782</property>
  <property name="kdenlive:file_hash">9958ddeeb66dc4e290c6e4f64e38eea8</property>
  <property name="global_feed">1</property>
 </producer>
 <producer in="0" title="Anonymous Submission" id="71" out="6522">
  <property name="mlt_type">mlt_producer</property>
  <property name="length">00:03:37:13</property>
  <property name="eof">pause</property>
  <property name="resource">/opt/vlog/musica/bensound-summer.mp3</property>
  <property name="audio_index">0</property>
  <property name="video_index">-1</property>
  <property name="mute_on_pause">1</property>
  <property name="mlt_service">avformat-novalidate</property>
  <property name="meta.media.nb_streams">1</property>
  <property name="meta.media.0.stream.type">audio</property>
  <property name="meta.media.0.codec.sample_fmt">s16p</property>
  <property name="meta.media.0.codec.sample_rate">44100</property>
  <property name="meta.media.0.codec.channels">2</property>
  <property name="meta.media.0.codec.name">mp3</property>
  <property name="meta.media.0.codec.long_name">MP3 (MPEG audio layer 3)</property>
  <property name="meta.media.0.codec.bit_rate">160000</property>
  <property name="seekable">1</property>
  <property name="kdenlive:folderid">3</property>
  <property name="kdenlive:file_size">4349086</property>
  <property name="kdenlive:file_hash">74259650835e9a0a4bb28d7ecab36973</property>
  <property name="global_feed">1</property>
 </producer>
 <producer in="0" title="Anonymous Submission" id="72" out="4200">
  <property name="mlt_type">mlt_producer</property>
  <property name="length">00:02:20:01</property>
  <property name="eof">pause</property>
  <property name="resource">/opt/vlog/musica/bensound-sunny.mp3</property>
  <property name="audio_index">0</property>
  <property name="video_index">-1</property>
  <property name="mute_on_pause">1</property>
  <property name="mlt_service">avformat-novalidate</property>
  <property name="meta.media.nb_streams">1</property>
  <property name="meta.media.0.stream.type">audio</property>
  <property name="meta.media.0.codec.sample_fmt">s16p</property>
  <property name="meta.media.0.codec.sample_rate">44100</property>
  <property name="meta.media.0.codec.channels">2</property>
  <property name="meta.media.0.codec.name">mp3</property>
  <property name="meta.media.0.codec.long_name">MP3 (MPEG audio layer 3)</property>
  <property name="meta.media.0.codec.bit_rate">112000</property>
  <property name="seekable">1</property>
  <property name="kdenlive:folderid">3</property>
  <property name="kdenlive:file_size">1960596</property>
  <property name="kdenlive:file_hash">22e6eacfc0cd7394b3e2b3e58f5ae816</property>
  <property name="global_feed">1</property>
 </producer>
 <producer in="0" title="Anonymous Submission" id="73" out="9229">
  <property name="mlt_type">mlt_producer</property>
  <property name="length">00:05:07:20</property>
  <property name="eof">pause</property>
  <property name="resource">/opt/vlog/musica/bensound-sweet.mp3</property>
  <property name="audio_index">0</property>
  <property name="video_index">-1</property>
  <property name="mute_on_pause">1</property>
  <property name="mlt_service">avformat-novalidate</property>
  <property name="meta.media.nb_streams">1</property>
  <property name="meta.media.0.stream.type">audio</property>
  <property name="meta.media.0.codec.sample_fmt">s16p</property>
  <property name="meta.media.0.codec.sample_rate">44100</property>
  <property name="meta.media.0.codec.channels">2</property>
  <property name="meta.media.0.codec.name">mp3</property>
  <property name="meta.media.0.codec.long_name">MP3 (MPEG audio layer 3)</property>
  <property name="meta.media.0.codec.bit_rate">112000</property>
  <property name="meta.attr.title.markup">Sweet</property>
  <property name="meta.attr.artist.markup">Bensound</property>
  <property name="meta.attr.comment.markup">www.bensound.com</property>
  <property name="seekable">1</property>
  <property name="kdenlive:folderid">3</property>
  <property name="kdenlive:file_size">4307626</property>
  <property name="kdenlive:file_hash">5a06acc684f9dd9b76d448832a8ddd9e</property>
  <property name="global_feed">1</property>
 </producer>
 <producer in="0" title="Anonymous Submission" id="74" out="3714">
  <property name="mlt_type">mlt_producer</property>
  <property name="length">00:02:03:25</property>
  <property name="eof">pause</property>
  <property name="resource">/opt/vlog/musica/bensound-tenderness.mp3</property>
  <property name="audio_index">0</property>
  <property name="video_index">-1</property>
  <property name="mute_on_pause">1</property>
  <property name="mlt_service">avformat-novalidate</property>
  <property name="meta.media.nb_streams">1</property>
  <property name="meta.media.0.stream.type">audio</property>
  <property name="meta.media.0.codec.sample_fmt">s16p</property>
  <property name="meta.media.0.codec.sample_rate">44100</property>
  <property name="meta.media.0.codec.channels">2</property>
  <property name="meta.media.0.codec.name">mp3</property>
  <property name="meta.media.0.codec.long_name">MP3 (MPEG audio layer 3)</property>
  <property name="meta.media.0.codec.bit_rate">112000</property>
  <property name="seekable">1</property>
  <property name="kdenlive:folderid">3</property>
  <property name="kdenlive:file_size">1733486</property>
  <property name="kdenlive:file_hash">04ff7ff51622432b9c4f8810ec7cfe43</property>
  <property name="global_feed">1</property>
 </producer>
 <producer in="0" title="Anonymous Submission" id="75" out="3548">
  <property name="mlt_type">mlt_producer</property>
  <property name="length">00:01:58:09</property>
  <property name="eof">pause</property>
  <property name="resource">/opt/vlog/musica/bensound-theduel.mp3</property>
  <property name="audio_index">0</property>
  <property name="video_index">-1</property>
  <property name="mute_on_pause">1</property>
  <property name="mlt_service">avformat-novalidate</property>
  <property name="meta.media.nb_streams">1</property>
  <property name="meta.media.0.stream.type">audio</property>
  <property name="meta.media.0.codec.sample_fmt">s16p</property>
  <property name="meta.media.0.codec.sample_rate">44100</property>
  <property name="meta.media.0.codec.channels">2</property>
  <property name="meta.media.0.codec.name">mp3</property>
  <property name="meta.media.0.codec.long_name">MP3 (MPEG audio layer 3)</property>
  <property name="meta.media.0.codec.bit_rate">112000</property>
  <property name="seekable">1</property>
  <property name="kdenlive:folderid">3</property>
  <property name="kdenlive:file_size">1656321</property>
  <property name="kdenlive:file_hash">edffdfd256f51bcf44559247a31aff7e</property>
  <property name="global_feed">1</property>
 </producer>
 <producer in="0" title="Anonymous Submission" id="76" out="7644">
  <property name="mlt_type">mlt_producer</property>
  <property name="length">00:04:14:25</property>
  <property name="eof">pause</property>
  <property name="resource">/opt/vlog/musica/bensound-theelevatorbossanova.mp3</property>
  <property name="audio_index">0</property>
  <property name="video_index">-1</property>
  <property name="mute_on_pause">1</property>
  <property name="mlt_service">avformat-novalidate</property>
  <property name="meta.media.nb_streams">1</property>
  <property name="meta.media.0.stream.type">audio</property>
  <property name="meta.media.0.codec.sample_fmt">s16p</property>
  <property name="meta.media.0.codec.sample_rate">44100</property>
  <property name="meta.media.0.codec.channels">2</property>
  <property name="meta.media.0.codec.name">mp3</property>
  <property name="meta.media.0.codec.long_name">MP3 (MPEG audio layer 3)</property>
  <property name="meta.media.0.codec.bit_rate">192000</property>
  <property name="seekable">1</property>
  <property name="kdenlive:folderid">3</property>
  <property name="kdenlive:file_size">6115787</property>
  <property name="kdenlive:file_hash">bb835fb56bd17c534abb298935106500</property>
  <property name="global_feed">1</property>
 </producer>
 <producer in="0" title="Anonymous Submission" id="77" out="4814">
  <property name="mlt_type">mlt_producer</property>
  <property name="length">00:02:40:15</property>
  <property name="eof">pause</property>
  <property name="resource">/opt/vlog/musica/bensound-thejazzpiano.mp3</property>
  <property name="audio_index">0</property>
  <property name="video_index">-1</property>
  <property name="mute_on_pause">1</property>
  <property name="mlt_service">avformat-novalidate</property>
  <property name="meta.media.nb_streams">1</property>
  <property name="meta.media.0.stream.type">audio</property>
  <property name="meta.media.0.codec.sample_fmt">s16p</property>
  <property name="meta.media.0.codec.sample_rate">44100</property>
  <property name="meta.media.0.codec.channels">2</property>
  <property name="meta.media.0.codec.name">mp3</property>
  <property name="meta.media.0.codec.long_name">MP3 (MPEG audio layer 3)</property>
  <property name="meta.media.0.codec.bit_rate">112000</property>
  <property name="meta.attr.title.markup">The Jazz Piano</property>
  <property name="meta.attr.artist.markup">Bensound</property>
  <property name="meta.attr.comment.markup">www.bensound.com</property>
  <property name="seekable">1</property>
  <property name="kdenlive:folderid">3</property>
  <property name="kdenlive:file_size">2247210</property>
  <property name="kdenlive:file_hash">3b055ba7bbce21e97a7fa20cf157a6a5</property>
  <property name="global_feed">1</property>
 </producer>
 <producer in="0" title="Anonymous Submission" id="78" out="7681">
  <property name="mlt_type">mlt_producer</property>
  <property name="length">00:04:16:02</property>
  <property name="eof">pause</property>
  <property name="resource">/opt/vlog/musica/bensound-thelounge.mp3</property>
  <property name="audio_index">0</property>
  <property name="video_index">-1</property>
  <property name="mute_on_pause">1</property>
  <property name="mlt_service">avformat-novalidate</property>
  <property name="meta.media.nb_streams">1</property>
  <property name="meta.media.0.stream.type">audio</property>
  <property name="meta.media.0.codec.sample_fmt">s16p</property>
  <property name="meta.media.0.codec.sample_rate">44100</property>
  <property name="meta.media.0.codec.channels">2</property>
  <property name="meta.media.0.codec.name">mp3</property>
  <property name="meta.media.0.codec.long_name">MP3 (MPEG audio layer 3)</property>
  <property name="meta.media.0.codec.bit_rate">112000</property>
  <property name="seekable">1</property>
  <property name="kdenlive:folderid">3</property>
  <property name="kdenlive:file_size">3585097</property>
  <property name="kdenlive:file_hash">e538a4fe5811f3ef4de9b507cfb507b8</property>
  <property name="global_feed">1</property>
 </producer>
 <producer in="0" title="Anonymous Submission" id="79" out="8844">
  <property name="mlt_type">mlt_producer</property>
  <property name="length">00:04:54:25</property>
  <property name="eof">pause</property>
  <property name="resource">/opt/vlog/musica/bensound-tomorrow.mp3</property>
  <property name="audio_index">0</property>
  <property name="video_index">-1</property>
  <property name="mute_on_pause">1</property>
  <property name="mlt_service">avformat-novalidate</property>
  <property name="meta.media.nb_streams">1</property>
  <property name="meta.media.0.stream.type">audio</property>
  <property name="meta.media.0.codec.sample_fmt">s16p</property>
  <property name="meta.media.0.codec.sample_rate">44100</property>
  <property name="meta.media.0.codec.channels">2</property>
  <property name="meta.media.0.codec.name">mp3</property>
  <property name="meta.media.0.codec.long_name">MP3 (MPEG audio layer 3)</property>
  <property name="meta.media.0.codec.bit_rate">112000</property>
  <property name="seekable">1</property>
  <property name="kdenlive:folderid">3</property>
  <property name="kdenlive:file_size">4127453</property>
  <property name="kdenlive:file_hash">86fdaa5cd6cff82adc66577e38054c6a</property>
  <property name="global_feed">1</property>
 </producer>
 <producer in="0" title="Anonymous Submission" id="8" out="4614">
  <property name="mlt_type">mlt_producer</property>
  <property name="length">00:02:33:25</property>
  <property name="eof">pause</property>
  <property name="resource">/opt/vlog/musica/bensound-betterdays.mp3</property>
  <property name="audio_index">0</property>
  <property name="video_index">-1</property>
  <property name="mute_on_pause">1</property>
  <property name="mlt_service">avformat-novalidate</property>
  <property name="meta.media.nb_streams">1</property>
  <property name="meta.media.0.stream.type">audio</property>
  <property name="meta.media.0.codec.sample_fmt">s16p</property>
  <property name="meta.media.0.codec.sample_rate">44100</property>
  <property name="meta.media.0.codec.channels">2</property>
  <property name="meta.media.0.codec.name">mp3</property>
  <property name="meta.media.0.codec.long_name">MP3 (MPEG audio layer 3)</property>
  <property name="meta.media.0.codec.bit_rate">112000</property>
  <property name="seekable">1</property>
  <property name="kdenlive:folderid">3</property>
  <property name="kdenlive:file_size">2153691</property>
  <property name="kdenlive:file_hash">fd5f04125b6ab4ebdcbdf58391ce35ab</property>
  <property name="global_feed">1</property>
 </producer>
 <producer in="0" title="Anonymous Submission" id="80" out="4392">
  <property name="mlt_type">mlt_producer</property>
  <property name="length">00:02:26:13</property>
  <property name="eof">pause</property>
  <property name="resource">/opt/vlog/musica/bensound-ukulele.mp3</property>
  <property name="audio_index">0</property>
  <property name="video_index">-1</property>
  <property name="mute_on_pause">1</property>
  <property name="mlt_service">avformat-novalidate</property>
  <property name="meta.media.nb_streams">1</property>
  <property name="meta.media.0.stream.type">audio</property>
  <property name="meta.media.0.codec.sample_fmt">s16p</property>
  <property name="meta.media.0.codec.sample_rate">44100</property>
  <property name="meta.media.0.codec.channels">2</property>
  <property name="meta.media.0.codec.name">mp3</property>
  <property name="meta.media.0.codec.long_name">MP3 (MPEG audio layer 3)</property>
  <property name="meta.media.0.codec.bit_rate">112000</property>
  <property name="seekable">1</property>
  <property name="kdenlive:folderid">3</property>
  <property name="kdenlive:file_size">2050194</property>
  <property name="kdenlive:file_hash">4ea2968f526c64b9b97a77ce79f88b76</property>
  <property name="global_feed">1</property>
 </producer>
 <producer in="0" title="Anonymous Submission" id="81" out="5623">
  <property name="mlt_type">mlt_producer</property>
  <property name="length">00:03:07:14</property>
  <property name="eof">pause</property>
  <property name="resource">/opt/vlog/entrenamiento1/videos/VID_20190202_130736.mp4</property>
  <property name="audio_index">0</property>
  <property name="video_index">1</property>
  <property name="mute_on_pause">1</property>
  <property name="mlt_service">avformat-novalidate</property>
  <property name="meta.media.nb_streams">2</property>
  <property name="meta.media.0.stream.type">audio</property>
  <property name="meta.media.0.codec.sample_fmt">fltp</property>
  <property name="meta.media.0.codec.sample_rate">44100</property>
  <property name="meta.media.0.codec.channels">2</property>
  <property name="meta.media.0.codec.name">aac</property>
  <property name="meta.media.0.codec.long_name">AAC (Advanced Audio Coding)</property>
  <property name="meta.media.0.codec.bit_rate">191998</property>
  <property name="meta.attr.0.stream.creation_time.markup">2019-02-02 12:07:35</property>
  <property name="meta.attr.0.stream.language.markup">eng</property>
  <property name="meta.attr.0.stream.handler_name.markup">SoundHandle</property>
  <property name="meta.media.1.stream.type">video</property>
  <property name="meta.media.1.stream.frame_rate">30,1092</property>
  <property name="meta.media.1.stream.sample_aspect_ratio">1</property>
  <property name="meta.media.1.codec.width">1920</property>
  <property name="meta.media.1.codec.height">1080</property>
  <property name="meta.media.1.codec.rotate">180</property>
  <property name="meta.media.1.codec.frame_rate">90000</property>
  <property name="meta.media.1.codec.pix_fmt">yuvj420p</property>
  <property name="meta.media.1.codec.sample_aspect_ratio">0</property>
  <property name="meta.media.1.codec.colorspace">601</property>
  <property name="meta.media.1.codec.color_trc">6</property>
  <property name="meta.media.1.codec.name">h264</property>
  <property name="meta.media.1.codec.long_name">H.264 / AVC / MPEG-4 AVC / MPEG-4 part 10</property>
  <property name="meta.media.1.codec.bit_rate">22006533</property>
  <property name="meta.attr.1.stream.rotate.markup">180</property>
  <property name="meta.attr.1.stream.creation_time.markup">2019-02-02 12:07:35</property>
  <property name="meta.attr.1.stream.language.markup">eng</property>
  <property name="meta.attr.1.stream.handler_name.markup">VideoHandle</property>
  <property name="meta.attr.major_brand.markup">mp42</property>
  <property name="meta.attr.minor_version.markup">0</property>
  <property name="meta.attr.compatible_brands.markup">isommp42</property>
  <property name="meta.attr.creation_time.markup">2019-02-02 12:07:35</property>
  <property name="meta.attr.location.markup">+51.5187+007.4000/</property>
  <property name="meta.attr.location-eng.markup">+51.5187+007.4000/</property>
  <property name="seekable">1</property>
  <property name="meta.media.sample_aspect_num">1</property>
  <property name="meta.media.sample_aspect_den">1</property>
  <property name="aspect_ratio">1</property>
  <property name="kdenlive:folderid">1</property>
  <property name="kdenlive:file_size">520215504</property>
  <property name="kdenlive:file_hash">e285e16875a9485103b7ed3e74d3c62c</property>
  <property name="global_feed">1</property>
  <property name="meta.media.frame_rate_num">29880000</property>
  <property name="meta.media.frame_rate_den">992387</property>
  <property name="meta.media.colorspace">601</property>
  <property name="meta.media.color_trc">6</property>
  <property name="meta.media.width">1920</property>
  <property name="meta.media.height">1080</property>
  <property name="meta.media.top_field_first">0</property>
  <property name="meta.media.progressive">1</property>
 </producer>
 <producer in="0" title="Anonymous Submission" id="82" out="335">
  <property name="mlt_type">mlt_producer</property>
  <property name="length">00:00:11:06</property>
  <property name="eof">pause</property>
  <property name="resource">/opt/vlog/entrenamiento1/videos/VID_20190202_131002.mp4</property>
  <property name="audio_index">0</property>
  <property name="video_index">1</property>
  <property name="mute_on_pause">1</property>
  <property name="mlt_service">avformat-novalidate</property>
  <property name="meta.media.nb_streams">2</property>
  <property name="meta.media.0.stream.type">audio</property>
  <property name="meta.media.0.codec.sample_fmt">fltp</property>
  <property name="meta.media.0.codec.sample_rate">44100</property>
  <property name="meta.media.0.codec.channels">2</property>
  <property name="meta.media.0.codec.name">aac</property>
  <property name="meta.media.0.codec.long_name">AAC (Advanced Audio Coding)</property>
  <property name="meta.media.0.codec.bit_rate">191951</property>
  <property name="meta.attr.0.stream.creation_time.markup">2019-02-02 12:10:01</property>
  <property name="meta.attr.0.stream.language.markup">eng</property>
  <property name="meta.attr.0.stream.handler_name.markup">SoundHandle</property>
  <property name="meta.media.1.stream.type">video</property>
  <property name="meta.media.1.stream.frame_rate">29,9228</property>
  <property name="meta.media.1.stream.sample_aspect_ratio">1</property>
  <property name="meta.media.1.codec.width">1920</property>
  <property name="meta.media.1.codec.height">1080</property>
  <property name="meta.media.1.codec.rotate">0</property>
  <property name="meta.media.1.codec.frame_rate">90000</property>
  <property name="meta.media.1.codec.pix_fmt">yuvj420p</property>
  <property name="meta.media.1.codec.sample_aspect_ratio">0</property>
  <property name="meta.media.1.codec.colorspace">601</property>
  <property name="meta.media.1.codec.color_trc">6</property>
  <property name="meta.media.1.codec.name">h264</property>
  <property name="meta.media.1.codec.long_name">H.264 / AVC / MPEG-4 AVC / MPEG-4 part 10</property>
  <property name="meta.media.1.codec.bit_rate">22289788</property>
  <property name="meta.attr.1.stream.creation_time.markup">2019-02-02 12:10:01</property>
  <property name="meta.attr.1.stream.language.markup">eng</property>
  <property name="meta.attr.1.stream.handler_name.markup">VideoHandle</property>
  <property name="meta.attr.major_brand.markup">mp42</property>
  <property name="meta.attr.minor_version.markup">0</property>
  <property name="meta.attr.compatible_brands.markup">isommp42</property>
  <property name="meta.attr.creation_time.markup">2019-02-02 12:10:01</property>
  <property name="meta.attr.location.markup">+51.5186+007.4001/</property>
  <property name="meta.attr.location-eng.markup">+51.5186+007.4001/</property>
  <property name="seekable">1</property>
  <property name="meta.media.sample_aspect_num">1</property>
  <property name="meta.media.sample_aspect_den">1</property>
  <property name="aspect_ratio">1</property>
  <property name="kdenlive:folderid">1</property>
  <property name="kdenlive:file_size">31469107</property>
  <property name="kdenlive:file_hash">aa4503b5048d466e4355acdf574f29bc</property>
  <property name="global_feed">1</property>
  <property name="meta.media.frame_rate_num">30150000</property>
  <property name="meta.media.frame_rate_den">1007593</property>
  <property name="meta.media.colorspace">601</property>
  <property name="meta.media.color_trc">6</property>
  <property name="meta.media.width">1920</property>
  <property name="meta.media.height">1080</property>
  <property name="meta.media.top_field_first">0</property>
  <property name="meta.media.progressive">1</property>
 </producer>
 <producer in="0" title="Anonymous Submission" id="83" out="15487">
  <property name="mlt_type">mlt_producer</property>
  <property name="length">00:08:36:08</property>
  <property name="eof">pause</property>
  <property name="resource">/opt/vlog/entrenamiento1/videos/VID_20190202_133913.mp4</property>
  <property name="audio_index">0</property>
  <property name="video_index">1</property>
  <property name="mute_on_pause">1</property>
  <property name="mlt_service">avformat-novalidate</property>
  <property name="meta.media.nb_streams">2</property>
  <property name="meta.media.0.stream.type">audio</property>
  <property name="meta.media.0.codec.sample_fmt">fltp</property>
  <property name="meta.media.0.codec.sample_rate">44100</property>
  <property name="meta.media.0.codec.channels">2</property>
  <property name="meta.media.0.codec.name">aac</property>
  <property name="meta.media.0.codec.long_name">AAC (Advanced Audio Coding)</property>
  <property name="meta.media.0.codec.bit_rate">191999</property>
  <property name="meta.attr.0.stream.creation_time.markup">2019-02-02 12:39:13</property>
  <property name="meta.attr.0.stream.language.markup">eng</property>
  <property name="meta.attr.0.stream.handler_name.markup">SoundHandle</property>
  <property name="meta.media.1.stream.type">video</property>
  <property name="meta.media.1.stream.frame_rate">30,0123</property>
  <property name="meta.media.1.stream.sample_aspect_ratio">1</property>
  <property name="meta.media.1.codec.width">1920</property>
  <property name="meta.media.1.codec.height">1080</property>
  <property name="meta.media.1.codec.rotate">0</property>
  <property name="meta.media.1.codec.frame_rate">90000</property>
  <property name="meta.media.1.codec.pix_fmt">yuvj420p</property>
  <property name="meta.media.1.codec.sample_aspect_ratio">0</property>
  <property name="meta.media.1.codec.colorspace">601</property>
  <property name="meta.media.1.codec.color_trc">6</property>
  <property name="meta.media.1.codec.name">h264</property>
  <property name="meta.media.1.codec.long_name">H.264 / AVC / MPEG-4 AVC / MPEG-4 part 10</property>
  <property name="meta.media.1.codec.bit_rate">22006863</property>
  <property name="meta.attr.1.stream.creation_time.markup">2019-02-02 12:39:13</property>
  <property name="meta.attr.1.stream.language.markup">eng</property>
  <property name="meta.attr.1.stream.handler_name.markup">VideoHandle</property>
  <property name="meta.attr.major_brand.markup">mp42</property>
  <property name="meta.attr.minor_version.markup">0</property>
  <property name="meta.attr.compatible_brands.markup">isommp42</property>
  <property name="meta.attr.creation_time.markup">2019-02-02 12:39:13</property>
  <property name="meta.attr.location.markup">+51.5184+007.3990/</property>
  <property name="meta.attr.location-eng.markup">+51.5184+007.3990/</property>
  <property name="seekable">1</property>
  <property name="meta.media.sample_aspect_num">1</property>
  <property name="meta.media.sample_aspect_den">1</property>
  <property name="aspect_ratio">1</property>
  <property name="kdenlive:folderid">1</property>
  <property name="kdenlive:file_size">1432713470</property>
  <property name="kdenlive:file_hash">1f0a354e03507ace4d8746a796067810</property>
  <property name="global_feed">1</property>
  <property name="meta.media.frame_rate_num">46482000</property>
  <property name="meta.media.frame_rate_den">1548763</property>
  <property name="meta.media.colorspace">601</property>
  <property name="meta.media.color_trc">6</property>
  <property name="meta.media.width">1920</property>
  <property name="meta.media.height">1080</property>
  <property name="meta.media.top_field_first">0</property>
  <property name="meta.media.progressive">1</property>
 </producer>
 <producer in="0" title="Anonymous Submission" id="84" out="1850">
  <property name="mlt_type">mlt_producer</property>
  <property name="length">00:01:01:21</property>
  <property name="eof">pause</property>
  <property name="resource">/opt/vlog/entrenamiento1/videos/VID_20190202_134040.mp4</property>
  <property name="audio_index">0</property>
  <property name="video_index">1</property>
  <property name="mute_on_pause">1</property>
  <property name="mlt_service">avformat-novalidate</property>
  <property name="meta.media.nb_streams">2</property>
  <property name="meta.media.0.stream.type">audio</property>
  <property name="meta.media.0.codec.sample_fmt">fltp</property>
  <property name="meta.media.0.codec.sample_rate">44100</property>
  <property name="meta.media.0.codec.channels">2</property>
  <property name="meta.media.0.codec.name">aac</property>
  <property name="meta.media.0.codec.long_name">AAC (Advanced Audio Coding)</property>
  <property name="meta.media.0.codec.bit_rate">191942</property>
  <property name="meta.attr.0.stream.creation_time.markup">2019-02-02 12:40:40</property>
  <property name="meta.attr.0.stream.language.markup">eng</property>
  <property name="meta.attr.0.stream.handler_name.markup">SoundHandle</property>
  <property name="meta.media.1.stream.type">video</property>
  <property name="meta.media.1.stream.frame_rate">30,0113</property>
  <property name="meta.media.1.stream.sample_aspect_ratio">1</property>
  <property name="meta.media.1.codec.width">1920</property>
  <property name="meta.media.1.codec.height">1080</property>
  <property name="meta.media.1.codec.rotate">0</property>
  <property name="meta.media.1.codec.frame_rate">90000</property>
  <property name="meta.media.1.codec.pix_fmt">yuvj420p</property>
  <property name="meta.media.1.codec.sample_aspect_ratio">0</property>
  <property name="meta.media.1.codec.colorspace">601</property>
  <property name="meta.media.1.codec.color_trc">6</property>
  <property name="meta.media.1.codec.name">h264</property>
  <property name="meta.media.1.codec.long_name">H.264 / AVC / MPEG-4 AVC / MPEG-4 part 10</property>
  <property name="meta.media.1.codec.bit_rate">22031958</property>
  <property name="meta.attr.1.stream.creation_time.markup">2019-02-02 12:40:40</property>
  <property name="meta.attr.1.stream.language.markup">eng</property>
  <property name="meta.attr.1.stream.handler_name.markup">VideoHandle</property>
  <property name="meta.attr.major_brand.markup">mp42</property>
  <property name="meta.attr.minor_version.markup">0</property>
  <property name="meta.attr.compatible_brands.markup">isommp42</property>
  <property name="meta.attr.creation_time.markup">2019-02-02 12:40:40</property>
  <property name="meta.attr.location.markup">+51.5225+007.4004/</property>
  <property name="meta.attr.location-eng.markup">+51.5225+007.4004/</property>
  <property name="seekable">1</property>
  <property name="meta.media.sample_aspect_num">1</property>
  <property name="meta.media.sample_aspect_den">1</property>
  <property name="aspect_ratio">1</property>
  <property name="kdenlive:folderid">1</property>
  <property name="kdenlive:file_size">171453512</property>
  <property name="kdenlive:file_hash">2c3611b4a3ee18d84691de4e8843ac10</property>
  <property name="global_feed">1</property>
  <property name="meta.media.frame_rate_num">166680000</property>
  <property name="meta.media.frame_rate_den">5553899</property>
  <property name="meta.media.colorspace">601</property>
  <property name="meta.media.color_trc">6</property>
  <property name="meta.media.width">1920</property>
  <property name="meta.media.height">1080</property>
  <property name="meta.media.top_field_first">0</property>
  <property name="meta.media.progressive">1</property>
 </producer>
 <producer in="0" title="Anonymous Submission" id="85" out="12881">
  <property name="mlt_type">mlt_producer</property>
  <property name="length">00:07:09:12</property>
  <property name="eof">pause</property>
  <property name="resource">/opt/vlog/entrenamiento1/videos/VID_20190202_140016.mp4</property>
  <property name="audio_index">0</property>
  <property name="video_index">1</property>
  <property name="mute_on_pause">1</property>
  <property name="mlt_service">avformat-novalidate</property>
  <property name="meta.media.nb_streams">2</property>
  <property name="meta.media.0.stream.type">audio</property>
  <property name="meta.media.0.codec.sample_fmt">fltp</property>
  <property name="meta.media.0.codec.sample_rate">44100</property>
  <property name="meta.media.0.codec.channels">2</property>
  <property name="meta.media.0.codec.name">aac</property>
  <property name="meta.media.0.codec.long_name">AAC (Advanced Audio Coding)</property>
  <property name="meta.media.0.codec.bit_rate">191998</property>
  <property name="meta.attr.0.stream.creation_time.markup">2019-02-02 13:00:15</property>
  <property name="meta.attr.0.stream.language.markup">eng</property>
  <property name="meta.attr.0.stream.handler_name.markup">SoundHandle</property>
  <property name="meta.media.1.stream.type">video</property>
  <property name="meta.media.1.stream.frame_rate">30,0116</property>
  <property name="meta.media.1.stream.sample_aspect_ratio">1</property>
  <property name="meta.media.1.codec.width">1920</property>
  <property name="meta.media.1.codec.height">1080</property>
  <property name="meta.media.1.codec.rotate">0</property>
  <property name="meta.media.1.codec.frame_rate">90000</property>
  <property name="meta.media.1.codec.pix_fmt">yuvj420p</property>
  <property name="meta.media.1.codec.sample_aspect_ratio">0</property>
  <property name="meta.media.1.codec.colorspace">601</property>
  <property name="meta.media.1.codec.color_trc">6</property>
  <property name="meta.media.1.codec.name">h264</property>
  <property name="meta.media.1.codec.long_name">H.264 / AVC / MPEG-4 AVC / MPEG-4 part 10</property>
  <property name="meta.media.1.codec.bit_rate">22002252</property>
  <property name="meta.attr.1.stream.creation_time.markup">2019-02-02 13:00:15</property>
  <property name="meta.attr.1.stream.language.markup">eng</property>
  <property name="meta.attr.1.stream.handler_name.markup">VideoHandle</property>
  <property name="meta.attr.major_brand.markup">mp42</property>
  <property name="meta.attr.minor_version.markup">0</property>
  <property name="meta.attr.compatible_brands.markup">isommp42</property>
  <property name="meta.attr.creation_time.markup">2019-02-02 13:00:15</property>
  <property name="meta.attr.location.markup">+51.5225+007.4004/</property>
  <property name="meta.attr.location-eng.markup">+51.5225+007.4004/</property>
  <property name="seekable">1</property>
  <property name="meta.media.sample_aspect_num">1</property>
  <property name="meta.media.sample_aspect_den">1</property>
  <property name="aspect_ratio">1</property>
  <property name="kdenlive:folderid">1</property>
  <property name="kdenlive:file_size">1191419173</property>
  <property name="kdenlive:file_hash">b13cda36433526fcdb802ad8d8dd96df</property>
  <property name="global_feed">1</property>
  <property name="meta.media.frame_rate_num">231966000</property>
  <property name="meta.media.frame_rate_den">7729213</property>
  <property name="meta.media.colorspace">601</property>
  <property name="meta.media.color_trc">6</property>
  <property name="meta.media.width">1920</property>
  <property name="meta.media.height">1080</property>
  <property name="meta.media.top_field_first">0</property>
  <property name="meta.media.progressive">1</property>
 </producer>
 <producer in="0" title="Anonymous Submission" id="86" out="802">
  <property name="mlt_type">mlt_producer</property>
  <property name="length">00:00:26:23</property>
  <property name="eof">pause</property>
  <property name="resource">/opt/vlog/entrenamiento1/videos/VID_20190202_140402.mp4</property>
  <property name="audio_index">0</property>
  <property name="video_index">1</property>
  <property name="mute_on_pause">1</property>
  <property name="mlt_service">avformat-novalidate</property>
  <property name="meta.media.nb_streams">2</property>
  <property name="meta.media.0.stream.type">audio</property>
  <property name="meta.media.0.codec.sample_fmt">fltp</property>
  <property name="meta.media.0.codec.sample_rate">44100</property>
  <property name="meta.media.0.codec.channels">2</property>
  <property name="meta.media.0.codec.name">aac</property>
  <property name="meta.media.0.codec.long_name">AAC (Advanced Audio Coding)</property>
  <property name="meta.media.0.codec.bit_rate">191896</property>
  <property name="meta.attr.0.stream.creation_time.markup">2019-02-02 13:04:02</property>
  <property name="meta.attr.0.stream.language.markup">eng</property>
  <property name="meta.attr.0.stream.handler_name.markup">SoundHandle</property>
  <property name="meta.media.1.stream.type">video</property>
  <property name="meta.media.1.stream.frame_rate">30,0174</property>
  <property name="meta.media.1.stream.sample_aspect_ratio">1</property>
  <property name="meta.media.1.codec.width">1920</property>
  <property name="meta.media.1.codec.height">1080</property>
  <property name="meta.media.1.codec.rotate">0</property>
  <property name="meta.media.1.codec.frame_rate">90000</property>
  <property name="meta.media.1.codec.pix_fmt">yuvj420p</property>
  <property name="meta.media.1.codec.sample_aspect_ratio">0</property>
  <property name="meta.media.1.codec.colorspace">601</property>
  <property name="meta.media.1.codec.color_trc">6</property>
  <property name="meta.media.1.codec.name">h264</property>
  <property name="meta.media.1.codec.long_name">H.264 / AVC / MPEG-4 AVC / MPEG-4 part 10</property>
  <property name="meta.media.1.codec.bit_rate">22026078</property>
  <property name="meta.attr.1.stream.creation_time.markup">2019-02-02 13:04:02</property>
  <property name="meta.attr.1.stream.language.markup">eng</property>
  <property name="meta.attr.1.stream.handler_name.markup">VideoHandle</property>
  <property name="meta.attr.major_brand.markup">mp42</property>
  <property name="meta.attr.minor_version.markup">0</property>
  <property name="meta.attr.compatible_brands.markup">isommp42</property>
  <property name="meta.attr.creation_time.markup">2019-02-02 13:04:02</property>
  <property name="meta.attr.location.markup">+51.5188+007.4011/</property>
  <property name="meta.attr.location-eng.markup">+51.5188+007.4011/</property>
  <property name="seekable">1</property>
  <property name="meta.media.sample_aspect_num">1</property>
  <property name="meta.media.sample_aspect_den">1</property>
  <property name="aspect_ratio">1</property>
  <property name="kdenlive:folderid">1</property>
  <property name="kdenlive:file_size">74307776</property>
  <property name="kdenlive:file_hash">2aaed4185c84128679b04e545ce36083</property>
  <property name="global_feed">1</property>
  <property name="meta.media.frame_rate_num">36135000</property>
  <property name="meta.media.frame_rate_den">1203803</property>
  <property name="meta.media.colorspace">601</property>
  <property name="meta.media.color_trc">6</property>
  <property name="meta.media.width">1920</property>
  <property name="meta.media.height">1080</property>
  <property name="meta.media.top_field_first">0</property>
  <property name="meta.media.progressive">1</property>
 </producer>
 <producer in="0" title="Anonymous Submission" id="87" out="202">
  <property name="mlt_type">mlt_producer</property>
  <property name="length">00:00:06:23</property>
  <property name="eof">pause</property>
  <property name="resource">/opt/vlog/entrenamiento1/videos/VID_20190202_140411.mp4</property>
  <property name="audio_index">0</property>
  <property name="video_index">1</property>
  <property name="mute_on_pause">1</property>
  <property name="mlt_service">avformat-novalidate</property>
  <property name="meta.media.nb_streams">2</property>
  <property name="meta.media.0.stream.type">audio</property>
  <property name="meta.media.0.codec.sample_fmt">fltp</property>
  <property name="meta.media.0.codec.sample_rate">44100</property>
  <property name="meta.media.0.codec.channels">2</property>
  <property name="meta.media.0.codec.name">aac</property>
  <property name="meta.media.0.codec.long_name">AAC (Advanced Audio Coding)</property>
  <property name="meta.media.0.codec.bit_rate">191985</property>
  <property name="meta.attr.0.stream.creation_time.markup">2019-02-02 13:04:10</property>
  <property name="meta.attr.0.stream.language.markup">eng</property>
  <property name="meta.attr.0.stream.handler_name.markup">SoundHandle</property>
  <property name="meta.media.1.stream.type">video</property>
  <property name="meta.media.1.stream.frame_rate">30,0132</property>
  <property name="meta.media.1.stream.sample_aspect_ratio">1</property>
  <property name="meta.media.1.codec.width">1920</property>
  <property name="meta.media.1.codec.height">1080</property>
  <property name="meta.media.1.codec.rotate">0</property>
  <property name="meta.media.1.codec.frame_rate">90000</property>
  <property name="meta.media.1.codec.pix_fmt">yuvj420p</property>
  <property name="meta.media.1.codec.sample_aspect_ratio">0</property>
  <property name="meta.media.1.codec.colorspace">601</property>
  <property name="meta.media.1.codec.color_trc">6</property>
  <property name="meta.media.1.codec.name">h264</property>
  <property name="meta.media.1.codec.long_name">H.264 / AVC / MPEG-4 AVC / MPEG-4 part 10</property>
  <property name="meta.media.1.codec.bit_rate">22583956</property>
  <property name="meta.attr.1.stream.creation_time.markup">2019-02-02 13:04:10</property>
  <property name="meta.attr.1.stream.language.markup">eng</property>
  <property name="meta.attr.1.stream.handler_name.markup">VideoHandle</property>
  <property name="meta.attr.major_brand.markup">mp42</property>
  <property name="meta.attr.minor_version.markup">0</property>
  <property name="meta.attr.compatible_brands.markup">isommp42</property>
  <property name="meta.attr.creation_time.markup">2019-02-02 13:04:10</property>
  <property name="meta.attr.location.markup">+51.5187+007.4010/</property>
  <property name="meta.attr.location-eng.markup">+51.5187+007.4010/</property>
  <property name="seekable">1</property>
  <property name="meta.media.sample_aspect_num">1</property>
  <property name="meta.media.sample_aspect_den">1</property>
  <property name="aspect_ratio">1</property>
  <property name="kdenlive:folderid">1</property>
  <property name="kdenlive:file_size">19262713</property>
  <property name="kdenlive:file_hash">09628d40f6759af2a89be9af8ff72987</property>
  <property name="global_feed">1</property>
  <property name="meta.media.frame_rate_num">2030000</property>
  <property name="meta.media.frame_rate_den">67637</property>
  <property name="meta.media.colorspace">601</property>
  <property name="meta.media.color_trc">6</property>
  <property name="meta.media.width">1920</property>
  <property name="meta.media.height">1080</property>
  <property name="meta.media.top_field_first">0</property>
  <property name="meta.media.progressive">1</property>
 </producer>
 <producer in="0" title="Anonymous Submission" id="88" out="24144">
  <property name="mlt_type">mlt_producer</property>
  <property name="length">00:13:24:25</property>
  <property name="eof">pause</property>
  <property name="resource">/opt/vlog/entrenamiento1/videos/VID_20190202_143005.mp4</property>
  <property name="audio_index">0</property>
  <property name="video_index">1</property>
  <property name="mute_on_pause">1</property>
  <property name="mlt_service">avformat-novalidate</property>
  <property name="meta.media.nb_streams">2</property>
  <property name="meta.media.0.stream.type">audio</property>
  <property name="meta.media.0.codec.sample_fmt">fltp</property>
  <property name="meta.media.0.codec.sample_rate">44100</property>
  <property name="meta.media.0.codec.channels">2</property>
  <property name="meta.media.0.codec.name">aac</property>
  <property name="meta.media.0.codec.long_name">AAC (Advanced Audio Coding)</property>
  <property name="meta.media.0.codec.bit_rate">191997</property>
  <property name="meta.attr.0.stream.creation_time.markup">2019-02-02 13:30:05</property>
  <property name="meta.attr.0.stream.language.markup">eng</property>
  <property name="meta.attr.0.stream.handler_name.markup">SoundHandle</property>
  <property name="meta.media.1.stream.type">video</property>
  <property name="meta.media.1.stream.frame_rate">30,012</property>
  <property name="meta.media.1.stream.sample_aspect_ratio">1</property>
  <property name="meta.media.1.codec.width">1920</property>
  <property name="meta.media.1.codec.height">1080</property>
  <property name="meta.media.1.codec.rotate">0</property>
  <property name="meta.media.1.codec.frame_rate">90000</property>
  <property name="meta.media.1.codec.pix_fmt">yuvj420p</property>
  <property name="meta.media.1.codec.sample_aspect_ratio">0</property>
  <property name="meta.media.1.codec.colorspace">601</property>
  <property name="meta.media.1.codec.color_trc">6</property>
  <property name="meta.media.1.codec.name">h264</property>
  <property name="meta.media.1.codec.long_name">H.264 / AVC / MPEG-4 AVC / MPEG-4 part 10</property>
  <property name="meta.media.1.codec.bit_rate">22004752</property>
  <property name="meta.attr.1.stream.creation_time.markup">2019-02-02 13:30:05</property>
  <property name="meta.attr.1.stream.language.markup">eng</property>
  <property name="meta.attr.1.stream.handler_name.markup">VideoHandle</property>
  <property name="meta.attr.major_brand.markup">mp42</property>
  <property name="meta.attr.minor_version.markup">0</property>
  <property name="meta.attr.compatible_brands.markup">isommp42</property>
  <property name="meta.attr.creation_time.markup">2019-02-02 13:30:05</property>
  <property name="meta.attr.location.markup">+51.5190+007.4016/</property>
  <property name="meta.attr.location-eng.markup">+51.5190+007.4016/</property>
  <property name="seekable">1</property>
  <property name="meta.media.sample_aspect_num">1</property>
  <property name="meta.media.sample_aspect_den">1</property>
  <property name="aspect_ratio">1</property>
  <property name="kdenlive:folderid">1</property>
  <property name="kdenlive:file_size">2233387928</property>
  <property name="kdenlive:file_hash">aec056a458604487146a80b48484766b</property>
  <property name="global_feed">1</property>
  <property name="meta.media.frame_rate_num">135871875</property>
  <property name="meta.media.frame_rate_den">4527253</property>
  <property name="meta.media.colorspace">601</property>
  <property name="meta.media.color_trc">6</property>
  <property name="meta.media.width">1920</property>
  <property name="meta.media.height">1080</property>
  <property name="meta.media.top_field_first">0</property>
  <property name="meta.media.progressive">1</property>
 </producer>
 <producer in="0" title="Anonymous Submission" id="89" out="2903">
  <property name="mlt_type">mlt_producer</property>
  <property name="length">00:01:36:24</property>
  <property name="eof">pause</property>
  <property name="resource">/opt/vlog/entrenamiento1/videos/VID_20190202_143439.mp4</property>
  <property name="audio_index">0</property>
  <property name="video_index">1</property>
  <property name="mute_on_pause">1</property>
  <property name="mlt_service">avformat-novalidate</property>
  <property name="meta.media.nb_streams">2</property>
  <property name="meta.media.0.stream.type">audio</property>
  <property name="meta.media.0.codec.sample_fmt">fltp</property>
  <property name="meta.media.0.codec.sample_rate">44100</property>
  <property name="meta.media.0.codec.channels">2</property>
  <property name="meta.media.0.codec.name">aac</property>
  <property name="meta.media.0.codec.long_name">AAC (Advanced Audio Coding)</property>
  <property name="meta.media.0.codec.bit_rate">192001</property>
  <property name="meta.attr.0.stream.creation_time.markup">2019-02-02 13:34:39</property>
  <property name="meta.attr.0.stream.language.markup">eng</property>
  <property name="meta.attr.0.stream.handler_name.markup">SoundHandle</property>
  <property name="meta.media.1.stream.type">video</property>
  <property name="meta.media.1.stream.frame_rate">30,0121</property>
  <property name="meta.media.1.stream.sample_aspect_ratio">1</property>
  <property name="meta.media.1.codec.width">1920</property>
  <property name="meta.media.1.codec.height">1080</property>
  <property name="meta.media.1.codec.rotate">0</property>
  <property name="meta.media.1.codec.frame_rate">90000</property>
  <property name="meta.media.1.codec.pix_fmt">yuvj420p</property>
  <property name="meta.media.1.codec.sample_aspect_ratio">0</property>
  <property name="meta.media.1.codec.colorspace">601</property>
  <property name="meta.media.1.codec.color_trc">6</property>
  <property name="meta.media.1.codec.name">h264</property>
  <property name="meta.media.1.codec.long_name">H.264 / AVC / MPEG-4 AVC / MPEG-4 part 10</property>
  <property name="meta.media.1.codec.bit_rate">22030841</property>
  <property name="meta.attr.1.stream.creation_time.markup">2019-02-02 13:34:39</property>
  <property name="meta.attr.1.stream.language.markup">eng</property>
  <property name="meta.attr.1.stream.handler_name.markup">VideoHandle</property>
  <property name="meta.attr.major_brand.markup">mp42</property>
  <property name="meta.attr.minor_version.markup">0</property>
  <property name="meta.attr.compatible_brands.markup">isommp42</property>
  <property name="meta.attr.creation_time.markup">2019-02-02 13:34:39</property>
  <property name="meta.attr.location.markup">+51.5190+007.4025/</property>
  <property name="meta.attr.location-eng.markup">+51.5190+007.4025/</property>
  <property name="seekable">1</property>
  <property name="meta.media.sample_aspect_num">1</property>
  <property name="meta.media.sample_aspect_den">1</property>
  <property name="aspect_ratio">1</property>
  <property name="kdenlive:folderid">1</property>
  <property name="kdenlive:file_size">268917747</property>
  <property name="kdenlive:file_hash">48cbecbe62cb6da4a73dce7d52d9d47f</property>
  <property name="global_feed">1</property>
  <property name="meta.media.frame_rate_num">52290000</property>
  <property name="meta.media.frame_rate_den">1742299</property>
  <property name="meta.media.colorspace">601</property>
  <property name="meta.media.color_trc">6</property>
  <property name="meta.media.width">1920</property>
  <property name="meta.media.height">1080</property>
  <property name="meta.media.top_field_first">0</property>
  <property name="meta.media.progressive">1</property>
 </producer>
 <producer in="0" title="Anonymous Submission" id="9" out="5601">
  <property name="mlt_type">mlt_producer</property>
  <property name="length">00:03:06:22</property>
  <property name="eof">pause</property>
  <property name="resource">/opt/vlog/musica/bensound-beyondtheline.mp3</property>
  <property name="audio_index">0</property>
  <property name="video_index">-1</property>
  <property name="mute_on_pause">1</property>
  <property name="mlt_service">avformat-novalidate</property>
  <property name="meta.media.nb_streams">1</property>
  <property name="meta.media.0.stream.type">audio</property>
  <property name="meta.media.0.codec.sample_fmt">s16p</property>
  <property name="meta.media.0.codec.sample_rate">44100</property>
  <property name="meta.media.0.codec.channels">2</property>
  <property name="meta.media.0.codec.name">mp3</property>
  <property name="meta.media.0.codec.long_name">MP3 (MPEG audio layer 3)</property>
  <property name="meta.media.0.codec.bit_rate">192000</property>
  <property name="seekable">1</property>
  <property name="kdenlive:folderid">3</property>
  <property name="kdenlive:file_size">4481985</property>
  <property name="kdenlive:file_hash">445115fbed9c6e8f816d747bf22b4a36</property>
  <property name="global_feed">1</property>
 </producer>
 <producer in="0" title="Anonymous Submission" id="90" out="465">
  <property name="mlt_type">mlt_producer</property>
  <property name="length">00:00:15:16</property>
  <property name="eof">pause</property>
  <property name="resource">/opt/vlog/entrenamiento1/videos/VID_20190202_143615.mp4</property>
  <property name="audio_index">0</property>
  <property name="video_index">1</property>
  <property name="mute_on_pause">1</property>
  <property name="mlt_service">avformat-novalidate</property>
  <property name="meta.media.nb_streams">2</property>
  <property name="meta.media.0.stream.type">audio</property>
  <property name="meta.media.0.codec.sample_fmt">fltp</property>
  <property name="meta.media.0.codec.sample_rate">44100</property>
  <property name="meta.media.0.codec.channels">2</property>
  <property name="meta.media.0.codec.name">aac</property>
  <property name="meta.media.0.codec.long_name">AAC (Advanced Audio Coding)</property>
  <property name="meta.media.0.codec.bit_rate">191856</property>
  <property name="meta.attr.0.stream.creation_time.markup">2019-02-02 13:36:14</property>
  <property name="meta.attr.0.stream.language.markup">eng</property>
  <property name="meta.attr.0.stream.handler_name.markup">SoundHandle</property>
  <property name="meta.media.1.stream.type">video</property>
  <property name="meta.media.1.stream.frame_rate">30,0122</property>
  <property name="meta.media.1.stream.sample_aspect_ratio">1</property>
  <property name="meta.media.1.codec.width">1920</property>
  <property name="meta.media.1.codec.height">1080</property>
  <property name="meta.media.1.codec.rotate">0</property>
  <property name="meta.media.1.codec.frame_rate">90000</property>
  <property name="meta.media.1.codec.pix_fmt">yuvj420p</property>
  <property name="meta.media.1.codec.sample_aspect_ratio">0</property>
  <property name="meta.media.1.codec.colorspace">601</property>
  <property name="meta.media.1.codec.color_trc">6</property>
  <property name="meta.media.1.codec.name">h264</property>
  <property name="meta.media.1.codec.long_name">H.264 / AVC / MPEG-4 AVC / MPEG-4 part 10</property>
  <property name="meta.media.1.codec.bit_rate">22059971</property>
  <property name="meta.attr.1.stream.creation_time.markup">2019-02-02 13:36:14</property>
  <property name="meta.attr.1.stream.language.markup">eng</property>
  <property name="meta.attr.1.stream.handler_name.markup">VideoHandle</property>
  <property name="meta.attr.major_brand.markup">mp42</property>
  <property name="meta.attr.minor_version.markup">0</property>
  <property name="meta.attr.compatible_brands.markup">isommp42</property>
  <property name="meta.attr.creation_time.markup">2019-02-02 13:36:14</property>
  <property name="meta.attr.location.markup">+51.5189+007.4025/</property>
  <property name="meta.attr.location-eng.markup">+51.5189+007.4025/</property>
  <property name="seekable">1</property>
  <property name="meta.media.sample_aspect_num">1</property>
  <property name="meta.media.sample_aspect_den">1</property>
  <property name="aspect_ratio">1</property>
  <property name="kdenlive:folderid">1</property>
  <property name="kdenlive:file_size">43197621</property>
  <property name="kdenlive:file_hash">00d05bc0b46e0806158ee30294442478</property>
  <property name="global_feed">1</property>
  <property name="meta.media.frame_rate_num">466000</property>
  <property name="meta.media.frame_rate_den">15527</property>
  <property name="meta.media.colorspace">601</property>
  <property name="meta.media.color_trc">6</property>
  <property name="meta.media.width">1920</property>
  <property name="meta.media.height">1080</property>
  <property name="meta.media.top_field_first">0</property>
  <property name="meta.media.progressive">1</property>
 </producer>
 <producer in="0" title="Anonymous Submission" id="91" out="1781">
  <property name="mlt_type">mlt_producer</property>
  <property name="length">00:00:59:12</property>
  <property name="eof">pause</property>
  <property name="resource">/opt/vlog/entrenamiento1/videos/VID_20190202_145953.mp4</property>
  <property name="audio_index">0</property>
  <property name="video_index">1</property>
  <property name="mute_on_pause">1</property>
  <property name="mlt_service">avformat-novalidate</property>
  <property name="meta.media.nb_streams">2</property>
  <property name="meta.media.0.stream.type">audio</property>
  <property name="meta.media.0.codec.sample_fmt">fltp</property>
  <property name="meta.media.0.codec.sample_rate">44100</property>
  <property name="meta.media.0.codec.channels">2</property>
  <property name="meta.media.0.codec.name">aac</property>
  <property name="meta.media.0.codec.long_name">AAC (Advanced Audio Coding)</property>
  <property name="meta.media.0.codec.bit_rate">191940</property>
  <property name="meta.attr.0.stream.creation_time.markup">2019-02-02 13:59:53</property>
  <property name="meta.attr.0.stream.language.markup">eng</property>
  <property name="meta.attr.0.stream.handler_name.markup">SoundHandle</property>
  <property name="meta.media.1.stream.type">video</property>
  <property name="meta.media.1.stream.frame_rate">30,0113</property>
  <property name="meta.media.1.stream.sample_aspect_ratio">1</property>
  <property name="meta.media.1.codec.width">1920</property>
  <property name="meta.media.1.codec.height">1080</property>
  <property name="meta.media.1.codec.rotate">0</property>
  <property name="meta.media.1.codec.frame_rate">90000</property>
  <property name="meta.media.1.codec.pix_fmt">yuvj420p</property>
  <property name="meta.media.1.codec.sample_aspect_ratio">0</property>
  <property name="meta.media.1.codec.colorspace">601</property>
  <property name="meta.media.1.codec.color_trc">6</property>
  <property name="meta.media.1.codec.name">h264</property>
  <property name="meta.media.1.codec.long_name">H.264 / AVC / MPEG-4 AVC / MPEG-4 part 10</property>
  <property name="meta.media.1.codec.bit_rate">22049767</property>
  <property name="meta.attr.1.stream.creation_time.markup">2019-02-02 13:59:53</property>
  <property name="meta.attr.1.stream.language.markup">eng</property>
  <property name="meta.attr.1.stream.handler_name.markup">VideoHandle</property>
  <property name="meta.attr.major_brand.markup">mp42</property>
  <property name="meta.attr.minor_version.markup">0</property>
  <property name="meta.attr.compatible_brands.markup">isommp42</property>
  <property name="meta.attr.creation_time.markup">2019-02-02 13:59:53</property>
  <property name="meta.attr.location.markup">+51.5202+007.4015/</property>
  <property name="meta.attr.location-eng.markup">+51.5202+007.4015/</property>
  <property name="seekable">1</property>
  <property name="meta.media.sample_aspect_num">1</property>
  <property name="meta.media.sample_aspect_den">1</property>
  <property name="aspect_ratio">1</property>
  <property name="kdenlive:folderid">1</property>
  <property name="kdenlive:file_size">165199773</property>
  <property name="kdenlive:file_hash">6c8af210827b8ed8c5c2c564fdeb278c</property>
  <property name="global_feed">1</property>
  <property name="meta.media.frame_rate_num">10029375</property>
  <property name="meta.media.frame_rate_den">334187</property>
  <property name="meta.media.colorspace">601</property>
  <property name="meta.media.color_trc">6</property>
  <property name="meta.media.width">1920</property>
  <property name="meta.media.height">1080</property>
  <property name="meta.media.top_field_first">0</property>
  <property name="meta.media.progressive">1</property>
 </producer>
 <producer in="0" title="Anonymous Submission" id="92" out="1544">
  <property name="mlt_type">mlt_producer</property>
  <property name="length">00:00:51:15</property>
  <property name="eof">pause</property>
  <property name="resource">/opt/vlog/entrenamiento1/videos/VID_20190202_150450.mp4</property>
  <property name="audio_index">0</property>
  <property name="video_index">1</property>
  <property name="mute_on_pause">1</property>
  <property name="mlt_service">avformat-novalidate</property>
  <property name="meta.media.nb_streams">2</property>
  <property name="meta.media.0.stream.type">audio</property>
  <property name="meta.media.0.codec.sample_fmt">fltp</property>
  <property name="meta.media.0.codec.sample_rate">44100</property>
  <property name="meta.media.0.codec.channels">2</property>
  <property name="meta.media.0.codec.name">aac</property>
  <property name="meta.media.0.codec.long_name">AAC (Advanced Audio Coding)</property>
  <property name="meta.media.0.codec.bit_rate">192018</property>
  <property name="meta.attr.0.stream.creation_time.markup">2019-02-02 14:04:50</property>
  <property name="meta.attr.0.stream.language.markup">eng</property>
  <property name="meta.attr.0.stream.handler_name.markup">SoundHandle</property>
  <property name="meta.media.1.stream.type">video</property>
  <property name="meta.media.1.stream.frame_rate">30,013</property>
  <property name="meta.media.1.stream.sample_aspect_ratio">1</property>
  <property name="meta.media.1.codec.width">1920</property>
  <property name="meta.media.1.codec.height">1080</property>
  <property name="meta.media.1.codec.rotate">0</property>
  <property name="meta.media.1.codec.frame_rate">90000</property>
  <property name="meta.media.1.codec.pix_fmt">yuvj420p</property>
  <property name="meta.media.1.codec.sample_aspect_ratio">0</property>
  <property name="meta.media.1.codec.colorspace">601</property>
  <property name="meta.media.1.codec.color_trc">6</property>
  <property name="meta.media.1.codec.name">h264</property>
  <property name="meta.media.1.codec.long_name">H.264 / AVC / MPEG-4 AVC / MPEG-4 part 10</property>
  <property name="meta.media.1.codec.bit_rate">22090967</property>
  <property name="meta.attr.1.stream.creation_time.markup">2019-02-02 14:04:50</property>
  <property name="meta.attr.1.stream.language.markup">eng</property>
  <property name="meta.attr.1.stream.handler_name.markup">VideoHandle</property>
  <property name="meta.attr.major_brand.markup">mp42</property>
  <property name="meta.attr.minor_version.markup">0</property>
  <property name="meta.attr.compatible_brands.markup">isommp42</property>
  <property name="meta.attr.creation_time.markup">2019-02-02 14:04:50</property>
  <property name="meta.attr.location.markup">+51.5202+007.4015/</property>
  <property name="meta.attr.location-eng.markup">+51.5202+007.4015/</property>
  <property name="seekable">1</property>
  <property name="meta.media.sample_aspect_num">1</property>
  <property name="meta.media.sample_aspect_den">1</property>
  <property name="aspect_ratio">1</property>
  <property name="kdenlive:folderid">1</property>
  <property name="kdenlive:file_size">143500077</property>
  <property name="kdenlive:file_hash">a791c7ffa19c18528ebb86469ab3228a</property>
  <property name="global_feed">1</property>
  <property name="meta.media.frame_rate_num">17392500</property>
  <property name="meta.media.frame_rate_den">579499</property>
  <property name="meta.media.colorspace">601</property>
  <property name="meta.media.color_trc">6</property>
  <property name="meta.media.width">1920</property>
  <property name="meta.media.height">1080</property>
  <property name="meta.media.top_field_first">0</property>
  <property name="meta.media.progressive">1</property>
 </producer>
 <producer in="0" title="Anonymous Submission" id="93" out="1222">
  <property name="mlt_type">mlt_producer</property>
  <property name="length">00:00:40:23</property>
  <property name="eof">pause</property>
  <property name="resource">/opt/vlog/entrenamiento1/videos/VID_20190202_150803.mp4</property>
  <property name="audio_index">0</property>
  <property name="video_index">1</property>
  <property name="mute_on_pause">1</property>
  <property name="mlt_service">avformat-novalidate</property>
  <property name="meta.media.nb_streams">2</property>
  <property name="meta.media.0.stream.type">audio</property>
  <property name="meta.media.0.codec.sample_fmt">fltp</property>
  <property name="meta.media.0.codec.sample_rate">44100</property>
  <property name="meta.media.0.codec.channels">2</property>
  <property name="meta.media.0.codec.name">aac</property>
  <property name="meta.media.0.codec.long_name">AAC (Advanced Audio Coding)</property>
  <property name="meta.media.0.codec.bit_rate">191987</property>
  <property name="meta.attr.0.stream.creation_time.markup">2019-02-02 14:08:03</property>
  <property name="meta.attr.0.stream.language.markup">eng</property>
  <property name="meta.attr.0.stream.handler_name.markup">SoundHandle</property>
  <property name="meta.media.1.stream.type">video</property>
  <property name="meta.media.1.stream.frame_rate">30,0127</property>
  <property name="meta.media.1.stream.sample_aspect_ratio">1</property>
  <property name="meta.media.1.codec.width">1920</property>
  <property name="meta.media.1.codec.height">1080</property>
  <property name="meta.media.1.codec.rotate">0</property>
  <property name="meta.media.1.codec.frame_rate">90000</property>
  <property name="meta.media.1.codec.pix_fmt">yuvj420p</property>
  <property name="meta.media.1.codec.sample_aspect_ratio">0</property>
  <property name="meta.media.1.codec.colorspace">601</property>
  <property name="meta.media.1.codec.color_trc">6</property>
  <property name="meta.media.1.codec.name">h264</property>
  <property name="meta.media.1.codec.long_name">H.264 / AVC / MPEG-4 AVC / MPEG-4 part 10</property>
  <property name="meta.media.1.codec.bit_rate">22142526</property>
  <property name="meta.attr.1.stream.creation_time.markup">2019-02-02 14:08:03</property>
  <property name="meta.attr.1.stream.language.markup">eng</property>
  <property name="meta.attr.1.stream.handler_name.markup">VideoHandle</property>
  <property name="meta.attr.major_brand.markup">mp42</property>
  <property name="meta.attr.minor_version.markup">0</property>
  <property name="meta.attr.compatible_brands.markup">isommp42</property>
  <property name="meta.attr.creation_time.markup">2019-02-02 14:08:03</property>
  <property name="meta.attr.location.markup">+51.5190+007.4023/</property>
  <property name="meta.attr.location-eng.markup">+51.5190+007.4023/</property>
  <property name="seekable">1</property>
  <property name="meta.media.sample_aspect_num">1</property>
  <property name="meta.media.sample_aspect_den">1</property>
  <property name="aspect_ratio">1</property>
  <property name="kdenlive:folderid">1</property>
  <property name="kdenlive:file_size">113875885</property>
  <property name="kdenlive:file_hash">a5371e9c11e02c4eff7f16747452c8a8</property>
  <property name="global_feed">1</property>
  <property name="meta.media.frame_rate_num">3060000</property>
  <property name="meta.media.frame_rate_den">101957</property>
  <property name="meta.media.colorspace">601</property>
  <property name="meta.media.color_trc">6</property>
  <property name="meta.media.width">1920</property>
  <property name="meta.media.height">1080</property>
  <property name="meta.media.top_field_first">0</property>
  <property name="meta.media.progressive">1</property>
 </producer>
 <producer in="0" title="Anonymous Submission" id="94" out="3044">
  <property name="mlt_type">mlt_producer</property>
  <property name="length">00:01:41:15</property>
  <property name="eof">pause</property>
  <property name="resource">/opt/vlog/entrenamiento1/videos/VID_20190202_151106.mp4</property>
  <property name="audio_index">0</property>
  <property name="video_index">1</property>
  <property name="mute_on_pause">1</property>
  <property name="mlt_service">avformat-novalidate</property>
  <property name="meta.media.nb_streams">2</property>
  <property name="meta.media.0.stream.type">audio</property>
  <property name="meta.media.0.codec.sample_fmt">fltp</property>
  <property name="meta.media.0.codec.sample_rate">44100</property>
  <property name="meta.media.0.codec.channels">2</property>
  <property name="meta.media.0.codec.name">aac</property>
  <property name="meta.media.0.codec.long_name">AAC (Advanced Audio Coding)</property>
  <property name="meta.media.0.codec.bit_rate">191950</property>
  <property name="meta.attr.0.stream.creation_time.markup">2019-02-02 14:11:06</property>
  <property name="meta.attr.0.stream.language.markup">eng</property>
  <property name="meta.attr.0.stream.handler_name.markup">SoundHandle</property>
  <property name="meta.media.1.stream.type">video</property>
  <property name="meta.media.1.stream.frame_rate">30,0121</property>
  <property name="meta.media.1.stream.sample_aspect_ratio">1</property>
  <property name="meta.media.1.codec.width">1920</property>
  <property name="meta.media.1.codec.height">1080</property>
  <property name="meta.media.1.codec.rotate">0</property>
  <property name="meta.media.1.codec.frame_rate">90000</property>
  <property name="meta.media.1.codec.pix_fmt">yuvj420p</property>
  <property name="meta.media.1.codec.sample_aspect_ratio">0</property>
  <property name="meta.media.1.codec.colorspace">601</property>
  <property name="meta.media.1.codec.color_trc">6</property>
  <property name="meta.media.1.codec.name">h264</property>
  <property name="meta.media.1.codec.long_name">H.264 / AVC / MPEG-4 AVC / MPEG-4 part 10</property>
  <property name="meta.media.1.codec.bit_rate">22019025</property>
  <property name="meta.attr.1.stream.creation_time.markup">2019-02-02 14:11:06</property>
  <property name="meta.attr.1.stream.language.markup">eng</property>
  <property name="meta.attr.1.stream.handler_name.markup">VideoHandle</property>
  <property name="meta.attr.major_brand.markup">mp42</property>
  <property name="meta.attr.minor_version.markup">0</property>
  <property name="meta.attr.compatible_brands.markup">isommp42</property>
  <property name="meta.attr.creation_time.markup">2019-02-02 14:11:06</property>
  <property name="meta.attr.location.markup">+51.5190+007.4025/</property>
  <property name="meta.attr.location-eng.markup">+51.5190+007.4025/</property>
  <property name="seekable">1</property>
  <property name="meta.media.sample_aspect_num">1</property>
  <property name="meta.media.sample_aspect_den">1</property>
  <property name="aspect_ratio">1</property>
  <property name="kdenlive:folderid">1</property>
  <property name="kdenlive:file_size">281818417</property>
  <property name="kdenlive:file_hash">79160a19ed0f10c7740289be28068f16</property>
  <property name="global_feed">1</property>
  <property name="meta.media.frame_rate_num">9138000</property>
  <property name="meta.media.frame_rate_den">304477</property>
  <property name="meta.media.colorspace">601</property>
  <property name="meta.media.color_trc">6</property>
  <property name="meta.media.width">1920</property>
  <property name="meta.media.height">1080</property>
  <property name="meta.media.top_field_first">0</property>
  <property name="meta.media.progressive">1</property>
 </producer>
 <producer in="0" title="Anonymous Submission" id="95" out="1205">
  <property name="mlt_type">mlt_producer</property>
  <property name="length">00:00:40:06</property>
  <property name="eof">pause</property>
  <property name="resource">/opt/vlog/entrenamiento1/videos/VID_20190202_151614.mp4</property>
  <property name="audio_index">0</property>
  <property name="video_index">1</property>
  <property name="mute_on_pause">1</property>
  <property name="mlt_service">avformat-novalidate</property>
  <property name="meta.media.nb_streams">2</property>
  <property name="meta.media.0.stream.type">audio</property>
  <property name="meta.media.0.codec.sample_fmt">fltp</property>
  <property name="meta.media.0.codec.sample_rate">44100</property>
  <property name="meta.media.0.codec.channels">2</property>
  <property name="meta.media.0.codec.name">aac</property>
  <property name="meta.media.0.codec.long_name">AAC (Advanced Audio Coding)</property>
  <property name="meta.media.0.codec.bit_rate">191904</property>
  <property name="meta.attr.0.stream.creation_time.markup">2019-02-02 14:16:14</property>
  <property name="meta.attr.0.stream.language.markup">eng</property>
  <property name="meta.attr.0.stream.handler_name.markup">SoundHandle</property>
  <property name="meta.media.1.stream.type">video</property>
  <property name="meta.media.1.stream.frame_rate">30,0121</property>
  <property name="meta.media.1.stream.sample_aspect_ratio">1</property>
  <property name="meta.media.1.codec.width">1920</property>
  <property name="meta.media.1.codec.height">1080</property>
  <property name="meta.media.1.codec.rotate">0</property>
  <property name="meta.media.1.codec.frame_rate">90000</property>
  <property name="meta.media.1.codec.pix_fmt">yuvj420p</property>
  <property name="meta.media.1.codec.sample_aspect_ratio">0</property>
  <property name="meta.media.1.codec.colorspace">601</property>
  <property name="meta.media.1.codec.color_trc">6</property>
  <property name="meta.media.1.codec.name">h264</property>
  <property name="meta.media.1.codec.long_name">H.264 / AVC / MPEG-4 AVC / MPEG-4 part 10</property>
  <property name="meta.media.1.codec.bit_rate">22132919</property>
  <property name="meta.attr.1.stream.creation_time.markup">2019-02-02 14:16:14</property>
  <property name="meta.attr.1.stream.language.markup">eng</property>
  <property name="meta.attr.1.stream.handler_name.markup">VideoHandle</property>
  <property name="meta.attr.major_brand.markup">mp42</property>
  <property name="meta.attr.minor_version.markup">0</property>
  <property name="meta.attr.compatible_brands.markup">isommp42</property>
  <property name="meta.attr.creation_time.markup">2019-02-02 14:16:14</property>
  <property name="meta.attr.location.markup">+00.0000+000.0000/</property>
  <property name="meta.attr.location-eng.markup">+00.0000+000.0000/</property>
  <property name="seekable">1</property>
  <property name="meta.media.sample_aspect_num">1</property>
  <property name="meta.media.sample_aspect_den">1</property>
  <property name="aspect_ratio">1</property>
  <property name="kdenlive:folderid">1</property>
  <property name="kdenlive:file_size">112155233</property>
  <property name="kdenlive:file_hash">8bfbc1bfe19d3a1cdd669e8ee72e1b59</property>
  <property name="global_feed">1</property>
  <property name="meta.media.frame_rate_num">36180000</property>
  <property name="meta.media.frame_rate_den">1205513</property>
  <property name="meta.media.colorspace">601</property>
  <property name="meta.media.color_trc">6</property>
  <property name="meta.media.width">1920</property>
  <property name="meta.media.height">1080</property>
  <property name="meta.media.top_field_first">0</property>
  <property name="meta.media.progressive">1</property>
 </producer>
 <producer in="0" title="Anonymous Submission" id="96" out="2352">
  <property name="mlt_type">mlt_producer</property>
  <property name="length">00:01:18:13</property>
  <property name="eof">pause</property>
  <property name="resource">/opt/vlog/entrenamiento1/videos/VID_20190202_154516.mp4</property>
  <property name="audio_index">0</property>
  <property name="video_index">1</property>
  <property name="mute_on_pause">1</property>
  <property name="mlt_service">avformat-novalidate</property>
  <property name="meta.media.nb_streams">2</property>
  <property name="meta.media.0.stream.type">audio</property>
  <property name="meta.media.0.codec.sample_fmt">fltp</property>
  <property name="meta.media.0.codec.sample_rate">44100</property>
  <property name="meta.media.0.codec.channels">2</property>
  <property name="meta.media.0.codec.name">aac</property>
  <property name="meta.media.0.codec.long_name">AAC (Advanced Audio Coding)</property>
  <property name="meta.media.0.codec.bit_rate">191958</property>
  <property name="meta.attr.0.stream.creation_time.markup">2019-02-02 14:45:16</property>
  <property name="meta.attr.0.stream.language.markup">eng</property>
  <property name="meta.attr.0.stream.handler_name.markup">SoundHandle</property>
  <property name="meta.media.1.stream.type">video</property>
  <property name="meta.media.1.stream.frame_rate">29,999</property>
  <property name="meta.media.1.stream.sample_aspect_ratio">1</property>
  <property name="meta.media.1.codec.width">1920</property>
  <property name="meta.media.1.codec.height">1080</property>
  <property name="meta.media.1.codec.rotate">0</property>
  <property name="meta.media.1.codec.frame_rate">90000</property>
  <property name="meta.media.1.codec.pix_fmt">yuvj420p</property>
  <property name="meta.media.1.codec.sample_aspect_ratio">0</property>
  <property name="meta.media.1.codec.colorspace">601</property>
  <property name="meta.media.1.codec.color_trc">6</property>
  <property name="meta.media.1.codec.name">h264</property>
  <property name="meta.media.1.codec.long_name">H.264 / AVC / MPEG-4 AVC / MPEG-4 part 10</property>
  <property name="meta.media.1.codec.bit_rate">22050605</property>
  <property name="meta.attr.1.stream.creation_time.markup">2019-02-02 14:45:16</property>
  <property name="meta.attr.1.stream.language.markup">eng</property>
  <property name="meta.attr.1.stream.handler_name.markup">VideoHandle</property>
  <property name="meta.attr.major_brand.markup">mp42</property>
  <property name="meta.attr.minor_version.markup">0</property>
  <property name="meta.attr.compatible_brands.markup">isommp42</property>
  <property name="meta.attr.creation_time.markup">2019-02-02 14:45:16</property>
  <property name="meta.attr.location.markup">+51.5193+007.4024/</property>
  <property name="meta.attr.location-eng.markup">+51.5193+007.4024/</property>
  <property name="seekable">1</property>
  <property name="meta.media.sample_aspect_num">1</property>
  <property name="meta.media.sample_aspect_den">1</property>
  <property name="aspect_ratio">1</property>
  <property name="kdenlive:folderid">1</property>
  <property name="kdenlive:file_size">218107402</property>
  <property name="kdenlive:file_hash">169936337185d916bb67b065348d2abf</property>
  <property name="global_feed">1</property>
  <property name="meta.media.frame_rate_num">16290000</property>
  <property name="meta.media.frame_rate_den">543019</property>
  <property name="meta.media.colorspace">601</property>
  <property name="meta.media.color_trc">6</property>
  <property name="meta.media.width">1920</property>
  <property name="meta.media.height">1080</property>
  <property name="meta.media.top_field_first">0</property>
  <property name="meta.media.progressive">1</property>
 </producer>
 <producer in="0" title="Anonymous Submission" id="97" out="3061">
  <property name="mlt_type">mlt_producer</property>
  <property name="length">00:01:42:02</property>
  <property name="eof">pause</property>
  <property name="resource">/opt/vlog/entrenamiento1/videos/VID_20190202_154703.mp4</property>
  <property name="audio_index">0</property>
  <property name="video_index">1</property>
  <property name="mute_on_pause">1</property>
  <property name="mlt_service">avformat-novalidate</property>
  <property name="meta.media.nb_streams">2</property>
  <property name="meta.media.0.stream.type">audio</property>
  <property name="meta.media.0.codec.sample_fmt">fltp</property>
  <property name="meta.media.0.codec.sample_rate">44100</property>
  <property name="meta.media.0.codec.channels">2</property>
  <property name="meta.media.0.codec.name">aac</property>
  <property name="meta.media.0.codec.long_name">AAC (Advanced Audio Coding)</property>
  <property name="meta.media.0.codec.bit_rate">192003</property>
  <property name="meta.attr.0.stream.creation_time.markup">2019-02-02 14:47:03</property>
  <property name="meta.attr.0.stream.language.markup">eng</property>
  <property name="meta.attr.0.stream.handler_name.markup">SoundHandle</property>
  <property name="meta.media.1.stream.type">video</property>
  <property name="meta.media.1.stream.frame_rate">30,0122</property>
  <property name="meta.media.1.stream.sample_aspect_ratio">1</property>
  <property name="meta.media.1.codec.width">1920</property>
  <property name="meta.media.1.codec.height">1080</property>
  <property name="meta.media.1.codec.rotate">0</property>
  <property name="meta.media.1.codec.frame_rate">90000</property>
  <property name="meta.media.1.codec.pix_fmt">yuvj420p</property>
  <property name="meta.media.1.codec.sample_aspect_ratio">0</property>
  <property name="meta.media.1.codec.colorspace">601</property>
  <property name="meta.media.1.codec.color_trc">6</property>
  <property name="meta.media.1.codec.name">h264</property>
  <property name="meta.media.1.codec.long_name">H.264 / AVC / MPEG-4 AVC / MPEG-4 part 10</property>
  <property name="meta.media.1.codec.bit_rate">22019535</property>
  <property name="meta.attr.1.stream.creation_time.markup">2019-02-02 14:47:03</property>
  <property name="meta.attr.1.stream.language.markup">eng</property>
  <property name="meta.attr.1.stream.handler_name.markup">VideoHandle</property>
  <property name="meta.attr.major_brand.markup">mp42</property>
  <property name="meta.attr.minor_version.markup">0</property>
  <property name="meta.attr.compatible_brands.markup">isommp42</property>
  <property name="meta.attr.creation_time.markup">2019-02-02 14:47:03</property>
  <property name="meta.attr.location.markup">+51.5192+007.4024/</property>
  <property name="meta.attr.location-eng.markup">+51.5192+007.4024/</property>
  <property name="seekable">1</property>
  <property name="meta.media.sample_aspect_num">1</property>
  <property name="meta.media.sample_aspect_den">1</property>
  <property name="aspect_ratio">1</property>
  <property name="kdenlive:folderid">1</property>
  <property name="kdenlive:file_size">282206008</property>
  <property name="kdenlive:file_hash">c0f1f5aec2d8027af45e9ac860788b8e</property>
  <property name="global_feed">1</property>
  <property name="meta.media.frame_rate_num">2287500</property>
  <property name="meta.media.frame_rate_den">76219</property>
  <property name="meta.media.colorspace">601</property>
  <property name="meta.media.color_trc">6</property>
  <property name="meta.media.width">1920</property>
  <property name="meta.media.height">1080</property>
  <property name="meta.media.top_field_first">0</property>
  <property name="meta.media.progressive">1</property>
 </producer>
 <producer in="0" title="Anonymous Submission" id="98" out="518">
  <property name="mlt_type">mlt_producer</property>
  <property name="length">00:00:17:09</property>
  <property name="eof">pause</property>
  <property name="resource">/opt/vlog/entrenamiento1/videos/VID_20190202_154920.mp4</property>
  <property name="audio_index">0</property>
  <property name="video_index">1</property>
  <property name="mute_on_pause">1</property>
  <property name="mlt_service">avformat-novalidate</property>
  <property name="meta.media.nb_streams">2</property>
  <property name="meta.media.0.stream.type">audio</property>
  <property name="meta.media.0.codec.sample_fmt">fltp</property>
  <property name="meta.media.0.codec.sample_rate">44100</property>
  <property name="meta.media.0.codec.channels">2</property>
  <property name="meta.media.0.codec.name">aac</property>
  <property name="meta.media.0.codec.long_name">AAC (Advanced Audio Coding)</property>
  <property name="meta.media.0.codec.bit_rate">191930</property>
  <property name="meta.attr.0.stream.creation_time.markup">2019-02-02 14:49:19</property>
  <property name="meta.attr.0.stream.language.markup">eng</property>
  <property name="meta.attr.0.stream.handler_name.markup">SoundHandle</property>
  <property name="meta.media.1.stream.type">video</property>
  <property name="meta.media.1.stream.frame_rate">30,0119</property>
  <property name="meta.media.1.stream.sample_aspect_ratio">1</property>
  <property name="meta.media.1.codec.width">1920</property>
  <property name="meta.media.1.codec.height">1080</property>
  <property name="meta.media.1.codec.rotate">0</property>
  <property name="meta.media.1.codec.frame_rate">90000</property>
  <property name="meta.media.1.codec.pix_fmt">yuvj420p</property>
  <property name="meta.media.1.codec.sample_aspect_ratio">0</property>
  <property name="meta.media.1.codec.colorspace">601</property>
  <property name="meta.media.1.codec.color_trc">6</property>
  <property name="meta.media.1.codec.name">h264</property>
  <property name="meta.media.1.codec.long_name">H.264 / AVC / MPEG-4 AVC / MPEG-4 part 10</property>
  <property name="meta.media.1.codec.bit_rate">22329140</property>
  <property name="meta.attr.1.stream.creation_time.markup">2019-02-02 14:49:19</property>
  <property name="meta.attr.1.stream.language.markup">eng</property>
  <property name="meta.attr.1.stream.handler_name.markup">VideoHandle</property>
  <property name="meta.attr.major_brand.markup">mp42</property>
  <property name="meta.attr.minor_version.markup">0</property>
  <property name="meta.attr.compatible_brands.markup">isommp42</property>
  <property name="meta.attr.creation_time.markup">2019-02-02 14:49:19</property>
  <property name="meta.attr.location.markup">+00.0000+000.0000/</property>
  <property name="meta.attr.location-eng.markup">+00.0000+000.0000/</property>
  <property name="seekable">1</property>
  <property name="meta.media.sample_aspect_num">1</property>
  <property name="meta.media.sample_aspect_den">1</property>
  <property name="aspect_ratio">1</property>
  <property name="kdenlive:folderid">1</property>
  <property name="kdenlive:file_size">48692391</property>
  <property name="kdenlive:file_hash">c00f22cddb58aee0a3d05ad504c0f22c</property>
  <property name="global_feed">1</property>
  <property name="meta.media.frame_rate_num">7785000</property>
  <property name="meta.media.frame_rate_den">259397</property>
  <property name="meta.media.colorspace">601</property>
  <property name="meta.media.color_trc">6</property>
  <property name="meta.media.width">1920</property>
  <property name="meta.media.height">1080</property>
  <property name="meta.media.top_field_first">0</property>
  <property name="meta.media.progressive">1</property>
 </producer>
 <producer in="0" title="Anonymous Submission" id="99" out="1018">
  <property name="mlt_type">mlt_producer</property>
  <property name="length">00:00:33:29</property>
  <property name="eof">pause</property>
  <property name="resource">/opt/vlog/entrenamiento1/videos/VID_20190202_155030.mp4</property>
  <property name="audio_index">0</property>
  <property name="video_index">1</property>
  <property name="mute_on_pause">1</property>
  <property name="mlt_service">avformat-novalidate</property>
  <property name="meta.media.nb_streams">2</property>
  <property name="meta.media.0.stream.type">audio</property>
  <property name="meta.media.0.codec.sample_fmt">fltp</property>
  <property name="meta.media.0.codec.sample_rate">44100</property>
  <property name="meta.media.0.codec.channels">2</property>
  <property name="meta.media.0.codec.name">aac</property>
  <property name="meta.media.0.codec.long_name">AAC (Advanced Audio Coding)</property>
  <property name="meta.media.0.codec.bit_rate">192059</property>
  <property name="meta.attr.0.stream.creation_time.markup">2019-02-02 14:50:30</property>
  <property name="meta.attr.0.stream.language.markup">eng</property>
  <property name="meta.attr.0.stream.handler_name.markup">SoundHandle</property>
  <property name="meta.media.1.stream.type">video</property>
  <property name="meta.media.1.stream.frame_rate">30,0119</property>
  <property name="meta.media.1.stream.sample_aspect_ratio">1</property>
  <property name="meta.media.1.codec.width">1920</property>
  <property name="meta.media.1.codec.height">1080</property>
  <property name="meta.media.1.codec.rotate">0</property>
  <property name="meta.media.1.codec.frame_rate">90000</property>
  <property name="meta.media.1.codec.pix_fmt">yuvj420p</property>
  <property name="meta.media.1.codec.sample_aspect_ratio">0</property>
  <property name="meta.media.1.codec.colorspace">601</property>
  <property name="meta.media.1.codec.color_trc">6</property>
  <property name="meta.media.1.codec.name">h264</property>
  <property name="meta.media.1.codec.long_name">H.264 / AVC / MPEG-4 AVC / MPEG-4 part 10</property>
  <property name="meta.media.1.codec.bit_rate">22033040</property>
  <property name="meta.attr.1.stream.creation_time.markup">2019-02-02 14:50:30</property>
  <property name="meta.attr.1.stream.language.markup">eng</property>
  <property name="meta.attr.1.stream.handler_name.markup">VideoHandle</property>
  <property name="meta.attr.major_brand.markup">mp42</property>
  <property name="meta.attr.minor_version.markup">0</property>
  <property name="meta.attr.compatible_brands.markup">isommp42</property>
  <property name="meta.attr.creation_time.markup">2019-02-02 14:50:30</property>
  <property name="meta.attr.location.markup">+00.0000+000.0000/</property>
  <property name="meta.attr.location-eng.markup">+00.0000+000.0000/</property>
  <property name="seekable">1</property>
  <property name="meta.media.sample_aspect_num">1</property>
  <property name="meta.media.sample_aspect_den">1</property>
  <property name="aspect_ratio">1</property>
  <property name="kdenlive:folderid">1</property>
  <property name="kdenlive:file_size">94341216</property>
  <property name="kdenlive:file_hash">451f82577cef6defd33b445274486bb7</property>
  <property name="global_feed">1</property>
  <property name="meta.media.frame_rate_num">91710000</property>
  <property name="meta.media.frame_rate_den">3055783</property>
  <property name="meta.media.colorspace">601</property>
  <property name="meta.media.color_trc">6</property>
  <property name="meta.media.width">1920</property>
  <property name="meta.media.height">1080</property>
  <property name="meta.media.top_field_first">0</property>
  <property name="meta.media.progressive">1</property>
 </producer>
 <producer in="0" id="102" out="149">
  <property name="mlt_type">producer</property>
  <property name="length">00:00:05:00</property>
  <property name="eof">pause</property>
  <property name="resource"/>
  <property name="progressive">1</property>
  <property name="aspect_ratio">1</property>
  <property name="seekable">1</property>
  <property name="mlt_service">kdenlivetitle</property>
  <property name="kdenlive:clipname">Title clip</property>
  <property name="kdenlive:folderid">2</property>
  <property name="xmldata">&lt;kdenlivetitle height="1080" width="1920" duration="150" LC_NUMERIC="de_DE.UTF-8" out="150">
 &lt;item z-index="2" type="QGraphicsTextItem">
  &lt;position x="587" y="414">
   &lt;transform>1,0,0,0,1,0,0,0,1&lt;/transform>
  &lt;/position>
  &lt;content font="Carlito" font-pixel-size="100" font-italic="0" font-weight="75" font-color="255,255,255,255" alignment="4" font-underline="0">Thunder Guanaco
2019&lt;/content>
 &lt;/item>
 &lt;startviewport rect="0,0,1920,1080"/>
 &lt;endviewport rect="0,0,1920,1080"/>
 &lt;background color="0,0,0,0"/>
&lt;/kdenlivetitle>
</property>
  <property name="force_reload">0</property>
  <property name="meta.media.width">1920</property>
  <property name="meta.media.height">1080</property>
  <property name="kdenlive:file_hash">6899a433fd697b3454e69abbbd3bd389</property>
 </producer>
 <producer in="0" title="Anonymous Submission" id="103" out="149">
  <property name="mlt_type">mlt_producer</property>
  <property name="length">00:00:07:14</property>
  <property name="eof">pause</property>
  <property name="resource"/>
  <property name="progressive">1</property>
  <property name="aspect_ratio">1</property>
  <property name="seekable">1</property>
  <property name="mlt_service">kdenlivetitle</property>
  <property name="kdenlive:clipname">Title clip</property>
  <property name="xmldata">&lt;kdenlivetitle height="1080" duration="150" LC_NUMERIC="de_DE.UTF-8" out="150" width="1920">
 &lt;item type="QGraphicsTextItem" z-index="0">
  &lt;position x="1340.65" y="489.632">
   &lt;transform>1,0,0,0,1,0,0,0,1&lt;/transform>
  &lt;/position>
  &lt;content font-pixel-size="120" font="Noto Sans" font-weight="50" font-italic="0" font-color="0,0,0,255" font-underline="0">CTP!&lt;/content>
 &lt;/item>
 &lt;startviewport rect="0,0,1920,1080"/>
 &lt;endviewport rect="0,0,1920,1080"/>
 &lt;background color="0,0,0,0"/>
&lt;/kdenlivetitle>
</property>
  <property name="force_reload">0</property>
  <property name="meta.media.width">1920</property>
  <property name="meta.media.height">1080</property>
  <property name="kdenlive:file_hash">0348986b0fb0454ce3ab7e55432f8390</property>
  <property name="kdenlive:folderid">2</property>
  <property name="global_feed">1</property>
 </producer>
 <producer in="0" title="Anonymous Submission" id="104" out="149">
  <property name="mlt_type">mlt_producer</property>
  <property name="length">00:00:05:00</property>
  <property name="eof">pause</property>
  <property name="resource"/>
  <property name="progressive">1</property>
  <property name="aspect_ratio">1</property>
  <property name="seekable">1</property>
  <property name="mlt_service">kdenlivetitle</property>
  <property name="kdenlive:clipname">Title clip</property>
  <property name="kdenlive:folderid">2</property>
  <property name="xmldata">&lt;kdenlivetitle height="1080" duration="150" LC_NUMERIC="de_DE.UTF-8" out="150" width="1920">
 &lt;item type="QGraphicsTextItem" z-index="0">
  &lt;position x="1409.68" y="782.855">
   &lt;transform>1,0,0,0,1,0,0,0,1&lt;/transform>
  &lt;/position>
  &lt;content font-pixel-size="120" font="Noto Sans" font-weight="50" font-italic="0" font-color="0,0,0,255" font-underline="0">CTP!&lt;/content>
 &lt;/item>
 &lt;startviewport rect="0,0,1920,1080"/>
 &lt;endviewport rect="0,0,1920,1080"/>
 &lt;background color="0,0,0,0"/>
&lt;/kdenlivetitle>
</property>
  <property name="force_reload">0</property>
  <property name="meta.media.width">1920</property>
  <property name="meta.media.height">1080</property>
  <property name="kdenlive:file_hash">972acc8efd17a28f6cfc3a741c107ce6</property>
  <property name="global_feed">1</property>
 </producer>
 <producer in="0" title="Anonymous Submission" id="132" out="5853">
  <property name="mlt_type">mlt_producer</property>
  <property name="length">00:03:15:04</property>
  <property name="eof">pause</property>
  <property name="resource">/opt/vlog/entrenamiento1/videos/VID_20190202_153019695.mp4</property>
  <property name="meta.media.nb_streams">2</property>
  <property name="meta.media.0.stream.type">video</property>
  <property name="meta.media.0.stream.frame_rate">29,97</property>
  <property name="meta.media.0.stream.sample_aspect_ratio">0</property>
  <property name="meta.media.0.codec.width">1920</property>
  <property name="meta.media.0.codec.height">1080</property>
  <property name="meta.media.0.codec.rotate">0</property>
  <property name="meta.media.0.codec.frame_rate">29,97</property>
  <property name="meta.media.0.codec.pix_fmt">yuv420p</property>
  <property name="meta.media.0.codec.sample_aspect_ratio">1</property>
  <property name="meta.media.0.codec.colorspace">601</property>
  <property name="meta.media.0.codec.color_trc">6</property>
  <property name="meta.media.0.codec.name">h264</property>
  <property name="meta.media.0.codec.long_name">H.264 / AVC / MPEG-4 AVC / MPEG-4 part 10</property>
  <property name="meta.media.0.codec.bit_rate">6219612</property>
  <property name="meta.attr.0.stream.creation_time.markup">2019-02-02 17:33:06</property>
  <property name="meta.attr.0.stream.handler_name.markup">ISO Media file produced by Google Inc. Created on: 02/02/2019.</property>
  <property name="meta.media.1.stream.type">audio</property>
  <property name="meta.media.1.codec.sample_fmt">fltp</property>
  <property name="meta.media.1.codec.sample_rate">44100</property>
  <property name="meta.media.1.codec.channels">2</property>
  <property name="meta.media.1.codec.name">aac</property>
  <property name="meta.media.1.codec.long_name">AAC (Advanced Audio Coding)</property>
  <property name="meta.media.1.codec.bit_rate">125608</property>
  <property name="meta.attr.1.stream.creation_time.markup">2019-02-02 17:33:06</property>
  <property name="meta.attr.1.stream.language.markup">eng</property>
  <property name="meta.attr.1.stream.handler_name.markup">ISO Media file produced by Google Inc. Created on: 02/02/2019.</property>
  <property name="meta.attr.major_brand.markup">mp42</property>
  <property name="meta.attr.minor_version.markup">0</property>
  <property name="meta.attr.compatible_brands.markup">isommp42</property>
  <property name="meta.attr.creation_time.markup">2019-02-02 14:33:38</property>
  <property name="meta.attr.location.markup">+51.5202+007.4015/</property>
  <property name="seekable">1</property>
  <property name="meta.media.sample_aspect_num">1</property>
  <property name="meta.media.sample_aspect_den">1</property>
  <property name="aspect_ratio">1</property>
  <property name="audio_index">1</property>
  <property name="video_index">0</property>
  <property name="mute_on_pause">1</property>
  <property name="mlt_service">avformat-novalidate</property>
  <property name="kdenlive:folderid">1</property>
  <property name="meta.media.frame_rate_num">30000</property>
  <property name="meta.media.frame_rate_den">1001</property>
  <property name="meta.media.colorspace">601</property>
  <property name="meta.media.color_trc">6</property>
  <property name="meta.media.width">1920</property>
  <property name="meta.media.height">1080</property>
  <property name="meta.media.top_field_first">0</property>
  <property name="meta.media.progressive">1</property>
  <property name="kdenlive:file_size">154673055</property>
  <property name="kdenlive:file_hash">a1fa846cecc47c01231b94f10e473688</property>
  <property name="global_feed">1</property>
 </producer>
 <producer in="0" title="Anonymous Submission" id="133" out="897">
  <property name="mlt_type">mlt_producer</property>
  <property name="length">00:00:29:28</property>
  <property name="eof">pause</property>
  <property name="resource">/opt/vlog/entrenamiento1/videos/VID_20190202_153500752.mp4</property>
  <property name="meta.media.nb_streams">2</property>
  <property name="meta.media.0.stream.type">video</property>
  <property name="meta.media.0.stream.frame_rate">29,97</property>
  <property name="meta.media.0.stream.sample_aspect_ratio">0</property>
  <property name="meta.media.0.codec.width">1920</property>
  <property name="meta.media.0.codec.height">1080</property>
  <property name="meta.media.0.codec.rotate">0</property>
  <property name="meta.media.0.codec.frame_rate">29,97</property>
  <property name="meta.media.0.codec.pix_fmt">yuv420p</property>
  <property name="meta.media.0.codec.sample_aspect_ratio">1</property>
  <property name="meta.media.0.codec.colorspace">601</property>
  <property name="meta.media.0.codec.color_trc">6</property>
  <property name="meta.media.0.codec.name">h264</property>
  <property name="meta.media.0.codec.long_name">H.264 / AVC / MPEG-4 AVC / MPEG-4 part 10</property>
  <property name="meta.media.0.codec.bit_rate">4998471</property>
  <property name="meta.attr.0.stream.creation_time.markup">2019-02-02 17:29:52</property>
  <property name="meta.attr.0.stream.handler_name.markup">ISO Media file produced by Google Inc. Created on: 02/02/2019.</property>
  <property name="meta.media.1.stream.type">audio</property>
  <property name="meta.media.1.codec.sample_fmt">fltp</property>
  <property name="meta.media.1.codec.sample_rate">44100</property>
  <property name="meta.media.1.codec.channels">2</property>
  <property name="meta.media.1.codec.name">aac</property>
  <property name="meta.media.1.codec.long_name">AAC (Advanced Audio Coding)</property>
  <property name="meta.media.1.codec.bit_rate">125715</property>
  <property name="meta.attr.1.stream.creation_time.markup">2019-02-02 17:29:52</property>
  <property name="meta.attr.1.stream.language.markup">eng</property>
  <property name="meta.attr.1.stream.handler_name.markup">ISO Media file produced by Google Inc. Created on: 02/02/2019.</property>
  <property name="meta.attr.major_brand.markup">mp42</property>
  <property name="meta.attr.minor_version.markup">0</property>
  <property name="meta.attr.compatible_brands.markup">isommp42</property>
  <property name="meta.attr.creation_time.markup">2019-02-02 14:35:33</property>
  <property name="meta.attr.location.markup">+51.5192+007.4012/</property>
  <property name="seekable">1</property>
  <property name="meta.media.sample_aspect_num">1</property>
  <property name="meta.media.sample_aspect_den">1</property>
  <property name="aspect_ratio">1</property>
  <property name="audio_index">1</property>
  <property name="video_index">0</property>
  <property name="mute_on_pause">1</property>
  <property name="mlt_service">avformat-novalidate</property>
  <property name="kdenlive:folderid">1</property>
  <property name="meta.media.frame_rate_num">30000</property>
  <property name="meta.media.frame_rate_den">1001</property>
  <property name="meta.media.colorspace">601</property>
  <property name="meta.media.color_trc">6</property>
  <property name="meta.media.width">1920</property>
  <property name="meta.media.height">1080</property>
  <property name="meta.media.top_field_first">0</property>
  <property name="meta.media.progressive">1</property>
  <property name="kdenlive:file_size">19098096</property>
  <property name="kdenlive:file_hash">5d28551b16f92dcab4741ed9a968fa85</property>
  <property name="global_feed">1</property>
 </producer>
 <producer in="0" title="Anonymous Submission" id="134" out="1982">
  <property name="mlt_type">mlt_producer</property>
  <property name="length">00:01:06:03</property>
  <property name="eof">pause</property>
  <property name="resource">/opt/vlog/entrenamiento1/videos/VID_20190202_153533773.mp4</property>
  <property name="meta.media.nb_streams">2</property>
  <property name="meta.media.0.stream.type">video</property>
  <property name="meta.media.0.stream.frame_rate">30</property>
  <property name="meta.media.0.stream.sample_aspect_ratio">0</property>
  <property name="meta.media.0.codec.width">1920</property>
  <property name="meta.media.0.codec.height">1080</property>
  <property name="meta.media.0.codec.rotate">0</property>
  <property name="meta.media.0.codec.frame_rate">30</property>
  <property name="meta.media.0.codec.pix_fmt">yuv420p</property>
  <property name="meta.media.0.codec.sample_aspect_ratio">1</property>
  <property name="meta.media.0.codec.colorspace">601</property>
  <property name="meta.media.0.codec.color_trc">6</property>
  <property name="meta.media.0.codec.name">h264</property>
  <property name="meta.media.0.codec.long_name">H.264 / AVC / MPEG-4 AVC / MPEG-4 part 10</property>
  <property name="meta.media.0.codec.bit_rate">5820318</property>
  <property name="meta.attr.0.stream.creation_time.markup">2019-02-02 19:51:26</property>
  <property name="meta.attr.0.stream.handler_name.markup">ISO Media file produced by Google Inc. Created on: 02/02/2019.</property>
  <property name="meta.media.1.stream.type">audio</property>
  <property name="meta.media.1.codec.sample_fmt">fltp</property>
  <property name="meta.media.1.codec.sample_rate">44100</property>
  <property name="meta.media.1.codec.channels">2</property>
  <property name="meta.media.1.codec.name">aac</property>
  <property name="meta.media.1.codec.long_name">AAC (Advanced Audio Coding)</property>
  <property name="meta.media.1.codec.bit_rate">125636</property>
  <property name="meta.attr.1.stream.creation_time.markup">2019-02-02 19:51:26</property>
  <property name="meta.attr.1.stream.language.markup">eng</property>
  <property name="meta.attr.1.stream.handler_name.markup">ISO Media file produced by Google Inc. Created on: 02/02/2019.</property>
  <property name="meta.attr.major_brand.markup">mp42</property>
  <property name="meta.attr.minor_version.markup">0</property>
  <property name="meta.attr.compatible_brands.markup">isommp42</property>
  <property name="meta.attr.creation_time.markup">2019-02-02 14:36:43</property>
  <property name="meta.attr.location.markup">+51.5189+007.4019/</property>
  <property name="seekable">1</property>
  <property name="meta.media.sample_aspect_num">1</property>
  <property name="meta.media.sample_aspect_den">1</property>
  <property name="aspect_ratio">1</property>
  <property name="audio_index">1</property>
  <property name="video_index">0</property>
  <property name="mute_on_pause">1</property>
  <property name="mlt_service">avformat-novalidate</property>
  <property name="kdenlive:folderid">1</property>
  <property name="meta.media.frame_rate_num">30</property>
  <property name="meta.media.frame_rate_den">1</property>
  <property name="meta.media.colorspace">601</property>
  <property name="meta.media.color_trc">6</property>
  <property name="meta.media.width">1920</property>
  <property name="meta.media.height">1080</property>
  <property name="meta.media.top_field_first">0</property>
  <property name="meta.media.progressive">1</property>
  <property name="kdenlive:file_size">49028925</property>
  <property name="kdenlive:file_hash">d4c6e61d619ed01ed700ed160b9a5e42</property>
  <property name="global_feed">1</property>
 </producer>
 <producer in="0" title="Anonymous Submission" id="135" out="1783">
  <property name="mlt_type">mlt_producer</property>
  <property name="length">00:00:59:14</property>
  <property name="eof">pause</property>
  <property name="resource">/opt/vlog/entrenamiento1/videos/VID_20190202_153726716.mp4</property>
  <property name="meta.media.nb_streams">2</property>
  <property name="meta.media.0.stream.type">video</property>
  <property name="meta.media.0.stream.frame_rate">30</property>
  <property name="meta.media.0.stream.sample_aspect_ratio">0</property>
  <property name="meta.media.0.codec.width">1920</property>
  <property name="meta.media.0.codec.height">1080</property>
  <property name="meta.media.0.codec.rotate">0</property>
  <property name="meta.media.0.codec.frame_rate">30</property>
  <property name="meta.media.0.codec.pix_fmt">yuv420p</property>
  <property name="meta.media.0.codec.sample_aspect_ratio">1</property>
  <property name="meta.media.0.codec.colorspace">601</property>
  <property name="meta.media.0.codec.color_trc">6</property>
  <property name="meta.media.0.codec.name">h264</property>
  <property name="meta.media.0.codec.long_name">H.264 / AVC / MPEG-4 AVC / MPEG-4 part 10</property>
  <property name="meta.media.0.codec.bit_rate">5231557</property>
  <property name="meta.attr.0.stream.creation_time.markup">2019-02-02 20:49:11</property>
  <property name="meta.attr.0.stream.handler_name.markup">ISO Media file produced by Google Inc. Created on: 02/02/2019.</property>
  <property name="meta.media.1.stream.type">audio</property>
  <property name="meta.media.1.codec.sample_fmt">fltp</property>
  <property name="meta.media.1.codec.sample_rate">44100</property>
  <property name="meta.media.1.codec.channels">2</property>
  <property name="meta.media.1.codec.name">aac</property>
  <property name="meta.media.1.codec.long_name">AAC (Advanced Audio Coding)</property>
  <property name="meta.media.1.codec.bit_rate">125643</property>
  <property name="meta.attr.1.stream.creation_time.markup">2019-02-02 20:49:11</property>
  <property name="meta.attr.1.stream.language.markup">eng</property>
  <property name="meta.attr.1.stream.handler_name.markup">ISO Media file produced by Google Inc. Created on: 02/02/2019.</property>
  <property name="meta.attr.major_brand.markup">mp42</property>
  <property name="meta.attr.minor_version.markup">0</property>
  <property name="meta.attr.compatible_brands.markup">isommp42</property>
  <property name="meta.attr.creation_time.markup">2019-02-02 14:38:29</property>
  <property name="meta.attr.location.markup">+51.5190+007.4017/</property>
  <property name="seekable">1</property>
  <property name="meta.media.sample_aspect_num">1</property>
  <property name="meta.media.sample_aspect_den">1</property>
  <property name="aspect_ratio">1</property>
  <property name="audio_index">1</property>
  <property name="video_index">0</property>
  <property name="mute_on_pause">1</property>
  <property name="mlt_service">avformat-novalidate</property>
  <property name="kdenlive:folderid">1</property>
  <property name="meta.media.frame_rate_num">30</property>
  <property name="meta.media.frame_rate_den">1</property>
  <property name="meta.media.colorspace">601</property>
  <property name="meta.media.color_trc">6</property>
  <property name="meta.media.width">1920</property>
  <property name="meta.media.height">1080</property>
  <property name="meta.media.top_field_first">0</property>
  <property name="meta.media.progressive">1</property>
  <property name="kdenlive:file_size">39732777</property>
  <property name="kdenlive:file_hash">f97825f0e376664e0518d8528eeca1fc</property>
  <property name="global_feed">1</property>
 </producer>
 <producer in="0" title="Anonymous Submission" id="136" out="611">
  <property name="mlt_type">mlt_producer</property>
  <property name="length">00:00:20:12</property>
  <property name="eof">pause</property>
  <property name="resource">/opt/vlog/entrenamiento1/videos/VID_20190202_153925715.mp4</property>
  <property name="meta.media.nb_streams">2</property>
  <property name="meta.media.0.stream.type">video</property>
  <property name="meta.media.0.stream.frame_rate">30</property>
  <property name="meta.media.0.stream.sample_aspect_ratio">0</property>
  <property name="meta.media.0.codec.width">1920</property>
  <property name="meta.media.0.codec.height">1080</property>
  <property name="meta.media.0.codec.rotate">0</property>
  <property name="meta.media.0.codec.frame_rate">30</property>
  <property name="meta.media.0.codec.pix_fmt">yuv420p</property>
  <property name="meta.media.0.codec.sample_aspect_ratio">1</property>
  <property name="meta.media.0.codec.colorspace">709</property>
  <property name="meta.media.0.codec.color_trc">6</property>
  <property name="meta.media.0.codec.name">h264</property>
  <property name="meta.media.0.codec.long_name">H.264 / AVC / MPEG-4 AVC / MPEG-4 part 10</property>
  <property name="meta.media.0.codec.bit_rate">6061782</property>
  <property name="meta.attr.0.stream.creation_time.markup">2019-02-02 21:04:23</property>
  <property name="meta.attr.0.stream.handler_name.markup">ISO Media file produced by Google Inc. Created on: 02/02/2019.</property>
  <property name="meta.media.1.stream.type">audio</property>
  <property name="meta.media.1.codec.sample_fmt">fltp</property>
  <property name="meta.media.1.codec.sample_rate">44100</property>
  <property name="meta.media.1.codec.channels">2</property>
  <property name="meta.media.1.codec.name">aac</property>
  <property name="meta.media.1.codec.long_name">AAC (Advanced Audio Coding)</property>
  <property name="meta.media.1.codec.bit_rate">125778</property>
  <property name="meta.attr.1.stream.creation_time.markup">2019-02-02 21:04:23</property>
  <property name="meta.attr.1.stream.language.markup">eng</property>
  <property name="meta.attr.1.stream.handler_name.markup">ISO Media file produced by Google Inc. Created on: 02/02/2019.</property>
  <property name="meta.attr.major_brand.markup">mp42</property>
  <property name="meta.attr.minor_version.markup">0</property>
  <property name="meta.attr.compatible_brands.markup">isommp42</property>
  <property name="meta.attr.creation_time.markup">2019-02-02 14:39:48</property>
  <property name="meta.attr.location.markup">+51.5191+007.4022/</property>
  <property name="seekable">1</property>
  <property name="meta.media.sample_aspect_num">1</property>
  <property name="meta.media.sample_aspect_den">1</property>
  <property name="aspect_ratio">1</property>
  <property name="audio_index">1</property>
  <property name="video_index">0</property>
  <property name="mute_on_pause">1</property>
  <property name="mlt_service">avformat-novalidate</property>
  <property name="kdenlive:folderid">1</property>
  <property name="meta.media.frame_rate_num">30</property>
  <property name="meta.media.frame_rate_den">1</property>
  <property name="meta.media.colorspace">709</property>
  <property name="meta.media.color_trc">6</property>
  <property name="meta.media.width">1920</property>
  <property name="meta.media.height">1080</property>
  <property name="meta.media.top_field_first">0</property>
  <property name="meta.media.progressive">1</property>
  <property name="kdenlive:file_size">15659467</property>
  <property name="kdenlive:file_size">15659467</property>
  <property name="kdenlive:file_hash">7eb8ad8e6b3a4b9b4f59edb9ce86fa07</property>
  <property name="global_feed">1</property>
 </producer>
 <playlist id="main bin" kdenlive:customeffects="&lt;customeffects/>&#xa;">
  <property name="kdenlive:customeffects">&lt;customeffects/>
</property>
  <property name="kdenlive:folder.-1.1">videos</property>
  <property name="kdenlive:docproperties.documentid">1549441677573</property>
  <property name="kdenlive:docproperties.enableproxy">0</property>
  <property name="kdenlive:docproperties.generateimageproxy">0</property>
  <property name="kdenlive:docproperties.generateproxy">0</property>
  <property name="kdenlive:docproperties.kdenliveversion">15.12.3</property>
  <property name="kdenlive:docproperties.position">11516</property>
  <property name="kdenlive:docproperties.profile">atsc_1080p_30</property>
  <property name="kdenlive:docproperties.projectfolder">/opt/vlog/entrenamiento1</property>
  <property name="kdenlive:docproperties.proxyextension">mpg</property>
  <property name="kdenlive:docproperties.proxyimageminsize">2000</property>
  <property name="kdenlive:docproperties.proxyminsize">1000</property>
  <property name="kdenlive:docproperties.proxyparams">-s 640x480 -g 5 -qscale 6 -ab 128k -vcodec mpeg2video -acodec mp2</property>
  <property name="kdenlive:docproperties.version">0.91</property>
  <property name="kdenlive:docproperties.verticalzoom">1</property>
  <property name="kdenlive:docproperties.zonein">0</property>
  <property name="kdenlive:docproperties.zoneout">100</property>
  <property name="kdenlive:docproperties.zoom">6</property>
  <property name="kdenlive:documentnotes"/>
  <property name="kdenlive:clipgroups">&lt;groups/>
</property>
  <property name="kdenlive:folder.-1.2">text</property>
  <property name="kdenlive:folder.-1.3">music</property>
  <property name="kdenlive:docproperties.renderaudiobitrate">160</property>
  <property name="kdenlive:docproperties.renderbitrate">20</property>
  <property name="kdenlive:docproperties.rendercategory">MP4</property>
  <property name="kdenlive:docproperties.renderendguide">-1</property>
  <property name="kdenlive:docproperties.renderexportaudio">0</property>
  <property name="kdenlive:docproperties.renderguide">0</property>
  <property name="kdenlive:docproperties.renderplay">0</property>
  <property name="kdenlive:docproperties.renderprofile">H.264/AAC fast</property>
  <property name="kdenlive:docproperties.renderratio">1</property>
  <property name="kdenlive:docproperties.renderrescale">0</property>
  <property name="kdenlive:docproperties.renderrescaleheight">180</property>
  <property name="kdenlive:docproperties.renderrescalewidth">320</property>
  <property name="kdenlive:docproperties.renderscanning">0</property>
  <property name="kdenlive:docproperties.renderstartguide">-1</property>
  <property name="kdenlive:docproperties.rendertcoverlay">0</property>
  <property name="kdenlive:docproperties.rendertctype">0</property>
  <property name="kdenlive:docproperties.rendertwopass">0</property>
  <property name="kdenlive:docproperties.renderurl">/opt/vlog/entrenamiento1/entrenamiento1.mp4</property>
  <property name="kdenlive:docproperties.renderzone">0</property>
  <property name="xml_retain">1</property>
  <entry in="0" producer="1" out="4715"/>
  <entry in="0" producer="10" out="6876"/>
  <entry in="0" producer="100" out="1392"/>
  <entry in="0" producer="101" out="3103"/>
  <entry in="0" producer="11" out="7223"/>
  <entry in="0" producer="12" out="3663"/>
  <entry in="0" producer="13" out="5303"/>
  <entry in="0" producer="14" out="2694"/>
  <entry in="0" producer="15" out="6214"/>
  <entry in="0" producer="16" out="4417"/>
  <entry in="0" producer="17" out="6507"/>
  <entry in="0" producer="18" out="5824"/>
  <entry in="0" producer="19" out="5317"/>
  <entry in="0" producer="2" out="3683"/>
  <entry in="0" producer="20" out="8641"/>
  <entry in="0" producer="21" out="5471"/>
  <entry in="0" producer="22" out="6312"/>
  <entry in="0" producer="23" out="5423"/>
  <entry in="0" producer="24" out="5386"/>
  <entry in="0" producer="25" out="4416"/>
  <entry in="0" producer="26" out="5356"/>
  <entry in="0" producer="27" out="8420"/>
  <entry in="0" producer="28" out="14501"/>
  <entry in="0" producer="29" out="5800"/>
  <entry in="0" producer="3" out="5859"/>
  <entry in="0" producer="30" out="5670"/>
  <entry in="0" producer="31" out="8024"/>
  <entry in="0" producer="32" out="5613"/>
  <entry in="0" producer="33" out="7335"/>
  <entry in="0" producer="34" out="7216"/>
  <entry in="0" producer="35" out="7847"/>
  <entry in="0" producer="36" out="3174"/>
  <entry in="0" producer="37" out="5148"/>
  <entry in="0" producer="38" out="4651"/>
  <entry in="0" producer="39" out="4917"/>
  <entry in="0" producer="4" out="5612"/>
  <entry in="0" producer="40" out="7786"/>
  <entry in="0" producer="41" out="7615"/>
  <entry in="0" producer="42" out="6122"/>
  <entry in="0" producer="43" out="5818"/>
  <entry in="0" producer="44" out="3143"/>
  <entry in="0" producer="45" out="5078"/>
  <entry in="0" producer="46" out="11903"/>
  <entry in="0" producer="47" out="10080"/>
  <entry in="0" producer="48" out="6908"/>
  <entry in="0" producer="49" out="4821"/>
  <entry in="0" producer="5" out="4365"/>
  <entry in="0" producer="50" out="9403"/>
  <entry in="0" producer="51" out="6361"/>
  <entry in="0" producer="52" out="8962"/>
  <entry in="0" producer="53" out="6948"/>
  <entry in="0" producer="54" out="4867"/>
  <entry in="0" producer="55" out="5888"/>
  <entry in="0" producer="56" out="3304"/>
  <entry in="0" producer="57" out="4861"/>
  <entry in="0" producer="58" out="5308"/>
  <entry in="0" producer="59" out="3772"/>
  <entry in="0" producer="6" out="4649"/>
  <entry in="0" producer="60" out="8641"/>
  <entry in="0" producer="61" out="6494"/>
  <entry in="0" producer="62" out="7097"/>
  <entry in="0" producer="63" out="4642"/>
  <entry in="0" producer="64" out="4460"/>
  <entry in="0" producer="65" out="8547"/>
  <entry in="0" producer="66" out="5213"/>
  <entry in="0" producer="67" out="6209"/>
  <entry in="0" producer="68" out="6088"/>
  <entry in="0" producer="69" out="5505"/>
  <entry in="0" producer="7" out="3272"/>
  <entry in="0" producer="70" out="7591"/>
  <entry in="0" producer="71" out="6522"/>
  <entry in="0" producer="72" out="4200"/>
  <entry in="0" producer="73" out="9229"/>
  <entry in="0" producer="74" out="3714"/>
  <entry in="0" producer="75" out="3548"/>
  <entry in="0" producer="76" out="7644"/>
  <entry in="0" producer="77" out="4814"/>
  <entry in="0" producer="78" out="7681"/>
  <entry in="0" producer="79" out="8844"/>
  <entry in="0" producer="8" out="4614"/>
  <entry in="0" producer="80" out="4392"/>
  <entry in="0" producer="81" out="5623"/>
  <entry in="0" producer="82" out="335"/>
  <entry in="0" producer="83" out="15487"/>
  <entry in="0" producer="84" out="1850"/>
  <entry in="0" producer="85" out="12881"/>
  <entry in="0" producer="86" out="802"/>
  <entry in="0" producer="87" out="202"/>
  <entry in="0" producer="88" out="24144"/>
  <entry in="0" producer="89" out="2903"/>
  <entry in="0" producer="9" out="5601"/>
  <entry in="0" producer="90" out="465"/>
  <entry in="0" producer="91" out="1781"/>
  <entry in="0" producer="92" out="1544"/>
  <entry in="0" producer="93" out="1222"/>
  <entry in="0" producer="94" out="3044"/>
  <entry in="0" producer="95" out="1205"/>
  <entry in="0" producer="96" out="2352"/>
  <entry in="0" producer="97" out="3061"/>
  <entry in="0" producer="98" out="518"/>
  <entry in="0" producer="99" out="1018"/>
  <entry in="0" producer="102" out="149"/>
  <entry in="0" producer="103" out="149"/>
  <entry in="0" producer="104" out="149"/>
  <entry in="0" producer="132" out="5853"/>
  <entry in="0" producer="133" out="897"/>
  <entry in="0" producer="134" out="1982"/>
  <entry in="0" producer="135" out="1783"/>
  <entry in="0" producer="136" out="611"/>
 </playlist>
 <producer in="0" id="black" out="84952">
  <property name="mlt_type">producer</property>
  <property name="length">84953</property>
  <property name="eof">pause</property>
  <property name="resource">black</property>
  <property name="aspect_ratio">0</property>
  <property name="mlt_service">colour</property>
 </producer>
 <playlist id="black_track">
  <entry in="0" producer="black" out="14026"/>
 </playlist>
 <producer in="0" title="Anonymous Submission" id="75_playlist1" out="3548">
  <property name="mlt_type">producer</property>
  <property name="length">00:01:58:09</property>
  <property name="eof">pause</property>
  <property name="resource">/opt/vlog/musica/bensound-theduel.mp3</property>
  <property name="audio_index">0</property>
  <property name="video_index">-1</property>
  <property name="mute_on_pause">1</property>
  <property name="mlt_service">avformat-novalidate</property>
  <property name="seekable">1</property>
  <property name="kdenlive:folderid">3</property>
  <property name="kdenlive:file_size">1656321</property>
  <property name="kdenlive:file_hash">edffdfd256f51bcf44559247a31aff7e</property>
  <property name="global_feed">1</property>
  <property name="xml">was here</property>
  <property name="meta.media.nb_streams">1</property>
  <property name="meta.media.0.stream.type">audio</property>
  <property name="meta.media.0.codec.sample_fmt">s16p</property>
  <property name="meta.media.0.codec.sample_rate">44100</property>
  <property name="meta.media.0.codec.channels">2</property>
  <property name="meta.media.0.codec.name">mp3</property>
  <property name="meta.media.0.codec.long_name">MP3 (MPEG audio layer 3)</property>
  <property name="meta.media.0.codec.bit_rate">112000</property>
 </producer>
 <producer in="0" title="Anonymous Submission" id="24_playlist1" out="5386">
  <property name="mlt_type">producer</property>
  <property name="length">00:02:59:17</property>
  <property name="eof">pause</property>
  <property name="resource">/opt/vlog/musica/bensound-energy.mp3</property>
  <property name="audio_index">0</property>
  <property name="video_index">-1</property>
  <property name="mute_on_pause">1</property>
  <property name="mlt_service">avformat-novalidate</property>
  <property name="seekable">1</property>
  <property name="kdenlive:folderid">3</property>
  <property name="kdenlive:file_size">4309577</property>
  <property name="kdenlive:file_hash">f1d02aeaee793caa79fc04f15d1285dd</property>
  <property name="global_feed">1</property>
  <property name="xml">was here</property>
  <property name="meta.media.nb_streams">1</property>
  <property name="meta.media.0.stream.type">audio</property>
  <property name="meta.media.0.codec.sample_fmt">s16p</property>
  <property name="meta.media.0.codec.sample_rate">44100</property>
  <property name="meta.media.0.codec.channels">2</property>
  <property name="meta.media.0.codec.name">mp3</property>
  <property name="meta.media.0.codec.long_name">MP3 (MPEG audio layer 3)</property>
  <property name="meta.media.0.codec.bit_rate">192000</property>
 </producer>
 <playlist id="playlist1">
  <property name="kdenlive:track_name">Audio 2</property>
  <property name="kdenlive:audio_track">1</property>
  <property name="kdenlive:locked_track">0</property>
  <blank length="6514"/>
  <entry in="2746" producer="75_playlist1" out="3548">
   <filter in="3362" id="fadeout" out="3548">
    <property name="window">75</property>
    <property name="max_gain">20dB</property>
    <property name="mlt_type">filter</property>
    <property name="mlt_service">volume</property>
    <property name="kdenlive_id">fadeout</property>
    <property name="tag">volume</property>
    <property name="kdenlive_ix">1</property>
    <property name="gain">1</property>
    <property name="end">0</property>
   </filter>
   <filter in="2746" id="fadein" out="3036">
    <property name="window">75</property>
    <property name="max_gain">20dB</property>
    <property name="mlt_type">filter</property>
    <property name="mlt_service">volume</property>
    <property name="kdenlive_id">fadein</property>
    <property name="tag">volume</property>
    <property name="kdenlive_ix">2</property>
    <property name="gain">0</property>
    <property name="end">1</property>
   </filter>
   <filter in="2746" id="volume">
    <property name="window">75</property>
    <property name="max_gain">20dB</property>
    <property name="mlt_type">filter</property>
    <property name="mlt_service">volume</property>
    <property name="kdenlive_id">volume</property>
    <property name="tag">volume</property>
    <property name="kdenlive_ix">3</property>
    <property name="kdenlive_info"/>
    <property name="gain">0,3</property>
   </filter>
  </entry>
  <blank length="1792"/>
  <entry in="0" producer="24_playlist1" out="2465">
   <filter in="1" id="filter0" out="338">
    <property name="window">75</property>
    <property name="max_gain">20dB</property>
    <property name="mlt_type">filter</property>
    <property name="mlt_service">volume</property>
    <property name="kdenlive_id">volume</property>
    <property name="tag">volume</property>
    <property name="kdenlive_ix">1</property>
    <property name="kdenlive_info"/>
    <property name="gain">0</property>
    <property name="end">0,25</property>
   </filter>
   <filter in="339" id="filter1" out="365">
    <property name="window">75</property>
    <property name="max_gain">20dB</property>
    <property name="mlt_type">filter</property>
    <property name="mlt_service">volume</property>
    <property name="kdenlive_id">volume</property>
    <property name="tag">volume</property>
    <property name="kdenlive_ix">1</property>
    <property name="kdenlive_info"/>
    <property name="gain">0,277778</property>
    <property name="end">1</property>
   </filter>
   <filter in="366" id="filter2" out="589">
    <property name="window">75</property>
    <property name="max_gain">20dB</property>
    <property name="mlt_type">filter</property>
    <property name="mlt_service">volume</property>
    <property name="kdenlive_id">volume</property>
    <property name="tag">volume</property>
    <property name="kdenlive_ix">1</property>
    <property name="kdenlive_info"/>
    <property name="gain">0,998571</property>
    <property name="end">0,68</property>
   </filter>
   <filter in="590" id="filter3" out="625">
    <property name="window">75</property>
    <property name="max_gain">20dB</property>
    <property name="mlt_type">filter</property>
    <property name="mlt_service">volume</property>
    <property name="kdenlive_id">volume</property>
    <property name="tag">volume</property>
    <property name="kdenlive_ix">1</property>
    <property name="kdenlive_info"/>
    <property name="gain">0,675</property>
    <property name="end">0,5</property>
   </filter>
   <filter in="626" id="filter4" out="635">
    <property name="window">75</property>
    <property name="max_gain">20dB</property>
    <property name="mlt_type">filter</property>
    <property name="mlt_service">volume</property>
    <property name="kdenlive_id">volume</property>
    <property name="tag">volume</property>
    <property name="kdenlive_ix">1</property>
    <property name="kdenlive_info"/>
    <property name="gain">0,55</property>
    <property name="end">1</property>
   </filter>
   <filter in="636" id="filter5" out="842">
    <property name="window">75</property>
    <property name="max_gain">20dB</property>
    <property name="mlt_type">filter</property>
    <property name="mlt_service">volume</property>
    <property name="kdenlive_id">volume</property>
    <property name="tag">volume</property>
    <property name="kdenlive_ix">1</property>
    <property name="kdenlive_info"/>
    <property name="gain">0,999372</property>
    <property name="end">0,87</property>
   </filter>
   <filter in="843" id="filter6" out="844">
    <property name="window">75</property>
    <property name="max_gain">20dB</property>
    <property name="mlt_type">filter</property>
    <property name="mlt_service">volume</property>
    <property name="kdenlive_id">volume</property>
    <property name="tag">volume</property>
    <property name="kdenlive_ix">1</property>
    <property name="kdenlive_info"/>
    <property name="gain">0,715</property>
    <property name="end">0,56</property>
   </filter>
   <filter in="845" id="filter7" out="860">
    <property name="window">75</property>
    <property name="max_gain">20dB</property>
    <property name="mlt_type">filter</property>
    <property name="mlt_service">volume</property>
    <property name="kdenlive_id">volume</property>
    <property name="tag">volume</property>
    <property name="kdenlive_ix">1</property>
    <property name="kdenlive_info"/>
    <property name="gain">0,551875</property>
    <property name="end">0,43</property>
   </filter>
   <filter in="861" id="filter8" out="863">
    <property name="window">75</property>
    <property name="max_gain">20dB</property>
    <property name="mlt_type">filter</property>
    <property name="mlt_service">volume</property>
    <property name="kdenlive_id">volume</property>
    <property name="tag">volume</property>
    <property name="kdenlive_ix">1</property>
    <property name="kdenlive_info"/>
    <property name="gain">0,62</property>
    <property name="end">1</property>
   </filter>
   <filter in="864" id="filter9" out="1101">
    <property name="window">75</property>
    <property name="max_gain">20dB</property>
    <property name="mlt_type">filter</property>
    <property name="mlt_service">volume</property>
    <property name="kdenlive_id">volume</property>
    <property name="tag">volume</property>
    <property name="kdenlive_ix">1</property>
    <property name="kdenlive_info"/>
    <property name="gain">0,999454</property>
    <property name="end">0,87</property>
   </filter>
   <filter in="1102" id="filter10" out="1118">
    <property name="window">75</property>
    <property name="max_gain">20dB</property>
    <property name="mlt_type">filter</property>
    <property name="mlt_service">volume</property>
    <property name="kdenlive_id">volume</property>
    <property name="tag">volume</property>
    <property name="kdenlive_ix">1</property>
    <property name="kdenlive_info"/>
    <property name="gain">0,837059</property>
    <property name="end">0,31</property>
   </filter>
   <filter in="1119" id="filter11" out="1249">
    <property name="window">75</property>
    <property name="max_gain">20dB</property>
    <property name="mlt_type">filter</property>
    <property name="mlt_service">volume</property>
    <property name="kdenlive_id">volume</property>
    <property name="tag">volume</property>
    <property name="kdenlive_ix">1</property>
    <property name="kdenlive_info"/>
    <property name="gain">0,312824</property>
    <property name="end">0,68</property>
   </filter>
   <filter in="1250" id="filter12" out="1267">
    <property name="window">75</property>
    <property name="max_gain">20dB</property>
    <property name="mlt_type">filter</property>
    <property name="mlt_service">volume</property>
    <property name="kdenlive_id">volume</property>
    <property name="tag">volume</property>
    <property name="kdenlive_ix">1</property>
    <property name="kdenlive_info"/>
    <property name="gain">0,697778</property>
    <property name="end">1</property>
   </filter>
   <filter in="1268" id="filter13" out="1699">
    <property name="window">75</property>
    <property name="max_gain">20dB</property>
    <property name="mlt_type">filter</property>
    <property name="mlt_service">volume</property>
    <property name="kdenlive_id">volume</property>
    <property name="tag">volume</property>
    <property name="kdenlive_ix">1</property>
    <property name="kdenlive_info"/>
    <property name="gain">1</property>
    <property name="end">1</property>
   </filter>
   <filter in="1700" id="filter14" out="1769">
    <property name="window">75</property>
    <property name="max_gain">20dB</property>
    <property name="mlt_type">filter</property>
    <property name="mlt_service">volume</property>
    <property name="kdenlive_id">volume</property>
    <property name="tag">volume</property>
    <property name="kdenlive_ix">1</property>
    <property name="kdenlive_info"/>
    <property name="gain">0,987857</property>
    <property name="end">0,15</property>
   </filter>
   <filter in="1770" id="filter15" out="2451">
    <property name="window">75</property>
    <property name="max_gain">20dB</property>
    <property name="mlt_type">filter</property>
    <property name="mlt_service">volume</property>
    <property name="kdenlive_id">volume</property>
    <property name="tag">volume</property>
    <property name="kdenlive_ix">1</property>
    <property name="kdenlive_info"/>
    <property name="gain">0,15</property>
    <property name="end">0,15</property>
   </filter>
  </entry>
 </playlist>
 <producer in="0" title="Anonymous Submission" id="9_playlist2" out="5601">
  <property name="mlt_type">producer</property>
  <property name="length">00:03:06:22</property>
  <property name="eof">pause</property>
  <property name="resource">/opt/vlog/musica/bensound-beyondtheline.mp3</property>
  <property name="audio_index">0</property>
  <property name="video_index">-1</property>
  <property name="mute_on_pause">1</property>
  <property name="mlt_service">avformat-novalidate</property>
  <property name="seekable">1</property>
  <property name="kdenlive:folderid">3</property>
  <property name="kdenlive:file_size">4481985</property>
  <property name="kdenlive:file_hash">445115fbed9c6e8f816d747bf22b4a36</property>
  <property name="global_feed">1</property>
  <property name="xml">was here</property>
  <property name="meta.media.nb_streams">1</property>
  <property name="meta.media.0.stream.type">audio</property>
  <property name="meta.media.0.codec.sample_fmt">s16p</property>
  <property name="meta.media.0.codec.sample_rate">44100</property>
  <property name="meta.media.0.codec.channels">2</property>
  <property name="meta.media.0.codec.name">mp3</property>
  <property name="meta.media.0.codec.long_name">MP3 (MPEG audio layer 3)</property>
  <property name="meta.media.0.codec.bit_rate">192000</property>
 </producer>
 <producer in="0" title="Anonymous Submission" id="59_playlist2" out="3772">
  <property name="mlt_type">producer</property>
  <property name="length">00:02:05:23</property>
  <property name="eof">pause</property>
  <property name="resource">/opt/vlog/musica/bensound-punky.mp3</property>
  <property name="audio_index">0</property>
  <property name="video_index">-1</property>
  <property name="mute_on_pause">1</property>
  <property name="mlt_service">avformat-novalidate</property>
  <property name="seekable">1</property>
  <property name="kdenlive:folderid">3</property>
  <property name="kdenlive:file_size">3018083</property>
  <property name="kdenlive:file_hash">d1f5e0c9e9a0ab12fe99d3bbeede8954</property>
  <property name="global_feed">1</property>
  <property name="xml">was here</property>
  <property name="meta.media.nb_streams">1</property>
  <property name="meta.media.0.stream.type">audio</property>
  <property name="meta.media.0.codec.sample_fmt">s16p</property>
  <property name="meta.media.0.codec.sample_rate">44100</property>
  <property name="meta.media.0.codec.channels">2</property>
  <property name="meta.media.0.codec.name">mp3</property>
  <property name="meta.media.0.codec.long_name">MP3 (MPEG audio layer 3)</property>
  <property name="meta.media.0.codec.bit_rate">192000</property>
 </producer>
 <playlist id="playlist2">
  <property name="kdenlive:track_name">Audio 1    </property>
  <property name="kdenlive:audio_track">1</property>
  <property name="kdenlive:locked_track">1</property>
  <blank length="872"/>
  <entry in="1299" producer="9_playlist2" out="3483">
   <filter in="1299" id="filter16" out="1403">
    <property name="window">75</property>
    <property name="max_gain">20dB</property>
    <property name="mlt_type">filter</property>
    <property name="mlt_service">volume</property>
    <property name="kdenlive_id">fadein</property>
    <property name="tag">volume</property>
    <property name="kdenlive_ix">1</property>
    <property name="gain">0</property>
    <property name="end">1</property>
    <property name="kdenlive_info"/>
    <property name="disable">0</property>
   </filter>
   <filter in="3392" id="filter17" out="3483">
    <property name="window">75</property>
    <property name="max_gain">20dB</property>
    <property name="mlt_type">filter</property>
    <property name="mlt_service">volume</property>
    <property name="kdenlive_id">fadeout</property>
    <property name="tag">volume</property>
    <property name="kdenlive_ix">2</property>
    <property name="gain">1</property>
    <property name="end">0</property>
    <property name="kdenlive_info"/>
    <property name="disable">0</property>
   </filter>
   <filter id="gain">
    <property name="window">75</property>
    <property name="max_gain">20dB</property>
    <property name="mlt_type">filter</property>
    <property name="mlt_service">volume</property>
    <property name="kdenlive_id">gain</property>
    <property name="tag">volume</property>
    <property name="kdenlive_ix">3</property>
    <property name="gain">0,2</property>
    <property name="kdenlive_info"/>
   </filter>
  </entry>
  <blank length="10456"/>
  <entry in="3259" producer="59_playlist2" out="3772">
   <filter in="3259" id="filter18">
    <property name="window">75</property>
    <property name="max_gain">20dB</property>
    <property name="mlt_type">filter</property>
    <property name="mlt_service">volume</property>
    <property name="kdenlive_id">volume</property>
    <property name="tag">volume</property>
    <property name="kdenlive_ix">1</property>
    <property name="kdenlive_info"/>
    <property name="disable"/>
    <property name="gain">0,03</property>
   </filter>
   <filter in="3259" id="filter19" out="3322">
    <property name="window">75</property>
    <property name="max_gain">20dB</property>
    <property name="mlt_type">filter</property>
    <property name="mlt_service">volume</property>
    <property name="kdenlive_id">fadein</property>
    <property name="tag">volume</property>
    <property name="kdenlive_ix">2</property>
    <property name="gain">0</property>
    <property name="end">1</property>
    <property name="kdenlive_info"/>
    <property name="disable"/>
   </filter>
  </entry>
 </playlist>
 <producer in="0" title="Anonymous Submission" id="9_playlist3" out="5601">
  <property name="mlt_type">mlt_producer</property>
  <property name="length">00:03:06:22</property>
  <property name="eof">pause</property>
  <property name="resource">/opt/vlog/musica/bensound-beyondtheline.mp3</property>
  <property name="audio_index">0</property>
  <property name="video_index">-1</property>
  <property name="mute_on_pause">1</property>
  <property name="mlt_service">avformat-novalidate</property>
  <property name="seekable">1</property>
  <property name="kdenlive:folderid">3</property>
  <property name="kdenlive:file_size">4481985</property>
  <property name="kdenlive:file_hash">445115fbed9c6e8f816d747bf22b4a36</property>
  <property name="global_feed">1</property>
  <property name="xml">was here</property>
  <property name="meta.media.nb_streams">1</property>
  <property name="meta.media.0.stream.type">audio</property>
  <property name="meta.media.0.codec.sample_fmt">s16p</property>
  <property name="meta.media.0.codec.sample_rate">44100</property>
  <property name="meta.media.0.codec.channels">2</property>
  <property name="meta.media.0.codec.name">mp3</property>
  <property name="meta.media.0.codec.long_name">MP3 (MPEG audio layer 3)</property>
  <property name="meta.media.0.codec.bit_rate">192000</property>
 </producer>
 <producer in="0" title="Anonymous Submission" id="22_playlist3" out="6312">
  <property name="mlt_type">producer</property>
  <property name="length">00:03:30:13</property>
  <property name="eof">pause</property>
  <property name="resource">/opt/vlog/musica/bensound-dreams.mp3</property>
  <property name="audio_index">0</property>
  <property name="video_index">-1</property>
  <property name="mute_on_pause">1</property>
  <property name="mlt_service">avformat-novalidate</property>
  <property name="seekable">1</property>
  <property name="kdenlive:folderid">3</property>
  <property name="kdenlive:file_size">5050618</property>
  <property name="kdenlive:file_hash">6c1356ee812ce3a9bd389bb251cb1442</property>
  <property name="global_feed">1</property>
  <property name="xml">was here</property>
  <property name="meta.media.nb_streams">1</property>
  <property name="meta.media.0.stream.type">audio</property>
  <property name="meta.media.0.codec.sample_fmt">s16p</property>
  <property name="meta.media.0.codec.sample_rate">44100</property>
  <property name="meta.media.0.codec.channels">2</property>
  <property name="meta.media.0.codec.name">mp3</property>
  <property name="meta.media.0.codec.long_name">MP3 (MPEG audio layer 3)</property>
  <property name="meta.media.0.codec.bit_rate">192000</property>
 </producer>
 <playlist id="playlist3">
  <property name="kdenlive:track_name">Video 3</property>
  <property name="kdenlive:locked_track">1</property>
  <entry in="0" producer="9_playlist3" out="977">
   <filter id="filter20" out="107">
    <property name="window">75</property>
    <property name="max_gain">20dB</property>
    <property name="mlt_type">filter</property>
    <property name="mlt_service">volume</property>
    <property name="kdenlive_id">fadein</property>
    <property name="tag">volume</property>
    <property name="kdenlive_ix">1</property>
    <property name="kdenlive_info"/>
    <property name="disable"/>
    <property name="gain">0</property>
    <property name="end">1</property>
   </filter>
   <filter in="873" id="filter21" out="977">
    <property name="window">75</property>
    <property name="max_gain">20dB</property>
    <property name="mlt_type">filter</property>
    <property name="mlt_service">volume</property>
    <property name="kdenlive_id">fadeout</property>
    <property name="tag">volume</property>
    <property name="kdenlive_ix">2</property>
    <property name="gain">1</property>
    <property name="end">0</property>
   </filter>
   <filter id="filter22">
    <property name="window">75</property>
    <property name="max_gain">20dB</property>
    <property name="mlt_type">filter</property>
    <property name="mlt_service">volume</property>
    <property name="kdenlive_id">volume</property>
    <property name="tag">volume</property>
    <property name="kdenlive_ix">3</property>
    <property name="kdenlive_info"/>
    <property name="gain">0,1</property>
   </filter>
   <filter in="1391" id="filter23" out="1429">
    <property name="window">75</property>
    <property name="max_gain">20dB</property>
    <property name="mlt_type">filter</property>
    <property name="mlt_service">volume</property>
    <property name="kdenlive_id">fadeout</property>
    <property name="tag">volume</property>
    <property name="kdenlive_ix">4</property>
    <property name="gain">1</property>
    <property name="end">0</property>
    <property name="kdenlive_info"/>
   </filter>
   <filter in="1177" id="filter24" out="1188">
    <property name="window">75</property>
    <property name="max_gain">20dB</property>
    <property name="mlt_type">filter</property>
    <property name="mlt_service">volume</property>
    <property name="kdenlive_id">fadeout</property>
    <property name="tag">volume</property>
    <property name="kdenlive_ix">5</property>
    <property name="gain">1</property>
    <property name="end">0</property>
    <property name="kdenlive_info"/>
   </filter>
  </entry>
  <blank length="2307"/>
  <entry in="0" producer="22_playlist3" out="2486">
   <filter id="filter25" out="102">
    <property name="window">75</property>
    <property name="max_gain">20dB</property>
    <property name="mlt_type">filter</property>
    <property name="mlt_service">volume</property>
    <property name="kdenlive_id">fadein</property>
    <property name="tag">volume</property>
    <property name="kdenlive_ix">1</property>
    <property name="gain">0</property>
    <property name="end">1</property>
   </filter>
   <filter id="filter26">
    <property name="window">75</property>
    <property name="max_gain">20dB</property>
    <property name="mlt_type">filter</property>
    <property name="mlt_service">volume</property>
    <property name="kdenlive_id">gain</property>
    <property name="tag">volume</property>
    <property name="kdenlive_ix">2</property>
    <property name="gain">0,2</property>
    <property name="kdenlive_info">0/-1/</property>
   </filter>
   <filter in="2145" id="filter27" out="2487">
    <property name="window">75</property>
    <property name="max_gain">20dB</property>
    <property name="mlt_type">filter</property>
    <property name="mlt_service">volume</property>
    <property name="kdenlive_id">fadeout</property>
    <property name="tag">volume</property>
    <property name="kdenlive_ix">3</property>
    <property name="gain">1</property>
    <property name="end">0</property>
    <property name="kdenlive_info"/>
    <property name="disable"/>
   </filter>
   <filter id="filter28" out="1659">
    <property name="window">75</property>
    <property name="max_gain">20dB</property>
    <property name="mlt_type">filter</property>
    <property name="mlt_service">volume</property>
    <property name="kdenlive_id">volume</property>
    <property name="tag">volume</property>
    <property name="kdenlive_ix">4</property>
    <property name="kdenlive_info"/>
    <property name="gain">1</property>
    <property name="end">1,06</property>
   </filter>
   <filter in="1660" id="filter29" out="1693">
    <property name="window">75</property>
    <property name="max_gain">20dB</property>
    <property name="mlt_type">filter</property>
    <property name="mlt_service">volume</property>
    <property name="kdenlive_id">volume</property>
    <property name="tag">volume</property>
    <property name="kdenlive_ix">4</property>
    <property name="kdenlive_info"/>
    <property name="gain">1,04353</property>
    <property name="end">0,5</property>
   </filter>
   <filter in="1694" id="filter30" out="1732">
    <property name="window">75</property>
    <property name="max_gain">20dB</property>
    <property name="mlt_type">filter</property>
    <property name="mlt_service">volume</property>
    <property name="kdenlive_id">volume</property>
    <property name="tag">volume</property>
    <property name="kdenlive_ix">4</property>
    <property name="kdenlive_info"/>
    <property name="gain">0,496667</property>
    <property name="end">0,37</property>
   </filter>
   <filter in="1733" id="filter31" out="1796">
    <property name="window">75</property>
    <property name="max_gain">20dB</property>
    <property name="mlt_type">filter</property>
    <property name="mlt_service">volume</property>
    <property name="kdenlive_id">volume</property>
    <property name="tag">volume</property>
    <property name="kdenlive_ix">4</property>
    <property name="kdenlive_info"/>
    <property name="gain">0,37</property>
    <property name="end">0,37</property>
   </filter>
   <filter in="1797" id="filter32" out="1836">
    <property name="window">75</property>
    <property name="max_gain">20dB</property>
    <property name="mlt_type">filter</property>
    <property name="mlt_service">volume</property>
    <property name="kdenlive_id">volume</property>
    <property name="tag">volume</property>
    <property name="kdenlive_ix">4</property>
    <property name="kdenlive_info"/>
    <property name="gain">0,38575</property>
    <property name="end">1</property>
   </filter>
   <filter in="1837" id="filter33" out="2486">
    <property name="window">75</property>
    <property name="max_gain">20dB</property>
    <property name="mlt_type">filter</property>
    <property name="mlt_service">volume</property>
    <property name="kdenlive_id">volume</property>
    <property name="tag">volume</property>
    <property name="kdenlive_ix">4</property>
    <property name="kdenlive_info"/>
    <property name="gain">1</property>
    <property name="end">1</property>
   </filter>
  </entry>
 </playlist>
 <producer in="0" title="Anonymous Submission" id="81_playlist4" out="5623">
  <property name="mlt_type">mlt_producer</property>
  <property name="length">00:03:07:14</property>
  <property name="eof">pause</property>
  <property name="resource">/opt/vlog/entrenamiento1/videos/VID_20190202_130736.mp4</property>
  <property name="audio_index">0</property>
  <property name="video_index">1</property>
  <property name="mute_on_pause">1</property>
  <property name="mlt_service">avformat-novalidate</property>
  <property name="seekable">1</property>
  <property name="aspect_ratio">1</property>
  <property name="kdenlive:folderid">1</property>
  <property name="kdenlive:file_size">520215504</property>
  <property name="kdenlive:file_hash">e285e16875a9485103b7ed3e74d3c62c</property>
  <property name="global_feed">1</property>
  <property name="xml">was here</property>
  <property name="meta.media.nb_streams">2</property>
  <property name="meta.media.0.stream.type">audio</property>
  <property name="meta.media.0.codec.sample_fmt">fltp</property>
  <property name="meta.media.0.codec.sample_rate">44100</property>
  <property name="meta.media.0.codec.channels">2</property>
  <property name="meta.media.0.codec.name">aac</property>
  <property name="meta.media.0.codec.long_name">AAC (Advanced Audio Coding)</property>
  <property name="meta.media.0.codec.bit_rate">191998</property>
  <property name="meta.attr.0.stream.creation_time.markup">2019-02-02 12:07:35</property>
  <property name="meta.attr.0.stream.language.markup">eng</property>
  <property name="meta.attr.0.stream.handler_name.markup">SoundHandle</property>
  <property name="meta.media.1.stream.type">video</property>
  <property name="meta.media.1.stream.frame_rate">30,1092</property>
  <property name="meta.media.1.stream.sample_aspect_ratio">1</property>
  <property name="meta.media.1.codec.width">1920</property>
  <property name="meta.media.1.codec.height">1080</property>
  <property name="meta.media.1.codec.rotate">180</property>
  <property name="meta.media.1.codec.frame_rate">90000</property>
  <property name="meta.media.1.codec.pix_fmt">yuvj420p</property>
  <property name="meta.media.1.codec.sample_aspect_ratio">0</property>
  <property name="meta.media.1.codec.colorspace">601</property>
  <property name="meta.media.1.codec.color_trc">6</property>
  <property name="meta.media.1.codec.name">h264</property>
  <property name="meta.media.1.codec.long_name">H.264 / AVC / MPEG-4 AVC / MPEG-4 part 10</property>
  <property name="meta.media.1.codec.bit_rate">22006533</property>
  <property name="meta.attr.1.stream.rotate.markup">180</property>
  <property name="meta.attr.1.stream.creation_time.markup">2019-02-02 12:07:35</property>
  <property name="meta.attr.1.stream.language.markup">eng</property>
  <property name="meta.attr.1.stream.handler_name.markup">VideoHandle</property>
  <property name="meta.attr.major_brand.markup">mp42</property>
  <property name="meta.attr.minor_version.markup">0</property>
  <property name="meta.attr.compatible_brands.markup">isommp42</property>
  <property name="meta.attr.creation_time.markup">2019-02-02 12:07:35</property>
  <property name="meta.attr.location.markup">+51.5187+007.4000/</property>
  <property name="meta.attr.location-eng.markup">+51.5187+007.4000/</property>
  <property name="meta.media.sample_aspect_num">1</property>
  <property name="meta.media.sample_aspect_den">1</property>
  <property name="meta.media.frame_rate_num">29880000</property>
  <property name="meta.media.frame_rate_den">992387</property>
  <property name="meta.media.colorspace">601</property>
  <property name="meta.media.color_trc">6</property>
  <property name="meta.media.width">1920</property>
  <property name="meta.media.height">1080</property>
  <property name="meta.media.top_field_first">0</property>
  <property name="meta.media.progressive">1</property>
 </producer>
 <producer in="0" title="Anonymous Submission" id="83_playlist4" out="15487">
  <property name="mlt_type">mlt_producer</property>
  <property name="length">00:08:36:08</property>
  <property name="eof">pause</property>
  <property name="resource">/opt/vlog/entrenamiento1/videos/VID_20190202_133913.mp4</property>
  <property name="audio_index">0</property>
  <property name="video_index">1</property>
  <property name="mute_on_pause">1</property>
  <property name="mlt_service">avformat-novalidate</property>
  <property name="seekable">1</property>
  <property name="aspect_ratio">1</property>
  <property name="kdenlive:folderid">1</property>
  <property name="kdenlive:file_size">1432713470</property>
  <property name="kdenlive:file_hash">1f0a354e03507ace4d8746a796067810</property>
  <property name="global_feed">1</property>
  <property name="xml">was here</property>
  <property name="meta.media.nb_streams">2</property>
  <property name="meta.media.0.stream.type">audio</property>
  <property name="meta.media.0.codec.sample_fmt">fltp</property>
  <property name="meta.media.0.codec.sample_rate">44100</property>
  <property name="meta.media.0.codec.channels">2</property>
  <property name="meta.media.0.codec.name">aac</property>
  <property name="meta.media.0.codec.long_name">AAC (Advanced Audio Coding)</property>
  <property name="meta.media.0.codec.bit_rate">191999</property>
  <property name="meta.attr.0.stream.creation_time.markup">2019-02-02 12:39:13</property>
  <property name="meta.attr.0.stream.language.markup">eng</property>
  <property name="meta.attr.0.stream.handler_name.markup">SoundHandle</property>
  <property name="meta.media.1.stream.type">video</property>
  <property name="meta.media.1.stream.frame_rate">30,0123</property>
  <property name="meta.media.1.stream.sample_aspect_ratio">1</property>
  <property name="meta.media.1.codec.width">1920</property>
  <property name="meta.media.1.codec.height">1080</property>
  <property name="meta.media.1.codec.rotate">0</property>
  <property name="meta.media.1.codec.frame_rate">90000</property>
  <property name="meta.media.1.codec.pix_fmt">yuvj420p</property>
  <property name="meta.media.1.codec.sample_aspect_ratio">0</property>
  <property name="meta.media.1.codec.colorspace">601</property>
  <property name="meta.media.1.codec.color_trc">6</property>
  <property name="meta.media.1.codec.name">h264</property>
  <property name="meta.media.1.codec.long_name">H.264 / AVC / MPEG-4 AVC / MPEG-4 part 10</property>
  <property name="meta.media.1.codec.bit_rate">22006863</property>
  <property name="meta.attr.1.stream.creation_time.markup">2019-02-02 12:39:13</property>
  <property name="meta.attr.1.stream.language.markup">eng</property>
  <property name="meta.attr.1.stream.handler_name.markup">VideoHandle</property>
  <property name="meta.attr.major_brand.markup">mp42</property>
  <property name="meta.attr.minor_version.markup">0</property>
  <property name="meta.attr.compatible_brands.markup">isommp42</property>
  <property name="meta.attr.creation_time.markup">2019-02-02 12:39:13</property>
  <property name="meta.attr.location.markup">+51.5184+007.3990/</property>
  <property name="meta.attr.location-eng.markup">+51.5184+007.3990/</property>
  <property name="meta.media.sample_aspect_num">1</property>
  <property name="meta.media.sample_aspect_den">1</property>
  <property name="meta.media.frame_rate_num">46482000</property>
  <property name="meta.media.frame_rate_den">1548763</property>
  <property name="meta.media.colorspace">601</property>
  <property name="meta.media.color_trc">6</property>
  <property name="meta.media.width">1920</property>
  <property name="meta.media.height">1080</property>
  <property name="meta.media.top_field_first">0</property>
  <property name="meta.media.progressive">1</property>
 </producer>
 <producer in="0" title="Anonymous Submission" id="85_playlist4" out="12881">
  <property name="mlt_type">mlt_producer</property>
  <property name="length">00:07:09:12</property>
  <property name="eof">pause</property>
  <property name="resource">/opt/vlog/entrenamiento1/videos/VID_20190202_140016.mp4</property>
  <property name="audio_index">0</property>
  <property name="video_index">1</property>
  <property name="mute_on_pause">1</property>
  <property name="mlt_service">avformat-novalidate</property>
  <property name="seekable">1</property>
  <property name="aspect_ratio">1</property>
  <property name="kdenlive:folderid">1</property>
  <property name="kdenlive:file_size">1191419173</property>
  <property name="kdenlive:file_hash">b13cda36433526fcdb802ad8d8dd96df</property>
  <property name="global_feed">1</property>
  <property name="xml">was here</property>
  <property name="meta.media.nb_streams">2</property>
  <property name="meta.media.0.stream.type">audio</property>
  <property name="meta.media.0.codec.sample_fmt">fltp</property>
  <property name="meta.media.0.codec.sample_rate">44100</property>
  <property name="meta.media.0.codec.channels">2</property>
  <property name="meta.media.0.codec.name">aac</property>
  <property name="meta.media.0.codec.long_name">AAC (Advanced Audio Coding)</property>
  <property name="meta.media.0.codec.bit_rate">191998</property>
  <property name="meta.attr.0.stream.creation_time.markup">2019-02-02 13:00:15</property>
  <property name="meta.attr.0.stream.language.markup">eng</property>
  <property name="meta.attr.0.stream.handler_name.markup">SoundHandle</property>
  <property name="meta.media.1.stream.type">video</property>
  <property name="meta.media.1.stream.frame_rate">30,0116</property>
  <property name="meta.media.1.stream.sample_aspect_ratio">1</property>
  <property name="meta.media.1.codec.width">1920</property>
  <property name="meta.media.1.codec.height">1080</property>
  <property name="meta.media.1.codec.rotate">0</property>
  <property name="meta.media.1.codec.frame_rate">90000</property>
  <property name="meta.media.1.codec.pix_fmt">yuvj420p</property>
  <property name="meta.media.1.codec.sample_aspect_ratio">0</property>
  <property name="meta.media.1.codec.colorspace">601</property>
  <property name="meta.media.1.codec.color_trc">6</property>
  <property name="meta.media.1.codec.name">h264</property>
  <property name="meta.media.1.codec.long_name">H.264 / AVC / MPEG-4 AVC / MPEG-4 part 10</property>
  <property name="meta.media.1.codec.bit_rate">22002252</property>
  <property name="meta.attr.1.stream.creation_time.markup">2019-02-02 13:00:15</property>
  <property name="meta.attr.1.stream.language.markup">eng</property>
  <property name="meta.attr.1.stream.handler_name.markup">VideoHandle</property>
  <property name="meta.attr.major_brand.markup">mp42</property>
  <property name="meta.attr.minor_version.markup">0</property>
  <property name="meta.attr.compatible_brands.markup">isommp42</property>
  <property name="meta.attr.creation_time.markup">2019-02-02 13:00:15</property>
  <property name="meta.attr.location.markup">+51.5225+007.4004/</property>
  <property name="meta.attr.location-eng.markup">+51.5225+007.4004/</property>
  <property name="meta.media.sample_aspect_num">1</property>
  <property name="meta.media.sample_aspect_den">1</property>
  <property name="meta.media.frame_rate_num">231966000</property>
  <property name="meta.media.frame_rate_den">7729213</property>
  <property name="meta.media.colorspace">601</property>
  <property name="meta.media.color_trc">6</property>
  <property name="meta.media.width">1920</property>
  <property name="meta.media.height">1080</property>
  <property name="meta.media.top_field_first">0</property>
  <property name="meta.media.progressive">1</property>
 </producer>
 <producer in="0" title="Anonymous Submission" id="86_playlist4" out="802">
  <property name="mlt_type">producer</property>
  <property name="length">00:00:26:23</property>
  <property name="eof">pause</property>
  <property name="resource">/opt/vlog/entrenamiento1/videos/VID_20190202_140402.mp4</property>
  <property name="audio_index">0</property>
  <property name="video_index">1</property>
  <property name="mute_on_pause">1</property>
  <property name="mlt_service">avformat-novalidate</property>
  <property name="seekable">1</property>
  <property name="aspect_ratio">1</property>
  <property name="kdenlive:folderid">1</property>
  <property name="kdenlive:file_size">74307776</property>
  <property name="kdenlive:file_hash">2aaed4185c84128679b04e545ce36083</property>
  <property name="global_feed">1</property>
  <property name="xml">was here</property>
  <property name="meta.media.nb_streams">2</property>
  <property name="meta.media.0.stream.type">audio</property>
  <property name="meta.media.0.codec.sample_fmt">fltp</property>
  <property name="meta.media.0.codec.sample_rate">44100</property>
  <property name="meta.media.0.codec.channels">2</property>
  <property name="meta.media.0.codec.name">aac</property>
  <property name="meta.media.0.codec.long_name">AAC (Advanced Audio Coding)</property>
  <property name="meta.media.0.codec.bit_rate">191896</property>
  <property name="meta.attr.0.stream.creation_time.markup">2019-02-02 13:04:02</property>
  <property name="meta.attr.0.stream.language.markup">eng</property>
  <property name="meta.attr.0.stream.handler_name.markup">SoundHandle</property>
  <property name="meta.media.1.stream.type">video</property>
  <property name="meta.media.1.stream.frame_rate">30,0174</property>
  <property name="meta.media.1.stream.sample_aspect_ratio">1</property>
  <property name="meta.media.1.codec.width">1920</property>
  <property name="meta.media.1.codec.height">1080</property>
  <property name="meta.media.1.codec.rotate">0</property>
  <property name="meta.media.1.codec.frame_rate">90000</property>
  <property name="meta.media.1.codec.pix_fmt">yuvj420p</property>
  <property name="meta.media.1.codec.sample_aspect_ratio">0</property>
  <property name="meta.media.1.codec.colorspace">601</property>
  <property name="meta.media.1.codec.color_trc">6</property>
  <property name="meta.media.1.codec.name">h264</property>
  <property name="meta.media.1.codec.long_name">H.264 / AVC / MPEG-4 AVC / MPEG-4 part 10</property>
  <property name="meta.media.1.codec.bit_rate">22026078</property>
  <property name="meta.attr.1.stream.creation_time.markup">2019-02-02 13:04:02</property>
  <property name="meta.attr.1.stream.language.markup">eng</property>
  <property name="meta.attr.1.stream.handler_name.markup">VideoHandle</property>
  <property name="meta.attr.major_brand.markup">mp42</property>
  <property name="meta.attr.minor_version.markup">0</property>
  <property name="meta.attr.compatible_brands.markup">isommp42</property>
  <property name="meta.attr.creation_time.markup">2019-02-02 13:04:02</property>
  <property name="meta.attr.location.markup">+51.5188+007.4011/</property>
  <property name="meta.attr.location-eng.markup">+51.5188+007.4011/</property>
  <property name="meta.media.sample_aspect_num">1</property>
  <property name="meta.media.sample_aspect_den">1</property>
  <property name="meta.media.frame_rate_num">36135000</property>
  <property name="meta.media.frame_rate_den">1203803</property>
  <property name="meta.media.colorspace">601</property>
  <property name="meta.media.color_trc">6</property>
  <property name="meta.media.width">1920</property>
  <property name="meta.media.height">1080</property>
  <property name="meta.media.top_field_first">0</property>
  <property name="meta.media.progressive">1</property>
 </producer>
 <producer in="0" title="Anonymous Submission" id="88_playlist4" out="24144">
  <property name="mlt_type">mlt_producer</property>
  <property name="length">00:13:24:25</property>
  <property name="eof">pause</property>
  <property name="resource">/opt/vlog/entrenamiento1/videos/VID_20190202_143005.mp4</property>
  <property name="audio_index">0</property>
  <property name="video_index">1</property>
  <property name="mute_on_pause">1</property>
  <property name="mlt_service">avformat-novalidate</property>
  <property name="seekable">1</property>
  <property name="aspect_ratio">1</property>
  <property name="kdenlive:folderid">1</property>
  <property name="kdenlive:file_size">2233387928</property>
  <property name="kdenlive:file_hash">aec056a458604487146a80b48484766b</property>
  <property name="global_feed">1</property>
  <property name="xml">was here</property>
  <property name="meta.media.nb_streams">2</property>
  <property name="meta.media.0.stream.type">audio</property>
  <property name="meta.media.0.codec.sample_fmt">fltp</property>
  <property name="meta.media.0.codec.sample_rate">44100</property>
  <property name="meta.media.0.codec.channels">2</property>
  <property name="meta.media.0.codec.name">aac</property>
  <property name="meta.media.0.codec.long_name">AAC (Advanced Audio Coding)</property>
  <property name="meta.media.0.codec.bit_rate">191997</property>
  <property name="meta.attr.0.stream.creation_time.markup">2019-02-02 13:30:05</property>
  <property name="meta.attr.0.stream.language.markup">eng</property>
  <property name="meta.attr.0.stream.handler_name.markup">SoundHandle</property>
  <property name="meta.media.1.stream.type">video</property>
  <property name="meta.media.1.stream.frame_rate">30,012</property>
  <property name="meta.media.1.stream.sample_aspect_ratio">1</property>
  <property name="meta.media.1.codec.width">1920</property>
  <property name="meta.media.1.codec.height">1080</property>
  <property name="meta.media.1.codec.rotate">0</property>
  <property name="meta.media.1.codec.frame_rate">90000</property>
  <property name="meta.media.1.codec.pix_fmt">yuvj420p</property>
  <property name="meta.media.1.codec.sample_aspect_ratio">0</property>
  <property name="meta.media.1.codec.colorspace">601</property>
  <property name="meta.media.1.codec.color_trc">6</property>
  <property name="meta.media.1.codec.name">h264</property>
  <property name="meta.media.1.codec.long_name">H.264 / AVC / MPEG-4 AVC / MPEG-4 part 10</property>
  <property name="meta.media.1.codec.bit_rate">22004752</property>
  <property name="meta.attr.1.stream.creation_time.markup">2019-02-02 13:30:05</property>
  <property name="meta.attr.1.stream.language.markup">eng</property>
  <property name="meta.attr.1.stream.handler_name.markup">VideoHandle</property>
  <property name="meta.attr.major_brand.markup">mp42</property>
  <property name="meta.attr.minor_version.markup">0</property>
  <property name="meta.attr.compatible_brands.markup">isommp42</property>
  <property name="meta.attr.creation_time.markup">2019-02-02 13:30:05</property>
  <property name="meta.attr.location.markup">+51.5190+007.4016/</property>
  <property name="meta.attr.location-eng.markup">+51.5190+007.4016/</property>
  <property name="meta.media.sample_aspect_num">1</property>
  <property name="meta.media.sample_aspect_den">1</property>
  <property name="meta.media.frame_rate_num">135871875</property>
  <property name="meta.media.frame_rate_den">4527253</property>
  <property name="meta.media.colorspace">601</property>
  <property name="meta.media.color_trc">6</property>
  <property name="meta.media.width">1920</property>
  <property name="meta.media.height">1080</property>
  <property name="meta.media.top_field_first">0</property>
  <property name="meta.media.progressive">1</property>
 </producer>
 <producer in="0" title="Anonymous Submission" id="89_playlist4" out="2903">
  <property name="mlt_type">producer</property>
  <property name="length">00:01:36:24</property>
  <property name="eof">pause</property>
  <property name="resource">/opt/vlog/entrenamiento1/videos/VID_20190202_143439.mp4</property>
  <property name="audio_index">0</property>
  <property name="video_index">1</property>
  <property name="mute_on_pause">1</property>
  <property name="mlt_service">avformat-novalidate</property>
  <property name="seekable">1</property>
  <property name="aspect_ratio">1</property>
  <property name="kdenlive:folderid">1</property>
  <property name="kdenlive:file_size">268917747</property>
  <property name="kdenlive:file_hash">48cbecbe62cb6da4a73dce7d52d9d47f</property>
  <property name="global_feed">1</property>
  <property name="xml">was here</property>
  <property name="meta.media.nb_streams">2</property>
  <property name="meta.media.0.stream.type">audio</property>
  <property name="meta.media.0.codec.sample_fmt">fltp</property>
  <property name="meta.media.0.codec.sample_rate">44100</property>
  <property name="meta.media.0.codec.channels">2</property>
  <property name="meta.media.0.codec.name">aac</property>
  <property name="meta.media.0.codec.long_name">AAC (Advanced Audio Coding)</property>
  <property name="meta.media.0.codec.bit_rate">192001</property>
  <property name="meta.attr.0.stream.creation_time.markup">2019-02-02 13:34:39</property>
  <property name="meta.attr.0.stream.language.markup">eng</property>
  <property name="meta.attr.0.stream.handler_name.markup">SoundHandle</property>
  <property name="meta.media.1.stream.type">video</property>
  <property name="meta.media.1.stream.frame_rate">30,0121</property>
  <property name="meta.media.1.stream.sample_aspect_ratio">1</property>
  <property name="meta.media.1.codec.width">1920</property>
  <property name="meta.media.1.codec.height">1080</property>
  <property name="meta.media.1.codec.rotate">0</property>
  <property name="meta.media.1.codec.frame_rate">90000</property>
  <property name="meta.media.1.codec.pix_fmt">yuvj420p</property>
  <property name="meta.media.1.codec.sample_aspect_ratio">0</property>
  <property name="meta.media.1.codec.colorspace">601</property>
  <property name="meta.media.1.codec.color_trc">6</property>
  <property name="meta.media.1.codec.name">h264</property>
  <property name="meta.media.1.codec.long_name">H.264 / AVC / MPEG-4 AVC / MPEG-4 part 10</property>
  <property name="meta.media.1.codec.bit_rate">22030841</property>
  <property name="meta.attr.1.stream.creation_time.markup">2019-02-02 13:34:39</property>
  <property name="meta.attr.1.stream.language.markup">eng</property>
  <property name="meta.attr.1.stream.handler_name.markup">VideoHandle</property>
  <property name="meta.attr.major_brand.markup">mp42</property>
  <property name="meta.attr.minor_version.markup">0</property>
  <property name="meta.attr.compatible_brands.markup">isommp42</property>
  <property name="meta.attr.creation_time.markup">2019-02-02 13:34:39</property>
  <property name="meta.attr.location.markup">+51.5190+007.4025/</property>
  <property name="meta.attr.location-eng.markup">+51.5190+007.4025/</property>
  <property name="meta.media.sample_aspect_num">1</property>
  <property name="meta.media.sample_aspect_den">1</property>
  <property name="meta.media.frame_rate_num">52290000</property>
  <property name="meta.media.frame_rate_den">1742299</property>
  <property name="meta.media.colorspace">601</property>
  <property name="meta.media.color_trc">6</property>
  <property name="meta.media.width">1920</property>
  <property name="meta.media.height">1080</property>
  <property name="meta.media.top_field_first">0</property>
  <property name="meta.media.progressive">1</property>
 </producer>
 <producer in="0" title="Anonymous Submission" id="90_playlist4" out="465">
  <property name="mlt_type">producer</property>
  <property name="length">00:00:15:16</property>
  <property name="eof">pause</property>
  <property name="resource">/opt/vlog/entrenamiento1/videos/VID_20190202_143615.mp4</property>
  <property name="audio_index">0</property>
  <property name="video_index">1</property>
  <property name="mute_on_pause">1</property>
  <property name="mlt_service">avformat-novalidate</property>
  <property name="seekable">1</property>
  <property name="aspect_ratio">1</property>
  <property name="kdenlive:folderid">1</property>
  <property name="kdenlive:file_size">43197621</property>
  <property name="kdenlive:file_hash">00d05bc0b46e0806158ee30294442478</property>
  <property name="global_feed">1</property>
  <property name="xml">was here</property>
  <property name="meta.media.nb_streams">2</property>
  <property name="meta.media.0.stream.type">audio</property>
  <property name="meta.media.0.codec.sample_fmt">fltp</property>
  <property name="meta.media.0.codec.sample_rate">44100</property>
  <property name="meta.media.0.codec.channels">2</property>
  <property name="meta.media.0.codec.name">aac</property>
  <property name="meta.media.0.codec.long_name">AAC (Advanced Audio Coding)</property>
  <property name="meta.media.0.codec.bit_rate">191856</property>
  <property name="meta.attr.0.stream.creation_time.markup">2019-02-02 13:36:14</property>
  <property name="meta.attr.0.stream.language.markup">eng</property>
  <property name="meta.attr.0.stream.handler_name.markup">SoundHandle</property>
  <property name="meta.media.1.stream.type">video</property>
  <property name="meta.media.1.stream.frame_rate">30,0122</property>
  <property name="meta.media.1.stream.sample_aspect_ratio">1</property>
  <property name="meta.media.1.codec.width">1920</property>
  <property name="meta.media.1.codec.height">1080</property>
  <property name="meta.media.1.codec.rotate">0</property>
  <property name="meta.media.1.codec.frame_rate">90000</property>
  <property name="meta.media.1.codec.pix_fmt">yuvj420p</property>
  <property name="meta.media.1.codec.sample_aspect_ratio">0</property>
  <property name="meta.media.1.codec.colorspace">601</property>
  <property name="meta.media.1.codec.color_trc">6</property>
  <property name="meta.media.1.codec.name">h264</property>
  <property name="meta.media.1.codec.long_name">H.264 / AVC / MPEG-4 AVC / MPEG-4 part 10</property>
  <property name="meta.media.1.codec.bit_rate">22059971</property>
  <property name="meta.attr.1.stream.creation_time.markup">2019-02-02 13:36:14</property>
  <property name="meta.attr.1.stream.language.markup">eng</property>
  <property name="meta.attr.1.stream.handler_name.markup">VideoHandle</property>
  <property name="meta.attr.major_brand.markup">mp42</property>
  <property name="meta.attr.minor_version.markup">0</property>
  <property name="meta.attr.compatible_brands.markup">isommp42</property>
  <property name="meta.attr.creation_time.markup">2019-02-02 13:36:14</property>
  <property name="meta.attr.location.markup">+51.5189+007.4025/</property>
  <property name="meta.attr.location-eng.markup">+51.5189+007.4025/</property>
  <property name="meta.media.sample_aspect_num">1</property>
  <property name="meta.media.sample_aspect_den">1</property>
  <property name="meta.media.frame_rate_num">466000</property>
  <property name="meta.media.frame_rate_den">15527</property>
  <property name="meta.media.colorspace">601</property>
  <property name="meta.media.color_trc">6</property>
  <property name="meta.media.width">1920</property>
  <property name="meta.media.height">1080</property>
  <property name="meta.media.top_field_first">0</property>
  <property name="meta.media.progressive">1</property>
 </producer>
 <producer in="0" title="Anonymous Submission" id="91_playlist4" out="1781">
  <property name="mlt_type">producer</property>
  <property name="length">00:00:59:12</property>
  <property name="eof">pause</property>
  <property name="resource">/opt/vlog/entrenamiento1/videos/VID_20190202_145953.mp4</property>
  <property name="audio_index">0</property>
  <property name="video_index">1</property>
  <property name="mute_on_pause">1</property>
  <property name="mlt_service">avformat-novalidate</property>
  <property name="seekable">1</property>
  <property name="aspect_ratio">1</property>
  <property name="kdenlive:folderid">1</property>
  <property name="kdenlive:file_size">165199773</property>
  <property name="kdenlive:file_hash">6c8af210827b8ed8c5c2c564fdeb278c</property>
  <property name="global_feed">1</property>
  <property name="xml">was here</property>
  <property name="meta.media.nb_streams">2</property>
  <property name="meta.media.0.stream.type">audio</property>
  <property name="meta.media.0.codec.sample_fmt">fltp</property>
  <property name="meta.media.0.codec.sample_rate">44100</property>
  <property name="meta.media.0.codec.channels">2</property>
  <property name="meta.media.0.codec.name">aac</property>
  <property name="meta.media.0.codec.long_name">AAC (Advanced Audio Coding)</property>
  <property name="meta.media.0.codec.bit_rate">191940</property>
  <property name="meta.attr.0.stream.creation_time.markup">2019-02-02 13:59:53</property>
  <property name="meta.attr.0.stream.language.markup">eng</property>
  <property name="meta.attr.0.stream.handler_name.markup">SoundHandle</property>
  <property name="meta.media.1.stream.type">video</property>
  <property name="meta.media.1.stream.frame_rate">30,0113</property>
  <property name="meta.media.1.stream.sample_aspect_ratio">1</property>
  <property name="meta.media.1.codec.width">1920</property>
  <property name="meta.media.1.codec.height">1080</property>
  <property name="meta.media.1.codec.rotate">0</property>
  <property name="meta.media.1.codec.frame_rate">90000</property>
  <property name="meta.media.1.codec.pix_fmt">yuvj420p</property>
  <property name="meta.media.1.codec.sample_aspect_ratio">0</property>
  <property name="meta.media.1.codec.colorspace">601</property>
  <property name="meta.media.1.codec.color_trc">6</property>
  <property name="meta.media.1.codec.name">h264</property>
  <property name="meta.media.1.codec.long_name">H.264 / AVC / MPEG-4 AVC / MPEG-4 part 10</property>
  <property name="meta.media.1.codec.bit_rate">22049767</property>
  <property name="meta.attr.1.stream.creation_time.markup">2019-02-02 13:59:53</property>
  <property name="meta.attr.1.stream.language.markup">eng</property>
  <property name="meta.attr.1.stream.handler_name.markup">VideoHandle</property>
  <property name="meta.attr.major_brand.markup">mp42</property>
  <property name="meta.attr.minor_version.markup">0</property>
  <property name="meta.attr.compatible_brands.markup">isommp42</property>
  <property name="meta.attr.creation_time.markup">2019-02-02 13:59:53</property>
  <property name="meta.attr.location.markup">+51.5202+007.4015/</property>
  <property name="meta.attr.location-eng.markup">+51.5202+007.4015/</property>
  <property name="meta.media.sample_aspect_num">1</property>
  <property name="meta.media.sample_aspect_den">1</property>
  <property name="meta.media.frame_rate_num">10029375</property>
  <property name="meta.media.frame_rate_den">334187</property>
  <property name="meta.media.colorspace">601</property>
  <property name="meta.media.color_trc">6</property>
  <property name="meta.media.width">1920</property>
  <property name="meta.media.height">1080</property>
  <property name="meta.media.top_field_first">0</property>
  <property name="meta.media.progressive">1</property>
 </producer>
 <producer in="0" title="Anonymous Submission" id="92_playlist4" out="1544">
  <property name="mlt_type">producer</property>
  <property name="length">00:00:51:15</property>
  <property name="eof">pause</property>
  <property name="resource">/opt/vlog/entrenamiento1/videos/VID_20190202_150450.mp4</property>
  <property name="audio_index">0</property>
  <property name="video_index">1</property>
  <property name="mute_on_pause">1</property>
  <property name="mlt_service">avformat-novalidate</property>
  <property name="seekable">1</property>
  <property name="aspect_ratio">1</property>
  <property name="kdenlive:folderid">1</property>
  <property name="kdenlive:file_size">143500077</property>
  <property name="kdenlive:file_hash">a791c7ffa19c18528ebb86469ab3228a</property>
  <property name="global_feed">1</property>
  <property name="xml">was here</property>
  <property name="meta.media.nb_streams">2</property>
  <property name="meta.media.0.stream.type">audio</property>
  <property name="meta.media.0.codec.sample_fmt">fltp</property>
  <property name="meta.media.0.codec.sample_rate">44100</property>
  <property name="meta.media.0.codec.channels">2</property>
  <property name="meta.media.0.codec.name">aac</property>
  <property name="meta.media.0.codec.long_name">AAC (Advanced Audio Coding)</property>
  <property name="meta.media.0.codec.bit_rate">192018</property>
  <property name="meta.attr.0.stream.creation_time.markup">2019-02-02 14:04:50</property>
  <property name="meta.attr.0.stream.language.markup">eng</property>
  <property name="meta.attr.0.stream.handler_name.markup">SoundHandle</property>
  <property name="meta.media.1.stream.type">video</property>
  <property name="meta.media.1.stream.frame_rate">30,013</property>
  <property name="meta.media.1.stream.sample_aspect_ratio">1</property>
  <property name="meta.media.1.codec.width">1920</property>
  <property name="meta.media.1.codec.height">1080</property>
  <property name="meta.media.1.codec.rotate">0</property>
  <property name="meta.media.1.codec.frame_rate">90000</property>
  <property name="meta.media.1.codec.pix_fmt">yuvj420p</property>
  <property name="meta.media.1.codec.sample_aspect_ratio">0</property>
  <property name="meta.media.1.codec.colorspace">601</property>
  <property name="meta.media.1.codec.color_trc">6</property>
  <property name="meta.media.1.codec.name">h264</property>
  <property name="meta.media.1.codec.long_name">H.264 / AVC / MPEG-4 AVC / MPEG-4 part 10</property>
  <property name="meta.media.1.codec.bit_rate">22090967</property>
  <property name="meta.attr.1.stream.creation_time.markup">2019-02-02 14:04:50</property>
  <property name="meta.attr.1.stream.language.markup">eng</property>
  <property name="meta.attr.1.stream.handler_name.markup">VideoHandle</property>
  <property name="meta.attr.major_brand.markup">mp42</property>
  <property name="meta.attr.minor_version.markup">0</property>
  <property name="meta.attr.compatible_brands.markup">isommp42</property>
  <property name="meta.attr.creation_time.markup">2019-02-02 14:04:50</property>
  <property name="meta.attr.location.markup">+51.5202+007.4015/</property>
  <property name="meta.attr.location-eng.markup">+51.5202+007.4015/</property>
  <property name="meta.media.sample_aspect_num">1</property>
  <property name="meta.media.sample_aspect_den">1</property>
  <property name="meta.media.frame_rate_num">17392500</property>
  <property name="meta.media.frame_rate_den">579499</property>
  <property name="meta.media.colorspace">601</property>
  <property name="meta.media.color_trc">6</property>
  <property name="meta.media.width">1920</property>
  <property name="meta.media.height">1080</property>
  <property name="meta.media.top_field_first">0</property>
  <property name="meta.media.progressive">1</property>
 </producer>
 <producer in="0" title="Anonymous Submission" id="94_playlist4" out="3044">
  <property name="mlt_type">producer</property>
  <property name="length">00:01:41:15</property>
  <property name="eof">pause</property>
  <property name="resource">/opt/vlog/entrenamiento1/videos/VID_20190202_151106.mp4</property>
  <property name="audio_index">0</property>
  <property name="video_index">1</property>
  <property name="mute_on_pause">1</property>
  <property name="mlt_service">avformat-novalidate</property>
  <property name="seekable">1</property>
  <property name="aspect_ratio">1</property>
  <property name="kdenlive:folderid">1</property>
  <property name="kdenlive:file_size">281818417</property>
  <property name="kdenlive:file_hash">79160a19ed0f10c7740289be28068f16</property>
  <property name="global_feed">1</property>
  <property name="xml">was here</property>
  <property name="meta.media.nb_streams">2</property>
  <property name="meta.media.0.stream.type">audio</property>
  <property name="meta.media.0.codec.sample_fmt">fltp</property>
  <property name="meta.media.0.codec.sample_rate">44100</property>
  <property name="meta.media.0.codec.channels">2</property>
  <property name="meta.media.0.codec.name">aac</property>
  <property name="meta.media.0.codec.long_name">AAC (Advanced Audio Coding)</property>
  <property name="meta.media.0.codec.bit_rate">191950</property>
  <property name="meta.attr.0.stream.creation_time.markup">2019-02-02 14:11:06</property>
  <property name="meta.attr.0.stream.language.markup">eng</property>
  <property name="meta.attr.0.stream.handler_name.markup">SoundHandle</property>
  <property name="meta.media.1.stream.type">video</property>
  <property name="meta.media.1.stream.frame_rate">30,0121</property>
  <property name="meta.media.1.stream.sample_aspect_ratio">1</property>
  <property name="meta.media.1.codec.width">1920</property>
  <property name="meta.media.1.codec.height">1080</property>
  <property name="meta.media.1.codec.rotate">0</property>
  <property name="meta.media.1.codec.frame_rate">90000</property>
  <property name="meta.media.1.codec.pix_fmt">yuvj420p</property>
  <property name="meta.media.1.codec.sample_aspect_ratio">0</property>
  <property name="meta.media.1.codec.colorspace">601</property>
  <property name="meta.media.1.codec.color_trc">6</property>
  <property name="meta.media.1.codec.name">h264</property>
  <property name="meta.media.1.codec.long_name">H.264 / AVC / MPEG-4 AVC / MPEG-4 part 10</property>
  <property name="meta.media.1.codec.bit_rate">22019025</property>
  <property name="meta.attr.1.stream.creation_time.markup">2019-02-02 14:11:06</property>
  <property name="meta.attr.1.stream.language.markup">eng</property>
  <property name="meta.attr.1.stream.handler_name.markup">VideoHandle</property>
  <property name="meta.attr.major_brand.markup">mp42</property>
  <property name="meta.attr.minor_version.markup">0</property>
  <property name="meta.attr.compatible_brands.markup">isommp42</property>
  <property name="meta.attr.creation_time.markup">2019-02-02 14:11:06</property>
  <property name="meta.attr.location.markup">+51.5190+007.4025/</property>
  <property name="meta.attr.location-eng.markup">+51.5190+007.4025/</property>
  <property name="meta.media.sample_aspect_num">1</property>
  <property name="meta.media.sample_aspect_den">1</property>
  <property name="meta.media.frame_rate_num">9138000</property>
  <property name="meta.media.frame_rate_den">304477</property>
  <property name="meta.media.colorspace">601</property>
  <property name="meta.media.color_trc">6</property>
  <property name="meta.media.width">1920</property>
  <property name="meta.media.height">1080</property>
  <property name="meta.media.top_field_first">0</property>
  <property name="meta.media.progressive">1</property>
 </producer>
 <producer in="0" title="Anonymous Submission" id="95_playlist4" out="1205">
  <property name="mlt_type">producer</property>
  <property name="length">00:00:40:06</property>
  <property name="eof">pause</property>
  <property name="resource">/opt/vlog/entrenamiento1/videos/VID_20190202_151614.mp4</property>
  <property name="audio_index">0</property>
  <property name="video_index">1</property>
  <property name="mute_on_pause">1</property>
  <property name="mlt_service">avformat-novalidate</property>
  <property name="seekable">1</property>
  <property name="aspect_ratio">1</property>
  <property name="kdenlive:folderid">1</property>
  <property name="kdenlive:file_size">112155233</property>
  <property name="kdenlive:file_hash">8bfbc1bfe19d3a1cdd669e8ee72e1b59</property>
  <property name="global_feed">1</property>
  <property name="xml">was here</property>
  <property name="meta.media.nb_streams">2</property>
  <property name="meta.media.0.stream.type">audio</property>
  <property name="meta.media.0.codec.sample_fmt">fltp</property>
  <property name="meta.media.0.codec.sample_rate">44100</property>
  <property name="meta.media.0.codec.channels">2</property>
  <property name="meta.media.0.codec.name">aac</property>
  <property name="meta.media.0.codec.long_name">AAC (Advanced Audio Coding)</property>
  <property name="meta.media.0.codec.bit_rate">191904</property>
  <property name="meta.attr.0.stream.creation_time.markup">2019-02-02 14:16:14</property>
  <property name="meta.attr.0.stream.language.markup">eng</property>
  <property name="meta.attr.0.stream.handler_name.markup">SoundHandle</property>
  <property name="meta.media.1.stream.type">video</property>
  <property name="meta.media.1.stream.frame_rate">30,0121</property>
  <property name="meta.media.1.stream.sample_aspect_ratio">1</property>
  <property name="meta.media.1.codec.width">1920</property>
  <property name="meta.media.1.codec.height">1080</property>
  <property name="meta.media.1.codec.rotate">0</property>
  <property name="meta.media.1.codec.frame_rate">90000</property>
  <property name="meta.media.1.codec.pix_fmt">yuvj420p</property>
  <property name="meta.media.1.codec.sample_aspect_ratio">0</property>
  <property name="meta.media.1.codec.colorspace">601</property>
  <property name="meta.media.1.codec.color_trc">6</property>
  <property name="meta.media.1.codec.name">h264</property>
  <property name="meta.media.1.codec.long_name">H.264 / AVC / MPEG-4 AVC / MPEG-4 part 10</property>
  <property name="meta.media.1.codec.bit_rate">22132919</property>
  <property name="meta.attr.1.stream.creation_time.markup">2019-02-02 14:16:14</property>
  <property name="meta.attr.1.stream.language.markup">eng</property>
  <property name="meta.attr.1.stream.handler_name.markup">VideoHandle</property>
  <property name="meta.attr.major_brand.markup">mp42</property>
  <property name="meta.attr.minor_version.markup">0</property>
  <property name="meta.attr.compatible_brands.markup">isommp42</property>
  <property name="meta.attr.creation_time.markup">2019-02-02 14:16:14</property>
  <property name="meta.attr.location.markup">+00.0000+000.0000/</property>
  <property name="meta.attr.location-eng.markup">+00.0000+000.0000/</property>
  <property name="meta.media.sample_aspect_num">1</property>
  <property name="meta.media.sample_aspect_den">1</property>
  <property name="meta.media.frame_rate_num">36180000</property>
  <property name="meta.media.frame_rate_den">1205513</property>
  <property name="meta.media.colorspace">601</property>
  <property name="meta.media.color_trc">6</property>
  <property name="meta.media.width">1920</property>
  <property name="meta.media.height">1080</property>
  <property name="meta.media.top_field_first">0</property>
  <property name="meta.media.progressive">1</property>
 </producer>
 <producer in="0" title="Anonymous Submission" id="96_playlist4" out="2352">
  <property name="mlt_type">producer</property>
  <property name="length">00:01:18:13</property>
  <property name="eof">pause</property>
  <property name="resource">/opt/vlog/entrenamiento1/videos/VID_20190202_154516.mp4</property>
  <property name="audio_index">0</property>
  <property name="video_index">1</property>
  <property name="mute_on_pause">1</property>
  <property name="mlt_service">avformat-novalidate</property>
  <property name="seekable">1</property>
  <property name="aspect_ratio">1</property>
  <property name="kdenlive:folderid">1</property>
  <property name="kdenlive:file_size">218107402</property>
  <property name="kdenlive:file_hash">169936337185d916bb67b065348d2abf</property>
  <property name="global_feed">1</property>
  <property name="xml">was here</property>
  <property name="meta.media.nb_streams">2</property>
  <property name="meta.media.0.stream.type">audio</property>
  <property name="meta.media.0.codec.sample_fmt">fltp</property>
  <property name="meta.media.0.codec.sample_rate">44100</property>
  <property name="meta.media.0.codec.channels">2</property>
  <property name="meta.media.0.codec.name">aac</property>
  <property name="meta.media.0.codec.long_name">AAC (Advanced Audio Coding)</property>
  <property name="meta.media.0.codec.bit_rate">191958</property>
  <property name="meta.attr.0.stream.creation_time.markup">2019-02-02 14:45:16</property>
  <property name="meta.attr.0.stream.language.markup">eng</property>
  <property name="meta.attr.0.stream.handler_name.markup">SoundHandle</property>
  <property name="meta.media.1.stream.type">video</property>
  <property name="meta.media.1.stream.frame_rate">29,999</property>
  <property name="meta.media.1.stream.sample_aspect_ratio">1</property>
  <property name="meta.media.1.codec.width">1920</property>
  <property name="meta.media.1.codec.height">1080</property>
  <property name="meta.media.1.codec.rotate">0</property>
  <property name="meta.media.1.codec.frame_rate">90000</property>
  <property name="meta.media.1.codec.pix_fmt">yuvj420p</property>
  <property name="meta.media.1.codec.sample_aspect_ratio">0</property>
  <property name="meta.media.1.codec.colorspace">601</property>
  <property name="meta.media.1.codec.color_trc">6</property>
  <property name="meta.media.1.codec.name">h264</property>
  <property name="meta.media.1.codec.long_name">H.264 / AVC / MPEG-4 AVC / MPEG-4 part 10</property>
  <property name="meta.media.1.codec.bit_rate">22050605</property>
  <property name="meta.attr.1.stream.creation_time.markup">2019-02-02 14:45:16</property>
  <property name="meta.attr.1.stream.language.markup">eng</property>
  <property name="meta.attr.1.stream.handler_name.markup">VideoHandle</property>
  <property name="meta.attr.major_brand.markup">mp42</property>
  <property name="meta.attr.minor_version.markup">0</property>
  <property name="meta.attr.compatible_brands.markup">isommp42</property>
  <property name="meta.attr.creation_time.markup">2019-02-02 14:45:16</property>
  <property name="meta.attr.location.markup">+51.5193+007.4024/</property>
  <property name="meta.attr.location-eng.markup">+51.5193+007.4024/</property>
  <property name="meta.media.sample_aspect_num">1</property>
  <property name="meta.media.sample_aspect_den">1</property>
  <property name="meta.media.frame_rate_num">16290000</property>
  <property name="meta.media.frame_rate_den">543019</property>
  <property name="meta.media.colorspace">601</property>
  <property name="meta.media.color_trc">6</property>
  <property name="meta.media.width">1920</property>
  <property name="meta.media.height">1080</property>
  <property name="meta.media.top_field_first">0</property>
  <property name="meta.media.progressive">1</property>
 </producer>
 <producer in="0" title="Anonymous Submission" id="97_playlist4" out="3061">
  <property name="mlt_type">producer</property>
  <property name="length">00:01:42:02</property>
  <property name="eof">pause</property>
  <property name="resource">/opt/vlog/entrenamiento1/videos/VID_20190202_154703.mp4</property>
  <property name="audio_index">0</property>
  <property name="video_index">1</property>
  <property name="mute_on_pause">1</property>
  <property name="mlt_service">avformat-novalidate</property>
  <property name="seekable">1</property>
  <property name="aspect_ratio">1</property>
  <property name="kdenlive:folderid">1</property>
  <property name="kdenlive:file_size">282206008</property>
  <property name="kdenlive:file_hash">c0f1f5aec2d8027af45e9ac860788b8e</property>
  <property name="global_feed">1</property>
  <property name="xml">was here</property>
  <property name="meta.media.nb_streams">2</property>
  <property name="meta.media.0.stream.type">audio</property>
  <property name="meta.media.0.codec.sample_fmt">fltp</property>
  <property name="meta.media.0.codec.sample_rate">44100</property>
  <property name="meta.media.0.codec.channels">2</property>
  <property name="meta.media.0.codec.name">aac</property>
  <property name="meta.media.0.codec.long_name">AAC (Advanced Audio Coding)</property>
  <property name="meta.media.0.codec.bit_rate">192003</property>
  <property name="meta.attr.0.stream.creation_time.markup">2019-02-02 14:47:03</property>
  <property name="meta.attr.0.stream.language.markup">eng</property>
  <property name="meta.attr.0.stream.handler_name.markup">SoundHandle</property>
  <property name="meta.media.1.stream.type">video</property>
  <property name="meta.media.1.stream.frame_rate">30,0122</property>
  <property name="meta.media.1.stream.sample_aspect_ratio">1</property>
  <property name="meta.media.1.codec.width">1920</property>
  <property name="meta.media.1.codec.height">1080</property>
  <property name="meta.media.1.codec.rotate">0</property>
  <property name="meta.media.1.codec.frame_rate">90000</property>
  <property name="meta.media.1.codec.pix_fmt">yuvj420p</property>
  <property name="meta.media.1.codec.sample_aspect_ratio">0</property>
  <property name="meta.media.1.codec.colorspace">601</property>
  <property name="meta.media.1.codec.color_trc">6</property>
  <property name="meta.media.1.codec.name">h264</property>
  <property name="meta.media.1.codec.long_name">H.264 / AVC / MPEG-4 AVC / MPEG-4 part 10</property>
  <property name="meta.media.1.codec.bit_rate">22019535</property>
  <property name="meta.attr.1.stream.creation_time.markup">2019-02-02 14:47:03</property>
  <property name="meta.attr.1.stream.language.markup">eng</property>
  <property name="meta.attr.1.stream.handler_name.markup">VideoHandle</property>
  <property name="meta.attr.major_brand.markup">mp42</property>
  <property name="meta.attr.minor_version.markup">0</property>
  <property name="meta.attr.compatible_brands.markup">isommp42</property>
  <property name="meta.attr.creation_time.markup">2019-02-02 14:47:03</property>
  <property name="meta.attr.location.markup">+51.5192+007.4024/</property>
  <property name="meta.attr.location-eng.markup">+51.5192+007.4024/</property>
  <property name="meta.media.sample_aspect_num">1</property>
  <property name="meta.media.sample_aspect_den">1</property>
  <property name="meta.media.frame_rate_num">2287500</property>
  <property name="meta.media.frame_rate_den">76219</property>
  <property name="meta.media.colorspace">601</property>
  <property name="meta.media.color_trc">6</property>
  <property name="meta.media.width">1920</property>
  <property name="meta.media.height">1080</property>
  <property name="meta.media.top_field_first">0</property>
  <property name="meta.media.progressive">1</property>
 </producer>
 <producer in="0" title="Anonymous Submission" id="98_playlist4" out="518">
  <property name="mlt_type">producer</property>
  <property name="length">00:00:17:09</property>
  <property name="eof">pause</property>
  <property name="resource">/opt/vlog/entrenamiento1/videos/VID_20190202_154920.mp4</property>
  <property name="audio_index">0</property>
  <property name="video_index">1</property>
  <property name="mute_on_pause">1</property>
  <property name="mlt_service">avformat-novalidate</property>
  <property name="seekable">1</property>
  <property name="aspect_ratio">1</property>
  <property name="kdenlive:folderid">1</property>
  <property name="kdenlive:file_size">48692391</property>
  <property name="kdenlive:file_hash">c00f22cddb58aee0a3d05ad504c0f22c</property>
  <property name="global_feed">1</property>
  <property name="xml">was here</property>
  <property name="meta.media.nb_streams">2</property>
  <property name="meta.media.0.stream.type">audio</property>
  <property name="meta.media.0.codec.sample_fmt">fltp</property>
  <property name="meta.media.0.codec.sample_rate">44100</property>
  <property name="meta.media.0.codec.channels">2</property>
  <property name="meta.media.0.codec.name">aac</property>
  <property name="meta.media.0.codec.long_name">AAC (Advanced Audio Coding)</property>
  <property name="meta.media.0.codec.bit_rate">191930</property>
  <property name="meta.attr.0.stream.creation_time.markup">2019-02-02 14:49:19</property>
  <property name="meta.attr.0.stream.language.markup">eng</property>
  <property name="meta.attr.0.stream.handler_name.markup">SoundHandle</property>
  <property name="meta.media.1.stream.type">video</property>
  <property name="meta.media.1.stream.frame_rate">30,0119</property>
  <property name="meta.media.1.stream.sample_aspect_ratio">1</property>
  <property name="meta.media.1.codec.width">1920</property>
  <property name="meta.media.1.codec.height">1080</property>
  <property name="meta.media.1.codec.rotate">0</property>
  <property name="meta.media.1.codec.frame_rate">90000</property>
  <property name="meta.media.1.codec.pix_fmt">yuvj420p</property>
  <property name="meta.media.1.codec.sample_aspect_ratio">0</property>
  <property name="meta.media.1.codec.colorspace">601</property>
  <property name="meta.media.1.codec.color_trc">6</property>
  <property name="meta.media.1.codec.name">h264</property>
  <property name="meta.media.1.codec.long_name">H.264 / AVC / MPEG-4 AVC / MPEG-4 part 10</property>
  <property name="meta.media.1.codec.bit_rate">22329140</property>
  <property name="meta.attr.1.stream.creation_time.markup">2019-02-02 14:49:19</property>
  <property name="meta.attr.1.stream.language.markup">eng</property>
  <property name="meta.attr.1.stream.handler_name.markup">VideoHandle</property>
  <property name="meta.attr.major_brand.markup">mp42</property>
  <property name="meta.attr.minor_version.markup">0</property>
  <property name="meta.attr.compatible_brands.markup">isommp42</property>
  <property name="meta.attr.creation_time.markup">2019-02-02 14:49:19</property>
  <property name="meta.attr.location.markup">+00.0000+000.0000/</property>
  <property name="meta.attr.location-eng.markup">+00.0000+000.0000/</property>
  <property name="meta.media.sample_aspect_num">1</property>
  <property name="meta.media.sample_aspect_den">1</property>
  <property name="meta.media.frame_rate_num">7785000</property>
  <property name="meta.media.frame_rate_den">259397</property>
  <property name="meta.media.colorspace">601</property>
  <property name="meta.media.color_trc">6</property>
  <property name="meta.media.width">1920</property>
  <property name="meta.media.height">1080</property>
  <property name="meta.media.top_field_first">0</property>
  <property name="meta.media.progressive">1</property>
 </producer>
 <producer in="0" title="Anonymous Submission" id="99_playlist4" out="1018">
  <property name="mlt_type">producer</property>
  <property name="length">00:00:33:29</property>
  <property name="eof">pause</property>
  <property name="resource">/opt/vlog/entrenamiento1/videos/VID_20190202_155030.mp4</property>
  <property name="audio_index">0</property>
  <property name="video_index">1</property>
  <property name="mute_on_pause">1</property>
  <property name="mlt_service">avformat-novalidate</property>
  <property name="seekable">1</property>
  <property name="aspect_ratio">1</property>
  <property name="kdenlive:folderid">1</property>
  <property name="kdenlive:file_size">94341216</property>
  <property name="kdenlive:file_hash">451f82577cef6defd33b445274486bb7</property>
  <property name="global_feed">1</property>
  <property name="xml">was here</property>
  <property name="meta.media.nb_streams">2</property>
  <property name="meta.media.0.stream.type">audio</property>
  <property name="meta.media.0.codec.sample_fmt">fltp</property>
  <property name="meta.media.0.codec.sample_rate">44100</property>
  <property name="meta.media.0.codec.channels">2</property>
  <property name="meta.media.0.codec.name">aac</property>
  <property name="meta.media.0.codec.long_name">AAC (Advanced Audio Coding)</property>
  <property name="meta.media.0.codec.bit_rate">192059</property>
  <property name="meta.attr.0.stream.creation_time.markup">2019-02-02 14:50:30</property>
  <property name="meta.attr.0.stream.language.markup">eng</property>
  <property name="meta.attr.0.stream.handler_name.markup">SoundHandle</property>
  <property name="meta.media.1.stream.type">video</property>
  <property name="meta.media.1.stream.frame_rate">30,0119</property>
  <property name="meta.media.1.stream.sample_aspect_ratio">1</property>
  <property name="meta.media.1.codec.width">1920</property>
  <property name="meta.media.1.codec.height">1080</property>
  <property name="meta.media.1.codec.rotate">0</property>
  <property name="meta.media.1.codec.frame_rate">90000</property>
  <property name="meta.media.1.codec.pix_fmt">yuvj420p</property>
  <property name="meta.media.1.codec.sample_aspect_ratio">0</property>
  <property name="meta.media.1.codec.colorspace">601</property>
  <property name="meta.media.1.codec.color_trc">6</property>
  <property name="meta.media.1.codec.name">h264</property>
  <property name="meta.media.1.codec.long_name">H.264 / AVC / MPEG-4 AVC / MPEG-4 part 10</property>
  <property name="meta.media.1.codec.bit_rate">22033040</property>
  <property name="meta.attr.1.stream.creation_time.markup">2019-02-02 14:50:30</property>
  <property name="meta.attr.1.stream.language.markup">eng</property>
  <property name="meta.attr.1.stream.handler_name.markup">VideoHandle</property>
  <property name="meta.attr.major_brand.markup">mp42</property>
  <property name="meta.attr.minor_version.markup">0</property>
  <property name="meta.attr.compatible_brands.markup">isommp42</property>
  <property name="meta.attr.creation_time.markup">2019-02-02 14:50:30</property>
  <property name="meta.attr.location.markup">+00.0000+000.0000/</property>
  <property name="meta.attr.location-eng.markup">+00.0000+000.0000/</property>
  <property name="meta.media.sample_aspect_num">1</property>
  <property name="meta.media.sample_aspect_den">1</property>
  <property name="meta.media.frame_rate_num">91710000</property>
  <property name="meta.media.frame_rate_den">3055783</property>
  <property name="meta.media.colorspace">601</property>
  <property name="meta.media.color_trc">6</property>
  <property name="meta.media.width">1920</property>
  <property name="meta.media.height">1080</property>
  <property name="meta.media.top_field_first">0</property>
  <property name="meta.media.progressive">1</property>
 </producer>
 <producer in="0" title="Anonymous Submission" id="101_playlist4" out="3103">
  <property name="mlt_type">producer</property>
  <property name="length">00:01:43:14</property>
  <property name="eof">pause</property>
  <property name="resource">/opt/vlog/entrenamiento1/videos/VID_20190202_155612.mp4</property>
  <property name="audio_index">0</property>
  <property name="video_index">1</property>
  <property name="mute_on_pause">1</property>
  <property name="mlt_service">avformat-novalidate</property>
  <property name="seekable">1</property>
  <property name="aspect_ratio">1</property>
  <property name="kdenlive:folderid">1</property>
  <property name="kdenlive:file_size">286911159</property>
  <property name="kdenlive:file_hash">e9a0f36765c2a3b902986c0a415dfc15</property>
  <property name="global_feed">1</property>
  <property name="xml">was here</property>
  <property name="meta.media.nb_streams">2</property>
  <property name="meta.media.0.stream.type">audio</property>
  <property name="meta.media.0.codec.sample_fmt">fltp</property>
  <property name="meta.media.0.codec.sample_rate">44100</property>
  <property name="meta.media.0.codec.channels">2</property>
  <property name="meta.media.0.codec.name">aac</property>
  <property name="meta.media.0.codec.long_name">AAC (Advanced Audio Coding)</property>
  <property name="meta.media.0.codec.bit_rate">192008</property>
  <property name="meta.attr.0.stream.creation_time.markup">2019-02-02 14:56:11</property>
  <property name="meta.attr.0.stream.language.markup">eng</property>
  <property name="meta.attr.0.stream.handler_name.markup">SoundHandle</property>
  <property name="meta.media.1.stream.type">video</property>
  <property name="meta.media.1.stream.frame_rate">30,1015</property>
  <property name="meta.media.1.stream.sample_aspect_ratio">1</property>
  <property name="meta.media.1.codec.width">1920</property>
  <property name="meta.media.1.codec.height">1080</property>
  <property name="meta.media.1.codec.rotate">0</property>
  <property name="meta.media.1.codec.frame_rate">90000</property>
  <property name="meta.media.1.codec.pix_fmt">yuvj420p</property>
  <property name="meta.media.1.codec.sample_aspect_ratio">0</property>
  <property name="meta.media.1.codec.colorspace">601</property>
  <property name="meta.media.1.codec.color_trc">6</property>
  <property name="meta.media.1.codec.name">h264</property>
  <property name="meta.media.1.codec.long_name">H.264 / AVC / MPEG-4 AVC / MPEG-4 part 10</property>
  <property name="meta.media.1.codec.bit_rate">21992681</property>
  <property name="meta.attr.1.stream.creation_time.markup">2019-02-02 14:56:11</property>
  <property name="meta.attr.1.stream.language.markup">eng</property>
  <property name="meta.attr.1.stream.handler_name.markup">VideoHandle</property>
  <property name="meta.attr.major_brand.markup">mp42</property>
  <property name="meta.attr.minor_version.markup">0</property>
  <property name="meta.attr.compatible_brands.markup">isommp42</property>
  <property name="meta.attr.creation_time.markup">2019-02-02 14:56:11</property>
  <property name="meta.attr.location.markup">+51.5191+007.4032/</property>
  <property name="meta.attr.location-eng.markup">+51.5191+007.4032/</property>
  <property name="meta.media.sample_aspect_num">1</property>
  <property name="meta.media.sample_aspect_den">1</property>
  <property name="meta.media.frame_rate_num">280260000</property>
  <property name="meta.media.frame_rate_den">9310487</property>
  <property name="meta.media.colorspace">601</property>
  <property name="meta.media.color_trc">6</property>
  <property name="meta.media.width">1920</property>
  <property name="meta.media.height">1080</property>
  <property name="meta.media.top_field_first">0</property>
  <property name="meta.media.progressive">1</property>
 </producer>
 <producer in="0" title="Anonymous Submission" id="101_video" out="3103">
  <property name="mlt_type">producer</property>
  <property name="length">00:01:43:14</property>
  <property name="eof">pause</property>
  <property name="resource">/opt/vlog/entrenamiento1/videos/VID_20190202_155612.mp4</property>
  <property name="audio_index">-1</property>
  <property name="video_index">1</property>
  <property name="mute_on_pause">1</property>
  <property name="mlt_service">avformat-novalidate</property>
  <property name="seekable">1</property>
  <property name="aspect_ratio">1</property>
  <property name="kdenlive:folderid">1</property>
  <property name="kdenlive:file_size">286911159</property>
  <property name="kdenlive:file_hash">e9a0f36765c2a3b902986c0a415dfc15</property>
  <property name="global_feed">1</property>
  <property name="xml">was here</property>
  <property name="meta.media.nb_streams">2</property>
  <property name="meta.media.0.stream.type">audio</property>
  <property name="meta.media.0.codec.sample_fmt">fltp</property>
  <property name="meta.media.0.codec.sample_rate">44100</property>
  <property name="meta.media.0.codec.channels">2</property>
  <property name="meta.media.0.codec.name">aac</property>
  <property name="meta.media.0.codec.long_name">AAC (Advanced Audio Coding)</property>
  <property name="meta.media.0.codec.bit_rate">192008</property>
  <property name="meta.attr.0.stream.creation_time.markup">2019-02-02 14:56:11</property>
  <property name="meta.attr.0.stream.language.markup">eng</property>
  <property name="meta.attr.0.stream.handler_name.markup">SoundHandle</property>
  <property name="meta.media.1.stream.type">video</property>
  <property name="meta.media.1.stream.frame_rate">30,1015</property>
  <property name="meta.media.1.stream.sample_aspect_ratio">1</property>
  <property name="meta.media.1.codec.width">1920</property>
  <property name="meta.media.1.codec.height">1080</property>
  <property name="meta.media.1.codec.rotate">0</property>
  <property name="meta.media.1.codec.frame_rate">90000</property>
  <property name="meta.media.1.codec.pix_fmt">yuvj420p</property>
  <property name="meta.media.1.codec.sample_aspect_ratio">0</property>
  <property name="meta.media.1.codec.colorspace">601</property>
  <property name="meta.media.1.codec.color_trc">6</property>
  <property name="meta.media.1.codec.name">h264</property>
  <property name="meta.media.1.codec.long_name">H.264 / AVC / MPEG-4 AVC / MPEG-4 part 10</property>
  <property name="meta.media.1.codec.bit_rate">21992681</property>
  <property name="meta.attr.1.stream.creation_time.markup">2019-02-02 14:56:11</property>
  <property name="meta.attr.1.stream.language.markup">eng</property>
  <property name="meta.attr.1.stream.handler_name.markup">VideoHandle</property>
  <property name="meta.attr.major_brand.markup">mp42</property>
  <property name="meta.attr.minor_version.markup">0</property>
  <property name="meta.attr.compatible_brands.markup">isommp42</property>
  <property name="meta.attr.creation_time.markup">2019-02-02 14:56:11</property>
  <property name="meta.attr.location.markup">+51.5191+007.4032/</property>
  <property name="meta.attr.location-eng.markup">+51.5191+007.4032/</property>
  <property name="meta.media.sample_aspect_num">1</property>
  <property name="meta.media.sample_aspect_den">1</property>
  <property name="meta.media.frame_rate_num">280260000</property>
  <property name="meta.media.frame_rate_den">9310487</property>
  <property name="meta.media.colorspace">601</property>
  <property name="meta.media.color_trc">6</property>
  <property name="meta.media.width">1920</property>
  <property name="meta.media.height">1080</property>
  <property name="meta.media.top_field_first">0</property>
  <property name="meta.media.progressive">1</property>
 </producer>
 <producer in="0" title="Anonymous Submission" id="100_playlist4" out="1392">
  <property name="mlt_type">producer</property>
  <property name="length">00:00:46:13</property>
  <property name="eof">pause</property>
  <property name="resource">/opt/vlog/entrenamiento1/videos/VID_20190202_155425.mp4</property>
  <property name="audio_index">0</property>
  <property name="video_index">1</property>
  <property name="mute_on_pause">1</property>
  <property name="mlt_service">avformat-novalidate</property>
  <property name="seekable">1</property>
  <property name="aspect_ratio">1</property>
  <property name="kdenlive:folderid">1</property>
  <property name="kdenlive:file_size">129036179</property>
  <property name="kdenlive:file_hash">69ca800a9d3d82793eab98369e56143c</property>
  <property name="global_feed">1</property>
  <property name="xml">was here</property>
  <property name="meta.media.nb_streams">2</property>
  <property name="meta.media.0.stream.type">audio</property>
  <property name="meta.media.0.codec.sample_fmt">fltp</property>
  <property name="meta.media.0.codec.sample_rate">44100</property>
  <property name="meta.media.0.codec.channels">2</property>
  <property name="meta.media.0.codec.name">aac</property>
  <property name="meta.media.0.codec.long_name">AAC (Advanced Audio Coding)</property>
  <property name="meta.media.0.codec.bit_rate">191917</property>
  <property name="meta.attr.0.stream.creation_time.markup">2019-02-02 14:54:24</property>
  <property name="meta.attr.0.stream.language.markup">eng</property>
  <property name="meta.attr.0.stream.handler_name.markup">SoundHandle</property>
  <property name="meta.media.1.stream.type">video</property>
  <property name="meta.media.1.stream.frame_rate">30,0135</property>
  <property name="meta.media.1.stream.sample_aspect_ratio">1</property>
  <property name="meta.media.1.codec.width">1920</property>
  <property name="meta.media.1.codec.height">1080</property>
  <property name="meta.media.1.codec.rotate">0</property>
  <property name="meta.media.1.codec.frame_rate">90000</property>
  <property name="meta.media.1.codec.pix_fmt">yuvj420p</property>
  <property name="meta.media.1.codec.sample_aspect_ratio">0</property>
  <property name="meta.media.1.codec.colorspace">601</property>
  <property name="meta.media.1.codec.color_trc">6</property>
  <property name="meta.media.1.codec.name">h264</property>
  <property name="meta.media.1.codec.long_name">H.264 / AVC / MPEG-4 AVC / MPEG-4 part 10</property>
  <property name="meta.media.1.codec.bit_rate">22030378</property>
  <property name="meta.attr.1.stream.creation_time.markup">2019-02-02 14:54:24</property>
  <property name="meta.attr.1.stream.language.markup">eng</property>
  <property name="meta.attr.1.stream.handler_name.markup">VideoHandle</property>
  <property name="meta.attr.major_brand.markup">mp42</property>
  <property name="meta.attr.minor_version.markup">0</property>
  <property name="meta.attr.compatible_brands.markup">isommp42</property>
  <property name="meta.attr.creation_time.markup">2019-02-02 14:54:24</property>
  <property name="meta.attr.location.markup">+51.5191+007.4032/</property>
  <property name="meta.attr.location-eng.markup">+51.5191+007.4032/</property>
  <property name="meta.media.sample_aspect_num">1</property>
  <property name="meta.media.sample_aspect_den">1</property>
  <property name="meta.media.frame_rate_num">6970000</property>
  <property name="meta.media.frame_rate_den">232229</property>
  <property name="meta.media.colorspace">601</property>
  <property name="meta.media.color_trc">6</property>
  <property name="meta.media.width">1920</property>
  <property name="meta.media.height">1080</property>
  <property name="meta.media.top_field_first">0</property>
  <property name="meta.media.progressive">1</property>
 </producer>
 <playlist id="playlist4">
  <property name="kdenlive:track_name">Video 2</property>
  <property name="kdenlive:locked_track">0</property>
  <property name="kdenlive:composite">0</property>
  <entry in="41" producer="81_playlist4" out="138">
   <filter id="affinerotate">
    <property name="background">colour:0x00000000</property>
    <property name="mlt_type">filter</property>
    <property name="mlt_service">affine</property>
    <property name="kdenlive_id">affinerotate</property>
    <property name="tag">affine</property>
    <property name="kdenlive_ix">1</property>
    <property name="transition.rotate_x">41=180</property>
    <property name="transition.rotate_y">41=0</property>
    <property name="transition.rotate_z">41=0</property>
    <property name="transition.ox">41=0</property>
    <property name="transition.oy">41=0</property>
    <property name="transition.keyed">1</property>
    <property name="transition.always_active">1</property>
    <property name="kdenlive_info"/>
   </filter>
   <filter in="127" id="fade_to_black" out="138">
    <property name="start">1</property>
    <property name="mlt_type">filter</property>
    <property name="mlt_service">brightness</property>
    <property name="kdenlive_id">fade_to_black</property>
    <property name="tag">brightness</property>
    <property name="kdenlive_ix">2</property>
    <property name="end">0</property>
   </filter>
  </entry>
  <blank length="14"/>
  <entry in="1" producer="102" out="40"/>
  <entry in="186" producer="81_playlist4" out="383">
   <filter id="filter34">
    <property name="background">colour:0x00000000</property>
    <property name="mlt_type">filter</property>
    <property name="mlt_service">affine</property>
    <property name="kdenlive_id">affinerotate</property>
    <property name="tag">affine</property>
    <property name="kdenlive_ix">1</property>
    <property name="transition.rotate_x">41=180</property>
    <property name="transition.rotate_y">41=0</property>
    <property name="transition.rotate_z">41=0</property>
    <property name="transition.ox">41=0</property>
    <property name="transition.oy">41=0</property>
    <property name="transition.keyed">1</property>
    <property name="transition.always_active">1</property>
    <property name="kdenlive_info"/>
   </filter>
  </entry>
  <entry in="601" producer="81_playlist4" out="890">
   <filter id="filter35">
    <property name="background">colour:0x00000000</property>
    <property name="mlt_type">filter</property>
    <property name="mlt_service">affine</property>
    <property name="kdenlive_id">affinerotate</property>
    <property name="tag">affine</property>
    <property name="kdenlive_ix">1</property>
    <property name="transition.rotate_x">41=180</property>
    <property name="transition.rotate_y">41=0</property>
    <property name="transition.rotate_z">41=0</property>
    <property name="transition.ox">41=0</property>
    <property name="transition.oy">41=0</property>
    <property name="transition.keyed">1</property>
    <property name="transition.always_active">1</property>
    <property name="kdenlive_info"/>
   </filter>
  </entry>
  <entry in="936" producer="81_playlist4" out="1044">
   <filter id="filter36">
    <property name="background">colour:0x00000000</property>
    <property name="mlt_type">filter</property>
    <property name="mlt_service">affine</property>
    <property name="kdenlive_id">affinerotate</property>
    <property name="tag">affine</property>
    <property name="kdenlive_ix">1</property>
    <property name="transition.rotate_x">41=180</property>
    <property name="transition.rotate_y">41=0</property>
    <property name="transition.rotate_z">41=0</property>
    <property name="transition.ox">41=0</property>
    <property name="transition.oy">41=0</property>
    <property name="transition.keyed">1</property>
    <property name="transition.always_active">1</property>
    <property name="kdenlive_info"/>
   </filter>
  </entry>
  <entry in="1157" producer="81_playlist4" out="1211">
   <filter id="filter37">
    <property name="background">colour:0x00000000</property>
    <property name="mlt_type">filter</property>
    <property name="mlt_service">affine</property>
    <property name="kdenlive_id">affinerotate</property>
    <property name="tag">affine</property>
    <property name="kdenlive_ix">1</property>
    <property name="kdenlive_info"/>
    <property name="disable"/>
    <property name="transition.rotate_x">1157=180</property>
    <property name="transition.rotate_y">1157=0</property>
    <property name="transition.rotate_z">1157=0</property>
    <property name="transition.ox">1157=0</property>
    <property name="transition.oy">1157=0</property>
    <property name="transition.keyed">1</property>
    <property name="transition.always_active">1</property>
   </filter>
  </entry>
  <entry in="1236" producer="81_playlist4" out="1279">
   <filter id="filter38">
    <property name="background">colour:0x00000000</property>
    <property name="mlt_type">filter</property>
    <property name="mlt_service">affine</property>
    <property name="kdenlive_id">affinerotate</property>
    <property name="tag">affine</property>
    <property name="kdenlive_ix">1</property>
    <property name="kdenlive_info"/>
    <property name="disable"/>
    <property name="transition.rotate_x">1236=180</property>
    <property name="transition.rotate_y">1236=0</property>
    <property name="transition.rotate_z">1236=0</property>
    <property name="transition.ox">1236=0</property>
    <property name="transition.oy">1236=0</property>
    <property name="transition.keyed">1</property>
    <property name="transition.always_active">1</property>
   </filter>
  </entry>
  <entry in="1336" producer="81_playlist4" out="1523">
   <filter id="filter39">
    <property name="background">colour:0x00000000</property>
    <property name="mlt_type">filter</property>
    <property name="mlt_service">affine</property>
    <property name="kdenlive_id">affinerotate</property>
    <property name="tag">affine</property>
    <property name="kdenlive_ix">1</property>
    <property name="transition.rotate_x">1157=180</property>
    <property name="transition.rotate_y">1157=0</property>
    <property name="transition.rotate_z">1157=0</property>
    <property name="transition.ox">1157=0</property>
    <property name="transition.oy">1157=0</property>
    <property name="transition.keyed">1</property>
    <property name="transition.always_active">1</property>
    <property name="kdenlive_info"/>
   </filter>
  </entry>
  <entry in="5569" producer="81_playlist4" out="5603">
   <filter id="filter40">
    <property name="background">colour:0x00000000</property>
    <property name="mlt_type">filter</property>
    <property name="mlt_service">affine</property>
    <property name="kdenlive_id">affinerotate</property>
    <property name="tag">affine</property>
    <property name="kdenlive_ix">1</property>
    <property name="transition.rotate_x">5302=180</property>
    <property name="transition.rotate_y">5302=0</property>
    <property name="transition.rotate_z">5302=0</property>
    <property name="transition.ox">5302=0</property>
    <property name="transition.oy">5302=0</property>
    <property name="transition.keyed">1</property>
    <property name="transition.always_active">1</property>
    <property name="kdenlive_info"/>
   </filter>
  </entry>
  <blank length="91"/>
  <entry in="14759" producer="83_playlist4" out="14871"/>
  <blank length="167"/>
  <entry in="9526" producer="83_playlist4" out="9674">
   <filter in="9526" id="filter41" out="9665">
    <property name="window">75</property>
    <property name="max_gain">20dB</property>
    <property name="mlt_type">filter</property>
    <property name="mlt_service">volume</property>
    <property name="kdenlive_id">volume</property>
    <property name="tag">volume</property>
    <property name="kdenlive_ix">1</property>
    <property name="kdenlive_info"/>
    <property name="gain">1</property>
    <property name="end">1</property>
   </filter>
   <filter in="9666" id="filter42" out="9666">
    <property name="window">75</property>
    <property name="max_gain">20dB</property>
    <property name="mlt_type">filter</property>
    <property name="mlt_service">volume</property>
    <property name="kdenlive_id">volume</property>
    <property name="tag">volume</property>
    <property name="kdenlive_ix">1</property>
    <property name="kdenlive_info"/>
    <property name="gain">0</property>
    <property name="end">0</property>
   </filter>
   <filter in="9667" id="filter43" out="9674">
    <property name="window">75</property>
    <property name="max_gain">20dB</property>
    <property name="mlt_type">filter</property>
    <property name="mlt_service">volume</property>
    <property name="kdenlive_id">volume</property>
    <property name="tag">volume</property>
    <property name="kdenlive_ix">1</property>
    <property name="kdenlive_info"/>
    <property name="gain">0</property>
    <property name="end">0</property>
   </filter>
  </entry>
  <entry in="8577" producer="83_playlist4" out="8788">
   <filter in="8577" id="filter44" out="8739">
    <property name="window">75</property>
    <property name="max_gain">20dB</property>
    <property name="mlt_type">filter</property>
    <property name="mlt_service">volume</property>
    <property name="kdenlive_id">volume</property>
    <property name="tag">volume</property>
    <property name="kdenlive_ix">1</property>
    <property name="kdenlive_info"/>
    <property name="disable"/>
    <property name="gain">1</property>
    <property name="end">1</property>
   </filter>
   <filter in="8740" id="filter45" out="8754">
    <property name="window">75</property>
    <property name="max_gain">20dB</property>
    <property name="mlt_type">filter</property>
    <property name="mlt_service">volume</property>
    <property name="kdenlive_id">volume</property>
    <property name="tag">volume</property>
    <property name="kdenlive_ix">1</property>
    <property name="kdenlive_info"/>
    <property name="disable"/>
    <property name="gain">0,933333</property>
    <property name="end">0</property>
   </filter>
   <filter in="8755" id="filter46" out="8788">
    <property name="window">75</property>
    <property name="max_gain">20dB</property>
    <property name="mlt_type">filter</property>
    <property name="mlt_service">volume</property>
    <property name="kdenlive_id">volume</property>
    <property name="tag">volume</property>
    <property name="kdenlive_ix">1</property>
    <property name="kdenlive_info"/>
    <property name="disable"/>
    <property name="gain">0,00176471</property>
    <property name="end">0,06</property>
   </filter>
  </entry>
  <blank length="180"/>
  <entry in="15044" producer="83_playlist4" out="15126"/>
  <entry in="15223" producer="83_playlist4" out="15325">
   <filter in="15223" id="filter47" out="15325">
    <property name="window">75</property>
    <property name="max_gain">20dB</property>
    <property name="mlt_type">filter</property>
    <property name="mlt_service">volume</property>
    <property name="kdenlive_id">volume</property>
    <property name="tag">volume</property>
    <property name="kdenlive_ix">1</property>
    <property name="kdenlive_info"/>
    <property name="disable"/>
    <property name="gain">2</property>
    <property name="end">2</property>
   </filter>
  </entry>
  <entry in="15382" producer="83_playlist4" out="15408">
   <filter in="15382" id="filter48">
    <property name="window">75</property>
    <property name="max_gain">20dB</property>
    <property name="mlt_type">filter</property>
    <property name="mlt_service">volume</property>
    <property name="kdenlive_id">volume</property>
    <property name="tag">volume</property>
    <property name="kdenlive_ix">1</property>
    <property name="kdenlive_info"/>
    <property name="gain">0</property>
   </filter>
   <filter in="15402" id="filter49" out="15408">
    <property name="start">1</property>
    <property name="mlt_type">filter</property>
    <property name="mlt_service">brightness</property>
    <property name="kdenlive_id">fade_to_black</property>
    <property name="tag">brightness</property>
    <property name="kdenlive_ix">2</property>
    <property name="end">0</property>
   </filter>
  </entry>
  <blank length="73"/>
  <entry in="1632" producer="85_playlist4" out="1697"/>
  <blank length="50"/>
  <entry in="5302" producer="85_playlist4" out="5356"/>
  <blank length="47"/>
  <entry in="3408" producer="85_playlist4" out="3459"/>
  <blank length="52"/>
  <entry in="5956" producer="85_playlist4" out="6008"/>
  <blank length="132"/>
  <entry in="0" producer="86_playlist4" out="167"/>
  <entry in="214" producer="86_playlist4" out="236"/>
  <entry in="123" producer="88_playlist4" out="295">
   <filter in="123" id="filter50" out="245">
    <property name="window">75</property>
    <property name="max_gain">20dB</property>
    <property name="mlt_type">filter</property>
    <property name="mlt_service">volume</property>
    <property name="kdenlive_id">volume</property>
    <property name="tag">volume</property>
    <property name="kdenlive_ix">1</property>
    <property name="kdenlive_info"/>
    <property name="disable"/>
    <property name="gain">2</property>
    <property name="end">2</property>
   </filter>
   <filter in="246" id="filter51" out="260">
    <property name="window">75</property>
    <property name="max_gain">20dB</property>
    <property name="mlt_type">filter</property>
    <property name="mlt_service">volume</property>
    <property name="kdenlive_id">volume</property>
    <property name="tag">volume</property>
    <property name="kdenlive_ix">1</property>
    <property name="kdenlive_info"/>
    <property name="disable"/>
    <property name="gain">2,06667</property>
    <property name="end">3</property>
   </filter>
   <filter in="261" id="filter52" out="295">
    <property name="window">75</property>
    <property name="max_gain">20dB</property>
    <property name="mlt_type">filter</property>
    <property name="mlt_service">volume</property>
    <property name="kdenlive_id">volume</property>
    <property name="tag">volume</property>
    <property name="kdenlive_ix">1</property>
    <property name="kdenlive_info"/>
    <property name="disable"/>
    <property name="gain">3</property>
    <property name="end">3</property>
   </filter>
  </entry>
  <entry in="17623" producer="88_playlist4" out="17834"/>
  <blank length="55"/>
  <entry in="18080" producer="88_playlist4" out="18124"/>
  <blank length="34"/>
  <entry in="3867" producer="88_playlist4" out="3901"/>
  <blank length="35"/>
  <entry in="6317" producer="88_playlist4" out="6354"/>
  <blank length="43"/>
  <entry in="7935" producer="88_playlist4" out="7973"/>
  <blank length="80"/>
  <entry in="3279" producer="88_playlist4" out="3316"/>
  <blank length="35"/>
  <entry in="7287" producer="88_playlist4" out="7403">
   <filter in="7287" id="filter53" out="7362">
    <property name="window">75</property>
    <property name="max_gain">20dB</property>
    <property name="mlt_type">filter</property>
    <property name="mlt_service">volume</property>
    <property name="kdenlive_id">volume</property>
    <property name="tag">volume</property>
    <property name="kdenlive_ix">1</property>
    <property name="kdenlive_info"/>
    <property name="disable"/>
    <property name="gain">1</property>
    <property name="end">1</property>
   </filter>
   <filter in="7363" id="filter54" out="7375">
    <property name="window">75</property>
    <property name="max_gain">20dB</property>
    <property name="mlt_type">filter</property>
    <property name="mlt_service">volume</property>
    <property name="kdenlive_id">volume</property>
    <property name="tag">volume</property>
    <property name="kdenlive_ix">1</property>
    <property name="kdenlive_info"/>
    <property name="disable"/>
    <property name="gain">0,923077</property>
    <property name="end">0</property>
   </filter>
   <filter in="7376" id="filter55" out="7403">
    <property name="window">75</property>
    <property name="max_gain">20dB</property>
    <property name="mlt_type">filter</property>
    <property name="mlt_service">volume</property>
    <property name="kdenlive_id">volume</property>
    <property name="tag">volume</property>
    <property name="kdenlive_ix">1</property>
    <property name="kdenlive_info"/>
    <property name="disable"/>
    <property name="gain">0</property>
    <property name="end">0</property>
   </filter>
  </entry>
  <blank length="39"/>
  <entry in="8960" producer="88_playlist4" out="8996"/>
  <blank length="36"/>
  <entry in="5882" producer="88_playlist4" out="5957"/>
  <blank length="40"/>
  <entry in="14269" producer="88_playlist4" out="14303"/>
  <blank length="39"/>
  <entry in="8665" producer="88_playlist4" out="8780">
   <filter in="8665" id="filter56" out="8694">
    <property name="window">75</property>
    <property name="max_gain">20dB</property>
    <property name="mlt_type">filter</property>
    <property name="mlt_service">volume</property>
    <property name="kdenlive_id">volume</property>
    <property name="tag">volume</property>
    <property name="kdenlive_ix">1</property>
    <property name="kdenlive_info"/>
    <property name="disable"/>
    <property name="gain">1</property>
    <property name="end">3</property>
   </filter>
   <filter in="8695" id="filter57" out="8750">
    <property name="window">75</property>
    <property name="max_gain">20dB</property>
    <property name="mlt_type">filter</property>
    <property name="mlt_service">volume</property>
    <property name="kdenlive_id">volume</property>
    <property name="tag">volume</property>
    <property name="kdenlive_ix">1</property>
    <property name="kdenlive_info"/>
    <property name="disable"/>
    <property name="gain">3</property>
    <property name="end">3</property>
   </filter>
   <filter in="8751" id="filter58" out="8780">
    <property name="window">75</property>
    <property name="max_gain">20dB</property>
    <property name="mlt_type">filter</property>
    <property name="mlt_service">volume</property>
    <property name="kdenlive_id">volume</property>
    <property name="tag">volume</property>
    <property name="kdenlive_ix">1</property>
    <property name="kdenlive_info"/>
    <property name="disable"/>
    <property name="gain">2,95133</property>
    <property name="end">1,54</property>
   </filter>
  </entry>
  <entry in="8852" producer="88_playlist4" out="8906"/>
  <blank length="52"/>
  <entry in="11485" producer="88_playlist4" out="11524"/>
  <entry in="12648" producer="88_playlist4" out="12870"/>
  <entry in="17281" producer="88_playlist4" out="17410"/>
  <blank length="79"/>
  <entry in="18761" producer="88_playlist4" out="18801"/>
  <entry in="18907" producer="88_playlist4" out="18975">
   <filter in="18907" id="filter60" out="18973">
    <property name="window">75</property>
    <property name="max_gain">20dB</property>
    <property name="mlt_type">filter</property>
    <property name="mlt_service">volume</property>
    <property name="kdenlive_id">volume</property>
    <property name="tag">volume</property>
    <property name="kdenlive_ix">1</property>
    <property name="kdenlive_info"/>
    <property name="gain">1</property>
    <property name="end">1</property>
   </filter>
   <filter in="18974" id="filter61" out="18974">
    <property name="window">75</property>
    <property name="max_gain">20dB</property>
    <property name="mlt_type">filter</property>
    <property name="mlt_service">volume</property>
    <property name="kdenlive_id">volume</property>
    <property name="tag">volume</property>
    <property name="kdenlive_ix">1</property>
    <property name="kdenlive_info"/>
    <property name="gain">0,35</property>
    <property name="end">0,35</property>
   </filter>
   <filter in="18975" id="filter62" out="18975">
    <property name="window">75</property>
    <property name="max_gain">20dB</property>
    <property name="mlt_type">filter</property>
    <property name="mlt_service">volume</property>
    <property name="kdenlive_id">volume</property>
    <property name="tag">volume</property>
    <property name="kdenlive_ix">1</property>
    <property name="kdenlive_info"/>
    <property name="gain">0,26</property>
    <property name="end">0,26</property>
   </filter>
  </entry>
  <entry in="19108" producer="88_playlist4" out="19153"/>
  <blank length="44"/>
  <entry in="22060" producer="88_playlist4" out="22389"/>
  <entry in="22390" producer="88_playlist4" out="22688">
   <filter in="22387" id="filter63" out="22461">
    <property name="window">75</property>
    <property name="max_gain">20dB</property>
    <property name="mlt_type">filter</property>
    <property name="mlt_service">volume</property>
    <property name="kdenlive_id">volume</property>
    <property name="tag">volume</property>
    <property name="kdenlive_ix">1</property>
    <property name="kdenlive_info"/>
    <property name="gain">1</property>
    <property name="end">0,3</property>
   </filter>
   <filter in="22462" id="filter64" out="22526">
    <property name="window">75</property>
    <property name="max_gain">20dB</property>
    <property name="mlt_type">filter</property>
    <property name="mlt_service">volume</property>
    <property name="kdenlive_id">volume</property>
    <property name="tag">volume</property>
    <property name="kdenlive_ix">1</property>
    <property name="kdenlive_info"/>
    <property name="gain">0,3</property>
    <property name="end">0,3</property>
   </filter>
   <filter in="22527" id="filter65" out="22685">
    <property name="window">75</property>
    <property name="max_gain">20dB</property>
    <property name="mlt_type">filter</property>
    <property name="mlt_service">volume</property>
    <property name="kdenlive_id">volume</property>
    <property name="tag">volume</property>
    <property name="kdenlive_ix">1</property>
    <property name="kdenlive_info"/>
    <property name="gain">0,3</property>
    <property name="end">0,3</property>
   </filter>
  </entry>
  <entry in="22806" producer="88_playlist4" out="22946"/>
  <entry in="22947" producer="88_playlist4" out="23547"/>
  <entry in="494" producer="89_playlist4" out="788"/>
  <entry in="839" producer="89_playlist4" out="1083"/>
  <entry in="1184" producer="89_playlist4" out="1252"/>
  <entry in="1841" producer="89_playlist4" out="1941"/>
  <entry in="2151" producer="89_playlist4" out="2313">
   <filter in="2151" id="filter59">
    <property name="window">75</property>
    <property name="max_gain">20dB</property>
    <property name="mlt_type">filter</property>
    <property name="mlt_service">volume</property>
    <property name="kdenlive_id">volume</property>
    <property name="tag">volume</property>
    <property name="kdenlive_ix">1</property>
    <property name="kdenlive_info"/>
    <property name="disable"/>
    <property name="gain">3</property>
   </filter>
  </entry>
  <entry in="2439" producer="89_playlist4" out="2683"/>
  <entry in="0" producer="90_playlist4" out="198"/>
  <entry in="0" producer="91_playlist4" out="280"/>
  <entry in="393" producer="91_playlist4" out="579"/>
  <entry in="694" producer="91_playlist4" out="817"/>
  <entry in="167" producer="92_playlist4" out="484"/>
  <entry in="663" producer="92_playlist4" out="773"/>
  <entry in="901" producer="92_playlist4" out="1157"/>
  <blank length="1769"/>
  <entry in="1687" producer="94_playlist4" out="1737"/>
  <entry in="1928" producer="94_playlist4" out="2121"/>
  <entry in="2230" producer="94_playlist4" out="2539"/>
  <entry in="2852" producer="94_playlist4" out="2993"/>
  <entry in="463" producer="95_playlist4" out="746">
   <filter in="463" id="filter66" out="601">
    <property name="window">75</property>
    <property name="max_gain">20dB</property>
    <property name="mlt_type">filter</property>
    <property name="mlt_service">volume</property>
    <property name="kdenlive_id">volume</property>
    <property name="tag">volume</property>
    <property name="kdenlive_ix">1</property>
    <property name="kdenlive_info"/>
    <property name="disable"/>
    <property name="gain">3</property>
    <property name="end">3</property>
   </filter>
   <filter in="602" id="filter67" out="605">
    <property name="window">75</property>
    <property name="max_gain">20dB</property>
    <property name="mlt_type">filter</property>
    <property name="mlt_service">volume</property>
    <property name="kdenlive_id">volume</property>
    <property name="tag">volume</property>
    <property name="kdenlive_ix">1</property>
    <property name="kdenlive_info"/>
    <property name="disable"/>
    <property name="gain">2,5</property>
    <property name="end">1</property>
   </filter>
   <filter in="606" id="filter68" out="634">
    <property name="window">75</property>
    <property name="max_gain">20dB</property>
    <property name="mlt_type">filter</property>
    <property name="mlt_service">volume</property>
    <property name="kdenlive_id">volume</property>
    <property name="tag">volume</property>
    <property name="kdenlive_ix">1</property>
    <property name="kdenlive_info"/>
    <property name="disable"/>
    <property name="gain">1</property>
    <property name="end">1</property>
   </filter>
   <filter in="635" id="filter69" out="636">
    <property name="window">75</property>
    <property name="max_gain">20dB</property>
    <property name="mlt_type">filter</property>
    <property name="mlt_service">volume</property>
    <property name="kdenlive_id">volume</property>
    <property name="tag">volume</property>
    <property name="kdenlive_ix">1</property>
    <property name="kdenlive_info"/>
    <property name="disable"/>
    <property name="gain">2</property>
    <property name="end">3</property>
   </filter>
   <filter in="637" id="filter70" out="746">
    <property name="window">75</property>
    <property name="max_gain">20dB</property>
    <property name="mlt_type">filter</property>
    <property name="mlt_service">volume</property>
    <property name="kdenlive_id">volume</property>
    <property name="tag">volume</property>
    <property name="kdenlive_ix">1</property>
    <property name="kdenlive_info"/>
    <property name="disable"/>
    <property name="gain">3</property>
    <property name="end">3</property>
   </filter>
  </entry>
  <entry in="0" producer="96_playlist4" out="420"/>
  <entry in="1159" producer="96_playlist4" out="1373"/>
  <entry in="740" producer="97_playlist4" out="969"/>
  <entry in="0" producer="98_playlist4" out="77"/>
  <entry in="360" producer="98_playlist4" out="498"/>
  <entry in="290" producer="99_playlist4" out="394"/>
  <entry in="485" producer="101_playlist4" out="593"/>
  <entry in="762" producer="101_playlist4" out="1118"/>
  <entry in="1822" producer="101_playlist4" out="1976"/>
  <entry in="2009" producer="101_playlist4" out="2080"/>
  <entry in="2130" producer="101_playlist4" out="2168"/>
  <entry in="3025" producer="101_video" out="3058"/>
  <blank length="65"/>
  <entry in="850" producer="100_playlist4" out="998"/>
 </playlist>
 <producer in="0" title="Anonymous Submission" id="83_playlist5" out="15487">
  <property name="mlt_type">producer</property>
  <property name="length">00:08:36:08</property>
  <property name="eof">pause</property>
  <property name="resource">/opt/vlog/entrenamiento1/videos/VID_20190202_133913.mp4</property>
  <property name="audio_index">0</property>
  <property name="video_index">1</property>
  <property name="mute_on_pause">1</property>
  <property name="mlt_service">avformat-novalidate</property>
  <property name="seekable">1</property>
  <property name="aspect_ratio">1</property>
  <property name="kdenlive:folderid">1</property>
  <property name="kdenlive:file_size">1432713470</property>
  <property name="kdenlive:file_hash">1f0a354e03507ace4d8746a796067810</property>
  <property name="global_feed">1</property>
  <property name="xml">was here</property>
  <property name="meta.media.nb_streams">2</property>
  <property name="meta.media.0.stream.type">audio</property>
  <property name="meta.media.0.codec.sample_fmt">fltp</property>
  <property name="meta.media.0.codec.sample_rate">44100</property>
  <property name="meta.media.0.codec.channels">2</property>
  <property name="meta.media.0.codec.name">aac</property>
  <property name="meta.media.0.codec.long_name">AAC (Advanced Audio Coding)</property>
  <property name="meta.media.0.codec.bit_rate">191999</property>
  <property name="meta.attr.0.stream.creation_time.markup">2019-02-02 12:39:13</property>
  <property name="meta.attr.0.stream.language.markup">eng</property>
  <property name="meta.attr.0.stream.handler_name.markup">SoundHandle</property>
  <property name="meta.media.1.stream.type">video</property>
  <property name="meta.media.1.stream.frame_rate">30,0123</property>
  <property name="meta.media.1.stream.sample_aspect_ratio">1</property>
  <property name="meta.media.1.codec.width">1920</property>
  <property name="meta.media.1.codec.height">1080</property>
  <property name="meta.media.1.codec.rotate">0</property>
  <property name="meta.media.1.codec.frame_rate">90000</property>
  <property name="meta.media.1.codec.pix_fmt">yuvj420p</property>
  <property name="meta.media.1.codec.sample_aspect_ratio">0</property>
  <property name="meta.media.1.codec.colorspace">601</property>
  <property name="meta.media.1.codec.color_trc">6</property>
  <property name="meta.media.1.codec.name">h264</property>
  <property name="meta.media.1.codec.long_name">H.264 / AVC / MPEG-4 AVC / MPEG-4 part 10</property>
  <property name="meta.media.1.codec.bit_rate">22006863</property>
  <property name="meta.attr.1.stream.creation_time.markup">2019-02-02 12:39:13</property>
  <property name="meta.attr.1.stream.language.markup">eng</property>
  <property name="meta.attr.1.stream.handler_name.markup">VideoHandle</property>
  <property name="meta.attr.major_brand.markup">mp42</property>
  <property name="meta.attr.minor_version.markup">0</property>
  <property name="meta.attr.compatible_brands.markup">isommp42</property>
  <property name="meta.attr.creation_time.markup">2019-02-02 12:39:13</property>
  <property name="meta.attr.location.markup">+51.5184+007.3990/</property>
  <property name="meta.attr.location-eng.markup">+51.5184+007.3990/</property>
  <property name="meta.media.sample_aspect_num">1</property>
  <property name="meta.media.sample_aspect_den">1</property>
  <property name="meta.media.frame_rate_num">46482000</property>
  <property name="meta.media.frame_rate_den">1548763</property>
  <property name="meta.media.colorspace">601</property>
  <property name="meta.media.color_trc">6</property>
  <property name="meta.media.width">1920</property>
  <property name="meta.media.height">1080</property>
  <property name="meta.media.top_field_first">0</property>
  <property name="meta.media.progressive">1</property>
 </producer>
 <producer in="0" title="Anonymous Submission" id="85_playlist5" out="12881">
  <property name="mlt_type">mlt_producer</property>
  <property name="length">00:07:09:12</property>
  <property name="eof">pause</property>
  <property name="resource">/opt/vlog/entrenamiento1/videos/VID_20190202_140016.mp4</property>
  <property name="audio_index">0</property>
  <property name="video_index">1</property>
  <property name="mute_on_pause">1</property>
  <property name="mlt_service">avformat-novalidate</property>
  <property name="seekable">1</property>
  <property name="aspect_ratio">1</property>
  <property name="kdenlive:folderid">1</property>
  <property name="kdenlive:file_size">1191419173</property>
  <property name="kdenlive:file_hash">b13cda36433526fcdb802ad8d8dd96df</property>
  <property name="global_feed">1</property>
  <property name="xml">was here</property>
  <property name="meta.media.nb_streams">2</property>
  <property name="meta.media.0.stream.type">audio</property>
  <property name="meta.media.0.codec.sample_fmt">fltp</property>
  <property name="meta.media.0.codec.sample_rate">44100</property>
  <property name="meta.media.0.codec.channels">2</property>
  <property name="meta.media.0.codec.name">aac</property>
  <property name="meta.media.0.codec.long_name">AAC (Advanced Audio Coding)</property>
  <property name="meta.media.0.codec.bit_rate">191998</property>
  <property name="meta.attr.0.stream.creation_time.markup">2019-02-02 13:00:15</property>
  <property name="meta.attr.0.stream.language.markup">eng</property>
  <property name="meta.attr.0.stream.handler_name.markup">SoundHandle</property>
  <property name="meta.media.1.stream.type">video</property>
  <property name="meta.media.1.stream.frame_rate">30,0116</property>
  <property name="meta.media.1.stream.sample_aspect_ratio">1</property>
  <property name="meta.media.1.codec.width">1920</property>
  <property name="meta.media.1.codec.height">1080</property>
  <property name="meta.media.1.codec.rotate">0</property>
  <property name="meta.media.1.codec.frame_rate">90000</property>
  <property name="meta.media.1.codec.pix_fmt">yuvj420p</property>
  <property name="meta.media.1.codec.sample_aspect_ratio">0</property>
  <property name="meta.media.1.codec.colorspace">601</property>
  <property name="meta.media.1.codec.color_trc">6</property>
  <property name="meta.media.1.codec.name">h264</property>
  <property name="meta.media.1.codec.long_name">H.264 / AVC / MPEG-4 AVC / MPEG-4 part 10</property>
  <property name="meta.media.1.codec.bit_rate">22002252</property>
  <property name="meta.attr.1.stream.creation_time.markup">2019-02-02 13:00:15</property>
  <property name="meta.attr.1.stream.language.markup">eng</property>
  <property name="meta.attr.1.stream.handler_name.markup">VideoHandle</property>
  <property name="meta.attr.major_brand.markup">mp42</property>
  <property name="meta.attr.minor_version.markup">0</property>
  <property name="meta.attr.compatible_brands.markup">isommp42</property>
  <property name="meta.attr.creation_time.markup">2019-02-02 13:00:15</property>
  <property name="meta.attr.location.markup">+51.5225+007.4004/</property>
  <property name="meta.attr.location-eng.markup">+51.5225+007.4004/</property>
  <property name="meta.media.sample_aspect_num">1</property>
  <property name="meta.media.sample_aspect_den">1</property>
  <property name="meta.media.frame_rate_num">231966000</property>
  <property name="meta.media.frame_rate_den">7729213</property>
  <property name="meta.media.colorspace">601</property>
  <property name="meta.media.color_trc">6</property>
  <property name="meta.media.width">1920</property>
  <property name="meta.media.height">1080</property>
  <property name="meta.media.top_field_first">0</property>
  <property name="meta.media.progressive">1</property>
 </producer>
 <producer in="0" title="Anonymous Submission" id="88_playlist5" out="24144">
  <property name="mlt_type">producer</property>
  <property name="length">00:13:24:25</property>
  <property name="eof">pause</property>
  <property name="resource">/opt/vlog/entrenamiento1/videos/VID_20190202_143005.mp4</property>
  <property name="audio_index">0</property>
  <property name="video_index">1</property>
  <property name="mute_on_pause">1</property>
  <property name="mlt_service">avformat-novalidate</property>
  <property name="seekable">1</property>
  <property name="aspect_ratio">1</property>
  <property name="kdenlive:folderid">1</property>
  <property name="kdenlive:file_size">2233387928</property>
  <property name="kdenlive:file_hash">aec056a458604487146a80b48484766b</property>
  <property name="global_feed">1</property>
  <property name="xml">was here</property>
  <property name="meta.media.nb_streams">2</property>
  <property name="meta.media.0.stream.type">audio</property>
  <property name="meta.media.0.codec.sample_fmt">fltp</property>
  <property name="meta.media.0.codec.sample_rate">44100</property>
  <property name="meta.media.0.codec.channels">2</property>
  <property name="meta.media.0.codec.name">aac</property>
  <property name="meta.media.0.codec.long_name">AAC (Advanced Audio Coding)</property>
  <property name="meta.media.0.codec.bit_rate">191997</property>
  <property name="meta.attr.0.stream.creation_time.markup">2019-02-02 13:30:05</property>
  <property name="meta.attr.0.stream.language.markup">eng</property>
  <property name="meta.attr.0.stream.handler_name.markup">SoundHandle</property>
  <property name="meta.media.1.stream.type">video</property>
  <property name="meta.media.1.stream.frame_rate">30,012</property>
  <property name="meta.media.1.stream.sample_aspect_ratio">1</property>
  <property name="meta.media.1.codec.width">1920</property>
  <property name="meta.media.1.codec.height">1080</property>
  <property name="meta.media.1.codec.rotate">0</property>
  <property name="meta.media.1.codec.frame_rate">90000</property>
  <property name="meta.media.1.codec.pix_fmt">yuvj420p</property>
  <property name="meta.media.1.codec.sample_aspect_ratio">0</property>
  <property name="meta.media.1.codec.colorspace">601</property>
  <property name="meta.media.1.codec.color_trc">6</property>
  <property name="meta.media.1.codec.name">h264</property>
  <property name="meta.media.1.codec.long_name">H.264 / AVC / MPEG-4 AVC / MPEG-4 part 10</property>
  <property name="meta.media.1.codec.bit_rate">22004752</property>
  <property name="meta.attr.1.stream.creation_time.markup">2019-02-02 13:30:05</property>
  <property name="meta.attr.1.stream.language.markup">eng</property>
  <property name="meta.attr.1.stream.handler_name.markup">VideoHandle</property>
  <property name="meta.attr.major_brand.markup">mp42</property>
  <property name="meta.attr.minor_version.markup">0</property>
  <property name="meta.attr.compatible_brands.markup">isommp42</property>
  <property name="meta.attr.creation_time.markup">2019-02-02 13:30:05</property>
  <property name="meta.attr.location.markup">+51.5190+007.4016/</property>
  <property name="meta.attr.location-eng.markup">+51.5190+007.4016/</property>
  <property name="meta.media.sample_aspect_num">1</property>
  <property name="meta.media.sample_aspect_den">1</property>
  <property name="meta.media.frame_rate_num">135871875</property>
  <property name="meta.media.frame_rate_den">4527253</property>
  <property name="meta.media.colorspace">601</property>
  <property name="meta.media.color_trc">6</property>
  <property name="meta.media.width">1920</property>
  <property name="meta.media.height">1080</property>
  <property name="meta.media.top_field_first">0</property>
  <property name="meta.media.progressive">1</property>
 </producer>
 <producer in="0" title="Anonymous Submission" id="132_playlist5" out="5853">
  <property name="mlt_type">mlt_producer</property>
  <property name="length">00:03:15:04</property>
  <property name="eof">pause</property>
  <property name="resource">/opt/vlog/entrenamiento1/videos/VID_20190202_153019695.mp4</property>
  <property name="audio_index">1</property>
  <property name="video_index">0</property>
  <property name="mute_on_pause">1</property>
  <property name="mlt_service">avformat-novalidate</property>
  <property name="seekable">1</property>
  <property name="aspect_ratio">1</property>
  <property name="kdenlive:folderid">1</property>
  <property name="kdenlive:file_size">154673055</property>
  <property name="kdenlive:file_hash">a1fa846cecc47c01231b94f10e473688</property>
  <property name="global_feed">1</property>
  <property name="xml">was here</property>
  <property name="meta.media.nb_streams">2</property>
  <property name="meta.media.0.stream.type">video</property>
  <property name="meta.media.0.stream.frame_rate">29,97</property>
  <property name="meta.media.0.stream.sample_aspect_ratio">0</property>
  <property name="meta.media.0.codec.width">1920</property>
  <property name="meta.media.0.codec.height">1080</property>
  <property name="meta.media.0.codec.rotate">0</property>
  <property name="meta.media.0.codec.frame_rate">29,97</property>
  <property name="meta.media.0.codec.pix_fmt">yuv420p</property>
  <property name="meta.media.0.codec.sample_aspect_ratio">1</property>
  <property name="meta.media.0.codec.colorspace">601</property>
  <property name="meta.media.0.codec.color_trc">6</property>
  <property name="meta.media.0.codec.name">h264</property>
  <property name="meta.media.0.codec.long_name">H.264 / AVC / MPEG-4 AVC / MPEG-4 part 10</property>
  <property name="meta.media.0.codec.bit_rate">6219612</property>
  <property name="meta.attr.0.stream.creation_time.markup">2019-02-02 17:33:06</property>
  <property name="meta.attr.0.stream.handler_name.markup">ISO Media file produced by Google Inc. Created on: 02/02/2019.</property>
  <property name="meta.media.1.stream.type">audio</property>
  <property name="meta.media.1.codec.sample_fmt">fltp</property>
  <property name="meta.media.1.codec.sample_rate">44100</property>
  <property name="meta.media.1.codec.channels">2</property>
  <property name="meta.media.1.codec.name">aac</property>
  <property name="meta.media.1.codec.long_name">AAC (Advanced Audio Coding)</property>
  <property name="meta.media.1.codec.bit_rate">125608</property>
  <property name="meta.attr.1.stream.creation_time.markup">2019-02-02 17:33:06</property>
  <property name="meta.attr.1.stream.language.markup">eng</property>
  <property name="meta.attr.1.stream.handler_name.markup">ISO Media file produced by Google Inc. Created on: 02/02/2019.</property>
  <property name="meta.attr.major_brand.markup">mp42</property>
  <property name="meta.attr.minor_version.markup">0</property>
  <property name="meta.attr.compatible_brands.markup">isommp42</property>
  <property name="meta.attr.creation_time.markup">2019-02-02 14:33:38</property>
  <property name="meta.attr.location.markup">+51.5202+007.4015/</property>
  <property name="meta.media.sample_aspect_num">1</property>
  <property name="meta.media.sample_aspect_den">1</property>
  <property name="meta.media.frame_rate_num">30000</property>
  <property name="meta.media.frame_rate_den">1001</property>
  <property name="meta.media.colorspace">601</property>
  <property name="meta.media.color_trc">6</property>
  <property name="meta.media.width">1920</property>
  <property name="meta.media.height">1080</property>
  <property name="meta.media.top_field_first">0</property>
  <property name="meta.media.progressive">1</property>
 </producer>
 <producer in="0" title="Anonymous Submission" id="134_playlist5" out="1982">
  <property name="mlt_type">producer</property>
  <property name="length">00:01:06:03</property>
  <property name="eof">pause</property>
  <property name="resource">/opt/vlog/entrenamiento1/videos/VID_20190202_153533773.mp4</property>
  <property name="audio_index">1</property>
  <property name="video_index">0</property>
  <property name="mute_on_pause">1</property>
  <property name="mlt_service">avformat-novalidate</property>
  <property name="seekable">1</property>
  <property name="aspect_ratio">1</property>
  <property name="kdenlive:folderid">1</property>
  <property name="kdenlive:file_size">49028925</property>
  <property name="kdenlive:file_hash">d4c6e61d619ed01ed700ed160b9a5e42</property>
  <property name="global_feed">1</property>
  <property name="xml">was here</property>
  <property name="meta.media.nb_streams">2</property>
  <property name="meta.media.0.stream.type">video</property>
  <property name="meta.media.0.stream.frame_rate">30</property>
  <property name="meta.media.0.stream.sample_aspect_ratio">0</property>
  <property name="meta.media.0.codec.width">1920</property>
  <property name="meta.media.0.codec.height">1080</property>
  <property name="meta.media.0.codec.rotate">0</property>
  <property name="meta.media.0.codec.frame_rate">30</property>
  <property name="meta.media.0.codec.pix_fmt">yuv420p</property>
  <property name="meta.media.0.codec.sample_aspect_ratio">1</property>
  <property name="meta.media.0.codec.colorspace">601</property>
  <property name="meta.media.0.codec.color_trc">6</property>
  <property name="meta.media.0.codec.name">h264</property>
  <property name="meta.media.0.codec.long_name">H.264 / AVC / MPEG-4 AVC / MPEG-4 part 10</property>
  <property name="meta.media.0.codec.bit_rate">5820318</property>
  <property name="meta.attr.0.stream.creation_time.markup">2019-02-02 19:51:26</property>
  <property name="meta.attr.0.stream.handler_name.markup">ISO Media file produced by Google Inc. Created on: 02/02/2019.</property>
  <property name="meta.media.1.stream.type">audio</property>
  <property name="meta.media.1.codec.sample_fmt">fltp</property>
  <property name="meta.media.1.codec.sample_rate">44100</property>
  <property name="meta.media.1.codec.channels">2</property>
  <property name="meta.media.1.codec.name">aac</property>
  <property name="meta.media.1.codec.long_name">AAC (Advanced Audio Coding)</property>
  <property name="meta.media.1.codec.bit_rate">125636</property>
  <property name="meta.attr.1.stream.creation_time.markup">2019-02-02 19:51:26</property>
  <property name="meta.attr.1.stream.language.markup">eng</property>
  <property name="meta.attr.1.stream.handler_name.markup">ISO Media file produced by Google Inc. Created on: 02/02/2019.</property>
  <property name="meta.attr.major_brand.markup">mp42</property>
  <property name="meta.attr.minor_version.markup">0</property>
  <property name="meta.attr.compatible_brands.markup">isommp42</property>
  <property name="meta.attr.creation_time.markup">2019-02-02 14:36:43</property>
  <property name="meta.attr.location.markup">+51.5189+007.4019/</property>
  <property name="meta.media.sample_aspect_num">1</property>
  <property name="meta.media.sample_aspect_den">1</property>
  <property name="meta.media.frame_rate_num">30</property>
  <property name="meta.media.frame_rate_den">1</property>
  <property name="meta.media.colorspace">601</property>
  <property name="meta.media.color_trc">6</property>
  <property name="meta.media.width">1920</property>
  <property name="meta.media.height">1080</property>
  <property name="meta.media.top_field_first">0</property>
  <property name="meta.media.progressive">1</property>
 </producer>
 <producer in="0" title="Anonymous Submission" id="135_playlist5" out="1783">
  <property name="mlt_type">producer</property>
  <property name="length">00:00:59:14</property>
  <property name="eof">pause</property>
  <property name="resource">/opt/vlog/entrenamiento1/videos/VID_20190202_153726716.mp4</property>
  <property name="audio_index">1</property>
  <property name="video_index">0</property>
  <property name="mute_on_pause">1</property>
  <property name="mlt_service">avformat-novalidate</property>
  <property name="seekable">1</property>
  <property name="aspect_ratio">1</property>
  <property name="kdenlive:folderid">1</property>
  <property name="kdenlive:file_size">39732777</property>
  <property name="kdenlive:file_hash">f97825f0e376664e0518d8528eeca1fc</property>
  <property name="global_feed">1</property>
  <property name="xml">was here</property>
  <property name="meta.media.nb_streams">2</property>
  <property name="meta.media.0.stream.type">video</property>
  <property name="meta.media.0.stream.frame_rate">30</property>
  <property name="meta.media.0.stream.sample_aspect_ratio">0</property>
  <property name="meta.media.0.codec.width">1920</property>
  <property name="meta.media.0.codec.height">1080</property>
  <property name="meta.media.0.codec.rotate">0</property>
  <property name="meta.media.0.codec.frame_rate">30</property>
  <property name="meta.media.0.codec.pix_fmt">yuv420p</property>
  <property name="meta.media.0.codec.sample_aspect_ratio">1</property>
  <property name="meta.media.0.codec.colorspace">601</property>
  <property name="meta.media.0.codec.color_trc">6</property>
  <property name="meta.media.0.codec.name">h264</property>
  <property name="meta.media.0.codec.long_name">H.264 / AVC / MPEG-4 AVC / MPEG-4 part 10</property>
  <property name="meta.media.0.codec.bit_rate">5231557</property>
  <property name="meta.attr.0.stream.creation_time.markup">2019-02-02 20:49:11</property>
  <property name="meta.attr.0.stream.handler_name.markup">ISO Media file produced by Google Inc. Created on: 02/02/2019.</property>
  <property name="meta.media.1.stream.type">audio</property>
  <property name="meta.media.1.codec.sample_fmt">fltp</property>
  <property name="meta.media.1.codec.sample_rate">44100</property>
  <property name="meta.media.1.codec.channels">2</property>
  <property name="meta.media.1.codec.name">aac</property>
  <property name="meta.media.1.codec.long_name">AAC (Advanced Audio Coding)</property>
  <property name="meta.media.1.codec.bit_rate">125643</property>
  <property name="meta.attr.1.stream.creation_time.markup">2019-02-02 20:49:11</property>
  <property name="meta.attr.1.stream.language.markup">eng</property>
  <property name="meta.attr.1.stream.handler_name.markup">ISO Media file produced by Google Inc. Created on: 02/02/2019.</property>
  <property name="meta.attr.major_brand.markup">mp42</property>
  <property name="meta.attr.minor_version.markup">0</property>
  <property name="meta.attr.compatible_brands.markup">isommp42</property>
  <property name="meta.attr.creation_time.markup">2019-02-02 14:38:29</property>
  <property name="meta.attr.location.markup">+51.5190+007.4017/</property>
  <property name="meta.media.sample_aspect_num">1</property>
  <property name="meta.media.sample_aspect_den">1</property>
  <property name="meta.media.frame_rate_num">30</property>
  <property name="meta.media.frame_rate_den">1</property>
  <property name="meta.media.colorspace">601</property>
  <property name="meta.media.color_trc">6</property>
  <property name="meta.media.width">1920</property>
  <property name="meta.media.height">1080</property>
  <property name="meta.media.top_field_first">0</property>
  <property name="meta.media.progressive">1</property>
 </producer>
 <producer in="0" title="Anonymous Submission" id="136_playlist5" out="611">
  <property name="mlt_type">producer</property>
  <property name="length">00:00:20:12</property>
  <property name="eof">pause</property>
  <property name="resource">/opt/vlog/entrenamiento1/videos/VID_20190202_153925715.mp4</property>
  <property name="audio_index">1</property>
  <property name="video_index">0</property>
  <property name="mute_on_pause">1</property>
  <property name="mlt_service">avformat-novalidate</property>
  <property name="seekable">1</property>
  <property name="aspect_ratio">1</property>
  <property name="kdenlive:folderid">1</property>
  <property name="kdenlive:file_size">15659467</property>
  <property name="kdenlive:file_hash">7eb8ad8e6b3a4b9b4f59edb9ce86fa07</property>
  <property name="global_feed">1</property>
  <property name="xml">was here</property>
  <property name="meta.media.nb_streams">2</property>
  <property name="meta.media.0.stream.type">video</property>
  <property name="meta.media.0.stream.frame_rate">30</property>
  <property name="meta.media.0.stream.sample_aspect_ratio">0</property>
  <property name="meta.media.0.codec.width">1920</property>
  <property name="meta.media.0.codec.height">1080</property>
  <property name="meta.media.0.codec.rotate">0</property>
  <property name="meta.media.0.codec.frame_rate">30</property>
  <property name="meta.media.0.codec.pix_fmt">yuv420p</property>
  <property name="meta.media.0.codec.sample_aspect_ratio">1</property>
  <property name="meta.media.0.codec.colorspace">709</property>
  <property name="meta.media.0.codec.color_trc">6</property>
  <property name="meta.media.0.codec.name">h264</property>
  <property name="meta.media.0.codec.long_name">H.264 / AVC / MPEG-4 AVC / MPEG-4 part 10</property>
  <property name="meta.media.0.codec.bit_rate">6061782</property>
  <property name="meta.attr.0.stream.creation_time.markup">2019-02-02 21:04:23</property>
  <property name="meta.attr.0.stream.handler_name.markup">ISO Media file produced by Google Inc. Created on: 02/02/2019.</property>
  <property name="meta.media.1.stream.type">audio</property>
  <property name="meta.media.1.codec.sample_fmt">fltp</property>
  <property name="meta.media.1.codec.sample_rate">44100</property>
  <property name="meta.media.1.codec.channels">2</property>
  <property name="meta.media.1.codec.name">aac</property>
  <property name="meta.media.1.codec.long_name">AAC (Advanced Audio Coding)</property>
  <property name="meta.media.1.codec.bit_rate">125778</property>
  <property name="meta.attr.1.stream.creation_time.markup">2019-02-02 21:04:23</property>
  <property name="meta.attr.1.stream.language.markup">eng</property>
  <property name="meta.attr.1.stream.handler_name.markup">ISO Media file produced by Google Inc. Created on: 02/02/2019.</property>
  <property name="meta.attr.major_brand.markup">mp42</property>
  <property name="meta.attr.minor_version.markup">0</property>
  <property name="meta.attr.compatible_brands.markup">isommp42</property>
  <property name="meta.attr.creation_time.markup">2019-02-02 14:39:48</property>
  <property name="meta.attr.location.markup">+51.5191+007.4022/</property>
  <property name="meta.media.sample_aspect_num">1</property>
  <property name="meta.media.sample_aspect_den">1</property>
  <property name="meta.media.frame_rate_num">30</property>
  <property name="meta.media.frame_rate_den">1</property>
  <property name="meta.media.colorspace">709</property>
  <property name="meta.media.color_trc">6</property>
  <property name="meta.media.width">1920</property>
  <property name="meta.media.height">1080</property>
  <property name="meta.media.top_field_first">0</property>
  <property name="meta.media.progressive">1</property>
 </producer>
 <playlist id="playlist5">
  <property name="kdenlive:track_name">Video 1</property>
  <property name="kdenlive:locked_track">0</property>
  <property name="kdenlive:composite">1</property>
  <blank length="1067"/>
  <entry in="12334" producer="83_playlist5" out="12428">
   <filter in="12334" id="filter71">
    <property name="window">75</property>
    <property name="max_gain">20dB</property>
    <property name="mlt_type">filter</property>
    <property name="mlt_service">volume</property>
    <property name="kdenlive_id">volume</property>
    <property name="tag">volume</property>
    <property name="kdenlive_ix">1</property>
    <property name="kdenlive_info"/>
    <property name="gain">0</property>
   </filter>
  </entry>
  <blank length="113"/>
  <entry in="9286" producer="83_playlist5" out="9452"/>
  <blank length="361"/>
  <entry in="13201" producer="83_playlist5" out="13380"/>
  <blank length="213"/>
  <entry in="757" producer="85_playlist5" out="829">
   <filter in="757" id="fade_from_black" out="781">
    <property name="start">0</property>
    <property name="mlt_type">filter</property>
    <property name="mlt_service">brightness</property>
    <property name="kdenlive_id">fade_from_black</property>
    <property name="tag">brightness</property>
    <property name="kdenlive_ix">1</property>
    <property name="kdenlive_info"/>
    <property name="disable"/>
    <property name="end">1</property>
   </filter>
  </entry>
  <blank length="66"/>
  <entry in="2908" producer="85_playlist5" out="2957"/>
  <blank length="55"/>
  <entry in="1236" producer="85_playlist5" out="1282">
   <filter in="1236" id="filter72" out="1261">
    <property name="window">75</property>
    <property name="max_gain">20dB</property>
    <property name="mlt_type">filter</property>
    <property name="mlt_service">volume</property>
    <property name="kdenlive_id">volume</property>
    <property name="tag">volume</property>
    <property name="kdenlive_ix">1</property>
    <property name="kdenlive_info"/>
    <property name="gain">1</property>
    <property name="end">0,29</property>
   </filter>
  </entry>
  <blank length="52"/>
  <entry in="7166" producer="85_playlist5" out="7217"/>
  <blank length="53"/>
  <entry in="8137" producer="85_playlist5" out="8268"/>
  <blank length="576"/>
  <entry in="17869" producer="88_playlist5" out="17923">
   <filter in="17869" id="filter73" out="17923">
    <property name="window">75</property>
    <property name="max_gain">20dB</property>
    <property name="mlt_type">filter</property>
    <property name="mlt_service">volume</property>
    <property name="kdenlive_id">volume</property>
    <property name="tag">volume</property>
    <property name="kdenlive_ix">1</property>
    <property name="kdenlive_info"/>
    <property name="disable"/>
    <property name="gain">1</property>
    <property name="end">0,19</property>
   </filter>
  </entry>
  <blank length="45"/>
  <entry in="18356" producer="88_playlist5" out="18389"/>
  <blank length="35"/>
  <entry in="4969" producer="88_playlist5" out="5003"/>
  <blank length="38"/>
  <entry in="7025" producer="88_playlist5" out="7067"/>
  <blank length="39"/>
  <entry in="5666" producer="88_playlist5" out="5745"/>
  <blank length="38"/>
  <entry in="4208" producer="88_playlist5" out="4242"/>
  <blank length="84"/>
  <entry in="84" producer="103" out="116"/>
  <entry in="9916" producer="88_playlist5" out="9954"/>
  <blank length="37"/>
  <entry in="5262" producer="88_playlist5" out="5297"/>
  <blank length="76"/>
  <entry in="8141" producer="88_playlist5" out="8180">
   <filter in="8141" id="filter74" out="8180">
    <property name="window">75</property>
    <property name="max_gain">20dB</property>
    <property name="mlt_type">filter</property>
    <property name="mlt_service">volume</property>
    <property name="kdenlive_id">volume</property>
    <property name="tag">volume</property>
    <property name="kdenlive_ix">1</property>
    <property name="kdenlive_info"/>
    <property name="disable"/>
    <property name="gain">1</property>
    <property name="end">2,37</property>
   </filter>
  </entry>
  <blank length="35"/>
  <entry in="14049" producer="88_playlist5" out="14087"/>
  <blank length="68"/>
  <entry in="0" producer="104" out="102"/>
  <entry in="11137" producer="88_playlist5" out="11188"/>
  <blank length="148"/>
  <entry in="108" producer="103" out="222"/>
  <blank length="130"/>
  <entry in="18641" producer="88_playlist5" out="18719"/>
  <blank length="156"/>
  <entry in="19760" producer="88_playlist5" out="19803"/>
  <blank length="3966"/>
  <entry in="0" producer="132_playlist5" out="147"/>
  <entry in="148" producer="132_playlist5" out="201"/>
  <entry in="383" producer="132_playlist5" out="414"/>
  <entry in="547" producer="132_playlist5" out="648"/>
  <entry in="1168" producer="132_playlist5" out="1465"/>
  <entry in="3667" producer="132_playlist5" out="3919"/>
  <entry in="366" producer="134_playlist5" out="736">
   <filter in="368" id="filter75" out="519">
    <property name="window">75</property>
    <property name="max_gain">20dB</property>
    <property name="mlt_type">filter</property>
    <property name="mlt_service">volume</property>
    <property name="kdenlive_id">volume</property>
    <property name="tag">volume</property>
    <property name="kdenlive_ix">1</property>
    <property name="kdenlive_info"/>
    <property name="gain">0</property>
    <property name="end">0</property>
   </filter>
   <filter in="520" id="filter76" out="588">
    <property name="window">75</property>
    <property name="max_gain">20dB</property>
    <property name="mlt_type">filter</property>
    <property name="mlt_service">volume</property>
    <property name="kdenlive_id">volume</property>
    <property name="tag">volume</property>
    <property name="kdenlive_ix">1</property>
    <property name="kdenlive_info"/>
    <property name="gain">0,0424638</property>
    <property name="end">2,93</property>
   </filter>
   <filter in="589" id="filter77" out="736">
    <property name="window">75</property>
    <property name="max_gain">20dB</property>
    <property name="mlt_type">filter</property>
    <property name="mlt_service">volume</property>
    <property name="kdenlive_id">volume</property>
    <property name="tag">volume</property>
    <property name="kdenlive_ix">1</property>
    <property name="kdenlive_info"/>
    <property name="gain">2,91696</property>
    <property name="end">1</property>
   </filter>
  </entry>
  <entry in="538" producer="135_playlist5" out="736">
   <filter in="538" id="filter78">
    <property name="window">75</property>
    <property name="max_gain">20dB</property>
    <property name="mlt_type">filter</property>
    <property name="mlt_service">volume</property>
    <property name="kdenlive_id">volume</property>
    <property name="tag">volume</property>
    <property name="kdenlive_ix">1</property>
    <property name="kdenlive_info"/>
    <property name="gain">0</property>
   </filter>
  </entry>
  <entry in="59" producer="136_playlist5" out="228"/>
  <entry in="406" producer="136_playlist5" out="547"/>
 </playlist>
 <tractor in="0" title="Anonymous Submission" id="maintractor" out="14026" global_feed="1">
  <track producer="black_track"/>
  <track producer="playlist1" hide="video"/>
  <track producer="playlist2" hide="video"/>
  <track producer="playlist3"/>
  <track producer="playlist4"/>
  <track producer="playlist5"/>
  <transition id="transition0">
   <property name="a_track">0</property>
   <property name="b_track">1</property>
   <property name="mlt_type">transition</property>
   <property name="mlt_service">mix</property>
   <property name="always_active">1</property>
   <property name="combine">1</property>
   <property name="internal_added">237</property>
  </transition>
  <transition id="transition1">
   <property name="a_track">0</property>
   <property name="b_track">2</property>
   <property name="mlt_type">transition</property>
   <property name="mlt_service">mix</property>
   <property name="always_active">1</property>
   <property name="combine">1</property>
   <property name="internal_added">237</property>
  </transition>
  <transition id="transition2">
   <property name="a_track">0</property>
   <property name="b_track">3</property>
   <property name="mlt_type">transition</property>
   <property name="mlt_service">mix</property>
   <property name="always_active">1</property>
   <property name="combine">1</property>
   <property name="internal_added">237</property>
  </transition>
  <transition id="transition3">
   <property name="a_track">0</property>
   <property name="b_track">4</property>
   <property name="mlt_type">transition</property>
   <property name="mlt_service">mix</property>
   <property name="always_active">1</property>
   <property name="combine">1</property>
   <property name="internal_added">237</property>
  </transition>
  <transition id="transition4">
   <property name="a_track">0</property>
   <property name="b_track">5</property>
   <property name="mlt_type">transition</property>
   <property name="mlt_service">mix</property>
   <property name="always_active">1</property>
   <property name="combine">1</property>
   <property name="internal_added">237</property>
  </transition>
  <transition in="1067" id="transition5" out="1070">
   <property name="a_track">4</property>
   <property name="b_track">5</property>
   <property name="factory">loader</property>
   <property name="mlt_type">transition</property>
   <property name="mlt_service">luma</property>
   <property name="automatic">1</property>
   <property name="kdenlive_id">dissolve</property>
   <property name="force_track">0</property>
   <property name="reverse">0</property>
  </transition>
  <transition id="transition6">
   <property name="a_track">3</property>
   <property name="b_track">4</property>
   <property name="version">0,9</property>
   <property name="mlt_type">transition</property>
   <property name="mlt_service">frei0r.cairoblend</property>
   <property name="internal_added">237</property>
   <property name="disable">1</property>
  </transition>
  <transition id="transition7">
   <property name="a_track">4</property>
   <property name="b_track">5</property>
   <property name="version">0,9</property>
   <property name="mlt_type">transition</property>
   <property name="mlt_service">frei0r.cairoblend</property>
   <property name="internal_added">237</property>
  </transition>
 </tractor>
</mlt>
